<svg width="1761" height="1761" xmlns="http://www.w3.org/2000/svg" xmlns:xlink="http://www.w3.org/1999/xlink" overflow="hidden"><defs><clipPath id="clip0"><rect x="0" y="0" width="1761" height="1761"/></clipPath></defs><g clip-path="url(#clip0)"><path d="M690.892 1550.52 693.243 1551.21 705.007 1551.21ZM561.559 1438.48 588.126 1468.33 588.126 1468.33ZM361.459 594.787 343.737 623.14C338.421 632.857 333.786 642.699 329.83 652.665L327.044 660.632 322.835 672 323.674 670.268 327.044 660.632 329.78 653.241C333.741 643.269 338.383 633.421 343.706 623.698L361.712 594.914ZM873.009 343.389C891.058 344.012 909.304 345.383 927.748 347.501 1017.37 356.473 1101.29 383.886 1179.53 429.741 1294.88 506.496 1339.7 617.644 1313.96 763.183 1302.81 825.236 1290.87 887.038 1278.12 948.593L1244.4 1101.1 1244.61 1101.02 1242.22 1110.93 1237.45 1132.51 1236.97 1132.68 1231.28 1156.26C1212.01 1237.89 1170.01 1307.08 1105.29 1363.82 997.585 1458.38 875.057 1520.85 737.708 1551.21L705.1 1554.94 705.1 1554.94 705.1 1554.94C647.789 1556.44 602.582 1528.56 569.48 1471.32 556.14 1448.93 540.578 1427.77 522.791 1407.86L505.747 1388.45 505.747 1388.45 502.534 1384.14 502.095 1383.94 483.526 1373.46 450.104 1338.32 444.628 1330.6 438.127 1322.41C404.994 1277.07 387.192 1214.77 384.72 1135.54 382.495 1074.99 369.56 1008.56 345.916 936.242L318.869 862.413 318.639 861.904 318.47 861.429 304.609 829.82C296.203 810.385 292 787.712 292 761.798L294.673 746.58 294.398 745.905C294 741.461 294.849 736.921 296.467 732.083L297.746 729.092 298.861 722.742C302.199 709.412 306.588 695.77 312.027 681.818 324.39 650.422 339.967 620.772 358.758 592.866L359.157 593.067 391.661 551.09C427.218 510.064 470.991 473.103 522.98 440.208 629.99 371.301 746.666 339.028 873.009 343.389Z" fill="#FFFFFF" fill-rule="evenodd"/><path d="M1212.33 1113.02C1194.55 1143.41 1169.61 1177.29 1137.51 1214.66 1105.4 1252.03 1043.42 1306.59 951.556 1378.34 859.198 1450.09 742.639 1485.47 601.879 1484.47L524.832 1397.77 505.57 1388.81 498.902 1379.84C456.427 1319.05 469.021 1239.58 536.685 1141.42 623.611 1083.12 757.455 1039.77 938.221 1011.37 1120.47 943.609 1211.84 977.491 1212.33 1113.02" fill="#EEEEEE" fill-rule="evenodd"/><path d="M602.628 1483.74C622.38 1520.95 652.751 1543.27 693.74 1550.71L706.332 1550.71 705.591 1554.43C648.307 1555.92 603.121 1528.14 570.034 1471.09 556.701 1448.76 541.146 1427.68 523.368 1407.84L506.332 1388.49 525.591 1397.42 602.628 1483.74" fill="#888888" fill-rule="evenodd"/><path d="M706.25 1551.27C800.117 1530.36 887.81 1493.27 969.326 1440.01L1000.45 1418.35C1120.5 1349.16 1195.1 1251.84 1224.25 1126.39L1228.7 1106.97 1245 1101 1231.66 1156.26C1212.39 1237.9 1170.4 1307.09 1105.68 1363.84 997.981 1458.43 875.458 1520.9 738.115 1551.27L705.509 1555C705.756 1553.76 702.767 1554.13 703.014 1552.88" fill="#777777" fill-rule="evenodd"/><path d="M1212.44 1111.96 1228 1106 1223.56 1125.37C1194.42 1250.57 1123.88 1347.69 1003.87 1416.74 993.496 1423.94 976.655 1433.57 966.283 1440.77 884.792 1493.93 801.171 1530.14 707.333 1551L690.696 1550.19C649.702 1542.74 618.519 1522.81 602 1482.32 742.757 1483.31 859.314 1448.04 951.671 1376.5 1043.53 1304.96 1105.52 1250.57 1137.62 1213.31 1169.72 1176.05 1194.66 1142.27 1212.44 1111.96" fill="#CCCCCC" fill-rule="evenodd"/><path d="M518.261 1391 501.924 1383.53 483.359 1373.07 449.944 1337.96 438.806 1322.27C415.538 1287.4 403.904 1250.05 403.904 1210.21 403.904 1086.69 375.439 970.64 318.508 862.062 293.261 802.793 296.973 733.314 329.647 653.624 337.567 633.701 348.211 614.277 361.577 595.351 400.687 538.572 462.816 486.524 547.963 439.208 660.339 374.959 781.132 349.309 910.339 362.258 1057.86 370.227 1177.42 429.496 1269 540.066 1162.07 443.94 1036.58 404.594 892.518 422.026 738.062 440.952 644.993 529.108 613.309 686.496 602.914 736.8 599.944 787.851 604.399 839.65 770.24 889.456 893.755 916.849 974.943 921.83L946.726 934.53C925.439 942.499 902.914 946.235 879.151 945.736L534.597 924.071C513.804 924.57 508.607 934.53 519.003 953.954L600.686 1074.98C584.845 1119.31 562.072 1161.15 532.369 1200.49 498.211 1208.96 482.122 1230.13 484.102 1264 486.082 1297.37 491.528 1324.02 500.438 1343.93 509.35 1362.86 515.785 1378.31 519.746 1390.26L518.261 1391M829.399 1072.74 997.963 1063.03 1002.42 1069.01 999.444 1094.41C966.776 1142.72 925.934 1178.83 876.924 1202.73 809.597 1175.34 786.577 1136.75 807.864 1086.94 810.34 1079.96 817.518 1075.24 829.399 1072.74" fill="#FFFFFF" fill-rule="evenodd"/><path d="M520 1391 519 1391 520 1390 520 1391" fill="#D58080" fill-rule="evenodd"/><path d="M521 1390.5 520 1391 520 1390.5 520 1390 521 1390.5" fill="#CC6666" fill-rule="evenodd"/><path d="M1219.98 1138.02 1188.05 1150C1215.27 1115.08 1233.59 1074.4 1243 1028L1222.95 1128.29 1219.98 1138.02M530 1227.84 547.824 1228.59 617.64 1232.33C614.174 1248.79 606.251 1261.01 593.872 1269L571.591 1265.26C562.679 1261.77 549.31 1253.04 531.485 1239.07L530 1232.33 530 1227.84" fill="#CCCCCC" fill-rule="evenodd"/><path d="M1188.33 1150.44C1132.31 1183.62 963.338 1309.43 852.201 1349.53 741.064 1389.62 576.746 1384.21 521.507 1391L520.766 1390.26C516.809 1378.31 510.381 1362.86 501.481 1343.94 492.58 1324.01 487.141 1297.37 485.163 1264 483.184 1230.12 499.256 1208.96 533.376 1200.5 563.045 1161.15 585.792 1119.3 601.615 1074.98L520.024 953.95C509.64 934.525 514.832 924.563 535.6 924.066L879.766 945.732C903.501 946.23 926.001 942.494 947.264 934.525L975.45 921.824C894.353 916.843 770.977 889.449 605.323 839.643 600.874 787.845 603.841 736.792 614.224 686.488 645.872 529.098 738.836 440.941 893.118 422.014 1037.02 404.581 1162.37 443.93 1269.18 540.056 1280.55 557.987 1289.95 604.058 1297.37 678.269 1304.78 751.984 1286.98 866.539 1243.96 1021.93L1243.22 1028.66C1233.83 1074.98 1215.52 1115.57 1188.33 1150.44M830.069 1072.74C818.201 1075.23 811.031 1079.97 808.559 1086.93 787.296 1136.74 810.29 1175.34 877.54 1202.74 926.496 1178.82 967.291 1142.72 999.923 1094.4L1002.89 1069 998.443 1063.02 830.069 1072.74M531.151 1228.14 531.151 1232.62 532.634 1239.34C550.435 1253.29 563.786 1262 572.688 1265.49L594.939 1269.23C607.302 1261.26 615.213 1249.05 618.675 1232.62L548.952 1228.88 531.151 1228.14" fill="#EEEEEE" fill-rule="evenodd"/><path d="M450 1337 438.132 1322.06C404.998 1276.75 387.196 1214.49 384.723 1135.31 381.756 1054.64 359.75 963.508 318.704 861.916L304.61 829.796C296.203 810.374 292 787.716 292 761.819 294.472 736.422 301.149 709.779 312.028 681.892 324.391 650.517 339.968 620.887 358.761 593L361.727 594.494C348.375 613.417 337.743 632.84 329.831 652.759 297.192 732.438 293.482 801.908 318.704 861.169 375.575 969.731 404.01 1085.76 404.01 1209.27 404.01 1249.11 415.631 1286.46 438.874 1321.31L450 1337" fill="#888888" fill-rule="evenodd"/><path d="M359 593.632C399.098 535.28 453.802 484.158 523.109 440.27 645.386 361.469 780.287 330.547 927.812 347.504 1017.42 356.482 1101.32 383.912 1179.55 429.797 1294.89 506.601 1339.7 617.821 1313.96 763.453 1291.68 887.639 1266.18 1010.82 1237.46 1133.02L1220.39 1139 1223.36 1129.27 1243.41 1029.03 1244.15 1022.29C1287.22 866.692 1305.05 751.981 1297.61 678.168 1290.19 603.856 1280.78 557.723 1269.4 539.768 1177.81 429.048 1058.26 369.698 910.733 361.719 781.525 348.751 660.733 374.437 548.356 438.774 463.207 486.154 401.079 538.272 361.97 595.128L359 593.632" fill="#777777" fill-rule="evenodd"/><path d="M518 1391 517 1391 518 1390 518 1391" fill="#D58080" fill-rule="evenodd"/><path d="M519 1390.5 518 1391 518 1390.5 518 1390 519 1390.5" fill="#CC6666" fill-rule="evenodd"/><path d="M473.499 1319 524.33 1336.89C557.77 1348.38 599.014 1352.8 648.061 1350.15 686.852 1347.94 712.713 1350.15 725.642 1356.77L733 1362.74 422 1374C434.931 1355.89 452.097 1337.56 473.499 1319" fill="#FFFFFF" fill-rule="evenodd"/><path d="M722 1368 538.532 1412 493 1379.51 722 1368" fill="#CCCCCC" fill-rule="evenodd"/><path d="M733 1362.99 721.644 1368.24 493.168 1379.4 423.69 1384 413 1375.46 422.353 1359.7 439.724 1337.38 448.407 1328.84C455.979 1322.72 464.44 1319.43 473.794 1319L473.794 1319.65C452.416 1338.04 435.269 1356.2 422.353 1374.15L733 1362.99" fill="#666666" fill-rule="evenodd"/></g></svg>
