<svg width="1761" height="1761" xmlns="http://www.w3.org/2000/svg" xmlns:xlink="http://www.w3.org/1999/xlink" overflow="hidden"><defs><clipPath id="clip0"><rect x="0" y="0" width="1761" height="1761"/></clipPath></defs><g clip-path="url(#clip0)"><path d="M890.82 1287C844.073 1290.92 797.327 1294.84 762.321 1300.07 727.316 1305.3 722.75 1315.21 680.787 1318.37 638.823 1321.53 559.245 1319.57 510.542 1319.03 461.839 1318.48 408.244 1313.91 388.566 1315.1 385.957 1320.99 385.413 1327.85 384 1332.1 384 1335.15 386.392 1344.95 388.566 1349.09 395.089 1357.15 397.916 1363.03 408.135 1373.27 424.659 1388.09 441.183 1413.14 459.012 1425.56 486.843 1439.72 517.5 1450.4 541.199 1460.2 560.985 1465.65 578.814 1473.49 600.556 1476.54 636.214 1479.81 666.001 1489.61 707.53 1486.34 757.32 1475.89 823.309 1464.23 856.901 1454.97L909.084 1430.79C910.388 1407.26 913.106 1380.68 912.997 1360.2L890.82 1287Z" fill="#EEEEEE" fill-rule="evenodd"/><path d="M690.891 1550.52 693.242 1551.21 705.006 1551.21ZM561.558 1438.48 588.125 1468.33 588.125 1468.33ZM361.459 594.788 343.737 623.141C338.421 632.858 333.786 642.7 329.83 652.666L327.044 660.633 322.835 672.001 323.674 670.269 327.044 660.633 329.78 653.242C333.741 643.27 338.383 633.422 343.706 623.699L361.712 594.915ZM873.008 343.39C891.057 344.012 909.303 345.383 927.747 347.501 1017.37 356.473 1101.29 383.887 1179.53 429.742 1294.88 506.497 1339.7 617.645 1313.96 763.184 1302.81 825.237 1290.87 887.039 1278.12 948.595L1244.4 1101.1 1244.61 1101.02 1242.22 1110.93 1237.45 1132.51 1236.97 1132.68 1231.28 1156.26C1212.01 1237.89 1170.01 1307.08 1105.29 1363.82 997.583 1458.38 875.055 1520.85 737.707 1551.21L705.099 1554.94 705.099 1554.94 705.099 1554.94C647.788 1556.44 602.581 1528.56 569.479 1471.32 556.139 1448.93 540.577 1427.77 522.79 1407.86L505.746 1388.45 505.746 1388.45 502.533 1384.14 502.094 1383.94 483.526 1373.46 450.104 1338.32 444.628 1330.6 438.127 1322.41C404.994 1277.07 387.191 1214.77 384.719 1135.54 382.495 1074.99 369.56 1008.56 345.916 936.244L318.869 862.414 318.639 861.905 318.47 861.43 304.609 829.821C296.203 810.386 292 787.713 292 761.799L294.673 746.581 294.398 745.906C294 741.462 294.849 736.922 296.467 732.084L297.746 729.093 298.861 722.743C302.199 709.413 306.588 695.771 312.027 681.819 324.39 650.423 339.967 620.773 358.758 592.867L359.157 593.068 391.661 551.091C427.218 510.065 470.991 473.104 522.979 440.209 629.989 371.301 746.665 339.029 873.008 343.39Z" fill="#FFFFFF" fill-rule="evenodd"/><path d="M1212 1112.53C1194.22 1142.92 1169.28 1176.8 1137.18 1214.17 1105.07 1251.54 1043.09 1306.1 951.226 1377.85 858.868 1449.6 742.308 1484.98 601.548 1483.98L524.501 1397.28 505.239 1388.32 498.571 1379.35C456.096 1318.56 468.69 1239.09 536.354 1140.93 623.28 1082.63 757.124 1039.28 937.891 1010.88 1120.14 943.119 1211.51 977.001 1212 1112.53" fill="#EEEEEE" fill-rule="evenodd"/><path d="M602.296 1483.25C622.048 1520.46 652.419 1542.78 693.408 1550.22L706 1550.22 705.259 1553.94C647.975 1555.43 602.789 1527.65 569.702 1470.6 556.369 1448.27 540.814 1427.19 523.036 1407.35L506 1388 525.259 1396.93 602.296 1483.25" fill="#888888" fill-rule="evenodd"/><path d="M706.251 1551.27C800.118 1530.36 887.81 1493.27 969.326 1440.01L1000.45 1418.35C1120.5 1349.16 1195.1 1251.84 1224.25 1126.39L1228.7 1106.97 1245 1101 1231.66 1156.26C1212.39 1237.9 1170.4 1307.09 1105.68 1363.84 997.981 1458.43 875.458 1520.9 738.115 1551.27L705.509 1555C705.756 1553.76 702.767 1554.13 703.014 1552.88" fill="#777777" fill-rule="evenodd"/><path d="M1212.44 1111.96 1228 1106 1223.56 1125.37C1194.42 1250.57 1123.88 1347.69 1003.87 1416.74 993.496 1423.94 976.655 1433.57 966.283 1440.77 884.792 1493.93 801.171 1530.14 707.333 1551L690.696 1550.19C649.702 1542.74 618.519 1522.81 602 1482.32 742.757 1483.31 859.314 1448.04 951.671 1376.5 1043.53 1304.96 1105.52 1250.57 1137.62 1213.31 1169.72 1176.05 1194.66 1142.27 1212.44 1111.96" fill="#CCCCCC" fill-rule="evenodd"/><path d="M518.261 1391 501.924 1383.53 483.359 1373.07 449.944 1337.96 438.806 1322.27C415.538 1287.4 403.904 1250.05 403.904 1210.21 403.904 1086.69 375.439 970.64 318.508 862.062 293.261 802.793 296.973 733.314 329.647 653.624 337.567 633.701 348.211 614.277 361.577 595.351 400.687 538.572 462.816 486.524 547.963 439.208 660.339 374.959 781.132 349.309 910.339 362.258 1057.86 370.227 1177.42 429.496 1269 540.066 1162.07 443.94 1036.58 404.594 892.518 422.026 738.062 440.952 644.993 529.108 613.309 686.496 602.914 736.8 599.944 787.851 604.399 839.65 770.24 889.456 893.755 916.849 974.943 921.83L946.726 934.53C925.439 942.499 902.914 946.235 879.151 945.736L534.597 924.071C513.804 924.57 508.607 934.53 519.003 953.954L600.686 1074.98C584.845 1119.31 562.072 1161.15 532.369 1200.49 498.211 1208.96 482.122 1230.13 484.102 1264 486.082 1297.37 491.528 1324.02 500.438 1343.93 509.35 1362.86 515.785 1378.31 519.746 1390.26L518.261 1391M829.399 1072.74 997.963 1063.03 1002.42 1069.01 999.444 1094.41C966.776 1142.72 925.934 1178.83 876.924 1202.73 809.597 1175.34 786.577 1136.75 807.864 1086.94 810.34 1079.96 817.518 1075.24 829.399 1072.74" fill="#FFFFFF" fill-rule="evenodd"/><path d="M520 1391 519 1391 520 1390 520 1391" fill="#D58080" fill-rule="evenodd"/><path d="M521 1390.5 520 1391 520 1390.5 520 1390 521 1390.5" fill="#CC6666" fill-rule="evenodd"/><path d="M1219.98 1138.02 1188.05 1150C1215.27 1115.08 1233.59 1074.4 1243 1028L1222.95 1128.29 1219.98 1138.02M530 1227.84 547.824 1228.59 617.64 1232.33C614.174 1248.79 606.251 1261.01 593.872 1269L571.591 1265.26C562.679 1261.77 549.31 1253.04 531.485 1239.07L530 1232.33 530 1227.84" fill="#CCCCCC" fill-rule="evenodd"/><path d="M1188.33 1150.44C1132.31 1183.62 963.336 1309.43 852.199 1349.53 741.063 1389.62 576.745 1384.21 521.507 1391L520.766 1390.26C516.809 1378.31 510.381 1362.86 501.481 1343.94 492.58 1324.01 487.141 1297.37 485.163 1264 483.184 1230.12 499.256 1208.96 533.375 1200.5 563.044 1161.15 585.791 1119.3 601.614 1074.98L520.024 953.95C509.64 934.525 514.832 924.563 535.599 924.066L879.764 945.732C903.499 946.23 925.999 942.494 947.262 934.525L975.448 921.824C894.351 916.843 770.975 889.449 605.322 839.643 600.873 787.845 603.84 736.792 614.223 686.488 645.871 529.098 738.835 440.941 893.116 422.014 1037.02 404.581 1162.37 443.93 1269.18 540.056 1280.55 557.987 1289.95 604.058 1297.37 678.269 1304.78 751.984 1286.98 866.539 1243.96 1021.93L1243.22 1028.66C1233.83 1074.98 1215.52 1115.57 1188.33 1150.44M830.067 1072.74C818.199 1075.23 811.03 1079.97 808.558 1086.93 787.295 1136.74 810.289 1175.34 877.538 1202.74 926.494 1178.82 967.289 1142.72 999.921 1094.4L1002.89 1069 998.441 1063.02 830.067 1072.74M531.15 1228.14 531.15 1232.62 532.634 1239.34C550.435 1253.29 563.785 1262 572.688 1265.49L594.938 1269.23C607.301 1261.26 615.212 1249.05 618.674 1232.62L548.952 1228.88 531.15 1228.14" fill="#EEEEEE" fill-rule="evenodd"/><path d="M450 1337 438.132 1322.06C404.998 1276.75 387.196 1214.49 384.723 1135.31 381.756 1054.64 359.75 963.508 318.704 861.916L304.61 829.796C296.203 810.374 292 787.716 292 761.819 294.472 736.422 301.149 709.779 312.028 681.892 324.391 650.517 339.968 620.887 358.761 593L361.727 594.494C348.375 613.417 337.743 632.84 329.831 652.759 297.192 732.438 293.482 801.908 318.704 861.169 375.575 969.731 404.01 1085.76 404.01 1209.27 404.01 1249.11 415.631 1286.46 438.874 1321.31L450 1337" fill="#888888" fill-rule="evenodd"/><path d="M359 593.632C399.098 535.28 453.802 484.158 523.108 440.27 645.385 361.469 780.286 330.547 927.81 347.504 1017.42 356.482 1101.32 383.912 1179.55 429.797 1294.89 506.601 1339.7 617.821 1313.96 763.453 1291.68 887.639 1266.18 1010.82 1237.46 1133.02L1220.39 1139 1223.36 1129.27 1243.41 1029.03 1244.15 1022.29C1287.22 866.692 1305.05 751.981 1297.61 678.168 1290.19 603.856 1280.78 557.723 1269.4 539.768 1177.81 429.048 1058.26 369.698 910.731 361.719 781.524 348.751 660.732 374.437 548.355 438.774 463.207 486.154 401.079 538.272 361.97 595.128L359 593.632" fill="#777777" fill-rule="evenodd"/><path d="M525 1384 524 1384 525 1383 525 1384" fill="#D58080" fill-rule="evenodd"/><path d="M526 1383.5 525 1384 525 1383.5 525 1383 526 1383.5" fill="#CC6666" fill-rule="evenodd"/><path d="M391 1344.54 407.616 1340.75 448.401 1335.44 471.059 1333.16 495.984 1333.16 505.802 1332.41 559.427 1332.41 664.412 1332.41 701.42 1333.16 737.674 1329.37 762.599 1327.1 782.991 1324.82 812.447 1318.75 820 1318 799.607 1336.2 780.725 1360.47 764.109 1388.53 754.29 1410.53 745.227 1442.38 739.185 1471.96C675.741 1476.01 633.948 1476.01 613.808 1471.96L566.225 1459.07C554.644 1454.01 546.084 1450.47 540.545 1448.45L511.845 1436.31 466.528 1413.56C449.912 1403.95 435.058 1392.58 421.966 1379.43L404.595 1358.19 391 1344.54" fill="#EEEEEE" fill-rule="evenodd"/><path d="M820.326 1317.42 812.761 1318.18 783.25 1324.25 762.82 1326.53 737.85 1328.81 701.53 1332.61 664.453 1331.85 559.276 1331.85 505.553 1331.85 495.716 1332.61 470.747 1332.61 448.047 1334.88 407.186 1340.2 390.54 1344 386 1340.2 386.756 1328.81 388.27 1321.22 392.81 1320.46 683.37 1308.31 840 1303 820.326 1317.42" fill="#FFFFFF" fill-rule="evenodd"/><path d="M390.538 1344.77 404.154 1358.37 421.552 1379.53C434.663 1392.62 449.539 1403.96 466.18 1413.53L511.565 1436.2 540.307 1448.28C545.855 1450.3 554.427 1453.82 566.026 1458.86L613.68 1471.71C633.85 1475.74 675.705 1474.44 739.243 1470.41L740 1543.48 728.654 1545 704.449 1545 679.487 1544.24 653.013 1539.71 626.539 1531.4 601.577 1523.08 577.372 1512.51 553.923 1501.17 531.987 1489.08 510.051 1473.97 488.871 1458.11 467.692 1442.24 445.001 1421.08 432.897 1409 387.513 1351.57 386 1341 390.538 1344.77" fill="#CCCCCC" fill-rule="evenodd"/><path d="M839.95 1303.72 683.529 1309.03 393.358 1321.15 388.823 1321.9 387.312 1329.48 386.556 1340.84 388.068 1351.45 433.407 1409.03 445.497 1421.15 468.167 1442.36 489.326 1458.27 510.484 1474.18 532.398 1489.33 554.312 1501.45 577.737 1512.81 601.918 1523.42 626.855 1531.75 653.304 1540.09 679.751 1544.63 704.688 1545.39 728.869 1545.39 740.204 1543.87 730.38 1548.42 710.733 1554.48 698.643 1556 688.063 1556 676.729 1554.48 675.973 1554.48 638.19 1545.39 601.163 1532.51C538.191 1509.78 483.028 1472.16 435.674 1419.63L379 1357.51 379 1323.42C379 1314.33 387.816 1309.53 405.448 1309.03L683.529 1309.03 873.2 1281 880 1284.78 864.131 1301.45 839.95 1303.72" fill="#777777" fill-rule="evenodd"/></g></svg>
