<svg width="1761" height="1761" xmlns="http://www.w3.org/2000/svg" xmlns:xlink="http://www.w3.org/1999/xlink" overflow="hidden"><defs><clipPath id="clip0"><rect x="0" y="0" width="1761" height="1761"/></clipPath></defs><g clip-path="url(#clip0)"><path d="M307.074 1514.46 307.323 1526.55 307.323 1526.55ZM433.422 1509.74 433.746 1518.56 433.746 1518.56ZM553.629 1435.01 553.629 1435.01 580.512 1449.54 584.145 1507.66 584.145 1507.66 580.512 1449.54ZM472.98 1385.6 473.707 1518.56 473.707 1518.56 472.98 1385.6 501.316 1517.11 501.316 1517.11 501.316 1517.11ZM990.296 1346.37 990.296 1346.37 980.124 1469.16 980.124 1469.16ZM315.588 1339.92 313.68 1374.16C313.317 1396.81 313.862 1419.27 315.315 1441.55L321.128 1524.38 321.128 1524.38 321.128 1524.38 315.315 1441.55C313.862 1419.27 313.317 1396.81 313.68 1374.16ZM1279.47 1334.75 1279.47 1334.75 1262.03 1506.21 1262.03 1506.21ZM425.027 1280.98 425.028 1281 438.037 1504.88ZM1182.11 1280.25 1182.11 1280.26 1187.77 1485.49ZM1046.24 1231.58 907.467 1416.85 907.467 1416.85ZM1147.96 1230.85 1118.9 1472.06 1118.9 1472.06ZM721.466 1228.67 624.832 1278.08 543.457 1316.58 624.833 1278.08ZM290.503 1222.82 290.612 1223.58 290.612 1223.58ZM272.448 1187.26 270.268 1238.84 262.008 1421.93 270.268 1238.84ZM476.976 1160.18 478.066 1162.55C487.269 1214.87 501.074 1266.45 519.48 1317.31 501.074 1266.45 487.269 1214.87 478.066 1162.55ZM1195.19 1132.04 1180.66 1147.3 1195.19 1132.04ZM1150.87 1125.5 1082.57 1385.6 1150.87 1125.5ZM330.988 1066.75 321.128 1254.1 317.841 1300.77 321.128 1254.1ZM361.089 1066.65 361.089 1066.65 379.253 1085.54 400.664 1497.18 379.253 1085.54ZM332.026 1047.03 329.328 1075.89 332.026 1047.03ZM1265.66 1035.41 1224.25 1039.77 1265.66 1035.41ZM195.208 1034.59 194.705 1040.49 191.799 1108.06 191.799 1108.06 194.705 1040.49ZM299.807 1033.68 303.145 1036.86 300.443 1037.5 303.145 1036.86ZM299.331 1033.23 300.057 1037.59 300.057 1037.59 299.331 1033.23ZM321.128 715 277.533 1024.51 285.126 1036.93 277.534 1024.51 321.128 715 461.355 898.817 1373.2 940.957C1415.82 1080.94 1423.33 1227.22 1395.72 1379.79L1373.2 1506.94 1373.2 1519.29 1352.85 1525.83 1328.15 1527.28 1259.13 1517.11 1154.5 1497.49 1073.85 1480.78 1009.19 1478.6 942.343 1482.96C809.623 1490.23 676.903 1504.27 544.184 1525.1L435.925 1530.19 359.636 1526.55C335.416 1526.55 312.166 1529.7 289.885 1536L246.291 1533.82 233.94 1497.49 217.228 1435.01 192.525 1304.96C181.869 1238.11 177.51 1171.27 179.447 1104.43 180.416 1058.42 183.08 1012.64 187.439 967.112L189.619 947.495 203.424 947.495 203.076 950.449 203.424 947.496 204.15 946.042 224.494 940.957Z" fill="#DDDDDD" fill-rule="evenodd"/><path d="M462.528 896.82 1374.22 938.959C1416.84 1078.94 1424.34 1225.22 1396.74 1377.79L1374.22 1504.94 1373.49 1504.94 1319.01 1512.93 1320.46 1475.15C1321.43 1410.73 1320.46 1346.55 1317.56 1282.61 1324.34 1266.15 1327.48 1248.22 1327 1228.85L1322.64 1196.16 1287.05 1084.99 1266.71 1033.41 1225.3 1037.77 1218.76 1134.4 1196.24 1130.04 1181.71 1145.3 1177.35 1132.95 1151.93 1123.5 1083.64 1383.6 1082.19 1341.46C1081.7 1313.37 1077.83 1286.25 1070.56 1260.09 1066.69 1245.56 1058.94 1235.39 1047.32 1229.58L908.567 1414.84 910.02 1350.18 896.218 1338.56 886.774 1338.56 873.698 1354.54 871.518 1330.57C867.644 1287.46 848.998 1254.76 815.582 1232.48 806.38 1226.19 796.452 1222.31 785.797 1220.86L749.475 1216.5 722.597 1226.67 625.979 1276.07 544.617 1314.58 524.277 1324.03 520.644 1315.31C502.24 1264.45 488.438 1212.87 479.237 1160.55 478.268 1153.77 475.604 1147.96 471.246 1143.12L458.896 1130.77 458.17 1120.59C453.811 1058.11 439.282 999.747 414.583 945.498L412.403 941.139C411.92 940.17 428.628 925.397 462.528 896.82M204.64 945.498 205.366 944.045 225.707 938.959 322.324 713.005 278.737 1022.51 286.728 1035.59 267.114 1180.17 273.652 1185.26 271.473 1236.84C270.02 1301.75 267.114 1366.17 262.755 1430.1 260.333 1462.07 259.85 1494.04 261.303 1526.01L256.944 1511.47 256.944 1524.55C227.886 1431.55 208.515 1336.38 198.828 1239.02L194.469 1172.91 193.016 1106.06 195.922 1038.5 201.734 970.201 204.64 945.498M308.522 1524.55 304.889 1348 333.221 1045.03 322.324 1252.1 318.692 1303.68C314.333 1349.7 313.607 1394.98 316.512 1439.55L322.324 1522.37 308.522 1524.55M374.628 1517.29 362.279 1064.65 380.44 1083.54 402.96 1516.56 374.628 1517.29M434.924 1516.56 426.206 1278.98 440.009 1516.56 434.924 1516.56M474.878 1516.56C471.972 1472 471.73 1427.68 474.152 1383.6L502.483 1515.11 474.878 1516.56M542.438 1510.75 554.787 1433.01 581.666 1447.54 585.298 1505.66 542.438 1510.75M923.823 1471.51C925.275 1455.53 929.15 1441 935.446 1427.92 949.006 1396.92 967.652 1369.07 991.382 1344.37L981.212 1467.16 923.823 1471.51M1021.89 1464.98 1039.33 1289.15 1059.67 1466.43 1021.89 1464.98M1101.08 1470.79 1149.02 1228.85 1119.96 1470.06 1140.3 1467.16 1183.16 1278.25 1188.98 1488.95 1101.08 1470.79M1226.02 1496.94 1280.51 1332.75 1263.07 1504.21 1226.02 1496.94M291.814 1221.58 289.634 1206.33 293.993 1206.33 291.814 1221.58M301.257 1035.59 300.531 1031.23C305.373 1034.62 305.616 1036.07 301.257 1035.59" fill="#DDDDDD" fill-rule="evenodd"/><path d="M1374.02 1504.97 1374.02 1517.31 1353.68 1523.84 1328.98 1525.29 1259.96 1515.13 1155.36 1495.53 1074.72 1478.83 1010.07 1476.66 943.233 1481.01C810.536 1488.27 677.837 1502.31 545.14 1523.12L436.9 1528.2 360.622 1524.57C336.407 1524.57 313.161 1527.71 290.883 1534.01L247.297 1531.83 234.947 1495.53 218.239 1433.1 193.54 1303.16C182.886 1236.38 178.527 1169.59 180.463 1102.81 181.433 1056.83 184.096 1011.1 188.455 965.605L190.634 946.005 204.436 946.005 201.531 970.687 195.719 1038.92 192.813 1106.43 194.266 1173.22 198.625 1239.28C208.311 1336.55 227.683 1431.65 256.741 1524.57L256.741 1511.5 261.099 1526.02 308.318 1524.57 322.121 1522.39 374.425 1517.31 402.757 1516.58 434.72 1516.58 439.805 1516.58 474.675 1516.58 502.28 1515.13 542.235 1510.78 585.095 1505.69 923.619 1471.58 981.009 1467.22 1021.69 1465.04 1059.47 1466.49 1100.87 1470.85 1188.77 1489 1225.82 1496.98 1262.87 1504.24 1318.81 1512.95 1373.29 1504.97 1374.02 1504.97" fill="#888888" fill-rule="evenodd"/><path d="M321.881 713.005 462.142 896.82C428.228 925.397 411.513 940.17 411.997 941.139L414.177 945.498C438.887 999.747 453.421 1058.11 457.782 1120.59L458.509 1130.77 470.863 1143.12C475.224 1147.96 477.888 1153.77 478.858 1160.55 488.062 1212.87 501.871 1264.45 520.282 1315.31L523.916 1324.03 544.265 1314.58 625.66 1276.07 722.317 1226.67 749.207 1216.5 785.544 1220.86C796.203 1222.31 806.135 1226.19 815.34 1232.48 848.771 1254.76 867.424 1287.46 871.3 1330.57L873.48 1354.54 886.561 1338.56 896.009 1338.56 909.817 1350.18 908.364 1414.84 1047.17 1229.58C1058.8 1235.39 1066.55 1245.56 1070.43 1260.09 1077.69 1286.25 1081.57 1313.37 1082.06 1341.46L1083.51 1383.6 1151.82 1123.5 1177.26 1132.95 1181.62 1145.3 1196.15 1130.04 1218.68 1134.4 1225.22 1037.77 1266.65 1033.41 1287 1084.99 1322.61 1196.16 1326.97 1228.85C1327.45 1248.22 1324.3 1266.15 1317.52 1282.61 1320.43 1346.55 1321.4 1410.73 1320.43 1475.15L1318.97 1512.93 1263.01 1504.21 1280.46 1332.75 1225.95 1496.94 1188.89 1488.95 1183.07 1278.25 1140.2 1467.16 1119.85 1470.06 1148.92 1228.85 1100.95 1470.79 1059.53 1466.43 1039.18 1289.15 1021.74 1464.98 981.038 1467.16 991.213 1344.37C967.472 1369.07 948.819 1396.92 935.253 1427.92 928.955 1441 925.079 1455.53 923.625 1471.51L584.962 1505.66 581.329 1447.54 554.439 1433.01 542.084 1510.75 502.114 1515.11 473.77 1383.6C471.348 1427.68 471.59 1472 474.497 1516.56L439.613 1516.56 425.805 1278.98 434.526 1516.56 402.549 1516.56 380.02 1083.54 361.852 1064.65 374.206 1517.29 321.881 1522.37 316.067 1439.55C313.16 1394.98 313.886 1349.7 318.247 1303.68L321.881 1252.1 332.782 1045.03 304.439 1348 308.072 1524.55 260.834 1526.01C259.381 1494.04 259.865 1462.07 262.288 1430.1 266.648 1366.17 269.555 1301.75 271.009 1236.84L273.189 1185.26 266.648 1180.17 286.27 1035.59 278.276 1022.51 321.881 713.005M300.805 1035.59C305.166 1036.07 304.923 1034.62 300.078 1031.23L300.805 1035.59M291.358 1221.58 293.538 1206.33 289.177 1206.33 291.358 1221.58" fill="#AAAAAA" fill-rule="evenodd"/></g></svg>