<svg width="1761" height="1761" xmlns="http://www.w3.org/2000/svg" xmlns:xlink="http://www.w3.org/1999/xlink" overflow="hidden"><defs><clipPath id="clip0"><rect x="0" y="0" width="1761" height="1761"/></clipPath></defs><g clip-path="url(#clip0)"><path d="M1375.96 1105.57 1375.96 1105.58 1375.96 1144.42 1375.96 1144.42ZM845.127 949.897 873.667 989.756 893.816 1014.21 893.816 1014.21 873.668 989.757ZM1031.08 949.652 1031.08 949.652C1058.07 975.909 1086.91 1000.31 1117.62 1022.85L1138.74 1039.61 1117.62 1022.85C1102.26 1011.58 1087.38 999.843 1072.95 987.644ZM1149.86 918.699 1174.28 936.524C1189.52 948.513 1204.21 960.982 1218.36 973.93L1243.55 1002.71C1251.22 1012.78 1252.66 1022.85 1247.86 1032.92L1279.53 1091.19 1247.86 1032.92C1252.66 1022.85 1251.22 1012.78 1243.55 1002.71L1218.36 973.93C1204.21 960.982 1189.52 948.513 1174.28 936.524ZM1020.03 834.516 1037.02 844.445 1082.35 872.5 1110.58 891.162 1082.35 872.5 1037.02 844.445ZM923.32 813.512C969.855 875.857 1024.31 932.207 1086.67 982.563L1209.01 1081.84 1287.44 1143.7C1268.25 1108.21 1246.43 1075.36 1221.96 1045.15 1194.61 1011.58 1164.15 980.884 1130.57 953.069 1065.8 899.356 996.721 852.837 923.32 813.512ZM891.657 777.544 955.703 865.307 908.928 873.219C962.658 932.687 1022.87 985.681 1089.55 1032.2 1130.33 1060.97 1169.19 1091.91 1206.13 1125L1273.77 1191.9 1206.13 1125C1169.19 1091.91 1130.33 1060.97 1089.55 1032.2 1022.87 985.681 962.659 932.687 908.928 873.219L955.703 865.307 955.703 865.306ZM729.025 719.995 749.175 768.911C772.562 828.978 801.751 885.403 836.742 938.187L836.742 938.187 803.685 884.19C782.937 847.382 764.767 808.956 749.175 768.911L729.026 719.995ZM804.768 679.097 808.902 684.746C816.818 694.097 825.453 702.97 834.808 711.362L848.912 722.09 834.809 711.362C825.454 702.97 816.818 694.098 808.902 684.746ZM665.7 634.39 652.747 663.164 652.747 663.164ZM758.529 617.125 764.93 625.604 758.53 617.125ZM694.485 534.398 694.484 534.398 700.961 537.276ZM821.855 492.675 821.855 492.676 753.492 530.082 741.259 599.86 753.493 530.082ZM737.661 485.481 739.82 487.639 740.539 486.201ZM1298.84 468.072 1312.63 494.114 1320.61 510.977 1312.63 494.114ZM691.336 464.575C701.291 463.316 710.406 465.354 718.682 470.69 714.544 468.022 710.196 466.178 705.638 465.16ZM892.377 410.667 804.584 453.11 806.024 465.339 791.632 471.094 772.922 500.588 791.632 471.094 806.024 465.339 804.585 453.11 892.377 410.668ZM880.864 404.193 880.863 404.193 887.303 407.814ZM788.46 374.9 792.351 376.138 793.071 391.245 793.071 391.244 792.352 376.138ZM1214.59 368.301 1216.92 370.383 1223.13 376.159 1216.92 370.383ZM885.901 367.505 885.9 367.506 845.602 412.825 845.603 412.825ZM1191.1 349.247 1191.11 349.252 1199.77 356.003 1191.11 349.252ZM1185.99 344.921 1186.71 345.394 1186.07 344.936ZM1185.62 344.846 1186.17 345.286 1185.69 344.861ZM765.501 321.736C735.187 320.837 705.278 325.062 675.774 334.415L659.943 340.17C629.719 344.007 600.456 352.878 572.151 366.786L505.946 409.229 487.956 420.019 405.201 484.043C366.821 518.572 334.2 558.857 307.334 604.896 279.029 653.813 256.482 706.806 239.69 763.876 222.42 823.343 209.707 884.01 201.551 945.875L197.234 960.263 197.234 960.263 201.551 945.875C209.707 884.01 222.42 823.343 239.691 763.876 256.482 706.806 279.029 653.813 307.334 604.896 334.2 558.857 366.821 518.572 405.201 484.043L487.956 420.019 505.947 409.229 572.151 366.786C600.456 352.878 629.72 344.007 659.943 340.17L675.775 334.415C705.278 325.063 735.187 320.837 765.501 321.736L790.855 323.907ZM1093.81 318.6 1112.89 321.017C1143.03 326.952 1171.95 339.091 1199.65 357.434L1200.53 357.653 1199.65 357.434C1171.95 339.091 1143.03 326.952 1112.89 321.017ZM1082.35 317.15 922.601 325.063 852.799 344.486 852.799 344.486 922.601 325.063 876.546 343.047 883.742 347.363 855.677 379.735 850.64 383.332C852.559 382.852 854.478 381.893 856.397 380.454L855.677 379.735 883.742 347.363 876.546 343.047 922.601 325.063 1082.35 317.15ZM748.95 303.167C793.836 301.458 835.888 312.833 875.106 337.292 908.688 325.303 943.229 317.39 978.731 313.553 1018.07 308.758 1057.89 308.758 1098.19 313.553 1137.04 312.593 1171.59 319.787 1201.81 335.134L1227.72 358.154C1252.66 381.653 1274.49 407.07 1293.2 434.406L1324.86 486.201C1344.05 521.69 1359.4 559.336 1370.92 599.141L1409.06 749.489 1441.44 896.239 1488.93 1105.57C1508.6 1194.78 1507.64 1295.25 1486.06 1406.99 1482.22 1426.65 1475.98 1446.07 1467.35 1465.26L1451.51 1489C1427.53 1517.77 1396.82 1528.08 1359.4 1519.93L1338.54 1527.12 1327.02 1530 1332.06 1512.02 1334.22 1504.1 1337.95 1504.78 1334.22 1504.1 1334.22 1504.1 1333.5 1504.1 1337.1 1489.72 1339.98 1476.05 1357.97 1372.46 1371.64 1244.41 1373.08 1219.23 1373.08 1219.24 1371.64 1244.41 1357.97 1372.46 1319.83 1253.76C1323.18 1257.12 1325.34 1257.6 1326.3 1255.2 1325.34 1257.6 1323.18 1257.12 1319.83 1253.76L1311.91 1244.41 1305.43 1235.06C1292.96 1216.84 1259.62 1184.7 1205.41 1138.67L1204.69 1137.95 1024.79 984.721C959.541 929.09 910.847 880.892 878.704 840.129 846.562 798.885 817.298 765.794 790.912 740.856L814.659 814.951C839.126 887.367 871.268 956.187 911.087 1021.41L900.293 1027.88C855.197 992.874 815.139 937.962 780.118 863.148L716.073 720.714 693.765 666.042 685.129 777.544 679.372 735.82 676.494 696.975 674.335 630.793 676.494 696.975 672.176 646.619 629.719 730.066 634.037 707.046C639.315 684.506 647.469 663.884 658.504 645.18L616.047 676.113C578.627 702.01 539.528 725.749 498.75 747.331 467.566 763.156 434.705 776.105 400.163 786.176 379.535 791.931 360.585 799.604 343.314 809.196 326.523 818.787 311.172 830.057 297.259 843.006 278.549 860.271 262.477 880.413 249.045 903.433L244.728 912.065 237.532 926.452 226.737 945.156 223.14 948.752 223.14 948.753 200.112 959.543 200.112 959.543 199.392 960.982 185 966.737C190.278 914.943 199.632 863.148 213.065 811.354L241.13 714.24C254.562 672.037 272.552 631.992 295.1 594.106 342.116 515.935 403.762 452.87 480.04 404.912 510.264 385.249 541.207 368.465 572.87 354.557 614.608 335.374 658.024 320.268 703.12 309.237 718.711 305.76 733.988 303.737 748.95 303.167Z" fill="#FFFFFF" fill-rule="evenodd"/><path d="M685.645 684.22 685.645 717.315 694.276 697.171 685.645 684.22M835.977 981.359 823.03 980.639C775.077 900.539 735.995 815.882 705.785 726.668L689.241 789.262 674.855 785.665 667.662 684.94 633.856 738.18 623.066 738.18 638.171 675.587C528.36 726.909 429.336 792.859 341.103 873.439 324.799 864.806 313.77 849.697 308.016 828.113 430.296 748.012 559.049 683.98 694.276 636.016L703.627 651.845 716.574 644.65 723.767 675.587C744.387 694.772 753.019 718.754 749.662 747.533L757.574 756.886 765.486 754.008 774.837 757.605C788.264 825.714 812.48 890.227 847.486 951.141L844.609 958.336 838.135 961.214 841.012 966.969 835.977 981.359M909.345 812.285 921.573 801.493 963.292 822.357 965.45 830.271 985.59 845.38 1009.33 831.71C1110.03 882.073 1186.75 955.698 1239.5 1052.59 1250.53 1072.25 1245.02 1087.6 1222.96 1098.63 1203.3 1074.17 1182.2 1051.63 1159.66 1031 1079.58 955.698 996.14 882.792 909.345 812.285M800.732 731.705 805.767 727.388 887.766 837.466 887.766 843.941 923.012 874.878C1027.07 957.856 1126.33 1045.39 1220.8 1137.48L1229.43 1143.24 1235.9 1148.27 1240.22 1155.47 1244.54 1162.66 1234.47 1172.02C1187.95 1126.93 1137.84 1085.92 1084.13 1048.99 960.415 963.132 865.948 857.371 800.732 731.705" fill="#000000" fill-rule="evenodd" fill-opacity="0.2"/><path d="M856.3 378.013 857.015 378.733C855.109 380.173 853.201 381.133 851.294 381.613L856.3 378.013M741.876 484.573 741.161 486.013 739.015 483.853 741.876 484.573" fill="#00CC33" fill-rule="evenodd"/><path d="M200.892 957.668 198.015 958.388 202.331 943.995C210.483 882.104 223.189 821.413 240.451 761.921 257.234 704.828 279.77 651.813 308.061 602.876 334.913 556.818 367.518 516.517 405.879 481.973L488.592 417.924 506.574 407.129 572.745 364.669C601.036 350.755 630.285 341.88 660.493 338.042L676.317 332.285C715.636 319.81 755.674 316.452 796.432 322.209 816.092 326.048 835.032 332.764 853.253 342.36L843.903 344.519 793.555 389.137 792.836 374.025 777.012 368.987 744.646 406.409 748.962 419.363C754.236 441.432 751.599 463.022 741.049 484.132L738.173 483.413 738.892 466.141 730.98 479.095C716.116 461.823 697.895 457.745 676.317 466.861L712.28 503.563 695.018 532.35 701.491 535.228C696.696 546.264 690.223 556.578 682.071 566.174 622.613 635.74 550.448 688.276 465.577 723.779L365.601 766.958 323.884 786.39 304.464 796.465 272.817 813.017 262.748 840.364 223.908 945.434 223.908 946.873 200.892 957.668M923.02 322.929 1082.69 315.013C1123.93 317.412 1163.01 330.845 1199.93 355.313L1202.81 356.033 1203.53 356.033 1217.19 368.268 1258.19 406.409C1280.25 430.399 1298.47 458.945 1312.85 492.049L1338.03 545.304C1352.89 584.165 1365.36 623.267 1375.43 662.608L1400.6 761.921 1425.06 864.113 1448.07 968.463 1467.49 1074.25 1481.88 1173.57C1486.67 1218.18 1488.11 1263.04 1486.19 1308.14 1484.28 1351.8 1476.84 1394.74 1463.9 1436.96 1458.62 1453.27 1450.71 1468.15 1440.16 1481.58 1435.85 1487.34 1430.81 1492.13 1425.06 1495.97 1404.44 1511.33 1382.14 1514.92 1358.17 1506.77L1334.43 1502.45 1333.71 1502.45 1337.31 1488.06 1340.19 1474.38 1358.17 1370.75 1371.83 1242.65 1373.27 1217.47 1361.04 1248.41 1358.17 1253.45 1357.45 1254.89 1357.45 1254.17 1279.77 1089.37 1248.12 1031.07C1252.92 1021 1251.48 1010.92 1243.81 1000.85L1218.63 972.061C1190.34 946.154 1159.89 922.165 1127.29 900.096L1082.69 870.59 1037.38 842.523 990.63 815.176 925.178 773.436 868.357 734.574 835.272 709.386C816.571 692.594 800.748 673.883 787.801 653.253L759.031 615.111 741.769 597.839 753.996 528.032 822.325 490.61 773.416 498.526 792.117 469.02 806.502 463.262 805.063 451.028 892.812 408.568 881.304 402.091 846.06 410.727 886.338 365.389 856.849 378.343 856.13 377.623 884.181 345.238 876.988 340.92 923.02 322.929M1376.15 1142.62 1376.15 1103.76 1370.39 1119.59 1376.15 1142.62M1304.94 1223.22 1274.01 1190.12 1206.41 1123.19C1169.48 1090.09 1130.64 1059.14 1089.89 1030.35 1023.24 983.816 963.058 930.801 909.354 871.309L956.106 863.393C1002.62 923.365 1056.56 975.9 1117.94 1021L1208.56 1092.96 1298.47 1175.72 1304.94 1223.22M777.731 748.967 894.25 1012.36 874.111 987.894C822.325 920.726 780.848 847.081 749.681 766.958L729.542 718.022 777.731 748.967" fill="#FFFFFF" fill-rule="evenodd"/><path d="M853.838 342.437 923.643 323.013 877.587 340.998 884.783 345.314 856.717 377.687 851.679 381.284C853.599 380.805 855.518 379.845 857.437 378.406L886.942 365.457 846.642 410.779 881.904 402.146 893.418 408.621 805.623 451.065 807.062 463.295 792.669 469.05 773.959 498.545 822.894 490.632 754.528 528.04 742.295 597.821 759.566 615.087 788.351 653.215C801.305 673.837 817.137 692.542 835.847 709.328L868.951 734.506 925.802 773.353 991.289 815.078 1038.07 842.415 1083.4 870.472 1128.02 899.967C1160.65 922.028 1191.11 946.008 1219.41 971.906L1244.6 1000.68C1252.28 1010.75 1253.72 1020.82 1248.92 1030.9L1280.58 1089.17 1261.87 1060.39 1246.76 1040.25C1232.37 1022.02 1216.78 1005.24 1199.98 989.891 1144.81 940.972 1087.24 896.61 1027.27 856.803L892.699 775.511 956.747 863.278 909.97 871.191 745.173 635.949 778.276 748.894 730.06 717.96 696.957 633.791 684.723 756.088 680.405 733.787 677.527 694.939 675.368 628.755 653.779 661.128 666.732 632.352 612.04 669.041C595.729 680.552 578.217 690.863 559.506 699.975 519.686 719.639 479.626 738.583 439.326 756.807L346.493 800.69 300.436 822.272 263.015 840.257 273.09 812.92 304.754 796.374 324.185 786.303 365.924 766.879 465.953 723.715C550.871 688.225 623.075 635.709 682.564 566.168 690.72 556.576 697.197 546.265 701.995 535.234L695.518 532.356 712.789 503.581 676.807 466.892C698.397 457.78 716.628 461.856 731.5 479.121L739.416 466.172 738.696 483.438 740.855 485.596 741.575 484.157C752.13 463.054 754.768 441.473 749.491 419.412L745.173 406.462 777.557 369.054 793.389 374.09 794.108 389.197 844.483 344.595 853.838 342.437M1203.58 356.105C1184.39 341.238 1181.03 338.36 1193.51 347.472L1204.3 356.105 1203.58 356.105M1359.02 1506.42 1333.12 1510.01 1335.28 1502.1 1359.02 1506.42M1359.02 1370.45 1320.88 1251.75C1324.24 1255.11 1326.4 1255.59 1327.36 1253.19L1305.77 1222.97 1299.29 1175.49 1358.31 1253.91 1358.31 1254.63 1359.02 1253.19 1361.9 1248.15 1374.14 1217.22 1372.7 1242.4 1359.02 1370.45M1377.02 1142.4 1371.26 1119.38 1377.02 1103.56 1377.02 1142.4" fill="#DDDDDD" fill-rule="evenodd"/><path d="M201.127 957.556 200.408 958.995 186.015 964.75C191.293 912.956 200.648 861.161 214.08 809.367L242.145 712.253C255.577 670.05 273.567 630.005 296.116 592.119 343.131 513.948 404.777 450.883 481.055 402.926 511.279 383.263 542.222 366.478 573.885 352.57 615.623 333.388 659.039 318.281 704.135 307.25 766.501 293.342 823.83 302.694 876.122 335.305 909.703 323.316 944.244 315.404 979.746 311.566 1019.08 306.771 1058.9 306.771 1099.2 311.566 1138.06 310.607 1172.6 317.8 1202.82 333.147L1228.73 356.167C1253.68 379.666 1275.51 405.084 1294.22 432.42L1325.88 484.214C1345.07 519.703 1360.42 557.349 1371.93 597.154L1410.07 747.502 1442.46 894.252 1489.95 1103.59C1509.62 1192.79 1508.66 1293.26 1487.07 1405 1483.23 1424.66 1477 1444.09 1468.36 1463.27L1452.53 1487.01C1428.54 1515.78 1397.84 1526.09 1360.42 1517.94L1339.55 1525.14 1328.04 1528.01 1333.07 1510.03 1358.98 1506.43C1382.97 1514.59 1405.28 1510.99 1425.9 1495.64 1431.66 1491.8 1436.7 1487.01 1441.02 1481.25 1451.57 1467.83 1459.49 1452.96 1464.76 1436.65 1477.72 1394.45 1485.15 1351.53 1487.07 1307.89 1488.99 1262.81 1487.55 1217.97 1482.75 1173.37L1468.36 1074.09 1448.93 968.347 1425.9 864.039 1401.44 761.889 1376.25 662.616C1366.18 623.292 1353.7 584.206 1338.83 545.36L1313.65 492.127C1299.25 459.036 1281.02 430.502 1258.95 406.522L1217.94 368.396 1204.26 356.167 1193.47 347.535C1181 338.423 1184.36 341.3 1203.54 356.167L1200.67 355.448C1163.73 330.989 1124.63 317.562 1083.37 315.163L923.616 323.076 853.814 342.499C835.584 332.907 816.634 326.194 796.964 322.357 756.187 316.602 716.128 319.958 676.789 332.428L660.958 338.183C630.734 342.02 601.471 350.891 573.166 364.799L506.961 407.242 488.971 418.032 406.216 482.056C367.836 516.585 335.215 556.87 308.349 602.909 280.044 651.826 257.497 704.819 240.705 761.889 223.435 821.356 210.723 882.023 202.566 943.888L198.249 958.276 201.127 957.556M1320.84 1251.78 1312.93 1242.43 1306.45 1233.07C1293.97 1214.85 1260.63 1182.72 1206.42 1136.68L1205.7 1135.96 1025.8 982.734C960.557 927.103 911.862 878.906 879.72 838.142 847.577 796.898 818.313 763.807 791.927 738.869L815.675 812.964C840.141 885.38 872.283 954.2 912.102 1019.42L901.308 1025.9C856.212 990.887 816.154 935.975 781.133 861.161L717.088 718.727 694.78 664.055 686.144 775.557 680.387 733.834 684.705 756.134 696.939 633.842 730.041 718.008 750.19 766.924C781.373 847.014 822.871 920.629 874.682 987.769L894.831 1012.23 778.255 748.94 745.153 636 909.943 871.233C963.674 930.7 1023.88 983.694 1090.57 1030.21 1131.34 1058.99 1170.2 1089.92 1207.14 1123.01L1274.79 1189.91 1305.73 1223 1327.32 1253.22C1326.36 1255.61 1324.2 1255.13 1320.84 1251.78M677.509 694.988 673.191 644.632 630.734 728.079 635.052 705.059C640.33 682.519 648.484 661.897 659.519 643.194L617.062 674.126C579.642 700.023 540.543 723.763 499.765 745.344 468.582 761.17 435.72 774.118 401.179 784.189 380.551 789.944 361.6 797.617 344.329 807.209 327.538 816.801 312.187 828.071 298.274 841.019 279.564 858.284 263.493 878.426 250.061 901.446L245.743 910.078 238.547 924.466 227.753 943.169 224.155 946.766 224.155 945.327 263.013 840.3 300.433 822.315 346.488 800.735 439.318 756.853C479.616 738.629 519.674 719.686 559.493 700.023 578.203 690.912 595.714 680.601 612.025 669.091L666.715 632.403 653.762 661.178 675.35 628.807 677.509 694.988M1280.54 1089.2 1358.26 1253.93 1299.25 1175.52 1209.3 1092.8 1118.63 1020.86C1057.22 975.781 1003.25 923.266 956.718 863.319L892.673 775.557 1027.24 856.845C1087.21 896.65 1144.78 941.011 1199.95 989.928 1216.74 1005.27 1232.33 1022.06 1246.72 1040.28L1261.83 1060.43 1280.54 1089.2M1288.46 1141.71C1269.27 1106.22 1247.44 1073.37 1222.97 1043.16 1195.63 1009.59 1165.16 978.897 1131.58 951.082 1066.82 897.37 997.736 850.85 924.335 811.525 970.87 873.87 1025.32 930.22 1087.69 980.576L1210.02 1079.85 1288.46 1141.71" fill="#888888" fill-rule="evenodd"/><path d="M1122.15 425.275 1122.15 413.06 1040.14 383.602 1118.55 419.527 1071.07 409.468 1122.15 425.275M1134.38 394.379 1130.78 435.335C1143.25 447.309 1163.63 460.961 1191.93 476.29 1206.79 483.954 1215.19 496.408 1217.1 513.653L1207.03 532.334C1218.54 544.309 1224.54 558.679 1225.02 575.445L1223.58 591.971C1220.7 602.509 1214.94 612.089 1206.31 620.711L1166.03 627.178 1166.75 640.83 1148.76 660.948C1112.79 671.966 1080.9 665.019 1053.09 640.111L1043.02 626.459 1055.25 609.933 999.134 571.134 1037.26 611.37 1024.31 634.363 999.854 636.519 981.15 653.763 932.953 632.926 909.213 642.985 861.016 606.341 865.332 589.815C869.168 578.797 876.842 571.612 888.351 568.26L904.897 566.823 960.288 539.519 940.146 499.282 992.66 474.853 994.099 461.201 949.498 440.364 947.34 425.275 968.921 403.72 986.186 404.438 990.502 394.379 1004.89 385.757 1017.84 390.787 1013.52 378.572 1017.12 369.231 1039.42 357.016 1134.38 394.379M1086.18 563.23 1106.32 584.786 1115.67 597.719 969.64 510.06C1005.61 558.919 1065.08 600.114 1148.04 633.645L1125.02 587.66 1086.18 563.23M919.284 625.022 922.162 625.741 917.126 611.37C912.81 598.916 905.137 592.211 894.107 591.252L890.51 591.252C883.316 601.311 885.474 610.412 896.984 618.556L919.284 625.022M930.075 580.475 971.079 639.393 987.624 632.208 976.115 607.778 1020.72 620.711 957.411 571.852 959.569 576.164 961.008 579.038C956.213 577.122 950.937 574.486 945.182 571.134L930.075 580.475M973.237 433.179 1022.87 459.046 1018.56 474.134 1138.69 526.586C1160.75 537.124 1182.57 552.452 1204.15 572.571 1199.36 555.805 1189.53 542.153 1174.66 531.615L1192.64 528.023 1198.4 511.497 1176.82 503.594 1183.29 512.934 1146.6 505.749 1170.34 501.438 973.237 433.179M1010.64 413.06 1026.47 432.46 1121.43 471.26C1084.5 452.1 1047.57 432.701 1010.64 413.06M1133.66 564.667 1155.24 566.104 1107.76 540.956 1133.66 564.667M1150.92 640.111 1150.92 639.393 1072.51 630.771C1086.9 643.225 1104.64 649.692 1125.74 650.17L1145.89 647.296 1150.92 640.111" fill="#FFFFFF" fill-rule="evenodd" fill-opacity="0.301961"/><path d="M1121.95 425.758 1070.85 409.925 1118.36 420 1039.89 384.016 1121.95 413.523 1121.95 425.758M1010.38 413.523C1047.33 433.195 1084.28 452.626 1121.24 471.817L1026.22 432.954 1010.38 413.523M972.949 433.674 1170.18 502.043 1146.43 506.361 1183.14 513.558 1176.66 504.202 1198.26 512.119 1192.5 528.672 1174.5 532.27C1189.38 542.824 1199.22 556.499 1204.02 573.292 1182.42 553.14 1160.59 537.787 1138.51 527.232L1018.3 474.695 1022.62 459.582 972.949 433.674M929.759 581.208 944.875 571.852C950.634 575.21 955.913 577.85 960.712 579.769L959.272 576.89 957.113 572.572 1020.46 621.51 975.828 608.556 987.346 633.025 970.79 640.222 929.759 581.208M918.962 625.828 896.647 619.351C885.129 611.194 882.97 602.079 890.168 592.003L893.767 592.003C904.805 592.963 912.483 599.679 916.802 612.154L921.841 626.547 918.962 625.828M1085.96 563.936 1124.83 588.405 1147.87 634.464C1064.85 600.88 1005.34 559.618 969.35 510.679L1115.48 598.48 1106.12 585.526 1085.96 563.936M1150.75 640.941 1145.71 648.138 1125.55 651.017C1104.44 650.537 1086.68 644.06 1072.29 631.585L1150.75 640.222 1150.75 640.941" fill="#FFFFFF" fill-rule="evenodd" fill-opacity="0.8"/><path d="M509.92 455.425 491.87 485.617 453.605 510.777C445.422 515.09 437.24 523.716 429.057 536.655L424.003 551.032 398.011 581.224 392.235 593.445 385.016 616.448 394.401 625.074 388.626 635.138 385.016 651.671C391.755 663.173 405.231 661.017 425.447 645.202L434.833 635.138 438.443 622.199 473.82 598.476 443.497 625.074 436.999 643.045 444.219 646.639 442.775 661.017 467.323 649.515 470.933 659.579 503.422 635.857 509.198 623.636C513.049 615.01 514.011 609.019 512.086 605.665L506.31 602.789 501.256 578.349 525.804 549.595 519.306 526.591 525.082 516.527C532.783 513.173 540.725 509.339 548.908 505.026L556.128 494.243 559.016 476.272 553.24 475.553 556.128 467.646 555.406 459.738 548.908 462.614 556.128 453.988 559.016 446.08 557.572 436.016 509.92 455.425M393.679 636.576 393.679 635.857 424.003 635.857C413.414 644.004 404.509 647.358 397.289 645.921L392.235 641.607 393.679 636.576M449.273 584.1 433.389 599.195 424.003 607.103 511.364 555.345C477.672 588.413 439.887 613.812 398.011 631.544L425.447 599.195 449.273 584.1M491.87 610.697 452.161 651.671 450.717 644.483 465.157 627.231 444.941 632.981 487.538 602.071 484.65 604.946 482.484 607.103C485.372 606.144 488.501 604.706 491.87 602.789L491.87 610.697M475.264 645.921 482.484 635.138C489.704 626.033 495.239 621.72 499.09 622.199L500.534 622.917C498.127 630.585 493.314 637.054 486.094 642.326L475.986 645.202 475.264 645.921M544.576 497.837 516.418 512.933 510.642 524.435C490.426 534.02 469.73 543.365 448.551 552.47L406.675 581.224 434.111 553.908 429.779 549.595 435.555 536.655C439.406 535.696 443.016 534.259 446.385 532.342L439.887 538.812 455.771 536.655 449.273 531.623 544.576 497.837M541.688 479.866 527.248 492.806 478.874 513.652C499.571 502.629 520.509 491.368 541.688 479.866M499.09 479.147 505.588 469.802 544.576 454.706 503.422 474.834 523.638 471.24 499.09 479.147M433.389 581.943 425.447 580.505 452.161 566.128 433.389 581.943" fill="#FFFFFF" fill-rule="evenodd" fill-opacity="0.301961"/><path d="M498.93 478.462 523.262 470.553 503.224 474.148 544.016 454.016 505.371 469.115 498.93 478.462M541.153 479.181C520.16 490.684 499.407 501.948 478.892 512.973L526.84 492.122 541.153 479.181M544.016 497.155 449.551 530.947 455.992 535.98 440.248 538.137 446.688 531.666C443.349 533.583 439.771 535.021 435.954 535.98L430.229 548.921 434.523 553.236 407.328 580.557 448.835 551.798C469.828 542.691 490.343 533.344 510.381 523.757L516.106 512.254 544.016 497.155M475.314 645.265 476.03 644.546 486.049 641.67C493.205 636.397 497.976 629.926 500.361 622.257L498.93 621.538C495.113 621.06 489.627 625.374 482.471 634.48L475.314 645.265M491.774 610.035 491.774 602.126C488.435 604.043 485.333 605.481 482.471 606.44L484.617 604.283 487.48 601.407 445.257 632.323 465.295 626.571 450.982 643.827 452.413 651.017 491.774 610.035M449.551 583.432 425.935 598.531 398.74 630.885C440.248 613.151 477.7 587.746 511.096 554.674L424.504 606.44 433.807 598.531 449.551 583.432M394.447 635.918 393.015 640.951 398.025 645.265C405.181 646.703 414.008 643.348 424.504 635.199L394.447 635.199 394.447 635.918" fill="#FFFFFF" fill-rule="evenodd" fill-opacity="0.8"/></g></svg>