<svg width="1761" height="1761" xmlns="http://www.w3.org/2000/svg" xmlns:xlink="http://www.w3.org/1999/xlink" overflow="hidden"><defs><clipPath id="clip0"><rect x="0" y="0" width="1761" height="1761"/></clipPath></defs><g clip-path="url(#clip0)"><path d="M680.154 1364.4 670.938 1371.33C642.132 1389.17 616.964 1406.13 595.434 1422.19L579.591 1434.74 595.434 1422.19C616.964 1406.13 642.132 1389.17 670.938 1371.33ZM646.494 1277.24 644.211 1315.11 644.211 1315.11 646.494 1277.24ZM356.451 976C418.814 984.924 478.801 1006.34 536.412 1040.25 612.435 1081.3 656.386 1143.47 668.265 1226.76L675.392 1289.23C716.373 1300.53 729.736 1318.97 715.482 1344.55 700.635 1370.14 665.592 1401.37 610.356 1438.26 554.527 1474.54 516.219 1504.29 495.431 1527.49 474.643 1550.7 462.171 1560.21 458.014 1556.05L445.541 1545.34C458.014 1548.32 470.189 1543.26 482.067 1530.17 470.189 1543.26 458.014 1548.32 445.541 1545.34L441.977 1542.66 431.286 1526.6 419.705 1499.83 399.214 1426.65C384.96 1376.68 368.627 1327.6 350.215 1279.41 368.627 1327.6 384.96 1376.68 399.214 1426.65L419.705 1499.83C393.572 1444.5 370.706 1386.5 351.106 1325.81 326.754 1247.88 312.797 1169.35 309.234 1090.23 306.859 1044.42 322.597 1006.34 356.451 976Z" fill="#AAAAAA" fill-rule="evenodd"/><path d="M419.709 1499.84C393.576 1444.51 370.71 1386.5 351.11 1325.82 326.758 1247.89 312.801 1169.36 309.238 1090.23 306.863 1044.42 322.601 1006.35 356.455 976.006 418.818 984.93 478.805 1006.35 536.417 1040.26 612.44 1081.31 656.39 1143.48 668.269 1226.77L675.396 1289.23C716.377 1300.54 729.741 1318.98 715.487 1344.56 700.639 1370.14 665.596 1401.38 610.361 1438.26 554.531 1474.55 516.223 1504.3 495.435 1527.5 474.648 1550.7 462.175 1560.22 458.018 1556.06L445.545 1545.35C458.018 1548.32 470.193 1543.26 482.072 1530.18L541.762 1467.71C570.27 1439.15 613.33 1407.03 670.942 1371.33 679.257 1367.17 685.196 1360.62 688.76 1351.7L691.432 1332.07C687.869 1304.7 672.13 1299.05 644.215 1315.11 650.154 1263.95 644.512 1215.46 627.288 1169.65 620.754 1151.81 611.252 1136.04 598.779 1122.36 532.853 1046.8 448.515 1003.67 345.765 992.961L343.092 994.746C319.335 1019.14 308.347 1050.37 310.129 1088.45 313.692 1153.89 327.056 1217.54 350.219 1279.42 368.631 1327.61 384.964 1376.69 399.218 1426.66L419.709 1499.84" fill="#888888" fill-rule="evenodd"/><path d="M419.63 1499.69 399.166 1426.54C384.93 1376.58 368.617 1327.52 350.229 1279.35 327.096 1217.5 313.749 1153.87 310.19 1088.45 308.411 1050.39 319.385 1019.17 343.111 994.79L345.781 993.006C448.399 1003.71 532.629 1046.83 598.47 1122.35 610.927 1136.03 620.417 1151.79 626.942 1169.63 644.144 1215.42 649.779 1263.89 643.847 1315.03 671.726 1298.98 687.445 1304.63 691.004 1331.98L688.335 1351.61C684.776 1360.53 678.845 1367.07 670.54 1371.23 613.003 1406.91 569.998 1439.03 541.526 1467.57L481.912 1530.02C470.049 1543.1 457.889 1548.15 445.433 1545.18L441.874 1542.5 431.197 1526.45 419.63 1499.69" fill="#AAAAAA" fill-rule="evenodd"/></g></svg>