<svg width="1761" height="1761" xmlns="http://www.w3.org/2000/svg" xmlns:xlink="http://www.w3.org/1999/xlink" overflow="hidden"><defs><clipPath id="clip0"><rect x="0" y="0" width="1761" height="1761"/></clipPath></defs><g clip-path="url(#clip0)"><path d="M860.578 1550.69 860.578 1552.24 859.803 1552.24ZM899.369 1521.2 899.369 1521.2 901.739 1522.09ZM1020.39 1484.73 1020.39 1484.73 1015.74 1525.08 1015.74 1525.08ZM976.174 1467.66 976.174 1467.66 963.761 1537.5ZM1153.06 1424.21 1158.49 1440.5 1158.49 1440.5ZM1119.7 1362.13 1048.33 1426.54 1048.32 1426.54ZM933.504 1358.25 925.746 1397.83 901.696 1487.06 886.956 1530.51 886.956 1530.51 901.697 1487.06 925.747 1397.83ZM1144.47 1357.33 1100.3 1402.48 1100.3 1402.48 1144.47 1357.33ZM1085.78 1351.08 1073.93 1368.34 1035.14 1418 1013.41 1441.28 1013.41 1441.28 1035.14 1418 1073.93 1368.34 1085.78 1351.08ZM1191.93 1348.42 1191.93 1348.42 1144.53 1396.27 1144.52 1396.27ZM1049.11 1337.95 1049.1 1338.08 1049.1 1338.08 1049.11 1337.95ZM1026.68 1320.07 1036.69 1368.34 946.694 1461.45 946.693 1461.45 1036.69 1368.34 1046 1358.25 1046 1358.25 1036.69 1368.34 1026.68 1320.07ZM1287.27 1304.71 1287.27 1304.71 1288.01 1321.03ZM1007.21 1290.17 1007.21 1294.62 988.587 1321.78 988.587 1321.78 1007.21 1294.62 1007.21 1290.17ZM1312.1 1200.73 1296.58 1237.98 1312.1 1200.74ZM922.643 1178.23 908.678 1407.14 908.679 1407.13ZM885.788 1124.79 895.49 1183.66 902.472 1253.5 904.799 1296.95 899.369 1378.43 886.18 1446.71 869.888 1516.55 860.578 1550.69 859.803 1552.24 859.803 1552.24 859.803 1553.02 859.804 1553.02 860.579 1552.24 860.579 1550.69 869.888 1516.55 886.18 1446.71 899.368 1378.43 899.369 1378.43 904.799 1296.95 904.8 1296.95 902.472 1253.5 895.49 1183.66ZM1356.32 1063.39 1345.46 1090.55 1333.82 1116.15 1291.15 1189.87 1286.39 1196.84 1286.39 1196.84 1291.15 1189.87 1333.82 1116.15 1345.46 1090.55 1356.32 1063.4ZM1357.87 1026.92 1338.48 1069.6 1318.79 1107 1338.48 1069.6ZM1392.78 981.916 1379.59 1019.94 1354.77 1092.1 1332.27 1167.37 1354.77 1092.1 1379.59 1019.94 1392.78 981.919ZM306.751 934.334 306.751 934.335 307.427 943.893 312.858 987.347 313.056 981.01 312.858 987.346 307.427 943.893ZM1345.46 907.423 1329.94 979.587C1325.29 997.693 1319.79 1015.47 1313.46 1032.93L1294.39 1078.47 1294.39 1078.47 1313.46 1032.93C1319.79 1015.47 1325.29 997.693 1329.94 979.587ZM331.262 898.058 331.262 898.059 330.33 922.976ZM357.581 841.331 357.581 841.332 356.303 851.555 351.648 901.216 351.648 901.214 356.304 851.555ZM797.738 788.702 797.739 788.705 832.649 852.331 860.578 916.735 886.956 1003.64 898.593 1045.54 886.956 1003.64 860.579 916.735 832.65 852.331ZM794.635 705.675 817.909 759.216 840.407 811.205 850.493 839.14 876.87 919.839 900.92 1010.62 919.54 1104.52 930.401 1179.78 939.711 1254.27 939.71 1254.27 930.401 1179.78 919.54 1104.52 900.921 1010.62 876.871 919.839 850.493 839.14 840.408 811.205 817.909 759.216 794.636 705.679ZM826.004 701.922 841.959 756.888 870.664 844.571 897.041 926.046 920.316 1007.52 937.384 1085.12 951.348 1158.06 962.21 1225.56 967.64 1258.15 977.726 1311.7 987.811 1362.91 987.811 1362.91 977.726 1311.69 967.64 1258.15 962.21 1225.56 951.348 1158.06 937.384 1085.12 920.316 1007.52 897.042 926.046 870.664 844.571 841.959 756.888 826.005 701.924ZM451.728 697.14 431.557 738.266 414.489 783.271 390.439 868.626 371.044 950.101 353.976 1032.35 345.83 1067.66 353.976 1032.35 371.044 950.101 390.439 868.626 414.489 783.271 431.557 738.266ZM1288.05 666.878 1300.46 675.413 1303.63 705.036 1303.63 705.036 1300.46 675.413ZM421.504 599.777 421.503 599.779 414.489 614.889 398.481 655.263 398.481 655.264 414.489 614.889ZM520.588 554.871 516.12 559.021 516.12 559.021 516.12 559.021 495.949 580.747 516.12 559.021ZM619.938 547.93 669.73 582.299 692.436 604.252 669.73 582.299ZM570.521 511.767 561.893 518.67 555.997 523.617 561.892 518.671ZM1341.46 510.679 1353.7 529.583C1378.28 574.758 1394.52 623.288 1402.41 675.174L1406 712.35 1406 712.35 1402.41 675.174C1394.52 623.288 1378.28 574.757 1353.7 529.582ZM1181.06 491.148 1205.04 560.572C1219 600.404 1229.09 643.082 1235.29 688.604L1239.33 734.078 1239.33 734.078 1235.29 688.604C1229.09 643.082 1219 600.404 1205.04 560.572L1181.06 491.149ZM646.836 475.307 646.455 479.874 539.394 579.195 505.259 616.441 478.784 651.747 505.259 616.441 539.395 579.195 646.456 479.874 646.836 475.307ZM620.882 465.405 607.665 479.097 620.882 465.405ZM1166.25 445.731 1166.25 445.744 1171.02 460.857 1171.02 460.857ZM1100.62 369.326 1100.62 369.327 1122.8 380.551 1182.54 417.797 1236.07 466.682 1279.52 520.223 1302.01 559.021 1329.17 625.753 1347.01 692.484 1329.17 625.753 1302.01 559.021 1279.52 520.223 1236.07 466.682 1182.54 417.797 1122.8 380.551ZM1206.72 366.508 1225.6 379.193 1225.6 379.193ZM1165.47 353.393 1166.32 353.487 1172.45 354.169 1172.45 354.168 1166.32 353.487 1165.47 353.393ZM577.802 320.301 559.565 329.92C543.273 339.361 527.239 349.513 511.464 360.376 493.88 372.662 477.2 385.741 461.425 399.611L439.876 420.86 439.877 420.858 461.425 399.611C477.2 385.741 493.88 372.663 511.464 360.377 527.239 349.513 543.273 339.361 559.565 329.92L577.802 320.302ZM606.862 304.974 578.368 320.003 578.368 320.003 606.857 304.977ZM1056.03 291.777 1056.03 291.778 1102.8 309.964ZM802.855 252.91 821.788 256.399C863.682 265.193 906.093 265.969 949.02 258.727L952.123 258.727 1022.89 279.843 1022.89 279.843 952.123 258.727 949.02 258.727C906.092 265.968 863.681 265.193 821.788 256.399ZM823.339 237 830.322 254.071C908.937 248.897 986.777 255.105 1063.84 272.693 1116.59 282.523 1165.47 302.18 1210.47 331.666 1272.01 370.464 1319.86 421.418 1353.99 484.528 1425.37 615.924 1448.38 756.629 1423.04 906.647 1398.21 1052.01 1356.32 1191.94 1297.36 1326.44L1286.5 1330.32 1263.22 1366.01C1236.33 1404.29 1200.64 1431.97 1156.16 1449.04L1146.85 1445.93 1119.7 1466.11C1106.51 1476.2 1092.93 1485.77 1078.97 1494.82L1035.91 1520.43 1035.91 1520.43 1024.27 1525.86 1024.27 1525.86 1007.98 1532.84 1001 1527.41 997.896 1518.1 962.21 1545.26 959.882 1543.7 957.555 1498.7 906.351 1533.62 876.87 1553.79 863.681 1557.67 855.924 1560 854.372 1553.79 855.924 1534.39 863.681 1499.48 873.767 1456.02 891.611 1352.82 895.49 1315.57C896.524 1295.4 895.49 1274.97 892.386 1254.27L886.18 1210.82 883.077 1179.78C880.491 1146.68 876.095 1114.6 869.888 1083.56L853.596 1010.62 825.667 901.991 801.617 822.068 788.428 778.615 805.496 827.5 832.649 909.751 852.82 978.035 869.888 1044.77 880.977 1098.99 869.888 1044.77 852.82 978.035 832.65 909.751 805.496 827.5 788.428 778.615 733.346 656.791 724.812 645.152 720.933 640.496 693.004 604.802 693.004 604.801 720.933 640.496 682.143 600.146 613.096 547.381 519.223 628.856C500.086 651.101 485.605 674.12 475.778 697.916L444.746 777.839 436.987 806.55 408.282 936.91 408.281 936.918 399.749 1026.14C396.645 1056.15 395.611 1085.63 396.645 1114.6L398.972 1180.56 402.852 1269.79 398.197 1262.81C400.783 1315.06 407.765 1366.53 419.144 1417.22L457.157 1553.01 457.158 1553.02 457.158 1553.02 455.606 1553.02 447.848 1543.7 419.144 1496.37 397.423 1453.7 397.421 1453.69 388.887 1433.52 364.061 1357.48 330.702 1016.06 332.253 1023.04 332.253 1023.04 330.702 1016.06 330.037 945.556 330.702 1016.06 364.061 1357.47 364.061 1357.48 388.887 1433.52C342.856 1326.95 314.668 1215.48 304.324 1099.08L295.014 1090.55 266.309 935.358C257 884.145 254.673 831.121 259.328 776.287 263.465 720.936 280.015 653.945 308.979 575.315 337.426 496.685 400.524 422.194 498.276 351.841 595.511 280.97 703.865 242.69 823.339 237Z" fill="#FFFFFF" fill-rule="evenodd"/><path d="M457.305 1554.33 455.746 1554.33 447.954 1544.95 419.123 1497.3 397.305 1454.33 457.305 1554.33" fill="#6B3C01" fill-rule="evenodd"/><path d="M861.391 1551.42 861.391 1553.42 860.391 1553.42 861.391 1551.42" fill="#6B3C00" fill-rule="evenodd"/><path d="M389.19 1434.75C343.159 1328.1 314.972 1216.54 304.627 1100.06L295.318 1091.52 266.612 936.21C257.303 884.958 254.976 831.895 259.631 777.019 263.768 721.626 280.319 654.585 309.282 575.895 337.729 497.206 400.828 422.658 498.579 352.253 595.814 281.328 704.168 243.019 823.643 237.324L830.625 254.409C909.24 249.231 987.08 255.444 1064.14 273.045 1116.9 282.882 1165.77 302.553 1210.77 332.062 1272.32 370.889 1320.16 421.882 1354.3 485.04 1425.67 616.535 1448.69 757.347 1423.34 907.478 1398.52 1052.95 1356.62 1192.99 1297.66 1327.59L1286.8 1331.47 1263.53 1367.19C1236.63 1405.5 1200.94 1433.2 1156.46 1450.28L1147.16 1447.17 1120 1467.36C1093.62 1487.55 1065.7 1505.67 1036.21 1521.72L1153.36 1425.43 1158.79 1441.74 1216.98 1403.69 1227.84 1404.46 1252.67 1371.85C1267.15 1351.66 1278.78 1329.66 1287.58 1305.84L1288.35 1322.93 1327.14 1218.09C1354.55 1141.48 1376.54 1063.05 1393.09 982.802 1406.53 897.901 1411.45 813.258 1407.83 728.875 1403.69 632.583 1373.17 546.905 1316.28 471.839 1263.53 401.433 1195.77 348.887 1113.02 314.202 1060.78 291.423 1007.25 273.045 952.427 259.068L949.324 259.068C906.396 266.315 863.985 265.539 822.091 256.738L792.611 251.302 732.873 259.844 713.478 264.504C642.104 285.212 574.868 317.308 511.768 360.794 441.428 409.975 385.571 471.839 344.194 546.387 291.956 641.642 270.233 744.405 279.026 854.674 285.75 934.398 296.352 1013.35 310.834 1091.52L320.143 1069 364.364 1358.65 389.19 1434.75M1024.58 1527.16 1008.29 1534.15 1001.3 1528.71 998.2 1519.39 962.513 1546.57 960.185 1545.02 957.858 1499.98 906.654 1534.92 877.174 1555.11 863.985 1559 856.227 1561.32 854.675 1555.11 856.227 1535.7 863.985 1500.75 874.07 1457.27 891.914 1353.99 895.793 1316.71C896.828 1296.52 895.793 1276.08 892.69 1255.37L886.483 1211.88 883.38 1180.82C880.794 1147.69 876.398 1115.59 870.191 1084.53L853.899 1011.53 825.97 902.819 801.92 822.835 788.732 779.349 805.799 828.271 832.953 910.584 853.124 978.92 870.191 1045.7 884.156 1114.04 895.793 1184.7 902.775 1254.59 905.103 1298.08 899.672 1379.61 886.483 1447.95 870.191 1517.84 860.882 1552.01 860.106 1553.56 860.106 1554.34 870.967 1547.35 899.672 1522.5 905.879 1524.83 976.477 1468.92 964.064 1538.81 1020.7 1486 1016.04 1526.38 1023.03 1527.16 1024.58 1527.16" fill="#888888" fill-rule="evenodd"/><path d="M721.303 640.663 682.517 600.263 613.475 547.433 519.609 629.009 544.433 604.924 615.026 544.325 670.105 582.394 693.377 604.924 721.303 640.663M408.678 937.448 400.145 1026.79C397.041 1056.84 396.007 1086.36 397.041 1115.36L399.369 1181.4 403.248 1270.75 398.593 1263.76C401.179 1316.07 408.161 1367.6 419.539 1418.36L457.55 1554.33 435.053 1494.5 414.884 1431.57 399.369 1367.86 388.509 1297.94 382.303 1224.91 382.303 1155.76 388.509 1084.29 398.593 1010.48 408.678 937.448" fill="#8C8A8C" fill-rule="evenodd"/><path d="M364.553 1358.23 320.326 1068.69 311.015 1091.2C296.532 1013.06 285.929 934.147 279.204 854.454 270.409 744.23 292.135 641.509 344.38 546.291 385.762 471.774 441.627 409.934 511.976 360.773 575.084 317.304 642.329 285.221 713.713 264.521 741.645 265.556 768.544 270.472 794.407 279.269L783.544 296.346 771.13 311.871 762.595 321.186 714.489 314.199 747.853 335.158 749.405 342.143 736.99 363.102 696.642 376.297 718.368 378.626 712.937 391.046 673.366 387.941 704.401 402.689 718.368 393.375 721.471 380.955 779.665 360.773 827.771 357.669 851.824 353.787 875.102 347.578 877.429 347.578 813.805 384.06 817.685 425.976 822.34 467.116 835.53 549.397 841.738 580.445 849.497 609.942 869.671 672.041 896.051 739.572 927.088 819.524 957.348 908.79 980.626 994.951 995.368 1080.34 1004.68 1169.6 1007.01 1216.18 1007.78 1256.54 1007.78 1295.35 989.16 1322.52 990.712 1292.25 991.488 1261.2 989.937 1230.15 987.609 1199.88 982.177 1136.22 975.194 1088.1 966.659 1038.42 945.71 948.377 918.553 861.44 890.62 784.593 861.911 706.971C854.67 686.789 848.204 666.09 842.513 644.872L828.547 580.445 816.133 494.284 813.029 452.368 810.701 408.9 810.701 387.165 802.942 436.068 799.063 484.193 798.287 580.445 802.166 612.271 814.581 661.173 842.513 757.425 871.222 845.139 897.603 926.643 920.881 1008.15 937.951 1085.77 951.917 1158.74 962.78 1226.27 968.211 1258.87 978.298 1312.43 988.385 1363.66 1024.08 1305.44 1037.27 1369.09 947.261 1462.24 979.849 1408.68 975.194 1393.93 924.76 1430.42 934.071 1359 926.312 1398.59 902.259 1487.86 887.516 1531.32 878.982 1522.79 884.413 1492.51 899.931 1379.18 905.362 1297.68 908.466 1254.21 910.018 1209.97 908.466 1166.5 903.034 1121.48 896.827 1083.44 887.516 1045.41 863.463 971.665 836.306 895.594 809.15 818.748 798.287 789.251 833.203 852.901 861.135 917.328 887.516 1004.27 899.155 1046.18C892.43 1002.71 882.602 961.056 869.671 921.21L859.584 891.713 848.721 861.44 836.306 831.943 823.116 801.671 806.046 762.859 787.424 723.271 769.578 684.461 727.679 599.075 712.937 579.669 667.934 527.662 653.968 510.585 686.556 515.243 656.296 502.046 660.174 485.746 695.867 481.089 664.83 474.102 667.934 466.34 740.094 460.907 752.508 456.25 725.351 447.71 694.315 445.382 681.9 445.382 687.332 437.619 660.174 458.578 662.502 461.683 665.607 460.907 647.76 470.998 646.984 480.312 539.909 579.669 505.769 616.928 475.508 657.292 452.232 697.656 432.058 738.796 414.988 783.817 390.935 869.203 371.537 950.706 354.467 1032.99 345.156 1073.35 332.741 1023.67 335.845 986.413 341.276 911.119 349.036 835.048 360.674 759.754 376.192 685.237 401.021 603.733 439.817 517.571 444.472 509.032 640.778 290.136 539.909 387.165C510.425 417.697 483.785 449.78 459.99 483.417L455.335 489.626 480.164 449.263 518.959 396.479 579.481 319.633 521.287 372.417 463.094 437.619C446.024 461.424 430.765 486.263 417.316 512.137 403.867 538.529 392.228 565.697 382.4 593.642L357.57 679.803 341.276 765.187 333.518 851.349 330.413 934.405 331.19 1016.69 364.553 1358.23M733.11 259.864 792.855 251.324 801.391 269.179 775.01 262.192 733.11 259.864M949.589 259.088 952.692 259.088C1007.52 273.059 1061.06 291.43 1113.31 314.199 1196.07 348.87 1263.83 401.396 1316.59 471.774 1373.49 546.809 1404.01 632.453 1408.15 728.706 1411.77 813.055 1406.86 897.664 1393.41 982.532L1380.22 1020.57 1355.39 1092.76 1332.89 1168.05 1308.06 1241.79 1294.87 1276.72 1312.71 1201.43 1297.2 1238.69 1290.99 1234.03 1235.9 1316.31 1228.14 1313.2 1145.12 1397.04 1165.29 1372.2 1184.69 1345.81 1242.88 1267.41 1279.35 1213.85 1315.04 1157.96 1345.3 1095.86 1356.94 1064.04 1346.08 1091.2 1334.44 1116.82 1291.76 1190.56 1259.95 1237.13 1222.71 1282.16 1183.91 1326.4 1164.52 1348.13 1170.72 1331.83 1100.89 1403.25 1120.29 1362.88 1048.91 1427.31 1076.84 1383.84 1128.05 1295.35 1174.6 1203.76 1197.88 1154.85 1150.55 1245.67 1142.01 1261.97 1110.2 1317.09 1074.51 1369.09 1035.71 1418.77 1013.99 1442.06 1042.7 1369.87 1062.87 1340.37 1109.43 1265.08 1158.31 1171.15 1177.71 1121.48 1194 1070.25 1207.19 1018.24 1228.14 912.671C1234.35 882.657 1237.45 852.901 1237.45 823.405L1232.8 731.81C1229.69 700.761 1224.52 668.676 1217.28 635.558L1200.21 567.25 1166.84 446.159 1176.15 475.655 1205.64 561.039C1219.61 600.886 1229.69 643.579 1235.9 689.117L1244.43 785.37C1245.99 819.006 1245.73 852.901 1243.66 887.056L1234.35 969.336 1218.83 1032.99C1206.93 1069.73 1195.81 1107.25 1185.47 1145.54 1207.71 1100.52 1224.26 1052.91 1235.12 1002.71L1251.42 913.447C1257.62 872.566 1260.21 830.391 1259.18 786.922L1285.56 907.238 1295.64 844.363 1299.52 783.042C1300.04 743.195 1296.42 704.642 1288.66 667.383L1301.08 675.922 1305.73 719.391C1311.42 772.692 1309.61 826.251 1300.3 880.07L1280.9 971.665 1245.99 1077.23 1214.95 1154.85C1196.33 1198.32 1174.09 1239.98 1148.22 1279.83L1210.29 1209.97 1191.67 1272.84 1202.54 1281.38C1240.3 1239.98 1272.88 1194.18 1300.3 1143.99L1339.1 1070.25 1358.49 1027.55 1374.79 983.308 1388.75 938.287C1408.93 865.321 1412.29 791.579 1398.84 717.062 1389.53 663.761 1373.24 612.789 1349.96 564.145L1304.96 484.969 1253.75 421.319C1228.4 393.892 1199.17 371.382 1166.07 353.787L1173.05 354.563C1165.81 347.319 1154.69 340.333 1139.69 333.605 1111.24 321.702 1081.75 312.906 1051.23 307.213L895.276 292.465 892.172 293.242 890.62 294.794C924.76 298.934 958.382 305.919 991.488 315.752L962.78 318.081 918.553 323.514C878.723 328.689 839.927 336.71 802.166 347.578L824.668 345.249 787.424 355.34 743.197 362.326 764.147 336.71 834.755 318.857 784.32 326.619 813.029 317.304 784.32 313.423 861.911 296.346 799.839 300.227 830.099 292.465 906.914 269.954 949.589 259.088M1172.28 425.2 1117.96 384.836 1057.44 347.578 1123.39 380.955 1183.14 418.214 1236.68 467.116 1280.13 520.676 1302.63 559.488 1329.78 626.243 1347.63 692.998 1356.17 763.636 1356.17 834.272 1346.08 908.014 1330.56 980.203C1321.25 1016.43 1308.58 1051.36 1292.54 1084.99L1277.02 1119.15 1307.28 1012.8 1322.03 953.811 1332.11 893.266 1337.54 831.943 1339.87 768.293 1331.34 704.642 1317.37 642.544 1294.87 583.551 1263.06 527.662 1221.16 473.326 1172.28 425.2M788.2 357.669C824.409 345.249 861.911 338.263 900.707 336.71L850.273 352.235 782.769 359.22 788.2 357.669M912.345 331.277 867.343 333.605 927.864 325.066 912.345 331.277M922.432 745.006 906.914 658.069 944.933 832.72 922.432 745.006M848.721 816.419 815.357 743.454 795.183 706.194 818.46 759.754 840.962 811.762 851.049 839.706 877.429 920.433 901.483 1011.25 920.104 1105.18 930.967 1180.47 940.278 1254.99 934.847 1168.83 930.192 1122.25 923.208 1077.23 902.259 985.637 877.429 897.147 848.721 816.419M758.715 273.836 698.97 269.954 612.069 328.948C620.345 324.808 628.363 320.41 636.122 315.752L643.105 326.619 664.83 316.528 649.312 318.857 640.001 314.199C677.245 297.122 715.006 295.57 753.284 309.542L758.715 273.836M674.141 318.081C680.349 318.081 680.607 317.563 674.917 316.528L674.141 318.081M611.293 391.823 593.447 409.676 610.517 402.689 611.293 391.823M643.105 326.619 632.242 319.633 606.637 346.025 615.172 340.591 643.105 326.619M669.486 359.997 643.105 356.116 722.248 357.669 712.937 339.038 706.729 331.277 697.419 322.738 662.502 335.934 629.139 352.235C608.448 365.69 589.567 381.99 572.498 401.136L578.704 398.032 611.293 384.836 654.743 363.102 669.486 359.997M556.203 405.018 556.979 402.689 598.879 356.892 605.861 347.578 522.063 437.619C537.064 431.41 549.22 422.354 558.531 410.452L556.203 405.018M592.671 402.689 598.102 398.032 585.687 407.347 592.671 402.689M544.564 457.025 508.097 484.969C491.027 498.942 475.508 514.725 461.542 532.32L435.161 571.907 414.988 615.375 397.141 660.397 383.175 706.971 370.761 754.321 363.002 802.447 356.794 852.125 352.139 901.804 383.175 790.804 414.988 706.971 435.161 666.606 459.99 627.796 477.836 604.508 496.458 581.222 516.632 559.488 538.357 539.306 562.411 519.123 585.687 500.494 608.189 479.536 629.914 457.025 640.778 446.159 612.844 431.41 617.5 415.885 574.049 436.844 544.564 457.025M761.819 376.297 728.455 384.836 784.32 377.85 761.819 376.297M702.075 408.9 693.539 413.556 666.382 409.676 692.763 422.871 702.075 408.9M756.388 326.619 752.508 334.381 747.077 324.29 756.388 326.619M744.749 441.501C772.165 464.787 788.976 495.061 795.183 532.32 791.562 507.481 786.39 483.158 779.665 459.354 776.561 450.039 771.13 442.018 763.371 435.291 761.302 432.704 758.715 431.151 755.612 430.633L777.337 457.025 742.421 427.528 744.749 441.501M401.021 481.865 370.761 533.096 343.604 584.327 353.691 531.543 333.518 606.061 314.12 695.328 307.912 734.139 301.705 812.538 301.705 856.783 307.912 944.496 313.343 987.965 314.895 938.287 317.223 877.741 317.999 847.468 324.206 766.74 328.862 727.153 335.845 687.565 311.792 746.559 342.052 658.069 376.968 571.13 394.038 533.872 428.178 459.354 444.472 422.871 401.021 481.865M344.38 696.88C336.621 726.377 330.931 756.908 327.31 788.475L362.225 629.348 344.38 696.88M1012.44 1067.14 1017.09 1143.99 996.144 966.231 1001.57 989.518 1012.44 1067.14M1007.78 904.909 1017.09 887.056C1026.4 918.622 1033.39 951.482 1038.04 985.637L1047.35 1058.6 1053.56 1138.55 1055.11 1218.51 1052.01 1299.23 1049.68 1338.82 1034.16 1273.62 1025.63 1275.95C1033.9 1251.62 1038.56 1227.56 1039.59 1203.76L1040.37 1143.21 1036.49 1074.13 1028.73 1005.82 1016.32 939.063 1007.78 904.909M923.208 1178.92 909.242 1407.9 918.553 1352.79 924.76 1265.85 923.208 1178.92" fill="#DDDDDD" fill-rule="evenodd"/><path d="M389.484 1434.74 364.66 1358.64 331.303 1016.97 332.854 1023.96 345.266 1073.66 354.575 1033.28 371.642 950.969 391.036 869.435 415.084 784.018 432.151 738.98 452.32 697.824 475.592 657.445 505.847 617.066 539.98 579.793 647.033 480.399 647.808 471.08 665.651 460.986 662.547 461.762 660.22 458.656 687.372 437.69 681.941 445.455 694.353 445.455 725.384 447.784 752.535 456.327 740.123 460.986 667.978 466.421 664.875 474.186 695.905 481.175 660.22 485.834 656.342 502.14 686.596 515.342 654.015 510.683 667.978 527.766 712.972 579.793 727.711 599.206 769.601 684.624 787.443 723.449 806.061 763.051 823.128 801.878 836.315 832.162 848.728 861.669 859.588 891.954 869.673 921.461C882.602 961.323 892.428 1003 899.151 1046.48L887.515 1004.55 861.139 917.579 833.212 853.128 798.304 789.453 809.164 818.961 836.315 895.836 863.467 971.935 887.515 1045.7 896.824 1083.75 903.03 1121.8 908.46 1166.84 910.011 1210.33 908.46 1254.59 905.357 1298.07 903.03 1254.59 896.048 1184.7 884.412 1114.04 870.448 1045.7 853.382 978.924 833.212 910.59 806.061 828.279 788.995 779.358 733.916 657.445 725.384 645.797 721.504 641.138 693.578 605.418 670.306 582.899 615.227 544.85 544.634 605.418 519.809 629.49C500.674 651.751 486.194 674.787 476.368 698.6L445.338 778.582 437.581 807.313 408.878 937.768 398.793 1010.76 388.709 1084.53 382.503 1155.97 382.503 1225.08 388.709 1298.07 399.569 1367.96 415.084 1431.63 435.254 1494.53 457.75 1554.32 398.018 1454.93 389.484 1434.74M713.747 264.526 733.141 259.867 775.031 262.196 801.407 269.185 792.874 251.324 822.352 256.761C864.242 265.561 906.65 266.337 949.574 259.091L906.909 269.962 830.11 292.481 799.855 300.245 861.915 296.364 784.34 313.447 813.043 317.329 784.34 326.647 834.764 318.883 764.171 336.742 743.226 362.368 787.443 355.379 797.528 353.825 788.219 357.709 782.789 359.261 779.686 360.814 721.504 381.004 718.401 393.428 704.438 402.746 673.408 387.992 712.972 391.098 718.401 378.674 696.68 376.344 737.02 363.144 749.432 342.177 747.88 335.19 714.523 314.223 762.619 321.212 771.153 311.893 783.564 296.364 794.425 279.28C768.567 270.48 741.674 265.561 713.747 264.526M1393.3 982.807C1376.75 1063.05 1354.77 1141.48 1327.36 1218.09L1288.58 1322.92 1287.8 1305.84C1279.01 1329.65 1267.37 1351.65 1252.89 1371.84L1228.07 1404.46 1217.21 1403.68 1159.03 1441.73 1153.6 1425.42 1036.46 1521.71 1024.82 1527.15 1023.27 1527.15 1016.29 1526.37 1020.94 1485.99 964.314 1538.8 976.726 1468.91 906.133 1524.82 899.927 1522.49 871.224 1547.34 860.364 1554.32 861.139 1553.55 861.139 1552 870.448 1517.83 886.739 1447.94 899.927 1379.61 884.412 1492.98 878.982 1523.26 887.515 1531.81 902.254 1488.32 926.302 1399.02 934.06 1359.42 924.751 1430.86 975.175 1394.36 979.828 1409.12 947.248 1462.7 1037.23 1369.51 1046.54 1359.42 1042.66 1370.29 1013.96 1442.51 1035.68 1419.21 1074.47 1369.51 1110.16 1317.49 1141.96 1262.35 1150.49 1246.05 1197.81 1155.19 1174.54 1204.11 1128 1295.74 1076.8 1384.27 1048.87 1427.75 1120.24 1363.3 1100.85 1403.68 1170.66 1332.24 1164.46 1348.55 1183.85 1326.81 1222.64 1282.54 1259.87 1237.5 1291.68 1190.91 1334.35 1117.14 1345.98 1091.52 1356.84 1064.34 1345.21 1096.18 1314.95 1158.3 1279.27 1214.21 1242.81 1267.79 1184.63 1346.22 1165.23 1372.62 1145.06 1397.47 1228.07 1313.6 1235.83 1316.71 1290.9 1234.4 1297.11 1239.06 1312.63 1201.79 1294.78 1277.11 1307.97 1242.16 1332.79 1168.39 1355.29 1093.07 1380.12 1020.86 1393.3 982.807M848.728 816.631 877.43 897.389 902.254 985.913 923.199 1077.54 930.181 1122.58 934.836 1169.17 940.266 1255.37 930.957 1180.82 920.096 1105.5 901.478 1011.54 877.43 920.685 851.055 839.927 840.97 811.972 818.473 759.945 795.201 706.365 815.37 743.639 848.728 816.631M756.413 326.647 747.104 324.318 752.535 334.412 756.413 326.647M702.112 408.959 692.802 422.936 666.427 409.735 693.578 413.617 702.112 408.959M761.844 376.344 784.34 377.898 728.486 384.887 761.844 376.344M923.199 1179.27 924.751 1266.24 918.545 1353.21 909.236 1408.34 923.199 1179.27" fill="#AAAAAA" fill-rule="evenodd"/><path d="M1172.5 425.582 1221.42 473.712 1263.35 528.052 1295.18 583.945 1317.7 642.943 1331.68 705.046 1340.22 768.702 1337.89 832.357 1332.45 893.684 1322.36 954.234 1307.61 1013.23 1277.32 1119.58 1292.85 1085.43C1308.9 1051.79 1321.58 1016.86 1330.9 980.628L1346.43 908.434 1356.52 834.686 1356.52 764.044 1347.98 693.401 1330.12 626.641 1302.95 559.88 1280.43 521.065 1236.95 467.501 1183.37 418.595 1123.58 381.333 1057.58 347.954 1118.15 385.215 1172.5 425.582M787.372 355.716 824.642 345.625 802.125 347.954C839.913 337.085 878.736 329.063 918.595 323.888L962.854 318.455 991.583 316.126C958.453 306.292 924.807 299.306 890.642 295.165L892.195 293.614 895.301 292.837 1051.37 307.586C1081.91 313.279 1111.42 322.077 1139.89 333.98 1154.9 340.708 1166.03 347.695 1173.28 354.939L1166.29 354.163C1199.42 371.76 1228.66 394.272 1254.03 421.701L1305.28 485.356 1350.31 564.538C1373.6 613.185 1389.91 664.161 1399.23 717.467 1412.69 791.99 1409.32 865.738 1389.13 938.709L1375.16 983.733 1358.85 1027.98 1339.44 1070.68 1300.62 1144.42C1273.18 1194.62 1240.57 1240.43 1202.78 1281.83L1191.91 1273.29 1210.55 1210.41 1148.43 1280.28C1174.31 1240.43 1196.57 1198.77 1215.21 1155.29L1246.26 1077.66 1281.21 972.089 1300.62 880.487C1309.93 826.665 1311.75 773.101 1306.05 719.796L1301.39 676.323 1288.97 667.784C1296.73 705.046 1300.36 743.602 1299.84 783.451L1295.96 844.778 1285.86 907.657 1259.46 787.332C1260.5 830.805 1257.91 872.983 1251.7 913.868L1235.39 1003.14C1224.52 1053.34 1207.96 1100.95 1185.7 1145.98 1196.05 1107.68 1207.18 1070.16 1219.09 1033.42L1234.62 969.76 1243.94 887.474C1246.01 853.317 1246.26 819.419 1244.71 785.78L1236.17 689.52C1229.96 643.978 1219.86 601.282 1205.89 561.432L1176.38 476.041 1167.06 446.542 1200.45 567.643 1217.53 635.956C1224.78 669.078 1229.96 701.164 1233.06 732.216L1237.72 823.818C1237.72 853.317 1234.62 883.075 1228.41 913.091L1207.44 1018.67 1194.24 1070.68 1177.94 1121.91 1158.52 1171.59 1109.61 1265.53 1063.02 1340.83 1042.83 1370.32 1046.71 1359.46 1037.39 1369.55 1024.19 1305.89 988.477 1364.11 978.383 1312.88 968.289 1259.32 962.854 1226.71 951.983 1159.17 938.007 1086.2 920.925 1008.57 897.63 927.064 871.23 845.554 842.501 757.833 814.548 661.573 802.125 612.667 798.242 580.839 799.019 484.58 802.901 436.45 810.666 387.544 810.666 409.28 812.995 452.752 816.101 494.671 828.525 580.839 842.501 645.271C848.195 666.49 854.666 687.192 861.913 707.375L890.642 785.003 918.595 861.856 945.772 948.8 966.736 1038.85 975.277 1088.53 982.265 1136.66 987.701 1200.32 990.03 1230.59 991.583 1261.64 990.807 1292.7 989.253 1322.97 1007.89 1295.8 1007.89 1256.99 1007.11 1216.62 1004.78 1170.04 995.466 1080.77 980.713 995.377 957.418 909.21 927.136 819.937 896.077 739.979 869.677 672.442 849.489 610.338 841.725 580.839 835.513 549.788 822.313 467.501 817.654 426.358 813.772 384.438 877.442 347.954 875.113 347.954 851.819 354.163 827.748 358.045 779.607 361.15 782.713 359.597 850.266 352.612 900.736 337.085C861.913 338.638 824.384 345.625 788.149 358.045L797.466 354.163 787.372 355.716M912.383 331.651 927.913 325.441 867.348 333.98 912.383 331.651M922.477 745.413 944.995 833.134 906.948 658.469 922.477 745.413M758.643 274.206 753.207 309.915C714.902 295.941 677.113 297.494 639.843 314.573L649.161 319.231 664.69 316.902 642.95 326.993 635.961 316.126C628.197 320.784 620.173 325.182 611.891 329.322L698.854 270.324 758.643 274.206M674.008 318.455 674.784 316.902C680.478 317.937 680.22 318.455 674.008 318.455M611.114 392.202 610.337 403.07 593.255 410.056 611.114 392.202M642.95 326.993 614.996 340.967 606.455 346.401 632.078 320.007 642.95 326.993M669.349 360.374 654.596 363.479 611.114 385.215 578.502 398.412 572.291 401.517C589.373 382.368 608.267 366.067 628.973 352.612L662.36 336.309 697.302 323.112 706.619 331.651 712.831 339.414 722.149 358.045 642.95 356.492 669.349 360.374M592.479 403.07 585.49 407.727 597.914 398.412 592.479 403.07M555.984 405.399 558.314 410.832C548.996 422.736 536.832 431.793 521.82 438.003L605.678 347.954 598.691 357.268 556.761 403.07 555.984 405.399M544.337 457.41 573.843 437.227 617.325 416.266 612.667 431.793 640.62 446.542 629.749 457.41 608.007 479.922 585.49 500.882 562.197 519.513 538.126 539.697 516.385 559.88 496.197 581.616 477.561 604.905 459.703 628.194 434.856 667.007 414.668 707.375 382.833 791.214 351.774 902.223 356.433 852.541 362.645 802.858 370.409 754.728 382.833 707.375 396.808 660.798 414.668 615.772 434.856 572.301 461.256 532.71C475.232 515.114 490.762 499.329 507.844 485.356L544.337 457.41M744.666 441.884 742.337 427.911 777.278 457.41 755.537 431.016C758.643 431.534 761.231 433.086 763.301 435.673 771.066 442.401 776.501 450.423 779.607 459.739 786.337 483.545 791.513 507.869 795.137 532.71 788.925 495.448 772.101 465.173 744.666 441.884M330.81 1017.11 330.032 934.827 333.139 851.764 340.903 765.596 357.208 680.205 382.056 594.037C391.891 566.09 403.539 538.92 416.997 512.526 430.456 486.65 445.726 461.809 462.808 438.003L521.044 372.795 579.279 320.007 518.714 396.859 479.891 449.647 455.044 490.014 459.703 483.804C483.514 450.164 510.174 418.078 539.679 387.544L640.62 290.508 444.174 509.421 439.515 517.961 400.691 604.129 375.844 685.639 360.315 760.162 348.668 835.462 340.903 911.538 335.469 986.838 332.362 1024.1 330.81 1017.11M344.009 697.283 361.867 629.746 326.927 788.885C330.55 757.316 336.244 726.782 344.009 697.283M400.691 482.251 444.174 423.253 427.867 459.739 393.703 534.262 376.62 571.524 341.68 658.469 311.398 746.966 335.469 687.968 328.48 727.558 323.821 767.149 317.609 847.883 316.833 878.158 314.503 938.709 312.95 988.391 307.515 944.919 301.304 857.198 301.304 812.95 307.515 734.545 313.727 695.73 333.139 606.458 353.327 531.933 343.233 584.721 370.409 533.486 400.691 482.251M1007.89 905.328 1016.43 939.485 1028.85 1006.25 1036.62 1074.56 1040.5 1143.65 1039.72 1204.2C1038.69 1228.01 1034.03 1252.07 1025.75 1276.39L1034.29 1274.06 1049.82 1339.27 1052.15 1299.68 1055.25 1218.95 1053.7 1138.99 1047.49 1059.03 1038.17 986.062C1033.51 951.906 1026.52 919.043 1017.21 887.474L1007.89 905.328M1012.55 1067.57 1001.68 989.943 996.242 966.655 1017.21 1144.42 1012.55 1067.57" fill="#FFFFFF" fill-rule="evenodd"/><path d="M954.795 381.335C1047.41 410.855 1119.33 466.269 1170.55 547.578L1182.19 567.776 1179.86 560.007C1220.74 649.602 1241.69 743.34 1242.73 841.222L1236.52 848.99C1239.1 722.624 1203.92 609.466 1130.97 509.512 1208.06 627.592 1233.41 753.698 1207.03 887.832L1207.03 869.188 1199.26 900.262C1201.33 856.241 1189.95 801.085 1165.12 734.796L1137.18 662.549 1137.18 664.88 1144.94 723.919C1167.19 779.334 1175.46 835.784 1169.77 893.27 1168.74 907.253 1165.38 919.941 1159.68 931.335L1144.16 829.57 1145.71 858.312 1137.95 855.982C1105.87 779.852 1066.81 706.052 1020.76 634.583 989.202 585.384 968.764 531.005 959.451 471.448 990.495 553.792 1032.92 630.441 1086.73 701.391L1109.24 730.911C1074.05 650.638 1032.92 573.472 985.839 499.414L942.377 433.382C988.426 486.208 1028.78 542.658 1063.45 602.733L1090.61 652.451C1073.02 609.984 1057.76 566.481 1044.82 521.942L1021.54 493.2C1004.98 474.555 1000.84 457.206 1009.12 441.151L1012.23 443.481 1014.55 445.035C1044.05 499.414 1076.38 552.757 1111.57 605.064 1082.07 541.363 1052.58 490.092 1023.09 451.251L1058.79 490.092 1050.25 470.67C1109.24 549.909 1155.54 635.102 1189.18 726.25 1161.24 635.619 1127.09 548.096 1086.73 463.68 1041.72 433.124 994.117 406.712 943.93 384.442L954.795 381.335M893.483 431.83C900.727 466.528 910.299 500.449 922.199 533.595L920.647 532.041C907.195 520.647 898.916 496.307 895.812 459.019L893.483 431.83M951.69 535.149C975.49 584.866 1002.4 633.029 1032.4 679.64L1104.58 783.736C1060.6 740.751 1024.38 689.739 995.928 630.699L951.69 535.149M1341.29 565.445C1304.55 508.477 1260.58 459.019 1209.35 417.07 1266.27 445.554 1307.66 488.279 1333.53 545.248L1341.29 565.445M1268.34 667.988 1255.14 673.425C1243.24 572.437 1196.68 489.315 1115.45 424.06 1200.82 468.082 1250.49 537.997 1264.46 633.807L1268.34 667.988M1213.23 797.719C1214.79 712.267 1193.57 632.512 1149.59 558.453L1099.93 476.109 1158.91 610.502C1178.05 656.076 1193.06 702.686 1203.92 750.332L1213.23 797.719M428.603 645.459C445.677 599.367 470.254 559.748 502.332 526.603 520.441 507.441 541.136 490.61 564.42 476.109L502.332 539.032C469.219 578.393 441.538 622.413 419.29 671.095L428.603 645.459M438.692 556.123 445.677 538.256C458.095 513.397 476.98 495.271 502.332 483.877L438.692 556.123M822.859 577.098 825.963 587.197 822.083 594.965 822.859 577.098M822.083 600.403C838.639 662.549 860.37 723.661 887.275 783.736 849.505 736.091 828.033 682.488 822.859 622.93L822.083 600.403" fill="#FFFFFF" fill-rule="evenodd" fill-opacity="0.501961"/></g></svg>
