<svg width="1761" height="1761" xmlns="http://www.w3.org/2000/svg" xmlns:xlink="http://www.w3.org/1999/xlink" overflow="hidden"><defs><clipPath id="clip0"><rect x="0" y="0" width="1761" height="1761"/></clipPath></defs><g clip-path="url(#clip0)"><path d="M500.841 837 500.841 1197.85 716.594 1197.85 716.594 1324.31 1088 1324.31 1088 1611.91C1049.98 1612.94 1013.51 1604.97 978.579 1588.01L960.856 1579.53C946.474 1571.3 932.604 1561.54 919.247 1550.23 904.865 1538.92 889.453 1529.41 873.015 1521.7L784.402 1485.46 769.762 1481.6 723.529 1476.21C663.427 1464.38 607.434 1474.92 555.55 1507.82L555.574 1507.34 501.97 1508.87 494.258 1503.47 493.996 1500 493.621 1500.18 493.906 1503.96 462.314 1519.39 462.341 1519.19 461.868 1519.66 461.892 1515.37 461.571 1515.53 461.544 1520.16C447.16 1517.07 435.602 1520.67 426.869 1530.95L423.306 1537.37 423.308 1537.38 423.291 1537.4 423.016 1537.89 422.982 1537.67 408.655 1550.2C393.617 1560.79 377.422 1564.74 360.07 1562.05L353.9 1557.42 354.151 1554.56 353.952 1554.69 353.667 1557.94 332.863 1561.02 332.734 1560.5 332.307 1560.5 332.174 1559.7 331.875 1559.72 332.092 1561.02 326.698 1561.79 326.758 1561.28 300.688 1562.81 301.799 1558.16 301.734 1558.16 300.5 1563.34 283.548 1561.02 286.114 1553.49 283.722 1560.5 252.102 1562.81 246.747 1544.47 246.562 1544.83 236.544 1536.35 224.216 1550.23 188 1561.02 188.086 1560.5 121 1579C166.244 1497.31 205.575 1411.76 238.993 1322.37L336.163 1064.96C359.298 1002.28 391.689 945.507 433.333 894.642L439.503 886.935 446.128 880.315 446.132 880.179C463.085 861.673 481.321 847.281 500.841 837Z" fill="#DDDDDD" fill-rule="evenodd"/><path d="M785 1483.98 770.348 1480.12 785 1483.98M555.955 1506.33 501.971 1507.87 494.259 1502.47 485.776 1389.96 495.03 1406.91 498.886 1389.96 557.497 1476.27 555.955 1506.33M462.64 1517.89 461.869 1518.66 462.64 1384.56 471.123 1389.18C474.208 1431.83 471.38 1474.73 462.64 1517.89M423.309 1536.38C404.286 1556.42 383.207 1564.64 360.071 1561.05L353.901 1556.42C356.472 1513.78 361.356 1471.39 368.554 1429.26L377.037 1386.1C395.546 1412.82 407.628 1441.08 413.284 1470.88 417.397 1492.45 420.738 1514.29 423.309 1536.38M333.079 1559.5 332.308 1559.5 330.766 1550.26 333.079 1559.5M326.91 1560.27 300.689 1561.81C306.344 1530.47 315.342 1500.42 327.681 1471.65L340.791 1441.59 326.91 1560.27M283.722 1559.5 252.103 1561.81 246.705 1543.32C283.208 1481.15 312 1415.13 333.079 1345.26L341.562 1315.2C332.822 1398.95 313.542 1480.38 283.722 1559.5M188.094 1559.5 121 1578C166.244 1496.31 205.575 1410.76 238.993 1321.37L336.164 1063.96C359.299 1001.28 391.69 944.507 433.334 893.642L439.504 885.935 446.445 879C449.53 887.733 445.93 898.266 435.648 910.597L407.114 969.939C392.204 1004.88 374.209 1056 353.13 1123.3 331.536 1190.09 302.231 1265.88 265.214 1350.65L193.493 1517.12C194.006 1527.91 192.721 1538.95 189.637 1550.26L188.094 1559.5M373.182 1217.32 366.241 1211.16 373.182 1187.27 373.182 1217.32M518.166 1327.53C541.816 1361.95 555.698 1400.75 559.811 1443.9L561.353 1461.63 492.716 1292.08 518.166 1327.53M415.597 1299.79 407.885 1305.95 397.088 1279.75 415.597 1299.79M360.843 1377.62 355.443 1333.7C347.732 1298.25 349.531 1263.82 360.843 1230.43L398.631 1314.43 360.843 1377.62M363.155 1223.49 360.843 1230.43 366.241 1211.16 364.698 1218.1 376.266 1242.76 363.155 1223.49M426.393 1356.82 438.733 1465.48 391.69 1355.27 404.8 1331.38 412.512 1345.26 411.741 1319.82 423.309 1341.4 426.393 1356.82" fill="#DDDDDD" fill-rule="evenodd"/><path d="M960.857 1578.53C946.474 1570.3 932.605 1560.54 919.248 1549.23 904.865 1537.92 889.453 1528.41 873.015 1520.7L784.402 1484.46 769.762 1480.6 723.529 1475.21C663.427 1463.38 607.434 1473.92 555.55 1506.82L557.092 1476.75 498.53 1390.39 494.677 1407.35 485.43 1390.39 493.906 1502.96 462.314 1518.39C471.047 1475.21 473.872 1432.28 470.79 1389.62L462.314 1384.99 461.544 1519.16C447.16 1516.07 435.602 1519.67 426.869 1529.95L423.016 1536.89C420.448 1514.79 417.109 1492.94 412.999 1471.35 407.348 1441.54 395.277 1413.26 376.784 1386.53L368.307 1429.71C361.115 1471.86 356.236 1514.27 353.668 1556.94L332.864 1560.02 330.552 1550.77 332.093 1560.02 326.699 1560.79 340.568 1442.05 327.469 1472.12C315.14 1500.91 306.15 1530.98 300.5 1562.34L283.548 1560.02C313.343 1480.86 332.607 1399.39 341.338 1315.6L332.864 1345.67C311.802 1415.58 283.034 1481.63 246.562 1543.83L236.544 1535.35 224.216 1549.23 188 1560.02 189.542 1550.77C192.623 1539.46 193.907 1528.41 193.394 1517.61L265.055 1351.07C302.041 1266.25 331.322 1190.43 352.897 1123.6 373.959 1056.27 391.938 1005.12 406.836 970.164L435.345 910.793C445.619 898.455 449.215 887.917 446.132 879.179 463.085 860.673 481.321 846.281 500.841 836L500.841 1196.85 716.594 1196.85 716.594 1323.31 1088 1323.31 1088 1610.91C1049.98 1611.94 1013.51 1603.97 978.58 1587.01L960.857 1578.53M372.932 1217.67 372.932 1187.6 365.997 1211.5 372.932 1217.67M415.311 1300.18 396.817 1280.13 407.605 1306.34 415.311 1300.18M517.794 1327.93 492.365 1292.47 560.944 1462.1 559.403 1444.36C555.293 1401.18 541.424 1362.37 517.794 1327.93M362.913 1223.84 376.013 1243.12 364.456 1218.44 365.997 1211.5 360.602 1230.78 362.913 1223.84M360.602 1378.05 398.359 1314.83 360.602 1230.78C349.301 1264.19 347.504 1298.63 355.209 1334.1L360.602 1378.05M426.098 1357.23 423.016 1341.81 411.457 1320.22 412.229 1345.67 404.523 1331.79 391.425 1355.69 438.427 1465.95 426.098 1357.23" fill="#AAAAAA" fill-rule="evenodd"/><path d="M960.893 1578.38C917.243 1555.25 873.078 1534.95 828.399 1517.48 734.933 1478.42 640.441 1478.68 544.921 1518.25L496.39 1521.34C484.065 1530.07 471.226 1534.18 457.875 1533.67 444.522 1537.27 432.197 1544.98 420.899 1556.8 404.466 1574.78 384.95 1580.44 362.356 1573.75L353.882 1572.21 323.067 1584.55 316.905 1583.78 298.418 1580.69 271.457 1575.3 234.481 1562.96 125.866 1593.03 112 1582.23C174.653 1451.19 229.346 1317.06 276.079 1179.85 308.431 1084.77 351.057 994.325 403.952 908.503 430.656 863.793 463.01 832.958 501.013 816L501.013 836.042C481.497 846.319 463.267 860.709 446.32 879.21L439.386 886.147 433.224 893.857C391.627 944.733 359.273 1001.52 336.164 1064.22L239.103 1321.68C205.723 1411.1 166.437 1496.67 121.244 1578.38L188.262 1559.88 224.467 1549.09 236.792 1535.21 246.807 1543.69 252.199 1562.19 283.782 1559.88 300.728 1562.19 326.92 1560.65 332.312 1559.88 333.082 1559.88 353.882 1556.8 360.043 1561.42C383.153 1565.02 404.209 1556.8 423.21 1536.75L427.061 1529.82C435.792 1519.54 447.347 1515.94 461.726 1519.02L462.496 1518.25 494.079 1502.83 501.783 1508.23 555.706 1506.69C607.574 1473.8 663.551 1463.26 723.635 1475.08L769.855 1480.48 784.491 1484.33 873.078 1520.56C889.511 1528.27 904.918 1537.78 919.297 1549.09 932.65 1560.39 946.515 1570.16 960.893 1578.38M1088 1610.75 1088 1620.78C1059.75 1622.32 1032.02 1615.89 1004.8 1601.51L978.612 1586.86C1013.53 1603.82 1049.99 1611.78 1088 1610.75" fill="#888888" fill-rule="evenodd"/></g></svg>