<svg width="1761" height="1761" xmlns="http://www.w3.org/2000/svg" xmlns:xlink="http://www.w3.org/1999/xlink" overflow="hidden"><defs><clipPath id="clip0"><rect x="0" y="0" width="1761" height="1761"/></clipPath></defs><g clip-path="url(#clip0)"><path d="M437.086 742.865 458.777 712.184C469.247 698.715 481.214 688.987 494.677 683L481.962 724.905 460.272 816.946C451.297 860.846 450.799 903.249 458.777 944.156L464.012 948.646 466.255 959.871 464.759 980.823 461.019 989.802 450.549 1015.25C444.067 1033.21 441.325 1051.91 442.322 1071.37 443.818 1102.3 452.045 1130.23 467.003 1155.18L463.264 1162.66 457.281 1165.65C429.358 1184.11 422.876 1234.99 437.834 1318.31L427.364 1295.11C419.386 1279.14 413.901 1263.18 410.91 1247.22L403.43 1206.81 395.203 1158.17 388.471 1108.78 382.488 1059.4 378 1009.26 378 950.143 383.985 891.027 397.447 834.157 407.17 805.721 419.137 777.286 437.086 742.865M906.033 1148.44 903.041 1142.46 903.789 1134.97 906.033 1148.44M1027.95 851.367 1088.53 930.686C1106.48 959.62 1121.69 990.301 1134.15 1022.73 1147.62 1059.15 1158.34 1097.56 1166.31 1137.97 1179.78 1207.31 1180.52 1277.4 1168.56 1348.24L1150.61 1364.7C1105.73 1395.13 1059.36 1423.56 1011.49 1450 999.024 1439.03 984.813 1432.79 968.858 1431.3 946.421 1400.87 934.953 1367.69 934.454 1331.77 939.44 1292.36 941.934 1251.96 941.934 1210.55 941.435 1164.66 938.443 1119.01 932.958 1073.61 927.473 1025.72 915.507 979.077 897.058 933.68 872.127 872.319 848.693 810.461 826.753 748.102L812.543 740.619 808.055 730.143 809.551 718.17 820.022 714.429C842.958 722.411 865.396 732.387 887.335 744.36 941.186 771.798 988.055 807.467 1027.95 851.367" fill="#000000" fill-rule="evenodd" fill-opacity="0.2"/><path d="M1031.48 1616.05 1031.46 1616.06 1037.07 1623.84 1037.08 1623.82ZM313.802 1153.54 310.398 1154.21 310.307 1154.41 313.952 1153.68ZM753.653 703.058 753.241 703.155 753.123 703.555 753.55 703.407ZM617.288 685.57 617.098 685.672 617.89 688.605 618.075 688.481ZM657.633 661.212 657.526 661.261 658.235 662.444 658.39 662.475ZM813.4 320.083C877.541 318.837 940 331.665 1000.78 358.567 1020.2 347.606 1057.82 350.098 1113.61 366.04L1133.04 372.018C1199.3 392.443 1263.56 451.727 1325.84 549.869 1388.1 647.513 1409.03 754.872 1388.6 871.945 1383.13 904.825 1375.15 936.708 1364.69 967.596L1344.69 950.759 1344.66 950.876 1364.29 967.411 1368.77 974.885 1374.39 993.481 1374.99 993.718 1369.36 975.084C1383.81 996.531 1392.78 1020.21 1396.27 1046.14 1400.25 1077.57 1402.49 1109.24 1402.99 1141.15L1399.26 1195.75C1426.16 1207.73 1449.83 1225.43 1470.26 1248.87 1491.68 1274.31 1504.64 1303.73 1509.13 1337.14 1514.1 1376.54 1512.62 1415.18 1504.64 1453.09L1503.14 1420.92 1503.02 1417.91 1502.54 1420.98 1504 1452.52 1474.12 1489.89 1458.42 1509.32 1433.02 1533.25 1416.45 1540.46 1416.44 1541.35 1385.06 1559.31 1362.63 1560.81 1361.13 1542.85 1353.66 1552.57C1335.72 1580 1310.81 1596.46 1278.92 1601.95L1265.47 1599.71 1264.72 1589.24C1254.26 1603.2 1242.05 1614.67 1228.1 1623.64 1219.12 1629.13 1209.66 1630.38 1199.7 1627.38L1125.7 1621.4 1125.7 1618.4 1119.72 1621.4 1024.05 1645.33 1026.29 1631.12 957.531 1670.02 937.35 1676 940.044 1671.03 939.242 1670.98 936.921 1675.26 923.842 1678.9 923.807 1679 923.737 1678.93 923.473 1679 923.559 1678.74 907.929 1662.38C904.068 1655.53 901.639 1647.37 900.643 1637.9 898.65 1620.96 902.635 1605.52 912.599 1591.57L982.841 1488.45 993.303 1463.04C997.79 1444.11 995.542 1426.92 986.577 1411.48 974.622 1390.55 964.658 1368.88 956.686 1346.46 945.728 1314.09 943.735 1281.2 950.71 1247.83 957.185 1214.45 961.17 1181.07 962.665 1147.69L964.16 1051.29C964.658 1009.44 955.442 970.336 936.511 933.969 925.054 912.546 915.09 890.626 906.621 868.209L861.038 741.919 859.543 740.425 852.529 707.267 852.234 707.149 859.218 740.181 844.275 736.443 848.759 714.766 795.71 719.251 794.216 707.291 738.181 714.766 746.399 679.636 657.489 682.625 604.442 704.302 596.969 702.06 598.465 679.636 517.025 719.251 511.795 690.848 478.921 702.06 466.55 695.507 466.484 695.588 464.989 694.84 462 702.314 454.528 711.281 460.506 705.301 402.967 849.526 402.712 850.766 402.712 865.755 401.965 885.19 400.472 908.361 398.229 953.209C397.731 971.148 394.992 989.337 390.01 1007.77L383.287 1021.23 372.826 1033.18 329.492 1074.3 323.809 1079.27 323.757 1079.69 323.01 1080.44 323.757 1081.93 323.734 1082.36 347.423 1145.31 342.193 1177.45 317.537 1209.59C313.055 1216.57 310.315 1224.04 309.319 1232.02L307.824 1262.67C308.323 1276.61 307.078 1290.31 304.089 1303.78L292.882 1341.9 272.709 1394.22 268.973 1398.71 162.879 1516.05 156.902 1516.8 153.913 1525.77 139.248 1541.18 139.183 1541.5C122.744 1561.43 117.513 1585.1 123.49 1612.5L116.765 1622.21 101.073 1620.71C94.5971 1598.3 95.8431 1576.13 104.81 1554.21 111.784 1537.77 119.506 1521.64 127.975 1505.82L155.282 1459.88 155.407 1459.25 169.603 1439.07 171.097 1436.82 165.867 1451.03 166.174 1450.85 171.316 1436.89 175.352 1430.54 177.908 1420.14 178.024 1419.9 182.305 1397.96 182.297 1397.63 177.294 1389.06 157.119 1357.68C149.645 1345.21 144.165 1332.26 140.678 1318.81 137.689 1305.36 137.44 1292.16 139.931 1279.21 142.421 1264.26 147.154 1250.06 154.129 1236.61L178.788 1194.02 198.964 1155.16 208.679 1124.53 210.921 1067.73 212.415 927.244C212.913 885.396 220.635 845.292 235.58 806.932L247.536 777.042 265.471 734.446C272.445 717.01 277.925 699.324 281.911 681.389L289.383 648.509 305.075 595.453 307.317 591.717C339.699 534.925 406.703 477.881 508.332 420.59L523.276 412.371 586.793 379.49 615.936 366.04C683.439 336.647 749.26 321.328 813.4 320.083Z" fill="#FFFFFF" fill-rule="evenodd"/><path d="M1037.14 1621.05 1037.12 1621.07 1042.73 1628.84C1042.74 1628.83 1042.74 1628.83 1042.75 1628.82L1037.14 1621.05ZM318.955 1158.54 315.549 1159.21 315.457 1159.41 319.105 1158.68 318.955 1158.54ZM759.117 708.058 758.705 708.155C758.665 708.288 758.626 708.421 758.587 708.554L759.014 708.407C759.049 708.29 759.083 708.174 759.117 708.058ZM622.656 690.57 622.465 690.672 623.258 693.605 623.443 693.481 622.656 690.57ZM663.029 666.212 662.922 666.261 663.632 667.444 663.787 667.475 663.029 666.212ZM818.906 325.082C883.092 323.837 945.595 336.665 1006.42 363.567 1025.86 352.606 1063.5 355.098 1119.33 371.039 1125.81 373.032 1145.85 373.432 1152.33 375.425 1218.63 395.85 1292.12 472.288 1338.88 552.478 1390.41 640.846 1414.96 759.872 1394.52 876.945 1389.04 909.825 1381.06 941.708 1370.59 972.596L1350.58 955.759C1350.57 955.798 1350.56 955.837 1350.55 955.876L1370.19 972.411 1374.67 979.885 1380.3 998.481 1380.9 998.718 1375.26 980.084C1389.72 1001.53 1398.7 1025.21 1402.19 1051.14 1406.17 1082.57 1408.42 1114.24 1408.92 1146.15L1405.18 1200.75C1432.1 1212.73 1455.79 1230.43 1476.23 1253.87 1497.67 1279.31 1510.64 1308.73 1515.13 1342.14 1520.11 1381.54 1518.62 1420.18 1510.64 1458.09L1509.14 1425.92C1509.09 1424.92 1509.05 1423.91 1509.01 1422.91L1508.53 1425.98 1510 1457.52 1480.1 1494.89 1464.39 1514.32 1438.97 1538.25 1422.38 1545.46C1422.38 1545.76 1422.38 1546.05 1422.38 1546.35L1390.97 1564.31 1368.53 1565.81 1367.03 1547.85 1359.55 1557.57C1341.6 1585 1316.67 1601.46 1284.76 1606.95L1271.3 1604.71 1270.55 1594.24C1260.08 1608.2 1247.86 1619.67 1233.9 1628.64 1224.92 1634.13 1215.45 1635.38 1205.48 1632.38L1131.43 1626.4 1131.43 1623.4 1125.45 1626.4 1029.71 1650.33 1031.95 1636.12 963.139 1675.02 942.944 1681 945.639 1676.03 944.838 1675.98 942.515 1680.26 929.426 1683.9C929.414 1683.93 929.403 1683.97 929.392 1684L929.321 1683.93 929.057 1684 929.143 1683.74 913.502 1667.38C909.638 1660.53 907.208 1652.37 906.211 1642.9 904.217 1625.96 908.205 1610.52 918.175 1596.57L988.467 1493.45 998.936 1468.04C1003.43 1449.11 1001.18 1431.92 992.206 1416.48 980.242 1395.55 970.271 1373.88 962.294 1351.46 951.328 1319.09 949.333 1286.2 956.313 1252.83 962.793 1219.45 966.781 1186.07 968.277 1152.69 968.775 1120.56 969.274 1088.42 969.773 1056.29 970.271 1014.44 961.049 975.336 942.104 938.969 930.639 917.546 920.668 895.626 912.193 873.209L866.578 746.919 865.082 745.425 858.062 712.267 857.768 712.149 864.757 745.181 849.803 741.443 854.29 719.766 801.204 724.251 799.709 712.291 743.634 719.766 751.858 684.636 662.885 687.625 609.801 709.302 602.323 707.06 603.819 684.636 522.322 724.251 517.088 695.848 484.191 707.06 471.811 700.507 471.745 700.588 470.249 699.84 467.258 707.314 459.78 716.281 465.763 710.301 408.183 854.526 407.928 855.766 407.928 870.755C407.679 877.234 407.43 883.712 407.18 890.19L405.686 913.361 403.442 958.209C402.944 976.148 400.203 994.337 395.217 1012.77L388.489 1026.23 378.021 1038.18 334.656 1079.3 328.97 1084.27C328.952 1084.41 328.935 1084.55 328.917 1084.69L328.169 1085.44 328.917 1086.93 328.895 1087.36 352.6 1150.31 347.366 1182.45 322.693 1214.59C318.208 1221.57 315.465 1229.04 314.469 1237.02L312.973 1267.67C313.472 1281.61 312.226 1295.31 309.235 1308.78L298.02 1346.9 277.833 1399.22 274.094 1403.71 167.925 1521.05 161.944 1521.8 158.953 1530.77 144.278 1546.18C144.256 1546.29 144.235 1546.39 144.213 1546.5 127.762 1566.43 122.528 1590.1 128.509 1617.5L121.78 1627.21 106.076 1625.71C99.5956 1603.3 100.842 1581.13 109.816 1559.21 116.794 1542.77 124.522 1526.64 132.997 1510.82L160.324 1464.88C160.365 1464.67 160.407 1464.46 160.448 1464.25L174.654 1444.07 176.149 1441.82 170.916 1456.03 171.223 1455.85 176.368 1441.89 180.407 1435.54 182.965 1425.14 183.082 1424.9 187.365 1402.96C187.363 1402.85 187.36 1402.74 187.357 1402.63L182.351 1394.06 162.161 1362.68C154.683 1350.21 149.199 1337.26 145.709 1323.81 142.718 1310.36 142.468 1297.16 144.961 1284.21 147.454 1269.26 152.19 1255.06 159.17 1241.61L183.846 1199.02 204.036 1160.16 213.758 1129.53 216.001 1072.73C216.5 1025.9 216.998 979.072 217.496 932.244 217.995 890.396 225.722 850.292 240.678 811.932L252.642 782.042 270.59 739.446C277.569 722.01 283.053 704.324 287.042 686.389L294.519 653.509 310.223 600.453 312.465 596.717C344.87 539.924 411.922 482.881 513.622 425.59L528.577 417.37 592.139 384.49 621.303 371.039C688.853 341.647 754.721 326.328 818.906 325.082Z" fill="#FFFFFF" fill-rule="evenodd"/><path d="M273.095 1403.71 166.926 1521.05 157.954 1530.78 143 1546.47 159.449 1464.26 173.655 1444.07 175.15 1441.82 169.917 1456.03 178.888 1450.8 182.627 1451.55 183.375 1464.26 190.851 1421.65 180.384 1433.61 186.366 1402.96C186.117 1392.75 185.868 1382.53 185.618 1372.32L187.113 1313.27 190.851 1284.11 204.309 1235.53C210.291 1217.59 221.257 1201.64 237.207 1187.7L234.964 1180.97 249.917 1147.34 256.647 1129.39C261.631 1103.98 264.622 1078.07 265.619 1051.66L265.619 1035.96 271.6 1026.99C279.077 966.199 283.562 905.156 285.058 843.865L289.544 811.725 291.04 806.493 297.768 787.807 308.983 760.898 327.676 710.07 355.34 643.548 347.115 676.436 330.667 736.979 321.694 767.626 308.983 811.725C298.018 854.081 293.532 897.183 295.526 941.034 297.519 980.899 297.519 1020.26 295.526 1059.13L333.657 855.077 334.404 852.087 358.33 762.393 382.256 677.931 386.742 667.467 405.433 642.053 424.874 617.386 387.49 701.85 365.807 762.393 356.088 793.786 338.143 849.097 333.657 865.542 314.218 996.346 302.255 1050.16 333.657 988.123 360.573 926.085 374.779 887.965C378.768 872.517 382.007 856.822 384.5 840.875L395.714 778.837 408.425 717.546 420.387 678.678 427.118 674.193C432.6 677.183 433.846 681.418 430.854 686.9 422.382 701.85 415.902 717.795 411.415 734.737L400.2 784.816 391.977 835.643 383.003 884.228 371.041 921.6 350.854 967.195 333.657 1005.31 320.199 1050.91 318.704 1059.88C300.76 1074.83 292.784 1094.52 294.778 1118.93L288.049 1110.7 288.049 1095.75 282.068 1129.39 272.347 1153.31 265.619 1166.02 252.161 1186.95 196.833 1382.03 218.515 1361.1 236.459 1339.43 241.693 1330.46 249.917 1302.05 278.329 1199.66 298.516 1141.35 291.788 1177.97 279.825 1211.61 278.329 1218.34 276.834 1241.51C275.837 1261.94 272.098 1282.12 265.619 1302.05 261.133 1317.01 254.155 1331.21 244.684 1344.66L214.777 1388.01 193.095 1417.91 188.608 1465 196.085 1465.75 215.524 1444.07 239.45 1407.45 259.638 1368.58C267.612 1351.13 273.843 1332.7 278.329 1313.27L290.292 1260.2 298.516 1226.57 308.236 1193.67 319.452 1160.79 318.704 1159.29 317.956 1158.55 314.218 1159.29 326.18 1132.38 325.433 1129.39 330.068 1081.21 354.79 1143.95 346.367 1182.46 321.694 1214.6C317.209 1221.58 314.466 1229.05 313.47 1237.03L311.974 1267.67C312.473 1281.62 311.227 1295.32 308.236 1308.78L297.021 1346.91 276.834 1399.23 273.095 1403.71M1371.58 968.444 1378.45 979.901C1407.36 1056.14 1417.98 1147.19 1397.54 1265.78L1399.35 1278.35C1403.83 1287.81 1408.71 1304.94 1409.21 1315.41 1411.21 1345.31 1408.02 1378.15 1406.02 1407.54 1403.53 1450.89 1395.7 1491.16 1377.76 1531.53L1296.66 1575.62 1240.59 1574.12 1220.5 1479.06 1177.78 1574.12 1169.56 1577.86 1168.06 1577.86 1144.43 1591.27C1144.43 1577.81 1149.12 1565.6 1152.11 1554.64 1155.6 1539.69 1157.84 1553.38 1150.87 1539.93L1148.82 1536.8 1130.68 1585.33C1120.21 1598.29 1106.75 1608.26 1090.31 1615.24L1045.44 1633.93 1025.21 1616.58C993.805 1626.54 969.679 1635.42 951.237 1662.33L941.517 1680.26 928.059 1684C929.055 1676.53 931.548 1669.05 935.536 1661.58 952.483 1628.69 976.16 1601.53 1006.57 1580.11L1034.98 1550.96 1037.97 1541.24C1038.96 1489.42 1037.72 1437.85 1034.23 1386.52L1015.54 1177.97 1002.08 1016.52C998.091 956.731 988.62 897.433 973.666 838.633 985.131 855.077 994.352 874.013 1001.33 895.439L1011.05 935.802 1013.29 955.984C1010.3 1063.12 1019.03 1170.5 1039.46 1278.14L1054.42 1173.5C1063.89 1106.22 1062.89 1039.7 1051.43 973.922 1044.45 936.549 1033.48 900.174 1018.53 864.794L1038.72 904.409 1055.16 941.034 1061.15 961.215C1072.11 1017.52 1075.85 1074.58 1072.36 1132.38L1081.33 1039.7 1092.55 909.641 1091.05 889.461 1085.82 864.047 1079.84 848.35C1065.88 827.919 1059.4 805.746 1060.4 781.827L1035.72 745.202C1028.75 733.243 1023.01 720.785 1018.53 707.829L1014.04 689.142C1011.05 668.214 1013.05 647.535 1020.02 627.103 1019.03 649.527 1020.77 671.453 1025.26 692.88 1030.74 721.78 1042.2 748.191 1059.65 772.11 1081.08 802.506 1098.28 834.149 1111.24 867.036L1126.94 914.874 1129.93 947.762C1128.44 968.191 1128.69 988.622 1130.68 1009.05 1163.58 910.389 1157.6 813.719 1112.74 719.041 1103.26 699.109 1091.55 681.418 1077.59 665.972L1010.3 600.197C1003.82 594.216 996.098 590.23 987.125 588.237L975.162 587.489 949.741 591.974 954.975 585.994 975.91 578.519 1002.83 589.731 1073.86 625.608 1066.38 612.155 1065.63 600.943 1066.38 588.983 1066.38 586.742 1059.65 565.065 1058.9 562.824 1066.38 537.41 1068.62 544.884 1069.37 554.601 1071.61 579.266C1072.61 588.734 1075.1 597.703 1079.09 606.175 1087.56 624.114 1097.78 641.305 1109.74 657.75L1110.49 661.486 1109.74 660.74C1129.18 690.138 1146.13 721.034 1160.59 753.423L1214.42 865.542 1239.84 914.874 1248.81 934.307C1259.78 958.723 1264.26 984.137 1262.27 1010.55L1260.03 1026.25 1261.52 1010.55 1254.05 1057.63 1239.84 1124.9 1225.63 1183.21 1218.16 1219.08 1215.17 1240.02C1214.67 1270.66 1214.17 1301.31 1213.67 1331.96 1225.14 1340.92 1234.36 1351.13 1241.34 1362.59L1259.28 1396.24 1262.27 1408.19 1266.01 1444.82 1267.5 1462.01 1280.96 1459.02 1289.19 1411.93C1290.68 1376.05 1288.94 1339.92 1283.95 1303.55L1279.47 1271.41C1274.48 1236.53 1271.49 1201.64 1270.49 1166.76 1269.5 1140.35 1269.75 1114.19 1271.24 1088.28L1268.25 1083.79 1267.5 1080.06 1269 1079.32 1271.99 1080.81 1274.23 1083.05 1274.23 1024C1273.24 1001.08 1273.73 978.407 1275.73 955.984 1275.73 952.994 1277.47 950.004 1280.96 947.014L1292.18 948.508 1262.27 794.533 1284.7 823.683 1231.62 598.701 1248.81 629.346C1270.25 674.193 1285.7 720.785 1295.17 769.121L1306.38 842.37 1309.37 878.996C1310.87 957.229 1319.09 1034.96 1334.05 1112.2L1328.07 1056.14 1323.58 988.123 1323.58 953.741 1325.07 926.085C1331.55 823.435 1323.83 721.034 1301.9 618.882L1292.18 580.762 1288.44 572.539C1274.48 550.614 1255.79 537.41 1232.36 532.925L1228.62 526.198 1209.93 517.975 1205.45 511.249C1196.97 508.259 1189 504.771 1181.52 500.785 1173.55 497.795 1166.07 493.808 1159.09 488.826 1143.14 479.358 1130.68 468.395 1121.71 455.937L1240.59 523.208C1253.55 525.201 1266.01 530.682 1277.97 539.652 1297.91 554.103 1311.12 572.041 1317.6 593.469L1341.52 688.395 1346.76 736.979 1340.78 948.508M1509 1457.52 1479.1 1494.89 1463.39 1514.33 1437.97 1538.25 1420.78 1545.72 1422.27 1352.13 1426.01 1362.59 1415.54 1280.38 1430.2 1244.61 1459.16 1272.06C1471.12 1283.02 1482.98 1294.93 1489.96 1309.38 1506.41 1345.75 1508.01 1386.02 1507.51 1425.39L1509 1457.52M863.759 745.202 848.805 741.465 853.292 719.788 800.206 724.273 798.711 712.313 742.636 719.788 750.86 684.659 661.887 687.647 608.803 709.324 601.325 707.082 602.821 684.659 521.323 724.273 516.089 695.87 483.193 707.082 470.481 700.354 515.342 645.042 525.062 636.073 532.54 636.821 560.951 619.63 568.428 621.872 611.792 610.661 631.98 624.861 614.783 665.972 622.26 693.627 644.691 678.678 655.906 656.255 662.634 667.467 714.972 677.931 767.309 656.255 772.542 657.75 757.589 708.576 777.029 701.85 803.945 662.233 800.954 650.275 804.693 646.538 806.188 643.548 807.683 636.821 818.898 640.558C833.852 651.521 840.83 664.476 839.834 679.425L855.535 706.334 863.759 745.202M406.929 854.33 406.929 870.774C406.68 877.252 406.431 883.73 406.181 890.208L404.687 913.379 402.443 958.226C401.945 976.164 399.204 994.352 394.219 1012.79L387.49 1026.25 377.022 1038.2 333.657 1079.32 345.217 1088.53 330.816 1074.58 333.657 1061.37 344.872 1045.68C352.349 1038.2 358.58 1029.73 363.564 1020.26L373.284 999.336 380.76 976.911 401.696 879.743 406.929 854.33M789.739 535.167 677.588 530.682 688.055 520.965 671.606 507.511 708.99 488.078 696.28 481.35 829.366 469.391 752.355 450.705 744.131 437.251 850.301 443.231 780.019 420.806 889.18 425.292 807.683 411.838 830.114 408.1 808.431 403.616 871.983 386.424 957.218 408.847 865.254 415.575 917.591 429.029 901.143 431.271 903.386 440.241 895.909 446.22 869.74 445.473 866.749 455.19 851.048 459.675 860.021 474.624 844.319 482.098 853.292 482.098 858.525 491.816 789.739 506.016 789.739 535.167M767.309 511.249 770.3 499.29 800.954 482.098 739.645 507.511 767.309 511.249M701.514 548.622 745.627 575.53 747.122 588.237 658.896 604.68 694.037 579.266 690.299 568.055 665.626 566.56 701.514 548.622M804.693 692.88C800.206 702.348 800.954 701.601 806.936 690.637L804.693 692.88M892.17 370.728 870.488 364 958.714 382.687C962.702 386.674 963.199 388.915 960.208 389.414L892.17 370.728M999.088 823.683 965.443 760.898 950.489 730.253C941.517 710.819 940.769 691.136 948.245 671.204 961.704 723.525 978.901 774.352 999.839 823.683L999.088 823.683M1191.24 906.652C1188.25 900.174 1187.5 893.696 1189 887.217L1173.3 849.097C1176.29 898.927 1170.06 949.256 1154.6 1000.08L1143.39 1034.46C1109.99 1126.15 1119.22 1210.12 1171.05 1286.36 1177.04 1238.02 1185.51 1197.66 1196.48 1165.27 1206.94 1132.38 1211.93 1111.2 1211.43 1101.74 1210.93 1092.27 1213.17 1079.57 1218.16 1063.62 1225.63 1008.3 1216.66 955.984 1191.24 906.652M1452.18 1308.78 1456.66 1379.79C1459.16 1409.69 1456.66 1443.07 1449.19 1479.94L1482.09 1455.28 1483.58 1430.61C1482.09 1390.25 1475.86 1350.64 1464.89 1311.77L1452.18 1308.78 1442.46 1305.8 1452.18 1308.78M1369.19 1139.86C1368.19 1097 1360.22 1056.89 1345.26 1019.51L1371.43 1217.59 1369.19 1139.86M1224.14 1096.5 1201.21 1173.13C1195.23 1190.58 1189.95 1202.6 1186.95 1223.52 1183.96 1243.96 1180.13 1241.43 1186.61 1257.38L1227.13 1097.25C1226.13 1094.27 1225.14 1094.02 1224.14 1096.5M1132.92 1263.19 1127.69 1241.51C1113.23 1175.73 1110.49 1109.21 1119.46 1041.94 1108.5 1064.86 1107.85 1088.78 1106.35 1113.69 1105.36 1137.61 1105.05 1161.54 1107.05 1185.45 1109.54 1214.85 1114.98 1240.77 1132.92 1263.19M1328.81 1492.65 1357.22 1478.46 1374.42 1466.49C1385.89 1454.53 1392.86 1440.08 1395.36 1423.14L1393.86 1418.66C1396.35 1393.74 1394.86 1369.08 1389.37 1344.66 1383.89 1321.73 1376.42 1299.56 1366.94 1278.14 1361.96 1267.18 1353.99 1256.71 1343.02 1246.74L1347.5 1225.82 1330.31 1194.42C1340.78 1289.6 1340.28 1385.03 1328.81 1480.69L1328.07 1492.65 1328.07 1494.15 1328.81 1492.65M1110.49 1317.01 1103.76 1277.39C1099.78 1248.99 1093.05 1221.83 1083.58 1195.92 1066.13 1306.04 1061.39 1416.66 1069.37 1527.79 1070.87 1548.21 1067.88 1567.9 1060.4 1586.83L1116.47 1553.2 1127.69 1484.43C1131.18 1460.51 1131.18 1437.35 1127.69 1414.92L1110.49 1317.01M1170.31 1555.44 1172.55 1556.19 1194.23 1411.93 1128.44 1263.19 1168.06 1508.35C1170.55 1523.8 1171.3 1539.5 1170.31 1555.44" fill="#DDDDDD" fill-rule="evenodd"/><path d="M1374.21 978.567C1388.67 992.853 1397.64 1023.73 1401.13 1049.68 1405.11 1081.13 1407.36 1112.82 1407.86 1144.76 1406.62 1162.97 1410.15 1177.2 1408.91 1195.41 1435.83 1207.39 1460.31 1224.32 1480.75 1247.77 1502.19 1273.23 1515.95 1309.84 1520.44 1343.28 1525.42 1382.71 1517.56 1418.99 1509.58 1456.92L1508.08 1424.73C1508.58 1385.31 1500.6 1347.38 1484.15 1310.95 1477.17 1296.47 1467.69 1283.75 1455.73 1272.77L1435.53 1254.05 1416.08 1279.5 1426.56 1361.85 1422.82 1351.37 1421.32 1545.25 1389.92 1563.22 1367.48 1564.72 1365.98 1546.75 1358.5 1556.48C1340.55 1583.93 1315.62 1600.4 1283.71 1605.89L1270.25 1603.65 1269.5 1593.17C1259.04 1607.14 1246.82 1618.62 1232.86 1627.6 1223.88 1633.09 1214.41 1634.34 1204.44 1631.34L1130.4 1625.36 1135.18 1627.14 1118.04 1628.55 1028.68 1649.31 1025.34 1639.08 962.121 1674.01 941.928 1680 951.65 1662.04C970.099 1635.09 995.029 1616.62 1026.44 1606.64L1045.88 1633.59 1090.76 1614.88C1107.21 1607.89 1120.68 1597.91 1131.15 1584.93L1146.1 1523.55 1151.33 1512.32C1158.31 1525.79 1160.06 1540.02 1156.57 1554.99 1153.58 1565.97 1149.69 1574.2 1149.69 1587.68L1168.53 1577.45 1170.03 1577.45 1178.26 1573.7 1231.36 1420.24 1241.09 1573.7 1297.17 1575.2 1372.71 1531.03C1390.66 1490.61 1400.88 1448.69 1403.37 1405.27 1405.36 1375.82 1405.36 1346.13 1403.37 1316.18 1402.87 1305.7 1400.38 1295.72 1395.89 1286.24L1386.92 1271.27C1407.36 1152.49 1403.12 1051.73 1374.21 975.378M767.671 509.196 740 505.453 801.326 480 770.663 497.219 767.671 509.196M1300.91 1053.43 1309.89 1047.44 1313.63 1345.38 1312.13 1345.38 1305.4 1334.9 1303.15 1323.67 1291.94 1244.32 1285.2 1166.47C1283.21 1128.04 1288.45 1090.36 1300.91 1053.43M1224.63 1095.35C1225.63 1092.85 1226.62 1093.1 1227.62 1096.1L1189.48 1278.01C1182.99 1262.04 1181.25 1243.82 1184.24 1223.36 1187.23 1202.4 1191.72 1183.18 1197.7 1165.72L1224.63 1095.35M1133.39 1262.29C1115.44 1239.83 1105.22 1213.88 1102.73 1184.43 1100.73 1160.48 1100.23 1136.52 1101.23 1112.57 1102.73 1087.61 1108.96 1063.66 1119.93 1040.7 1110.95 1108.07 1113.69 1174.7 1128.16 1240.58L1133.39 1262.29" fill="#AAAAAA" fill-rule="evenodd"/><path d="M273.37 1400.75 241.218 1441.15 149.246 1548.13C143.763 1554.11 140.024 1560.85 138.03 1568.33 133.045 1587.78 132.547 1607.23 136.535 1626.68L122.327 1639.4 94.661 1635.66C82.1993 1601.24 84.9406 1568.08 102.886 1536.16L155.228 1441.15 171.678 1405.99 141.02 1361.1C135.039 1349.63 131.051 1337.66 129.057 1325.19 126.067 1309.23 126.067 1293.27 129.057 1277.31 131.549 1261.85 136.535 1247.13 144.012 1233.17L179.155 1168.83 188.128 1151.63 198.597 1126.19C209.065 1078.81 211.059 1030.93 204.578 982.55 199.095 939.159 202.335 895.27 214.299 850.881L226.263 808.238 238.974 773.077 253.929 733.426C258.914 718.464 263.152 703.751 266.641 689.288L280.848 638.416 294.307 596.522C303.28 576.572 315.244 558.866 330.199 543.405 385.032 486.049 447.842 437.92 518.628 399.018L583.681 366.849 667.427 333.931 750.426 312.984C799.279 305.005 848.13 305.005 896.983 312.984 932.874 318.97 968.766 329.193 1004.66 343.657L1027.84 341.413 1118.31 352.635 1160.19 366.849C1190.6 379.816 1218.26 398.27 1243.19 422.209 1293.04 469.591 1333.91 522.956 1365.81 582.307 1386.25 620.71 1399.96 660.859 1406.94 702.754 1421.4 792.527 1414.17 881.305 1385.26 969.084 1423.64 1037.41 1435.6 1110.98 1421.15 1189.78 1446.07 1203.74 1467.26 1221.2 1484.7 1242.15 1502.65 1263.09 1515.36 1287.03 1522.84 1313.97 1535.3 1362.35 1535.05 1410.47 1522.09 1458.35 1519.6 1468.33 1513.87 1476.31 1504.89 1482.29 1498.91 1486.78 1494.42 1492.52 1491.43 1499.5 1482.96 1521.44 1468.01 1539.15 1446.57 1552.62L1442.08 1553.36 1428.62 1557.85 1388.25 1577.3 1360.58 1576.56C1346.12 1594.51 1328.68 1607.48 1308.24 1615.46L1265.62 1618.45 1238.7 1636.41 1220.75 1646.13 1130.28 1638.65 1042.04 1661.09 1018.87 1659.6 917.171 1697 897.73 1671.57 897.73 1670.82 888.01 1642.39C885.517 1633.91 887.262 1623.69 893.244 1611.72 912.187 1576.81 934.119 1543.14 959.044 1510.72L973.251 1486.78 982.225 1464.34C984.718 1452.87 983.97 1442.39 979.982 1432.92L947.082 1353.62C940.103 1336.16 937.858 1317.71 940.351 1298.26 951.817 1217.96 955.306 1136.91 950.819 1055.12 949.822 1032.18 947.082 1009.73 942.594 987.787 939.106 972.326 933.622 957.613 926.144 943.648 892.745 883.798 868.32 818.712 852.866 748.389L835.669 731.93 735.471 718.464 730.985 693.776 650.977 692.281 609.104 713.227 587.419 699.761 520.123 728.938 510.403 722.953 505.916 708.738 472.268 710.983 438.62 805.994 429.647 837.415 423.665 862.851 420.674 888.286 418.431 915.22 413.945 968.336 406.467 1005.74C403.476 1016.72 398.99 1027.44 393.008 1037.91 380.546 1059.36 364.345 1075.82 344.405 1087.29 354.874 1113.22 360.357 1140.4 360.855 1168.83L360.107 1186.79 324.216 1236.16C326.21 1253.12 326.459 1269.83 324.964 1286.29L323.468 1302 321.225 1316.96 316.739 1331.92 310.757 1344.64 295.803 1370.82 277.109 1396.26 297.297 1343.89 308.513 1305.74C311.505 1292.27 312.751 1278.56 312.252 1264.59L313.748 1233.92C314.744 1225.94 317.487 1218.46 321.973 1211.47L346.648 1179.31 351.883 1147.14 327.955 1083.55 327.207 1082.05 327.955 1081.3 333.936 1076.07 377.306 1034.92 387.774 1022.95 394.503 1009.48C399.489 991.029 402.23 972.824 402.729 954.87L404.972 909.982 406.467 886.792 407.214 867.339 407.214 850.881 464.791 706.494 466.286 703.502 469.277 696.02 470.772 696.769 483.484 703.502 516.384 692.281 521.619 720.708 603.122 681.059 601.626 703.502 609.104 705.747 662.193 684.051 751.174 681.059 742.948 716.22 799.029 708.738 800.524 720.708 853.614 716.22 849.127 737.915 864.082 741.656 865.578 743.152 911.191 869.584C919.664 892.028 929.635 913.972 941.099 935.419 960.041 971.827 969.264 1010.98 968.766 1052.87L967.27 1149.38C965.774 1182.8 961.786 1216.21 955.306 1249.63 948.328 1283.04 950.322 1315.96 961.287 1348.38 969.264 1370.82 979.234 1392.52 991.198 1413.47 1000.17 1428.93 1002.41 1446.13 997.927 1465.09L987.459 1490.52 917.171 1593.76C907.201 1607.73 903.213 1623.19 905.207 1640.15 907.201 1659.1 914.927 1672.81 928.387 1681.29L941.847 1677.55 962.035 1671.57 1030.83 1632.66 1028.59 1646.88 1124.3 1622.94 1130.28 1622.94 1204.3 1628.92C1214.27 1631.92 1223.75 1630.67 1232.72 1625.18 1246.67 1616.21 1258.89 1604.73 1269.36 1590.77L1270.1 1601.24 1283.56 1603.49C1315.47 1598 1340.39 1581.54 1358.34 1554.11L1365.81 1544.39 1367.31 1562.34 1389.74 1560.85 1421.15 1542.89 1438.35 1535.41 1463.77 1511.47 1479.47 1492.02 1509.38 1454.61C1517.36 1416.71 1518.85 1378.06 1513.87 1338.65 1509.38 1305.24 1496.42 1275.81 1474.98 1250.38 1454.55 1226.94 1430.87 1209.23 1403.95 1197.26L1407.69 1142.65C1407.19 1110.73 1404.95 1079.06 1400.96 1047.64 1397.47 1021.7 1388.5 998.009 1374.04 976.566L1369.55 969.084C1380.02 938.162 1388 906.243 1393.48 873.326 1413.92 756.12 1392.98 648.64 1330.67 550.886 1268.36 452.634 1204.05 393.282 1137.76 372.834L1118.31 366.849C1062.48 350.889 1024.85 348.395 1005.41 359.367 883.772 305.504 755.411 307.997 620.32 366.849L591.158 380.315 527.6 413.233 512.646 421.462C410.954 478.818 343.907 535.924 311.505 592.781L309.261 596.522 293.559 649.638 286.081 682.554C282.093 700.509 276.61 718.215 269.632 735.671L251.686 778.314 239.722 808.238C224.767 846.642 217.041 886.792 216.542 928.686L215.046 1069.33 212.803 1126.19 203.083 1156.86 182.894 1195.76 158.219 1238.41C151.24 1251.87 146.504 1266.09 144.012 1281.05 141.52 1294.02 141.768 1307.23 144.76 1320.7 148.249 1334.17 153.732 1347.13 161.21 1359.6L181.398 1391.02 186.633 1400 180.651 1430.67 175.416 1438.9 173.922 1441.15 159.714 1461.35C139.775 1491.77 122.825 1523.44 108.868 1556.36 99.8956 1578.3 98.6484 1600.49 105.129 1622.94L120.832 1624.43 127.561 1614.71C121.58 1587.28 126.814 1563.59 143.264 1543.64L158.219 1527.93 167.192 1518.2 273.37 1400.75" fill="#888888" fill-rule="evenodd"/><path d="M890.478 528 898.702 541.501 844.87 567.751 805.991 567.751C814.963 564.25 823.188 559.751 830.664 554.251L856.085 530.251 890.478 528M921.132 462 935.338 474.75 933.843 492 897.955 483 921.132 462M998.892 417.75 994.405 431.25 935.338 435.75 951.04 424.5 998.892 417.75M1043 378.749 1043 393 1010.11 393 1010.11 378.749 1043 378.749M664.68 373.5 667.67 378.749 571.967 398.25 635.52 382.5 610.099 376.499 683.371 369 681.128 370.5 664.68 373.5M530.845 411.75 670.661 395.25 572.715 413.249 573.462 420.75 515.892 444.75 570.471 413.249 515.892 420 530.845 411.75M601.126 437.251 584.677 450.75 492.714 489.75 557.761 483.75 473.273 520.501 516.639 517.5 475.517 551.25 503.181 556.501 481.499 585 484.489 568.501 441.123 561 484.489 531.751 400 542.25C433.397 528.25 466.793 514.001 500.19 499.5L417.945 505.5 491.218 474 459.068 477 601.126 437.251" fill="#FFFFFF" fill-rule="evenodd" fill-opacity="0.501961"/></g></svg>