<svg width="1761" height="1761" xmlns="http://www.w3.org/2000/svg" xmlns:xlink="http://www.w3.org/1999/xlink" overflow="hidden"><defs><clipPath id="clip0"><rect x="0" y="0" width="1761" height="1761"/></clipPath></defs><g clip-path="url(#clip0)"><path d="M1130.21 1475.06 1111.71 1483.71 1086.55 1494.81 1069.85 1501.79 1086.55 1494.81 1111.71 1483.71ZM933.36 1466.22 931.874 1468.18 926.066 1470.62 931.874 1468.18 933.361 1466.22ZM1224.94 1443.03 1207.92 1473.36 1187.2 1505.16 1187.2 1505.16 1207.92 1473.36ZM1087.28 1405.68 1086.55 1406.05 1042.99 1423.01 1086.55 1406.05ZM1122.81 1388.29 1119.11 1398.65 1070.78 1473.3 1119.11 1398.65ZM1187.2 1383.12 1193.12 1396.43 1193.12 1396.43ZM1111.78 1366.3 1088.03 1405.31 1088.03 1405.31 1111.78 1366.3ZM937.054 1326.9 931.874 1332.08 903.011 1345.39 931.874 1332.08 934.546 1330.97 931.874 1332.08 937.054 1326.9 940.754 1328.38 940.755 1328.38ZM1090.27 1303.85 1085.07 1305.45 1085.07 1305.45ZM987.417 1300.06 961.477 1318.77 961.477 1318.77ZM1016.16 1139.53 987.38 1172.31 987.38 1172.31ZM1019.2 1136.07 1019.2 1136.07 1011.88 1152.74ZM1134.65 1066.54C1130.71 1140.01 1114.67 1211.51 1086.55 1281.04L1055.47 1347.61 1062.13 1349.83 1055.47 1347.61 1086.55 1281.04C1114.67 1211.51 1130.71 1140.01 1134.65 1066.54ZM1135.92 1003 1135.39 1009.58 1135.39 1009.58ZM1142.4 989.489 1141.32 999.965 1137.16 1021.32 1141.32 999.965 1142.4 989.49ZM1135.21 981.964 1135.39 995.527 1135.39 995.527ZM1075.14 936.503 1075.45 948.927 1074.73 973.323 1075.45 948.927 1075.14 936.503ZM1052.86 921.441 1061.39 989.609 1061.39 989.609 1052.86 921.441ZM304.266 915.468 277.647 938.572 277.647 938.572ZM311.69 906.026 305.769 914.163 305.77 914.162 307.99 912.683ZM292.092 900.606 290.968 905.286 288.046 912.589 290.968 905.286ZM322.917 897.706 322.916 897.706 318.352 903.806 318.351 903.807 318.351 903.807 318.352 903.806 318.352 903.806ZM386.305 877.357 336.853 925.997 336.853 925.997ZM531.493 860.135 532.233 864.939 533.713 869.49ZM1483.97 849.811 1504.58 930.53 1504.58 930.533 1483.97 849.812ZM479.091 849.408 479.688 853.325C483.141 872.679 487.088 891.973 491.529 911.204L498.189 939.311 498.19 939.311 491.529 911.204C487.088 891.973 483.141 872.679 479.688 853.324ZM798.66 838.716 835.664 906.766 798.661 838.716ZM448.252 836.394 430.102 910.464 429.834 916.91 430.102 910.464ZM937.587 835.677 937.587 835.678 959.997 890.493 960.737 891.972 964.437 912.683 964.437 912.683 960.737 891.972 960.737 890.493 959.997 890.493ZM945.195 826.141 962.217 857.208C976.525 887.288 985.899 919.34 990.34 953.366L992.617 973.469 994.78 992.568 994.78 992.568 992.617 973.469 990.34 953.365C985.899 919.34 976.525 887.288 962.217 857.208L945.196 826.141ZM739.454 821.703 739.454 821.703 760.176 858.687ZM677.362 811.407 697.085 843.339C708.309 859.735 720.212 875.453 732.793 890.493L746.855 908.245 746.855 908.245 732.794 890.493C720.212 875.453 708.309 859.735 697.085 843.339L677.362 811.407ZM605.109 810.999 606.24 823.922 606.673 826.084 606.817 826.805 606.817 826.804 606.673 826.084 606.241 823.922 605.109 810.999ZM884.509 800.993 890.705 811.829 890.705 811.829 884.509 800.993ZM636.408 799.915 672.847 913.423 660.038 901.034 672.847 913.423 672.847 913.423 636.408 799.915ZM780.986 798.066 825.303 901.588 823.823 904.547 825.303 901.588ZM1475.09 774.364 1465.47 792.856 1479.37 835.648 1465.47 792.856ZM778.384 743.596 778.384 743.597 784.599 758.091 784.599 758.092 818.642 789.158 819.382 781.761 851.206 794.335 851.206 794.335 819.382 781.76 818.642 789.157 784.599 758.091ZM363.625 660.302 351.839 695.958 349.186 709.486 349.186 709.486 351.839 695.958ZM355.701 658.945 342.334 704.186 355.701 658.945ZM355.385 658.89 346.499 684.052 346.474 684.123 355.385 658.89ZM1110.23 377.897 1103.43 381.476 1110.23 377.898 1129.47 384.555 1129.47 384.552ZM1054.32 360.046 1066.99 362.896 1062.27 361.394ZM1009.76 353.188 1022.52 354.651 1014.58 353.303ZM899.311 296.533C875.011 296.163 850.928 296.996 827.061 299.029L798.716 302.908 798.717 302.908 827.061 299.03C850.928 296.996 875.011 296.164 899.311 296.533 970.851 299.985 1040.66 313.053 1108.75 335.736 1207.43 369.761 1289.82 427.949 1355.94 510.299 1413.17 582.295 1456.83 662.18 1486.93 749.955L1506.47 852.917 1486.93 749.954C1456.83 662.179 1413.17 582.294 1355.94 510.299 1289.82 427.949 1207.43 369.761 1108.75 335.736 1040.66 313.053 970.851 299.985 899.311 296.533ZM891.17 281 995.52 287.657 1038.44 295.793C1082.36 307.628 1124.54 322.668 1165 340.913 1200.03 357.187 1234.07 377.897 1267.13 403.046L1293.77 423.018 1331.51 457.782 1381.1 515.477 1424.02 576.131 1446.23 612.375C1460.04 636.537 1472.13 661.686 1482.49 687.822 1501.24 735.654 1513.57 785.705 1519.49 837.976L1520.23 889.753 1509.87 894.191 1515.79 915.642 1525.41 954.105 1548.36 1048.78 1566.86 1160.47 1575 1227.79 1526.89 1147.16 1518.01 1267.73 1504.69 1270.69 1498.03 1266.25 1487.67 1224.09 1436.61 1342.43 1420.32 1315.81C1407.99 1338 1392.45 1358.95 1373.7 1378.68L1335.96 1411.22 1327.81 1399.39 1321.15 1409.01C1309.81 1427.25 1296.24 1443.77 1280.45 1458.56 1258.25 1478.29 1238.51 1493.33 1221.24 1503.68 1203.48 1514.04 1191.39 1518.97 1184.98 1518.48 1178.07 1517.98 1175.36 1515.03 1176.84 1509.6 1177.83 1503.68 1183.01 1493.58 1192.38 1479.28L1230.86 1420.84 1219.76 1431.2 1197.56 1450.43C1175.36 1470.15 1150.2 1486.67 1122.07 1499.99L1086.55 1515.52 1082.11 1517 1048.81 1526.61C1027.59 1531.55 1021.18 1528.83 1029.56 1518.48L1052.51 1482.97 1080.63 1442.29 1086.55 1433.41 1100.61 1410.49 1093.95 1414.18 1086.55 1418.62C1047.57 1439.33 1013.28 1454.62 983.679 1464.48L922.993 1481.49 906.711 1480.75 910.412 1473.36 931.874 1436.37 958.517 1385.34C967.891 1365.61 975.045 1344.16 979.979 1320.98L954.076 1335.78 921.513 1347.61 889.69 1354.27C895.61 1341.45 902.764 1330.6 911.152 1321.72L939.275 1284.74 961.477 1249.24 979.979 1215.21 994.04 1178.97C970.851 1207.57 940.508 1221.13 903.011 1219.65L900.791 1219.65 898.57 1218.91 897.83 1216.69 904.344 1208.55 903.751 1208.55 905.58 1207.01 906.711 1205.59 925.953 1180.45 948.156 1145.68C956.05 1131.87 964.191 1110.42 972.578 1081.33L976.278 1066.54 979.239 1038.43 979.979 1013.28 978.499 984.432 975.539 963.721 968.138 941.531 959.257 928.216 945.935 910.464 925.213 890.493 914.112 881.617 900.051 874.22 885.249 869.042 903.751 916.382C907.698 923.778 904.738 926.49 894.87 924.518L883.029 919.34 870.447 912.683 848.245 897.15C848.245 906.519 843.805 915.889 834.924 925.257L834.184 925.257C809.021 912.437 787.806 893.945 770.537 869.782L760.916 869.782 723.172 859.426 760.176 903.067C762.15 913.916 759.436 920.819 752.036 923.778L740.934 922.299C717.252 906.519 694.803 889.26 673.587 870.521L688.389 919.34 679.508 929.696 612.901 934.134 609.201 945.229 586.258 954.105 567.756 942.27 554.435 951.886 515.951 927.477 506.33 954.845 493.009 961.502 458.965 938.572 457.485 938.572 453.785 941.531C445.397 946.955 436.516 948.188 427.142 945.229 416.781 940.298 409.874 933.394 406.42 924.518L413.821 860.166 394.579 875.699C374.843 892.465 359.055 913.176 347.214 937.832L331.672 940.791 325.751 937.832 322.051 924.518 293.188 947.448C288.255 951.393 282.334 953.119 275.426 952.626L265.805 937.092 274.686 913.423C282.087 892.712 283.814 870.275 279.867 846.112L257.665 849.811 248.044 793.595 227.321 804.69 214 795.814 228.802 754.392 261.365 678.946 283.568 633.825 296.889 607.937 339.813 529.531 319.831 539.147 293.928 523.613 292.448 502.163 298.369 496.246 500.41 379.377C557.149 353.242 614.875 331.051 673.587 312.806 724.406 296.04 776.705 286.177 830.484 283.219Z" fill="#FFFFFF" fill-rule="evenodd"/><path d="M1330.71 457.798 1380.26 515.493 1423.15 576.146 1445.34 612.391C1459.14 636.553 1471.22 661.702 1481.58 687.837 1500.31 735.67 1512.64 785.721 1518.55 837.992L1519.29 889.769 1508.94 894.207 1514.85 915.658 1524.47 954.121 1547.39 1048.8 1565.88 1160.49 1574.02 1227.8 1525.95 1147.18 1517.07 1267.74 1503.76 1270.7 1497.11 1266.26 1486.75 1224.1 1435.72 1342.45 1419.45 1315.82C1407.13 1338.01 1391.6 1358.97 1372.86 1378.69L1335.15 1411.24 1327.01 1399.41 1320.36 1409.02C1309.02 1427.27 1295.46 1443.79 1279.68 1458.58 1257.5 1478.3 1237.78 1493.34 1220.52 1503.7 1202.77 1514.06 1190.69 1518.99 1184.28 1518.49 1177.38 1518 1174.67 1515.04 1176.15 1509.62 1177.13 1503.7 1182.31 1493.59 1191.68 1479.29L1230.13 1420.86 1219.04 1431.21 1196.86 1450.44C1174.67 1470.17 1149.52 1486.69 1121.42 1500L1085.93 1515.53 1081.49 1517.01 1048.21 1526.63C1027.01 1531.56 1020.6 1528.85 1028.98 1518.49L1051.91 1482.99 1080.01 1442.31 1085.93 1433.43 1099.98 1410.5 1093.32 1414.2 1085.93 1418.64C1046.98 1439.35 1012.71 1454.64 983.13 1464.5L922.488 1481.51 906.219 1480.77 909.916 1473.37 931.363 1436.39 957.986 1385.35C967.353 1365.63 974.502 1344.18 979.433 1321L953.549 1335.79 921.009 1347.63 889.21 1354.29C895.126 1341.46 902.275 1330.62 910.656 1321.74L938.758 1284.76 960.944 1249.25 979.433 1215.23 993.484 1178.98C970.311 1207.58 939.991 1221.14 902.521 1219.66L900.303 1219.66 898.084 1218.92 897.344 1216.71 906.219 1205.61 925.447 1180.46 947.633 1145.7C955.521 1131.89 963.656 1110.44 972.037 1081.34L975.735 1066.55 978.693 1038.44 979.433 1013.3 977.954 984.448 974.995 963.737 967.6 941.547 958.725 928.232 945.414 910.48 924.707 890.509 913.614 881.632 899.563 874.236 884.772 869.058 903.261 916.397C907.205 923.794 904.247 926.506 894.386 924.534L882.554 919.356 869.982 912.699 847.796 897.166C847.796 906.535 843.358 915.904 834.484 925.273L833.745 925.273C808.6 912.453 787.401 893.961 770.145 869.798L760.531 869.798 722.815 859.442 759.791 903.083C761.763 913.932 759.052 920.835 751.657 923.794L740.564 922.315C716.899 906.535 694.466 889.276 673.266 870.537L688.057 919.356 679.182 929.712 612.624 934.15 608.927 945.245 586.001 954.121 567.513 942.286 554.201 951.902 515.746 927.493 506.132 954.86 492.82 961.517 458.802 938.588 457.323 938.588 453.625 941.547C445.244 946.97 436.369 948.203 427.002 945.245 416.648 940.313 409.746 933.41 406.295 924.534L413.69 860.182 394.462 875.715C374.741 892.481 358.965 913.192 347.132 937.848L331.602 940.807 325.686 937.848 321.988 924.534 293.147 947.464C288.216 951.409 282.3 953.135 275.397 952.642L265.784 937.108 274.658 913.439C282.053 892.728 283.779 870.291 279.835 846.128L257.649 849.827 248.035 793.611 227.328 804.706 214.016 795.83 228.807 754.408 261.346 678.962 283.533 633.841 296.844 607.952 339.737 529.547 319.77 539.163 293.886 523.629 292.407 502.179 298.323 496.262 500.215 379.393C556.913 353.257 614.597 331.067 673.266 312.822 724.047 296.056 776.308 286.193 830.047 283.235L890.689 281.016 994.962 287.673 1037.86 295.809C1081.73 307.644 1123.89 322.684 1164.32 340.929 1199.32 357.202 1233.34 377.913 1266.37 403.062L1292.99 423.034 1330.71 457.798M1523.73 1130.9 1535.56 1130.16 1558.49 1176.76C1538.27 1066.3 1513.13 957.326 1483.05 849.827L1510.42 878.674 1486.01 749.97C1455.94 662.195 1412.31 582.31 1355.11 510.315 1289.05 427.965 1206.72 369.777 1108.11 335.752 1040.07 313.068 970.311 300.001 898.823 296.549 801.698 295.07 708.024 312.822 617.801 349.806 509.336 392.707 405.555 445.47 306.458 508.096L307.198 514.753 320.509 523.629 341.216 510.315 391.504 477.03 378.932 497.001 377.453 499.22 230.286 783.995 229.547 786.214 228.068 789.173 261.346 764.024 265.784 835.773 273.918 832.074 285.011 725.561 286.49 737.396 295.365 885.331 295.365 886.81 290.928 905.302 277.616 938.588 305.719 914.178 307.937 912.699 310.895 909.74 318.291 903.823 344.914 878.674 343.435 888.29 336.779 926.013 429.96 834.293 424.043 923.055 429.22 928.232 445.49 928.972 456.583 903.083 463.978 906.042C471.867 922.315 483.206 933.41 497.997 939.327L497.997 891.248 517.964 907.521 557.899 931.93 563.815 920.835 588.22 938.588 598.573 933.41 597.094 920.096 630.373 918.616 638.508 917.876 651.08 907.521 659.954 917.137 672.526 913.439 628.155 775.119 648.861 803.967 657.736 816.541C682.387 849.087 708.517 880.153 736.126 909.74L746.48 908.261 732.429 890.509C707.284 860.428 684.852 827.636 665.131 792.132L708.763 843.17 759.791 858.703 739.085 821.719 744.261 818.76 823.391 904.562 829.307 910.48 835.224 906.781 798.247 838.731 854.452 891.248 894.386 914.178C876.145 874.236 851.74 837.992 821.172 805.446L847.056 823.938 860.368 833.554 895.865 857.963 925.447 873.496 963.902 912.699 960.205 891.988 960.205 890.509 960.944 883.112 994.223 992.584 994.223 997.022C994.716 1015.76 992.744 1038.94 988.307 1066.55L988.307 1067.29 987.567 1068.77 983.13 1088.74 981.651 1095.4 960.944 1146.44C951.084 1165.18 931.856 1185.89 903.261 1208.57 933.828 1212.51 961.684 1200.43 986.828 1172.33L1005.32 1166.41C1007.78 1166.41 1008.77 1168.13 1008.27 1171.59L1003.84 1193.04 996.442 1210.79 957.986 1277.36 902.521 1345.41 931.363 1332.1 940.237 1328.4 960.944 1318.78 991.265 1304.73C982.39 1367.35 957.739 1423.81 917.312 1474.11L931.363 1468.2 972.037 1450.44 1085.93 1406.06 1087.4 1405.32 1122.16 1388.31 1118.46 1398.67 1045.25 1511.84 1085.93 1494.82 1111.07 1483.73C1141.14 1472.39 1169 1456.61 1194.64 1436.39L1232.35 1399.41 1246.4 1399.41 1238.27 1414.94 1224.22 1443.05 1207.21 1473.37 1186.5 1505.18 1238.27 1471.89 1320.36 1385.35 1332.93 1380.91 1343.28 1392.01 1364.73 1371.3 1417.98 1298.81 1429.81 1299.55 1435.72 1309.9 1455.69 1264.78 1480.84 1207.09 1491.93 1211.53 1506.72 1256.65 1523.73 1130.9" fill="#888888" fill-rule="evenodd"/><path d="M1429.89 767.371 1467.64 840.62 1460.24 851.718 1463.2 860.597C1425.7 803.872 1390.67 744.681 1358.11 683.024 1326.04 621.366 1287.07 563.655 1241.19 509.889L1275.97 548.364C1333.2 617.913 1384.51 690.669 1429.89 766.631L1429.15 767.371 1429.89 767.371M1435.81 858.377 1298.91 705.96 1301.13 761.452 1149.42 660.827 1183.47 689.682 1194.57 699.301 1236.01 738.515C1262.16 767.124 1285.34 798.693 1305.57 833.221L1292.99 816.944 1277.45 825.822 1208.63 766.631 1281.89 808.065 1151.64 706.7 1159.78 703.001 1147.2 687.463 1153.86 675.625C1121.3 655.401 1090.72 632.958 1062.1 608.295 1025.1 576.726 991.06 541.951 959.978 503.97 931.857 469.442 914.097 429.982 906.697 385.588 974.285 401.866 1039.16 425.789 1101.32 457.358 1161.02 486.953 1212.33 527.4 1255.25 578.699 1278.93 607.308 1298.66 638.63 1314.45 672.665L1200.49 602.375 1398.07 766.631 1435.81 858.377M1399.55 767.371 1425.45 808.804C1454.07 854.678 1477.26 903.51 1495.02 955.302L1462.46 899.811C1446.67 859.364 1428.17 819.903 1406.95 781.429L1399.55 767.371M311.716 906.47 310.976 910.169 308.016 913.129 311.716 906.47M424.2 923.487 430.12 910.909 429.38 928.667 424.2 923.487M465.642 765.891 487.842 699.301C496.723 676.611 507.823 654.908 521.143 634.191L538.164 609.035 546.304 595.717 537.424 608.295 518.923 634.191 501.163 659.347 555.185 514.329 512.263 608.295 500.423 634.191 486.362 665.266C477.482 685.49 467.862 705.22 457.501 724.457 442.207 753.559 423.213 780.442 400.519 805.105L438.261 643.069 434.561 634.191 506.343 486.213 623.267 427.762 571.465 445.519 475.262 481.034 525.584 441.82 526.324 441.08 527.804 439.6 529.284 437.381 531.504 435.901 530.764 432.941 543.344 426.282 648.428 381.149C703.19 359.446 759.432 344.401 817.153 336.016L828.994 347.114 798.653 357.473 796.433 363.392C749.071 392 703.436 423.569 659.528 458.097L617.347 500.271 593.666 531.346 621.047 502.491 662.488 464.756 692.829 437.381 678.029 453.658C715.03 428.008 758.198 406.552 807.533 389.288L796.433 480.294 789.773 418.143 781.632 452.178 771.272 450.698 762.391 481.034C750.058 523.454 743.398 565.875 742.411 608.295L742.411 634.191C743.398 663.293 747.098 692.642 753.511 722.238L761.652 753.313 746.111 748.134 729.831 714.839 723.17 705.96 715.03 704.48 705.41 705.96 709.85 730.376 702.45 743.694 690.609 720.018 698.009 775.51C694.062 757.259 684.936 743.201 670.629 733.336L655.088 722.977 658.788 745.914 661.008 761.452 653.608 744.434 651.388 743.694 646.208 742.954 643.988 744.434C639.547 753.806 639.301 764.411 643.247 776.25L658.048 816.944 649.168 804.365 618.087 733.336 601.066 738.515C603.039 703.494 609.453 668.719 620.307 634.191L621.787 629.011 629.187 608.295C650.895 552.556 681.236 502.737 720.21 458.837 701.463 472.155 686.169 488.679 674.329 508.41L645.468 561.682 625.487 608.295 616.607 634.191C604.273 674.145 596.626 715.085 593.666 757.012L594.406 800.666 588.486 788.088C580.592 770.33 568.012 757.752 550.744 750.353L550.005 754.793 550.744 763.672 549.264 768.851 546.304 771.07 541.124 773.29 535.204 767.371 550.744 812.504 518.923 768.851 515.223 798.446 513.743 797.706C507.33 791.787 502.89 792.773 500.423 800.666L498.943 805.105 483.402 793.267 480.442 782.909 470.822 795.487 466.382 785.128 465.642 765.891M761.652 708.919 756.472 634.191 757.211 608.295C758.691 557.982 765.845 508.41 778.672 459.577L785.332 463.276C787.306 512.603 793.719 560.942 804.573 608.295L811.233 634.191 829.734 695.602 803.093 686.723 798.653 688.943 835.654 717.058 851.195 794.747 819.374 782.168 818.633 789.568 784.593 758.492 762.391 706.7 761.652 708.919M847.495 824.342 842.315 818.423 860.815 833.961 847.495 824.342M1069.5 890.192 1071.72 887.233C1074.19 879.834 1077.4 873.175 1081.34 867.256L1085.04 867.256 1117.6 871.695 1124.26 904.99 1127.96 924.227 1130.18 956.782 1130.18 999.696 1130.92 1052.97 1128.7 1067.03 1121.3 1099.58C1112.92 1131.15 1101.32 1160.5 1086.52 1187.63 1057.42 1240.9 1015.73 1284.8 961.458 1319.33L940.737 1328.95 937.038 1327.47 931.857 1332.65 902.996 1345.96 958.498 1277.89 996.979 1211.3 1004.38 1193.55 1008.82 1172.09C1009.31 1168.64 1008.33 1166.91 1005.86 1166.91L1019.18 1136.58 987.359 1172.83C962.198 1200.95 934.324 1213.03 903.737 1209.08 932.351 1186.39 951.591 1165.68 961.458 1146.93L982.179 1095.88 983.659 1089.22 988.099 1069.25 988.839 1067.77 988.839 1067.03C993.279 1039.4 995.253 1016.22 994.76 997.476L994.76 993.037 990.319 953.823C985.879 919.788 976.506 887.726 962.198 857.637L965.898 850.978 1012.52 860.597 1026.58 923.487C1036.94 970.347 1041.87 1018.19 1041.38 1067.03L1040.64 1077.38 1061.36 990.077 1074.68 974.54 1075.42 949.383C1076.41 929.653 1074.44 909.923 1069.5 890.192M1109.46 376.71 1129.44 384.848 1110.2 378.189 1096.14 385.588 917.797 358.212C982.919 345.881 1046.81 352.047 1109.46 376.71M1045.82 659.347 1043.6 660.087 1071.72 691.902 1045.82 659.347M1073.94 678.584 1086.52 688.203C1118.1 711.879 1146.71 737.775 1172.37 765.891L1183.47 780.689C1192.35 794.993 1197.03 811.024 1197.53 828.781L1183.47 825.082 1086.52 799.926 1067.28 794.007C987.853 771.81 915.083 734.816 848.975 683.024L843.794 634.191 840.834 608.295C833.434 529.373 830.227 450.945 831.214 373.01L843.794 375.97 843.794 395.207 857.115 399.646 865.255 389.288 882.276 432.201C911.877 501.258 953.318 559.955 1006.6 608.295L1037.68 634.191 1086.52 667.486 1088 668.226 1073.94 678.584M1151.64 886.493 1154.6 887.973C1167.93 947.164 1171.13 1006.85 1164.23 1067.03L1152.39 1130.66 1151.64 1098.84 1094.66 1303.05 1085.04 1306.01 1069.5 1345.22 1062.1 1350.4 1055.44 1348.18 1086.52 1281.59C1114.64 1212.04 1130.68 1140.52 1134.62 1067.03L1136.1 1032.99 1136.1 1027.07 1141.28 1000.44 1143.5 978.979 1140.54 935.325 1130.18 875.395 1151.64 886.493M1175.33 860.597 1169.41 865.776 1170.89 915.349 1153.12 847.279 1175.33 860.597M1192.35 873.175 1204.19 900.551C1230.33 956.782 1240.45 1015.97 1234.53 1078.12 1231.57 1120.05 1222.44 1160.74 1207.15 1200.21L1200.49 1199.47 1195.31 1190.59 1184.21 1237.94C1200.98 1116.6 1203.69 995.01 1192.35 873.175M1269.31 969.36C1278.68 995.01 1285.59 1022.88 1290.03 1052.97 1295.95 1096.87 1295.95 1140.27 1290.03 1183.19 1282.63 1239.91 1263.64 1293.43 1233.05 1343.74L1247.11 1271.98 1193.09 1397.02 1187.17 1383.7C1216.77 1329.93 1238.23 1272.71 1251.55 1212.04 1270.79 1122.76 1272.76 1032.74 1257.47 941.985L1269.31 969.36M1284.11 1152.85 1248.59 1303.79 1279.67 1192.07 1284.11 1152.85M1135.36 1010.05 1135.36 995.996 1134.62 940.505C1139.06 963.688 1139.31 986.871 1135.36 1010.05M813.453 373.01 820.113 371.53 813.453 387.808 813.453 373.01M426.42 532.826 425.68 534.306 504.123 486.953C480.935 522.468 461.941 559.955 447.141 599.416L444.181 608.295 433.82 634.191C405.206 702.754 369.685 767.371 327.257 828.042L339.097 761.452C345.018 717.058 356.118 674.638 372.398 634.191L383.499 608.295C395.339 582.152 409.646 556.996 426.42 532.826M497.463 683.763C494.009 691.162 492.529 699.301 493.022 708.18L495.983 714.099C508.81 686.97 514.977 669.212 514.483 660.827L518.923 643.809 497.463 683.763M450.101 465.496 436.041 486.213 474.522 458.097C433.081 503.477 400.026 553.543 375.359 608.295L364.258 634.191 346.498 684.503 358.338 650.468 325.777 760.712 333.177 718.538C337.124 688.943 343.538 660.827 352.418 634.191L361.298 608.295C381.525 555.516 411.126 507.916 450.101 465.496M542.604 791.787 537.424 775.51 535.204 776.989 534.464 778.469 533.724 784.388 533.724 786.608 542.604 791.787M830.474 634.191 824.554 608.295C811.727 548.61 808.026 487.693 813.453 425.542L843.054 675.625 833.434 646.029 830.474 634.191M606.986 828.042 606.246 824.342 601.066 765.151 605.506 795.487 618.087 850.238 601.066 815.464 606.986 828.042M823.814 904.99 825.294 902.031 829.734 910.909 823.814 904.99" fill="#FFFFFF" fill-rule="evenodd"/><path d="M1429.52 766.038C1384.13 690.059 1332.83 617.286 1275.6 547.721L1240.83 509.238C1286.7 563.015 1325.68 620.74 1357.74 682.411 1390.3 744.083 1425.33 803.287 1462.82 860.025L1459.86 851.144 1467.26 840.044 1429.52 766.778 1429.52 766.038M880.457 346.425 879.717 336.805 857.517 359.746 839.758 353.826 859.737 364.186 901.176 351.606 880.457 346.425M1397.7 766.038 1200.13 601.745 1314.08 672.051C1298.3 638.008 1278.56 606.679 1254.89 578.063 1211.97 526.753 1160.66 486.296 1100.97 456.694 1038.81 425.118 973.941 401.19 906.356 384.908 913.756 429.312 931.515 468.781 959.634 503.317 990.713 541.307 1024.75 576.09 1061.75 607.666 1090.36 632.334 1120.95 654.782 1153.51 675.011L1146.85 686.852 1159.43 702.393 1151.29 706.093 1281.52 807.481 1208.27 766.038 1277.08 825.243 1292.62 816.362 1305.2 832.643C1284.98 798.107 1261.79 766.531 1235.65 737.916L1194.21 698.693 1183.11 689.072 1149.07 660.209 1300.76 760.858 1298.54 705.353 1435.44 857.805 1456.9 929.591C1482.55 1021.85 1494.39 1115.84 1492.42 1211.55L1481.32 1207.11 1456.16 1264.84 1455.42 1223.39C1454.93 1099.06 1427.3 982.381 1372.54 873.346L1418.42 1016.92C1450.49 1111.64 1450.49 1205.63 1418.42 1298.88L1365.14 1371.41C1377.48 1286.05 1379.2 1199.47 1370.32 1111.64L1365.88 1059.84 1358.48 1057.62C1366.38 1127.19 1363.91 1196.01 1351.08 1264.1 1343.68 1305.54 1333.57 1346 1320.74 1385.47L1238.61 1472.05C1268.21 1389.17 1288.18 1304.8 1298.54 1218.95L1292.62 1216.73 1280.78 1272.24C1267.96 1334.4 1239.35 1389.17 1194.95 1436.53 1169.29 1456.76 1141.42 1472.55 1111.33 1483.89L1086.17 1494.99 1045.47 1512.02 1118.73 1398.79 1143.89 1346.24C1172.99 1280.13 1183.85 1211.31 1176.45 1139.77L1171.27 1177.51C1163.37 1260.89 1135.5 1336.87 1087.65 1405.45L1086.17 1406.19 972.214 1450.59 1018.83 1352.9 931.515 1468.35 917.455 1474.27C957.908 1423.95 982.574 1367.46 991.453 1304.8L961.114 1318.86C1015.38 1284.33 1057.06 1240.41 1086.17 1187.13 1100.97 1160 1112.56 1130.64 1120.95 1099.06L1128.35 1066.5 1130.57 1052.44 1129.83 999.156 1129.83 956.233 1127.61 923.67 1123.91 904.428 1117.25 871.126 1084.69 866.686 1080.99 866.686C1077.04 872.606 1073.84 879.266 1071.37 886.667L1069.15 889.627 1065.45 873.346 1055.83 844.484 1068.41 844.484C1064.96 843.004 1061.75 841.277 1058.79 839.304L1144.63 851.885 1140.93 840.044 1097.27 827.463 1080.25 827.463 1070.63 833.383C994.167 840.29 928.555 819.815 873.797 771.958L895.996 857.805 860.477 833.383 841.978 817.842 847.157 823.762 821.259 805.261C851.844 837.823 876.263 874.086 894.516 914.05L854.557 891.108 784.26 757.897 818.299 788.98 819.039 781.579 850.858 794.16 835.318 716.454 798.319 688.332 802.759 686.112 829.398 694.992 810.899 633.567 804.239 607.666C793.386 560.302 786.973 511.951 785 462.614L778.34 458.914C765.513 507.758 758.36 557.341 756.88 607.666L756.14 633.567 761.32 708.313 753.18 721.635C746.767 692.032 743.067 662.676 742.081 633.567L742.081 607.666C743.067 565.235 749.727 522.806 762.06 480.375L770.94 450.033 781.3 451.513 789.44 417.471 796.099 479.636 807.199 388.609C757.867 405.876 714.702 427.338 677.703 452.993L692.502 436.712 662.163 464.094 620.725 501.837 593.345 530.699 617.024 499.617 659.203 457.434C703.109 422.898 748.741 391.322 796.099 362.706L798.319 356.786 828.658 346.425 816.819 335.324C759.1 343.711 702.862 358.759 648.104 380.468L543.027 425.611 530.447 432.272 528.227 434.492 528.967 436.712 527.487 438.932 525.267 441.152 474.949 480.375 571.146 444.853 622.944 427.091 506.028 485.556 434.25 633.567 437.95 642.448 400.211 804.521C422.904 779.852 441.897 752.964 457.189 723.855 467.549 704.613 477.169 684.878 486.049 664.65L500.108 633.567 511.948 607.666 554.867 513.678 500.848 658.729 518.607 633.567 537.107 607.666 545.987 595.085 537.847 608.406 520.828 633.567C507.508 654.289 496.408 675.998 487.529 698.693L465.329 765.298 429.81 910.349 423.89 922.93 429.81 834.123 336.573 925.89 343.233 888.147 383.931 815.622 318.073 903.689 310.674 909.609 311.414 905.909 305.494 914.05 277.375 938.471 290.694 905.169 322.513 840.784 315.854 851.885 295.134 885.187 286.255 737.176 319.553 667.61 308.454 662.43 249.996 753.457 230.016 783.799 377.272 498.877 392.811 490.736C410.078 483.829 425.37 473.469 438.69 459.654L455.709 442.633C414.764 459.901 376.532 482.349 341.013 509.978L320.294 523.299 306.974 514.418 306.234 507.758C405.391 445.099 509.235 392.309 617.765 349.386 708.042 312.383 801.772 294.621 898.956 296.101 970.487 299.555 1040.29 312.629 1108.37 335.324 1207.03 369.367 1289.42 427.585 1355.52 509.978 1412.75 582.01 1456.41 661.937 1486.5 749.757 1455.91 692.526 1419.41 639.981 1376.98 592.124L1357.74 570.663C1397.21 617.533 1429.03 669.337 1453.2 726.075L1474.66 774.178 1465.04 792.68 1483.54 849.664C1513.63 957.22 1538.79 1066.25 1559.02 1176.77L1536.08 1130.15 1524.24 1130.89 1462.08 899.248 1494.64 954.753C1476.88 902.949 1453.69 854.105 1425.08 808.221L1399.18 766.778 1396.22 763.078 1397.7 766.038M1109.11 376.028C1046.46 351.359 982.574 345.192 917.455 357.526L1095.79 384.908 1109.85 377.508 1129.09 384.168 1109.11 376.028M1073.59 677.971 1087.65 667.61 1086.17 666.87 1037.33 633.567 1006.25 607.666C952.974 559.315 911.536 500.604 881.937 431.532L864.917 388.609 856.777 398.969 843.458 394.529 843.458 375.287 830.878 372.327C829.891 450.28 833.098 528.726 840.498 607.666L843.458 633.567 848.637 682.411C914.742 734.215 987.507 771.218 1066.93 793.42L1086.17 799.34 1183.11 824.502 1197.17 828.203C1196.67 810.441 1191.99 794.407 1183.11 780.099L1172.01 765.298C1146.36 737.176 1117.74 711.274 1086.17 687.592L1073.59 677.971M1045.47 658.729 1071.37 691.292 1043.25 659.47 1045.47 658.729M925.595 873.346 884.156 800.82 931.515 821.542 959.634 890.367 960.374 891.848 964.074 912.569 925.595 873.346M961.854 857.065 944.835 825.982 1000.33 839.304 1050.65 844.484 1043.25 847.444 1061.01 989.535 1040.29 1076.86 1041.03 1066.5C1041.53 1017.66 1036.59 969.801 1026.23 922.93L1012.17 860.025 965.554 850.404 961.854 857.065M1174.97 860.025 1152.77 846.704 1170.53 914.789 1169.05 865.205 1174.97 860.025M1151.29 885.927 1129.83 874.827 1140.19 934.771 1143.15 978.434 1140.93 999.896 1135.75 1026.54 1135.75 1032.46 1134.27 1066.5C1130.32 1140.01 1114.29 1211.55 1086.17 1281.12L1055.09 1347.72 1061.75 1349.94 1069.15 1344.76 1084.69 1305.54 1094.31 1302.58 1151.29 1098.32 1152.03 1130.15 1163.87 1066.5C1170.77 1006.31 1167.57 946.612 1154.25 887.407L1151.29 885.927M1183.11 766.778 1174.97 757.897 1183.11 767.518C1244.77 837.577 1289.66 917.01 1317.78 1005.82L1357 1132.37C1343.19 1043.07 1314.82 959.44 1271.91 881.487 1253.65 848.924 1232.44 819.322 1208.27 792.68L1183.11 766.778M1191.99 872.606C1203.33 994.469 1200.62 1116.09 1183.85 1237.45L1194.95 1190.09 1200.13 1198.97 1206.79 1199.71C1222.08 1160.24 1231.21 1119.54 1234.17 1077.6 1240.09 1015.44 1229.97 956.233 1203.83 899.988L1191.99 872.606M1268.95 968.814 1257.11 941.432C1272.4 1032.21 1270.42 1122.25 1251.19 1211.55 1237.87 1272.24 1216.41 1329.47 1186.81 1383.25L1192.73 1396.57 1246.75 1271.5 1232.69 1343.28C1263.27 1292.96 1282.26 1239.43 1289.66 1182.69 1295.58 1139.77 1295.58 1096.35 1289.66 1052.44 1285.22 1022.34 1278.32 994.469 1268.95 968.814M1283.74 1152.35 1279.3 1191.57 1248.23 1303.32 1283.74 1152.35M1135.01 1009.52C1138.96 986.328 1138.71 963.14 1134.27 939.951L1135.01 995.456 1135.01 1009.52M987.014 1172.33 1018.83 1136.07 1005.51 1166.41 987.014 1172.33M931.515 1332.18 936.695 1327 940.395 1328.48 931.515 1332.18M813.119 372.327 813.119 387.128 819.779 370.847 813.119 372.327M540.807 772.698 545.987 770.478 548.947 768.258 550.427 763.078 549.687 754.197 550.427 749.757C567.693 757.157 580.272 769.738 588.165 787.5L594.085 800.081 593.345 756.417C596.305 714.48 603.952 673.531 616.285 633.567L625.164 607.666 645.144 561.042 674.003 507.758C685.842 488.023 701.135 471.495 719.881 458.174 680.91 502.084 650.57 551.915 628.864 607.666L621.464 628.387 619.984 633.567C609.132 668.104 602.718 702.886 600.745 737.916L617.765 732.735 648.844 803.781 628.124 774.919 672.523 913.309 649.584 891.108C610.612 855.091 574.353 815.622 540.807 772.698M657.723 816.362 642.924 775.659C638.977 763.818 639.224 753.21 643.664 743.836L645.884 742.356 651.064 743.096 653.284 743.836 660.683 760.858 665.123 791.94C684.856 827.463 707.302 860.272 732.461 890.367L746.521 908.129 736.161 909.609C708.535 880.007 682.39 848.924 657.723 816.362M658.463 745.316 654.764 722.374 670.303 732.735C684.609 742.603 693.736 756.664 697.682 774.919L701.382 800.82 658.463 745.316M702.122 743.096 709.522 729.775 705.082 705.353 714.702 703.873 722.841 705.353 729.501 714.234 745.781 747.536 761.32 752.717 824.958 901.469 823.478 904.428 744.301 818.582 739.121 821.542 702.122 743.096M426.11 532.179C409.338 556.355 395.031 581.517 383.192 607.666L372.092 633.567C355.812 674.024 344.713 716.454 338.793 760.858L326.953 827.463C369.379 766.778 404.898 702.146 433.51 633.567L443.87 607.666 446.83 598.785C461.629 559.315 480.622 521.819 503.808 486.296L425.37 533.66 426.11 532.179M449.79 464.834C410.818 507.264 381.218 554.875 360.992 607.666L352.113 633.567C343.233 660.209 336.82 688.332 332.873 717.934L325.473 760.117 358.032 649.849 346.193 683.891 363.952 633.567 375.052 607.666C399.718 552.901 432.77 502.824 474.209 457.434L435.73 485.556 449.79 464.834M497.148 683.151 518.607 643.188 514.168 660.209C514.661 668.597 508.494 686.358 495.668 713.494L492.708 707.573C492.215 698.693 493.695 690.552 497.148 683.151M371.352 805.261 364.692 819.322 373.572 803.041 370.612 796.38 371.352 805.261M456.449 902.949 460.149 877.786C465.083 846.211 467.056 815.128 466.069 784.539L470.509 794.9C475.442 833.876 482.349 872.606 491.228 911.089L497.888 939.211C483.089 933.291 471.742 922.19 463.849 905.909L456.449 902.949M542.287 791.2 533.407 786.02 533.407 783.799 534.147 777.879 534.887 776.399 537.107 774.919 542.287 791.2M598.525 933.291C571.886 892.341 550.673 848.184 534.887 800.82L523.787 793.42 525.267 821.542C528.227 861.012 539.08 897.768 557.827 931.811L517.868 907.389 483.089 792.68 498.628 804.521 500.108 800.081C502.575 792.187 507.014 791.2 513.428 797.12L514.908 797.86 518.607 768.258 550.427 811.921 564.486 837.083C583.232 867.179 605.185 894.314 630.344 918.49L597.045 919.97 598.525 933.291M830.138 633.567 833.098 645.409 842.718 675.011 813.119 424.871C807.692 487.036 811.392 547.968 824.218 607.666L830.138 633.567M606.665 827.463 600.745 814.882 617.765 849.664 605.185 794.9 600.745 764.558 605.925 823.762 606.665 827.463" fill="#DDDDDD" fill-rule="evenodd"/><path d="M880.454 346.64 901.167 351.822 859.742 364.408 839.77 354.044 857.523 359.966 879.715 337.016 880.454 346.64M1435.25 858.217 1397.52 766.414 1396.04 763.453 1399 767.155 1406.4 781.221C1427.61 819.719 1446.1 859.204 1461.88 899.676L1524.02 1131.4 1507 1257.26 1492.21 1212.1C1494.18 1116.35 1482.35 1022.33 1456.7 930.03L1435.25 858.217M1483.33 850.073 1464.84 793.066 1474.45 774.558 1453 726.436C1428.84 669.676 1397.03 617.852 1357.58 570.964L1376.81 592.434C1419.22 640.309 1455.71 692.874 1486.29 750.127L1510.7 878.946 1483.33 850.073M341.194 510.256C376.701 482.616 414.92 460.159 455.852 442.884L438.838 459.912C425.523 473.732 410.235 484.097 392.975 491.007L378.92 496.93 391.496 476.94 341.194 510.256M250.208 753.828 308.646 662.766 319.742 667.948 286.454 737.541 284.975 725.695 273.879 832.304 265.742 836.006 261.304 764.193 228.016 789.365 250.208 753.828M316.043 852.294 322.701 841.189 290.893 905.598 295.331 887.09 316.043 852.294M318.263 904.118 384.098 816.017 343.414 888.57 344.893 878.946 318.263 904.118M429.961 910.781 465.468 765.674 466.208 784.923C467.194 815.523 465.222 846.618 460.29 878.206L456.591 903.377 445.496 929.289 429.222 928.549 429.961 910.781M753.222 721.994 761.359 708.667 762.098 706.446 784.29 758.27 854.564 891.532 798.345 838.968 835.331 907.079 829.413 910.781 824.975 901.897 761.359 753.088 753.222 721.994M895.989 858.217 873.797 772.337C928.537 820.212 994.126 840.695 1070.56 833.785L1080.18 827.863 1097.19 827.863 1140.84 840.448 1144.54 852.294 1058.73 839.708C1061.69 841.682 1064.89 843.41 1068.34 844.891L1055.77 844.891 1065.39 873.764 1069.08 890.051C1074.02 909.794 1075.99 929.536 1075 949.279L1074.26 974.45 1060.95 989.997 1043.19 847.852 1050.59 844.891 1000.29 839.708 944.811 826.382 961.824 857.476C976.126 887.583 985.496 919.665 989.934 953.721L994.372 992.959 961.085 883.388 960.345 890.792 959.605 890.792 931.496 821.94 884.153 801.21 925.578 873.764 895.989 858.217M931.496 1469 1018.78 1353.51 972.181 1451.23 931.496 1469M1087.58 1406.07C1135.41 1337.46 1163.28 1261.46 1171.17 1178.04L1176.34 1140.29C1183.74 1211.85 1172.89 1280.71 1143.8 1346.84L1118.65 1399.41 1122.35 1389.04 1087.58 1406.07M1194.84 1437.16C1239.22 1389.78 1267.82 1335 1280.65 1272.81L1292.48 1217.28 1298.4 1219.5C1288.04 1305.38 1268.07 1389.78 1238.48 1472.7L1186.7 1506.02 1207.41 1474.18 1224.43 1443.83 1238.48 1415.69 1246.62 1400.15 1232.56 1400.15 1194.84 1437.16M1320.59 1386.08C1333.41 1346.6 1343.52 1306.12 1350.92 1264.66 1363.74 1196.55 1366.21 1127.7 1358.32 1058.11L1365.71 1060.33 1370.15 1112.15C1379.03 1200.01 1377.3 1286.63 1364.98 1372.01L1343.52 1392.74 1333.17 1381.64 1320.59 1386.08M1418.24 1299.46C1450.29 1206.18 1450.29 1112.15 1418.24 1017.39L1372.37 873.764C1427.11 982.841 1454.73 1099.57 1455.22 1223.95L1455.96 1265.4 1435.99 1310.57 1430.07 1300.2 1418.24 1299.46M1183 767.155 1208.15 793.066C1232.32 819.719 1253.52 849.332 1271.77 881.907 1314.67 959.89 1343.03 1043.55 1356.84 1132.88L1317.63 1006.29C1289.52 917.444 1244.65 837.981 1183 767.895L1174.87 758.27 1183 767.155M660.756 761.232 658.537 745.685 701.441 801.21 697.742 775.298 690.345 719.773 702.181 743.464 739.167 821.94 759.879 858.957 708.838 843.41 665.194 792.326 660.756 761.232M550.537 812.315 535.002 767.155 540.92 773.077C574.455 816.017 610.701 855.502 649.66 891.532L672.591 913.742 660.016 917.444 651.14 907.82 638.564 918.184 630.427 918.925C605.276 894.74 583.331 867.594 564.591 837.487L550.537 812.315M557.934 932.251C539.194 898.195 528.345 861.425 525.386 821.94L523.906 793.807 535.002 801.21C550.783 848.592 571.989 892.766 598.619 933.731L588.263 938.914 563.852 921.146 557.934 932.251M483.222 793.066 517.989 907.82 498.016 891.532 498.016 939.654 491.359 911.521C482.482 873.024 475.578 834.279 470.646 795.288L480.263 782.702 483.222 793.066" fill="#AAAAAA" fill-rule="evenodd"/><path d="M1430.02 767.021 1429.02 767.021 1430.02 766.021 1430.02 767.021" fill="#727201" fill-rule="evenodd"/></g></svg>
