<svg width="1761" height="1761" xmlns="http://www.w3.org/2000/svg" xmlns:xlink="http://www.w3.org/1999/xlink" overflow="hidden"><defs><clipPath id="clip0"><rect x="0" y="0" width="1761" height="1761"/></clipPath><clipPath id="clip1"><rect x="124" y="286" width="1567" height="1315"/></clipPath><clipPath id="clip2"><rect x="124" y="286" width="1567" height="1315"/></clipPath><clipPath id="clip3"><rect x="124" y="286" width="1567" height="1315"/></clipPath></defs><g clip-path="url(#clip0)"><g clip-path="url(#clip1)"><g clip-path="url(#clip2)"><g clip-path="url(#clip3)"><path d="M499.064 250.718 479.291 212.755 527.536 234.9 527.536 235.691 635.1 296.591 621.654 278.4 584.482 223.036 529.909 132.873 527.536 128.127 527.536 124.964 496.691 81.4636 527.536 102.818 527.536 104.4 529.909 107.564 530.7 107.564 585.273 160.555 635.891 219.082C659.618 247.555 682.818 279.191 705.491 313.991L684.927 241.227C670.164 192.191 654.345 143.945 637.473 96.4909L591.6-16.6091 570.245-64.8545 535.445-143.945 559.173-124.173C573.936-110.991 589.491-98.3363 605.836-86.2091L643.009-63.2727 660.409-52.9909C669.9-47.1909 679.918-41.9182 690.464-37.1727L669.109-62.4818 624.818-118.636 564.709-204.055 529.909-257.045 527.536-261.791 527.536-264.954 509.345-289.473 446.073-377.264 397.827-440.536 349.582-499.854C335.345-516.727 316.1-532.545 291.845-547.309 263.373-562.6 228.836-576.836 188.236-590.018 107.036-616.909 17.6636-632.464-79.8818-636.682-162.664-644.064-247.818-631.409-335.345-598.718-422.873-566.027-483.245-534.127-516.464-503.018L-567.082-455.564C-586.064-435.527-602.673-413.382-616.909-389.127-638-353.8-656.718-316.627-673.064-277.609-689.409-237.536-711.027-201.418-737.918-169.255-759.009-143.418-782.473-119.691-808.309-98.0727L-824.127-85.4182-815.427-86.2091C-787.482-88.8454-761.645-98.0727-737.918-113.891-714.718-129.182-697.054-148.955-684.927-173.209L-688.091 83.0454-682.554 129.709C-681.5 69.0727-671.745 10.8091-653.291-45.0818L-645.382-66.4363-626.4-111.518-590.809-179.536-563.127 3.95454-558.382 22.1455-481.664-242.809-383.591 39.5454-375.682 53.7818-385.964-66.4363-387.545-177.955-382.009-243.6C-374.627-241.491-370.409-235.427-369.354-225.409L-349.582-66.4363-334.554 42.7091-331.391 62.4818-326.645 81.4636-318.736 112.309-261-243.6-87.7909 144.736-90.9545 42.7091C-93.0636 7.38182-95.9636-27.9454-99.6545-63.2727L-99.6545-66.4363-112.309-155.809-124.173-245.182-100.445-196.936-61.6909-66.4363C-18.9818 70.1273 32.6909 210.382 93.3273 354.327L86.2091 306.082C73.5545 184.809 52.9909 60.6364 24.5182-66.4363L-15.8182-227.782 0.790909-205.636 7.90909-191.4C35.3273-148.164 64.5909-106.509 95.7-66.4363L128.127-26.1 260.209 129.709 291.845 166.091 349.582 242.809 385.964 290.264 349.582 215.918 320.318 151.855 291.845 88.5818 270.491 45.0818C253.091 8.7 238.327-28.4727 226.2-66.4363L214.336-105.982 223.036-95.7 279.191-12.6545 236.482-51.4091 278.4 44.2909 309.245 110.727C318.209 139.2 331.655 165.564 349.582 189.818L358.282 201.682C387.809 239.645 421.818 271.809 460.309 298.173L448.445 279.982 387.545 180.327C385.964 177.164 387.545 175.318 392.291 174.791L527.536 295.8 499.064 250.718M359.864 46.6636 349.582 24.5182C337.454-2.37273 328.491-31.1091 322.691-61.6909L321.9-66.4363 309.245-135.245C315.573-112.045 322.691-89.1091 330.6-66.4363L349.582-12.6545C365.4 30.5818 383.327 73.0273 403.364 114.682L371.727 81.4636 388.336 96.4909 359.864 46.6636M349.582-515.673C369.091-498.8 386.491-479.291 401.782-457.145L419.182-431.836 458.727-385.173 513.3-313.2 529.909-291.845 529.909-287.891 586.854-202.473C611.636-166.618 636.945-131.555 662.782-97.2818L672.273-84.6273 712.609-31.6364 715.773-26.1 709.445-12.6545 578.154-85.4182 586.064-64.8545 620.864 26.8909 673.064 170.836 699.954 254.673 725.263 342.464 714.191 351.954 606.627 219.873 660.409 310.827 658.827 318.736 654.082 322.691 527.536 261.791 527.536 261 525.954 260.209 529.909 268.909 529.909 275.236 548.891 321.109 546.518 328.227 540.191 330.6 527.536 318.736 527.536 317.154 467.427 273.654 480.082 313.991 457.145 322.691 400.2 279.191 420.764 336.927 416.809 344.045 406.527 344.836 350.373 279.982 348.791 335.345 343.254 340.091 334.554 338.509 315.573 313.991 283.936 460.309 268.909 466.636 241.227 389.918 142.364 654.082 129.709 656.454 127.336 638.263 130.5 543.354 133.664 457.936 134.455 359.864 132.082 261.791 125.755 163.718 117.845 79.8818 102.818 7.11818C93.8545-4.48182 85.1545-18.9818 76.7182-36.3818L60.9-66.4363 46.6636-90.9545 30.8454-113.891 39.5454-66.4363 69.6 102.818 97.2818 273.654 116.264 417.6 117.055 426.3 102.818 431.836-75.1364-66.4363-75.9273-67.2273-75.9273-66.4363-81.4636 184.282C-110.991 119.955-151.855 36.3818-204.055-66.4363L-254.673-164.509-308.454 160.555-324.273 155.809-353.536 27.6818-356.7 91.7454-363.027 96.4909-370.936 95.7-446.864-66.4363-449.236-70.3909-450.027-71.9727-477.709-160.555-548.1 58.5273-563.127 57.7364-597.927-117.055-623.236-66.4363C-648.545-5.27273-668.054 76.7182-681.763 179.536L-684.136 178.745-702.327 56.1545-705.491 22.9364-709.445-66.4363-710.236-98.0727-835.2-70.3909-838.363-81.4636-815.427-106.773-798.027-127.336C-779.045-147.9-761.645-169.782-745.827-192.982-723.682-225.673-703.382-259.682-684.927-295.009L-639.845-378.054C-624.554-406-605.836-431.836-583.691-455.564L-580.527-459.518C-525.691-517.518-459.254-563.918-381.218-598.718-303.709-634.045-221.718-653.027-135.245-655.664-49.3-658.827 36.9091-649.864 123.382-628.773 184.018-614.536 240.173-592.127 291.845-561.545L348-517.254 349.582-515.673M297.382 247.555 332.182 303.709 326.645 225.409 128.127-7.11818 139.991 64.0636 142.364 80.6727 153.436 213.545 158.973 336.927 158.182 423.136 151.855 529.118 141.573 609.791 239.645 304.5 272.864 431.045 276.818 417.6 291.845 346.418 292.636 342.464C297.909 311.354 299.491 279.718 297.382 247.555" fill="#888888" fill-rule="evenodd" transform="matrix(1 0 0 1.00007 962.364 942.5)"/><path d="M-79.8818-636.682C17.6636-632.464 107.036-616.909 188.236-590.018 228.836-576.836 263.373-562.6 291.845-547.309 316.1-532.545 335.345-516.727 349.582-499.854L397.827-440.536 446.073-377.264 509.345-289.473 527.536-264.954 527.536-261.791 529.909-257.045 564.709-204.055 624.818-118.636 669.109-62.4818 690.464-37.1727C679.918-41.9182 669.9-47.1909 660.409-52.9909L643.009-63.2727 605.836-86.2091C589.491-98.3363 573.936-110.991 559.173-124.173L535.445-143.945 570.245-64.8545 591.6-16.6091 637.473 96.4909C654.345 143.945 670.164 192.191 684.927 241.227L705.491 313.991C682.818 279.191 659.618 247.555 635.891 219.082L585.273 160.555 530.7 107.564 529.909 107.564 527.536 104.4 527.536 102.818 496.691 81.4636 527.536 124.964 527.536 128.127 529.909 132.873 584.482 223.036 621.654 278.4 635.1 296.591 527.536 235.691 527.536 234.9 479.291 212.755 499.064 250.718 392.291 174.791C387.545 175.318 385.964 177.164 387.545 180.327L448.445 279.982 351.954 174.791 349.582 172.418C338.509 158.709 329.545 143.945 322.691 128.127L309.245 110.727 278.4 44.2909 291.845 52.2 349.582 90.1636 378.054 109.145C385.436 113.891 393.873 115.736 403.364 114.682 383.327 73.0273 365.4 30.5818 349.582-12.6545L330.6-66.4363C322.691-89.1091 315.573-112.045 309.245-135.245L321.9-66.4363 322.691-61.6909C328.491-31.1091 337.454-2.37273 349.582 24.5182L359.864 46.6636 223.036-95.7 214.336-105.982 226.2-66.4363C238.327-28.4727 253.091 8.7 270.491 45.0818L291.845 88.5818 320.318 151.855 349.582 215.918 385.964 290.264 349.582 242.809 291.845 166.091 260.209 129.709 128.127-26.1 95.7-66.4363C64.5909-106.509 35.3273-148.164 7.90909-191.4L0.790909-205.636-63.2727-355.909 186.655-119.427 139.2-303.709 168.464-287.1C204.318-267.591 242.018-252.564 281.564-242.018L291.845-239.645C311.355-235.955 330.6-238.591 349.582-247.555 370.673-256.518 386.491-273.127 397.036-297.382 413.909-340.618 411.536-382.536 389.918-423.136L370.145-455.564 369.354-457.145 349.582-481.664 311.618-517.254 291.845-529.909C268.118-543.091 243.336-554.164 217.5-563.127L95.7-598.718 10.2818-620.864-79.8818-636.682M139.991 64.0636 297.382 247.555C299.491 279.718 297.909 311.354 292.636 342.464L291.845 346.418 276.818 417.6C278.4 379.636 273.391 342.727 261.791 306.873L226.991 211.173C212.227 281.3 198.255 351.164 185.073 420.764 178.218 458.2 167.145 494.318 151.855 529.118L158.182 423.136 158.973 336.927 153.436 213.545 142.364 80.6727 139.991 64.0636" fill="#EEEEEE" fill-rule="evenodd" transform="matrix(1 0 0 1.00007 962.364 942.5)"/><path d="M-79.8818-636.682 10.2818-620.864 95.7-598.718 217.5-563.127C243.336-554.164 268.118-543.091 291.845-529.909L311.618-517.254 349.582-481.664 369.354-457.145 370.145-455.564 389.918-423.136C411.536-382.536 413.909-340.618 397.036-297.382 386.491-273.127 370.673-256.518 349.582-247.555 330.6-238.591 311.354-235.955 291.845-239.645L281.564-242.018C242.018-252.564 204.318-267.591 168.464-287.1L139.2-303.709 186.655-119.427-63.2727-355.909 0.790909-205.636-15.8182-227.782 24.5182-66.4363C52.9909 60.6364 73.5545 184.809 86.2091 306.082L49.8273 174 11.0727 42.7091-11.8636-22.9364-28.4727-66.4363-54.5727-134.455C-65.1182-161.345-80.4091-182.173-100.445-196.936L-124.173-245.182-112.309-155.809-99.6545-66.4363-99.6545-63.2727C-95.9636-27.9454-93.0636 7.38182-90.9545 42.7091L-87.7909 144.736-125.755 42.7091-169.255-66.4363-174.791-79.8818-219.873-177.955C-230.945-200.1-244.654-221.982-261-243.6L-263.373-246.764C-279.191-222.509-292.109-197.727-302.127-172.418-315.309-138.145-323.218-102.818-325.854-66.4363L-326.645-51.4091C-328.754-8.17273-328.754 36.1182-326.645 81.4636L-331.391 62.4818-334.554 42.7091-349.582-66.4363-369.354-225.409C-370.409-235.427-374.627-241.491-382.009-243.6L-389.127-241.227C-407.054-188.5-413.118-134.718-407.318-79.8818L-405.736-66.4363C-400.991-30.0545-393.609 5.27273-383.591 39.5454L-481.664-242.809-491.154-240.436C-515.409-208.273-533.073-171.364-544.145-129.709L-556.8-66.4363-563.127 3.95454-590.809-179.536-632.727-129.709C-648.018-109.673-659.618-88.5818-667.527-66.4363L-679.391-18.9818C-684.136 14.2364-687.036 48.2454-688.091 83.0454L-684.927-173.209-692.045-166.091C-721.573-128.127-760.327-105.455-808.309-98.0727-782.473-119.691-759.009-143.418-737.918-169.255-711.027-201.418-689.409-237.536-673.064-277.609-656.718-316.627-638-353.8-616.909-389.127-602.673-413.382-586.064-435.527-567.082-455.564L-516.464-503.018C-483.245-534.127-422.873-566.027-335.345-598.718-247.818-631.409-162.664-644.064-79.8818-636.682" fill="#FFFFFF" fill-rule="evenodd" transform="matrix(1 0 0 1.00007 962.364 942.5)"/><path d="M223.036-95.7 359.864 46.6636 388.336 96.4909 371.727 81.4636 403.364 114.682C393.873 115.736 385.436 113.891 378.054 109.145L349.582 90.1636 291.845 52.2 278.4 44.2909 236.482-51.4091 279.191-12.6545 223.036-95.7M309.245 110.727 322.691 128.127C329.545 143.945 338.509 158.709 349.582 172.418L351.954 174.791 448.445 279.982 460.309 298.173C421.818 271.809 387.809 239.645 358.282 201.682L349.582 189.818C331.655 165.564 318.209 139.2 309.245 110.727M392.291 174.791 499.064 250.718 527.536 295.8 392.291 174.791M139.991 64.0636 128.127-7.11818 326.645 225.409 332.182 303.709 297.382 247.555 139.991 64.0636M276.818 417.6 272.864 431.045 239.645 304.5 141.573 609.791 151.855 529.118C167.145 494.318 178.218 458.2 185.073 420.764 198.255 351.164 212.227 281.3 226.991 211.173L261.791 306.873C273.391 342.727 278.4 379.636 276.818 417.6M-100.445-196.936C-80.4091-182.173-65.1182-161.345-54.5727-134.455L-28.4727-66.4363-11.8636-22.9364 11.0727 42.7091 49.8273 174 86.2091 306.082 93.3273 354.327C32.6909 210.382-18.9818 70.1273-61.6909-66.4363L-100.445-196.936M-684.927-173.209C-697.054-148.955-714.718-129.182-737.918-113.891-761.645-98.0727-787.482-88.8454-815.427-86.2091L-824.127-85.4182-808.309-98.0727C-760.327-105.455-721.573-128.127-692.045-166.091L-684.927-173.209M-688.091 83.0454C-687.036 48.2454-684.136 14.2364-679.391-18.9818L-667.527-66.4363C-659.618-88.5818-648.018-109.673-632.727-129.709L-590.809-179.536-626.4-111.518-645.382-66.4363-653.291-45.0818C-671.745 10.8091-681.5 69.0727-682.554 129.709L-688.091 83.0454M-563.127 3.95454-556.8-66.4363-544.145-129.709C-533.073-171.364-515.409-208.273-491.154-240.436L-481.664-242.809-558.382 22.1455-563.127 3.95454M-383.591 39.5454C-393.609 5.27273-400.991-30.0545-405.736-66.4363L-407.318-79.8818C-413.118-134.718-407.054-188.5-389.127-241.227L-382.009-243.6-387.545-177.955-385.964-66.4363-375.682 53.7818-383.591 39.5454M-326.645 81.4636C-328.754 36.1182-328.754-8.17273-326.645-51.4091L-325.854-66.4363C-323.218-102.818-315.309-138.145-302.127-172.418-292.109-197.727-279.191-222.509-263.373-246.764L-261-243.6C-244.654-221.982-230.945-200.1-219.873-177.955L-174.791-79.8818-169.255-66.4363-125.755 42.7091-87.7909 144.736-261-243.6-318.736 112.309-326.645 81.4636" fill="#CCCCCC" fill-rule="evenodd" transform="matrix(1 0 0 1.00007 962.364 942.5)"/></g></g></g><path d="M463.523 1347.21 472.72 1347.21 540.159 1347.21 540.159 1414.57 550.122 1414.57 554.72 1414.57 534.795 1465.08C527.131 1493.66 495.2 1533.71 439 1585.24L440.533 1571.47C466.077 1505.14 473.742 1436.51 463.523 1365.58ZM1363.99 1100 1479.71 1251.54 1480.48 1253.84 1496.57 1314.3 1505 1377.06 1504.23 1377.83 1436.79 1308.18 1423 1483.45 1421.47 1484.98C1391.83 1443.65 1369.1 1399.51 1353.26 1352.57 1351.73 1407.17 1342.79 1460.74 1326.44 1513.3 1322.35 1525.54 1317.24 1533.2 1311.11 1536.26L1285.82 1390.84C1270.49 1490.85 1241.12 1586.52 1197.69 1677.85L1192.33 1689.33 1180.07 1709.23 1179.3 1710 1177.77 1706.17 1179.3 1677.09C1186.45 1594.94 1189.77 1514.07 1189.26 1434.47L1188.5 1419.16 1180.83 1334.97 1174.7 1259.96 1157.84 1145.92Z" fill="#BBBBBB" fill-rule="evenodd"/><path d="M1175.05 1259.47 1189.61 1343.66C1194.72 1373.76 1197.02 1403.87 1196.51 1433.97L1196.51 1454.64 1194.98 1538.83 1187.31 1677.36C1192.42 1681.95 1201.11 1665.11 1213.37 1626.85L1240.96 1545.72C1255.26 1505.92 1265.99 1465.35 1273.14 1424.02L1283.11 1370.45 1284.64 1368.92C1291.28 1379.12 1295.62 1391.11 1297.67 1404.89L1315.29 1513.57C1338.28 1454.89 1349.01 1394.43 1347.48 1332.18L1349.01 1328.35 1417.99 1466.88 1431.01 1297.74C1441.23 1293.14 1449.92 1296.97 1457.07 1309.22 1464.73 1320.95 1473.67 1331.92 1483.89 1342.13L1496.92 1358.2C1494.37 1320.44 1484.66 1284.73 1467.8 1251.05L1452.47 1222.73 1364.34 1099.51 1480.06 1251.05 1480.83 1253.35 1496.92 1313.81 1505.35 1376.57 1504.58 1377.34 1437.15 1307.69 1423.35 1482.96 1421.82 1484.49C1392.19 1443.16 1369.45 1399.02 1353.61 1352.08 1352.08 1406.67 1343.14 1460.25 1326.79 1512.81 1322.7 1525.05 1317.59 1532.71 1311.46 1535.77L1286.17 1390.35C1270.85 1490.36 1241.47 1586.03 1198.04 1677.36L1192.68 1688.84 1180.42 1708.74 1179.65 1709.51 1178.12 1705.68 1179.65 1676.6C1186.8 1594.45 1190.12 1513.57 1189.61 1433.97L1188.85 1418.67 1181.18 1334.47 1175.05 1259.47M550.473 1414.07 555.071 1414.07 535.146 1464.59C527.482 1493.16 495.551 1533.22 439.351 1584.75L440.884 1570.97C466.428 1504.64 474.093 1436.01 463.874 1365.09L463.874 1346.72 473.07 1346.72C478.69 1437.54 474.093 1503.11 459.276 1543.42L451.613 1566.38C491.974 1533.73 520.585 1493.42 537.444 1445.45L550.473 1414.07" fill="#888888" fill-rule="evenodd"/><path d="M1363.81 1099.51 1451.92 1222.82 1467.24 1251.16C1484.09 1284.86 1493.8 1320.6 1496.35 1358.38L1483.33 1342.3C1473.11 1332.09 1464.17 1321.11 1456.51 1309.37 1449.36 1297.11 1440.68 1293.28 1430.46 1297.88L1417.44 1467.14 1348.49 1328.51 1346.96 1332.34C1348.49 1394.64 1337.76 1455.14 1314.78 1513.86L1297.16 1405.1C1295.11 1391.32 1290.77 1379.32 1284.13 1369.11L1282.6 1370.64 1272.64 1424.25C1265.49 1465.61 1254.76 1506.2 1240.46 1546.03L1212.88 1627.22C1200.63 1665.51 1191.94 1682.36 1186.83 1677.77L1194.5 1539.14 1196.03 1454.89 1196.03 1434.21C1196.54 1404.08 1194.24 1373.96 1189.13 1343.83L1174.58 1259.58 1157.72 1145.46 1363.81 1099.51M472.802 1346.9 540.222 1346.9 540.222 1414.3 550.182 1414.3 537.157 1445.7C520.303 1493.69 491.7 1534.03 451.351 1566.71L459.012 1543.73C473.824 1503.4 478.42 1437.78 472.802 1346.9" fill="#BBBBBB" fill-rule="evenodd"/></g></svg>