<svg width="1761" height="1761" xmlns="http://www.w3.org/2000/svg" xmlns:xlink="http://www.w3.org/1999/xlink" overflow="hidden"><defs><clipPath id="clip0"><rect x="0" y="0" width="1761" height="1761"/></clipPath></defs><g clip-path="url(#clip0)"><path d="M1267.69 1553.68 1265.42 1563.52 1265.42 1563.52ZM1282.07 1529.47 1279.8 1555.95 1282.07 1529.47ZM1210.94 1516.61 1185.21 1571.84 1178.4 1572.6 1185.22 1571.84ZM1102.09 1511.47 1085.33 1537.79 1060.04 1568.63 1085.33 1537.79ZM1249.53 1509.04 1244.23 1522.66 1249.53 1509.04ZM1208.67 1460.62 1208.67 1460.62 1229.1 1523.42 1229.1 1523.41ZM1173.86 1460.62 1173.11 1482.56 1173.11 1482.56ZM1300.23 1449.27 1297.96 1550.65 1297.96 1550.66ZM1235.15 1440.95 1238.94 1464.4 1235.16 1440.95ZM1280.56 1387.98 1274.5 1395.55 1274.5 1395.55 1280.56 1387.98ZM1162.51 1386.47 1137.54 1488.61 1137.55 1488.61 1162.51 1386.47ZM1307.8 1385.71 1339.57 1561.25 1339.58 1561.25ZM1181.43 1378.9 1204.13 1447.76 1207.92 1461.37 1207.92 1461.37 1204.13 1447.76ZM1143.6 1339.56 1142.84 1380.42 1142.84 1380.41ZM1179.92 1332.75 1197.32 1415.98 1197.32 1415.98 1179.92 1332.76ZM1300.98 1304.75 1310.6 1383.08 1300.99 1304.76ZM1244.99 1272.98 1273.74 1419 1273.74 1419 1244.99 1272.98ZM1154.19 1243.47 1130.73 1366.04 1119.38 1394.79 1113.33 1398.57 1119.38 1394.79 1130.73 1366.04 1130.73 1366.04 1154.19 1243.47ZM1123.17 1241.96 1106.52 1307.02 1089.87 1355.45 1069.07 1392.9 1041.45 1426.57 1069.07 1392.9 1069.07 1392.9 1069.07 1392.9C1077.14 1381.05 1084.07 1368.56 1089.87 1355.45L1106.52 1307.02 1123.17 1241.96ZM1104 1217.09 1101.22 1235.14 1096.75 1254.85 1101.22 1235.14ZM1323.68 1184.45 1331.25 1290.38 1335.79 1335.02 1344.66 1383.49 1346.39 1392.9 1349.12 1402.28 1363.03 1450.02 1363.03 1450.02 1349.12 1402.28 1346.39 1392.9 1344.66 1383.49 1335.79 1335.02 1331.25 1290.38 1323.69 1184.45ZM1152.68 1151.16 1150.41 1159.48 1150.41 1159.48 1152.68 1151.16 1148.89 1173.86 1137.54 1245.74 1108.79 1419.76 1108.79 1419.76 1137.54 1245.74 1139.81 1255.57 1139.81 1255.57 1137.54 1245.74 1148.89 1173.86ZM1159.49 1080.04 1141.33 1139.81 1142.84 1156.46 1138.3 1207.91 1138.3 1207.9 1142.84 1156.46 1141.33 1139.81 1159.49 1080.04ZM1075.51 1067.14 1070.96 1085.33 1070.96 1085.33ZM1125.61 1054.33 1125.44 1056.58 1124.84 1062.6 1125.44 1056.58ZM1314.6 1021.02 1330.49 1101.98 1339.57 1189.75C1343.11 1220.01 1348.4 1248.51 1355.47 1275.25L1369.09 1329.72 1355.47 1275.25C1348.4 1248.51 1343.11 1220.01 1339.58 1189.75L1330.49 1101.98 1330.45 1101.23 1330.49 1101.98 1314.61 1021.02ZM1330.49 949.143 1332.01 992.27 1325.95 965.032 1325.95 965.033 1332.01 992.27 1345.63 1056.58 1363.79 1108.79 1363.79 1108.79 1345.63 1056.58 1332.01 992.27ZM1233.64 943.847 1213.21 1141.32 1213.21 1141.32 1233.64 943.852ZM1265.42 938.55 1266.18 1009.67C1266.68 1026.82 1267.94 1043.97 1269.96 1061.12L1282.07 1148.89 1294.18 1217.74 1299.47 1221.53 1294.18 1217.74 1282.07 1148.89 1269.96 1061.12C1267.94 1043.97 1266.68 1026.82 1266.18 1009.67L1265.42 938.554ZM1177.65 908.286 1174.62 989.244 1173.11 1014.21 1173.11 1014.21 1174.62 989.244ZM316.318 869.004 313.531 874.237 313.531 874.237 316.318 869.004ZM533.481 861.777 514.048 872.724 494.573 881.528 514.049 872.724ZM1352.62 836.928 1361.52 883.317 1361.52 883.316ZM476.988 835.033 461.081 841.703 441.944 846.24 461.081 841.703ZM1082.27 834.241 1084.58 846.243 1084.67 846.902 1084.58 846.243ZM1169.32 833.38 1169.32 833.381 1174.95 845.554ZM585.932 782.687 585.93 782.688 448.218 901.476 448.219 901.475ZM670.912 778.464 631.333 803.872 607.233 818.503 631.333 803.872ZM1350.17 775.877 1334.28 779.66 1334.28 890.127 1339.57 896.18 1342.6 915.095 1350.93 983.19 1350.93 983.191 1342.6 915.095 1339.58 896.18 1334.28 890.127 1334.28 779.66ZM1070.2 771.338 1080.79 836.407 1085.33 851.539 1091.39 940.82 1089.12 989.244 1091.39 940.82 1085.33 851.539 1085.33 851.537 1080.79 836.407 1070.2 771.35ZM714.566 749.395 714.565 749.396 629.819 835.65 629.82 835.65ZM791.226 733.908 750.886 766.798 700.189 804.628 665.938 826.646 700.189 804.628 750.886 766.798ZM663.869 710.052 554.909 802.359 554.911 802.357 663.869 710.053ZM280.994 698.702 280.993 698.703 265.104 732.75 257.741 762.351 265.104 732.75 265.106 732.747ZM775.099 693.406 692.623 764.527 692.624 764.526 775.099 693.407ZM294.614 653.305 248.457 738.046 248.458 738.045 294.614 653.305ZM761.479 634.389 641.925 710.808 641.926 710.807 761.478 634.39ZM1227.73 613.656 1257.85 704.755 1272.23 752.422 1285.85 799.332 1285.85 799.33 1272.23 752.422 1257.85 704.755ZM1211.7 600.341 1264.67 819.005 1264.67 819.003 1211.7 600.342ZM469.405 570.833 407.357 635.146 343.04 697.188 343.042 697.187 407.358 635.146 469.403 570.836ZM941.567 563.267 933.243 565.537 912.813 607.151 912.814 607.151 933.243 565.537 941.567 563.267ZM738.023 555.701 577.608 739.559 577.61 739.558ZM1202.62 546.621 1224.69 605.007 1202.62 546.623ZM1254.12 546.447 1266.94 576.129 1270.06 586.559 1266.94 576.129ZM452.758 527.706 430.815 551.918 376.334 632.119 376.34 632.111 430.815 551.918 452.757 527.708ZM1232.89 508.791 1255.59 578.4 1272.99 647.252 1278.28 682.057 1285.1 737.29 1285.1 737.288 1278.28 682.057 1272.99 647.252 1255.59 578.4 1232.89 508.792ZM893.897 500.468 886.33 502.738 886.33 503.494 886.33 503.494 886.33 502.738 893.896 500.468ZM442.165 489.119C423.5 508.791 408.367 529.219 396.765 550.405L374.821 598.072 368.768 614.718 374.821 598.072 396.765 550.405C402.566 539.812 409.25 529.409 416.817 519.194L442.164 489.12ZM815.203 435.399 813.69 437.668 813.691 437.667ZM441.506 412.997 381.632 475.499 360.947 506.811 381.632 475.5ZM949.134 313.582C960.735 335.777 969.311 359.484 974.861 384.705 980.409 407.908 981.166 432.12 977.13 457.34L966.537 507.278 966.537 507.277 977.131 457.341C981.167 432.12 980.409 407.908 974.861 384.705 972.087 372.095 968.555 359.863 964.267 348.009L949.134 313.584ZM1011.58 309.879 1059.61 324.932 1139.06 358.223C1155.7 365.789 1171.85 375.374 1187.48 386.975 1202.11 397.567 1215.99 409.169 1229.1 421.779L1275.26 477.013 1315.36 541.325C1326.46 563.015 1335.79 585.462 1343.36 608.665L1356.22 655.574 1363.03 701.728 1367.57 791.01 1366.22 831.688 1367.57 791.01 1363.03 701.728 1356.22 655.574 1343.36 608.665C1335.79 585.462 1326.46 563.015 1315.36 541.325L1275.26 477.013 1229.1 421.779C1215.99 409.169 1202.11 397.567 1187.48 386.974 1171.85 375.374 1155.7 365.789 1139.06 358.223L1059.61 324.932ZM706.159 273.944 679.003 281.805 622.253 301.476 594.255 312.826 567.772 325.688 516.318 354.44 567.772 325.689 594.255 312.826 622.253 301.477 679.003 281.805ZM675.219 269.699 675.223 269.699 776.714 271.77ZM784.18 262.133 818.23 266.673 904.49 282.561 956.701 294.667 1006.64 308.417 956.701 294.667 904.491 282.561 818.23 266.673ZM781.91 247 820.5 250.783 907.517 267.429 960.484 279.535 1013.45 293.91 1064.9 308.286 1106.52 323.419C1130.23 331.993 1152.43 343.09 1173.11 356.709L1197.32 372.599C1221.03 389.749 1241.97 408.664 1260.13 429.346 1282.32 454.062 1302.25 480.543 1319.9 508.791 1333.52 530.984 1344.37 554.439 1352.44 579.155L1359.25 603.367 1371.36 652.548 1378.92 698.701 1381.95 744.099C1384.47 792.018 1382.45 840.442 1375.9 889.37L1372.11 893.91 1368.33 896.936 1362.28 897.693 1360.76 897.693C1359.25 903.746 1358.49 909.799 1358.49 915.852L1360.01 945.36 1366.06 970.328C1369.09 977.894 1367.82 985.713 1362.28 993.783L1356.98 997.567 1347.9 997.567C1352.44 1035.9 1362.78 1073.48 1378.92 1110.3L1369.84 1121.65 1366.06 1123.17 1346.39 1115.6 1362.28 1221.53 1380.44 1325.18 1381.19 1339.56 1366.82 1344.1 1350.17 1332.75C1355.72 1373.1 1365.3 1412.19 1378.92 1450.02L1372.87 1459.1 1369.09 1462.89 1359.25 1461.37 1335.04 1450.78 1353.95 1566.54 1340.33 1573.35 1320.66 1577.14 1310.07 1568.06 1308.55 1565.03 1295.69 1565.03 1291.9 1564.27 1282.07 1557.47 1275.26 1574.87 1249.53 1577.14 1215.48 1542.33 1197.32 1577.14C1192.28 1585.71 1184.96 1588.99 1175.38 1586.97L1159.49 1577.14 1157.22 1572.6 1176.14 1496.94C1169.58 1496.94 1164.53 1494.92 1161 1490.88L1157.97 1487.1 1157.22 1486.34 1149.65 1495.42 1148.89 1496.94 1129.98 1521.15 1089.87 1567.3C1080.29 1579.41 1068.18 1586.97 1053.55 1590L1040.69 1580.16 1039.18 1574.11 1040.69 1569.57 1044.47 1564.27 1060.36 1547.63C1083.57 1522.91 1099.96 1493.4 1109.55 1459.1L1117.11 1431.87 1101.98 1430.35 1096.68 1428.08 1095.17 1422.79 1103.49 1359.99 1092.9 1380.42C1081.3 1404.63 1064.9 1424.8 1043.72 1440.94L1029.34 1435.65 1030.85 1421.27C1045.99 1382.94 1059.1 1342.84 1070.2 1300.97L1080.04 1260.11 1085.33 1232.12 1091.39 1204.12 1104.25 1118.63 1112.57 1031.61 1106.52 1020.26 1104.25 1003.62C1102.74 1032.88 1095.93 1061.12 1083.82 1088.36L1078.52 1097.44C1071.97 1100.97 1066.92 1100.97 1063.39 1097.44L1058.85 1093.66C1053.3 1079.53 1051.54 1062.38 1053.55 1042.21 1059.1 986.722 1055.32 931.236 1042.2 875.751L1027.07 817.491 1015.72 784.957 1002.1 750.908 977.887 700.972 960.484 675.247 921.136 625.31 900.707 647.252C880.529 672.472 858.586 695.675 834.876 716.86L760.723 778.904 735.753 798.576 709.269 816.734 682.786 834.137C673.706 839.685 664.122 843.468 654.032 845.486L623.009 850.782 615.442 844.729 613.173 834.137 576.095 856.079 576.095 855.322C567.52 861.375 558.44 866.923 548.856 871.968 539.776 877.012 530.443 881.299 520.858 884.83L465.621 914.338 439.138 912.825 433.842 898.449 436.869 894.666 486.808 847.756 445.192 862.888C403.323 876.507 360.193 885.082 315.801 888.613L304.451 885.587 299.91 879.534 287.804 884.83 282.508 884.074 277.968 879.534 269.645 868.941 268.887 869.698 254.511 867.428 247.7 850.026 240.133 794.036 237.107 751.665 228.784 747.125 225 739.559C236.099 704.754 250.475 669.951 268.131 635.146L336.988 508.034 366.498 464.149 400.548 424.048 438.382 387.732 459.568 371.842C520.606 326.95 587.446 293.154 660.086 270.455L665.383 258.349 770.56 255.323Z" fill="#FFFFFF" fill-rule="evenodd"/><path d="M1196.77 372.931C1220.46 390.081 1241.38 408.996 1259.52 429.677 1281.7 454.393 1301.61 480.875 1319.25 509.123 1332.85 531.316 1343.69 554.771 1351.76 579.487L1358.56 603.699 1370.66 652.88 1378.22 699.033 1381.24 744.431C1383.76 792.35 1381.74 840.774 1375.19 889.702L1371.41 894.242 1367.63 897.268 1361.58 898.024 1360.07 898.024C1358.56 904.077 1357.8 910.13 1357.8 916.183L1359.32 945.692 1365.36 970.66C1368.39 978.226 1367.13 986.045 1361.58 994.115L1356.29 997.898 1347.22 997.898C1351.76 1036.23 1362.09 1073.81 1378.22 1110.63L1369.14 1121.98 1365.36 1123.5 1345.71 1115.93 1361.58 1221.86 1379.73 1325.51 1380.48 1339.89 1366.12 1344.43 1349.49 1333.08C1355.03 1373.43 1364.61 1412.53 1378.22 1450.36L1372.17 1459.44 1368.39 1463.22 1358.56 1461.71 1334.37 1451.11 1353.27 1566.88 1339.66 1573.69 1320 1577.47 1309.42 1568.39 1307.91 1565.36 1295.05 1565.36 1291.27 1564.61 1281.45 1557.8 1274.64 1575.2 1248.94 1577.47 1214.92 1542.66 1196.77 1577.47C1191.73 1586.04 1184.42 1589.32 1174.85 1587.31L1158.97 1577.47 1156.7 1572.93 1175.6 1497.27C1169.05 1497.27 1164.01 1495.25 1160.48 1491.21L1157.46 1487.43 1156.7 1486.67 1149.14 1495.75 1148.39 1497.27 1129.49 1521.48 1089.42 1567.63C1079.84 1579.74 1067.74 1587.31 1053.13 1590.33L1040.28 1580.5 1038.76 1574.44 1040.28 1569.9 1044.06 1564.61 1059.93 1547.96C1083.12 1523.24 1099.5 1493.74 1109.07 1459.44L1116.63 1432.2 1101.51 1430.69 1096.22 1428.41 1094.71 1423.12 1103.03 1360.32 1092.44 1380.75C1080.85 1404.96 1064.47 1425.14 1043.3 1441.28L1028.94 1435.98 1030.45 1421.61C1045.57 1383.27 1058.67 1343.17 1069.76 1301.3L1079.59 1260.45 1084.88 1232.45 1090.93 1204.46 1103.78 1118.96 1112.1 1031.95 1106.05 1020.6 1103.78 1003.95C1102.27 1033.21 1095.47 1061.45 1083.37 1088.69L1078.08 1097.77C1071.53 1101.3 1066.49 1101.3 1062.96 1097.77L1058.42 1093.99C1052.88 1079.87 1051.11 1062.72 1053.13 1042.54 1058.67 987.054 1054.89 931.568 1041.79 876.083L1026.67 817.823 1015.33 785.289 1001.72 751.24 977.527 701.304 960.139 675.578 920.825 625.642 900.413 647.583C880.253 672.804 858.329 696.007 834.64 717.192L760.55 779.236 735.602 798.908 709.141 817.066 682.68 834.468C673.608 840.017 664.032 843.8 653.952 845.818L622.955 851.114 615.395 845.061 613.127 834.468 576.082 856.411 576.082 855.654C567.514 861.707 558.442 867.255 548.866 872.299 539.794 877.344 530.47 881.631 520.893 885.162L465.703 914.67 439.243 913.157 433.951 898.781 436.976 894.998 486.872 848.088 445.291 863.22C403.459 876.839 360.366 885.414 316.013 888.945L304.672 885.919 300.136 879.866 288.039 885.162 282.748 884.405 278.212 879.866 269.896 869.273 269.139 870.03 254.776 867.76 247.971 850.358 240.41 794.368 237.387 751.997 229.071 747.457 225.29 739.891C236.379 705.086 250.743 670.283 268.384 635.477L337.182 508.365 366.666 464.481 400.687 424.38 438.488 388.063 459.655 372.174C520.641 327.281 587.423 293.486 660 270.787L665.293 258.681 770.379 255.654 781.719 247.332 820.276 251.114 907.218 267.76 960.139 279.866 1013.06 294.241 1064.47 308.618 1106.05 323.751C1129.74 332.325 1151.91 343.422 1172.58 357.041L1196.77 372.931M1365.36 836.738 1366.88 791.342 1362.34 702.06 1355.54 655.906 1342.68 608.996C1335.12 585.793 1325.8 563.347 1314.71 541.657L1274.64 477.344 1228.52 422.111C1215.42 409.501 1201.56 397.899 1186.94 387.306 1171.32 375.705 1155.19 366.121 1138.56 358.554L1059.18 325.264 1008.52 309.374 956.359 294.999 904.194 282.893 818.008 267.004 783.987 262.465 786.255 272.3 675.12 270.031 707.629 273.813 678.901 282.137 622.2 301.808 594.227 313.158 567.766 326.02 516.356 354.772C493.172 369.399 471.248 385.793 450.584 403.952L381.786 475.831 327.353 558.303C294.593 616.309 265.36 676.082 239.655 737.622L248.727 738.378 281.236 699.033 265.36 733.082C256.791 757.293 253.012 782.766 254.019 809.5 254.524 826.146 257.8 841.782 263.848 856.411L283.503 821.606 288.039 870.786 297.869 838.252C305.428 826.65 316.013 819.336 329.621 816.31L339.449 814.796 345.497 814.04 344.741 816.31 313.744 874.569 387.835 859.437 461.167 842.035 508.041 822.362 554.914 802.69 585.91 783.018 448.316 901.808 458.9 898.024 514.089 873.056C532.233 863.977 550.126 853.888 567.766 842.791 589.438 830.686 610.607 817.823 631.272 804.204L692.508 764.859 714.434 749.727 629.76 835.982 638.076 834.468 638.831 835.225 647.148 839.008 700.069 804.96 750.722 767.13 799.863 727.029 846.736 683.145 880.001 646.07 910.997 605.97 912.51 607.483 935.946 632.451 966.187 670.283 980.551 689.954 992.647 709.626 1013.06 751.997C1026.16 782.766 1037.25 814.293 1046.32 846.574 1055.9 880.37 1062.96 914.922 1067.49 950.231L1071.27 1002.44 1070.52 1085.67 1076.56 1061.45 1088.66 989.576 1090.93 941.152 1084.88 851.871 1084.13 846.574 1105.29 932.829 1120.41 1019.84 1127.22 1026.65 1124.95 1056.91 1118.9 1117.44 1100.76 1235.48C1093.7 1272.8 1083.87 1309.88 1071.27 1346.7L1041.03 1426.9C1061.7 1405.72 1077.83 1382.01 1089.42 1355.78L1106.05 1307.36 1122.68 1242.29 1124.19 1258.93 1137.8 1208.24 1149.9 1159.82 1152.17 1151.49 1148.39 1174.19 1137.05 1246.07 1108.32 1420.09 1112.85 1398.91 1118.9 1395.12 1130.24 1366.37 1143.1 1339.89 1142.34 1380.75 1138.56 1411.77C1134.53 1442.03 1125.45 1470.28 1111.34 1496.51L1084.88 1538.12 1053.88 1575.96 1096.98 1533.59 1137.05 1488.94 1155.19 1462.46 1168.8 1477.59 1172.58 1482.89 1173.33 1460.95 1192.24 1493.48 1171.07 1568.39 1177.87 1572.93 1184.68 1572.17 1210.38 1516.94 1254.99 1563.85 1264.81 1563.85 1267.08 1554.01 1243.64 1522.99 1248.94 1509.37 1279.18 1556.28 1281.45 1529.8 1297.32 1550.99 1306.39 1550.99 1305.64 1519.21 1321.51 1558.55 1323.78 1559.31 1338.9 1561.58 1307.15 1386.04 1310.93 1391.34 1342.68 1439.01 1362.34 1450.36C1349.23 1412.53 1340.16 1374.19 1335.12 1335.35L1330.59 1290.71 1354.78 1315.68 1368.39 1330.05 1354.78 1275.58C1347.72 1248.84 1342.43 1220.34 1338.9 1190.08L1329.83 1102.31 1329.07 1088.69 1351 1101.56 1363.1 1109.12 1344.95 1056.91 1331.34 992.602 1329.83 949.475 1345.71 975.956 1350.24 983.523 1341.93 915.427 1350.24 828.415 1360.83 883.649 1365.36 836.738M319.793 835.982 310.72 845.818 303.917 861.707 319.793 835.982" fill="#888888" fill-rule="evenodd"/><path d="M248.29 738.577 294.422 653.88 309.547 655.392 264.928 733.284 280.809 699.253 248.29 738.577M297.447 838.4 294.422 827.056 324.672 796.807 345.847 804.369 339.041 814.957 329.21 816.469C315.597 819.494 305.01 826.804 297.447 838.4M554.576 802.857 663.478 710.597 625.665 759.752C612.556 775.884 598.439 791.261 583.314 805.882 568.693 820.502 553.316 834.114 537.182 846.718L485.756 882.261 458.531 898.142 447.943 901.923 585.583 783.195 554.576 802.857M692.216 765.045 774.649 693.96 760.28 718.159C746.667 740.341 729.525 761.012 708.854 780.17L701.291 780.926 683.141 801.344C674.066 812.94 663.478 822.267 651.378 829.325L638.521 835.375 637.765 834.619 629.447 836.131 714.148 749.92 692.216 765.045M912.288 607.749 932.707 566.157 941.027 563.888 935.732 632.705 912.288 607.749M1084.72 852.012 1080.18 836.887 1069.59 771.852 1083.96 846.718 1084.72 852.012M1137.65 1208.2 1142.19 1156.77 1140.68 1140.14 1158.83 1080.39 1149.76 1159.8 1137.65 1208.2M1148.24 1174.17 1139.17 1255.84 1136.9 1246.01 1148.24 1174.17M1130.09 1366.25 1153.54 1243.74 1142.19 1380.62 1142.95 1339.78 1130.09 1366.25M1136.9 1488.76 1161.86 1386.67 1168.66 1477.41 1155.05 1462.29 1136.9 1488.76M1297.23 1550.77 1299.5 1449.43 1310.08 1461.53 1321.43 1558.33 1305.55 1519.01 1306.3 1550.77 1297.23 1550.77M1310.84 1391.2 1300.25 1304.99 1342.6 1438.85 1310.84 1391.2M1330.5 1290.63 1322.94 1184.75 1354.7 1315.58 1330.5 1290.63M1329.75 1102.32 1313.86 1021.41 1350.92 1101.57 1328.99 1088.71 1329.75 1102.32M1331.26 992.671 1325.21 965.447 1323.7 978.302 1319.16 898.142 1345.63 976.034 1329.75 949.565 1331.26 992.671M1341.85 915.535 1338.82 896.629 1333.53 890.579 1333.53 780.17 1349.41 776.389 1365.29 836.887 1360.75 883.773 1350.17 828.569 1341.85 915.535M965.983 507.927 976.571 458.016C980.605 432.808 979.848 408.609 974.302 385.418 968.756 360.209 960.185 336.515 948.589 314.331L963.715 333.994 983.377 374.074C991.948 396.257 994.217 418.691 990.184 441.378 986.655 464.065 978.587 486.248 965.983 507.927M814.73 436.841 813.218 438.353 814.73 436.085 814.73 436.841M885.819 503.39 893.382 501.121 888.844 503.39 885.819 504.145 885.819 503.39M1265.46 1010.06 1264.71 938.978 1301.01 1219.54 1298.74 1221.81 1293.45 1218.03 1281.35 1149.21 1269.24 1061.49C1267.23 1044.35 1265.97 1027.2 1265.46 1010.06M1168.66 833.862C1182.78 856.549 1190.09 880.244 1190.59 904.948L1188.32 942.003 1172.44 1014.6 1173.96 989.646 1176.98 908.729 1168.66 833.862M1225.38 609.262 1201.94 547.25 1238.99 606.237 1253.36 647.073 1273.78 727.99 1285.13 799.832 1271.51 752.945 1257.14 705.303 1225.38 609.262M1230.68 647.83 1246.56 695.472 1257.9 745.384 1263.95 794.539 1263.95 819.494 1211.01 600.943 1230.68 647.83M1266.22 576.743 1279.83 622.117 1284.37 644.805 1285.88 692.447 1284.37 737.821 1277.56 682.616 1272.27 647.83 1254.88 579.012 1232.19 509.44C1246.3 530.613 1257.65 553.049 1266.22 576.743M1230.68 1019.14 1223.87 1093.25 1212.52 1141.65 1232.94 944.272 1230.68 1019.14M1279.83 1388.18 1273.03 1419.18 1244.29 1273.23 1273.78 1395.74 1279.83 1388.18M1234.46 1441.12 1241.26 1457.75 1238.24 1464.56 1234.46 1441.12M1207.23 1461.53 1203.45 1447.92 1180.76 1379.1 1196.64 1416.16 1179.25 1332.97 1228.41 1523.54 1207.99 1460.78 1207.23 1461.53M469.119 571.45C456.01 589.6 442.145 606.993 427.524 623.63L379.88 672.029 342.822 697.74 407.104 635.73 469.119 571.45M376.098 632.705 430.549 552.545 452.481 528.345 376.098 632.705M441.893 489.778 414.667 538.933 368.535 615.312 374.585 598.675 396.518 551.032C408.113 529.858 423.239 509.44 441.893 489.778M761.036 634.973 690.703 690.935 641.546 711.353 761.036 634.973M737.592 556.325 724.735 580.525C712.131 603.716 697.258 625.394 680.116 645.56L644.571 684.129C622.892 704.295 600.456 722.948 577.264 740.09L737.592 556.325" fill="#DDDDDD" fill-rule="evenodd"/><path d="M248.364 738.067 239.29 737.311C265.001 675.795 294.24 616.044 327.008 558.059L381.455 475.619 450.269 403.766C470.938 385.614 492.867 369.226 516.057 354.604L567.479 325.863 593.945 313.006 621.925 301.66 678.64 281.997 707.375 273.676 674.858 269.895 786.019 272.163 783.751 262.332 817.779 266.869 903.986 282.752 956.164 294.854 1008.34 309.224 1059.01 325.108 1138.41 358.386C1155.04 365.949 1171.18 375.53 1186.8 387.127 1201.42 397.715 1215.29 409.313 1228.39 421.918L1274.52 477.131 1314.6 541.42C1325.69 563.101 1335.02 585.54 1342.58 608.734L1355.43 655.626 1362.24 701.763 1366.78 791.011 1365.27 836.391 1349.38 775.884 1333.51 779.665 1333.51 890.091 1338.8 896.142 1341.82 915.05 1350.14 983.12 1345.6 975.557 1319.14 897.654 1323.68 977.826 1325.19 964.968 1331.24 992.197 1344.85 1056.49 1363 1108.67 1350.9 1101.11 1313.84 1020.94 1329.72 1101.86 1338.8 1189.6C1342.33 1219.85 1347.62 1248.34 1354.68 1275.07L1368.29 1329.52 1354.68 1315.15 1322.92 1184.31 1330.48 1290.19 1335.02 1334.82C1340.06 1373.64 1349.13 1411.96 1362.24 1449.78L1342.58 1438.44 1300.23 1304.56 1310.82 1390.79 1307.04 1385.49 1338.8 1560.96 1323.68 1558.69 1321.41 1557.94 1310.06 1461.13 1299.48 1449.02 1297.21 1550.37 1281.33 1529.2 1279.06 1555.67 1248.81 1508.77 1243.52 1522.39 1266.96 1553.4 1264.69 1563.23 1254.86 1563.23 1210.24 1516.34 1184.53 1571.55 1177.73 1572.31 1170.92 1567.77 1192.1 1492.89 1173.19 1460.37 1172.44 1482.3 1168.65 1477.01 1161.85 1386.25 1136.89 1488.35 1096.82 1532.98 1053.71 1575.33 1084.72 1537.52 1111.18 1495.92C1125.3 1469.7 1134.37 1441.46 1138.41 1411.21L1142.19 1380.2 1153.53 1243.3 1130.09 1365.83 1118.75 1394.57 1112.7 1398.35 1108.16 1419.53 1136.89 1245.57 1139.16 1255.4 1148.24 1173.72 1152.02 1151.03 1149.75 1159.35 1158.82 1079.93 1140.68 1139.68 1142.19 1156.32 1137.65 1207.75 1124.04 1258.43 1122.53 1241.79 1105.89 1306.83 1089.25 1355.24C1077.66 1381.46 1061.53 1405.16 1040.86 1426.33L1071.11 1346.16C1083.71 1309.35 1093.54 1272.29 1100.6 1234.98L1118.75 1116.99 1124.8 1056.49 1127.06 1026.23 1120.26 1019.43 1105.13 932.446 1083.96 846.223 1069.59 771.346 1080.18 836.391 1084.72 851.518 1090.77 940.765 1088.5 989.171 1076.4 1061.02 1070.35 1085.23 1071.11 1002.03 1067.32 949.841C1062.79 914.546 1055.73 880.006 1046.15 846.223 1037.08 813.953 1025.98 782.439 1012.88 751.681L992.46 709.326 980.361 689.661 965.994 669.997 935.746 632.18 941.04 563.353 932.721 565.623 912.304 607.221 910.792 605.708 879.788 645.794 846.515 682.854 799.631 726.722 750.478 766.808 699.813 804.624 646.879 838.66 638.561 834.878 651.417 828.828C663.516 821.768 674.103 812.441 683.177 800.843L701.325 780.422 708.887 779.665C729.557 760.505 746.697 739.832 760.309 717.646L774.676 693.443 692.25 764.539 631 803.868C610.33 817.483 589.156 830.34 567.479 842.442 549.835 853.534 531.938 863.619 513.789 872.695L458.587 897.654 485.81 881.771 537.231 846.223C553.363 833.618 568.739 820.004 583.359 805.381 598.482 790.758 612.598 775.38 625.706 759.245L663.516 710.083 554.624 802.356 507.739 822.021 460.855 841.685 387.505 859.081 313.397 874.208 344.401 815.97 345.157 813.7 339.108 814.457 345.913 803.868 324.74 796.305 294.492 826.559 297.517 837.904 287.686 870.426 283.149 821.264 263.489 856.056C257.439 841.433 254.162 825.802 253.657 809.162 252.65 782.439 256.43 756.975 265.001 732.773L309.616 654.87 294.492 653.358 248.364 738.067M885.837 502.847 885.837 503.603 888.862 502.847 893.399 500.577 885.837 502.847M814.755 436.289 814.755 435.533 813.242 437.801 814.755 436.289M965.994 507.385C978.597 485.702 986.664 463.517 990.193 440.826 994.226 418.136 991.957 395.699 983.386 373.512L963.726 333.427 948.602 313.762C960.196 335.948 968.767 359.646 974.313 384.858 979.857 408.052 980.614 432.255 976.581 457.466L965.994 507.385M1266.2 576.21C1257.63 552.513 1246.29 530.074 1232.18 508.897L1254.86 578.48 1272.25 647.307 1277.55 682.099 1284.35 737.311 1285.86 691.931 1284.35 644.281 1279.82 621.591 1266.2 576.21M1230.66 647.307 1211 600.413 1263.94 818.995 1263.94 794.036 1257.89 744.875 1246.54 694.956 1230.66 647.307M1225.37 608.734 1257.13 704.788 1271.5 752.437 1285.11 799.33 1273.77 727.478 1253.35 646.55 1238.98 605.708 1201.93 546.714 1225.37 608.734M1168.65 833.365 1176.97 908.243 1173.95 989.171 1172.44 1014.13 1188.32 941.522 1190.58 904.461C1190.08 879.754 1182.77 856.056 1168.65 833.365M1265.45 1009.59C1265.95 1026.74 1267.21 1043.88 1269.23 1061.02L1281.33 1148.76 1293.43 1217.59 1298.72 1221.37 1300.99 1219.1 1264.69 938.496 1265.45 1009.59M1230.66 1018.67 1232.93 943.791 1212.51 1141.19 1223.86 1092.79 1230.66 1018.67M1279.82 1387.76 1273.77 1395.32 1244.27 1272.8 1273.01 1418.77 1279.82 1387.76M1234.44 1440.7 1238.22 1464.15 1241.25 1457.34 1234.44 1440.7M1207.22 1461.13 1207.98 1460.37 1228.39 1523.14 1179.24 1332.55 1196.63 1415.75 1180.75 1378.68 1203.44 1447.51 1207.22 1461.13M441.95 489.232C423.297 508.897 408.173 529.318 396.579 550.496L374.649 598.145 368.599 614.785 414.727 538.394 441.95 489.232M376.161 632.18 452.537 527.806 430.608 552.009 376.161 632.18M469.173 570.917 407.165 635.205 342.888 697.225 379.942 671.51 427.583 623.104C442.202 606.464 456.066 589.069 469.173 570.917M737.623 555.79 577.309 739.58C600.5 722.436 622.933 703.78 644.61 683.611L680.152 645.037C697.292 624.869 712.164 603.187 724.767 579.993L737.623 555.79M761.065 634.448 641.586 710.839 690.738 690.418 761.065 634.448" fill="#FFFFFF" fill-rule="evenodd"/></g></svg>
