<svg width="1761" height="1761" xmlns="http://www.w3.org/2000/svg" xmlns:xlink="http://www.w3.org/1999/xlink" overflow="hidden"><defs><clipPath id="clip0"><rect x="0" y="0" width="1761" height="1761"/></clipPath></defs><g clip-path="url(#clip0)"><path d="M1211.36 1279.69 1235.78 1372.72 1239.73 1359.28 1252.1 1300.73 1239.73 1359.28 1235.78 1372.72ZM1199.01 1257.34 1104.54 1551.36 1104.54 1551.36ZM1270.96 1206.54 1270.96 1206.54 1295.08 1245.45 1295.08 1245.45ZM1323.2 1198.58 1348.84 1232.02 1323.2 1198.58ZM1490.35 1177.47 1490.35 1177.47 1597.87 1238.34 1597.87 1238.34ZM1442.13 1154.55 1442.13 1154.55 1490.35 1176.68ZM1368.99 1128.98 1490.35 1237.55 1490.35 1237.55ZM1024.3 1063.84 1024.3 1063.84 1027.07 1084.31 1037.52 1161.52 1037.52 1161.52 1027.07 1084.31ZM1490.35 1046.26 1490.35 1046.26 1492.72 1049.42 1493.52 1049.42 1548.07 1102.38 1598.66 1160.87C1622.38 1189.33 1645.57 1220.95 1668.24 1255.73 1645.57 1220.95 1622.38 1189.33 1598.66 1160.87L1548.07 1102.38 1493.52 1049.42 1492.72 1049.42ZM586.194 993.323 587.496 995.666 587.496 995.666 586.195 993.323ZM1091.1 934.801 1102.96 1005.94 1105.33 1022.54 1116.4 1155.34 1121.94 1278.65 1121.94 1278.65 1116.4 1155.34 1105.33 1022.54 1102.96 1005.94ZM189.285 835.498 155.042 843.897 155.043 843.897ZM1527.51 822.313 1527.51 822.313 1568.62 855.754 1586.77 866.952 1586.77 866.951 1568.62 855.754ZM645.21 821.764C641.257 839.418 638.621 857.335 637.304 875.515L636.513 890.534 636.513 1023.33 636.513 1023.33 636.513 890.534 637.304 875.515C638.621 857.335 641.257 839.418 645.21 821.764ZM224.623 818.058 216.99 822.781 220.068 821.368ZM256.041 801.804C247.212 811.685 237.001 820.446 225.405 828.087 201.687 843.897 175.861 853.119 147.927 855.754L139.231 856.544 139.23 856.544 147.927 855.754C175.861 853.119 201.687 843.897 225.405 828.088 237.001 820.446 247.212 811.685 256.041 801.804ZM249.78 798.949 242.838 804.819 247.393 801.508ZM365.978 774.858 365.976 774.859 336.878 830.459 329.409 848.195 329.409 848.196 336.878 830.459ZM277.9 769.277 271.259 775.917 271.252 775.925 271.26 775.917ZM970.933 750.622C998.341 793.834 1027.59 835.465 1058.69 875.516L1091.1 915.829 1104.56 931.706 1107.17 934.777 1107.17 934.777 1104.56 931.706 1091.1 915.829 1058.69 875.515C1027.59 835.465 998.341 793.833 970.933 750.622ZM954.652 744.003 977.616 835.844 954.653 744.003ZM477.256 714.09 404.869 964.047 400.126 945.867 396.209 919.907 400.126 945.867 404.869 964.048ZM467.796 708.655 440.643 753.388C431.815 771.832 424.634 791.462 419.1 812.278L406.45 875.515 400.916 937.073 406.451 875.515 419.1 812.278C424.634 791.462 431.816 771.832 440.644 753.388ZM702.132 698.452 875.272 1086.57 875.271 1086.57 702.133 698.452ZM702.132 698.451 644.419 1054.16 702.132 698.452ZM839.349 697.774 862.623 745.089 891.27 841.54 891.27 841.54 862.623 745.089 839.349 697.774ZM883.178 305.59 973.305 321.399 1058.69 343.532 1180.44 379.104C1206.27 388.061 1231.04 399.128 1254.76 412.303L1274.52 424.951 1312.47 460.521 1332.23 485.026 1312.47 460.521 1274.52 424.951 1254.76 412.303C1231.04 399.128 1206.27 388.061 1180.44 379.104L1058.69 343.532 973.305 321.399 883.181 305.59ZM892.319 286.52C956.851 288.694 1021.53 297.685 1086.36 313.494 1146.97 327.723 1203.1 350.12 1254.76 380.685L1310.89 424.951 1312.47 426.531C1331.97 443.395 1349.36 462.893 1364.65 485.026L1382.04 510.321 1421.57 556.958 1476.12 628.89 1492.72 650.233 1492.72 654.185 1549.65 739.555C1574.42 775.39 1599.72 810.433 1625.54 844.687L1635.03 857.335 1675.35 910.296 1678.51 915.829 1672.19 929.267 1540.95 856.544 1548.86 877.096 1583.64 968.79 1635.82 1112.65 1662.7 1196.44 1688 1284.19 1676.93 1293.67 1569.41 1161.66 1623.17 1252.57 1621.59 1260.47 1616.85 1264.42 1490.35 1203.56 1490.35 1202.77 1488.77 1201.98 1492.72 1210.67 1492.72 1217 1511.7 1262.84 1509.33 1269.96 1503 1272.33 1490.35 1260.47 1490.35 1258.89 1430.27 1215.42 1442.92 1255.73 1419.99 1264.42 1363.07 1220.95 1383.62 1278.65 1379.67 1285.77 1369.39 1286.56 1313.26 1221.74 1311.68 1277.07 1306.14 1281.81 1297.45 1280.23 1278.47 1255.73 1246.85 1401.96 1231.83 1408.29 1204.16 1331.61 1105.33 1595.63 1092.68 1598 1090.31 1579.82 1093.48 1484.96 1096.64 1399.59 1097.43 1301.58 1095.06 1203.56 1088.73 1105.54 1080.83 1021.75 1065.8 949.029C1056.84 937.435 1048.15 922.943 1039.72 905.553L1023.9 875.516 1009.67 851.011 993.861 828.088 1002.56 875.516 1032.6 1044.67 1060.27 1215.42 1079.24 1359.28 1080.04 1367.98 1065.8 1373.51 887.921 875.516 887.13 874.725 887.13 875.516 881.596 1126.09C852.081 1061.8 811.233 978.276 759.054 875.516L708.456 777.498 654.697 1102.38 638.884 1097.64 609.633 969.581 606.47 1033.61 600.146 1038.35 592.24 1037.56 516.342 875.516 513.972 871.563 513.181 869.982 485.51 781.45 415.147 1000.41 400.126 999.619 365.34 824.925 340.041 875.516C314.742 936.645 295.241 1018.59 281.537 1121.35L279.166 1120.56 260.982 998.037 257.819 964.838 253.867 875.516 253.076 843.897 128.162 871.563 125 860.497 147.927 835.202 165.32 814.65C184.294 794.098 201.687 772.228 217.499 749.041 239.635 716.368 259.927 682.378 278.375 647.071L323.439 564.073C338.724 536.143 357.434 510.321 379.57 486.606L382.733 482.655C437.547 424.687 503.957 378.313 581.962 343.533 659.44 308.226 741.398 289.254 827.837 286.619 849.314 285.828 870.808 285.795 892.319 286.52Z" fill="#FFFFFF" fill-rule="evenodd"/><path d="M1461.24 1193.52 1441.47 1155.55 1489.7 1177.7 1489.7 1178.49 1597.22 1239.41 1583.78 1221.21 1546.62 1165.84 1492.07 1075.65 1489.7 1070.91 1489.7 1067.74 1458.87 1024.23 1489.7 1045.59 1489.7 1047.18 1492.07 1050.34 1492.86 1050.34 1547.41 1103.34 1598.01 1161.88C1621.73 1190.36 1644.92 1222 1667.58 1256.81L1647.03 1184.03C1632.27 1134.98 1616.46 1086.73 1599.59 1039.26L1553.74 926.142 1532.39 877.887 1497.61 798.781 1521.32 818.557C1536.08 831.741 1551.63 844.399 1567.97 856.529L1605.13 879.469 1622.52 889.753C1632.01 895.554 1642.02 900.828 1652.56 905.575L1631.22 880.26 1586.94 824.095 1526.86 738.659 1492.07 685.658 1489.7 680.911 1489.7 677.748 1471.52 653.224 1408.27 565.415 1360.04 502.13 1311.82 442.801C1297.59 425.924 1278.35 410.103 1254.1 395.336 1225.64 380.042 1191.12 365.803 1150.54 352.619 1069.37 325.722 980.031 310.164 882.525 305.945 799.776 298.562 714.656 311.219 627.164 343.917 539.671 376.614 479.323 408.521 446.117 439.636L395.52 487.099C376.545 507.14 359.943 529.29 345.713 553.55 324.63 588.884 305.92 626.064 289.58 665.09 273.242 705.171 251.632 741.296 224.752 773.466 203.67 799.308 180.215 823.04 154.389 844.662L138.577 857.32 147.274 856.529C175.208 853.892 201.034 844.662 224.752 828.841 247.943 813.547 265.6 793.77 277.722 769.511L274.559 1025.82 280.094 1072.49C281.148 1011.84 290.899 953.566 309.345 897.664L317.251 876.305 336.225 831.214 371.802 763.183 399.473 946.71 404.216 964.905 480.903 699.897 578.937 982.308 586.843 996.547 576.565 876.305 574.985 764.764 580.519 699.106C587.898 701.215 592.114 707.281 593.169 717.301L612.933 876.305 627.955 985.473 631.116 1005.25 635.861 1024.23 643.767 1055.09 701.479 699.106 874.619 1087.52 871.457 985.473C869.349 950.138 866.45 914.804 862.76 879.469L862.76 876.305 850.111 786.915 838.251 697.524 861.97 745.779 900.708 876.305C943.401 1012.9 995.052 1153.18 1055.66 1297.15L1048.55 1248.9C1035.9 1127.6 1015.34 1003.4 986.883 876.305L946.563 714.927 963.165 737.078 970.281 751.316C997.688 794.561 1026.94 836.224 1058.04 876.305L1090.45 916.65 1222.48 1072.49 1254.1 1108.88 1311.82 1185.61 1348.18 1233.08 1311.82 1158.72 1282.56 1094.64 1254.1 1031.35 1232.76 987.846C1215.36 951.457 1200.61 914.276 1188.48 876.305L1176.63 836.751 1185.32 847.036 1241.45 930.098 1198.76 891.336 1240.66 987.055 1271.5 1053.5C1280.46 1081.98 1293.9 1108.35 1311.82 1132.61L1320.51 1144.48C1350.03 1182.45 1384.02 1214.62 1422.5 1240.99L1410.64 1222.79 1349.76 1123.12C1348.18 1119.95 1349.76 1118.11 1354.51 1117.58L1489.7 1238.61 1461.24 1193.52M1322.09 989.428 1311.82 967.278C1299.69 940.381 1290.73 911.639 1284.94 881.052L1284.15 876.305 1271.5 807.483C1277.82 830.687 1284.94 853.628 1292.84 876.305L1311.82 930.098C1327.63 973.343 1345.55 1015.8 1365.58 1057.46L1333.95 1024.23 1350.56 1039.26 1322.09 989.428M1311.82 426.978C1331.32 443.855 1348.71 463.368 1364 485.518L1381.39 510.832 1420.92 557.505 1475.47 629.492 1492.07 650.851 1492.07 654.806 1548.99 740.241C1573.77 776.103 1599.06 811.173 1624.89 845.453L1634.38 858.111 1674.7 911.112 1677.86 916.65 1671.54 930.098 1540.3 857.32 1548.2 877.887 1582.99 969.651 1635.17 1113.62 1662.05 1197.48 1687.35 1285.29 1676.28 1294.78 1568.76 1162.67 1622.52 1253.64 1620.94 1261.55 1616.19 1265.51 1489.7 1204.6 1489.7 1203.81 1488.12 1203.02 1492.07 1211.72 1492.07 1218.05 1511.05 1263.93 1508.67 1271.05 1502.35 1273.42 1489.7 1261.55 1489.7 1259.97 1429.61 1216.46 1442.26 1256.81 1419.34 1265.51 1362.41 1222 1382.97 1279.75 1379.02 1286.87 1368.74 1287.66 1312.61 1222.79 1311.03 1278.17 1305.49 1282.91 1296.79 1281.33 1277.82 1256.81 1246.2 1403.16 1231.18 1409.48 1203.51 1332.75 1104.68 1596.97 1092.03 1599.34 1089.66 1581.15 1092.82 1486.22 1095.99 1400.78 1096.78 1302.69 1094.4 1204.6 1088.08 1106.51 1080.17 1022.65 1065.15 949.874C1056.19 938.272 1047.5 923.769 1039.06 906.366L1023.25 876.305 1009.02 851.782 993.208 828.841 1001.9 876.305 1031.95 1045.59 1059.62 1216.46 1078.59 1360.44 1079.38 1369.14 1065.15 1374.68 887.268 876.305 886.478 875.514 886.478 876.305 880.944 1127.07C851.428 1062.73 810.58 979.144 758.401 876.305L707.804 778.213 654.044 1103.34 638.232 1098.59 608.98 970.442 605.817 1034.52 599.493 1039.26 591.587 1038.47 515.689 876.305 513.319 872.35 512.528 870.768 484.857 782.167 414.494 1001.29 399.473 1000.5 364.687 825.676 339.388 876.305C314.089 937.481 294.588 1019.49 280.884 1122.33L278.513 1121.54 260.329 998.92 257.166 965.696 253.214 876.305 252.423 844.662 127.509 872.35 124.347 861.275 147.274 835.96 164.667 815.393C183.642 794.825 201.034 772.939 216.846 749.734 238.982 717.036 259.274 683.021 277.722 647.687L322.786 564.625C338.071 536.673 356.781 510.832 378.917 487.099L382.08 483.145C436.894 425.133 503.304 378.724 581.31 343.917 658.787 308.583 740.745 289.597 827.184 286.959 913.094 283.796 999.269 292.76 1085.71 313.855 1146.32 328.095 1202.45 350.509 1254.1 381.097L1310.24 425.397 1311.82 426.978M1259.64 1190.36 1294.42 1246.52 1288.89 1168.21 1090.45 935.635 1102.31 1006.83 1104.68 1023.44 1115.75 1156.34 1121.28 1279.75 1120.49 1365.98 1114.17 1471.98 1103.89 1552.67 1201.92 1247.32 1235.13 1373.89 1239.08 1360.44 1254.1 1289.24 1254.89 1285.29C1260.16 1254.17 1261.75 1222.53 1259.64 1190.36" fill="#888888" fill-rule="evenodd"/><path d="M882.347 306.34C979.846 310.555 1069.18 326.099 1150.34 352.972 1190.92 366.145 1225.44 380.371 1253.9 395.651 1278.14 410.405 1297.38 426.213 1311.61 443.074L1359.83 502.352 1408.05 565.58 1471.29 653.311 1489.48 677.813 1489.48 680.974 1491.85 685.717 1526.63 738.67 1586.71 824.03 1630.98 880.146 1652.33 905.438C1641.79 900.696 1631.77 895.427 1622.29 889.631L1604.89 879.356 1567.74 856.435C1551.4 844.316 1535.85 831.67 1521.1 818.497L1497.38 798.739 1532.17 877.775 1553.51 925.987 1599.36 1039.01C1616.23 1086.43 1632.04 1134.64 1646.79 1183.65L1667.35 1256.36C1644.68 1221.58 1621.5 1189.97 1597.78 1161.52L1547.19 1103.03 1492.64 1050.08 1491.85 1050.08 1489.48 1046.91 1489.48 1045.33 1458.65 1023.99 1489.48 1067.46 1489.48 1070.62 1491.85 1075.37 1546.4 1165.47 1583.55 1220.79 1596.99 1238.97 1489.48 1178.11 1489.48 1177.32 1441.25 1155.19 1461.02 1193.13 1354.3 1117.26C1349.55 1117.78 1347.97 1119.63 1349.55 1122.79L1410.42 1222.38 1313.98 1117.26 1311.61 1114.89C1300.54 1101.19 1291.58 1086.43 1284.73 1070.62L1271.29 1053.24 1240.46 986.846 1253.9 994.749 1311.61 1032.69 1340.07 1051.66C1347.44 1056.4 1355.88 1058.24 1365.36 1057.19 1345.34 1015.56 1327.42 973.146 1311.61 929.939L1292.63 876.194C1284.73 853.537 1277.61 830.617 1271.29 807.433L1283.94 876.194 1284.73 880.937C1290.53 911.497 1299.48 940.214 1311.61 967.086L1321.88 989.217 1185.12 846.951 1176.43 836.676 1188.28 876.194C1200.4 914.132 1215.16 951.279 1232.55 987.636L1253.9 1031.11 1282.36 1094.34 1311.61 1158.35 1347.97 1232.65 1311.61 1185.23 1253.9 1108.56 1222.28 1072.21 1090.26 916.503 1057.85 876.194C1026.75 836.149 997.502 794.523 970.096 751.317L962.982 737.09 898.949 586.92 1148.76 823.24 1101.33 639.084 1130.58 655.682C1166.41 675.178 1204.09 690.194 1243.62 700.733L1253.9 703.104C1273.4 706.792 1292.63 704.158 1311.61 695.2 1332.69 686.243 1348.5 669.646 1359.04 645.407 1375.9 602.201 1373.53 560.312 1351.92 519.739L1332.16 487.334 1331.37 485.754 1311.61 461.251 1273.66 425.686 1253.9 413.04C1230.18 399.867 1205.41 388.801 1179.59 379.845L1057.85 344.278 972.468 322.147 882.347 306.34M1102.12 1006.6 1259.43 1189.97C1261.54 1222.11 1259.96 1253.73 1254.69 1284.81L1253.9 1288.77 1238.88 1359.9C1240.46 1321.96 1235.45 1285.08 1223.86 1249.25L1189.07 1153.61C1174.32 1223.69 1160.35 1293.51 1147.18 1363.06 1140.32 1400.47 1129.26 1436.56 1113.97 1471.34L1120.3 1365.43 1121.09 1279.28 1115.55 1155.98 1104.49 1023.2 1102.12 1006.6" fill="#EEEEEE" fill-rule="evenodd"/><path d="M882.511 306.378 972.642 322.182 1058.03 344.309 1179.79 379.87C1205.61 388.826 1230.39 399.889 1254.1 413.06L1273.87 425.704 1311.82 461.264 1331.58 485.762 1332.38 487.342 1352.14 519.742C1373.75 560.308 1376.12 602.19 1359.26 645.389 1348.72 669.624 1332.9 686.219 1311.82 695.174 1292.84 704.13 1273.61 706.764 1254.1 703.077L1243.83 700.706C1204.29 690.169 1166.61 675.155 1130.77 655.662L1101.51 639.068 1148.95 823.193 899.114 586.912 963.155 737.057 946.552 714.93 986.874 876.139C1015.34 1003.1 1035.89 1127.17 1048.54 1248.34L1012.17 1116.37 973.433 985.191 950.505 919.602 933.902 876.139 907.811 808.178C897.269 781.311 881.984 760.501 861.956 745.75L838.236 697.545 850.096 786.842 862.746 876.139 862.746 879.3C866.435 914.597 869.334 949.894 871.443 985.191L874.605 1087.13 836.655 985.191 793.17 876.139 787.636 862.705 742.571 764.715C731.503 742.589 717.799 720.725 701.458 699.126L699.087 695.964C683.274 720.199 670.361 744.96 660.346 770.247 647.169 804.491 639.263 839.788 636.628 876.139L635.837 891.153C633.729 934.353 633.729 978.606 635.837 1023.91L631.093 1004.95 627.931 985.191 612.908 876.139 593.144 717.301C592.089 707.292 587.873 701.233 580.493 699.126L573.378 701.496C555.457 754.179 549.395 807.915 555.193 862.705L556.775 876.139C561.518 912.49 568.897 947.787 578.912 982.03L480.874 699.916 471.388 702.287C447.141 734.423 429.484 771.3 418.416 812.92L405.765 876.139 399.441 946.47 371.769 763.135 329.866 812.92C314.581 832.939 302.985 854.012 295.078 876.139L283.219 923.553C278.475 956.743 275.576 990.723 274.522 1025.49L277.685 769.457 270.569 776.569C241.052 814.5 202.312 837.153 154.347 844.529 180.174 822.93 203.629 799.223 224.713 773.407 251.594 741.272 273.204 705.185 289.543 665.146 305.883 626.161 324.595 589.019 345.678 553.723 359.909 529.488 376.512 507.362 395.487 487.342L446.087 439.928C479.294 408.846 539.644 376.973 627.14 344.309 714.636 311.646 799.759 299.002 882.511 306.378" fill="#FFFFFF" fill-rule="evenodd"/><path d="M1185.77 847.306 1322.63 989.578 1351.11 1039.37 1334.5 1024.36 1366.14 1057.55C1356.65 1058.61 1348.21 1056.76 1340.83 1052.02L1312.35 1033.05 1254.6 995.111 1241.15 987.206 1199.22 891.569 1241.94 930.298 1185.77 847.306M1272 1053.6 1285.45 1070.99C1292.31 1086.8 1301.27 1101.55 1312.35 1115.25L1314.72 1117.62 1411.24 1222.74 1423.1 1240.92C1384.6 1214.58 1350.59 1182.43 1321.05 1144.5L1312.35 1132.64C1294.42 1108.4 1280.97 1082.05 1272 1053.6M1355.07 1117.62 1461.87 1193.5 1490.35 1238.55 1355.07 1117.62M1102.71 1006.97 1090.84 935.831 1289.41 1168.21 1294.95 1246.46 1260.14 1190.34 1102.71 1006.97M1239.57 1360.27 1235.61 1373.71 1202.38 1247.25 1104.29 1552.34 1114.57 1471.72C1129.87 1436.94 1140.94 1400.85 1147.8 1363.44 1160.98 1293.88 1174.96 1224.06 1189.73 1153.98L1224.54 1249.62C1236.14 1285.45 1241.15 1322.33 1239.57 1360.27M862.21 746.136C882.251 760.889 897.546 781.704 908.094 808.576L934.2 876.551 950.814 920.023 973.756 985.626 1012.52 1116.83 1048.91 1248.83 1056.03 1297.04C995.379 1153.19 943.694 1013.03 900.974 876.551L862.21 746.136M277.582 769.848C265.452 794.086 247.784 813.846 224.578 829.127 200.845 844.935 175.002 854.156 147.049 856.791L138.347 857.581 154.169 844.935C202.163 837.557 240.927 814.9 270.462 776.961L277.582 769.848M274.417 1025.94C275.473 991.159 278.373 957.171 283.12 923.975L294.987 876.551C302.897 854.42 314.5 833.342 329.795 813.319L371.724 763.525 336.124 831.498 317.137 876.551 309.226 897.892C290.767 953.746 281.01 1011.97 279.956 1072.57L274.417 1025.94M399.412 946.896 405.741 876.551 418.399 813.319C429.474 771.691 447.143 734.806 471.404 702.664L480.896 700.293 404.159 965.076 399.412 946.896M578.993 982.464C568.973 948.214 561.589 912.909 556.843 876.551L555.26 863.114C549.459 808.313 555.525 754.566 573.456 701.873L580.576 699.502 575.038 765.104 576.62 876.551 586.904 996.691 578.993 982.464M635.954 1024.36C633.844 979.039 633.844 934.777 635.954 891.569L636.745 876.551C639.381 840.193 647.292 804.889 660.478 770.638 670.498 745.345 683.42 720.579 699.241 696.34L701.615 699.502C717.965 721.106 731.677 742.974 742.752 765.104L787.845 863.114 793.383 876.551 836.894 985.626 874.867 1087.59 701.615 699.502 643.865 1055.18 635.954 1024.36" fill="#CCCCCC" fill-rule="evenodd"/></g></svg>
