<svg width="1761" height="1761" xmlns="http://www.w3.org/2000/svg" xmlns:xlink="http://www.w3.org/1999/xlink" overflow="hidden"><defs><clipPath id="clip0"><rect x="0" y="0" width="1761" height="1761"/></clipPath></defs><g clip-path="url(#clip0)"><path d="M1344.64 1319.81 1333.37 1341.33 1325.56 1332.22 1333.37 1341.33ZM1314.04 1314.55 1314.04 1329.43 1313.29 1324.97ZM1322.46 1217.93 1325.94 1255.79 1325.19 1316.04 1325.94 1312.32 1325.94 1312.32 1325.94 1255.79 1325.94 1255.79ZM1218.1 1076.8 1219.61 1078.01 1219.61 1078.01ZM382.373 1061.65 376.424 1064.62 376.424 1063.88ZM1133.33 999.235 1153.75 1020.58 1153.75 1020.58ZM210.957 979.007 197.043 1032.45C192.706 1051.91 189.05 1071.56 186.076 1091.4L180.872 1130.07 180.872 1130.08 186.077 1091.4C189.051 1071.56 192.706 1051.91 197.044 1032.45ZM412.115 874.198 409.14 882.38 396.501 899.489C371.22 934.697 348.17 971.393 327.351 1009.58 299.096 1061.27 280.181 1115.9 270.608 1173.45 280.182 1115.9 299.096 1061.27 327.351 1009.58 348.17 971.394 371.22 934.697 396.501 899.489L409.141 882.38 412.699 877.296 414.345 874.942 414.345 874.943 412.699 877.296 409.141 882.38 412.115 874.198ZM679.048 843.7 677.562 845.188 677.562 845.188 679.048 843.701 679.979 850.593ZM1003.98 828.823 1001 851.139 1001 851.882C1003.48 853.866 1003.24 855.106 1000.26 855.602L995.057 852.626 995.057 852.627 1000.26 855.602C1003.24 855.106 1003.48 853.866 1001.01 851.883L1001.01 851.139 1003.98 828.824ZM1173.51 826.592 1173.51 826.592 1184.66 842.957 1203.25 874.942 1259.02 995.444 1276.19 1035.3 1259.02 995.444 1203.25 874.942 1184.66 842.957 1188.38 848.907 1184.66 842.956ZM829.447 819.257 797.458 843.7C785.438 853.866 773.727 864.776 762.326 876.429L738.533 867.503 738.533 867.504 762.326 876.43C773.727 864.776 785.438 853.867 797.459 843.701L829.448 819.257ZM1426.31 796.839 1427.06 813.947 1427.8 826.592 1424.08 935.193 1429.07 966.242 1429.07 966.243 1424.08 935.193 1427.8 826.592 1427.06 813.947ZM653.767 779.73 616.59 816.922 600.232 831.799 570.49 849.651 600.232 831.799C558.098 873.95 513.981 913.126 467.881 949.326L383.116 1012.55 383.116 1012.55 467.881 949.326C513.981 913.126 558.099 873.95 600.232 831.799L616.59 816.922 653.767 779.731ZM736.301 776.755 707.303 871.966 736.301 776.756ZM899.139 773.779 897.651 776.011C877.328 814.195 852.791 848.907 824.04 880.148L807.683 887.587 807.682 887.587 824.041 880.149C852.791 848.908 877.328 814.195 897.652 776.011ZM676.817 758.903 655.999 800.186C649.802 814.318 644.349 828.823 639.64 843.7L635.923 861.552C633.94 863.04 632.7 862.544 632.206 860.065L631.462 853.37 631.462 853.371 632.206 860.065C632.7 862.544 633.94 863.04 635.923 861.553L639.64 843.701C644.349 828.824 649.802 814.319 655.999 800.186ZM997.288 749.976 1001 796.838 1003.71 825.918 1001.01 796.839ZM744.481 726.174C734.567 756.919 722.918 787.417 709.534 817.666L682.767 871.222 682.767 871.223 709.534 817.666 720.687 801.302 720.687 801.301 709.534 817.666C722.918 787.416 734.567 756.919 744.481 726.174ZM923.675 710.553 902.856 789.4 902.857 789.399ZM690.898 683.563 665.664 743.282 665.666 743.278 690.899 683.563ZM778.087 670.194 736.302 778.241 736.302 778.241ZM1334.86 666.666 1333.37 667.41 1334.86 666.666 1357.16 710.553ZM961.941 649.999 961.597 655.508 979.442 764.853C965.067 805.517 952.674 835.022 942.264 853.37L914.753 895.025 911.78 894.282 894.677 812.459 894.677 812.459 911.78 894.282 914.753 895.026 942.264 853.371C952.674 835.022 965.067 805.517 979.442 764.853L984.647 747.001 985.69 757.587 984.647 747.001 979.442 764.853 961.597 655.508 961.941 649.999ZM358.598 649.156 333.484 678.8 358.598 649.156ZM1350.47 637.656 1350.47 637.657 1406.24 680.799 1415.41 722.089 1406.24 680.799 1406.24 680.799ZM1057.7 626.121 1110.31 699.395C1151.45 766.341 1173.51 838.246 1176.48 915.109L1180.2 866.76 1176.48 915.109C1173.51 838.246 1151.45 766.341 1110.31 699.395ZM1224.07 543.933 1383.19 627.986 1383.19 627.986ZM1290.77 464.781 1301.4 476.987 1341.55 532.774 1362.37 581.124 1341.55 532.775 1301.4 476.987ZM1097.42 438.426 1097.42 438.427 1133.15 439.44C1172.88 441.986 1211.99 448.767 1250.46 459.786 1211.99 448.767 1172.88 441.986 1133.15 439.44ZM1133.71 350.002 1171.28 368.386 1171.28 368.386ZM987.597 306.619 988.364 306.647 1026.29 311.854 988.364 306.647ZM818.429 266.015C847.822 266.387 873.486 273.732 895.421 288.051L938.547 287.308 967.545 285.819 989.108 286.563 1029.26 292.514 1030 292.514 1063.46 300.697 1064.21 300.697 1108.82 316.317 1178.71 349.79 1179.46 350.534 1235.97 388.47 1236.71 389.214 1291.73 438.307 1292.48 439.051 1312.55 461.366 1312.55 462.11 1354.19 520.13 1355.68 521.617 1419.62 669.641 1420.37 671.873 1433.01 726.918 1438.95 766.341 1438.95 767.085 1440.44 787.913 1441.18 790.888 1441.93 807.996 1438.95 928.498 1448.62 988.005C1453.58 1015.28 1453.08 1067.1 1447.13 1143.47L1443.42 1151.65 1435.98 1156.86 1426.31 1156.11 1419.62 1149.42 1418.13 1146.44 1417.39 1149.42C1406.98 1205.46 1388.89 1259.51 1363.11 1311.58L1363.11 1312.32 1346.75 1343.56 1340.06 1349.51 1330.4 1351 1322.22 1345.79 1317.76 1340.59 1323.7 1320.5C1311.31 1180.16 1286.53 1072.06 1249.35 996.188L1249.35 995.444 1203.99 898.745 1201.76 897.257 1199.53 896.513 1197.3 898.745 1196.56 900.977C1203 948.582 1207.22 996.188 1209.2 1043.79L1209.94 1046.77 1227.79 1065.37 1230.76 1072.8 1227.79 1080.24 1221.1 1083.96 1213.66 1082.47 1156.41 1035.61 1125.92 996.932C1084.28 947.839 1050.33 894.53 1024.05 837.006L1021.08 833.287 1015.88 832.543C1014.39 832.543 1013.15 833.287 1012.16 834.774L1009.93 838.494 1009.18 840.725 1010.67 846.676 1010.67 848.164 1009.93 852.627 1009.93 853.371 1009.93 854.858 1009.18 854.858 1001.75 857.834 998.03 857.834 997.288 857.09 991.339 854.114 989.852 853.371 989.852 852.627 989.108 851.883 987.621 848.164 983.903 809.484 982.416 805.765 981.672 805.021 977.955 802.789 973.494 803.533 972.75 804.277 969.776 807.996 969.776 807.252 949.7 849.651 948.213 851.883 919.958 894.282 916.984 896.513 913.266 897.257 911.036 896.513 907.318 895.026 905.087 890.562 890.216 822.873 890.216 822.129 886.498 817.666 882.037 816.922 881.294 816.922C879.311 816.922 877.824 817.914 876.832 819.898L829.245 880.149 826.271 882.38 810.656 889.075 805.452 889.075 801.734 886.843 800.247 881.636 801.734 877.174 802.478 875.686 808.426 869.735 809.169 868.991 809.913 868.247 823.297 845.932 824.041 840.725 821.066 836.262 816.605 834.774 812.144 836.262 768.274 876.43 764.557 878.661 760.095 878.661 736.302 869.735 735.558 868.991 732.584 866.76 731.097 863.784 731.097 863.04 729.61 858.578 728.866 858.578C727.875 857.09 726.388 856.346 724.405 856.346L719.944 857.834 716.97 860.809 716.226 861.553 713.995 868.991 711.021 873.454 705.817 874.198 700.611 870.479 697.637 868.247 693.176 867.504 692.433 868.247C690.945 868.247 689.706 868.991 688.715 870.479L686.484 872.71 685.74 873.454 682.023 873.454 681.279 873.454 677.562 871.223 675.331 867.504 673.1 847.42 671.614 843.701 670.126 841.469 668.639 830.312 669.383 827.336 669.383 826.592 669.383 825.848 670.87 820.641 670.87 815.435 668.639 810.971 664.178 808.74 659.717 809.484 656.742 813.947 656.742 813.203 646.333 840.725 646.333 842.213 646.333 842.957 643.359 857.834 640.384 862.297 632.206 864.528 629.231 863.784 625.514 856.346 624.77 854.114 624.77 851.883 624.77 851.139 624.026 848.164 624.77 846.676 627.744 830.312 627 825.848 624.026 822.873 624.026 822.129 618.821 821.385 615.104 823.617 605.437 832.543 604.694 833.287 522.16 909.159 475.317 953.046 474.573 953.789 389.809 1016.27 383.86 1018.5 383.116 1018.5 377.168 1017.02 372.707 1011.81 372.707 1005.11 386.834 941.144 386.834 938.169 384.604 936.681 382.373 936.681 380.143 938.169 337.016 1009.58C300.335 1077.02 279.763 1149.67 275.302 1227.52L271.585 1204.46 271.585 1240.17 269.354 1240.91 261.174 1241.66 251.508 1239.42 245.56 1236.45 241.099 1231.24C220.28 1189.09 206.4 1145.95 199.46 1101.81L195.743 1127.1 190.538 1136.77 180.128 1139.75C176.162 1139.25 172.94 1137.77 170.461 1135.29L166 1124.87C166.992 1053.46 176.162 983.79 193.511 915.854 214.827 832.047 246.799 751.96 289.43 675.593L321.402 618.316 324.376 614.598 338.504 590.051C349.409 535.998 379.151 491.119 427.729 455.416 473.829 420.207 522.408 389.461 573.465 363.179L639.64 323.012 640.384 322.268C710.092 284.146 769.44 265.395 818.429 266.015Z" fill="#FFFFFF" fill-rule="evenodd"/><path d="M1313.39 1323.79 1314.39 1313.29 1314.39 1328.29 1313.39 1323.79" fill="#551700" fill-rule="evenodd"/><path d="M1224.29 543.036 1224.29 542.292 1224.29 543.036M330.292 638.247 334.751 630.065 330.292 638.247M678.082 843.548 679.568 842.804 678.082 844.292 678.082 843.548" fill="#CD4801" fill-rule="evenodd"/><path d="M985.549 365.292 986.292 365.292 986.292 366.036 985.549 365.292M409.024 881.912 412 873.723 414.232 874.467 409.024 881.912M376.292 1064.29 376.292 1063.55 382.244 1061.32 376.292 1064.29" fill="#FF6600" fill-rule="evenodd"/><path d="M1171.46 367.412 1031.69 363.691 986.336 365.923 986.336 365.18 1001.21 357.739 1017.56 348.811 1032.43 339.139 1060.68 319.051 1103.06 333.93 1171.46 367.412M1026.48 310.866 955.854 345.835 964.775 332.443 974.441 328.722 988.566 305.658 1026.48 310.866M967.749 304.914 940.24 339.139 946.931 305.658 940.24 306.402 967.749 304.914M893.401 307.146 901.579 324.258 845.074 336.162 847.305 342.859 798.235 333.93 648.052 339.882C754.617 280.857 835.409 269.697 890.427 306.402L893.401 307.146M580.394 380.804C633.925 365.427 689.191 356.499 746.191 354.019L859.201 364.435C860.192 367.907 862.422 370.635 865.892 372.619L868.122 381.547 868.122 391.964 833.922 396.428 833.179 397.916C813.848 436.606 791.296 472.814 765.522 506.543L665.895 742.397 796.748 495.383 806.413 496.871C790.057 574.249 769.487 650.387 744.704 725.285 734.791 756.037 723.143 786.542 709.76 816.799L682.995 870.368 679.277 842.84 677.791 843.584 676.304 833.168 678.535 830.192 677.047 758.022 677.047 755.046 685.226 717.1 666.639 743.141C643.343 772.902 617.321 799.935 588.573 824.239L572.959 838.376 570.729 848.792 600.468 830.936C558.338 873.097 514.225 912.282 468.129 948.491L383.371 1011.73 414.598 874.089 412.368 873.345 473.333 735.701C508.524 664.771 553.878 601.033 609.391 544.488 664.904 487.942 728.348 443.55 799.722 411.309 810.626 407.34 821.283 402.628 831.692 397.172 783.117 411.061 737.022 429.91 693.404 453.717 640.865 482.487 585.847 504.062 528.351 518.447L516.455 520.679 352.889 599.545C362.802 548.456 390.806 505.799 436.902 471.574 482.503 436.853 530.334 406.597 580.394 380.804M736.526 777.366C762.796 700.484 795.013 626.082 833.179 554.161L889.683 445.534C887.701 430.653 894.888 452.23 911.244 510.263 927.601 567.801 924.627 647.41 902.323 749.093L897.862 754.301 896.375 760.254 896.375 760.997 897.118 761.742 901.579 754.301 899.349 772.902 897.862 775.134C877.54 813.327 853.005 848.048 824.257 879.297L807.9 886.737 814.592 878.553 815.335 878.553 835.409 842.84 834.666 838.376 833.922 837.632 858.457 796.711C850.526 803.159 842.596 809.111 834.666 814.567 809.387 831.927 785.348 852.264 762.548 875.577L738.756 866.648 736.526 777.366M894.888 811.591 906.783 779.598 903.066 788.527 923.883 709.66 943.214 609.218C946.684 586.898 948.171 564.08 947.675 540.768L943.214 482.735 942.47 477.526 944.7 477.526 946.931 477.526 948.419 478.271 950.649 481.246 963.288 563.833C967.254 589.625 967.006 615.914 962.545 642.698L961.801 654.603 979.645 763.974C965.271 804.647 952.88 834.16 942.47 852.512L914.961 894.177 911.988 893.433 894.888 811.591M1001.21 762.486 1000.46 749.093 1012.36 760.254 1004.92 734.957C987.575 672.46 980.14 609.218 982.619 545.232 1032.18 589.378 1074.81 640.466 1110.5 698.5 1151.64 765.462 1173.69 837.384 1176.67 914.266L1180.38 865.905C1190.3 928.402 1196.25 991.148 1198.23 1054.14L1219.79 1077.21C1186.58 1053.89 1157.09 1026.86 1131.32 996.108 1073.32 926.666 1029.95 848.792 1001.21 762.486M1184.85 842.096 1188.56 848.048 1190.05 836.888 1227.22 900.873C1260.93 955.931 1298.1 1008.26 1338.75 1057.86L1358.08 1081.67 1394.51 1123.34 1340.23 1315.29C1342.71 1241.39 1331.81 1169.46 1307.52 1099.53 1280.26 1021.16 1245.56 946.01 1203.43 874.089L1184.85 842.096M1409.38 1105.48 1366.26 1054.89 1358.82 1045.21 1334.29 1013.22C1298.6 965.603 1267.12 915.258 1239.86 862.184 1215.58 815.559 1189.31 771.414 1161.05 729.749L1052.51 577.968 960.314 452.23C1027.23 470.086 1091.42 495.383 1152.88 528.119 1219.79 563.833 1279.76 608.721 1332.8 662.787L1333.54 666.507 1335.03 665.763 1357.33 709.66C1391.53 781.582 1413.84 856.48 1424.25 934.354L1433.91 994.619C1438.87 1021.41 1438.37 1072 1432.43 1146.4L1409.38 1105.48M1427.96 825.727 1407.89 751.326 1424.25 772.902 1426.48 795.967 1427.22 813.079 1427.96 825.727M1418.3 733.469 1350.64 636.747 1406.4 679.899 1418.3 733.469M1341.72 531.839 1310.49 523.656C1225.74 501.335 1142.96 472.814 1062.17 438.093L1093.4 437.349C1164.77 436.854 1234.16 449.75 1301.57 476.039L1341.72 531.839M1281.5 452.974 1178.15 432.141 1036.15 414.284 1047.3 406.101 1040.61 391.22 1227.97 405.356 1281.5 452.974M212.37 973.787C229.223 890.457 258.467 809.855 300.102 731.981 341.736 654.108 396.259 599.297 463.668 567.553 531.572 535.312 574.447 522.911 592.29 530.352 522.898 602.273 470.607 684.859 435.416 778.11 420.051 818.783 407.163 858.96 396.755 898.641 371.477 933.858 348.429 970.563 327.611 1008.76 289.941 1077.7 268.875 1151.86 264.415 1231.22L254.749 1228.99C214.601 1147.64 200.475 1062.57 212.37 973.787" fill="#FFFFFF" fill-rule="evenodd"/><path d="M1171.75 367.748 1228.27 405.668 1040.88 391.541 1047.57 406.412 1036.42 414.59 1178.45 432.436 1281.81 453.255 1301.88 476.305C1234.46 450.033 1165.06 437.145 1093.68 437.64L1062.45 438.384C1143.25 473.082 1226.04 501.585 1310.81 523.89L1342.04 532.069 1362.86 580.399 1229.75 537.274 1192.57 529.095 1224.55 542.479 1224.55 543.222 1383.68 627.241 1406.73 680.032 1350.96 636.907 1418.63 733.567 1424.57 772.974 1408.22 751.412 1428.29 825.765 1424.57 934.321C1414.16 856.498 1391.86 781.649 1357.65 709.774L1335.34 665.905 1333.86 666.649 1333.11 662.932C1280.07 608.901 1220.09 564.042 1153.16 528.351 1091.69 495.636 1027.5 470.356 960.575 452.511L1052.78 578.168 1161.34 729.849C1189.6 771.487 1215.87 815.604 1240.16 862.199 1267.43 915.238 1298.91 965.55 1334.6 1013.14L1359.14 1045.11 1366.57 1054.77 1409.7 1105.33C1402.27 1176.71 1382.44 1244.62 1350.22 1309.06L1333.86 1340.29 1324.93 1329.88 1326.42 1311.29 1326.42 1254.79C1322.95 1165.06 1300.64 1078.32 1259.5 994.547L1203.73 874.095C1245.86 945.97 1280.57 1021.07 1307.83 1099.39 1332.12 1169.28 1343.03 1241.15 1340.55 1315.01L1394.83 1123.18 1358.39 1081.54 1339.06 1057.75C1298.41 1008.18 1261.23 955.884 1227.52 900.863L1190.34 836.918 1188.86 848.071 1185.14 842.123 1173.98 825.765 1180.68 865.917 1176.96 914.246C1173.98 837.414 1151.93 765.539 1110.78 698.621 1075.09 640.625 1032.46 589.57 982.882 545.453 980.403 609.397 987.839 672.598 1005.19 735.054L1012.63 760.334 1000.73 749.181 1001.47 762.565 997.754 749.181 1001.47 796.024 1004.45 827.996 1001.47 850.302 1001.47 851.045C1003.95 853.028 1003.7 854.268 1000.73 854.763L995.523 851.789 985.113 746.207 979.907 764.052 962.062 654.752 962.806 642.855C967.267 616.089 967.515 589.817 963.548 564.042L950.908 481.509 948.677 478.535 947.189 477.791 944.959 477.791 942.728 477.791 943.472 482.996 947.933 540.992C948.429 564.288 946.942 587.091 943.472 609.397L924.138 709.774 903.318 788.589 907.036 779.666 895.139 811.638 899.6 772.974 901.831 754.386 897.369 761.821 896.626 761.078 896.626 760.334 898.113 754.386 902.574 749.181C924.882 647.565 927.856 568.007 911.498 510.507 895.139 452.511 887.951 430.948 889.933 445.82L833.42 554.376C795.25 626.25 763.027 700.603 736.754 777.435L736.754 775.948 707.754 871.121 721.138 800.485 709.985 816.843C723.369 786.606 735.019 756.121 744.933 725.388 769.72 650.539 790.292 574.451 806.651 497.123L796.985 495.636 666.113 742.489 765.754 506.789C791.532 473.082 814.087 436.897 833.42 398.233L834.164 396.746 868.369 392.285 868.369 381.875 866.138 372.952C862.668 370.97 860.438 368.243 859.446 364.774L746.421 354.364C689.412 356.842 634.138 365.765 580.6 381.132L648.267 340.237 798.472 334.289 847.549 343.211 845.318 336.52 901.831 324.623 893.651 307.522 940.497 306.778 947.189 306.034 940.497 339.494 968.01 305.291 988.83 306.034 974.703 329.084 965.036 332.802 956.113 346.186 1026.75 311.239 1060.96 319.419 1032.7 339.494 1017.83 349.16 1001.47 358.082 986.6 365.518 985.857 365.518 941.241 387.08 907.779 360.313 898.113 373.696 876.548 362.543 910.754 387.824 865.395 419.051 848.292 424.256 854.985 438.384 817.061 509.019 818.549 538.017 880.267 431.692 904.805 425.743 924.882 442.845 924.882 473.33 939.01 469.612 933.805 425.743 937.523 420.539 999.985 408.642 958.344 393.771 986.6 366.261 1031.96 364.03 1171.75 367.748M212.523 973.729C201.121 1011.9 192.446 1050.81 186.498 1090.46L181.292 1129.13C182.284 1059.23 191.207 990.83 208.061 923.912 229.378 841.132 260.857 762.069 302.498 686.724L330.01 638.394 353.062 599.731 516.651 520.916 528.549 518.685C586.053 504.31 641.079 482.748 693.625 453.998 737.25 430.206 783.352 411.369 831.933 397.49 821.523 402.942 810.865 407.651 799.959 411.617 728.574 443.837 665.122 488.2 609.601 544.709 554.079 601.217 508.719 664.914 473.523 735.798L412.549 873.352 409.574 881.531 396.934 898.632C407.343 858.976 420.233 818.826 435.6 778.179 470.797 684.989 523.096 602.457 592.498 530.582 574.651 523.146 531.771 535.539 463.857 567.759 396.438 599.483 341.907 654.257 300.267 732.08 258.626 809.903 229.378 890.453 212.523 973.729M600.676 830.97 570.933 848.815 573.164 838.405 588.78 824.278C617.531 799.989 643.557 772.974 666.857 743.233L685.446 717.209 677.266 755.13 677.266 758.104C661.899 784.871 649.506 813.125 640.087 842.867L636.369 860.711C634.386 862.199 633.147 861.703 632.652 859.224L631.908 852.533 631.908 851.789C636.369 826.509 643.805 802.22 654.215 778.923L617.036 816.099 600.676 830.97" fill="#AEAEAE" fill-rule="evenodd"/><path d="M1228.08 405.613 1171.57 367.678 1103.16 334.205 1060.78 319.328 1026.58 311.146 988.656 305.938 967.837 305.196 940.326 306.683 893.483 307.427 890.508 306.683C835.486 269.987 754.687 281.144 648.112 340.155L580.449 381.067C530.383 406.854 482.549 437.104 436.944 471.815 390.844 506.033 362.837 548.679 352.923 599.756L329.874 638.435 334.335 630.254 329.874 638.435 302.362 686.785C260.724 762.162 229.246 841.257 207.931 924.071 191.078 991.017 182.155 1059.45 181.164 1129.37L186.369 1090.69C192.317 1051.02 200.991 1012.09 212.392 973.908 200.496 1062.67 214.623 1147.72 254.775 1229.05L264.441 1231.28C268.902 1151.93 289.969 1077.8 327.643 1008.87 348.462 970.686 371.512 933.988 396.793 898.78L409.433 881.672 414.638 874.234 383.408 1011.84 468.173 948.618C514.273 912.418 558.391 873.242 600.524 831.091L616.882 816.214 654.06 779.022C643.651 802.329 636.215 826.628 631.754 851.918L631.754 852.662 632.497 859.357C632.992 861.836 634.232 862.332 636.215 860.844L639.932 842.992C649.351 813.239 661.743 784.973 677.11 758.195L678.597 830.347 676.367 833.322 677.854 843.736 677.854 844.48 679.34 842.992 683.059 870.515 709.826 816.958 720.979 800.593 707.595 871.258 736.594 776.047 736.594 777.534 738.825 866.795 762.618 875.721C785.42 852.414 809.461 832.083 834.742 814.726 842.673 809.271 850.604 803.321 858.536 796.874L833.999 837.785 834.742 838.529 835.486 842.992 815.41 878.697 814.666 878.697 807.974 886.879 824.333 879.441C853.083 848.199 877.62 813.487 897.944 775.303L899.431 773.071 894.969 811.751 912.072 893.573 915.045 894.317 942.556 852.662C952.966 834.314 965.359 804.808 979.734 764.145L984.939 746.293 995.349 851.918 1000.55 854.894C1003.53 854.398 1003.78 853.158 1001.3 851.174L1001.3 850.431 1004.27 828.115 1001.3 796.13 997.58 749.268 1001.3 762.657C1030.05 848.943 1073.42 926.799 1131.42 996.224 1157.19 1026.97 1186.69 1054 1219.9 1077.3L1198.34 1054.24C1196.35 991.265 1190.41 928.534 1180.49 866.051L1173.8 825.884 1184.95 842.248 1203.54 874.234 1259.31 994.736C1300.45 1078.54 1322.76 1165.32 1326.23 1255.08L1325.48 1315.33 1326.23 1311.61 1324.74 1330.21 1333.66 1340.62 1350.02 1309.38C1382.24 1244.91 1402.07 1176.98 1409.5 1105.57L1432.55 1146.48C1438.5 1072.1 1439 1021.51 1434.04 994.736L1424.38 934.484 1428.09 825.884 1427.35 813.239 1426.61 796.13 1424.38 773.071 1418.43 733.648 1406.53 680.091 1383.48 627.278 1362.66 580.416 1341.84 532.066 1301.69 476.279 1281.61 453.22 1228.08 405.613M1179.75 349.825 1236.26 387.761 1237 388.506 1292.02 437.598 1292.77 438.343 1312.84 460.658 1312.84 461.402 1354.48 519.421 1355.97 520.909 1419.91 668.933 1420.66 671.165 1433.3 726.209 1439.25 765.633 1439.25 766.377 1440.73 787.204 1441.48 790.179 1442.22 807.288 1439.25 927.79 1448.91 987.297C1453.87 1014.57 1453.37 1066.39 1447.43 1142.76L1443.71 1150.94 1436.27 1156.15 1426.61 1155.41 1419.91 1148.71 1418.43 1145.74 1417.68 1148.71C1407.27 1204.75 1389.18 1258.8 1363.4 1310.87L1363.4 1311.61 1347.05 1342.85 1340.35 1348.8 1330.69 1350.29 1322.51 1345.09 1318.05 1339.88 1324 1319.79C1311.6 1179.46 1286.82 1071.35 1249.64 995.48L1249.64 994.736 1204.29 898.036 1202.05 896.549 1199.82 895.805 1197.59 898.036 1196.85 900.268C1203.29 947.874 1207.51 995.48 1209.49 1043.09L1210.23 1046.06 1228.08 1064.66 1231.05 1072.1 1228.08 1079.53 1221.39 1083.25 1213.95 1081.77 1156.7 1034.9 1126.21 996.224C1084.57 947.13 1050.62 893.821 1024.35 836.298L1021.37 832.578 1016.17 831.835C1014.68 831.835 1013.44 832.578 1012.45 834.066L1010.22 837.785 1009.48 840.017 1010.96 845.968 1010.96 845.224 1010.96 847.455 1010.22 851.918 1010.22 852.662 1010.22 854.15 1009.48 854.15 1002.04 857.125 998.322 857.125 997.58 856.382 991.63 853.406 990.144 852.662 990.144 851.918 989.4 851.174 987.913 847.455 984.195 808.776 982.708 805.056 981.964 804.313 978.247 802.081 973.786 802.825 973.042 803.569 970.068 807.288 970.068 806.544 949.992 848.943 948.505 851.174 920.25 893.573 917.276 895.805 913.558 896.549 911.328 895.805 907.61 894.317 905.379 889.854 890.508 822.165 890.508 821.421 886.79 816.958 882.329 816.214 881.586 816.214C879.603 816.214 878.116 817.206 877.124 819.189L829.537 879.441 826.563 881.672 810.948 888.367 805.744 888.367 802.026 886.135 800.539 880.928 802.026 876.465 802.77 874.977 808.718 869.027 809.461 868.283 810.205 867.539 823.589 845.224 824.333 840.017 821.358 835.554 816.897 834.066 812.436 835.554 768.566 875.721 764.849 877.953 760.387 877.953 736.594 869.027 735.85 868.283 732.876 866.051 731.389 863.076 731.389 862.332 729.902 857.869 729.158 857.869C728.167 856.382 726.68 855.638 724.697 855.638L720.236 857.125 717.262 860.101 716.518 860.844 714.287 868.283 711.313 872.746 706.109 873.49 700.903 869.771 697.929 867.539 693.468 866.795 692.725 867.539C691.237 867.539 689.998 868.283 689.007 869.771L686.776 872.002 686.032 872.746 682.315 872.746 681.571 872.746 677.854 870.515 675.623 866.795 673.392 846.712 671.906 842.992 670.418 840.761 668.931 829.603 669.675 826.628 669.675 825.884 669.675 825.14 671.162 819.933 671.162 814.726 668.931 810.263 664.47 808.032 660.009 808.776 657.034 813.239 657.034 812.495 646.625 840.017 646.625 841.504 646.625 842.248 643.651 857.125 640.676 861.588 632.497 863.82 629.523 863.076 625.806 855.638 625.062 853.406 625.062 851.174 625.062 850.431 624.318 847.455 625.062 845.968 628.036 829.603 627.292 825.14 624.318 822.165 624.318 821.421 619.113 820.677 615.395 822.909 605.729 831.835 604.986 832.578 522.452 908.451 475.609 952.337 474.865 953.08 390.101 1015.56 384.152 1017.79 383.408 1017.79 377.46 1016.31 372.999 1011.1 372.999 1004.41 387.126 940.436 387.126 937.46 384.896 935.973 382.665 935.973 380.435 937.46 337.308 1008.87C300.627 1076.31 280.055 1148.96 275.594 1226.81L271.877 1203.76 271.877 1239.46 269.646 1240.2 261.466 1240.95 251.8 1238.72 245.852 1235.74 241.391 1230.53C220.572 1188.38 206.692 1145.24 199.752 1101.11L196.035 1126.4 190.83 1136.07 180.42 1139.04C176.454 1138.55 173.232 1137.06 170.753 1134.58L166.292 1124.16C167.284 1052.76 176.454 983.082 193.803 915.145 215.119 831.339 247.091 751.252 289.722 674.885L321.694 617.608 324.668 613.889 338.796 589.343C349.701 535.29 379.443 490.411 428.021 454.707 474.121 419.498 522.7 388.753 573.757 362.471L639.932 322.303 640.676 321.56C752.208 260.565 837.221 249.159 895.713 287.342L938.839 286.599 967.837 285.111 989.4 285.855 1029.55 291.806 1030.29 291.806 1063.76 299.988 1064.5 299.988 1109.11 315.609 1179 349.082 1179.75 349.825" fill="#777777" fill-rule="evenodd"/><path d="M986.646 366.241 958.421 393.759 1000.02 408.634 937.623 420.534 933.909 425.74 939.108 469.62 924.995 473.339 924.995 442.846 904.94 425.74 880.428 431.69 818.778 538.044 817.292 509.038 855.174 438.383 848.489 424.252 865.573 419.046 910.882 387.81 876.714 362.523 898.255 373.678 907.911 360.292 941.337 387.065 985.904 365.498 986.646 366.241M1383.29 627.292 1224.34 543.25 1224.34 542.506 1192.4 529.119 1229.54 537.3 1362.49 580.436 1383.29 627.292" fill="#797979" fill-rule="evenodd"/><path d="M985.946 367.241 957.671 394.759 999.34 409.634 936.836 421.534 933.115 426.74 938.324 470.62 924.186 474.339 924.186 443.846 904.096 426.74 879.54 432.69 817.781 539.044 816.292 510.038 854.241 439.383 847.544 425.252 864.659 420.046 910.048 388.81 875.82 363.523 897.399 374.679 907.072 361.292 940.556 388.065 985.202 366.498 985.946 367.241M1383.29 628.292 1224.06 544.25 1224.06 543.506 1192.06 530.119 1229.27 538.3 1362.46 581.436 1383.29 628.292" fill="#797979" fill-rule="evenodd"/></g></svg>