<svg width="1761" height="1761" xmlns="http://www.w3.org/2000/svg" xmlns:xlink="http://www.w3.org/1999/xlink" overflow="hidden"><defs><clipPath id="clip0"><rect x="0" y="0" width="1761" height="1761"/></clipPath></defs><g clip-path="url(#clip0)"><path d="M1205.56 819.86 1181.78 874.149 1181.78 874.144 1205.56 819.861ZM963.166 701.77 962.666 702.556 962.667 702.555 963.166 701.77ZM1319.09 690.873 1319.09 690.873 1326.39 752.939 1325.01 757.256 1325.01 757.257 1326.39 752.939 1319.09 690.873ZM1289.87 582.805 1303.02 631.727 1309.59 655.824 1305.21 671.157 1309.59 655.824 1303.02 631.728ZM774.501 515.863 685.127 575.503 685.128 575.502ZM756.291 507.368 685.127 564.55 685.132 564.547ZM1169.36 438.229 1169.36 438.229 1185.15 450.322ZM1052.5 389.306 1050.19 395.511 1050.19 395.511 1052.5 389.306ZM1005.76 373.881 1023.29 377.349 1027.67 378.901 1045.19 387.844 1045.2 387.846 1046.61 388.128 1045.2 387.846 1045.19 387.844 1032.05 380.452 1027.67 378.901 1025.48 377.783 1023.29 377.349 1018.9 375.797ZM988.229 373.242 950.635 398.328 950.636 398.328 988.229 373.242ZM961.196 369.157 964.127 369.591 917.902 397.98 917.903 397.98 964.128 369.591ZM892.738 361.457 894.742 361.559 814.855 381.273 814.855 381.273 894.743 361.559ZM858.955 347.138C889.63 346.53 920.306 347.929 950.981 351.336L1011.6 363.02C1071.49 376.162 1117.99 393.201 1151.1 414.132 1183.72 435.064 1207.83 452.345 1223.41 465.975 1238.99 479.606 1253.84 496.643 1267.96 517.089L1316.89 600.33C1335.88 635.379 1348.06 684.788 1353.41 748.558 1358.28 811.84 1351.95 875.366 1334.42 939.136 1316.89 1003.88 1285.49 1060.83 1240.21 1110L1232.9 1098.32 1234.36 1096.86 1235.91 1093.84 1235.91 1093.84 1234.36 1096.86 1234.36 1096.86 1232.9 1098.32 1232.17 1096.86 1232.17 1094.67 1213.91 1077.87 1196.38 1078.6 1172.28 1079.33 1202.96 1061.08 1202.96 1061.08 1172.28 1079.33 1159.86 1079.33 1196.38 1010.69 1196.39 1010.69 1202.96 998.281 1154.75 990.249 1154.02 980.756 1164.98 974.184 1170.82 979.297 1193.46 966.883 1218.58 950.639 1218.58 950.639 1193.46 966.883 1170.82 979.296 1164.98 974.184 1154.02 980.756 1152.56 953.74 1152.56 953.739 1154.75 939.866 1192 904.817 1154.75 939.866 1159.13 917.96 1152.56 913.58C1170.09 891.187 1179.34 866.118 1180.32 838.37L1175.2 855.164C1167.9 876.583 1155 893.865 1136.49 907.008L1127.73 898.975 1159.13 825.227 1152.56 818.655 1183.24 790.178 1152.56 818.655 1146.72 813.544 1121.16 844.212 1109.47 844.212 1109.47 844.212 1099.98 838.37 1116.04 780.686 1091.94 760.97C1081.23 765.838 1070.27 770.95 1059.08 776.305 1079.53 751.965 1098.15 726.469 1114.95 699.817 1098.15 726.469 1079.53 751.965 1059.07 776.304L1047.39 781.416 1070.03 711.318 1070.03 711.317 1072.22 704.746 1021.1 734.684 1009.41 725.191 1047.39 682.841 1019.63 693.063 1036.85 675.473 1036.85 675.474 1019.63 693.063 943.677 720.81 938.564 706.207 938.567 706.203 958.285 674.078 952.442 670.427 897.664 691.603 886.709 688.682 875.023 671.157 888.169 654.363 922.496 609.822 829.01 683.571 832.661 675.539 832.662 675.538 854.573 617.124 843.617 606.171 776.424 672.618 812.942 601.79 773.502 601.79 766.198 596.679 666.138 695.254 704.848 603.98 597.484 690.143 664.678 609.823 643.497 621.505 690.971 573.313 690.97 573.313 643.497 621.505 638.385 623.695 638.385 623.696 636.194 625.156 665.402 590.114 665.407 590.107 636.193 625.156 622.316 632.458 569 660.935 727.489 508.326 569 660.935 536.133 678.459 575.573 626.616 549.28 626.616 452.872 719.35 459.444 643.411 450.68 645.601C481.843 594.975 521.039 549.217 568.269 508.326 591.884 488.125 616.534 470.113 642.219 454.293L656.03 446.531 656.03 446.531 642.218 454.292C616.534 470.113 591.884 488.125 568.269 508.326 521.039 549.217 481.843 594.975 450.68 645.601L440.155 648.232 433.883 657.284 382.026 733.954 379.105 726.652 411.971 655.094 390.06 660.205 330.9 764.621C353.298 709.127 383.73 658.014 422.196 611.282 383.73 658.014 353.298 709.127 330.9 764.621L322.868 784.334 322.867 784.336 316.293 802.591 308.259 798.94 299.495 795.289 308.259 798.94 308.259 812.084 290 801.131C294.383 744.176 309.72 690.629 336.013 640.49 361.333 591.811 394.442 548.487 435.343 510.517 482.086 467.192 533.942 432.63 590.911 406.831 646.906 382.978 705.579 365.697 766.929 354.987 797.604 350.363 828.279 347.746 858.955 347.138Z" fill="#FFFFFF" fill-rule="evenodd"/><path d="M1234.27 1098.16 1232.94 1099.16 1232.27 1098.16 1234.27 1098.16" fill="#944901" fill-rule="evenodd"/><path d="M643.294 622.398 638.294 624.197 641.866 621.197 643.294 622.398" fill="#E27C01" fill-rule="evenodd"/><path d="M308.07 800.191 299.301 796.538C307.583 753.682 320.981 713.26 339.496 675.273 367.268 617.319 404.54 567.157 451.312 524.788 494.188 485.34 541.691 450.275 593.823 419.594L513.432 489.723 413.309 587.612C390.411 610.501 372.626 636.313 359.959 665.046 342.419 703.033 329.995 743.211 322.688 785.581L316.11 803.843 308.07 800.191M640.595 401.331C720.987 372.111 791.389 358.474 851.804 360.422 799.185 373.572 748.514 392.078 699.793 415.941 642.789 444.188 590.9 479.496 544.127 521.866 500.765 561.8 463.98 607.336 433.773 658.472L381.884 735.175 378.961 727.87 411.847 656.28 389.923 661.393 330.726 765.857C353.138 710.338 383.589 659.202 422.079 612.449L503.201 521.866C545.588 478.035 591.387 437.856 640.595 401.331M894.922 362.614 944.618 367.727 853.265 421.055 715.87 512.369 620.863 586.881 575.552 627.79 549.243 627.79 452.774 720.565 459.351 644.592 450.581 646.783C481.763 596.135 520.984 550.356 568.244 509.447 615.503 469.026 666.905 437.37 722.448 414.481 779.452 391.104 836.944 373.815 894.922 362.614M964.351 370.65 976.044 372.111 685.176 565.697 763.374 502.872 862.035 433.474 964.351 370.65M988.467 374.302 989.198 375.032 992.853 375.763C1010.39 372.841 1027.93 377.224 1045.47 388.913 1029.88 448.328 1002.6 502.386 963.62 551.087 925.617 598.326 882.011 640.209 832.802 676.734L854.727 618.293 843.765 607.336 776.529 673.812 813.07 602.953 773.605 602.953 766.297 597.839 666.174 696.458 704.908 605.144 597.477 691.345 664.713 610.989 643.518 622.676 691.022 574.462 685.176 576.654 988.467 374.302M1052.78 390.373 1091.51 402.792C1080.31 452.954 1062.77 502.142 1038.89 550.356 1011.61 605.874 978.236 658.228 938.772 707.416L958.504 675.273 952.658 671.621 897.846 692.806 886.883 689.883 875.19 672.351 888.345 655.549 894.192 663.585C938.04 615.371 978.236 564.235 1014.78 510.177L1050.59 455.389 976.774 549.625C998.212 519.918 1015.75 487.775 1029.39 453.197L1052.78 390.373M1099.55 405.714 1169.71 439.318C1140.48 500.68 1107.11 559.853 1069.59 616.832 1060.82 629.494 1051.07 641.426 1040.36 652.628 1018.43 676.004 992.609 693.049 962.889 703.763 995.045 657.498 1022.82 609.527 1046.2 559.853 1070.08 509.69 1087.86 458.311 1099.55 405.714M1204.06 465.617 1260.33 529.17C1244.26 591.021 1221.84 650.923 1193.1 708.877 1169.23 755.63 1141.45 801.165 1109.78 845.483L1100.28 839.638 1116.36 781.928 1092.25 762.204C1081.53 767.074 1070.56 772.188 1059.36 777.545 1100.28 728.844 1133.9 675.517 1160.21 617.563 1183.11 568.375 1197.73 517.726 1204.06 465.617M1290.3 583.959 1303.45 632.904 1235.49 774.623 1290.3 583.959M1310.03 657.01 1319.53 692.075C1311.25 724.705 1299.07 757.091 1282.99 789.233 1264.96 825.272 1240.12 857.414 1208.45 885.661L1236.22 838.909 1236.22 837.447 1236.22 835.256C1261.06 782.659 1284.21 728.357 1305.65 672.351L1310.03 657.01M1326.84 754.169 1328.3 785.581 1311.49 802.383 1326.84 754.169M1326.84 822.837 1325.38 835.256C1297.61 887.852 1264.23 936.066 1225.26 979.897L1196.75 1012.04 1203.33 999.621 1155.1 991.585 1154.36 982.088 1165.33 975.513 1171.17 980.628 1193.83 968.209C1246.94 938.988 1287.62 897.349 1315.88 843.291L1326.84 822.837M1232.56 1098.24 1232.56 1096.05 1234.76 1098.24 1232.56 1098.24M1196.75 1079.98 1172.64 1080.71 1203.33 1062.44 1196.75 1079.98M1152.9 955.06 1155.1 941.179 1192.37 906.115 1194.56 916.342 1152.9 955.06M1136.83 908.307 1128.05 900.271 1159.48 826.489 1152.9 819.915 1183.6 791.425C1174.83 833.794 1159.24 872.755 1136.83 908.307M1070.32 712.53 1072.51 705.955 1021.35 735.906 1009.66 726.409 1047.66 684.039 1019.89 694.267C1067.64 652.384 1107.84 604.414 1140.48 550.356L1154.36 525.518 1070.32 712.53M638.403 624.868 636.211 626.329 665.443 591.264 642.057 621.215 638.403 624.868M622.325 633.634 568.975 662.124 727.564 509.447 622.325 633.634M1084.21 717.643 1172.64 537.937C1160.46 597.352 1135.61 651.41 1098.09 700.111L1084.21 717.643M1230.37 784.85 1220.14 805.304 1182.14 875.434 1220.87 787.042 1230.37 784.85" fill="#FFFFFF" fill-rule="evenodd"/><path d="M594.271 419.426 641.015 401.159C591.836 437.693 546.065 477.882 503.704 521.723L422.632 612.329C384.165 659.093 353.732 710.242 331.334 765.775L323.301 785.503C330.604 743.123 343.02 702.935 360.55 664.939 373.209 636.198 390.982 610.38 413.867 587.485L513.928 489.572 594.271 419.426M852.094 360.24 895.186 362.432C837.243 373.636 779.787 390.929 722.817 414.311 667.308 437.206 615.938 468.87 568.707 509.302 521.477 550.22 482.28 596.01 451.116 646.672L439.431 649.594 434.318 658.362C464.507 607.214 501.269 561.667 544.605 521.723 591.349 479.343 643.206 444.026 700.176 415.772 748.867 391.903 799.507 373.393 852.094 360.24M944.852 367.546 964.572 370.47 862.32 433.309 763.718 502.725 685.568 565.565 976.258 371.931 988.674 374.122 685.568 576.525 691.411 574.333 643.936 622.559 642.476 621.097 665.847 591.139 636.633 626.212 622.755 633.519 727.93 509.302 569.438 662.016 536.571 679.553 576.012 627.673 621.294 586.754 716.243 512.224 853.555 420.888 944.852 367.546M1045.64 388.737 1052.95 390.198 1029.58 453.037C1015.94 487.624 998.413 519.774 976.989 549.489L1050.76 455.23 1014.97 510.031C978.45 564.103 938.279 615.251 894.456 663.477L888.613 655.44 922.941 610.868 829.452 684.668 833.104 676.63C882.283 640.095 925.862 598.202 963.842 550.951 1002.8 502.238 1030.06 448.167 1045.64 388.737M1091.66 402.62 1099.69 405.542C1088.01 458.153 1070.23 509.544 1046.37 559.719 1023 609.406 995.248 657.388 963.111 703.666 992.813 692.949 1018.62 675.899 1040.53 652.517 1051.24 641.313 1060.98 629.378 1069.75 616.713 1107.24 559.719 1140.59 500.532 1169.81 439.155L1204.14 465.46C1197.81 517.583 1183.2 568.243 1160.31 617.444 1134.02 675.412 1100.42 728.753 1059.52 777.465L1047.84 782.58 1070.48 712.434 1154.47 525.377 1140.59 550.22C1107.97 604.291 1067.8 652.274 1020.08 694.166L944.121 721.933 939.009 707.319C978.45 658.119 1011.8 605.753 1039.07 550.22 1062.93 501.994 1080.46 452.795 1091.66 402.62M1260.38 529.03 1290.32 583.832 1235.54 774.543 1303.47 632.788 1310.04 656.901 1305.66 672.246C1284.23 728.266 1261.11 782.58 1236.27 835.191L1236.27 837.382 1236.27 838.844 1208.52 885.608C1240.17 857.354 1265 825.204 1283.02 789.157 1299.09 757.006 1311.26 724.612 1319.54 691.974L1326.84 754.084 1311.5 802.309 1328.3 785.503 1326.84 822.769 1315.88 843.228C1287.64 897.299 1246.99 938.949 1193.91 968.177L1171.27 980.598 1165.43 975.483 1154.47 982.059 1153.01 955.024 1194.64 916.297 1192.45 906.067 1155.2 941.141 1159.58 919.22 1153.01 914.837C1170.54 892.428 1179.79 867.341 1180.76 839.574L1175.65 856.38C1168.35 877.814 1155.44 895.107 1136.94 908.26 1159.34 872.7 1174.92 833.729 1183.69 791.349L1153.01 819.846 1147.17 814.731 1121.6 845.42 1109.92 845.42C1141.57 801.091 1169.32 755.545 1193.18 708.78 1221.91 650.812 1244.31 590.895 1260.38 529.03M1325.38 835.191C1321.97 866.853 1316.13 897.543 1307.85 927.258 1291.29 988.149 1266.95 1045.14 1234.81 1098.24L1232.62 1096.05 1214.36 1079.24 1196.83 1079.97 1203.41 1062.44 1172.73 1080.7 1160.31 1080.7 1196.83 1012.02 1225.32 979.868C1264.27 936.026 1297.63 887.8 1325.38 835.191M1084.35 717.549 1098.23 700.012C1135.72 651.299 1160.56 597.229 1172.73 537.799L1084.35 717.549M1230.43 784.773 1220.94 786.965 1182.22 875.378 1220.2 805.232 1230.43 784.773" fill="#DDDDDD" fill-rule="evenodd"/><path d="M308.56 799.773 308.56 812.934 290.301 801.967C294.683 744.937 310.021 691.32 336.313 641.115 361.633 592.372 394.743 548.991 435.643 510.972 482.387 467.591 534.243 432.983 591.211 407.15 647.206 383.265 705.879 365.962 767.229 355.238 828.58 345.977 889.931 344.759 951.281 351.582L1011.9 363.281C1071.79 376.441 1118.29 393.502 1151.4 414.46 1184.02 435.42 1208.13 452.724 1223.71 466.372 1239.29 480.02 1254.14 497.08 1268.26 517.552L1317.2 600.903C1336.18 635.997 1348.36 685.471 1353.71 749.324 1358.58 812.69 1352.25 876.299 1334.72 940.153 1317.2 1004.98 1285.79 1062.01 1240.51 1111.24L1233.2 1099.54 1234.66 1098.08C1266.8 1044.95 1291.14 987.921 1307.7 926.992 1315.98 897.259 1321.82 866.551 1325.23 834.868L1326.69 822.439 1328.15 785.151 1326.69 753.711 1319.39 691.564 1309.89 656.469 1303.32 632.341 1290.17 583.355 1260.23 528.519 1203.99 464.91 1169.66 438.589 1099.55 404.956 1091.51 402.031 1052.8 389.602 1045.5 388.14C1027.97 376.441 1010.44 372.055 992.912 374.979L989.26 374.248 988.53 373.517 976.114 371.323 964.428 369.862 944.708 366.936 895.043 361.818 851.952 359.625C791.575 357.676 721.217 371.323 640.876 400.569L594.133 418.848C542.033 449.555 494.56 484.65 451.712 524.133 404.968 566.538 367.72 616.744 339.965 674.748 321.462 712.767 308.073 753.224 299.795 796.117L308.56 799.773" fill="#888888" fill-rule="evenodd"/></g></svg>
