<svg width="1761" height="1761" xmlns="http://www.w3.org/2000/svg" xmlns:xlink="http://www.w3.org/1999/xlink" overflow="hidden"><defs><clipPath id="clip0"><rect x="0" y="0" width="1761" height="1761"/></clipPath></defs><g clip-path="url(#clip0)"><path d="M378.683 758.208 384.856 750.489 394.887 747.401 415.723 748.945 418.038 749.717 1318.56 978.202 1322.42 970.483 1328.59 963.536 1337.08 961.221 1369.49 961.992 1379.52 966.624 1384.15 976.659 1387.23 1031.46 1388.01 1042.27 1395.72 1031.46 1395.72 1030.69C1406.01 1019.37 1416.82 1018.08 1428.13 1026.83L1433.53 1033.78 1434.31 1042.27 1420.42 1124.87C1410.64 1196.91 1393.67 1267.41 1369.49 1336.37L1355.6 1383.46C1346.85 1416.39 1328.59 1442.89 1300.81 1462.96L1294.64 1466.05 1288.46 1466.05 1278.43 1463.73 1269.17 1457.56C1256.83 1441.61 1258.88 1423.6 1275.35 1403.53 1289.75 1384.48 1301.58 1363.9 1310.84 1341.77 1291.81 1376.77 1269.69 1410.22 1244.48 1442.12L1239.08 1445.98 1232.13 1447.52 1230.59 1447.52 1225.96 1453.7 1220.56 1457.56 1213.61 1459.1 1206.67 1459.1 1198.18 1456.79 1187.38 1449.84 1182.75 1445.21 1182.75 1444.44 1171.94 1442.89C1167.83 1442.38 1164.48 1440.58 1161.91 1437.49L1151.88 1425.14 1124.1 1439.03 1113.3 1440.58 1097.87 1436.72 1090.15 1431.31 1088.61 1429.77 1067.77 1438.26 1057.74 1439.03 1046.16 1435.95 1039.22 1431.31 1035.36 1423.6 1028.42 1389.63C1027.39 1386.03 1027.64 1382.68 1029.19 1379.6L1036.9 1372.65C1064.17 1360.3 1091.43 1348.21 1118.7 1336.37L1124.1 1306.26 1050.79 1303.18 1009.9 1305.49C927.072 1318.36 856.08 1355.92 796.92 1418.19 793.833 1420.77 790.489 1422.31 786.888 1422.82L776.085 1419.74 761.424 1408.93 698.148 1432.09 696.604 1432.86 658.023 1443.67 655.707 1443.67 563.88 1459.1 560.794 1462.96 549.99 1473.77 543.818 1477.63 536.872 1478.4 479.77 1467.59 472.053 1463.73 467.423 1456.79 445.046 1386.54 438.1 1381.91 428.069 1369.56 428.069 1372.65 424.982 1385.77 420.353 1393.49 412.636 1397.35 382.541 1402.75 372.51 1401.21 365.565 1397.35 357.848 1388.86 338.558 1330.97 338.558 1336.37C339.072 1339.97 338.043 1343.57 335.471 1347.18L325.439 1359.53 319.266 1364.16 312.321 1364.93 299.203 1364.16 291.486 1361.84 284.542 1357.21 279.912 1351.81 277.596 1345.63 260.62 1145.71 258.306 1078.55 262.163 879.398 265.25 870.135 272.966 864.732 305.376 853.925 316.951 854.697 319.266 856.241 325.439 843.118 323.124 836.943 324.668 829.223 330.84 815.329 337.014 808.382 345.502 806.067 363.25 806.839 378.683 758.208" fill="#777777" fill-rule="evenodd"/><path d="M274.396 1142.41 273.396 1117.41 274.396 1142.41" fill="#CD4801" fill-rule="evenodd"/><path d="M273.305 1117.68C287.703 1077 304.672 1037.35 324.213 998.731 357.122 933.333 393.632 870.769 433.74 811.036L439.911 806.402C461.507 812.066 468.193 825.196 459.965 845.794L459.194 848.111C462.279 869.739 454.566 889.821 436.054 908.359L422.942 923.808C447.625 933.076 456.109 955.219 448.395 990.234 430.912 1066.96 426.799 1144.72 436.054 1223.5L448.395 1289.93C456.623 1324.43 461.507 1358.67 463.051 1392.66L456.109 1371.8 449.167 1370.26 433.74 1350.95 413.686 1359.44 409.058 1380.3 396.717 1379.53 378.976 1385.71 376.662 1384.93 376.662 1382.62C371.521 1271.39 369.464 1159.91 370.492 1048.16 348.895 1111.5 333.726 1176.64 324.984 1243.58L314.186 1212.69 317.271 1303.83 318.042 1310.01 322.67 1335.5 312.642 1347.86 299.53 1347.09 292.588 1342.45 288.731 1313.87 274.077 1142.4 273.305 1117.68M538.641 1461.4 533.241 1431.28 532.47 1418.15 527.071 1418.15 522.443 1417.38C508.044 1399.35 501.102 1378.75 501.616 1355.58L504.702 1333.96C496.475 1319.54 496.732 1306.15 505.474 1293.79 509.073 1288.64 513.701 1286.07 519.357 1286.07 533.755 1289.67 541.983 1299.2 544.04 1314.64L544.811 1316.96C572.064 1326.75 590.062 1347.86 598.803 1380.3L612.687 1435.14 550.21 1444.41 547.124 1444.41 549.438 1450.59 538.641 1461.4M1137.19 1312.33 1161.1 1285.29C1189.38 1255.43 1218.17 1227.36 1247.48 1201.1 1256.23 1193.38 1262.4 1183.59 1266 1171.75L1317.68 991.779 1326.16 994.096 1335.42 974.786 1350.84 975.558C1355.47 985.858 1356.5 998.473 1353.93 1013.41 1334.9 1127.72 1291.19 1232 1222.8 1326.23 1201.72 1355.07 1182.69 1385.19 1165.73 1416.6L1158.78 1408.88 1154.93 1404.24 1116.36 1423.55 1100.93 1419.69 1092.45 1409.65 1060.82 1422.01 1049.26 1418.92 1042.31 1384.93 1096.31 1360.99 1097.08 1360.99 1131.02 1345.54 1137.19 1312.33M447.625 1348.63 452.252 1358.67 449.938 1349.4 447.625 1348.63" fill="#797979" fill-rule="evenodd"/><path d="M272.939 1118C269.853 1038.19 271.138 958.125 276.797 877.8L309.198 866.987 318.454 890.93 341.597 839.954 337.74 833.776 343.913 819.873 373.226 821.418 392.513 761.174 411.799 760.401 413.341 762.719 1317.47 992.109 1265.79 1172.07C1262.19 1183.91 1256.02 1193.69 1247.27 1201.42 1217.96 1227.68 1189.16 1255.74 1160.87 1285.6L1136.96 1312.64 1140.81 1290.24 1093.76 1284.83C971.868 1277.11 868.751 1317.53 784.407 1406.09L769.749 1395.28 768.978 1387.56C718.062 1408.67 665.862 1424.63 612.375 1435.44L598.489 1380.61C589.746 1348.17 571.745 1327.05 544.487 1317.27L543.717 1314.95C541.659 1299.51 533.43 1289.98 519.03 1286.38 513.373 1286.38 508.744 1288.95 505.144 1294.1 496.401 1306.46 496.144 1319.85 504.372 1334.26L501.286 1355.89C500.772 1379.06 507.715 1399.66 522.116 1417.68L526.744 1418.45 532.144 1418.45 532.916 1431.58 538.317 1461.7 536.001 1463.25C516.458 1464.28 498.201 1460.16 481.229 1450.89L462.714 1392.96C461.171 1358.98 456.286 1324.74 448.056 1290.24L435.714 1223.82C426.457 1145.04 430.57 1067.28 448.056 990.564 455.772 955.551 447.286 933.41 422.599 924.142L435.714 908.694C454.229 890.157 461.943 870.076 458.857 848.45L459.628 846.133C467.858 825.537 461.171 812.407 439.571 806.743L433.4 811.377C393.284 871.106 356.769 933.667 323.854 999.06 304.311 1037.68 287.339 1077.33 272.939 1118M1350.65 975.889 1367.62 975.889C1374.82 1049.01 1369.68 1120.06 1352.19 1189.06 1329.56 1278.14 1289.19 1358.72 1231.07 1430.81L1221.82 1430.81 1212.56 1442.39 1205.62 1442.39 1194.81 1435.44 1194.04 1428.49 1172.44 1426.17 1158.56 1409.18 1165.5 1416.91C1182.47 1385.5 1201.5 1355.37 1222.59 1326.54 1290.99 1232.31 1334.7 1128.04 1353.73 1013.73 1356.3 998.802 1355.28 986.188 1350.65 975.889M324.626 1243.9C333.369 1176.96 348.541 1111.82 370.141 1048.49 369.113 1160.23 371.17 1271.7 376.312 1382.92L376.312 1385.24 371.684 1382.15 324.626 1243.9M1382.28 1087.11 1384.59 1085.56 1386.9 1085.56 1391.53 1063.17C1392.56 1052.87 1396.68 1044.11 1403.88 1036.91L1406.19 1035.36 1408.51 1035.36 1408.51 1034.59 1417.76 1037.68 1419.31 1039.22C1405.93 1092.77 1395.13 1147.35 1386.9 1202.96 1380.22 1246.21 1369.68 1288.69 1355.28 1330.4L1335.22 1377.52 1335.22 1378.29C1328.02 1406.61 1314.39 1429.52 1294.33 1447.03L1287.39 1447.8 1282.76 1448.57 1278.13 1443.17 1277.36 1440.08 1307.45 1394.51C1334.7 1325.51 1352.7 1253.68 1361.45 1179.02 1365.56 1148.64 1371.22 1118.78 1378.42 1089.43L1382.28 1087.11M1375.33 1197.56 1375.33 1202.19 1375.33 1203.73 1384.59 1148.9 1375.33 1197.56M1372.25 1219.95 1370.7 1227.68 1370.7 1229.22 1373.02 1219.95 1372.25 1219.95" fill="#AEAEAE" fill-rule="evenodd"/></g></svg>
