<svg width="1761" height="1761" xmlns="http://www.w3.org/2000/svg" xmlns:xlink="http://www.w3.org/1999/xlink" overflow="hidden"><defs><clipPath id="clip0"><rect x="0" y="0" width="1761" height="1761"/></clipPath></defs><g clip-path="url(#clip0)"><path d="M1443.4 1401.75 1444.14 1412.88 1444.14 1412.88ZM1412.3 1334.97C1418.47 1354.02 1421.8 1372.75 1422.29 1391.18L1420.91 1418.59 1420.91 1418.59C1423.25 1400.47 1422.76 1382.04 1419.43 1363.31L1412.3 1334.97ZM1282.68 1240.73C1280.96 1253.1 1279.81 1265.42 1279.26 1277.69L1279.26 1277.69ZM1342.66 666.258 1336.75 667.872 1336.75 667.873ZM1344.9 665.646 1344.9 665.646 1350.82 667.873 1357.49 683.456 1350.82 667.872ZM1383.46 597.332 1409.35 628.527 1415.11 636.863 1435.25 672.316 1435.26 672.325 1435.26 672.324 1435.25 672.316 1420.86 645.194 1415.11 636.863 1412.59 632.428 1409.35 628.527 1403.59 620.196ZM1348.88 533.773 1368.6 540.24 1368.6 540.24ZM1287.13 513.526 1304.55 521.349 1287.13 513.527ZM1204.18 509.075 1207.14 515.753 1308.61 523.173 1308.61 523.173 1207.14 515.753ZM1311.57 503.138 1336.01 512.043C1373.04 524.906 1405.38 545.435 1433.03 573.633L1433.07 574.033 1433.03 573.633 1433.03 573.632 1388.04 537.087C1371.87 526.822 1354.53 518.475 1336.01 512.043L1311.57 503.139ZM1284.17 434.87C1267.13 435.118 1250.34 437.344 1233.8 441.549L1221.73 446.129 1233.8 441.549C1250.34 437.344 1267.13 435.118 1284.17 434.87L1391.56 445.259 1398.27 460.468 1391.56 445.259ZM1173.81 428.934 1173.81 428.934 1178.62 430.273ZM1298.98 399.252C1283.18 398.51 1265.96 400.922 1247.32 406.487L1247.32 406.487 1247.32 406.487 1187.14 432.644 1187.14 432.644 1247.32 406.487 1298.98 399.252 1370.08 408.157 1371.43 410.482 1370.08 408.157ZM1152.24 394.475 1152.24 394.475 1139 412.608 1139 412.608ZM975.318 386.637 975.318 386.637 977.168 388.594ZM1349.34 385.951 1365.64 401.478 1365.64 401.478ZM939.027 363.634 923.474 370.313 923.474 370.313ZM1196.88 290.101 1197.51 290.172 1202.7 290.913C1169.12 303.775 1138.75 319.606 1111.6 338.404 1093.82 350.772 1081.97 366.107 1076.05 384.411 1081.97 366.107 1093.82 350.772 1111.6 338.404 1138.75 319.606 1169.12 303.775 1202.7 290.913L1210.39 294.133 1202.7 290.913 1197.51 290.172ZM1090.01 289.136 1047.9 305.384 1047.9 305.384ZM1105.34 284.194 1102.71 284.235 1043.46 290.913 997.538 299.818C985.687 302.787 975.072 305.941 965.69 309.28L959.875 311.795 965.69 309.28 997.537 299.819 997.538 299.818 1043.46 290.913 965.69 330.984 1043.46 290.913 1102.71 284.235 1102.71 284.235ZM1150.11 283.494 1150.11 283.494 1110.86 290.913C1085.67 298.334 1060.99 309.959 1036.79 325.789 1013.58 341.125 995.563 361.16 982.725 385.896L978.651 390.162C979.886 390.038 981.244 388.616 982.725 385.896 995.563 361.16 1013.58 341.125 1036.79 325.789 1060.99 309.959 1085.67 298.334 1110.86 290.913ZM1156.73 270.832C1212.93 274.821 1264.54 293.14 1311.57 325.79 1373.78 369.323 1417.73 439.57 1443.4 536.531 1468.59 632.007 1453.28 752.713 1397.48 898.648L1391.56 914.973 1365.64 988.436C1330.58 1091.83 1307.62 1183.35 1296.76 1262.99 1283.42 1357.97 1304.41 1437.12 1359.71 1500.45L1361.93 1500.45C1373.78 1496.98 1382.67 1490.55 1388.6 1481.15L1388.6 1481.89C1412.79 1436.88 1416.99 1390.38 1401.19 1342.39L1401.93 1332 1407.85 1324.58 1418.22 1323.1 1427.11 1327.55C1449.33 1354.26 1460.93 1384.69 1461.92 1418.82 1463.89 1488.08 1429.58 1534.33 1358.97 1557.58 1297.25 1577.37 1237.75 1571.44 1180.48 1539.77 1098.02 1496.24 1041.98 1435.39 1012.35 1357.23L1023.46 1349.07 1038.27 1377.27 1072.34 1428.47C1097.52 1461.12 1128.14 1489.32 1164.18 1513.06 1198.75 1536.31 1236.76 1549.92 1278.24 1553.87 1318.73 1558.82 1355.76 1551.65 1389.34 1532.35 1410.57 1520.48 1425.38 1504.16 1433.77 1483.38 1442.66 1460.62 1446.12 1437.12 1444.14 1412.89L1444.14 1412.89 1443.03 1448.69C1441.31 1460.44 1438.22 1472 1433.77 1483.38 1425.38 1504.16 1410.57 1520.48 1389.34 1532.35 1355.76 1551.65 1318.73 1558.82 1278.24 1553.87 1236.76 1549.92 1198.75 1536.31 1164.18 1513.06 1128.14 1489.32 1097.52 1461.12 1072.34 1428.47L1038.27 1377.27 1023.46 1349.07C1015.07 1327.8 1008.89 1305.54 1004.94 1282.29L1005.68 1288.96C984.946 1233.06 980.997 1177.66 993.835 1122.75L1017.54 1012.18 1017.54 1012.18 1034.57 914.973C1046.91 838.295 1055.8 761.617 1061.23 684.94 1066.17 614.693 1039.01 557.308 979.762 512.785 953.099 492.502 931.374 469.993 914.586 445.259L872.37 451.937C865.704 433.758 864.593 416.412 869.037 399.901L875.333 383.669 862 383.669C873.851 356.956 898.785 332.221 936.805 309.465 966.925 292.15 1020.99 279.536 1099.01 271.62 1118.76 269.766 1138 269.503 1156.73 270.832Z" fill="#FFFFFF" fill-rule="evenodd"/><path d="M1443.79 1402.3 1444.29 1413.3 1443.29 1402.3 1443.79 1402.3" fill="#FF9900" fill-rule="evenodd"/><path d="M1202.73 291.725C1229.39 298.651 1254.82 309.286 1279.01 323.631 1232.6 332.536 1198.04 345.398 1175.33 362.216 1152.12 379.036 1136.08 395.607 1127.19 411.932L1139.04 413.415C1154.84 387.692 1178.04 368.153 1208.66 354.797 1239.27 341.44 1266.42 333.278 1290.12 330.309L1365.66 402.285C1313.33 376.068 1249.39 383.241 1173.85 423.804L1173.85 429.741 1187.18 433.451C1230.13 409.706 1267.41 398.576 1299.01 400.06L1370.11 408.964 1391.58 446.065 1284.2 435.676C1250.13 436.172 1217.05 444.581 1184.96 460.905L1181.25 467.583 1183.48 473.519 1196.07 475.745 1201.99 480.94C1231.61 454.721 1270.62 445.322 1319.01 452.743 1366.9 459.668 1396.77 470.304 1408.62 484.65L1410.84 490.586 1289.38 479.456C1256.8 479.456 1228.41 489.597 1204.21 509.879L1207.18 516.557 1308.64 523.976 1287.16 514.33C1314.81 519.278 1341.96 528.181 1368.63 541.043L1341.96 533.623 1272.35 533.623 1265.68 541.785 1269.39 555.883 1274.57 560.335 1282.72 560.335 1357.52 671.638 1357.52 684.253 1350.85 668.67 1344.93 666.444 1336.78 668.67C1350.11 737.431 1352.83 806.191 1344.93 874.951L1339 915.762C1334.06 941.486 1327.15 966.961 1318.27 992.19L1017.58 1012.97 1034.62 915.762C1046.96 839.087 1055.85 762.411 1061.28 685.737 1066.21 615.493 1039.06 558.109 979.811 513.588 953.149 493.306 931.426 470.799 914.639 446.065L872.425 452.743C863.537 428.504 864.525 405.749 875.387 384.477 886.743 361.722 908.714 340.451 941.3 320.663 955.125 313.244 973.886 306.566 997.586 300.629 977.342 310.028 958.087 321.653 939.819 335.504 928.957 344.408 923.526 356.281 923.526 371.121L939.078 364.443C944.016 349.603 952.903 338.72 965.74 331.794L1043.5 291.725 1102.75 285.047C1062.76 293.951 1029.68 313.244 1003.51 342.924 990.674 357.765 981.293 372.605 975.367 387.445 977.342 392.392 979.811 392.145 982.774 386.704 995.611 361.969 1013.63 341.935 1036.84 326.6 1061.03 310.77 1085.72 299.145 1110.9 291.725L1150.15 284.305 1190.88 290.24C1155.83 300.629 1125.46 318.685 1099.79 344.408L1056.83 391.155 1076.09 385.219C1082.01 366.916 1093.86 351.582 1111.64 339.214 1138.79 320.416 1169.16 304.586 1202.73 291.725M1423.43 530.655 1433.06 574.434C1405.41 546.237 1373.07 525.709 1336.04 512.847L1311.6 503.942 1423.43 530.655M1436.76 613.761 1435.28 673.123C1418 635.526 1393.07 603.62 1360.48 577.402L1330.86 555.142 1436.76 613.761M1415.28 1446.31C1425.65 1410.69 1424.66 1373.83 1412.32 1335.74 1429.11 1355.53 1439.48 1377.79 1443.43 1402.53L1442.69 1402.53 1415.28 1446.31M1384.92 706.514 1395.29 831.172 1372.33 692.415 1384.92 706.514" fill="#FFFFFF" fill-rule="evenodd"/><path d="M1191.2 290.236 1197.88 290.979 1203.07 291.72C1169.45 304.573 1139.03 320.392 1111.83 339.177 1094.03 351.536 1082.16 366.861 1076.23 385.152L1056.94 391.083 1099.97 344.368C1125.68 318.662 1156.09 300.618 1191.2 290.236M1279.47 323.605 1290.6 330.279C1266.86 333.245 1239.67 341.401 1209.01 354.749 1178.35 368.097 1155.1 387.623 1139.28 413.329L1127.41 411.847C1136.31 395.533 1152.38 378.973 1175.63 362.164 1198.37 345.357 1232.99 332.504 1279.47 323.605M1366.26 402.206 1370.71 408.881 1299.5 399.982C1267.85 398.499 1230.52 409.622 1187.49 433.351L1174.14 429.644 1174.14 423.711C1249.8 383.175 1313.84 376.006 1366.26 402.206M1392.22 445.957 1409.28 484.516C1397.41 470.18 1367.5 459.551 1319.53 452.63 1271.07 445.215 1232 454.607 1202.33 480.809L1196.4 475.617 1183.79 473.393 1181.56 467.461 1185.27 460.787C1217.41 444.474 1250.54 436.07 1284.67 435.575L1392.22 445.957M1411.51 490.448 1417.44 507.503 1424.12 530.491 1312.11 503.796 1336.59 512.694C1373.68 525.547 1406.07 546.062 1433.76 574.24L1437.47 613.542 1331.4 554.961 1361.07 577.207C1393.71 603.406 1418.68 635.292 1435.99 672.863L1412.25 783.35 1381.84 890.871 1374.42 915.341 1334.36 1034.73C1310.13 1101.96 1293.07 1170.67 1283.18 1240.87 1276.26 1290.3 1278.73 1339 1290.6 1386.95 1301.97 1433.91 1322.25 1476.18 1351.42 1513.75 1356.37 1510.78 1361.56 1508.07 1367 1505.59 1389.25 1490.76 1405.57 1470.74 1415.96 1445.53L1443.4 1401.78 1444.89 1412.9C1446.87 1437.13 1443.4 1460.61 1434.5 1483.35 1426.1 1504.11 1411.26 1520.42 1390 1532.29 1356.37 1551.57 1319.28 1558.74 1278.73 1553.79 1237.19 1549.84 1199.12 1536.24 1164.5 1513.01 1128.4 1489.28 1097.74 1461.1 1072.52 1428.47L1038.4 1377.31 1023.56 1349.13C1015.16 1327.87 1008.98 1305.63 1005.02 1282.4L1005.76 1289.07C984.992 1233.21 981.037 1177.84 993.894 1122.97L1017.63 1012.48 1318.79 991.718C1327.69 966.506 1334.61 941.047 1339.56 915.341L1345.49 874.557C1353.4 805.843 1350.68 737.128 1337.33 668.414L1345.49 666.189 1351.42 668.414 1358.1 683.986 1358.1 671.38 1283.18 560.151 1275.02 560.151 1269.83 555.702 1266.12 541.614 1272.8 533.457 1342.52 533.457 1369.23 540.872C1342.52 528.018 1315.33 519.121 1287.63 514.176L1309.14 523.816 1207.52 516.402 1204.56 509.728C1228.79 489.46 1257.22 479.326 1289.86 479.326L1411.51 490.448M997.603 300.618 1043.59 291.72 965.707 331.762C952.85 338.683 943.949 349.559 939.003 364.389L923.426 371.063C923.426 356.233 928.866 344.368 939.745 335.47 958.042 321.628 977.327 310.011 997.603 300.618M1102.93 285.046 1150.41 284.305 1111.09 291.72C1085.87 299.135 1061.15 310.752 1036.92 326.571 1013.67 341.896 995.625 361.917 982.767 386.635 979.8 392.072 977.327 392.32 975.35 387.376 981.284 372.546 990.68 357.716 1003.54 342.885 1029.75 313.224 1062.88 293.945 1102.93 285.046M1385.55 706.232 1372.94 692.143 1395.93 830.807 1385.55 706.232" fill="#DDDDDD" fill-rule="evenodd"/><path d="M1203.12 291.219 1197.94 290.477 1191.27 289.735 1150.54 283.799 1103.13 284.541 1043.88 291.219 997.963 300.124C974.263 306.06 955.5 312.739 941.675 320.159 909.086 339.947 887.114 361.219 875.758 383.975L862.426 383.975C874.277 357.262 899.211 332.526 937.231 309.77 967.351 292.456 1021.42 279.841 1099.43 271.926 1178.43 264.506 1249.29 282.562 1312 326.095 1374.21 369.628 1418.15 439.875 1443.83 536.836 1469.01 632.312 1453.7 753.018 1397.91 898.953L1391.98 915.279 1366.06 988.741C1331.01 1092.13 1308.04 1183.65 1297.18 1263.3 1283.85 1358.28 1304.84 1437.43 1360.14 1500.75L1362.36 1500.75C1374.21 1497.29 1383.1 1490.86 1389.02 1481.46L1389.02 1482.2C1413.22 1437.18 1417.41 1390.68 1401.61 1342.7L1402.35 1332.31 1408.28 1324.89 1418.65 1323.4 1427.54 1327.86C1449.75 1354.57 1461.36 1384.99 1462.35 1419.13 1464.32 1488.38 1430 1534.64 1359.4 1557.89 1297.68 1577.68 1238.18 1571.74 1180.9 1540.08 1098.44 1496.55 1042.4 1435.7 1012.78 1357.54L1023.89 1349.37 1038.7 1377.57 1072.77 1428.77C1097.95 1461.42 1128.56 1489.62 1164.61 1513.37 1199.17 1536.62 1237.19 1550.22 1278.67 1554.18 1319.15 1559.13 1356.19 1551.95 1389.76 1532.66 1410.99 1520.79 1425.81 1504.46 1434.2 1483.68 1443.09 1460.93 1446.55 1437.43 1444.57 1413.19L1443.83 1402.06C1439.88 1377.33 1429.51 1355.06 1412.72 1335.28 1425.07 1373.37 1426.05 1410.22 1415.69 1445.84 1405.32 1471.07 1389.02 1491.11 1366.8 1505.95 1361.37 1508.42 1356.19 1511.14 1351.25 1514.11 1322.12 1476.51 1301.87 1434.21 1290.52 1387.22 1278.67 1339.23 1276.2 1290.51 1283.11 1241.04 1292.99 1170.79 1310.02 1102.03 1334.21 1034.75L1374.21 915.279 1381.62 890.791 1411.98 783.195 1435.68 672.63 1437.16 613.267 1433.46 573.938 1423.83 530.158 1417.17 507.154 1411.24 490.088 1409.02 484.151 1391.98 445.564 1370.51 408.462 1366.06 401.783 1290.52 329.805 1279.41 323.127C1255.21 308.78 1229.78 298.145 1203.12 291.219" fill="#888888" fill-rule="evenodd"/></g></svg>
