<svg width="1761" height="1761" xmlns="http://www.w3.org/2000/svg" xmlns:xlink="http://www.w3.org/1999/xlink" overflow="hidden"><defs><clipPath id="clip0"><rect x="0" y="0" width="1761" height="1761"/></clipPath></defs><g clip-path="url(#clip0)"><path d="M437.086 744.865 458.777 714.184C469.247 700.715 481.214 690.987 494.677 685L481.962 726.905 460.272 818.946C451.297 862.846 450.799 905.249 458.777 946.156L464.012 950.646 466.255 961.871 464.759 982.823 461.019 991.802 450.549 1017.25C444.067 1035.21 441.325 1053.91 442.322 1073.37 443.818 1104.3 452.045 1132.23 467.003 1157.18L463.264 1164.66 457.281 1167.65C429.358 1186.11 422.876 1236.99 437.834 1320.31L427.364 1297.11C419.386 1281.14 413.901 1265.18 410.91 1249.22L403.43 1208.81 395.203 1160.17 388.471 1110.78 382.488 1061.4 378 1011.26 378 952.143 383.985 893.027 397.447 836.157 407.17 807.721 419.137 779.286 437.086 744.865M906.033 1150.44 903.041 1144.46 903.789 1136.97 906.033 1150.44M1027.95 853.367 1088.53 932.686C1106.48 961.621 1121.69 992.301 1134.15 1024.73 1147.62 1061.15 1158.34 1099.56 1166.31 1139.97 1179.78 1209.31 1180.52 1279.4 1168.56 1350.24L1150.61 1366.7C1105.73 1397.13 1059.36 1425.56 1011.49 1452 999.024 1441.03 984.813 1434.79 968.858 1433.3 946.421 1402.87 934.953 1369.69 934.454 1333.77 939.44 1294.36 941.934 1253.96 941.934 1212.55 941.435 1166.66 938.443 1121.01 932.958 1075.61 927.473 1027.72 915.507 981.077 897.058 935.68 872.127 874.319 848.693 812.461 826.753 750.102L812.543 742.619 808.055 732.143 809.551 720.17 820.022 716.429C842.958 724.411 865.396 734.388 887.335 746.361 941.186 773.798 988.055 809.467 1027.95 853.367" fill="#000000" fill-rule="evenodd" fill-opacity="0.2"/><path d="M182.628 1450.39 183.375 1463.09 183.537 1462.16 182.847 1450.43ZM1230.87 1419.7 1177.78 1573.04 1169.56 1576.78 1168.06 1576.78 1152.27 1590.43 1152.12 1591.67 1168.57 1577.45 1169.32 1586.43 1170.07 1577.45 1178.3 1573.7 1230.98 1421.45ZM1422.88 1351.37 1422.87 1352.56 1426.01 1361.35 1425.77 1359.47ZM1463.71 1310.21 1464.89 1310.49 1464.89 1310.49ZM1452.18 1307.5 1456.66 1378.56C1459.16 1408.48 1456.66 1441.89 1449.19 1478.79L1449.66 1478.44 1457.08 1426.12C1458.33 1409.42 1458.33 1393.59 1457.08 1378.64L1452.6 1307.6ZM1128.44 1261.87 1168.06 1507.22C1170.55 1522.68 1171.3 1538.39 1170.31 1554.34L1172.55 1555.09 1172.56 1555 1170.68 1554.38C1171.68 1538.42 1170.93 1522.72 1168.44 1507.26L1128.98 1263.09ZM1083.58 1194.55C1066.13 1304.75 1061.39 1415.46 1069.37 1526.67 1070.87 1547.11 1067.88 1566.81 1060.4 1585.76L1060.82 1585.5 1068.6 1556.81C1070.1 1546.96 1070.47 1536.93 1069.73 1526.71 1063.74 1443.32 1064.91 1360.22 1073.23 1277.4L1083.83 1195.39ZM1330.31 1193.05C1340.78 1288.3 1340.28 1383.8 1328.81 1479.54L1328.07 1491.51 1328.07 1493.01 1328.78 1491.56 1328.46 1491.56 1329.21 1479.59C1337.81 1407.8 1340.24 1336.15 1336.5 1264.64L1330.76 1193.88ZM317.956 1157.15 314.549 1157.82 314.458 1158.03 318.105 1157.3ZM298.754 1140.08 298.192 1141.7 291.788 1176.59 279.825 1210.25 278.328 1216.99 276.834 1240.18C275.837 1260.62 272.098 1280.82 265.619 1300.76 261.132 1315.73 254.155 1329.94 244.684 1343.4L214.776 1386.79 193.095 1416.71 188.608 1463.83 188.833 1463.85 193.316 1416.78 215.002 1386.86 244.914 1343.49C254.386 1330.03 261.365 1315.82 265.852 1300.86 272.332 1280.92 276.072 1260.73 277.067 1240.29L278.564 1217.11 280.06 1210.38 292.024 1176.73ZM288.048 1094.31 282.067 1127.97 272.347 1151.91 265.619 1164.63 252.161 1185.57 196.833 1380.8 197.169 1380.47 252.391 1185.7 265.852 1164.76 272.58 1152.05 282.303 1128.12 288.048 1095.79ZM1225.63 1093.38C1225.13 1093.25 1224.64 1093.81 1224.14 1095.06L1197.22 1165.37C1191.24 1182.83 1186.76 1202.03 1183.76 1222.97 1180.77 1243.42 1182.52 1261.62 1189 1277.58L1189.19 1276.65 1183.34 1252.37C1182.47 1243.26 1182.78 1233.59 1184.28 1223.36 1187.27 1202.4 1191.76 1183.18 1197.74 1165.72L1224.67 1095.35 1225.95 1093.9ZM1269.39 1078.01 1269.34 1078.03 1271.99 1079.35 1274.23 1081.6 1274.23 1081.36 1272.38 1079.51ZM1309.37 1047.19 1300.4 1053.17C1287.94 1090.07 1282.71 1127.72 1284.7 1166.12L1291.43 1243.92 1302.64 1323.21 1304.89 1334.43 1311.62 1344.9 1311.87 1344.9 1305.45 1334.9 1303.2 1323.67 1291.99 1244.32 1285.25 1166.47C1283.26 1128.04 1288.5 1090.36 1300.96 1053.43L1309.37 1047.81ZM1119.46 1040.45C1108.5 1063.39 1102.27 1087.33 1100.77 1112.26 1099.78 1136.2 1100.27 1160.14 1102.27 1184.07 1104.76 1213.5 1114.98 1239.43 1132.92 1261.87L1132.8 1261.39 1121.4 1244.79C1110.84 1226.64 1104.62 1206.52 1102.76 1184.43 1100.76 1160.48 1100.26 1136.52 1101.26 1112.57 1102.01 1100.09 1103.94 1087.86 1107.06 1075.88L1119.26 1042.59ZM1345.26 1018.01 1371.43 1216.24 1371.32 1212.52 1345.94 1020.31ZM1261.52 1009.04 1254.05 1056.16 1239.84 1123.48 1225.63 1181.83 1218.16 1217.73 1215.17 1238.68 1213.67 1330.69C1225.14 1339.66 1234.36 1349.88 1241.34 1361.35L1259.28 1395.02 1262.27 1406.98 1266.01 1443.64 1267.5 1460.84 1267.87 1460.76 1266.4 1443.7 1262.66 1407.06 1259.67 1395.09 1241.72 1361.44C1234.74 1349.97 1225.52 1339.75 1214.05 1330.78L1215.55 1238.8 1218.54 1217.86 1226.02 1181.96 1240.22 1123.63 1254.43 1056.33 1260.9 1015.56ZM1018.88 863.386 1019.46 865.013 1038.72 902.818 1055.16 939.47 1061.15 959.667C1072.11 1016.02 1075.85 1073.12 1072.36 1130.96L1072.71 1127.32 1072.53 1044.92C1070.66 1016.38 1066.98 988.022 1061.5 959.856L1055.52 939.664 1039.07 903.02ZM1173.3 847.464C1176.29 897.331 1170.06 947.699 1154.6 998.565L1143.39 1032.97C1109.99 1124.73 1119.22 1208.76 1171.05 1285.06L1171.11 1284.63 1153.98 1256.19C1117.94 1187.76 1114.53 1113.41 1143.76 1033.14L1154.98 998.742C1166.56 960.603 1172.97 922.744 1174.18 885.166L1173.68 848.387ZM974.007 837.212 974.125 837.781 989.178 863.547C993.789 873.022 997.838 883.12 1001.33 893.841L1011.05 934.234 1013.29 954.432C1010.3 1061.65 1019.03 1169.11 1039.46 1276.83L1039.62 1275.7 1026.68 1196.21C1015.74 1115.54 1011.39 1035.01 1013.64 954.621L1011.4 934.43 1001.68 894.046C994.696 872.61 985.474 853.664 974.007 837.212ZM1262.66 793.09 1262.73 793.459 1284.7 822.031 1284.6 821.624ZM806.934 688.884 804.691 691.128C800.204 700.604 800.952 699.856 806.934 688.884ZM427.375 672.69 427.367 672.696 432.163 677.85C432.785 679.97 432.349 682.401 430.853 685.144 422.381 700.105 415.901 716.062 411.414 733.017L400.199 783.134 391.976 834 383.002 882.621 371.041 920.022 350.853 965.652 333.656 1003.8 320.198 1049.43 318.704 1058.41C305.246 1069.63 297.395 1083.51 295.151 1100.06L294.78 1117.36 295.016 1117.65C293.021 1093.22 300.998 1073.53 318.945 1058.57L320.44 1049.6 333.9 1003.98 351.1 965.837 371.29 920.22 383.254 882.829 392.228 834.22 400.453 783.368 411.669 733.264C416.158 716.313 422.638 700.36 431.113 685.403 434.103 679.919 432.858 675.682 427.375 672.69ZM948.582 669.699 948.457 670.158 971.235 746.855C979.834 772.288 989.368 797.347 999.837 822.031L999.312 822.031 999.432 822.255 1005.42 833.472 1000.18 822.255C979.242 772.899 962.042 722.046 948.582 669.699ZM1109.74 658.964C1129.18 688.385 1146.13 719.304 1160.59 751.718L1214.42 863.921 1239.84 913.29 1248.81 932.738C1259.78 957.173 1264.26 982.607 1262.27 1009.04L1261.23 1016.33 1260.41 1024.92 1262.66 1009.21C1264.65 982.789 1260.16 957.363 1249.2 932.933L1240.22 913.491 1214.8 864.134 1160.96 751.96C1153.73 735.757 1145.87 719.928 1137.4 704.473L1110.26 659.486ZM772.492 656.135 757.587 706.837 758.015 706.689 772.852 656.238ZM656.197 654.743 656.137 654.864 662.632 665.696 662.787 665.727ZM355.587 642.03 354.797 643.93 347.114 674.672 330.666 735.261 321.694 765.931 308.982 810.063C298.018 852.451 293.531 895.586 295.525 939.47 297.518 979.366 297.518 1018.76 295.525 1057.66L295.806 1056.16 297.258 999.114C297.258 979.422 296.76 959.605 295.764 939.664 293.769 895.791 298.256 852.666 309.223 810.29L321.935 766.169 330.91 735.507 347.361 674.934ZM1020.37 625.577 1020.05 627.046 1020.58 658.589C1021.45 669.56 1023.01 680.407 1025.26 691.128 1030.74 720.051 1042.2 746.481 1059.65 770.418 1081.08 800.837 1098.28 832.504 1111.24 865.416L1126.94 913.29 1129.93 946.203C1128.44 966.649 1128.69 987.095 1130.68 1007.54L1131.03 1006.3 1130.3 946.395 1127.31 913.491 1111.6 865.629C1098.64 832.725 1081.44 801.066 1060.01 770.655 1042.56 746.725 1031.09 720.302 1025.61 691.386 1021.12 669.948 1019.38 648.012 1020.37 625.577ZM631.955 623.114 614.781 664.2 622.258 691.876 622.443 691.753 615.068 664.464 632.268 623.334ZM425.13 615.856 424.264 616.956 387.489 700.105 365.806 760.694 356.087 792.111 338.142 847.464 333.656 863.921 314.218 994.825 302.254 1048.68 302.747 1047.71 314.458 995.003 333.9 864.134 338.387 847.681 356.335 792.343 366.055 760.934 387.742 700.36ZM1232 597.161 1232.16 597.843 1248.81 627.547C1270.25 672.427 1285.7 719.055 1295.17 767.427L1306.38 840.731 1309.37 877.385C1310.87 955.678 1319.09 1033.47 1334.05 1110.77L1333.11 1101.98 1317.06 994.629C1312.94 955.742 1310.51 916.73 1309.77 877.594L1306.78 840.951 1295.56 767.664C1286.09 719.305 1270.63 672.69 1249.2 627.821ZM975.16 585.658 950.434 590.023 950.078 590.43 975.503 585.943 987.467 586.691C991.954 587.688 996.129 589.184 999.992 591.178L1010.43 598.501 1010.3 598.375C1003.82 592.39 996.096 588.401 987.123 586.406ZM745.638 573.799 747.12 586.406 659.813 602.69 659.187 603.143 747.427 586.691 745.931 573.978ZM666.404 564.76 665.918 565.003 690.39 566.487 690.297 566.209ZM1066.74 535.839 1066.6 536.296 1068.62 543.021 1069.37 552.745 1071.61 577.429C1072.61 586.904 1075.1 595.88 1079.09 604.358 1087.56 622.311 1097.78 639.515 1109.74 655.972L1110.46 659.583 1110.86 659.977 1110.11 656.238C1098.14 639.786 1087.92 622.586 1079.45 604.638 1075.46 596.163 1072.97 587.189 1071.97 577.717L1069.73 553.038 1068.98 543.317ZM1232.62 531.133 1232.75 531.352C1238.6 532.474 1244.17 534.141 1249.43 536.353L1264.19 544.545 1263.95 544.33C1259.27 541.026 1254.31 538.268 1249.04 536.055ZM675.639 530.604 674.891 531.352 677.135 532.1ZM1210.18 516.202 1210.31 516.395 1228.71 524.492 1228.62 524.321ZM671.948 505.901 671.9 505.926 688.02 519.114 688.053 519.084ZM740.034 505.457 739.643 505.619 767.307 509.36 767.358 509.153ZM853.459 480.5 858.523 489.912 789.737 504.122 789.737 533.297 678.181 528.832 677.883 529.108 790.051 533.595 790.051 504.43 858.848 490.222 853.613 480.5ZM696.825 479.728 696.577 479.751 708.844 486.247 708.988 486.172ZM1138.02 471.756 1138.15 471.9C1144.38 477.384 1151.48 482.494 1159.46 487.23 1166.44 492.216 1173.92 496.204 1181.9 499.195L1205.58 509.562 1205.45 509.36C1196.97 506.368 1189 502.877 1181.52 498.888 1173.55 495.896 1166.07 491.905 1159.09 486.92ZM752.487 448.803 752.662 449.091 828.65 467.535 829.364 467.471ZM916.979 427.161 901.141 429.322 903.384 438.298 895.907 444.282 869.738 443.534 866.747 453.258 851.046 457.747 860.019 472.707 844.317 480.187 845.298 480.187 860.343 473.021 851.37 458.065 867.073 453.578 870.065 443.856 896.237 444.604 903.715 438.622 901.472 429.647 917.923 427.404ZM780.33 419.178 849.466 441.244 850.299 441.291 781.154 419.212ZM808.835 410.064 807.998 410.204 886.979 423.247 889.178 423.338ZM956.495 406.933 865.252 413.613 866.32 413.889 957.556 407.213ZM809.304 401.827 808.746 401.978 829.4 406.251 830.112 406.133ZM870.812 362.343 892.498 369.074 960.546 387.769C963.538 387.271 963.04 385.028 959.052 381.04L958.939 381.016 962.076 385.375C962.325 386.497 961.702 387.183 960.206 387.432L892.168 368.732 873.266 362.863ZM817.906 323.083C882.092 321.836 944.595 334.674 1005.42 361.595 1024.86 350.627 1062.5 353.121 1118.33 369.074L1137.78 375.056C1204.08 395.497 1268.39 454.824 1330.71 553.038 1393.02 650.754 1413.96 758.192 1393.52 875.352 1388.04 908.256 1380.06 940.162 1369.59 971.073L1341.17 947.143 1347.16 735.507 1341.92 686.899 1317.99 591.925C1311.51 570.488 1298.3 552.54 1278.36 538.083L1278.14 537.955 1302.83 562.095C1309.43 571.071 1314.36 580.92 1317.6 591.642L1341.52 686.64 1346.76 735.261 1340.78 946.95 1369.19 970.888 1373.67 978.367C1402.58 1054.67 1406.82 1152.16 1386.38 1270.84L1395.36 1285.81C1399.84 1295.28 1402.33 1305.25 1402.83 1315.73 1404.83 1345.65 1404.83 1375.32 1402.83 1404.74 1400.34 1448.12 1390.12 1490.01 1372.18 1530.41L1296.66 1574.54 1241.09 1573.05 1241.13 1573.7 1297.22 1575.2 1372.76 1531.03C1390.71 1490.61 1400.94 1448.69 1403.43 1405.27 1405.42 1375.82 1405.42 1346.13 1403.43 1316.18 1402.93 1305.7 1400.44 1295.72 1395.95 1286.24L1386.97 1271.27C1407.42 1152.49 1403.18 1054.92 1374.26 978.566 1388.72 1000.03 1397.7 1023.73 1401.19 1049.68 1405.17 1081.13 1407.42 1112.82 1407.92 1144.76L1404.18 1199.4C1431.1 1211.38 1454.79 1229.1 1475.23 1252.55 1496.67 1278.01 1509.64 1307.45 1514.13 1340.89 1519.11 1380.32 1517.62 1418.99 1509.64 1456.92L1508.14 1424.73C1508.64 1385.31 1500.66 1347.38 1484.21 1310.95 1477.23 1296.47 1467.75 1283.75 1455.79 1272.77L1435.59 1254.05 1435.52 1254.14 1455.17 1272.34C1467.13 1283.31 1476.6 1296.03 1483.58 1310.49 1500.03 1346.89 1508.01 1384.79 1507.51 1424.19L1509 1456.35 1479.1 1493.75 1463.39 1513.2 1437.97 1537.14 1421.38 1544.36 1421.38 1545.25 1389.97 1563.22 1367.53 1564.72 1366.03 1546.75 1358.55 1556.48C1340.6 1583.93 1315.67 1600.4 1283.76 1605.89L1270.3 1603.65 1269.55 1593.17C1259.08 1607.14 1246.86 1618.62 1232.9 1627.6 1223.92 1633.09 1214.45 1634.34 1204.48 1631.34L1130.43 1625.36 1130.43 1622.36 1124.45 1625.36 1028.71 1649.31 1030.95 1635.09 962.139 1674.01 941.944 1680 951.667 1662.04C970.117 1635.09 995.049 1616.62 1026.47 1606.64L1045.91 1633.59 1090.79 1614.88C1107.24 1607.89 1120.71 1597.91 1131.18 1584.93L1146.14 1523.55 1151.18 1512.71 1150.87 1511.71 1145.63 1522.93 1130.68 1584.26C1120.21 1597.23 1106.75 1607.2 1090.31 1614.19L1045.44 1632.89 1026.01 1605.96C994.6 1615.93 969.677 1634.38 951.235 1661.31L941.515 1679.26 928.426 1682.9 928.392 1683 928.321 1682.93 928.057 1683 928.143 1682.74 912.502 1666.36C908.638 1659.51 906.208 1651.34 905.211 1641.87 903.217 1624.92 907.205 1609.47 917.175 1595.51L987.467 1492.31 997.936 1466.88C1002.43 1447.94 1000.18 1430.74 991.206 1415.28 979.242 1394.34 969.271 1372.65 961.294 1350.22 950.328 1317.82 948.333 1284.91 955.313 1251.51 961.793 1218.11 965.781 1184.7 967.277 1151.3L968.773 1054.83C969.271 1012.95 960.049 973.815 941.104 937.42 929.639 915.982 919.668 894.046 911.193 871.613L865.578 745.229 864.082 743.734 855.856 704.847 840.153 677.925C841.15 662.969 834.171 650.006 819.215 639.038L819.195 639.032 828.616 647.369C836.841 656.345 840.579 666.443 839.832 677.664L855.533 704.593 863.757 743.49 848.803 739.75 853.29 718.057 800.204 722.545 798.709 710.576 742.634 718.057 750.858 682.901 661.885 685.892 608.801 707.585 601.323 705.341 602.819 682.901 521.322 722.545 516.088 694.121 483.191 705.341 470.811 698.783 470.746 698.864 469.249 698.116 466.258 705.595 458.781 714.569 464.763 708.585 407.184 852.916 406.928 854.156 406.928 869.157 406.18 888.606 404.686 911.794 402.443 956.675C401.944 974.627 399.203 992.829 394.218 1011.28L387.489 1024.75 377.021 1036.71 333.656 1077.86 327.97 1082.83 327.918 1083.25 327.17 1084 327.918 1085.49 327.895 1085.92 351.6 1148.92 346.367 1181.08 321.694 1213.25C317.208 1220.23 314.466 1227.71 313.469 1235.69L311.973 1266.36C312.472 1280.32 311.227 1294.03 308.236 1307.5L297.021 1345.65 276.834 1398.01 273.095 1402.5 166.926 1519.93 160.945 1520.68 157.954 1529.66 143.278 1545.08 143.214 1545.4C126.763 1565.34 121.528 1589.03 127.51 1616.45L120.78 1626.17 105.076 1624.67C98.5959 1602.24 99.8428 1580.05 108.816 1558.12 115.795 1541.66 123.522 1525.52 131.997 1509.69L159.324 1463.71 159.449 1463.09 173.655 1442.89 175.15 1440.64 169.916 1454.86 170.223 1454.68 175.369 1440.71 180.604 1432.48 190.78 1420.85 190.851 1420.45 180.384 1432.42 186.366 1401.75 186.358 1401.43 181.352 1392.85 161.162 1361.44C153.683 1348.97 148.199 1336.01 144.71 1322.55 141.718 1309.09 141.469 1295.88 143.962 1282.92 146.454 1267.96 151.19 1253.75 158.17 1240.29L182.847 1197.66 203.037 1158.78 212.758 1128.12 215.002 1071.28 216.497 930.691C216.996 888.812 224.723 848.678 239.679 810.29L251.643 780.378 269.59 737.751C276.57 720.302 282.054 702.603 286.042 684.655L293.519 651.751 309.223 598.656 311.466 594.917C343.871 538.083 410.923 480.998 512.622 423.665L527.578 415.439 591.139 382.534 620.303 369.074C687.854 339.66 753.721 324.329 817.906 323.083Z" fill="#FFFFFF" fill-rule="evenodd"/><path d="M166.97 1520.17 158 1529.89 160.991 1520.92 166.97 1520.17M804.627 691.245 806.87 689C800.89 699.973 800.142 700.721 804.627 691.245M1452 1307.7 1442.28 1304.71 1452 1307.7M1328.66 1491.74 1327.91 1493.24 1327.91 1491.74 1328.66 1491.74M1167.93 1577.03 1169.43 1577.03 1168.68 1586 1167.93 1577.03" fill="#CC6600" fill-rule="evenodd"/><path d="M1130 1625 1124.02 1625 1130 1622.01 1130 1625M466.472 705.14 464.978 708.134 459 714.122 466.472 705.14M675.694 530 677.188 531.497 674.946 530.748 675.694 530M999.239 821.901 999.99 821.901 1005.22 833.128 999.239 821.901" fill="#A95401" fill-rule="evenodd"/><path d="M143.214 1545.4C126.763 1565.34 121.528 1589.03 127.51 1616.45L120.78 1626.17 105.076 1624.67C98.5959 1602.24 99.8428 1580.05 108.816 1558.12 122.774 1525.21 139.725 1493.55 159.666 1463.14L143.214 1545.4M175.369 1440.71 180.604 1432.48 191.073 1420.52 183.595 1463.14 182.847 1450.43 179.108 1449.68 170.135 1454.92 175.369 1440.71M186.587 1401.82 181.352 1392.85 161.162 1361.44C153.683 1348.97 148.199 1336.01 144.71 1322.55 141.718 1309.09 141.469 1295.88 143.962 1282.92 146.454 1267.96 151.19 1253.75 158.17 1240.29L182.847 1197.66 203.037 1158.78 212.758 1128.12 215.002 1071.28 216.497 930.691C216.996 888.813 224.723 848.679 239.679 810.29L251.643 780.378 269.591 737.751C276.57 720.302 282.054 702.603 286.042 684.655L293.52 651.751 309.223 598.656 311.466 594.917C343.871 538.083 410.923 480.998 512.624 423.665L527.579 415.439 591.141 382.534 620.305 369.074C755.405 310.246 883.776 307.752 1005.42 361.595 1024.86 350.627 1062.5 353.121 1118.33 369.074L1137.78 375.056C1204.08 395.497 1268.39 454.824 1330.71 553.038 1393.02 650.754 1413.96 758.192 1393.52 875.352 1388.04 908.256 1380.06 940.163 1369.59 971.073L1341.17 947.143 1347.16 735.507 1341.92 686.899 1317.99 591.925C1311.51 570.488 1298.3 552.54 1278.36 538.083 1266.4 529.108 1253.93 523.624 1240.97 521.63L1122.07 454.326C1131.05 466.789 1143.51 477.758 1159.46 487.23 1166.44 492.216 1173.92 496.204 1181.9 499.195 1189.37 503.184 1197.35 506.673 1205.82 509.665L1210.31 516.395 1229.01 524.622 1232.75 531.352C1256.18 535.839 1274.87 549.05 1288.83 570.986L1292.57 579.212 1302.29 617.352C1324.23 719.554 1331.95 822.006 1325.47 924.708L1323.98 952.378 1323.98 986.777 1328.46 1054.83 1334.45 1110.92C1319.49 1033.64 1311.26 955.867 1309.77 877.594L1306.78 840.951 1295.56 767.664C1286.09 719.305 1270.63 672.69 1249.2 627.821L1232 597.161 1285.09 822.255 1262.66 793.09 1292.57 947.143 1281.35 945.647C1277.86 948.639 1276.12 951.629 1276.12 954.621 1274.12 977.056 1273.62 999.739 1274.62 1022.67L1274.62 1081.75 1272.38 1079.51 1269.39 1078.01 1267.89 1078.76 1268.64 1082.5 1271.63 1086.99C1270.14 1112.91 1269.89 1139.08 1270.88 1165.51 1271.88 1200.41 1274.87 1235.3 1279.86 1270.2L1284.34 1302.36C1289.33 1338.75 1291.07 1374.9 1289.58 1410.79L1281.35 1457.91 1267.89 1460.9 1266.4 1443.7 1262.66 1407.06 1259.67 1395.09 1241.72 1361.44C1234.74 1349.97 1225.52 1339.75 1214.05 1330.78L1215.55 1238.8 1218.54 1217.86 1226.02 1181.96 1240.22 1123.63 1254.43 1056.33 1261.91 1009.21 1260.41 1024.92 1262.66 1009.21C1264.65 982.789 1260.16 957.363 1249.2 932.934L1240.22 913.491 1214.8 864.135 1160.96 751.96C1146.5 719.554 1129.55 688.643 1110.11 659.23L1110.86 659.977 1110.11 656.238C1098.14 639.786 1087.92 622.586 1079.45 604.638 1075.46 596.163 1072.97 587.189 1071.97 577.717L1069.73 553.038 1068.98 543.317 1066.74 535.839 1059.26 561.265 1060.01 563.508 1066.74 585.195 1066.74 587.438 1065.99 599.404 1066.74 610.621 1074.21 624.081 1003.17 588.186 976.252 576.968 955.315 584.447 950.08 590.43 975.505 585.943 987.469 586.691C996.443 588.685 1004.17 592.673 1010.65 598.656L1077.95 664.464C1091.91 679.919 1103.63 697.618 1113.1 717.56 1157.97 812.286 1163.95 909.004 1131.05 1007.72 1129.05 987.276 1128.8 966.836 1130.3 946.395L1127.31 913.491 1111.6 865.629C1098.64 832.725 1081.44 801.067 1060.01 770.655 1042.56 746.725 1031.09 720.302 1025.61 691.386 1021.12 669.948 1019.38 648.012 1020.37 625.577 1013.39 646.018 1011.4 666.708 1014.39 687.647L1018.88 706.343C1023.36 719.305 1029.1 731.769 1036.08 743.734L1060.75 780.378C1059.76 804.309 1066.24 826.493 1080.2 846.933L1086.18 862.639 1091.41 888.065 1092.91 908.256 1081.69 1038.38 1072.72 1131.11C1076.21 1073.28 1072.47 1016.19 1061.5 959.856L1055.52 939.664 1039.07 903.021 1018.88 863.387C1033.83 898.783 1044.8 935.178 1051.78 972.569 1063.25 1038.38 1064.24 1104.93 1054.77 1172.24L1039.82 1276.93C1019.38 1169.25 1010.65 1061.81 1013.64 954.621L1011.4 934.43 1001.68 894.047C994.698 872.61 985.476 853.664 974.009 837.212 988.965 896.042 998.437 955.369 1002.43 1015.2L1015.89 1176.73 1034.58 1385.37C1038.07 1436.72 1039.32 1488.32 1038.32 1540.17L1035.33 1549.89 1006.91 1579.05C976.502 1600.49 952.822 1627.66 935.872 1660.57 931.884 1668.05 929.391 1675.52 928.394 1683 914.934 1674.53 907.207 1660.82 905.213 1641.87 903.219 1624.92 907.207 1609.47 917.177 1595.51L987.469 1492.31 997.938 1466.88C1002.43 1447.94 1000.18 1430.74 991.208 1415.28 979.244 1394.34 969.273 1372.65 961.296 1350.22 950.33 1317.82 948.335 1284.91 955.315 1251.51 961.795 1218.11 965.783 1184.7 967.279 1151.3L968.775 1054.83C969.273 1012.95 960.051 973.815 941.106 937.421 929.641 915.983 919.67 894.047 911.195 871.613L865.58 745.229 864.084 743.734 855.858 704.847 840.155 677.925C841.152 662.969 834.173 650.006 819.217 639.038L808 635.3 806.504 642.03 805.009 645.021 801.27 648.759 804.261 660.725 777.341 700.36 757.898 707.091 772.854 656.238 767.619 654.743 715.274 676.429 662.929 665.96 656.199 654.743 644.982 677.177 622.548 692.134 615.07 664.464 632.27 623.334 612.079 609.126 568.707 620.343 561.23 618.099 532.812 635.3 525.336 634.552 515.614 643.525 470.747 698.864 469.25 698.116 466.259 705.595 458.782 714.569 464.764 708.585 407.184 852.916 401.949 878.342 381.011 975.56 373.533 997.995 363.812 1018.93C358.827 1028.41 352.596 1036.88 345.117 1044.36L333.9 1060.07 328.666 1077.26 327.918 1083.25 327.17 1084 327.918 1085.49 325.675 1128.12 326.423 1131.11 314.458 1158.03 318.197 1157.28 318.945 1158.03 319.693 1159.53 308.475 1192.43 298.754 1225.33 290.529 1258.99 278.564 1312.08C274.077 1331.53 267.845 1349.97 259.87 1367.42L239.679 1406.31 215.75 1442.95 196.308 1464.64 188.829 1463.89 193.316 1416.78 215.002 1386.86 244.914 1343.49C254.386 1330.03 261.365 1315.82 265.852 1300.86 272.333 1280.92 276.072 1260.73 277.068 1240.29L278.564 1217.11 280.06 1210.38 292.024 1176.73 298.754 1140.08 278.564 1198.41 250.148 1300.86 241.922 1329.28 236.687 1338.26 218.741 1359.94 197.055 1380.88 252.391 1185.7 265.852 1164.76 272.581 1152.05 282.303 1128.12 288.285 1094.46 288.285 1109.42 295.016 1117.65C293.021 1093.22 300.998 1073.53 318.945 1058.57L320.44 1049.6 333.9 1003.98 351.1 965.838 371.29 920.221 383.254 882.829 392.228 834.221 400.454 783.368 411.67 733.264C416.158 716.313 422.638 700.36 431.113 685.403 434.104 679.919 432.858 675.682 427.375 672.69L420.644 677.177 408.679 716.064 395.967 777.386 384.75 839.455C382.258 855.41 379.017 871.113 375.029 886.568L360.821 924.708 333.9 986.777 302.493 1048.85 314.458 995.003 333.9 864.135 338.387 847.682 356.335 792.344 366.056 760.934 387.742 700.36 425.131 615.856 405.688 640.534 386.994 665.96 382.507 676.429 358.577 760.934 334.648 850.674 333.9 853.664 295.764 1057.82C297.757 1018.93 297.757 979.548 295.764 939.664 293.769 895.792 298.256 852.667 309.223 810.29L321.935 766.17 330.91 735.507 347.361 674.934 355.587 642.03 327.918 708.585 309.223 759.438 298.006 786.36 291.277 805.055 289.781 810.29 285.294 842.447C283.798 903.768 279.312 964.841 271.833 1025.67L265.852 1034.64 265.852 1050.34C264.855 1076.77 261.863 1102.69 256.878 1128.12L250.148 1146.06 235.192 1179.72 237.435 1186.45C221.482 1200.41 210.516 1216.36 204.533 1234.31L191.073 1282.92 187.334 1312.08 185.839 1371.16 186.587 1401.82M790.053 533.595 790.053 504.43 858.85 490.222 853.615 480.5 844.642 480.5 860.345 473.021 851.372 458.065 867.075 453.578 870.067 443.856 896.239 444.604 903.717 438.622 901.474 429.647 917.925 427.404 865.58 413.943 957.558 407.213 872.31 384.778 808.748 401.978 830.433 406.465 808 410.204 889.509 423.665 780.332 419.178 850.624 441.613 744.438 435.63 752.664 449.091 829.686 467.786 696.579 479.751 709.291 486.483 671.902 505.926 688.354 519.386 677.885 529.108 790.053 533.595M675.641 530.604 674.893 531.352 677.137 532.1 675.641 530.604M701.814 547.056 665.92 565.003 690.597 566.499 694.337 577.717 659.189 603.143 747.429 586.691 745.933 573.978 701.814 547.056M892.5 369.074 960.548 387.769C963.54 387.271 963.042 385.028 959.054 381.04L870.814 362.343 892.5 369.074M1000.18 822.255C979.244 772.899 962.044 722.046 948.584 669.699 941.106 689.641 941.854 709.333 950.827 728.778L965.783 759.438 999.434 822.255 1005.42 833.473 1000.18 822.255M1191.62 905.264C1217.04 954.621 1226.02 1006.97 1218.54 1062.31 1213.55 1078.26 1211.31 1090.97 1211.81 1100.45 1212.31 1109.92 1207.32 1131.11 1196.85 1164.01 1185.88 1196.42 1177.41 1236.8 1171.43 1285.16 1119.58 1208.88 1110.36 1124.88 1143.76 1033.14L1154.98 998.742C1170.43 947.89 1176.66 897.536 1173.67 847.682L1189.37 885.822C1187.88 892.302 1188.63 898.783 1191.62 905.264M1452.6 1307.59 1465.31 1310.59C1476.27 1349.47 1482.51 1389.11 1484 1429.49L1482.51 1454.17 1449.6 1478.85C1457.08 1441.95 1459.58 1408.55 1457.08 1378.64L1452.6 1307.59M1369.59 1138.59 1371.83 1216.36 1345.66 1018.19C1360.62 1055.58 1368.59 1095.71 1369.59 1138.59M1328.46 1491.56 1329.21 1479.59C1340.68 1383.87 1341.17 1288.4 1330.71 1193.18L1347.9 1224.59 1343.42 1245.53C1354.39 1255.5 1362.36 1265.97 1367.35 1276.93 1376.82 1298.37 1384.3 1320.56 1389.78 1343.49 1395.27 1367.92 1396.76 1392.6 1394.27 1417.52L1395.76 1422.01C1393.27 1438.96 1386.29 1453.42 1374.83 1465.39L1357.63 1477.35 1329.21 1491.56 1328.46 1491.56M1110.86 1315.82 1128.06 1413.79C1131.54 1436.22 1131.54 1459.4 1128.06 1483.33L1116.84 1552.13 1060.75 1585.79C1068.23 1566.84 1071.22 1547.15 1069.73 1526.71 1061.75 1415.53 1066.49 1304.85 1083.93 1194.67 1093.41 1220.6 1100.14 1247.77 1104.13 1276.19L1110.86 1315.82M1170.68 1554.38C1171.68 1538.42 1170.93 1522.72 1168.44 1507.26L1128.8 1261.98 1194.61 1410.79 1172.92 1555.12 1170.68 1554.38" fill="#FFFFFF" fill-rule="evenodd"/><path d="M273.095 1402.5 166.926 1519.93 160.945 1520.68 157.954 1529.66 143 1545.37 159.449 1463.09 173.655 1442.89 175.15 1440.64 169.917 1454.86 178.888 1449.62 182.627 1450.37 183.375 1463.09 190.851 1420.45 180.384 1432.42 186.366 1401.75 185.618 1371.08 187.113 1311.99 190.851 1282.81 204.309 1234.19C210.291 1216.24 221.257 1200.28 237.207 1186.32L234.964 1179.59 249.917 1145.93 256.647 1127.97C261.631 1102.54 264.622 1076.61 265.619 1050.18L265.619 1034.47 271.6 1025.49C279.077 964.655 283.562 903.566 285.058 842.229L289.544 810.064 291.04 804.828 297.768 786.128 308.983 759.199 327.676 708.333 355.34 641.76 347.115 674.673 330.667 735.262 321.694 765.932 308.983 810.064C298.018 852.452 293.532 895.587 295.526 939.471 297.519 979.366 297.519 1018.76 295.526 1057.66L333.657 853.449 334.405 850.457 358.33 760.695 382.256 676.169 386.742 665.697 405.434 640.264 424.875 615.578 387.49 700.106 365.807 760.695 356.088 792.112 338.143 847.465 333.657 863.922 314.218 994.825 302.255 1048.68 333.657 986.596 360.573 924.511 374.779 886.362C378.768 870.903 382.007 855.195 384.5 839.237L395.715 777.152 408.425 715.814 420.388 676.917 427.118 672.428C432.601 675.421 433.846 679.659 430.855 685.145 422.382 700.106 415.902 716.063 411.415 733.018L400.2 783.135 391.977 834.001 383.003 882.622 371.042 920.023 350.854 965.652 333.657 1003.8 320.199 1049.43 318.704 1058.41C300.76 1073.37 292.784 1093.07 294.778 1117.5L288.049 1109.27 288.049 1094.31 282.068 1127.97 272.347 1151.91 265.619 1164.63 252.161 1185.57 196.833 1380.8 218.515 1359.86 236.459 1338.17 241.693 1329.19 249.917 1300.76 278.329 1198.29 298.516 1139.94 291.788 1176.59 279.825 1210.25 278.329 1216.99 276.834 1240.18C275.837 1260.62 272.098 1280.82 265.619 1300.76 261.133 1315.73 254.155 1329.94 244.684 1343.4L214.777 1386.79 193.095 1416.71 188.608 1463.83 196.085 1464.58 215.524 1442.89 239.45 1406.24 259.638 1367.34C267.612 1349.88 273.843 1331.43 278.329 1311.99L290.292 1258.88 298.516 1225.22 308.236 1192.3 319.452 1159.39 318.704 1157.89 317.956 1157.15 314.218 1157.89 326.18 1130.96 325.433 1127.97 327.676 1085.34 351.601 1148.92 346.367 1181.08 321.694 1213.25C317.209 1220.23 314.466 1227.71 313.47 1235.69L311.974 1266.36C312.473 1280.32 311.227 1294.03 308.236 1307.5L297.021 1345.65 276.834 1398.01 273.095 1402.5M1369.19 970.888 1373.67 978.368C1402.58 1054.67 1406.82 1152.16 1386.38 1270.84L1395.36 1285.81C1399.84 1295.28 1402.33 1305.25 1402.83 1315.73 1404.83 1345.65 1404.83 1375.32 1402.83 1404.74 1400.34 1448.12 1390.12 1490.01 1372.18 1530.41L1296.66 1574.54 1240.59 1573.04 1230.87 1419.7 1177.78 1573.04 1169.56 1576.78 1168.06 1576.78 1151.61 1591C1151.61 1577.53 1153.11 1565.31 1156.1 1554.34 1159.59 1539.38 1157.84 1525.17 1150.87 1511.71L1145.63 1522.93 1130.68 1584.26C1120.21 1597.23 1106.75 1607.2 1090.31 1614.19L1045.44 1632.89 1026.01 1605.96C994.602 1615.93 969.679 1634.38 951.238 1661.31L941.517 1679.26 928.059 1683C929.055 1675.52 931.548 1668.04 935.536 1660.56 952.483 1627.65 976.16 1600.47 1006.57 1579.03L1034.98 1549.86 1037.97 1540.13C1038.96 1488.27 1037.72 1436.66 1034.23 1385.29L1015.54 1176.59 1002.08 1015.02C998.091 955.18 988.62 895.837 973.666 836.993 985.131 853.449 994.352 872.399 1001.33 893.842L1011.05 934.235 1013.29 954.432C1010.3 1061.65 1019.03 1169.11 1039.46 1276.83L1054.42 1172.11C1063.89 1104.78 1062.89 1038.21 1051.43 972.384 1044.45 934.983 1033.48 898.58 1018.53 863.174L1038.72 902.818 1055.16 939.471 1061.15 959.668C1072.11 1016.02 1075.85 1073.12 1072.36 1130.96L1081.33 1038.21 1092.55 908.055 1091.05 887.859 1085.82 862.426 1079.84 846.717C1065.88 826.271 1059.4 804.081 1060.4 780.144L1035.72 743.491C1028.75 731.523 1023.01 719.056 1018.53 706.089L1014.04 687.389C1011.05 666.444 1013.05 645.749 1020.02 625.302 1019.03 647.744 1020.77 669.686 1025.26 691.129 1030.74 720.052 1042.2 746.482 1059.65 770.419 1081.08 800.838 1098.28 832.505 1111.24 865.417L1126.94 913.291 1129.93 946.204C1128.44 966.649 1128.69 987.095 1130.68 1007.54 1163.58 908.803 1157.6 812.06 1112.74 717.31 1103.26 697.362 1091.55 679.659 1077.59 664.201L1010.3 598.375C1003.82 592.39 996.098 588.402 987.125 586.406L975.163 585.658 949.741 590.147 954.975 584.162 975.911 576.681 1002.83 587.902 1073.86 623.807 1066.38 610.343 1065.63 599.122 1066.38 587.153 1066.38 584.911 1059.65 563.217 1058.9 560.974 1066.38 535.541 1068.62 543.021 1069.37 552.745 1071.61 577.43C1072.61 586.904 1075.1 595.88 1079.09 604.358 1087.56 622.311 1097.78 639.515 1109.74 655.972L1110.49 659.711 1109.74 658.965C1129.18 688.386 1146.13 719.305 1160.59 751.719L1214.42 863.922 1239.84 913.291 1248.81 932.739C1259.78 957.174 1264.26 982.607 1262.27 1009.04L1260.03 1024.75 1261.52 1009.04 1254.05 1056.16 1239.84 1123.48 1225.63 1181.83 1218.16 1217.73 1215.17 1238.68 1213.67 1330.69C1225.14 1339.66 1234.36 1349.88 1241.34 1361.35L1259.28 1395.02 1262.27 1406.98 1266.01 1443.64 1267.5 1460.84 1280.96 1457.85 1289.19 1410.72C1290.68 1374.82 1288.94 1338.66 1283.95 1302.26L1279.47 1270.1C1274.48 1235.19 1271.49 1200.28 1270.49 1165.37 1269.5 1138.94 1269.75 1112.76 1271.24 1086.83L1268.25 1082.34 1267.5 1078.6 1269 1077.86 1271.99 1079.35 1274.23 1081.6 1274.23 1022.5C1273.24 999.562 1273.73 976.872 1275.73 954.432 1275.73 951.44 1277.47 948.448 1280.96 945.456L1292.18 946.951 1262.27 792.859 1284.7 822.032 1231.62 596.878 1248.81 627.547C1270.25 672.428 1285.7 719.056 1295.17 767.428L1306.38 840.732 1309.37 877.386C1310.87 955.679 1319.09 1033.47 1334.05 1110.77L1328.07 1054.67 1323.58 986.596 1323.58 952.188 1325.07 924.511C1331.55 821.783 1323.83 719.305 1301.9 617.075L1292.18 578.927 1288.44 570.697C1274.48 548.755 1255.79 535.541 1232.36 531.053L1228.62 524.321 1209.93 516.092 1205.45 509.36C1196.97 506.368 1189 502.878 1181.52 498.888 1173.55 495.896 1166.07 491.906 1159.09 486.92 1143.14 477.445 1130.68 466.474 1121.71 454.007L1240.59 521.328C1253.55 523.323 1266.01 528.808 1277.97 537.785 1297.91 552.247 1311.12 570.198 1317.6 591.642L1341.52 686.641 1346.76 735.262 1340.78 946.951 1369.19 970.888M1509 1456.35 1479.1 1493.75 1463.39 1513.2 1437.97 1537.14 1420.78 1544.62 1422.27 1350.88 1426.01 1361.35 1415.54 1279.07 1434.98 1253.64 1455.17 1272.34C1467.13 1283.31 1476.6 1296.03 1483.58 1310.49 1500.03 1346.89 1508.01 1384.79 1507.51 1424.19L1509 1456.35M863.759 743.491 848.805 739.751 853.292 718.057 800.206 722.546 798.711 710.577 742.636 718.057 750.86 682.902 661.887 685.893 608.803 707.586 601.325 705.342 602.821 682.902 521.323 722.546 516.09 694.122 483.193 705.342 470.482 698.609 515.342 643.255 525.062 634.279 532.54 635.028 560.951 617.823 568.428 620.068 611.792 608.848 631.98 623.059 614.783 664.201 622.26 691.877 644.691 676.917 655.906 654.477 662.634 665.697 714.972 676.169 767.309 654.477 772.542 655.972 757.589 706.837 777.029 700.106 803.945 660.459 800.954 648.491 804.693 644.752 806.188 641.76 807.683 635.028 818.898 638.767C833.852 649.739 840.83 662.704 839.834 677.664L855.535 704.594 863.759 743.491M406.929 852.702 406.929 869.158 406.181 888.607 404.687 911.795 402.444 956.676C401.945 974.628 399.204 992.83 394.219 1011.28L387.49 1024.75 377.022 1036.71 333.657 1077.86 327.676 1083.09 328.424 1077.11 333.657 1059.9 344.872 1044.2C352.349 1036.71 358.58 1028.24 363.565 1018.76L373.284 997.817 380.761 975.376 401.696 878.134 406.929 852.702M789.739 533.297 677.588 528.808 688.055 519.084 671.606 505.62 708.99 486.172 696.28 479.439 829.366 467.471 752.355 448.771 744.131 435.306 850.301 441.291 780.019 418.849 889.18 423.338 807.683 409.874 830.114 406.133 808.431 401.646 871.983 384.441 957.218 406.881 865.254 413.614 917.591 427.078 901.143 429.322 903.386 438.299 895.909 444.282 869.74 443.534 866.749 453.259 851.048 457.747 860.021 472.707 844.319 480.187 853.292 480.187 858.525 489.912 789.739 504.123 789.739 533.297M767.309 509.36 770.3 497.392 800.954 480.187 739.645 505.62 767.309 509.36M701.514 546.761 745.627 573.69 747.122 586.406 658.896 602.862 694.037 577.43 690.299 566.209 665.626 564.713 701.514 546.761M804.693 691.129C800.206 700.604 800.954 699.856 806.936 688.884L804.693 691.129M892.17 368.733 870.488 362 958.714 380.701C962.702 384.691 963.199 386.934 960.209 387.433L892.17 368.733M999.088 822.032 965.444 759.199 950.49 728.531C941.517 709.082 940.769 689.384 948.245 669.437 961.705 721.798 978.902 772.663 999.84 822.032L999.088 822.032M1191.24 905.063C1188.25 898.58 1187.5 892.097 1189 885.614L1173.3 847.465C1176.29 897.332 1170.06 947.699 1154.6 998.565L1143.39 1032.97C1109.99 1124.73 1119.22 1208.76 1171.05 1285.06 1177.04 1236.68 1185.51 1196.29 1196.48 1163.88 1206.94 1130.96 1211.93 1109.77 1211.43 1100.3 1210.93 1090.82 1213.17 1078.11 1218.16 1062.15 1225.63 1006.79 1216.66 954.432 1191.24 905.063M1452.18 1307.5 1456.66 1378.56C1459.16 1408.48 1456.66 1441.89 1449.19 1478.79L1482.09 1454.11 1483.58 1429.42C1482.09 1389.03 1475.86 1349.39 1464.89 1310.49L1452.18 1307.5 1442.46 1304.51 1452.18 1307.5M1300.4 1053.17C1287.94 1090.07 1282.71 1127.72 1284.7 1166.12L1291.43 1243.92 1302.64 1323.21 1304.89 1334.43 1311.62 1344.9 1313.11 1344.9 1309.37 1047.19 1300.4 1053.17M1369.19 1138.45C1368.19 1095.56 1360.22 1055.42 1345.26 1018.01L1371.43 1216.24 1369.19 1138.45M1224.14 1095.06 1197.22 1165.37C1191.24 1182.83 1186.76 1202.03 1183.76 1222.97 1180.77 1243.42 1182.52 1261.62 1189 1277.58L1227.13 1095.81C1226.13 1092.82 1225.14 1092.57 1224.14 1095.06M1132.92 1261.87 1127.69 1240.18C1113.23 1174.35 1110.49 1107.78 1119.46 1040.45 1108.5 1063.39 1102.27 1087.33 1100.77 1112.26 1099.78 1136.2 1100.27 1160.14 1102.27 1184.07 1104.76 1213.5 1114.98 1239.43 1132.92 1261.87M1328.81 1491.51 1357.22 1477.3 1374.42 1465.33C1385.89 1453.36 1392.86 1438.9 1395.36 1421.94L1393.86 1417.46C1396.35 1392.52 1394.86 1367.84 1389.37 1343.4 1383.89 1320.46 1376.42 1298.27 1366.94 1276.83 1361.96 1265.86 1353.99 1255.39 1343.02 1245.41L1347.5 1224.47 1330.31 1193.05C1340.78 1288.3 1340.28 1383.8 1328.81 1479.54L1328.07 1491.51 1328.07 1493.01 1328.81 1491.51M1110.49 1315.73 1103.76 1276.08C1099.78 1247.66 1093.05 1220.48 1083.58 1194.55 1066.13 1304.75 1061.39 1415.46 1069.37 1526.67 1070.87 1547.11 1067.88 1566.81 1060.4 1585.76L1116.47 1552.1 1127.69 1483.28C1131.18 1459.34 1131.18 1436.16 1127.69 1413.72L1110.49 1315.73M1170.31 1554.34 1172.55 1555.09 1194.23 1410.72 1128.44 1261.87 1168.06 1507.22C1170.55 1522.68 1171.3 1538.39 1170.31 1554.34" fill="#DDDDDD" fill-rule="evenodd"/><path d="M1374.26 978.567C1388.72 1000.03 1397.7 1023.73 1401.19 1049.68 1405.17 1081.13 1407.42 1112.82 1407.92 1144.76L1404.18 1199.4C1431.1 1211.38 1454.79 1229.1 1475.23 1252.55 1496.67 1278.01 1509.64 1307.45 1514.13 1340.89 1519.11 1380.32 1517.62 1418.99 1509.64 1456.92L1508.14 1424.73C1508.64 1385.31 1500.66 1347.38 1484.21 1310.95 1477.23 1296.47 1467.75 1283.75 1455.79 1272.77L1435.59 1254.05 1416.14 1279.5 1426.62 1361.85 1422.88 1351.37 1421.38 1545.25 1389.97 1563.22 1367.53 1564.72 1366.03 1546.75 1358.55 1556.48C1340.6 1583.93 1315.67 1600.4 1283.76 1605.89L1270.3 1603.65 1269.55 1593.17C1259.08 1607.14 1246.86 1618.62 1232.9 1627.6 1223.92 1633.09 1214.45 1634.34 1204.48 1631.34L1130.43 1625.36 1130.43 1622.36 1124.45 1625.36 1028.71 1649.31 1030.95 1635.09 962.139 1674.01 941.944 1680 951.667 1662.04C970.117 1635.09 995.049 1616.62 1026.47 1606.64L1045.91 1633.59 1090.79 1614.88C1107.24 1607.89 1120.71 1597.91 1131.18 1584.93L1146.14 1523.55 1151.37 1512.32C1158.35 1525.79 1160.1 1540.02 1156.61 1554.99 1153.62 1565.97 1152.12 1578.19 1152.12 1591.67L1168.57 1577.45 1169.32 1586.43 1170.07 1577.45 1178.3 1573.7 1231.4 1420.24 1241.13 1573.7 1297.22 1575.2 1372.76 1531.03C1390.71 1490.61 1400.94 1448.69 1403.43 1405.27 1405.42 1375.82 1405.42 1346.13 1403.43 1316.18 1402.93 1305.7 1400.44 1295.72 1395.95 1286.24L1386.97 1271.27C1407.42 1152.49 1403.18 1054.92 1374.26 978.567M767.673 509.196 740 505.453 801.331 480 770.665 497.219 767.673 509.196M1300.96 1053.43 1309.94 1047.44 1313.68 1345.38 1312.18 1345.38 1305.45 1334.9 1303.2 1323.67 1291.99 1244.32 1285.25 1166.47C1283.26 1128.04 1288.5 1090.36 1300.96 1053.43M1224.67 1095.35C1225.67 1092.85 1226.66 1093.1 1227.66 1096.1L1189.52 1278.01C1183.03 1262.04 1181.29 1243.82 1184.28 1223.36 1187.27 1202.4 1191.76 1183.18 1197.74 1165.72L1224.67 1095.35M1133.42 1262.29C1115.47 1239.83 1105.25 1213.88 1102.76 1184.43 1100.76 1160.48 1100.26 1136.52 1101.26 1112.57 1102.76 1087.61 1108.99 1063.66 1119.96 1040.7 1110.98 1108.07 1113.72 1174.7 1128.19 1240.58L1133.42 1262.29" fill="#AAAAAA" fill-rule="evenodd"/><path d="M273.37 1402.75 241.218 1443.15 149.246 1550.13C143.763 1556.11 140.024 1562.85 138.03 1570.33 133.045 1589.78 132.547 1609.23 136.535 1628.68L122.327 1641.4 94.661 1637.66C82.1993 1603.24 84.9406 1570.08 102.886 1538.16L155.228 1443.15 171.678 1407.99 141.02 1363.1C135.039 1351.63 131.051 1339.66 129.057 1327.19 126.067 1311.23 126.067 1295.27 129.057 1279.31 131.549 1263.85 136.535 1249.13 144.012 1235.17L179.155 1170.83 188.128 1153.63 198.597 1128.19C209.065 1080.81 211.059 1032.93 204.578 984.55 199.095 941.159 202.335 897.27 214.299 852.881L226.263 810.238 238.974 775.077 253.929 735.426C258.914 720.464 263.152 705.751 266.641 691.288L280.848 640.416 294.307 598.522C303.28 578.572 315.244 560.866 330.199 545.405 385.032 488.049 447.842 439.921 518.628 401.018L583.681 368.85 667.427 335.931 750.426 314.984C799.279 307.005 848.13 307.005 896.983 314.984 932.874 320.97 968.766 331.193 1004.66 345.657L1027.84 343.413 1118.31 354.635 1160.19 368.85C1190.6 381.816 1218.26 400.27 1243.19 424.21 1293.04 471.591 1333.91 524.956 1365.81 584.307 1386.25 622.71 1399.96 662.859 1406.94 704.754 1421.4 794.527 1414.17 883.306 1385.26 971.084 1423.64 1039.41 1435.6 1112.98 1421.15 1191.78 1446.07 1205.74 1467.26 1223.2 1484.7 1244.15 1502.65 1265.09 1515.36 1289.03 1522.84 1315.97 1535.3 1364.35 1535.05 1412.47 1522.09 1460.35 1519.6 1470.33 1513.87 1478.31 1504.89 1484.29 1498.91 1488.78 1494.42 1494.52 1491.43 1501.5 1482.96 1523.44 1468.01 1541.15 1446.57 1554.62L1442.08 1555.36 1428.62 1559.85 1388.25 1579.3 1360.58 1578.56C1346.12 1596.51 1328.68 1609.48 1308.24 1617.46L1265.62 1620.45 1238.7 1638.41 1220.75 1648.13 1130.28 1640.65 1042.04 1663.09 1018.87 1661.6 917.171 1699 897.73 1673.57 897.73 1672.82 888.01 1644.39C885.517 1635.91 887.262 1625.69 893.244 1613.72 912.187 1578.81 934.119 1545.14 959.044 1512.72L973.251 1488.78 982.225 1466.34C984.718 1454.87 983.97 1444.39 979.982 1434.92L947.082 1355.62C940.103 1338.16 937.858 1319.71 940.351 1300.26 951.817 1219.96 955.306 1138.91 950.819 1057.12 949.822 1034.18 947.082 1011.73 942.594 989.787 939.106 974.326 933.622 959.613 926.144 945.648 892.745 885.798 868.32 820.713 852.866 750.389L835.669 733.93 735.471 720.464 730.985 695.776 650.977 694.281 609.104 715.227 587.419 701.761 520.123 730.938 510.403 724.953 505.916 710.738 472.268 712.983 438.62 807.994 429.647 839.415 423.665 864.851 420.674 890.286 418.431 917.22 413.945 970.336 406.467 1007.74C403.476 1018.72 398.99 1029.44 393.008 1039.91 380.546 1061.36 364.345 1077.82 344.405 1089.29 354.874 1115.22 360.357 1142.4 360.855 1170.83L360.107 1188.79 324.216 1238.16C326.21 1255.12 326.459 1271.83 324.964 1288.29L323.468 1304 321.225 1318.96 316.739 1333.92 310.757 1346.64 295.803 1372.82 277.109 1398.26 297.297 1345.89 308.513 1307.74C311.505 1294.27 312.751 1280.56 312.252 1266.59L313.748 1235.92C314.744 1227.94 317.487 1220.46 321.973 1213.47L346.648 1181.31 351.883 1149.14 327.955 1085.55 327.207 1084.05 327.955 1083.3 333.936 1078.07 377.306 1036.92 387.774 1024.95 394.503 1011.48C399.489 993.029 402.23 974.825 402.729 956.87L404.972 911.983 406.467 888.792 407.214 869.339 407.214 852.881 464.791 708.494 466.286 705.502 469.277 698.02 470.772 698.769 483.484 705.502 516.384 694.281 521.619 722.708 603.122 683.059 601.626 705.502 609.104 707.747 662.193 686.051 751.174 683.059 742.948 718.22 799.029 710.738 800.524 722.708 853.614 718.22 849.127 739.915 864.082 743.656 865.578 745.152 911.191 871.584C919.664 894.028 929.635 915.972 941.099 937.419 960.041 973.827 969.264 1012.98 968.766 1054.87L967.27 1151.38C965.774 1184.8 961.786 1218.21 955.306 1251.63 948.328 1285.04 950.322 1317.96 961.287 1350.38 969.264 1372.82 979.234 1394.52 991.198 1415.47 1000.17 1430.93 1002.41 1448.13 997.927 1467.09L987.459 1492.52 917.171 1595.76C907.201 1609.73 903.213 1625.19 905.207 1642.15 907.201 1661.1 914.927 1674.81 928.387 1683.29L941.847 1679.55 962.035 1673.57 1030.83 1634.66 1028.59 1648.88 1124.3 1624.94 1130.28 1624.94 1204.3 1630.92C1214.27 1633.92 1223.75 1632.67 1232.72 1627.18 1246.67 1618.21 1258.89 1606.73 1269.36 1592.77L1270.1 1603.24 1283.56 1605.49C1315.47 1600 1340.39 1583.54 1358.34 1556.11L1365.81 1546.39 1367.31 1564.34 1389.74 1562.85 1421.15 1544.89 1438.35 1537.41 1463.77 1513.47 1479.47 1494.02 1509.38 1456.61C1517.36 1418.71 1518.85 1380.06 1513.87 1340.65 1509.38 1307.24 1496.42 1277.81 1474.98 1252.38 1454.55 1228.94 1430.87 1211.23 1403.95 1199.26L1407.69 1144.65C1407.19 1112.73 1404.95 1081.06 1400.96 1049.64 1397.47 1023.7 1388.5 1000.01 1374.04 978.566L1369.55 971.084C1380.02 940.162 1388 908.243 1393.48 875.326 1413.92 758.12 1392.98 650.64 1330.67 552.886 1268.36 454.634 1204.05 395.282 1137.76 374.834L1118.31 368.85C1062.48 352.889 1024.85 350.395 1005.41 361.367 883.772 307.504 755.411 309.997 620.32 368.85L591.158 382.316 527.6 415.233 512.646 423.462C410.954 480.818 343.907 537.925 311.505 594.781L309.261 598.522 293.559 651.638 286.081 684.554C282.093 702.509 276.61 720.215 269.632 737.671L251.686 780.314 239.722 810.238C224.767 848.642 217.041 888.792 216.542 930.686L215.046 1071.33 212.803 1128.19 203.083 1158.86 182.894 1197.76 158.219 1240.41C151.24 1253.87 146.504 1268.09 144.012 1283.05 141.52 1296.02 141.768 1309.23 144.76 1322.7 148.249 1336.17 153.732 1349.13 161.21 1361.6L181.398 1393.02 186.633 1402 180.651 1432.67 175.416 1440.9 173.922 1443.15 159.714 1463.35C139.775 1493.77 122.825 1525.44 108.868 1558.36 99.8956 1580.3 98.6484 1602.49 105.129 1624.94L120.832 1626.43 127.561 1616.71C121.58 1589.28 126.814 1565.59 143.264 1545.64L158.219 1529.93 167.192 1520.2 273.37 1402.75" fill="#888888" fill-rule="evenodd"/><path d="M890.478 530 898.702 543.501 844.87 569.751 805.991 569.751C814.963 566.25 823.188 561.751 830.664 556.251L856.085 532.251 890.478 530M921.132 464 935.338 476.75 933.843 494 897.955 485 921.132 464M998.892 419.75 994.405 433.25 935.338 437.75 951.04 426.5 998.892 419.75M1043 380.749 1043 395 1010.11 395 1010.11 380.749 1043 380.749M664.68 375.5 667.67 380.749 571.967 400.25 635.52 384.5 610.099 378.499 683.371 371 681.128 372.5 664.68 375.5M530.845 413.75 670.661 397.25 572.715 415.249 573.462 422.75 515.892 446.75 570.471 415.249 515.892 422 530.845 413.75M601.126 439.251 584.677 452.75 492.714 491.75 557.761 485.75 473.273 522.501 516.639 519.5 475.517 553.25 503.181 558.501 481.499 587 484.489 570.501 441.123 563 484.489 533.751 400 544.25C433.397 530.25 466.793 516.001 500.19 501.5L417.945 507.5 491.218 476 459.068 479 601.126 439.251" fill="#FFFFFF" fill-rule="evenodd" fill-opacity="0.501961"/></g></svg>