<svg width="1761" height="1761" xmlns="http://www.w3.org/2000/svg" xmlns:xlink="http://www.w3.org/1999/xlink" overflow="hidden"><defs><clipPath id="clip0"><rect x="0" y="0" width="1761" height="1761"/></clipPath></defs><g clip-path="url(#clip0)"><path d="M341.878 1523.29 341.877 1523.29 288.388 1561.83C260.78 1579.78 230.871 1593.82 198.662 1603.95 230.871 1593.82 260.78 1579.78 288.388 1561.83ZM504.542 1513.91 504.541 1513.91 440.231 1558.38 426.427 1565.28 440.231 1558.38ZM713.851 784.283C762.078 785.923 809.141 794.684 855.039 810.565L893 826.447C891.16 893.656 879.196 959.714 857.11 1024.62L794.302 1211.75C783.489 1244.43 771.87 1276.65 759.447 1308.42L729.677 1378.86 761.69 1293.23C771.928 1264.22 781.649 1234.99 790.851 1205.53L851.588 1017.72C872.294 955.111 885.408 891.123 890.929 825.756L855.453 812.922 890.929 825.756C885.408 891.123 872.294 955.111 851.588 1017.72L790.85 1205.53C781.648 1234.99 771.928 1264.22 761.69 1293.23L729.673 1378.87 729.677 1378.86 729.423 1379.54 729.248 1379.87 729.25 1379.87 706.129 1424.25C697.042 1438.17 686.631 1451.12 674.897 1463.09 650.05 1488.64 621.839 1509.4 590.262 1525.36L568.563 1534.9 568.563 1534.9 590.263 1525.36C621.839 1509.4 650.051 1488.64 674.898 1463.09 686.631 1451.12 697.042 1438.17 706.13 1424.25L729.248 1379.87 719.761 1402.33C701.815 1441.91 674.898 1474.6 639.008 1500.38 603.118 1526.62 564.237 1546.64 522.365 1560.45L516.153 1561.14 505.8 1550.09 553.423 1479.66C515.693 1522.01 471.06 1554.93 419.525 1578.4L410.553 1561.83 448.514 1505.21C405.721 1546.64 358.788 1580.47 307.714 1606.71L305.643 1601.19 361.549 1517.64C313.695 1560.91 258.479 1593.36 195.902 1615L189 1612.24C219.828 1550.55 252.958 1490.02 288.388 1430.64 308.173 1397.49 321.977 1361.82 329.8 1323.61 346.824 1238.91 342.454 1155.13 316.686 1072.27 302.423 1025.31 290.228 977.667 280.106 929.331 273.664 899.409 273.894 870.408 280.796 842.328L293.91 788.469 302.192 790.541 302.192 789.85 302.882 790.541 352.266 796.244 373.886 798.74 412.673 801.072 438.506 802.625 438.506 802.625 412.673 801.072 373.886 798.74 352.266 796.244 302.882 790.541 462.317 793.993 665.235 785.017C681.57 783.981 697.775 783.736 713.851 784.283Z" fill="#AAAAAA" fill-rule="evenodd"/><path d="M450.079 660.794 451.583 673.566 387.654 938.017 377.124 935.012 386.901 854.625 373.364 853.122 375.62 811.802 368.098 803.538 368.098 786.258 358.321 777.994 362.082 758.461 338.014 766.725 432.028 622.478 421.499 652.53 453.087 638.255 450.079 660.794M1219.49 406.86 1230.02 411.368C1265.62 425.893 1294.95 448.681 1318.01 479.735L1303.72 501.522 1236.79 455.694 1212.72 441.419 1188.65 430.15 1162.33 419.632 1106.67 405.358C1010.4 381.817 915.385 381.317 821.622 403.855L889.311 415.125 765.213 467.714 855.466 468.466 708.053 537.584 815.604 541.34 695.267 597.686 767.469 633.748 759.196 648.022 696.019 648.773 759.196 671.312 756.188 685.586 656.157 681.079 712.565 717.891 560.639 653.281 585.459 636.001 589.219 617.971 655.405 573.645 626.825 557.117 714.07 503.776 650.892 495.512 775.743 432.404 745.658 420.383 763.709 405.358C781.258 391.334 801.565 380.065 824.63 371.55 847.695 363.035 870.759 358.527 893.824 358.027L965.275 352.017 1011.91 353.519 1058.54 358.778 1105.17 367.794 1163.08 383.571 1219.49 406.86" fill="#FFFFFF" fill-rule="evenodd" fill-opacity="0.501961"/><path d="M301.892 791.552 461.327 795.005 664.244 786.028C729.583 781.885 792.851 790.401 854.048 811.577L892.009 827.458C890.169 894.667 878.205 960.725 856.119 1025.63L793.311 1212.76C771.685 1278.13 746.838 1341.65 718.77 1403.34 700.825 1442.93 673.907 1475.61 638.017 1501.39 602.127 1527.63 563.246 1547.65 521.374 1561.46L515.162 1562.15 504.809 1551.1 552.433 1480.67C514.702 1523.02 470.069 1555.94 418.535 1579.41L409.562 1562.84 447.523 1506.22C404.731 1547.65 357.797 1581.49 306.723 1607.73L304.652 1602.2 360.558 1518.65C312.704 1561.92 257.488 1594.38 194.911 1616.01L188.009 1613.25C218.838 1551.56 251.967 1491.03 287.397 1431.65 307.183 1398.5 320.987 1362.83 328.809 1324.62 345.833 1239.92 341.463 1156.14 315.695 1073.28 301.432 1026.32 289.238 978.678 279.115 930.343 272.673 900.42 272.903 871.42 279.805 843.339L292.919 789.48 301.202 791.552C291.539 821.934 285.327 852.085 282.566 882.008 280.726 905.945 284.406 928.731 293.609 950.367 316.616 1002.85 332.95 1056.24 342.613 1110.56 355.496 1181.46 354.116 1251.89 338.472 1321.86 326.969 1374.8 307.413 1424.05 279.805 1469.62L197.672 1604.96C229.88 1594.84 259.789 1580.8 287.397 1562.84 324.208 1538.44 358.947 1511.29 391.617 1481.36 369.071 1522.33 342.844 1560.77 312.935 1596.68 337.322 1582.41 361.249 1566.29 384.715 1548.34 420.145 1521.18 453.275 1492.64 484.103 1462.72L419.915 1558.7 425.437 1566.29 439.241 1559.39C487.554 1531.31 530.117 1496.55 566.927 1455.12L553.123 1491.03C545.301 1511.29 532.877 1529.7 515.852 1546.27L523.444 1552.48C534.027 1547.88 545.071 1543.97 556.574 1540.75 601.667 1523.71 640.778 1498.17 673.907 1464.1 697.374 1440.16 715.55 1412.31 728.433 1380.55 750.979 1323.47 771.456 1265.47 789.86 1206.54L850.597 1018.73C871.303 956.122 884.417 892.134 889.939 826.767 831.503 802.369 770.765 790.171 707.727 790.171L547.602 798.457C482.723 807.664 400.82 805.362 301.892 791.552" fill="#888888" fill-rule="evenodd"/><path d="M302.189 791.392C401.079 805.206 482.95 807.508 547.804 798.299L707.868 790.011C770.882 790.011 831.596 802.212 890.009 826.617 884.49 892 871.381 956.004 850.683 1018.63L789.969 1206.49C771.572 1265.43 751.103 1323.44 728.566 1380.54 715.687 1412.31 697.519 1440.17 674.061 1464.11 640.944 1498.19 601.849 1523.74 556.773 1540.78 545.274 1544 534.235 1547.92 523.656 1552.52L516.067 1546.3C533.085 1529.73 545.504 1511.31 553.323 1491.05L567.122 1455.13C530.326 1496.57 487.78 1531.34 439.485 1559.43L425.686 1566.33 420.167 1558.74 484.33 1462.73C453.514 1492.66 420.397 1521.21 384.98 1548.38 361.523 1566.33 337.606 1582.45 313.227 1596.72 343.125 1560.81 369.342 1522.36 391.879 1481.38 359.222 1511.31 324.497 1538.48 287.7 1562.88 260.103 1580.84 230.206 1594.88 198.009 1605.01L280.111 1469.64C307.708 1424.05 327.257 1374.78 338.755 1321.83 354.393 1251.84 355.773 1181.4 342.895 1110.49 333.235 1056.15 316.908 1002.74 293.91 950.248 284.71 928.606 281.031 905.814 282.871 881.871 285.63 851.941 291.84 821.782 301.499 791.392L301.499 790.701 302.189 791.392" fill="#AAAAAA" fill-rule="evenodd"/></g></svg>
