<svg width="1761" height="1761" xmlns="http://www.w3.org/2000/svg" xmlns:xlink="http://www.w3.org/1999/xlink" overflow="hidden"><defs><clipPath id="clip0"><rect x="0" y="0" width="1761" height="1761"/></clipPath></defs><g clip-path="url(#clip0)"><path d="M884.862 1640.67 877.911 1641.94 877.915 1641.94ZM992.241 1605.22 938.063 1648.71 938.063 1648.71ZM969.643 1584.01 931.296 1614.85 902.954 1630.92 931.296 1614.85 969.643 1584.01ZM1105.74 1497.5 1063.07 1541.48 1056.11 1548.65 1056.11 1548.65 1063.07 1541.48 1105.74 1497.5ZM1241.29 1433.08 1229.05 1449.35 1210.25 1469.67 1187.69 1486.97 1187.69 1486.97 1210.25 1469.67 1229.05 1449.35ZM1256.12 1398.95 1221.53 1433.56 1153.11 1502.77 1098.22 1556.18 1153.11 1502.77 1221.53 1433.56 1256.11 1398.95ZM1048.59 1383.15 1040.32 1442.58 1026.04 1492.99 1026.04 1492.99 1040.32 1442.58 1048.59 1383.15ZM1316.33 1362.28 1292.96 1414.75 1257.62 1484.71 1292.96 1414.75ZM1326.04 1312.44 1310.67 1335.51 1326.04 1312.44ZM1342.58 1298.9 1333.09 1322.89 1342.58 1298.9ZM388.425 1259.03 513.24 1566.71 513.24 1566.71 388.426 1259.03ZM997.463 1110.83 1041.07 1228.19 1047.36 1244.07 1041.07 1228.19ZM355.341 1061.18 355.341 1061.18 362.861 1128.89 377.898 1195.84 405.719 1283.1 412.486 1301.16 412.486 1301.16 405.719 1283.1 377.898 1195.84 362.861 1128.89ZM954.605 1025.07C960.871 1030.09 966.322 1036.11 970.958 1043.13L971.7 1044.68 970.958 1043.13C966.322 1036.11 960.871 1030.09 954.605 1025.07ZM1388.45 956.615 1385.44 1018.3 1383.19 1098.79 1382.44 1138.67 1381.68 1177.78 1377.92 1258.28 1365.14 1338.77 1340.33 1429.04 1365.14 1338.77 1377.92 1258.28 1381.68 1177.78 1382.44 1138.67 1383.19 1098.79 1385.44 1018.3ZM986.937 929.534 986.937 929.534 999.067 992.642ZM1044.82 862.128 1047.09 862.581 1056.86 888.158 1056.86 888.158 1047.09 862.581ZM371.132 846.031 371.132 846.031 369.629 857.654ZM1101.23 774.565 1101.23 774.565 1121.53 804.656ZM1171.9 694.824 1171.9 694.824 1180.17 699.338 1180.17 699.338ZM420.005 630.881 420.005 630.881 419.321 633.396ZM433.904 588.935 434.291 589.506 434.291 589.506ZM1234.31 562.424 1251.6 563.928 1251.6 563.928ZM455.344 539.856 455.344 539.856 445.569 572.955 450.081 579.726 440.306 592.514 440.306 592.514 450.081 579.726 445.57 572.955ZM1341.63 532.418 1359.88 584.992 1374.16 642.917 1385.44 702.346 1392.21 774.565 1392.96 828.728 1392.21 861.829 1390.71 894.929 1389.27 925 1390.71 894.929 1392.21 861.828 1392.96 828.728 1392.21 774.565 1385.44 702.346 1374.16 642.917 1359.88 584.992ZM403.463 504.498 403.463 504.499 413.238 538.351 412.486 545.874 422.26 558.662 421.923 559.337 422.26 558.662 412.486 545.874 413.238 538.351ZM383.162 494.719 335.792 570.698 296.694 635.394 262.858 701.594 234.286 763.281 234.286 763.28 262.858 701.595 296.694 635.394 335.792 570.699 383.162 494.719 404.215 495.471 404.215 495.471ZM460.376 445.086 458.351 451.839 461.359 457.858 455.344 487.949 459.103 493.967 437.298 545.121 437.299 545.121 459.104 493.967 455.344 487.949 461.359 457.858 458.352 451.84ZM895.957 275.232 823.775 278.064 776.405 286.339 730.539 299.128 657.605 326.962 578.656 363.071 502.714 404.446 468.126 426.262 460.607 444.316 455.879 456.805 460.607 444.318 460.607 444.317 468.126 426.262 502.714 404.446 578.656 363.071 657.605 326.962 730.539 299.128 776.405 286.339 823.775 278.064ZM904.007 275.188 960.62 277.312 1049.34 289.348 1129.8 307.403 1168.9 324.705C1189.95 335.237 1210.25 348.277 1229.8 363.824L1290.7 426.262 1290.7 426.263 1316.1 474.965 1290.7 426.262 1229.8 363.823C1210.25 348.277 1189.95 335.237 1168.9 324.705L1129.8 307.403 1049.34 289.348 960.62 277.312ZM869.64 257 871.144 257 931.296 259.257 991.448 264.523 992.2 264.523 1052.35 273.55 1111.75 285.587 1112.5 286.339C1142.58 293.862 1170.15 305.647 1195.21 321.696L1238.82 351.787 1239.57 351.787 1277.17 387.144 1276.42 387.144 1302.73 418.739C1325.29 451.839 1343.34 486.945 1356.87 524.057L1366.65 552.644C1379.18 589.756 1389.45 628.623 1397.47 669.247 1403.49 700.842 1406.75 732.186 1407.25 763.281L1408 774.565 1407.25 827.976 1405.74 894.929 1405.74 895.681 1404.24 926.524 1404.24 927.276 1403.49 957.367 1400.48 1019.05 1398.23 1098.04 1395.97 1177.03 1387.7 1285.36 1387.7 1286.11C1383.19 1322.72 1375.92 1359.08 1365.89 1395.19 1358.88 1420.27 1349.85 1444.59 1338.83 1468.16L1330.55 1476.44 1326.04 1477.19 1321.53 1475.68 1300.48 1456.12 1298.97 1452.36 1298.22 1448.6 1301.98 1429.8 1271.15 1491.48 1268.9 1494.49 1264.39 1496.75C1259.38 1499.76 1255.36 1499.76 1252.36 1496.75L1246.34 1492.99 1244.84 1489.98C1243.33 1485.46 1243.33 1482.2 1244.84 1480.2L1253.86 1444.84 1242.58 1459.13C1230.05 1476.69 1214.26 1490.23 1195.21 1499.76L1191.45 1500.51 1189.2 1501.26 1186.19 1501.26 1183.18 1500.51 1180.17 1499 1178.67 1498.25 1109.5 1567.46 1044.08 1622.38 1040.32 1623.88 1037.31 1623.88 1035.81 1623.13 1033.55 1623.13 1029.04 1621.63 1027.54 1620.12 1025.28 1619.37 1021.52 1616.36 1020.02 1612.6 1021.52 1608.08 1028.29 1596.05 942.575 1661.5 938.063 1663 926.785 1663 924.529 1663 919.266 1659.99 916.258 1657.73 878.663 1656.23 877.159 1656.23 870.392 1653.22C866.883 1651.22 864.878 1648.21 864.377 1644.19L863.625 1641.94 865.129 1635.17 868.137 1630.65 872.648 1627.64 874.904 1626.89 903.476 1614.85C916.509 1607.83 929.291 1599.06 941.823 1588.52L973.402 1554.67 998.215 1514.05C1014.76 1481.95 1026.29 1447.85 1032.8 1411.74L1032.8 1410.99 1035.81 1383.15 1035.81 1382.4C1035.31 1363.34 1032.55 1344.79 1027.54 1326.73L1000.47 1252.26 941.823 1116.1 923.025 1080.74 923.025 1079.99 892.949 1034.85 891.445 1033.35 853.851 995.733 774.901 923.515 756.103 907.717 703.471 864.085 646.326 814.435 592.942 764.785 527.526 697.833 442.562 614.33 438.802 618.844 424.516 639.908 422.261 647.431 404.967 704.603 393.688 755.758 383.914 813.683 380.154 842.269 376.395 870.856 372.635 900.194 369.628 929.533 369.628 967.899 370.38 1027.33 373.387 1092.02 383.914 1157.47C393.437 1200.6 406.22 1242.48 422.261 1283.1L426.772 1295.14 426.772 1301.16 424.516 1307.17 527.526 1559.94 527.526 1562.95 526.774 1570.47 520.759 1577.99 513.24 1581 507.977 1581 504.969 1577.24 447.073 1486.97 446.321 1486.22 443.314 1482.45 440.306 1478.69 398.952 1381.65 395.944 1374.88 379.402 1333.5 360.605 1283.85 360.605 1283.1 359.853 1280.84 332.033 1177.78 307.972 1070.96 294.438 1001.75 280.152 931.79C267.62 882.14 257.344 832.239 249.324 782.087L245.564 779.078 241.805 775.317 240.301 776.821 237.293 777.574 234.286 777.574 228.271 775.317 227.519 775.317 222.256 770.803 220 765.537 221.504 758.015 249.324 694.071 285.415 627.871 342.559 530.076 362.861 499.233 362.861 498.48 377.898 481.178 383.162 478.921 431.284 478.169 456.848 416.482 459.856 413.473 495.195 392.409 572.64 348.778 652.342 312.668 653.094 312.668C676.653 302.638 700.964 293.361 726.028 284.834L773.397 272.046 773.397 271.294 821.519 262.266 822.271 262.266Z" fill="#FFFFFF" fill-rule="evenodd"/><path d="M887.014 1640.51 878.014 1641.01 886.264 1640.01 887.014 1640.51" fill="#47CF47" fill-rule="evenodd"/><path d="M1276.43 387.16 1302.75 418.756C1325.31 451.856 1343.35 486.962 1356.89 524.074L1366.66 552.661C1379.19 589.773 1389.47 628.64 1397.49 669.263 1403.5 700.859 1406.76 732.203 1407.26 763.297L1408.01 774.582 1407.26 827.993 1405.76 894.945 1405.76 895.698 1404.25 926.541 1404.25 927.293 1403.5 957.384 1400.5 1019.07 1398.24 1098.06 1395.98 1177.05 1387.71 1285.38 1387.71 1286.13C1383.2 1322.74 1375.93 1359.1 1365.91 1395.21 1358.89 1420.28 1349.87 1444.61 1338.84 1468.18L1330.57 1476.45 1326.06 1477.21 1321.55 1475.7 1300.49 1456.14 1298.99 1452.38 1298.24 1448.62 1302 1429.81 1271.17 1491.5 1268.91 1494.51 1264.4 1496.76C1259.39 1499.77 1255.38 1499.77 1252.37 1496.76L1246.36 1493 1244.85 1489.99C1243.35 1485.48 1243.35 1482.22 1244.85 1480.21L1253.88 1444.86 1242.6 1459.15C1230.07 1476.7 1214.28 1490.25 1195.23 1499.77L1191.47 1500.53 1189.21 1501.28 1186.2 1501.28 1183.2 1500.53 1180.19 1499.02 1178.69 1498.27 1109.51 1567.48 1044.1 1622.39 1040.34 1623.9 1037.33 1623.9 1035.82 1623.15 1033.57 1623.15 1029.06 1621.64 1027.55 1620.14 1025.3 1619.39 1021.54 1616.38 1020.03 1612.61 1021.54 1608.1 1028.31 1596.06 942.589 1661.51 938.078 1663.02 926.799 1663.02 924.544 1663.02 919.28 1660.01 916.273 1657.75 878.677 1656.25 877.174 1656.25 870.407 1653.24C866.898 1651.23 864.893 1648.22 864.391 1644.21L863.64 1641.95 865.143 1635.18 868.151 1630.67 872.662 1627.66 874.918 1626.91 903.49 1614.87C916.523 1607.85 929.306 1599.07 941.837 1588.54L973.417 1554.69 998.23 1514.07C1014.77 1481.97 1026.3 1447.87 1032.82 1411.76L1032.82 1411.01 1035.82 1383.17 1035.82 1382.42C1035.32 1363.36 1032.57 1344.81 1027.55 1326.75L1000.49 1252.28 941.837 1116.11 923.039 1080.76 923.039 1080 892.964 1034.87 891.46 1033.36 853.865 995.75 774.916 923.531 756.118 907.734 703.485 864.102 646.341 814.452 592.956 764.802 527.541 697.849 442.576 614.347 438.817 618.861 424.531 639.924 422.275 647.447 404.982 704.62 393.703 755.775 383.928 813.7 380.169 842.286 376.409 870.872 372.65 900.211 369.642 929.55 369.642 967.916 370.394 1027.35 373.401 1092.04 383.928 1157.49C393.452 1200.62 406.234 1242.5 422.275 1283.12L426.787 1295.16 426.787 1301.17 424.531 1307.19 527.541 1559.96 527.541 1562.96 526.789 1570.49 520.774 1578.01 513.255 1581.02 507.991 1581.02 504.984 1577.26 447.088 1486.98 446.336 1486.23 443.328 1482.47 440.321 1478.71 398.966 1381.67 395.959 1374.9 379.417 1333.52 360.62 1283.87 360.62 1283.12 359.867 1280.86 332.047 1177.8 307.987 1070.98 294.452 1001.77 280.166 931.807C267.635 882.157 257.358 832.256 249.338 782.104L245.579 779.095 241.819 775.334 240.315 776.838 237.308 777.59 234.3 777.59 228.285 775.334 227.533 775.334 222.27 770.82 220.014 765.554 221.518 758.031 249.338 694.088 285.429 627.888 342.574 530.092 362.875 499.249 362.875 498.497 377.913 481.195 383.176 478.938 431.298 478.185 456.862 416.499 459.87 413.49 495.209 392.426 572.655 348.794 652.356 312.685 653.108 312.685C676.667 302.654 700.979 293.377 726.042 284.851L773.412 272.062 773.412 271.31 821.533 262.283 822.285 262.283 869.655 257.017 871.159 257.017 931.31 259.274 991.462 264.54 992.214 264.54 1052.37 273.567 1111.77 285.603 1112.52 286.356C1142.59 293.878 1170.16 305.664 1195.23 321.712L1238.84 351.803 1239.59 351.803 1277.18 387.16 1276.43 387.16M1290.72 426.279 1229.81 363.84C1210.27 348.293 1189.96 335.253 1168.91 324.722L1129.81 307.419 1049.36 289.365 960.635 277.328 900.483 275.072 823.789 278.08 776.419 286.356 730.554 299.144 657.619 326.978 578.67 363.088 502.728 404.463 468.141 426.279 460.622 444.333 441.824 493.983 404.229 495.488 383.176 494.736 335.807 570.715 296.708 635.411 262.872 701.611 234.3 763.297 253.098 740.729 253.85 768.563 260.617 749.756C265.128 787.871 271.394 824.482 279.414 859.588L294.452 928.046 309.49 999.511 323.024 1068.72 345.581 1174.04 377.161 1283.12 393.703 1328.26 412.5 1374.9 432.802 1425.3 453.855 1472.69 459.87 1475.7 513.255 1566.73 388.44 1259.05 412.5 1301.17 405.733 1283.12 377.913 1195.86 362.875 1128.9 355.356 1061.2 355.356 991.236 359.867 933.311 371.146 846.048 380.921 788.875 396.711 716.656 420.019 630.897 434.305 589.522 438.817 591.779 440.321 592.531 476.412 633.154 514.759 672.272 569.647 726.436 626.04 778.343 683.936 827.993 741.832 876.139 756.118 888.175 783.938 912.248 825.293 948.357 865.143 985.218C885.695 1004.78 904.493 1026.09 921.536 1049.16L938.078 1072.48 955.371 1110.85 974.921 1156.74 993.718 1201.87 1014.02 1247.01C1025.05 1271.58 1034.32 1296.91 1041.84 1322.99 1047.35 1342.55 1049.61 1362.61 1048.61 1383.17L1040.34 1442.6 1026.05 1493 1013.27 1522.34C1002.74 1544.91 988.204 1565.47 969.657 1584.03L931.31 1614.87 886.197 1640.45 877.926 1641.95 886.948 1641.2 944.845 1635.94 926.799 1648.72 938.078 1648.72 1002.74 1596.82 1056.13 1548.67 1105.75 1497.52 1035.07 1611.11 1036.58 1610.36 1098.23 1556.19 1153.12 1502.78 1221.54 1433.57 1256.13 1398.97 1187.71 1486.98 1210.27 1469.68 1229.06 1449.37 1279.44 1382.42 1326.06 1312.46 1297.49 1372.64 1274.93 1428.31 1257.63 1484.73 1292.97 1414.77 1326.81 1338.79 1342.6 1298.92 1312.52 1448.62 1327.56 1462.91 1340.34 1429.06 1365.16 1338.79 1377.94 1258.29 1381.7 1177.8 1382.45 1138.68 1383.2 1098.81 1385.46 1018.32 1388.46 956.632 1389.22 926.541 1390.72 894.945 1392.22 861.845 1392.98 828.745 1392.22 774.582 1385.46 702.363 1374.18 642.934 1359.89 585.008 1341.1 530.845 1317.79 478.185 1290.72 426.279" fill="#888888" fill-rule="evenodd"/><path d="M1290.7 426.017 1317.79 477.905 1341.11 530.545 1359.91 584.689 1374.21 642.593 1385.49 702.001 1392.26 774.193 1393.01 828.337 1392.26 861.425 1390.76 894.513 1389.25 926.097 1388.5 956.177 1385.49 1017.84 1383.23 1098.3 1382.48 1138.16 1381.73 1177.26 1377.97 1257.73 1365.18 1338.19 1340.35 1428.43 1327.57 1462.27 1312.52 1447.99 1342.61 1298.34 1326.81 1338.19 1292.96 1414.15 1257.6 1484.08 1274.91 1427.68 1297.47 1372.03 1326.06 1311.87 1279.42 1381.81 1229.02 1448.74 1210.21 1469.04 1187.64 1486.34 1256.1 1398.35 1221.49 1432.94 1153.04 1502.13 1098.12 1555.52 1036.43 1609.67 1034.93 1610.42 1105.64 1496.86 1055.99 1548 1002.58 1596.13 937.885 1648.02 926.601 1648.02 944.656 1635.23 886.73 1640.5 885.978 1639.74 931.115 1614.18 969.481 1583.35C988.036 1564.8 1002.58 1544.24 1013.11 1521.68L1025.9 1492.35 1031.17 1484.83C1080.82 1418.16 1089.34 1345.71 1056.75 1267.5L1040.95 1227.65 997.315 1110.34 982.27 1066.72C976.252 1048.67 966.973 1034.64 954.435 1024.61L986.783 929.105 1001.83 1007.31 1035.68 859.921 1046.97 862.177 1056.75 887.745 1101.13 774.193 1121.44 804.273 1165.83 697.489 1171.84 694.481 1180.12 698.993 1234.28 562.129 1251.59 563.633 1290.7 426.017M439.876 592.209 438.371 591.457 433.858 589.201 418.06 565.889 421.821 558.369 412.042 545.585 412.794 538.065 403.014 504.225 403.767 495.201 441.38 493.697 460.188 444.065 457.931 451.585 460.94 457.601 454.921 487.681 458.683 493.697 436.867 544.833 454.921 539.569 445.142 572.657 449.655 579.425 439.876 592.209" fill="#DDDDDD" fill-rule="evenodd"/><path d="M460.461 444.193 467.984 426.147 502.59 404.342 578.574 362.988 657.567 326.897 730.541 299.077 776.432 286.295 823.828 278.024 900.564 275.017 960.749 277.272 1049.52 289.303 1130.02 307.348 1169.14 324.642C1190.2 335.168 1210.52 348.201 1230.08 363.74L1291.01 426.147 1251.89 563.744 1234.59 562.24 1180.42 699.084 1172.15 694.573 1166.13 697.581 1121.74 804.349 1101.43 774.274 1057.05 887.81 1047.27 862.245 1035.98 859.99 1002.13 1007.36 987.08 929.164 954.73 1024.65C967.268 1034.68 976.547 1048.71 982.566 1066.76L997.612 1110.37 1041.25 1227.67 1057.05 1267.52C1089.65 1345.71 1081.12 1418.15 1031.47 1484.81L1026.2 1492.33 1040.49 1441.95 1048.77 1382.56C1049.77 1362 1047.52 1341.95 1042 1322.4 1034.48 1296.34 1025.2 1271.02 1014.16 1246.46L993.851 1201.35 975.043 1156.24 955.483 1110.37 938.18 1072.02 921.629 1048.71C904.576 1025.66 885.769 1004.35 865.205 984.804L825.333 947.961 783.956 911.87 756.12 887.81 741.826 875.779 683.898 827.658 625.97 778.033 569.546 726.152 514.627 672.016 476.259 632.918 440.148 592.316 449.928 579.533 445.415 572.766 455.195 539.683 437.139 544.946 458.956 493.818 455.195 487.802 461.213 457.727 458.204 451.712 460.461 444.193M434.13 589.308 419.836 630.662 396.514 716.378 380.715 788.56 370.935 845.704 359.651 932.923 355.137 990.819 355.137 1060.75 362.66 1128.42 377.706 1195.33 405.542 1282.55 412.313 1300.6 388.239 1258.49 513.123 1566.02 459.708 1475.04 453.69 1472.03 432.625 1424.66 412.313 1374.28 393.505 1327.67 376.954 1282.55 345.357 1173.53 322.787 1068.26 309.246 999.09 294.199 927.66 279.153 859.238C271.129 824.15 264.859 787.557 260.345 749.461L253.575 768.259 252.822 740.439 234.015 762.995 262.602 701.34 296.456 635.174 335.577 570.511 382.973 494.57 404.037 495.322 403.285 504.344 413.065 538.179 412.313 545.698 422.093 558.48 418.331 565.999 434.13 589.308" fill="#FFFFFF" fill-rule="evenodd"/><path d="M395.079 605.794 396.583 618.566 332.654 883.017 322.124 880.012 331.901 799.625 318.364 798.122 320.62 756.802 313.098 748.538 313.098 731.258 303.321 722.994 307.082 703.461 283.014 711.725 377.028 567.478 366.499 597.53 398.087 583.255 395.079 605.794M1164.49 351.86 1175.02 356.368C1210.62 370.893 1239.95 393.681 1263.01 424.735L1248.72 446.522 1181.79 400.694 1157.72 386.419 1133.65 375.15 1107.33 364.632 1051.67 350.358C955.401 326.817 860.385 326.317 766.622 348.855L834.311 360.125 710.213 412.714 800.466 413.466 653.053 482.584 760.604 486.34 640.267 542.686 712.469 578.748 704.196 593.022 641.019 593.773 704.196 616.312 701.188 630.586 601.157 626.079 657.565 662.891 505.639 598.281 530.459 581.001 534.219 562.971 600.405 518.645 571.825 502.117 659.07 448.776 595.892 440.512 720.743 377.404 690.658 365.383 708.709 350.358C726.258 336.334 746.565 325.065 769.63 316.55 792.695 308.035 815.759 303.527 838.824 303.027L910.275 297.017 956.906 298.519 1003.54 303.778 1050.17 312.794 1108.08 328.571 1164.49 351.86" fill="#FFFFFF" fill-rule="evenodd" fill-opacity="0.501961"/></g></svg>
