<svg width="1761" height="1761" xmlns="http://www.w3.org/2000/svg" xmlns:xlink="http://www.w3.org/1999/xlink" overflow="hidden"><defs><clipPath id="clip0"><rect x="0" y="0" width="1761" height="1761"/></clipPath><clipPath id="clip1"><rect x="236" y="267" width="1230" height="962"/></clipPath><clipPath id="clip2"><rect x="236" y="267" width="1230" height="962"/></clipPath><clipPath id="clip3"><rect x="236" y="267" width="1230" height="962"/></clipPath><clipPath id="clip4"><rect x="236" y="267" width="1230" height="962"/></clipPath></defs><g clip-path="url(#clip0)"><g clip-path="url(#clip1)"><g clip-path="url(#clip2)"><g clip-path="url(#clip3)"><g clip-path="url(#clip4)"><path d="M935.241 1114.19C951.434 1132.36 976.949 1139.48 1011.8 1135.55 976.949 1139.48 951.434 1132.36 935.241 1114.19ZM237.405 1087.68 238.526 1090.36 238.27 1089.45ZM321.199 1086.16 318.132 1094.04 320.401 1090.32ZM991.188 1064.86 961.004 1069.27 961.005 1069.27ZM1193.71 1045.66 1194.35 1050.12 1194.35 1050.12ZM325.002 1025.83 325.002 1025.83 327.578 1052.94ZM1236.05 1022.48 1236.05 1022.48 1233.18 1033.37C1222.27 1066.63 1207.36 1098.73 1188.46 1129.65 1207.36 1098.73 1222.27 1066.63 1233.18 1033.37ZM338.158 941.86 347.821 1008.89C350.766 1034.91 351.257 1061.91 349.293 1089.89L347.086 1119.34 347.086 1119.35 349.293 1089.89C351.257 1061.91 350.766 1034.91 347.822 1008.89ZM336.043 931.562 336.433 931.953 336.043 931.562ZM333.835 917.571 336.78 931.562 333.836 917.571ZM297.766 891.797 322.793 919.044 322.793 919.044ZM397.877 891.796 359.402 904.394 357.391 905.052 357.391 905.052 359.402 904.394 397.877 891.797 399.349 891.797 399.349 891.796ZM277.891 827.728 277.891 827.73 294.821 891.796 297.03 900.633 297.029 900.63 294.821 891.797ZM297.03 815.209 294.821 818.155 294.821 818.155 297.03 815.21 297.03 815.21ZM369.905 804.163 341.197 821.101 325.738 860.867C324.757 852.521 324.266 851.293 324.266 857.185L325.738 860.867 335.307 867.495 341.932 857.185C355.182 863.567 367.942 862.34 380.211 853.503 389.534 838.284 389.289 825.028 379.474 813.736ZM303.655 801.217 296.293 804.163 296.945 813.956 296.293 804.163 303.655 801.218ZM922.541 795.601 926.407 805.636 944.073 830.674 944.073 830.674 926.407 805.636 922.542 795.601ZM366.961 795.326C396.405 809.073 401.802 830.183 383.155 858.657 369.905 867.986 355.182 870.194 338.988 865.285 355.182 870.195 369.905 867.986 383.155 858.658 401.803 830.183 396.405 809.073 366.961 795.326ZM358.127 782.807 355.182 801.954 330.891 818.155 323.53 850.557 318.032 846.731 323.53 850.557 330.891 818.155 355.182 801.954 358.127 782.807ZM433.211 776.916 419.224 779.125 433.211 776.916ZM943.337 774.706 929.351 775.443 935.977 800.481 935.977 793.854 935.976 793.854 935.241 793.116 935.976 793.116 935.976 793.116 935.977 793.116 938.921 782.807 944.809 778.389 944.809 778.388ZM919.782 768.815 919.782 768.815 919.769 770.108 919.769 770.108ZM923.888 766.712 923.888 766.712 938.942 767.314ZM921.254 766.606 921.254 766.606 923.428 766.693 923.429 766.693ZM1036.09 764.396 1018.43 776.916C1010.07 823.065 981.615 847.611 933.032 850.557L919.612 849.215 933.032 850.557C981.615 847.611 1010.07 823.065 1018.43 776.916L1036.09 764.397ZM730.601 734.203 738.698 738.623 754.156 736.413 738.698 738.622ZM296.293 733.467 302.182 760.714 296.293 733.467ZM287.46 726.103 287.46 726.103 295.332 732.666ZM820.406 723.157 788.017 757.768 788.017 757.768 820.406 723.158ZM380.946 720.948 361.071 743.041 361.807 750.405 350.03 783.544 350.03 783.544 361.808 750.405 361.071 743.041 380.947 720.949ZM437.361 719.348 436.098 720.351 421.432 731.994 389.755 732.715 421.433 731.995 436.098 720.351 437.361 719.348ZM781.994 719.109 781.994 719.11 781.392 720.211 781.392 720.211ZM694.531 718.739 707.045 728.313C714.652 733.713 722.688 737.947 731.153 741.016 722.688 737.947 714.652 733.713 707.045 728.313ZM785.81 712.111 785.809 712.111 783.188 716.919 783.188 716.919ZM480.322 712.111 424.377 738.622 408.183 739.359 402.294 749.669 414.808 762.188 424.377 757.768 442.044 764.396C466.581 764.888 481.794 754.087 487.683 731.995L489.155 726.839ZM728.392 711.375 724.712 726.103 731.336 728.313 740.17 723.894 741.642 726.103 740.17 723.894ZM479.586 704.747 489.892 707.693C495.413 726.195 494.101 740.892 485.958 751.784 494.101 740.892 495.413 726.195 489.892 707.693ZM952.778 701.795 953.643 702.538 966.178 703.235 953.643 702.537ZM392.724 701.065 385.363 705.483 389.78 715.793 411.127 718.739 389.78 715.793 385.363 705.483 392.724 701.065ZM414.072 690.755 410.391 706.22 400.822 711.375 410.391 706.22 414.072 690.756ZM464.863 686.337 464.863 686.337 468.022 695.468 468.023 695.468 464.863 686.337ZM554.669 685.6 547.309 689.282 547.309 689.283ZM716.615 678.236 732.809 710.639 740.17 715.793 759.981 720.04 740.17 715.793 732.809 710.639ZM450.142 678.236C440.817 681.181 436.4 686.337 436.892 693.701L444.988 690.755 458.974 682.655ZM630.49 675.291 630.49 675.291 632.347 677.222ZM510.532 674.265 519.336 676.027 525.961 676.027 531.85 677.5 531.842 677.498 525.961 676.027 525.959 676.027 519.336 676.027ZM508.294 673.818 497.989 676.027 508.294 673.818ZM445.724 671.608 426.586 688.545 425.849 701.065 425.849 701.065 426.586 688.546 445.724 671.608ZM748.083 669.583C745.507 668.725 742.869 668.908 740.17 670.135L728.392 681.918 729.129 685.6 738.698 701.801C744.587 709.165 751.702 711.62 760.045 709.165 765.444 696.401 763.971 685.11 755.629 675.291 753.174 672.345 750.659 670.443 748.083 669.583ZM520.808 664.981 519.336 674.554 520.808 664.982ZM817.578 664.919 818.198 667.19 818.198 667.19ZM942.601 662.772 968.365 681.918 972.05 678.973 968.365 681.917 942.602 662.772ZM634.17 662.035 609.878 671.608 634.169 662.036ZM806.756 661.277 788.017 665.717 788.017 665.718 806.757 661.277ZM661.406 658.354 658.461 672.345 651.836 684.127 658.461 672.345ZM838.14 657.306 838.14 657.307 841.569 679.202C842.305 701.018 834.761 721.316 818.934 740.095L803.477 760.713 803.476 760.714 818.935 740.095C834.761 721.316 842.306 701.019 841.57 679.203ZM771.823 654.671 786.545 698.856 792.435 699.593 794.642 698.119 797.587 689.283ZM656.99 648.78 658.192 651.386 656.99 648.78ZM361.808 642.152 361.808 642.152 406.711 666.454 406.711 666.454ZM509.767 639.942 511.975 641.416 519.354 642.087 511.974 641.415ZM562.03 639.942 562.03 660.562 552.46 664.981 546.572 673.818 530.378 664.981 532.586 656.144 548.044 650.252 548.044 650.252 532.585 656.144 530.378 664.981 546.572 673.818 526.698 676.027 526.698 676.027 526.697 676.027 528.126 676.435 526.698 676.027 546.572 673.818 552.461 664.981 562.03 660.562 562.03 639.942 576.753 650.989 561.295 669.399 576.753 650.99 576.753 650.989ZM673.184 636.26 684.225 652.462 686.434 662.772 686.434 662.772 684.225 652.462 673.184 636.26 727.473 642.039 727.473 642.038ZM648.155 636.26 590.003 641.415 583.378 671.608 583.378 671.608 590.003 641.416 648.156 636.26ZM483.267 625.95 480.322 646.57 455.294 649.516 459.711 668.663 467.808 675.291 464.863 678.973 464.863 678.973 467.808 675.291 459.711 668.663 455.294 649.516 480.322 646.57 483.267 625.95ZM505.366 621.57 519.336 622.269 519.336 622.268ZM591.475 612.696 596.628 616.378 562.767 618.586 562.77 618.586 596.628 616.378 591.475 612.696ZM706.309 610.486 719.559 612.696 719.559 612.696ZM439.099 586.184 439.099 586.185 451.613 591.339 473.697 626.688 473.697 626.688 451.614 591.339ZM662.879 581.029 662.879 581.029 689.378 621.532 689.379 621.532ZM838.801 571.845 835.071 581.172 835.072 581.172 838.801 571.845ZM556.099 561.701 558.349 561.883 525.224 581.029 553.933 584.711 506.089 597.965 506.085 597.967 553.933 584.711 525.225 581.029 558.35 561.883ZM294.821 547.155 294.821 547.155 359.598 646.569 359.599 646.57ZM305.863 526.35C288.441 547.093 271.757 568.511 255.807 590.602L244.765 606.804 239.612 627.424C236.178 636.26 237.895 646.325 244.765 657.616L233.724 665.718 244.766 657.616C237.895 646.325 236.178 636.26 239.612 627.424L244.766 606.804 255.807 590.603C271.757 568.511 288.441 547.094 305.863 526.35ZM538.475 522.853 531.113 559.673 531.114 559.673ZM380.21 497.814 379.474 498.551 379.474 498.552 380.211 497.814ZM382.418 493.396 386.835 506.651 386.836 506.651 382.419 493.396ZM1410.9 491.204 1410.9 491.204 1413.34 512.543C1414.08 524.325 1414.21 536.108 1413.71 547.891L1413.71 548.627 1410.04 589.866 1404.88 618.586C1401.94 632.333 1397.27 645.589 1390.89 658.353 1384.02 675.045 1373.72 687.564 1359.98 695.91 1343.29 706.219 1326.85 717.02 1310.66 728.312L1262.08 924.935 1253.98 930.09C1252.5 947.886 1250.04 965.392 1246.57 982.604L1240.44 1005.86 1240.44 1005.86 1246.58 982.604C1250.04 965.393 1252.5 947.887 1253.98 930.09L1262.08 924.935 1310.66 728.313C1326.85 717.02 1343.29 706.22 1359.98 695.91 1373.72 687.564 1384.02 675.045 1390.9 658.353 1397.27 645.589 1401.94 632.333 1404.88 618.587L1410.04 589.866 1413.71 548.627 1413.71 547.891C1414.21 536.108 1414.08 524.325 1413.34 512.543ZM367.697 463.94 391.252 503.706 391.252 503.705ZM475.169 407.973 477.377 412.391 477.377 413.863 472.961 416.073 472.961 416.073 477.378 413.863 477.378 412.391ZM478.113 394.717 468.543 407.972 468.544 407.972 478.114 394.717ZM464.572 385.918 456.49 389.424 451.806 392.236ZM509.996 366.996 504.982 368.389 496.9 371.896ZM645.948 357.895 628.28 374.097 645.947 567.034 645.948 567.037 628.281 374.097 645.948 357.896ZM953.643 327.702C941.375 345.377 930.21 363.541 920.15 382.197L910.699 402.402 910.699 402.402 920.15 382.197C930.21 363.541 941.375 345.377 953.643 327.703L966.439 333.484ZM746.795 317.392 746.795 317.393 766.67 324.758 766.67 324.757ZM804.211 314.448 780.656 324.02 779.184 438.901 780.798 464.591 780.799 464.591 779.185 438.901 780.656 324.02 804.212 314.448ZM762.161 313.939 766.67 315.184 766.671 315.184ZM745.322 309.292 630.489 341.694 630.489 341.694 634.17 351.268 640.968 355.093 634.17 351.268 630.489 341.694ZM971.129 308.372 971.129 308.375 971.313 313.71 971.313 313.71C971.313 310.274 971.245 308.495 971.129 308.372ZM1343.55 306.184 1343.56 306.187 1344.51 307.083 1344.51 307.083 1358.5 321.812 1358.47 321.936 1358.47 321.936 1358.5 321.812 1344.51 307.083ZM1333.48 296.774 1333.35 297.759 1333.35 297.759 1333.48 296.774 1341.62 304.38 1341.62 304.382 1333.48 296.774ZM994.865 259.216 994.865 259.217 994.127 262.898C975.484 275.172 965.911 293.091 965.421 316.656L991.043 326.561 965.421 316.656C965.911 293.091 975.484 275.172 994.127 262.898ZM1192.14 238.597C1213.25 242.279 1233.86 247.679 1253.98 254.797L1292.94 272.337 1253.98 254.797C1233.86 247.679 1213.25 242.279 1192.14 238.597ZM1162.7 220.186 1251.76 239.333C1284.65 247.679 1313.36 262.162 1337.89 282.781 1372.74 311.256 1398.5 345.622 1415.19 385.879 1423.04 404.535 1428.44 424.419 1431.38 445.529 1441.19 511.806 1437.02 578.574 1418.86 645.834 1411.5 673.327 1396.05 694.682 1372.49 709.902L1326.85 737.886 1301.83 815.946 1303.3 851.293 1302.56 856.449 1292.25 891.796 1279.74 928.617 1279.74 929.354 1277.54 932.3 1272.38 937.454 1271.64 937.454 1272.38 972.797 1272.38 973.535 1272.38 974.272 1272.38 975.009 1272.38 975.746 1272.38 977.221 1272.38 978.695C1259.13 1020.42 1242.69 1060.68 1223.06 1099.47L1222.33 1100.2 1204.66 1136.29 1203.93 1137.03 1203.93 1137.76 1198.04 1142.18 1189.94 1143.65 1188.46 1143.65 1186.25 1142.91 1186.99 1142.91 1185.51 1142.18C1187.73 1104.25 1189.8 1076.55 1191.73 1059.06L1193.61 1044.97 1193.61 1044.97 1196.75 1017.91 1195.83 994.166 1195.83 994.156 1193.61 983.845 1193.61 981.644 1181.1 956.602 1182.02 954.76 1182.02 954.76C1181.16 954.514 1180.86 955.128 1181.1 956.601L1164.18 952.919 1132.52 944.082 1117.06 969.12 1117.8 989.743 1117.8 1037.6 1117.8 1037.6 1117.8 989.743 1117.06 969.12 1132.52 944.082 1164.18 952.919 1139.88 952.919 1127.36 972.797 1118.53 1063.38C1116.08 1078.6 1110.92 1093.33 1103.08 1107.57 1076.08 1154.2 1035.85 1178.51 982.352 1180.47 949.963 1174.09 926.652 1155.44 912.421 1124.5L908.74 1114.19C904.323 1090.63 909.23 1069.27 923.462 1050.12 938.675 1030.49 958.305 1016.99 982.352 1009.62L994.127 1003.73 1001.49 1011.09 1013.27 1014.04C1020.63 1043 1024.8 1073.44 1025.78 1105.36L1027.99 1115.67 1019.15 1115.67 999.278 1107.57C981.615 1098.24 967.384 1085.72 956.588 1070.01L961.74 1066.32 987.502 1050.86 974.99 1037.6C948.491 1042.03 935.241 1059.7 935.241 1090.63L954.379 1114.19C971.061 1127.45 990.936 1131.87 1014 1127.45L1036.09 1120.82 1039.03 1120.09 1044.19 1118.62 1046.39 1117.14C1057.19 1110.76 1063.57 1100.69 1065.53 1086.95 1072.41 1042.27 1071.67 998.085 1063.33 954.392L1040.5 792.38C1039.52 786.98 1035.59 785.262 1028.73 787.226L1021.36 806.372C1011.06 829.446 994.127 844.665 970.576 852.03L918.309 854.975 916.837 853.503C892.3 829.446 889.601 803.426 908.74 775.443L923.462 756.296 948.491 753.35C956.833 757.278 963.458 763.169 968.365 771.024 974.252 779.371 975.969 787.717 973.515 796.062L972.778 796.062 972.778 796.799 965.421 808.582 955.852 810.054 972.05 796.062 959.532 768.078 948.099 762.697 959.532 768.078 972.05 796.062 955.852 810.054 953.643 810.791 953.643 810.791 953.642 810.791 938.184 804.9 949.963 820.364C969.593 817.418 980.392 805.636 982.352 785.016L980.877 759.978 971.313 731.258C964.44 715.057 953.398 705.729 938.184 703.275L930.088 684.864 915.366 674.554 932.296 678.236 932.296 678.236 915.365 674.554 870.462 664.244 838.617 657.003 838.617 657.004 870.462 664.244 851.323 671.608C850.833 696.156 844.698 718.739 832.921 739.359 826.541 751.141 817.953 760.469 807.156 767.342L731.336 746.723C714.652 742.305 700.911 733.713 690.115 720.948L718.822 653.934 698.947 646.57 679.809 695.91 629.753 707.693 620.92 697.383 609.141 684.127 603.989 678.236 612.086 658.353 639.323 649.516 646.684 660.562 642.266 675.291 653.309 653.198 634.906 641.416 612.086 645.834 598.836 658.353 594.42 666.454 590.739 683.391 570.864 692.228 564.975 695.174C549.271 703.028 532.34 708.674 514.183 712.111L521.544 740.095 499.461 767.342 478.849 780.598 468.544 785.016 459.711 789.435 447.197 793.854 419.224 805.636 430.266 839.511 405.974 878.541 409.654 896.951C392.97 910.698 375.302 920.271 356.655 925.672L347.822 927.88C353.711 952.919 357.391 977.958 358.863 1002.99L363.28 1089.89C364.752 1126.71 348.067 1150.77 313.224 1162.06L291.141 1159.85C276.418 1152.98 264.641 1142.91 255.807 1129.65L250.717 1119.1 248.777 1116.63 243.744 1104.63 235.932 1088.42 228.571 1056.75C226.608 1040.55 228.571 1024.59 234.46 1008.89L248.446 982.371 253.599 975.746C265.376 986.552 275.682 998.085 284.516 1010.36L298.502 1031.71 288.196 1050.12 276.418 1067.06 274.21 1061.17 273.474 1059.7 272.737 1053.81 272.002 1038.34 264.641 1032.45 253.599 1043.5C254.089 1059.2 258.016 1074.67 265.376 1089.89L280.099 1113.45 297.766 1114.19C312.979 1086.21 321.076 1055.28 322.057 1021.4L323.53 1004.47 323.53 1004.47 321.321 965.437 321.321 963.228 321.321 963.228 319.371 955.217 321.321 963.228 311.016 935.982 305.127 924.935C285.497 919.535 271.51 908.488 263.168 891.796L215.321 746.723 236.244 771.216 215.321 746.723 213.849 740.831C207.469 713.338 210.167 687.073 221.946 662.035L230.779 652.462 230.779 639.206C230.779 629.387 232.742 620.55 236.668 612.696 267.094 554.273 306.108 501.987 353.711 455.839L359.599 449.948 380.947 426.382 404.502 406.499C457.503 369.188 516.392 345.622 581.169 335.804 605.707 332.367 629.507 326.721 652.573 318.866 682.998 307.083 714.406 298.737 746.795 293.828L769.615 298.246 782.128 294.564 923.462 299.718 949.227 278.363 988.977 246.697 992.653 244.488 1055.96 229.023Z" fill="#FFFFFF" fill-rule="evenodd" transform="matrix(1 0 0 1.00078 28.4532 46.6429)"/><path d="M969.908 529.389 961.074 534.544 969.172 528.653 969.908 529.389M1247.42 538.225 1246.68 538.962 1241.52 530.126 1247.42 538.225M335.395 931.43 335.395 932.167 334.659 931.43 335.395 931.43" fill="#006666" fill-rule="evenodd" transform="matrix(1 0 0 1.00078 28.4532 46.6429)"/><path d="M319.832 963.206 309.515 935.967 303.62 924.924 305.094 924.188C312.954 934.985 317.868 947.992 319.832 963.206M525.438 676.091 530.596 677.563 524.7 676.091 525.438 676.091" fill-rule="evenodd" transform="matrix(1 0 0 1.00078 28.4532 46.6429)"/><path d="M969.264 313.071C969.754 306.695 970.004 306.941 970.004 313.806L969.264 313.071M934.674 792.724 934.674 793.459 933.938 792.724 934.674 792.724M378.308 498.458 379.045 497.722 381.989 504.343 378.308 498.458" fill="#004242" fill-rule="evenodd" transform="matrix(1 0 0 1.00078 28.4532 46.6429)"/><path d="M1331.96 296.826 1343 307.134 1295.16 490.458 1239.22 527.27 1215.67 498.556C1233.34 495.121 1249.52 487.268 1264.25 474.997 1275.04 466.162 1283.63 455.609 1290.01 443.338 1314.06 396.709 1328.03 347.872 1331.96 296.826M1356.99 321.858 1384.96 360.143C1377.6 425.914 1364.59 473.034 1345.95 501.501 1326.81 529.969 1312.58 548.621 1303.26 557.457 1293.94 566.291 1282.65 572.181 1269.4 575.126L1246.59 539.05 1247.32 538.314 1296.64 514.018 1298.11 506.655 1309.89 497.82 1356.99 321.858M212.441 740.781C213.423 714.767 220.047 689.735 232.314 665.684L243.356 657.585C236.485 646.297 234.768 636.234 238.203 627.4L243.356 606.784 254.396 590.588C286.291 546.413 321.131 504.938 358.914 466.162L378.051 498.556 381.732 504.447 378.787 497.82 385.412 506.655 380.995 493.403 389.828 503.711 366.275 463.953C377.07 444.811 391.055 429.35 408.229 417.57 469.566 375.359 535.32 352.044 605.489 347.627L599.601 365.296 610.641 367.505 644.499 567.028 626.834 374.132 644.499 357.934 632.723 351.308 629.043 341.737 743.865 309.342 745.337 317.441 765.211 324.803C769.626 353.762 771.59 382.721 771.099 411.68 770.608 453.401 768.891 494.875 765.946 536.106L762.266 594.269 754.17 594.269 730.616 608.993 718.104 612.674 704.855 610.466 687.926 621.51 661.428 581.016 657.748 604.576 646.707 610.466 620.21 620.773 561.326 618.565 595.184 616.355 590.032 612.674 503.178 621.51 517.9 622.246 508.331 639.915 496.554 675.992 506.859 673.783 517.9 675.992 524.524 675.992 530.413 677.464 525.26 675.992 545.133 673.783 551.022 664.948 560.59 660.53 559.855 669.366 575.311 650.959 581.935 671.575 569.423 684.826C554.702 697.589 536.546 702.742 514.956 700.288L503.915 700.288 478.154 671.575 478.889 646.542 481.834 625.927 472.265 626.663 450.183 591.324 437.671 586.169 447.239 609.73 441.351 636.97 448.712 635.498 405.285 666.42 360.386 642.125 357.442 687.035 300.766 760.66 294.878 733.419 286.046 726.056C282.12 756.979 284.083 787.165 291.934 816.614L293.406 818.087 295.614 815.142 310.335 868.152 343.457 876.986 337.569 865.206C353.762 870.115 368.483 867.906 381.732 858.581 400.378 830.112 394.981 809.006 365.539 795.263L353.762 801.889 356.706 782.747 374.371 781.274C390.564 792.564 403.076 807.779 411.909 826.921L417.798 840.911C407.003 860.543 392.772 877.477 375.107 891.711L369.955 895.393 355.97 904.963 396.452 891.711 397.924 891.711C384.185 905.945 367.501 914.534 347.873 917.479L332.417 917.479 321.375 918.952 296.351 891.711 293.406 890.239 294.142 891.711 295.614 900.546 293.406 891.711 276.478 827.658 283.838 891.711 287.518 904.227 277.949 891.711C260.774 865.206 252.923 835.756 254.396 803.361L247.771 801.889 248.507 787.165 213.914 746.671 212.441 740.781M780.668 310.078 794.652 308.605C841.268 300.752 883.223 303.206 920.516 315.969 923.46 351.308 916.591 385.175 899.907 417.57L870.465 481.623C856.725 516.963 840.041 551.075 820.414 583.961L799.805 613.411C792.444 599.668 787.783 584.451 785.82 567.764L777.724 438.921 779.195 324.067 802.748 314.496 780.668 310.078M993.38 259.278 1019.14 253.388 1114.83 236.454 1161.21 235.718 1190.65 238.663C1232.84 246.025 1273.09 260.259 1311.35 281.365 1312.34 331.92 1302.03 378.549 1280.44 421.251 1265.23 451.682 1243.64 477.451 1215.67 498.556L1214.93 498.556 1161.21 449.965 1089.81 391.801 1028.72 341.737 963.942 316.705C964.433 293.145 974 275.229 992.653 262.959L993.38 259.278M969.095 313.024 969.831 313.759C969.831 306.888 969.586 306.642 969.095 313.024M1054.48 388.12 1056.68 396.955C1057.66 409.226 1055.46 420.024 1050.06 429.35L1029.45 457.327 1030.92 455.855 1030.92 455.119 1031.66 452.909 1030.18 455.119 1025.77 460.272C1006.15 486.777 984.554 511.564 960.998 534.633 930.085 563.101 895.981 588.378 858.688 610.466L835.87 606.784 830.719 588.378 848.383 544.204 891.81 439.657C907.513 400.391 927.631 363.087 952.166 327.748L974.98 338.055 1054.48 388.12M969.095 528.742 1088.33 438.921C1095.2 433.522 1103.06 429.841 1111.88 427.878L1172.25 477.942C1170.77 519.172 1153.35 550.83 1119.98 572.917 1090.54 592.551 1058.65 607.766 1024.29 618.565 1007.61 625.436 990.441 631.081 972.778 635.498L946.277 626.663 960.262 636.97 885.922 636.234C908.984 596.477 936.955 560.893 969.831 529.479L969.095 528.742M756.378 746.671C737.731 745.198 720.803 739.063 705.591 728.265L693.078 718.693C700.929 693.17 714.669 670.593 734.297 650.959L737.241 659.058 715.16 678.201C707.8 694.397 707.554 708.877 714.424 721.638L718.84 730.474 730.616 729.001 740.184 726.056 738.713 723.847 726.936 711.331 712.951 696.607 715.16 678.201 731.353 710.595 738.713 715.749 759.322 720.166 779.931 720.166 784.348 712.068 790.236 708.386 793.18 698.078 796.124 689.244 786.556 665.684 814.525 659.058 816.734 667.157C822.622 712.804 802.504 739.309 756.378 746.671M684.982 662.739 679.093 689.244 670.261 691.452 619.474 697.343 607.697 684.09 608.433 671.575 632.723 662.003C624.381 672.311 627.816 679.673 643.027 684.09L650.388 684.09 657.012 672.311 659.956 658.322 655.54 648.751 684.982 662.739M467.112 784.956 458.28 789.373 445.767 793.791C423.195 799.19 402.341 793.545 383.203 776.857L360.386 750.352 359.65 742.99 379.523 720.902 387.62 732.683 385.412 732.683 391.3 758.451 417.798 779.066 431.783 776.857 421.478 765.813C432.763 772.685 443.314 774.157 453.127 770.231 486.495 761.396 498.272 740.536 488.458 707.65L478.154 704.705 470.056 705.442 463.432 686.299 463.432 678.937 466.376 675.256C493.855 686.054 505.633 705.196 501.707 732.683 498.272 755.752 486.74 773.176 467.112 784.956M1116.31 1037.49C1104.04 1120.92 1058.4 1166.33 979.403 1173.69 958.3 1169.28 941.371 1158.48 928.613 1141.29 921.742 1131.97 916.591 1122.89 913.156 1114.06 905.304 1094.42 907.758 1075.77 920.516 1058.1 934.746 1038.47 953.393 1024.24 976.454 1015.4L987.493 1011.72 989.704 1021.29 1003.69 1019.82 1018.41 1106.69 997.804 1102.28 969.095 1080.19 959.526 1069.15 989.704 1064.73 1002.95 1077.25 1000.01 1055.9 971.304 1026.45 944.806 1041.17 935.973 1055.16C928.613 1066.93 923.46 1079.94 920.516 1094.18L933.765 1114.06C949.958 1132.21 975.474 1139.33 1010.32 1135.41 1055.94 1129.52 1077.54 1101.79 1075.08 1052.21L1066.26 955.028 1116.31 1037.49M1051.53 698.078 1049.32 656.113C1085.14 632.553 1122.44 612.184 1161.21 595.005L1213.46 573.654 1247.32 619.301 1251.74 627.4 1253.95 644.333C1256.89 678.691 1249.04 709.859 1230.39 737.836L1185.5 745.198 1182.55 748.143C1136.91 736.854 1093.24 720.166 1051.53 698.078M1389.38 511.809C1380.54 550.094 1354.53 581.016 1311.35 604.576L1295.9 595.005 1314.3 582.488C1333.93 569.727 1346.69 552.793 1352.58 531.688 1372.2 492.421 1384.71 451.192 1390.11 407.999 1397.96 438.921 1397.72 473.524 1389.38 511.809M1242.9 866.679C1238 878.459 1230.39 886.803 1220.09 891.711L1217.15 894.656 1181.81 895.393 1175.18 891.711 1091.28 824.713C1082.44 802.625 1083.68 778.329 1094.96 751.824 1131.27 757.224 1161.93 763.359 1186.96 770.231 1211.99 776.611 1234.31 784.465 1253.95 793.791 1256.89 818.823 1253.21 843.119 1242.9 866.679M470.056 396.219 466.376 407.999 466.376 408.735 470.793 416.097 471.529 416.097 475.945 413.888 475.945 412.416 473.737 407.999 467.112 407.999 476.681 394.747 470.056 396.219M480.362 416.833 475.209 426.405 529.677 528.007 521.58 551.566 528.204 569.973 512.011 581.752 528.94 588.378 504.651 597.95 552.493 584.697 523.788 581.016 556.91 561.874 529.677 559.665 537.037 522.853 480.362 416.833M293.406 547.149 294.142 564.819 358.178 646.542 293.406 547.149M553.23 685.563C560.59 681.636 565.988 676.483 569.423 670.101L571.63 664.211 569.423 664.948 545.869 689.244 553.23 685.563M737.241 738.572 752.698 736.364 729.144 734.155 737.241 738.572M345.665 1119.21C338.795 1134.43 327.755 1146.2 312.544 1154.55L304.447 1158.23C269.116 1145.96 246.299 1122.4 235.994 1087.56 227.162 1057.61 228.634 1027.91 240.411 998.463L247.036 982.264C264.7 996.998 277.458 1015.89 285.309 1038.96L272.061 1059.57 276.478 1036.75 255.868 1015.4 239.674 1044.11C241.147 1074.55 252.188 1100.31 272.796 1121.42L298.558 1123.63C322.602 1095.66 330.944 1063.01 323.584 1025.71L345.665 1119.21" fill="#FFFFFF" fill-rule="evenodd" transform="matrix(1 0 0 1.00078 28.4532 46.6429)"/><path d="M1311.2 281.096 1331.8 296.565C1327.88 347.638 1313.89 396.501 1289.86 443.153 1283.47 455.43 1274.89 465.988 1264.09 474.828 1249.38 487.105 1233.18 494.963 1215.52 498.4L1239.07 527.128 1295.01 490.297 1342.84 306.878 1356.82 321.611 1309.72 497.663 1297.95 506.503 1296.47 513.869 1247.17 538.177 1241.28 530.074 1246.43 538.914 1269.24 575.009C1282.49 572.063 1293.78 566.169 1303.1 557.33 1312.42 548.49 1326.65 529.83 1345.79 501.346 1364.43 472.864 1377.43 425.719 1384.79 359.915L1407.6 477.038C1411.53 500.61 1413 524.182 1412.02 547.754L1412.02 548.49 1405.39 569.852C1387.73 619.943 1352.9 647.934 1300.89 653.828 1269.98 594.406 1230.98 543.334 1183.88 500.61L1189.03 535.231 1179.46 550.7 1208.16 547.017 1281.76 642.041 1287.64 682.556C1295.49 731.173 1276.85 758.428 1231.72 764.322L1266.3 795.259C1273.17 838.966 1268.02 881.69 1250.84 923.432L1219.94 944.794C1171.86 946.758 1132.36 928.588 1101.45 890.284 1069.56 847.56 1060.48 799.678 1074.22 746.643L1113.22 737.803C1062.2 745.169 1027.61 727.49 1009.45 684.765L1007.99 664.141 1010.19 651.617C990.082 650.635 967.018 654.318 941.015 662.667L966.773 681.82 970.45 678.873 971.924 679.609C977.318 683.538 983.458 685.257 990.325 684.765L1033.74 747.379 1049.2 745.905C1053.62 799.925 1065.39 850.751 1084.52 898.387L1089.67 902.07 1091.88 938.9C1089.43 963.454 1097.53 980.402 1116.17 989.724L1116.17 1037.61 1066.13 955.107 1040.37 773.897 1034.48 764.322 1016.82 776.844C1008.47 823.006 980.024 847.56 931.448 850.506L916.729 849.033C890.726 822.023 891.217 795.259 918.201 768.741 915.748 782 917.955 794.278 924.825 805.572L942.487 830.617C976.833 823.742 991.305 801.644 985.912 764.322 982.963 745.169 975.853 727.981 964.565 712.757L965.301 703.181 952.054 702.444 946.903 698.025 939.543 698.025 930.712 678.135 913.785 674.452 868.894 664.141 836.512 656.773C844.853 687.221 838.474 714.968 817.377 740.013L801.922 760.638 818.849 723.07 786.467 757.692 756.294 746.643C802.413 739.276 822.528 712.757 816.641 667.086L814.433 658.984 786.467 665.613 775.429 647.198 671.661 636.149 682.699 652.354 684.908 662.667 655.47 648.671 646.639 636.149 588.499 641.305 581.875 671.507 575.252 650.881 560.534 639.832 560.534 660.458 550.967 664.877 546.55 650.145 531.096 656.037 528.888 664.877 545.079 673.716 525.209 675.926 519.321 664.877 517.849 674.452 518.585 674.452 524.473 675.926 517.849 675.926 506.81 673.716 518.585 642.041 510.489 641.305 508.282 639.832 517.849 622.153 503.13 621.417 589.971 612.576 595.122 616.26 561.27 618.47 620.145 620.679 646.639 610.367 657.678 604.474 661.358 580.902 687.851 621.417 704.778 610.367 718.025 612.576 730.536 608.893 754.086 594.161 762.182 594.161 765.861 535.968C768.805 494.717 770.523 453.22 771.012 411.478 771.503 382.505 769.541 353.531 765.126 324.557L745.255 317.191 743.783 309.087 765.126 314.981 780.58 309.825 802.658 314.244 779.108 323.821 777.637 438.734 785.732 567.643C787.694 584.339 792.355 599.563 799.714 613.313L820.321 583.848C839.946 550.945 856.627 516.815 870.365 481.458L899.802 417.372C916.484 384.96 923.352 351.075 920.409 315.717L993.264 258.997 992.527 262.681C973.884 274.958 964.32 292.882 963.83 316.454L1028.59 341.499 1089.67 391.59 1161.06 449.783 1214.79 498.4 1215.52 498.4C1243.49 477.284 1265.07 451.502 1280.28 421.055 1301.87 378.33 1312.18 331.677 1311.2 281.096M1408.34 589.742 1403.19 618.47C1400.24 632.219 1395.58 645.479 1389.2 658.247L1338.42 670.769 1408.34 589.742M1189.76 1078.86 1191.97 1044.97 1192.7 1050.13 1197.86 1022.14 1222.88 988.986 1224.35 998.57C1223.86 1029.5 1212.33 1056.26 1189.76 1078.86M358.885 465.988 366.245 463.779 389.795 503.557 380.964 493.244 385.38 506.503 378.756 497.663 378.02 498.4 358.885 465.988M605.426 347.392 628.976 341.499 632.656 351.075 644.43 357.705 626.768 373.911 644.43 566.906 610.578 367.281 599.539 365.071 605.426 347.392M1071.28 409.268 1070.54 412.951 1067.59 432.104 1068.33 432.841 1069.81 434.313 1089.67 425.474 1090.41 424.001 1091.15 421.791 1091.15 421.055 1078.63 407.059 1071.28 409.268M1054.35 387.906 974.873 337.816 952.054 327.504C927.523 362.861 907.407 400.184 891.708 439.47L848.286 544.07 830.624 588.268 835.775 606.684 858.589 610.367C895.878 588.268 929.976 562.977 960.886 534.494 984.437 511.414 1006.02 486.614 1025.65 460.096L1030.07 454.939 1031.54 452.73 1030.8 454.939 1030.8 455.676 1029.33 457.149 1049.93 429.157C1055.33 419.827 1057.54 409.023 1056.56 396.746L1054.35 387.906M969.717 529.338C936.845 560.767 908.879 596.371 885.82 636.149L960.15 636.885 946.166 626.572 972.662 635.412C990.325 630.992 1007.49 625.345 1024.18 618.47 1058.52 607.666 1090.41 592.442 1119.85 572.799 1153.21 550.7 1170.63 519.025 1172.1 477.775L1111.76 427.685C1102.92 429.649 1095.07 433.332 1088.21 438.734L968.981 528.602 960.886 534.494 969.717 529.338M868.157 649.407 863.741 642.779 863.741 641.305 864.477 637.622C867.421 632.711 867.667 628.045 865.214 623.626L829.152 624.362 829.152 623.626 826.208 617.733 816.641 626.572 816.641 628.045 815.905 629.519 809.281 634.675C818.604 641.551 830.133 645.97 843.871 647.934 846.815 651.863 850.494 652.6 854.91 650.145L868.157 649.407M734.216 650.881 741.575 647.198C765.126 659.966 776.9 680.346 776.9 708.338L776.164 717.177 784.26 712.021 779.844 720.124 759.238 720.124 765.861 699.498C769.296 678.873 759.729 665.368 737.159 658.984L734.216 650.881M322.088 1004.46 319.88 965.419 319.88 963.209C317.918 947.986 313.012 934.972 305.162 924.168L294.859 911.646 287.499 904.28 283.819 891.757 276.46 827.67 293.386 891.757 295.595 900.597 294.123 891.757 293.386 890.284 296.33 891.757 321.352 919.012 332.391 917.538 335.335 931.534 334.599 931.534 335.335 932.271 346.375 1008.88C349.319 1034.91 349.808 1061.92 347.846 1089.91L345.638 1119.37 323.561 1025.83 322.824 1022.88 322.088 1004.46M952.054 810.728 934.392 793.786 934.392 793.05 946.903 785.682 943.223 778.316 941.751 774.633 938.071 767.267 919.673 766.531C923.598 762.602 928.013 759.165 932.919 756.218L957.942 768.005 970.45 795.995 954.262 809.991 952.054 810.728M1051.4 698.025C1093.11 720.124 1136.77 736.82 1182.4 748.115L1185.35 745.169 1230.24 737.803C1248.88 709.811 1256.73 678.627 1253.79 644.251L1251.58 627.309 1247.17 619.206 1213.31 573.535 1161.06 594.898C1122.3 612.085 1085.01 632.466 1049.2 656.037L1051.4 698.025M1389.2 511.659C1397.54 473.355 1397.79 438.734 1389.94 407.795 1384.55 451.011 1372.03 492.261 1352.41 531.548 1346.52 552.665 1333.77 569.607 1314.13 582.375L1295.73 594.898 1311.2 604.474C1354.37 580.902 1380.38 549.964 1389.2 511.659M1242.75 866.712C1253.05 843.14 1256.73 818.831 1253.79 793.786 1234.17 784.455 1211.84 776.598 1186.82 770.214 1161.8 763.339 1131.14 757.201 1094.83 751.798 1083.54 778.316 1082.32 802.625 1091.15 824.724L1175.05 891.757 1181.66 895.44 1216.99 894.703 1219.94 891.757C1230.24 886.846 1237.85 878.497 1242.75 866.712M1185.35 960.999 1184.61 958.79 1196.39 958.79 1185.35 960.999M470.013 396.009 476.636 394.536 467.069 407.795 473.692 407.795 475.901 412.215 475.901 413.689 471.484 415.898 470.749 415.898 466.333 408.532 466.333 407.795 470.013 396.009M480.316 416.634 536.983 522.708 529.624 559.539 556.854 561.75 523.736 580.902 552.438 584.585 504.602 597.844 528.888 588.268 511.962 581.639 528.152 569.852 521.529 551.437 529.624 527.865 475.164 426.211 480.316 416.634M293.386 547.017 358.149 646.462 294.123 564.696 293.386 547.017M295.595 815.148 293.386 818.095 291.915 816.621C284.065 787.156 282.103 756.954 286.027 726.017L294.859 733.383 300.747 760.638 357.414 686.976 360.357 642.041 405.25 666.35 448.67 635.412 441.311 636.885 447.199 609.63 437.631 586.059 450.143 591.215 472.22 626.572 481.787 625.836 478.843 646.462 453.822 649.407 458.237 668.56 466.333 675.19 463.389 678.873 444.255 671.507 425.12 688.448 424.385 700.972 463.389 686.239 470.013 705.391C450.878 707.355 434.197 716.195 419.968 731.909L387.587 732.647 379.492 720.86 359.622 742.959 360.357 750.326 348.582 783.473 356.678 782.737 353.734 801.889 329.447 818.095 322.088 850.506 305.162 838.72 302.218 801.152 294.859 804.099 295.595 815.148M776.9 615.523 776.9 614.787C777.882 612.331 777.391 610.367 775.429 608.893L775.429 609.63C770.523 614.05 764.635 617.487 757.766 619.943L752.615 625.836 754.822 627.309 771.749 630.992C781.561 634.921 790.393 636.394 798.243 635.412L776.9 615.523M388.324 715.704 409.665 718.651 415.553 702.444 412.609 690.659 408.93 706.128 399.362 711.285 391.267 700.972 383.907 705.391 388.324 715.704" fill="#DDDDDD" fill-rule="evenodd" transform="matrix(1 0 0 1.00078 28.4532 46.6429)"/><path d="M1331.56 296.785 1310.94 281.321C1272.67 260.21 1232.42 245.973 1190.22 238.608L1160.77 235.663 1114.4 236.399 1018.71 253.337 992.944 259.227 920.065 315.932C882.768 303.168 840.81 300.713 794.189 308.568L780.203 310.04 764.745 315.195 743.398 309.304 628.563 341.706 605.008 347.598C534.832 352.016 469.073 375.335 407.73 417.557 390.554 429.339 376.567 444.805 365.771 463.951L358.41 466.16C320.623 504.945 285.78 546.429 253.882 590.614L242.84 606.815 237.687 627.435C234.252 636.272 235.97 646.336 242.84 657.628L231.798 665.728C219.53 689.785 212.905 714.823 211.923 740.843 205.544 713.35 208.243 687.085 220.021 662.046L228.854 652.474 228.854 639.218C228.854 629.399 230.817 620.562 234.743 612.707 265.169 554.285 304.183 501.999 351.785 455.85L357.674 449.959 379.021 426.394 402.577 406.511C455.577 369.199 514.466 345.634 579.245 335.814 603.781 332.379 627.583 326.732 650.647 318.878 681.074 307.094 712.481 298.748 744.869 293.839L767.689 298.258 780.203 294.576 921.538 299.73 947.301 278.375 987.056 246.709 990.732 244.499 1054.03 229.035 1160.77 220.198 1249.84 239.345C1282.73 247.69 1311.43 262.173 1335.97 282.793 1370.81 311.268 1396.57 345.634 1413.26 385.891 1421.11 404.547 1426.51 424.43 1429.46 445.541 1439.27 511.818 1435.1 578.586 1416.94 645.846 1409.58 673.338 1394.12 694.694 1370.57 709.913L1324.93 737.897 1299.9 815.958 1301.37 851.305 1300.63 856.46 1290.33 891.808 1277.82 928.629 1277.82 929.365 1275.61 932.311 1270.46 937.466 1269.72 937.466 1270.46 972.817 1270.46 973.554 1270.46 974.291 1270.46 975.019 1270.46 975.756 1270.46 977.23 1270.46 978.705C1257.21 1020.43 1240.77 1060.69 1221.13 1099.48L1220.4 1100.21 1202.73 1136.3 1201.99 1137.04 1201.99 1137.77 1196.11 1142.19 1188.01 1143.66 1186.54 1143.66 1184.33 1142.92 1185.07 1142.92 1183.59 1142.19C1186.54 1091.62 1189.24 1059.22 1191.69 1044.98L1189.48 1078.86 1186.54 1129.67C1224.32 1067.81 1246.17 1001.29 1252.06 930.102L1260.15 924.947 1308.73 728.324C1324.93 717.032 1341.37 706.231 1358.06 695.922 1371.79 687.575 1382.1 675.057 1388.97 658.364 1395.35 645.6 1400.01 632.344 1402.96 618.598L1408.11 589.878 1411.79 548.639 1411.79 547.902C1412.77 524.337 1411.3 500.772 1407.37 477.206L1384.56 360.116 1356.58 321.823 1342.59 307.094 1331.56 296.785M868.537 664.256 849.398 671.62C848.907 696.168 842.773 718.751 830.995 739.371 824.616 751.153 816.028 760.48 805.232 767.354L729.412 746.734C712.726 742.315 698.985 733.724 688.189 720.959L716.898 653.946 697.023 646.582 677.883 695.922 627.828 707.705 618.995 697.395 669.786 691.503 678.62 689.294 684.508 662.783 682.301 652.474 671.258 636.272 775.051 647.318 786.092 665.728 795.662 689.294 769.898 654.682 784.62 698.867 790.509 699.604 792.718 698.131 789.773 708.441 783.884 712.123 775.787 717.277 776.523 708.441C776.523 680.457 764.745 660.083 741.189 647.318L733.828 651C714.199 670.638 700.458 693.222 692.606 718.751L705.12 728.324C720.333 739.124 737.264 745.261 755.912 746.734L786.092 757.78 818.482 723.169 801.55 760.726 817.009 740.107C838.111 715.069 844.491 687.33 836.148 656.892L868.537 664.256M607.217 684.139 602.063 678.248 610.161 658.364 637.397 649.528 644.758 660.574 640.342 675.302 651.383 653.21 632.981 641.427 610.161 645.846 596.911 658.364 592.495 666.465 588.814 683.403 568.939 692.24 563.05 695.186C547.346 703.04 530.416 708.686 512.258 712.123L519.619 740.107 497.536 767.354 476.924 780.609 466.619 785.028C486.248 773.245 497.781 755.817 501.216 732.743 505.142 705.249 493.364 686.103 465.883 675.302L457.785 668.674 453.369 649.528 478.396 646.582 477.661 671.62 503.425 700.34 514.466 700.34C536.059 702.795 554.216 697.64 568.939 684.876L581.452 671.62 588.077 641.427 646.231 636.272 655.064 648.792 659.481 658.364 656.536 672.356 649.911 684.139 642.55 684.139C627.337 679.72 623.902 672.356 632.245 662.046L607.953 671.62 607.217 684.139M445.271 793.864 417.299 805.648 428.341 839.522 404.049 878.553 407.73 896.963C391.044 910.71 373.378 920.282 354.729 925.683L345.896 927.892C351.785 952.93 355.465 977.967 356.938 1003L361.355 1089.9C362.827 1126.72 346.142 1150.78 311.299 1162.07L289.215 1159.86C274.493 1152.99 262.715 1142.92 253.882 1129.67 245.048 1116.91 238.423 1103.16 234.007 1088.43L226.646 1056.77C224.682 1040.56 226.646 1024.6 232.534 1008.9L246.521 982.391 251.673 975.756C263.452 986.561 273.757 998.095 282.59 1010.37L296.577 1031.72 286.271 1050.13 274.493 1067.07 272.284 1061.18 271.549 1059.71 270.812 1053.82 270.077 1038.36 262.715 1032.46 251.673 1043.51C252.164 1059.22 256.09 1074.68 263.452 1089.9L278.174 1113.46 295.84 1114.2C311.054 1086.22 319.151 1055.29 320.132 1021.41L321.604 1004.48 322.34 1022.89 323.077 1025.84C330.438 1063.15 322.095 1095.79 298.049 1123.78L272.284 1121.57C251.673 1100.46 240.632 1074.68 239.159 1044.25L255.354 1015.53 275.965 1036.88 271.549 1059.71 284.799 1039.09C276.947 1016.02 264.188 997.115 246.521 982.391L239.896 998.589C228.118 1028.05 226.646 1057.75 235.479 1087.69 245.784 1122.55 268.604 1146.11 303.938 1158.39L312.034 1154.71C327.248 1146.37 338.29 1134.58 345.16 1119.36L347.369 1089.9C349.331 1061.92 348.84 1034.92 345.896 1008.9L334.854 932.311 334.854 931.574 331.91 917.582 347.369 917.582C366.997 914.637 383.683 906.045 397.424 891.808L395.952 891.808 355.465 905.063 369.452 895.491 374.604 891.808C392.271 877.571 406.503 860.633 417.299 840.995L411.41 827.004C402.577 807.856 390.063 792.637 373.869 781.346L356.202 782.819 348.104 783.555 359.883 750.417 382.702 776.927C401.841 793.619 422.698 799.265 445.271 793.864M303.202 924.947C283.572 919.546 269.586 908.5 261.243 891.808L213.396 746.734 247.993 787.237 247.257 801.966 253.882 803.438C252.409 835.84 260.261 865.297 277.437 891.808L287.007 904.327 294.368 911.691 304.674 924.21 303.202 924.947M951.718 810.802 936.26 804.911 948.038 820.376C967.667 817.43 978.462 805.648 980.431 785.028L978.957 759.99 969.385 731.269C962.515 715.069 951.473 705.74 936.26 703.286L928.163 684.876 913.44 674.566 930.37 678.248 939.204 698.131 946.565 698.131 951.718 702.549 964.968 703.286 964.232 712.859C975.523 728.079 982.633 745.261 985.582 764.408 990.975 801.72 976.503 823.813 942.149 830.686L924.481 805.648C917.611 794.356 915.403 782.082 917.856 768.827 890.866 795.338 890.375 822.094 916.385 849.096L931.106 850.569C979.694 847.623 1008.15 823.075 1016.5 776.927L1034.16 764.408 1040.06 773.982 1065.82 955.14 1074.65 1052.35C1077.1 1101.93 1055.51 1129.67 1009.87 1135.56 975.028 1139.49 949.51 1132.37 933.315 1114.2L920.065 1094.33C923.01 1080.09 928.163 1067.07 935.524 1055.29L944.356 1041.3 970.857 1026.57 999.569 1056.03 1002.51 1077.38 989.258 1064.87 959.079 1069.28 968.649 1080.33 997.357 1102.43 1017.97 1106.84 1003.25 1019.95 989.258 1021.41 987.056 1011.84 976.008 1015.53C952.945 1024.36 934.297 1038.6 920.065 1058.23 907.306 1075.91 904.852 1094.57 912.704 1114.2 916.139 1123.04 921.292 1132.13 928.163 1141.45 940.922 1158.64 957.853 1169.43 978.957 1173.86 1057.96 1166.49 1103.6 1121.08 1115.87 1037.62L1115.87 989.753 1115.13 969.132 1130.59 944.094 1162.24 952.93 1137.96 952.93 1125.44 972.817 1116.61 1063.39C1114.15 1078.61 1109 1093.34 1101.15 1107.58 1074.16 1154.21 1033.92 1178.52 980.431 1180.48 948.038 1174.1 924.727 1155.45 910.496 1124.51L906.815 1114.2C902.399 1090.64 907.306 1069.28 921.538 1050.13 936.751 1030.5 956.38 1017 980.431 1009.64L992.207 1003.74 999.569 1011.11 1011.34 1014.05C1018.71 1043.01 1022.88 1073.45 1023.86 1105.37L1026.07 1115.68 1017.23 1115.68 997.357 1107.58C979.694 1098.25 965.459 1085.73 954.663 1070.02L959.815 1066.34 985.582 1050.87 973.069 1037.62C946.565 1042.03 933.315 1059.71 933.315 1090.64L952.454 1114.2C969.14 1127.46 989.016 1131.87 1012.08 1127.46L1034.16 1120.84 1037.11 1120.1 1042.26 1118.62 1044.47 1117.15C1055.27 1110.77 1061.65 1100.71 1063.61 1086.95 1070.47 1042.28 1069.74 998.095 1061.4 954.404L1038.58 792.392C1037.6 786.992 1033.67 785.273 1026.81 787.237L1019.44 806.384C1009.13 829.458 992.207 844.677 968.649 852.042L916.385 854.987 914.913 853.515C890.375 829.458 887.676 803.438 906.815 775.455L921.538 756.307 946.565 753.362C954.908 757.29 961.533 763.181 966.44 771.036 972.332 779.382 974.049 787.728 971.595 796.074L970.857 796.074 970.857 796.81 963.496 808.594 953.926 810.066 970.12 796.074 957.607 768.09 932.579 756.307C927.672 759.253 923.255 762.69 919.329 766.617L937.732 767.354 941.413 774.718 927.426 775.455 934.051 800.492 934.051 793.864 951.718 810.802M1184.33 958.822 1185.07 961.03 1191.69 981.653 1179.18 956.612C1178.69 953.666 1180.4 954.158 1184.33 958.086L1184.33 958.822M1197.58 1022.15 1192.43 1050.13 1191.69 1044.98C1195.13 1025.84 1195.86 1008.9 1193.9 994.166L1197.58 1022.15M942.885 778.4 946.565 785.764 934.051 793.128 936.996 782.819C938.468 779.873 940.431 778.4 942.885 778.4M295.104 815.221 294.368 804.174 301.729 801.228 304.674 838.786 321.604 850.569 328.965 818.166 353.258 801.966 365.035 795.338C394.48 809.084 399.878 830.195 381.229 858.669 367.979 867.997 353.258 870.206 337.063 865.297L342.952 877.079 309.827 868.243 295.104 815.221M387.118 732.743 419.508 732.007C433.739 716.296 450.424 707.459 469.564 705.495L477.661 704.759 487.966 707.705C497.781 740.598 486.003 761.463 452.633 770.299 442.818 774.227 432.267 772.755 420.98 765.881L431.285 776.927 417.299 779.137 390.799 758.517 384.91 732.743 387.118 732.743M462.939 686.348 423.924 701.077 424.66 688.558 443.799 671.62 462.939 678.984 462.939 686.348M574.827 651 559.37 669.411 560.105 660.574 560.105 639.954 574.827 651M550.536 664.992 544.647 673.829 528.452 664.992 530.661 656.156 546.119 650.264 550.536 664.992M506.369 673.829 496.064 676.038 507.841 639.954 510.05 641.427 518.147 642.164 506.369 673.829M443.064 690.767 457.05 682.666 448.216 678.248C438.892 681.193 434.475 686.348 434.966 693.713L443.064 690.767M524.036 676.038 518.147 674.566 517.411 674.566 518.883 664.992 524.772 676.038 524.036 676.038M552.745 685.612 545.382 689.294 568.939 664.992 571.147 664.256 568.939 670.147C565.504 676.529 560.105 681.685 552.745 685.612M738.244 723.905 739.717 726.115 730.148 729.061 718.37 730.533 713.953 721.697C707.083 708.932 707.328 694.449 714.689 678.248L736.773 659.101C759.346 665.483 768.916 678.984 765.481 699.604L758.856 720.223 738.244 715.805 730.883 710.649 714.689 678.248 712.481 696.658 726.467 711.387 722.787 726.115 729.412 728.324 738.244 723.905M727.203 685.612 736.773 701.813C742.662 709.177 749.778 711.632 758.12 709.177 763.518 696.413 762.046 685.12 753.703 675.302 748.796 669.411 743.643 667.693 738.244 670.147L726.467 681.93 727.203 685.612M736.773 738.633 728.676 734.215 752.232 736.425 736.773 738.633M478.396 712.123 422.452 738.633 406.258 739.371 400.369 749.68 412.883 762.199 422.452 757.78 440.119 764.408C464.656 764.9 479.869 754.098 485.758 732.007L487.23 726.851 478.396 712.123M387.855 715.805 383.438 705.495 390.799 701.077 398.896 711.387 408.466 706.231 412.146 690.767 415.091 702.549 409.202 718.751 387.855 715.805M377.549 813.748 367.979 804.174 339.271 821.112 323.813 860.879 333.382 867.507 340.007 857.197C353.258 863.579 366.017 862.351 378.285 853.515 387.61 838.295 387.364 825.04 377.549 813.748M322.34 857.197 323.813 860.879C322.831 852.533 322.34 851.305 322.34 857.197" fill="#888888" fill-rule="evenodd" transform="matrix(1 0 0 1.00078 28.4532 46.6429)"/><path d="M1412.32 548.649 1408.63 589.846 1338.69 670.766 1389.49 658.26C1382.63 674.935 1372.31 687.441 1358.57 695.779 1341.89 706.077 1325.44 716.867 1309.26 728.146L1260.67 924.564 1252.57 929.714C1246.68 1000.83 1224.84 1067.28 1187.05 1129.07L1190 1078.31C1212.57 1055.75 1224.1 1029.03 1224.6 998.124L1223.12 988.569 1198.1 1021.67 1194.41 993.71 1192.21 983.419 1192.21 981.207 1185.58 960.61 1196.62 958.404 1184.85 958.404 1184.85 957.668C1180.92 953.744 1179.2 953.254 1179.69 956.196L1162.76 952.518 1131.1 943.69 1115.65 968.703 1116.38 989.297C1097.73 979.985 1089.63 963.063 1092.09 938.541L1089.87 901.759 1084.72 898.08C1065.59 850.509 1053.81 799.749 1049.39 745.802L1033.94 747.273 990.5 684.743C983.632 685.234 977.492 683.517 972.099 679.593L970.625 678.858 966.942 681.8 941.177 662.674C967.187 654.337 990.257 650.659 1010.37 651.639L1008.16 664.145 1009.64 684.743C1027.8 727.411 1062.39 745.066 1113.44 737.71L1074.42 746.538C1060.68 799.504 1069.76 847.321 1101.66 889.989 1132.57 928.242 1172.08 946.388 1220.17 944.426L1251.1 923.092C1268.27 881.405 1273.42 838.739 1266.56 795.09L1231.96 764.193C1277.11 758.308 1295.75 731.089 1287.91 682.536L1282.01 642.076 1208.4 547.178 1179.69 550.856 1189.26 535.407 1184.11 500.832C1231.22 543.5 1270.23 594.504 1301.16 653.846 1353.18 647.961 1388.02 620.006 1405.68 569.982L1412.32 548.649M1071.47 409.612 1078.84 407.405 1091.35 421.383 1091.35 422.118 1090.61 424.325 1089.87 425.796 1070 434.624 1068.53 433.152 1067.8 432.417 1070.74 413.29 1071.47 409.612M868.298 649.433 855.047 650.168C850.63 652.62 846.95 651.885 844.005 647.961 830.263 646 818.73 641.586 809.405 634.719L816.031 629.569 816.768 628.099 816.768 626.627 826.338 617.8 829.282 623.684 829.282 624.42 865.353 623.684C867.807 628.099 867.562 632.758 864.617 637.662L863.881 641.34 863.881 642.812 868.298 649.433M777.016 615.593 798.363 635.455C790.511 636.436 781.677 634.964 771.862 631.041L754.931 627.363 752.722 625.891 757.876 620.006C764.746 617.554 770.635 614.121 775.543 609.707L775.543 608.972C777.506 610.443 777.996 612.404 777.016 614.857L777.016 615.593" fill="#AAAAAA" fill-rule="evenodd" transform="matrix(1 0 0 1.00078 28.4532 46.6429)"/><path d="M1149.07 319.727 1199.85 269.723 1179.99 307.961 1221.19 277.811 1231.49 285.165 1179.25 366.056 1245.47 323.404 1160.85 415.326 1205 358.702 1157.91 388.852 1156.43 374.145 1140.98 388.117 1179.99 325.61 1136.57 367.527 1143.19 348.407 1107.87 395.471 1126.27 339.583 1093.15 382.969 1079.9 341.053 1070.34 351.349 1086.53 289.577 1089.48 315.316 1132.88 242.514 1110.82 313.844 1146.13 258.691 1116.7 335.17 1167.47 274.134 1149.07 319.727M1068.14 332.229 1053.41 348.407 1051.21 261.633 1064.45 259.427 1079.18 274.869 1068.14 332.229M1232.23 391.059 1243.27 394.736 1168.21 416.061 1244.73 363.115 1232.23 391.059M409.548 472.686 415.434 459.449 444.868 531.516 438.981 541.075 409.548 472.686M527.284 399.884 558.189 382.234 539.057 416.796 547.152 461.654 542.736 469.009 572.906 535.928 517.718 442.535 527.284 399.884M679.604 371.94 679.604 544.752C674.699 522.691 671.755 500.629 670.774 478.568 668.812 441.309 668.812 404.05 670.774 366.792L687.699 357.232 679.604 371.94M352.151 604.318 327.868 538.869 338.17 542.546 362.453 596.963 352.151 604.318" fill="#FFFFFF" fill-rule="evenodd" transform="matrix(1 0 0 1.00078 28.4532 46.6429)"/></g></g></g></g></g></svg>
