<svg width="1761" height="1761" xmlns="http://www.w3.org/2000/svg" xmlns:xlink="http://www.w3.org/1999/xlink" overflow="hidden"><defs><clipPath id="clip0"><rect x="0" y="0" width="1761" height="1761"/></clipPath></defs><g clip-path="url(#clip0)"><path d="M793.285 831.761 792.515 832.531 792.796 832.005ZM326.127 396.749 325.357 398.29 326.896 397.519ZM650.906 183.478 650.958 183.574 650.906 184.248ZM667.837 165 771.736 184.248 777.893 185.018 777.123 185.018 780.201 185.788 784.05 186.558 924.12 230.444 912.576 209.656C911.036 205.55 910.78 201.7 911.806 198.107 912.832 194.001 915.141 190.921 918.733 188.868L929.507 186.558 958.753 194.257 961.062 194.257C981.585 201.443 1005.19 215.046 1031.87 235.064L1025.71 220.435C1024.68 217.356 1024.43 214.276 1024.94 211.196L1025.71 211.196 1029.56 203.497 1030.33 203.497 1038.02 198.877 1047.26 200.417 1046.49 200.417C1084.46 217.869 1108.06 235.064 1117.29 252.003L1131.92 277.41 1205.03 235.064 1214.27 232.754 1223.5 236.604 1228.12 245.073 1228.12 245.843 1226.58 255.082 1211.19 287.419 1284.3 304.358C1306.88 312.57 1323.04 322.836 1332.79 335.155L1333.56 336.695 1333.56 337.465 1337.4 342.854 1339.71 354.403 1333.56 363.643C1330.48 366.209 1326.89 367.235 1322.78 366.722L1281.99 362.103C1355.36 430.37 1400.26 515.319 1416.68 616.95 1424.88 666.739 1423.6 716.015 1412.83 764.777L1412.83 765.547 1406.67 774.016 1407.44 774.016 1406.67 774.786C1410.78 873.337 1393.84 969.579 1355.88 1063.51L1349.72 1071.98 1348.95 1071.98 1338.17 1073.52 1332.02 1070.44C1303.29 1182.85 1256.08 1289.1 1190.41 1389.19 1170.4 1419.48 1146.8 1448.22 1119.6 1475.42L1111.91 1480.04 1111.14 1480.04 1104.98 1480.04 1095.74 1504.68 1095.74 1505.45 1088.05 1513.15 1077.27 1513.92 1068.81 1508.53 1068.04 1507.76 1066.5 1505.45 1064.19 1509.3 1057.26 1515.46 1048.03 1517 1047.26 1517 1039.56 1512.38 1034.94 1504.68 1034.94 1503.91 1025.71 1436.93 1020.32 1435.39 1016.47 1433.85 1012.63 1430 1011.09 1428.46 1012.63 1428.46 1019.55 1420.76 1019.55 1415.37 1020.32 1414.6 1032.64 1406.9 1032.64 1406.13 1040.33 1399.97C1109.08 1348.13 1162.45 1283.97 1200.41 1207.49L1200.41 1206.72 1208.11 1191.32 1208.88 1190.55 1218.11 1166.68C1229.4 1134.86 1237.87 1101.49 1243.51 1066.59 1247.62 1038.36 1249.16 1011.41 1248.13 985.747L1246.59 981.128 1242.74 978.818 1238.12 978.818 1234.28 981.128 1211.19 1010.39 1201.95 1011.15 1198.87 1012.69 1196.56 1015 1174.25 1055.04 1175.02 1054.27 1163.47 1071.21 1163.47 1071.98 1151.16 1090.46C1126.02 1124.85 1094.21 1151.8 1055.72 1171.3L1051.11 1169.76 1050.34 1160.52 1067.27 1105.09 1067.27 1101.24 1064.96 1097.39 1061.88 1095.85 1054.96 1094.31 1052.65 1091.23 1078.81 941.861 1077.27 936.472 1072.66 932.622 1066.5 934.162 1063.42 938.782C1061.88 945.454 1057.78 950.33 1051.11 953.41L1048.03 951.87C1031.61 907.214 1022.12 861.275 1019.55 814.052L1018.01 809.433 1014.17 807.123 1008.78 807.123 1005.7 810.203 994.155 830.221 987.229 830.221 986.459 829.451C980.815 819.185 979.019 807.637 981.072 794.804L980.302 789.415C978.763 787.362 977.224 786.335 975.684 786.335L970.297 786.335 966.449 790.954 948.748 837.151 942.591 835.611 937.973 739.369 936.434 734.749 931.816 731.67 927.198 732.44 923.35 736.289 881.021 835.611 873.325 834.071 877.173 706.262 875.634 700.873 871.786 698.563 866.398 698.563 862.551 701.642 792.796 832.005 787.128 834.841 784.05 834.071 776.353 834.841 776.353 840.23 774.044 837.151 772.505 835.611 770.196 827.911 770.196 826.371 766.348 835.611C746.851 882.833 721.967 926.976 691.696 968.039L689.387 971.119 670.146 995.757 670.146 996.526 661.68 1001.15 652.445 1001.15 644.749 994.986 642.44 985.747 643.979 967.269 640.901 973.429 634.744 980.358 630.896 981.898 629.356 999.606 625.508 1008.08 617.812 1013.46 617.042 1013.46 607.807 1011.93 600.88 1005.77 583.179 975.738 565.478 944.941 547.777 908.754 538.542 924.153 539.311 924.153 530.076 931.082 518.531 930.312 510.835 921.843 510.835 921.073 465.428 786.335 465.428 769.396 457.731 754.768 453.114 757.077 450.805 760.927 446.957 776.326 438.491 779.405 433.873 774.016 426.947 750.148 423.869 746.298 419.251 744.759 414.633 746.298 412.324 750.148 406.167 770.167 396.932 769.396 396.162 768.626 385.388 727.05 383.079 723.201 378.461 720.891 373.843 722.431 370.765 725.511 352.294 766.317 344.598 763.237 345.367 811.743 347.676 811.743C349.215 859.479 358.451 906.701 375.382 953.41L375.382 964.189 369.225 971.889 368.456 972.658 366.147 973.429 369.995 993.447 369.995 994.216 368.456 1003.46 368.456 1002.69 362.299 1009.62 363.069 1009.62 353.063 1011.93 344.598 1008.08 343.828 1008.08C296.112 963.933 262.505 913.887 243.008 857.939L242.239 863.328 237.621 872.567C235.056 875.134 231.977 876.674 228.385 877.187L218.38 874.107 212.223 866.408C163.994 701.129 194.266 553.046 303.038 422.157L260.709 439.096 250.704 439.096C246.6 438.069 243.778 435.759 242.239 432.166L241.469 431.396 240.699 420.618 246.856 412.148 256.092 405.989 258.401 403.679C316.891 364.156 378.461 331.049 443.109 304.358L410.015 306.668 400.78 304.358C397.701 302.305 395.649 299.482 394.623 295.889L394.623 285.879 395.393 285.879 401.55 278.18C452.857 247.896 505.961 227.621 560.86 217.356L677.842 210.426 655.523 191.948 650.958 183.574 651.675 174.239 657.832 167.31Z" fill="#FFFFFF" fill-rule="evenodd"/><path d="M1222.52 236.566 1227.13 245.029 1227.13 245.799 1225.59 255.031 1210.2 287.344 1283.32 304.27C1305.89 312.477 1322.05 322.735 1331.8 335.045L1332.57 336.583 1332.57 337.353 1336.42 342.738 1338.73 354.279 1332.57 363.511C1329.49 366.076 1325.9 367.101 1321.8 366.589L1281.01 361.972C1354.38 430.189 1399.27 515.075 1415.69 616.631 1423.9 666.383 1422.62 715.623 1411.84 764.349L1411.84 765.118 1405.68 773.581 1406.45 773.581 1405.68 774.351C1409.79 872.829 1392.86 968.999 1354.89 1062.86L1348.73 1071.32 1347.96 1071.32 1337.19 1072.86 1331.03 1069.79C1302.3 1182.11 1255.1 1288.28 1189.42 1388.3 1169.41 1418.56 1145.81 1447.29 1118.62 1474.47L1110.92 1479.09 1110.15 1479.09 1103.99 1479.09 1094.76 1503.71 1094.76 1504.48 1087.06 1512.17 1076.29 1512.94 1067.82 1507.55 1067.05 1506.78 1065.51 1504.48 1063.2 1508.32 1056.28 1514.48 1047.04 1516.02 1046.27 1516.02 1038.58 1511.4 1033.96 1503.71 1033.96 1502.94 1024.72 1436 1019.34 1434.46 1015.49 1432.92 1011.64 1429.08 1010.1 1427.54 1010.1 1428.31 1010.1 1427.54 1011.64 1427.54 1018.57 1419.85 1018.57 1414.46 1019.34 1413.69 1031.65 1406 1031.65 1405.23 1039.35 1399.07C1108.1 1347.27 1161.46 1283.16 1199.43 1206.73L1199.43 1205.96 1207.12 1190.58 1207.89 1189.81 1217.13 1165.96C1228.42 1134.16 1236.88 1100.82 1242.53 1065.94 1246.63 1037.73 1248.17 1010.8 1247.14 985.156L1245.6 980.54 1241.76 978.232 1237.14 978.232 1233.29 980.54 1210.2 1009.78 1200.97 1010.54 1197.89 1012.08 1195.58 1014.39 1173.26 1054.4 1174.03 1053.63 1162.49 1070.56 1162.49 1071.32 1150.17 1089.79C1125.03 1124.15 1093.22 1151.08 1054.74 1170.57L1050.12 1169.03 1049.35 1159.8 1066.28 1104.41 1066.28 1100.56 1063.97 1096.71 1060.9 1095.17 1053.97 1093.64 1051.66 1090.56 1077.83 941.302 1076.29 935.917 1071.67 932.07 1065.51 933.609 1062.44 938.225C1060.9 944.893 1056.79 949.765 1050.12 952.843L1047.04 951.304C1030.62 906.681 1021.13 860.776 1018.57 813.588L1017.03 808.972 1013.18 806.664 1007.79 806.664 1004.71 809.741 993.169 829.745 986.243 829.745 985.473 828.975C979.83 818.717 978.034 807.177 980.086 794.354L979.316 788.969C977.777 786.917 976.238 785.891 974.699 785.891L969.311 785.891 965.463 790.507 947.762 836.669 941.605 835.13 936.988 738.96 935.448 734.344 930.831 731.266 926.213 732.036 922.365 735.883 880.036 835.13 872.34 833.592 876.188 705.878 874.648 700.492 870.8 698.184 865.413 698.184 861.565 701.261 791.53 832.053 792.299 831.283C790.76 833.335 788.708 834.361 786.142 834.361L783.064 833.592 775.368 834.361 775.368 839.747 773.059 836.669 771.52 835.13 769.211 827.437 769.211 825.898 765.363 835.13C745.866 882.318 720.982 926.428 690.71 967.461L688.401 970.538 669.161 995.158 669.161 995.927 660.695 1000.54 661.464 1000.54 651.459 1000.54 643.763 994.388 641.454 985.156 642.994 966.691 639.915 972.846 633.758 979.771 629.91 981.309 628.371 999.005 624.523 1007.47 616.826 1012.85 616.057 1012.85 606.821 1011.31 599.895 1005.16 582.194 975.154 564.492 944.38 546.791 908.22 537.556 923.607 538.326 923.607 529.09 930.531 517.546 929.762 509.85 921.299 509.85 920.529 464.442 785.891 464.442 768.965 456.746 754.347 452.128 756.655 449.819 760.502 445.971 775.89 437.505 778.967 432.888 773.581 425.961 749.731 422.883 745.884 418.265 744.346 413.647 745.884 411.339 749.731 405.182 769.735 395.946 768.965 395.177 768.196 384.402 726.65 382.093 722.803 377.475 720.495 372.858 722.034 369.779 725.112 351.308 765.888 343.612 762.81 344.382 811.28 346.691 811.28C348.23 858.981 357.465 906.168 374.397 952.843L374.397 963.614 368.24 971.307 367.47 972.077 365.162 972.846 369.01 992.85 369.01 993.619 367.47 1002.85 367.47 1002.08 361.313 1009.01 362.083 1009.01 352.078 1011.31 343.612 1007.47 342.842 1007.47C295.126 963.357 261.52 913.349 242.023 857.442L241.253 862.827 236.635 872.06C234.07 874.624 230.991 876.163 227.4 876.676L217.395 873.598 211.238 865.905C163.009 700.748 193.28 552.774 302.053 421.983L259.724 438.909C256.132 440.447 252.541 440.447 248.949 438.909L249.719 438.909C245.614 437.883 242.792 435.575 241.253 431.984L240.483 431.215 239.714 420.444 245.871 411.981 255.106 405.826 257.415 403.518C315.906 364.024 377.475 330.941 442.123 304.27L409.03 306.578 399.794 304.27C396.716 302.219 394.663 299.398 393.637 295.807L393.637 296.577 393.637 285.805 394.407 285.805 400.564 278.112C451.872 247.85 504.975 227.591 559.875 217.332L676.857 210.408 654.538 191.943 649.92 183.48 649.92 184.25 650.69 174.248 656.847 167.324 666.852 165.016 770.75 184.25 776.907 185.019 776.137 185.019 779.216 185.788 783.064 186.558 923.134 230.411 911.59 209.639C910.051 205.535 909.794 201.689 910.821 198.098 911.847 193.995 914.155 190.918 917.747 188.866L928.522 186.558 957.767 194.251 960.076 194.251C980.599 201.432 1004.2 215.024 1030.88 235.027L1024.72 220.41C1023.7 217.332 1023.44 214.255 1023.95 211.177L1024.72 211.177 1028.57 203.484 1029.34 203.484 1037.04 198.868 1046.27 200.406 1045.5 200.406C1083.47 217.845 1107.07 235.027 1116.31 251.954L1130.93 277.343 1204.05 235.027 1213.28 232.72 1222.52 236.566M325.911 397.363 325.141 396.594 324.372 398.133 325.911 397.363" fill="#888888" fill-rule="evenodd"/><path d="M219.083 844.432C215.322 843.563 205.774 785.943 205.195 748.881 204.617 711.819 204.616 664.912 215.611 622.059 226.605 579.206 249.172 530.272 271.161 491.762 293.149 453.253 331.629 410.689 347.542 391 363.454 371.31 365.045 372.468 366.637 373.627L276.369 411.847C320.346 390.42 354.196 371.6 387.468 356.254 420.74 340.908 446.779 332.511 476.001 319.771 505.222 307.031 534.01 293.422 562.797 279.813L449.962 285.025C458.063 280.392 460.956 276.049 474.265 271.127 487.573 266.205 506.958 260.703 529.815 255.491 552.671 250.279 586.811 243.909 611.403 239.856 635.996 235.802 656.827 232.617 677.369 231.169 697.91 229.722 716.282 230.445 734.654 231.169L682.576 187.737C682.576 187.158 678.815 186.289 682.576 186L771.109 201.635 955.118 258.966 929.079 215.534C936.601 216.113 936.312 209.453 951.646 217.271 966.98 225.089 1000.83 250.858 1021.08 262.44 1041.34 274.022 1073.16 286.762 1073.16 286.762 1076.05 279.524 1057.25 249.266 1038.44 219.008 1050.02 228.853 1063.03 236.671 1073.16 248.542 1083.29 260.413 1099.2 290.237 1099.2 290.237L1107.88 304.135 1168.64 276.339 1206.83 248.542 1175.58 309.347 1307.51 335.407 1323.14 352.779 1224.19 338.881C1224.77 342.355 1223.03 341.487 1225.92 349.305 1228.82 357.123 1232.87 374.495 1241.55 385.788 1250.23 397.08 1265.56 407.214 1278 417.059 1290.44 426.904 1303.46 423.719 1316.19 444.856 1328.92 465.992 1348.02 511.162 1354.38 543.881 1360.75 576.6 1354.38 641.169 1354.38 641.169 1354.38 677.652 1353.8 728.323 1354.38 762.779 1354.96 797.235 1361.62 829.954 1357.85 847.906 1354.09 865.858 1338.18 858.909 1331.82 870.491 1325.45 882.073 1326.03 895.971 1319.66 917.397 1313.3 938.824 1302.3 961.988 1293.62 999.05 1284.95 1036.11 1276.27 1098.94 1267.59 1139.77 1258.91 1180.6 1249.07 1220.55 1241.55 1244.01 1234.02 1267.46 1231.71 1272.96 1222.45 1280.49 1213.19 1288.02 1192.65 1291.78 1186 1289.18 1179.34 1286.57 1179.05 1278.75 1182.53 1264.85 1186 1250.96 1194.68 1235.9 1206.83 1205.79 1218.98 1175.67 1244.73 1131.08 1255.43 1084.18 1266.14 1037.27 1272.79 955.039 1271.06 924.347 1269.32 893.655 1256.01 903.21 1245.02 900.025 1234.02 896.84 1214.35 896.55 1205.09 905.237 1195.83 913.923 1196.99 936.508 1189.47 952.143 1181.95 967.779 1170.66 980.229 1159.96 999.05 1149.25 1017.87 1136.52 1045.09 1125.24 1065.07 1113.96 1085.05 1101.23 1108.5 1092.26 1118.92 1083.29 1129.35 1077.36 1128.48 1071.43 1127.61 1073.16 1118.92 1071.71 1114.87 1076.63 1101.55 1076.63 1101.55 1096.02 1068.83 1100.94 1047.69 1105.85 1026.56 1107.59 995.576 1106.14 974.728 1104.7 953.88 1093.12 942.298 1092.26 922.609 1091.39 902.92 1100.65 873.386 1100.94 856.592 1101.23 839.799 1096.6 827.638 1093.99 821.847 1091.39 816.056 1089.07 816.345 1085.31 821.847 1081.55 827.348 1076.63 843.853 1071.43 854.855 1066.22 865.858 1060.14 876.861 1054.07 887.864 1049.44 869.912 1041.34 848.485 1040.18 834.008L1017.61 736.72C1015.88 734.403 1019.35 740.484 1012.4 729.771 1005.46 719.057 988.39 696.473 975.949 672.44 963.509 648.407 957.143 598.606 937.759 585.576 918.374 572.546 879.605 579.495 859.642 594.262 839.679 609.029 829.841 651.593 817.979 674.177 806.117 696.762 804.092 705.738 788.469 729.771 772.845 753.803 741.887 786.232 724.239 818.372 706.59 850.512 694.583 886.561 682.576 922.609L677.369 946.931 670.425 960.83C669.268 957.355 667.532 964.594 666.953 950.406 666.375 936.218 666.953 875.703 666.953 875.703 666.953 858.619 668.689 849.643 666.953 847.906 660.588 860.646 654.223 872.807 647.858 886.126 641.493 899.446 633.971 918.556 628.763 927.821 623.555 937.087 622.397 947.8 616.611 941.719 610.825 935.639 602.434 913.489 594.044 891.338L585.364 917.397C581.893 906.974 579.289 896.55 574.949 886.126 570.609 875.703 564.967 865.279 559.325 854.855 553.539 859.488 545.727 863.831 541.966 868.754 540.23 873.965 539.651 891.338 536.758 884.389 532.708 862.962 529.815 851.959 524.607 820.109 519.399 788.259 515.927 719.636 505.512 693.288 495.096 666.939 481.208 669.545 462.113 662.017 443.018 654.488 408.299 647.539 390.94 648.118 373.581 648.697 367.794 660.569 357.957 665.491 346.384 670.124 332.497 667.807 323.238 679.389 316.295 699.078 305.879 715.872 302.407 738.457 302.407 767.412 300.382 801.578 302.407 825.321 306.458 844.432 311.376 867.016 314.559 882.652 317.452 897.129 320.056 914.792 323.238 926.084L337.126 964.304C335.969 965.463 338.573 971.832 333.654 967.779 322.66 952.722 310.219 946.062 300.671 922.609 292.57 890.759 283.023 856.013 276.368 827.059 270.003 799.841 263.059 761.042 257.273 745.406 249.751 741.353 239.624 732.666 234.706 733.245L227.762 754.093C225.448 771.465 222.844 845.3 219.083 844.432Z" fill="#FFFFFF" fill-rule="evenodd"/><path d="M1201.8 252.378 1208.72 247.76 1184.11 299.337 1176.42 316.273 1316.39 344.756 1320.23 350.914 1228.71 340.137C1270.24 372.469 1304.85 411.217 1332.54 456.379L1361.76 513.345C1376.12 547.217 1385.86 582.115 1390.98 618.04 1398.16 665.255 1398.93 712.984 1393.29 761.225L1377.91 687.323 1380.22 727.353 1382.53 825.889C1381.5 906.463 1366.38 983.701 1337.15 1057.6L1334.08 952.139C1328.95 996.788 1321 1040.41 1310.23 1083.01L1305.62 1099.94 1298.7 1122.27 1297.93 1126.12 1277.17 1185.39 1261.01 1223.88 1259.48 1228.5C1239.48 1272.12 1216.15 1314.21 1189.49 1354.75L1164.11 1390.93 1104.9 1464.06 1114.89 1400.17 1077.21 1498.71 1061.06 1474.07 1046.45 1501.02 1035.68 1424.03 1020.3 1420.19 1067.21 1380.16C1102.08 1347.31 1134.38 1312.16 1164.11 1274.69L1177.96 1256.98 1201.03 1230.81 1201.03 1270.07 1217.95 1228.5 1234.87 1185.39 1240.25 1169.23 1254.86 1126.12 1262.55 1099.94 1267.17 1083.01 1287.16 991.4C1296.39 937.513 1301.77 882.855 1303.31 827.429L1303.31 808.953 1303.31 788.938 1302.54 754.297 1328.69 796.636C1335.36 760.199 1339.46 723.761 1341 687.323 1343.05 627.277 1335.36 567.745 1317.92 508.726L1310.23 485.632 1301.77 462.537 1291.01 434.824C1297.67 485.632 1297.42 536.183 1290.24 586.477L1286.39 610.342 1281.78 635.746 1274.86 670.387 1277.17 664.229 1233.33 865.92 1268.71 774.312 1244.1 923.656 1237.94 917.497C1233.33 948.29 1221.79 976.773 1203.34 1002.95L1200.26 975.233C1185.9 1015.78 1165.4 1051.7 1138.73 1083.01L1127.2 1096.09 1124.12 1099.94 1052.6 1163.07 1068.75 1122.27 1084.13 1099.94 1094.9 1083.01C1117.97 1046.57 1137.71 1008.85 1154.12 969.845 1177.19 914.418 1192.06 855.399 1198.72 792.787L1206.41 701.949 1105.67 1039.9 1084.13 1049.91 1065.67 1079.16 1054.91 1086.86 1055.68 1083.01C1070.55 1022.45 1080.8 961.12 1086.44 899.022L1089.52 828.969 1047.22 945.211 1021.07 760.455 1083.36 641.904C1076.19 674.236 1070.29 707.081 1065.67 740.44 1060.04 783.037 1055.93 825.633 1053.37 868.229L1061.83 851.293C1086.95 808.697 1104.13 764.048 1113.36 717.346 1125.15 660.379 1131.56 603.413 1132.58 546.447L1108.74 574.93 1114.13 569.542 1095.67 606.492C1118.74 542.342 1126.69 476.394 1119.51 408.65L1123.35 415.579 1124.12 394.024 1049.52 471.775 1081.06 354.763 1050.29 351.684C980.053 346.039 914.94 363.744 854.954 404.801 814.45 431.488 772.408 457.662 728.829 483.322L749.593 460.228 748.824 449.451 831.113 387.866C871.104 361.179 914.171 337.058 960.314 315.503 909.556 324.741 860.594 339.88 813.425 360.922 766.769 382.99 722.676 409.42 681.147 440.213L694.99 416.349 678.84 422.507 746.517 353.224C699.348 358.356 653.461 369.133 608.856 385.556 557.073 406.084 508.623 433.284 463.504 467.156L480.424 451.76C521.44 417.375 565.789 388.379 613.47 364.771 667.304 339.111 720.882 312.167 774.203 283.941L763.436 287.79 760.36 280.092 617.316 291.639C556.817 300.876 499.137 316.016 444.278 337.058 388.906 358.612 335.072 383.503 282.777 411.73L252.014 424.047 290.467 403.262C341.225 375.549 392.239 350.658 443.509 328.59 479.911 314.22 515.8 298.567 551.177 281.631L481.193 286.25 540.41 269.314 704.988 228.514 721.907 230.823 661.921 180.016 698.066 185.404C735.494 204.906 774.459 221.073 814.963 233.903L834.189 236.982 770.358 200.031 952.624 256.227 938.781 230.823 1065.67 285.48 1036.45 213.888 1107.97 311.654 1130.28 302.416C1157.96 292.665 1181.8 275.986 1201.8 252.378M778.048 738.9C769.332 783.037 754.208 824.35 732.674 862.84 714.217 897.225 694.478 929.814 673.457 960.607L673.457 961.377 673.457 955.988C681.147 818.961 691.914 724.787 705.757 673.466 719.087 621.632 736.519 578.779 758.053 544.907 779.073 510.522 797.275 485.119 812.656 468.696L762.667 602.643 783.432 571.851C772.665 604.696 770.87 660.379 778.048 738.9M602.703 984.471 592.706 967.535 589.63 909.029C591.168 934.177 595.526 959.324 602.703 984.471M581.939 948.29 550.408 885.165 547.332 858.991 547.332 878.237 546.562 876.697 538.872 887.475 538.103 853.603C534.514 742.236 559.637 637.542 613.47 539.519L612.701 527.202 684.224 420.967 615.008 539.519 618.854 534.9 609.625 564.922 621.93 543.368C603.473 598.794 588.861 662.432 578.094 734.282 567.327 805.617 568.609 876.954 581.939 948.29M345.07 675.776C329.176 735.821 326.613 796.38 337.38 857.452L357.375 958.297 338.918 936.742 347.377 975.233C307.899 912.109 285.597 843.595 280.469 769.693 276.881 712.213 288.16 659.353 314.308 611.111L305.848 659.61 345.07 610.342 345.07 675.776M1168.73 497.949C1152.32 541.571 1144.12 586.734 1144.12 633.436 1144.63 693.995 1141.56 754.553 1134.89 815.112L1125.66 889.014 1133.35 870.538 1156.42 815.112C1172.32 769.95 1185.65 724.274 1196.41 678.085 1216.41 592.893 1217.44 508.726 1199.49 425.586L1168.73 497.949M1101.05 907.49 1114.13 842.056C1124.38 780.984 1128.48 719.912 1126.43 658.84L1101.05 907.49M761.129 341.677 746.517 343.986 755.745 347.835 761.129 341.677M625.775 680.395C635.004 630.1 655.768 584.168 688.069 542.598 682.429 594.945 655.768 720.682 608.087 919.807L608.087 846.674C609.625 791.248 615.521 735.821 625.775 680.395" fill="#DDDDDD" fill-rule="evenodd"/><path d="M1202.38 252.948C1182.37 276.541 1158.51 293.21 1130.8 302.955L1108.48 312.187 1036.91 214.481C1070.77 229.868 1092.07 244.998 1100.79 259.872L1121.57 299.109 1202.38 252.948M1066.15 286.03 939.16 231.407 922.997 202.172 952.244 209.096C983.544 219.867 1021.51 245.511 1066.15 286.03M770.605 200.633 834.487 237.562 815.246 234.484C774.71 221.662 735.714 205.506 698.258 186.015L770.605 200.633M705.185 229.099 540.478 269.874 481.215 286.799 405.788 291.415C455.559 262.18 507.126 242.691 560.489 232.945L705.185 229.099M282.643 412.202C334.98 383.992 388.856 359.117 444.271 337.576 499.173 316.547 556.897 301.417 617.444 292.185L760.6 280.644 763.678 288.338 774.454 284.491C721.091 312.7 667.471 339.627 613.595 365.272 565.877 388.865 521.493 417.843 480.445 452.207L463.512 467.594C508.666 433.743 557.154 406.56 608.977 386.044 653.618 369.631 699.541 358.861 746.746 353.732L679.016 422.972 695.179 416.818 681.325 440.667C722.887 409.894 767.014 383.48 813.706 361.425 860.912 340.396 909.913 325.266 960.71 316.034 914.531 337.576 871.43 361.682 831.408 388.352L749.055 449.899 749.825 460.67 729.044 483.75C772.658 458.105 814.732 431.948 855.268 405.277 915.301 364.246 980.465 346.551 1050.76 352.193L1081.55 355.271 1049.99 472.21 1124.65 394.507 1123.88 416.048 1120.03 409.124C1127.21 476.826 1119.26 542.733 1096.17 606.845L1114.64 569.916 1109.25 575.302 1133.11 546.836C1132.09 603.767 1125.67 660.699 1113.87 717.63 1104.64 764.303 1087.45 808.925 1062.31 851.495L1053.84 868.42C1056.4 825.85 1060.51 783.28 1066.15 740.71 1070.77 707.372 1076.67 674.547 1083.86 642.234L1021.51 760.713 1020.74 748.403 987.649 823.029 978.413 709.936 943.009 829.184 940.699 658.391 874.509 829.953 885.284 636.849 782.15 826.876 779.071 735.324 778.302 739.171C771.118 660.699 772.914 605.05 783.69 572.224L762.909 602.998 812.936 469.133C797.543 485.545 779.328 510.934 758.291 545.297 736.74 579.148 719.295 621.975 705.954 673.777 692.1 725.066 681.325 819.183 673.629 956.125L673.629 961.51 654.387 986.129 660.544 874.575 622.831 966.896 614.365 959.972 614.365 990.745 604.359 990.745 602.82 984.591C595.637 959.459 591.275 934.327 589.736 909.195L592.815 967.665 582.039 948.432C568.699 877.14 567.416 805.847 578.191 734.555 588.966 662.75 603.59 599.151 622.062 543.759L609.747 565.3 618.983 535.296 615.135 539.912 684.404 421.434 612.826 527.603 613.595 539.912C559.719 637.875 534.577 742.505 538.169 853.803L538.939 887.654 522.006 916.119 442.732 680.701 438.114 771.484 408.867 685.317 398.092 763.021 378.08 677.624 344.985 759.943 344.985 676.085 344.985 610.691 305.733 659.929 314.199 611.461C288.031 659.673 276.742 712.501 280.334 769.945 285.465 843.801 307.785 912.273 347.294 975.359L351.142 996.131C279.308 929.967 240.825 850.469 235.694 757.635L223.38 861.496C174.122 692.242 210.039 541.707 331.132 409.894L362.687 379.889 282.643 412.202M1066.15 1079.22 1084.63 1049.98 1106.18 1039.98 1207 702.243 1199.3 793.025C1192.63 855.598 1177.75 914.581 1154.66 969.973 1138.24 1008.95 1118.49 1046.65 1095.4 1083.07L1084.63 1099.99 1069.23 1122.3 1094.63 1056.91 1066.15 1079.22M1244.71 923.813 1269.34 774.561 1233.94 866.112 1277.81 664.545 1275.5 670.7 1282.43 636.08 1287.04 610.691 1290.89 586.842C1298.08 536.578 1298.33 486.058 1291.66 435.282L1302.44 462.978 1310.9 486.058 1318.6 509.138C1336.05 568.121 1343.74 627.617 1341.69 687.625 1340.15 724.041 1336.05 760.456 1329.38 796.872L1303.21 754.558 1303.98 789.178 1303.98 809.181 1303.98 827.645C1302.44 883.038 1297.05 937.661 1287.81 991.515L1267.8 1083.07 1263.19 1099.99 1255.49 1126.15 1240.87 1169.23 1235.48 1185.39 1218.55 1228.47 1201.61 1270.02 1201.61 1230.78 1178.52 1256.94 1194.69 1228.47 1211.62 1193.08 1214.7 1185.39 1234.71 1126.15 1240.87 1099.99 1243.94 1083.07C1252.67 1033.83 1254.21 982.283 1248.56 928.429L1244.71 923.813M1317.06 345.269 1176.98 316.804 1184.68 299.878C1226.76 306.033 1257.03 312.444 1275.5 319.111 1294.48 326.292 1308.34 335.011 1317.06 345.269M550.484 885.346 547.405 878.422 547.405 859.188 550.484 885.346M1169.29 498.368 1200.07 426.05C1218.03 509.138 1217.01 593.253 1196.99 678.393 1186.22 724.554 1172.88 770.201 1156.97 815.336L1133.88 870.728 1126.19 889.193 1135.42 815.336C1142.09 754.814 1145.17 694.293 1144.66 633.771 1144.66 587.098 1152.87 541.964 1169.29 498.368M1101.56 907.656 1126.96 659.16C1129.01 720.194 1124.9 781.228 1114.64 842.263L1101.56 907.656M761.37 342.191 755.982 348.346 746.746 344.5 761.37 342.191M625.91 680.701C615.648 736.094 609.747 791.486 608.208 846.879L608.208 919.966C655.927 720.963 682.608 595.305 688.252 542.99 655.927 584.534 635.146 630.438 625.91 680.701" fill="#FFFFFF" fill-rule="evenodd"/></g></svg>