<svg width="1761" height="1761" xmlns="http://www.w3.org/2000/svg" xmlns:xlink="http://www.w3.org/1999/xlink" overflow="hidden"><defs><clipPath id="clip0"><rect x="0" y="0" width="1761" height="1761"/></clipPath></defs><g clip-path="url(#clip0)"><path d="M1251.89 1121.2 1234.79 1135.47 1232.52 1142.65 1234.79 1135.47ZM1276.82 1119.06 1269.7 1124.05 1276.82 1119.06 1285.38 1122.62ZM1299.62 1089.8 1301.05 1096.22 1301.05 1096.22ZM1336.67 1027 1336.67 1027 1420.75 1119.06 1420.75 1119.06ZM1298.2 1001.31 1333.83 1036.28 1333.83 1036.28 1298.2 1001.31ZM1476.21 837.786 1479.89 863.584 1464.21 872.147 1479.89 863.584ZM1147.16 833.612 1147.16 833.612 1164.96 838.607 1164.25 836.467 1184.81 835.38 1184.81 835.38 1164.25 836.466 1164.96 838.607ZM1393.68 824.335 1306.92 828.923 1306.92 828.923ZM1135.15 808.655 1154.28 820.054 1154.28 820.053ZM253.675 775.096 253.674 775.096 262.225 788.655 262.225 788.654ZM1082.24 714.735 1092.29 720.862 1092.29 720.861ZM374.989 709.516 372.663 713.012 366.249 745.838 352.712 772.955 352 787.941 343.753 789.318 352 787.941 352.712 772.955 366.249 745.838 372.663 713.012ZM448.187 690.176 451.749 710.871 451.75 710.87ZM442.487 682.326 435.362 685.894 428.237 685.894 421.824 691.603 413.987 691.603 408.287 702.307 403.299 710.157 396.175 720.861 396.175 720.861 403.3 710.157 408.287 702.308 413.987 742.984 413.987 742.983 408.287 702.308 413.987 691.604 421.825 691.604 428.237 685.895 435.362 685.895ZM485.95 676.618 490.225 710.871 490.225 710.87ZM525.614 675.907 512.669 676.082C508.157 676.915 503.525 678.52 498.775 680.899L498.775 680.899C503.525 678.521 508.157 676.915 512.669 676.082ZM1068.88 669.415 1026.74 689.462 1026.74 689.462 1068.88 669.415ZM1415.05 668.768C1428.82 693.031 1440.7 718.245 1450.67 744.411 1456.38 758.683 1461.3 773.252 1465.46 788.119 1461.3 773.252 1456.38 758.683 1450.67 744.411 1440.7 718.245 1428.83 693.031 1415.05 668.768ZM555.727 668.626 604.937 703.735 604.937 703.734 555.727 668.626ZM477.4 667.34 465.287 685.894 456.025 691.603 455.288 690.126 456.025 691.604 465.288 685.895 477.4 667.341 486.094 668.01ZM928.685 665.58 936.963 669.482 1009.93 685.722 936.963 669.481ZM536.864 661.425 527.337 673.949 536.864 661.425ZM786.625 657.35 999.663 697.312 1092.29 796.505 999.663 697.312ZM398.468 650.677 401.162 651.641 405.438 665.2 409.579 666.859 405.438 665.2 401.163 651.641ZM481.868 646.015 480.962 647.359 492.362 651.641 480.962 647.359 481.868 646.016ZM373.375 645.219 373.375 645.219 376.225 663.773 376.225 663.772ZM674.049 643.078 660.512 648.073 659.683 647.318 660.512 648.073 674.05 643.078 679.754 646.102ZM651.963 639.51 651.249 640.223 648.035 641.654 648.033 641.656 651.249 640.224 651.249 640.224ZM459.276 631.534 456.737 635.942 468.137 643.791 468.137 643.791 456.737 635.942 459.276 631.535ZM778.787 629.519 763.825 633.087 760.263 633.801 686.163 649.5 760.263 633.801 763.825 633.087 773.087 635.228 763.825 633.087 778.788 629.519 786.625 635.942ZM1012.39 629.059 1012.48 630.233 1012.49 630.233 1012.39 629.059ZM861.438 626.665 861.438 626.665 877.825 649.5 896.35 650.928 900.504 656.047 896.35 650.927 877.825 649.5ZM383.35 624.524 376.226 631.659 376.225 631.66ZM952.068 602.459 935.538 612.393 921.287 622.383 907.75 634.514 914.875 644.505 915.577 644.583 914.875 644.505 907.75 634.515 921.287 622.383 935.538 612.393 952.068 602.459ZM905.984 584.62 900.625 588.13 822.962 640.223 819.4 640.937 822.962 640.224 900.626 588.13 905.986 584.62ZM377.649 583.135 381.924 589.557 354.85 678.758 354.851 678.757 381.925 589.557ZM791.048 576.659 791.048 576.659 783.062 587.416 767.388 615.247 783.062 587.416ZM1270.47 525.539 1270.47 525.539 1322.43 539.604 1323.85 540.011 1322.43 539.604ZM490.225 480.374 384.063 639.509 384.063 639.51 490.225 480.374ZM1401.51 466.816 1323.13 472.525 1284.67 482.515 1247.12 490.74 1247.12 490.74 1284.67 482.515 1323.13 472.525ZM432.513 440.412 432.512 440.413 405.438 555.303 405.438 555.303ZM734.381 384.488 726.775 387.605C695.424 400.45 664.549 415.436 634.15 432.562L547.937 490.365 468.851 559.584 468.85 559.585 547.938 490.365 634.15 432.562C664.55 415.436 695.425 400.45 726.775 387.605L734.38 384.489ZM1019.62 346.929 1098.7 351.924 1147.86 356.92 1195.6 364.769 1242.63 377.614 1195.6 364.769 1147.86 356.92 1098.7 351.924ZM963.309 329.523 937.675 339.793 937.676 339.793ZM884.95 327.661 799.672 358.256 799.673 358.256ZM1036 299.831 973.3 325.52 909.887 343.361 891.863 350.943 891.864 350.943 909.887 343.361 973.299 325.521 973.3 325.521ZM1026.74 272 1034.57 274.141 1040.27 279.85 1046.69 292.695 1048.11 300.544 1045.27 307.681 1039.56 312.676 995.387 330.516 1097.27 336.939C1164.72 339.318 1229.33 353.827 1291.07 380.469 1336.67 400.45 1379.43 428.519 1419.33 464.675L1423.6 474.665 1420.75 484.656 1411.48 489.651 1313.87 502.496 1380.85 588.13C1416.47 633.325 1444.26 683.04 1464.21 737.275L1464.21 737.988C1478.94 778.902 1488.2 820.054 1492 861.443L1490.57 870.006 1484.88 875.715 1469.2 884.279 1461.36 885.706 1454.24 883.565 1408.64 852.166 1432.87 1116.92 1431.44 1125.48 1424.31 1131.9 1415.76 1132.62 1408.64 1128.33 1340.24 1054.12 1318.15 1124.05 1313.16 1131.9 1303.9 1134.04 1296.07 1131.19 1295.35 1130.47 1288.94 1135.47 1278.25 1135.47 1276.82 1134.76 1276.11 1135.47 1265.42 1137.61 1254.74 1135.47 1245.48 1143.32 1241.2 1166.16 1236.92 1173.29 1229.8 1177.57 1222.67 1179 1221.25 1179 1221.25 1154.02 1223.38 1164.73 1225.52 1164.73 1225.52 1164.73 1223.38 1164.73 1221.25 1154.02 1219.11 1139.04 1219.11 1074.81 1221.25 1068.39 1223.38 1063.4 1236.92 960.635 1214.84 949.217 1214.84 949.217 1236.92 960.635 1223.38 1063.4 1221.25 1068.39 1221.25 1063.4 1221.25 1023.43 1229.09 992.748C1230.51 982.281 1228.85 974.432 1224.1 969.198L1221.25 967.057 1214.12 956.353 1197.03 952.785 1188.47 954.926 1188.47 954.926 1133.62 981.33 1130.76 982.044 1089.44 983.471 1085.87 982.757 1083.03 978.475 1083.03 974.193 1096.57 935.659 1091.58 977.048 1091.58 977.048 1096.57 935.659 1104.4 865.011 1107.97 829.33 1089.44 820.054 1107.97 829.33 1104.4 865.011 1100.12 837.18 1098.7 834.326 1095.85 832.185 1084.45 825.763 1081.6 822.908 1080.89 822.908 1080.18 818.626 1082.32 801.5 1082.32 798.645 1080.89 795.791 996.101 705.162 991.825 703.021 783.775 663.773 780.213 662.346 778.075 659.491 775.225 653.068 774.512 650.214 768.1 643.078 767.388 642.364 762.4 640.224 761.687 640.224 758.838 640.937 671.913 686.608 668.35 687.322 664.074 685.895 661.937 683.04 653.388 663.773 649.825 660.204 644.837 660.204 641.274 662.346 608.499 707.303 605.65 710.157 605.65 709.444 601.375 710.157 594.25 708.73 591.4 707.303 555.062 678.045 550.788 676.618 546.512 678.045 492.362 716.58 488.087 717.293C486.188 717.293 484.524 716.58 483.099 715.153L483.099 715.866 480.962 711.585 480.962 710.871 480.25 705.876 478.112 701.594 473.124 699.453 468.137 701.594 454.599 715.153C453.174 716.58 451.749 717.293 450.325 717.293L446.05 716.58 441.062 715.153 436.075 718.721 418.262 746.552 414.7 748.692 410.424 749.406 406.862 747.265 404.725 743.697 404.725 740.843 402.588 736.561 399.024 734.42 394.75 734.42 391.188 737.275 355.562 791.509 354.137 792.936 352 794.363 351.288 794.363 347.724 795.077 344.875 798.645 339.888 798.645 341.075 795.553 339.888 798.645 319.938 810.776 317.087 820.053 297.849 825.049 277.9 813.631 256.525 802.213 257.95 798.645 240.137 798.645 241.562 795.791 244.413 789.368 239.425 782.232 238 772.242 242.987 763.678 250.112 757.256 251.537 753.688 255.1 747.265 247.975 699.453 250.112 690.176 257.95 683.754 267.213 680.899 275.762 680.899 282.175 683.04 292.862 591.698 297.85 582.421 307.112 578.853 317.088 578.853 327.062 583.135C329.913 585.989 331.337 589.319 331.337 593.125L331.337 595.979 418.262 433.276 425.387 426.853 435.362 426.853 443.2 433.276 444.625 443.267 435.362 481.802 443.2 471.098C478.825 423.999 521.1 383.085 570.024 348.356L570.737 348.356 617.762 317.671 627.737 316.244 635.575 320.526C637.95 322.905 639.137 325.996 639.137 329.802L636.287 338.366 603.513 381.896C616.337 374.76 629.637 367.862 643.413 361.201L642.699 361.201C680.7 341.695 720.6 324.332 762.4 309.108L763.112 309.108 793.75 303.399 832.938 292.695 834.362 292.695 902.05 280.563 961.187 274.141 962.612 274.141 966.888 274.141Z" fill="#DDDDDD" fill-rule="evenodd"/><path d="M1222 1068 1222 1063 1224 1063 1222 1068" fill="#005517" fill-rule="evenodd"/><path d="M1226 1164 1223.66 1164 1221.33 1153.58 1219 1139 1226 1164" fill="#009933" fill-rule="evenodd"/><path d="M1301 1096 1299.57 1089.59 1300.28 1089.59 1301 1096M919.704 577.703 918.992 576.277 922.555 574.138 926.831 572 919.704 577.703M403 710.307 407.989 702.466 403 710.307" fill="#017821" fill-rule="evenodd"/><path d="M885.374 328 876.107 343.672C861.374 366.942 841.889 384.276 817.652 395.674L765.612 432.004 764.899 432.716 767.75 432.004 779.156 423.456 787.711 425.593 847.592 404.222 848.305 415.62 1012.98 391.4 1017.25 402.797 1034.36 392.825 1046.48 399.948 1047.91 407.784 1025.81 427.73 1163.39 422.031 1161.97 443.402 1132.03 454.799 1070.72 478.307 1009.41 503.239C966.166 520.336 924.107 539.568 883.236 560.94L777.731 617.216 767.75 615.078 783.435 587.296C807.196 547.405 837.85 514.162 875.394 487.567 908.661 463.822 942.879 442.215 978.047 422.743L883.236 466.909 791.275 514.637C752.306 535.057 714.286 557.616 677.217 582.31L609.494 627.901 615.91 602.255 603.078 613.653 599.514 613.653C590.959 616.978 582.167 619.59 573.138 621.49L560.306 612.942 585.969 565.926 492.583 651.407 481.178 647.135 518.246 592.283 468.347 643.572 456.941 635.737 467.634 617.216 456.228 610.092 416.307 669.217 405.614 664.942 401.337 651.407 391.356 647.846 376.386 663.518 373.535 644.998 355 678.477 382.089 589.433 377.812 583.022 384.228 581.598 390.644 586.583 376.386 631.463 383.515 624.338 384.228 639.298 490.446 480.444 504.703 485.43 469.06 559.515 548.187 490.417 634.445 432.716C664.86 415.62 695.751 400.661 727.118 387.838L789.85 362.193 885.374 328M968.068 592.996 968.068 586.583 991.592 573.05 1014.4 560.227C1060.5 536.007 1108.98 516.774 1159.83 502.527L1176.94 516.062 1171.23 526.034 1176.94 541.705C1162.68 566.4 1143.19 586.821 1118.48 602.968L1087.83 619.352 1076.42 623.626 1012.98 630.037 1012.26 621.49 1020.82 609.379 1009.41 602.255 921.731 644.998 915.315 644.285 908.186 634.312 921.731 622.201 935.988 612.229 968.068 592.996M958.087 410.633 914.602 421.319 871.117 436.99 829.77 456.936 760.623 497.541 958.087 410.633M1243.23 724.067 1234.68 716.232 1247.51 698.423 1279.59 689.162 1291 696.286 1283.15 722.643 1276.03 735.465C1268.9 744.488 1259.39 748.762 1247.51 748.287L1238.24 749 1233.25 744.726 1243.23 724.067M1248.22 617.216 1266.05 625.051 1270.32 632.886C1252.26 652.833 1230.4 667.317 1204.74 676.34 1178.6 686.313 1152.22 689.876 1125.61 687.025 1138.92 670.403 1154.6 656.394 1172.66 644.998 1195 629.325 1220.18 620.064 1248.22 617.216" fill="#FFFFFF" fill-rule="evenodd"/><path d="M257.277 798.354 261.555 788.37 253 774.819 264.407 765.548 266.546 757.703 271.537 754.137 263.694 697.795 272.962 694.942 282.231 697.795 293.639 720.617 308.61 593.67 318.592 593.67 317.879 654.291 431.951 440.335 404.859 555.158 430.525 518.073 485.423 448.179C512.99 415.373 544.837 386.607 580.959 361.884L626.589 330.504 548.876 433.916 599.496 403.962 650.116 374.008C679.109 359.269 708.816 346.432 739.235 335.496L784.151 322.659 839.049 306.969 905.354 295.558 968.807 289.139 1029.41 287 1035.82 299.837 973.085 325.511 909.632 343.341 873.984 358.318 873.984 359.031 1019.43 346.907 1098.56 351.899 1147.76 356.892 1195.53 364.737 1242.58 377.574 1286.78 395.403 1345.25 428.21 1401.57 466.723 1323.15 472.429 1284.65 482.413 1216.2 497.39 1200.52 502.382C1205.27 506.186 1210.5 508.801 1216.2 510.228L1269.67 525.204 1322.43 539.468 1327.42 540.894 1370.91 597.949 1415.12 668.555C1428.9 692.803 1440.78 718.002 1450.76 744.152 1462.17 772.68 1470.49 802.395 1475.72 833.3L1480 863.255 1464.31 871.812 1393.73 824.029 1164.16 836.153 1164.87 838.293 1147.04 833.3 1154.17 819.75 1124.23 801.92 1113.54 793.362 1127.08 772.68 1085.73 764.121 1096.42 754.137 1097.85 745.578 1087.16 733.455 1092.15 720.617 1075.75 710.632 1075.75 708.493 1112.11 667.841 1152.75 632.182 1157.74 628.616 1157.74 627.19 1157.03 625.05 1144.91 628.616 1143.48 627.903 1083.59 662.136 1026.55 689.237 936.724 669.268C932.446 668.317 928.406 666.415 924.604 663.562L905.354 662.136 896.086 650.725 877.549 649.299 861.151 626.476 861.151 625.764C874.934 619.583 889.194 611.024 903.928 600.089L952.409 567.282 967.38 553.732 967.38 553.019 963.104 553.732 919.613 577.267 926.743 571.561 922.465 573.701 918.9 575.84 900.363 587.965 822.651 640.027 819.086 640.74 797.697 632.895 786.29 635.748 778.447 629.329 763.475 632.895 759.911 633.609 685.764 649.299 673.644 642.88 660.097 647.872 652.255 640.74 651.542 639.314 650.829 640.027 637.996 645.733 625.876 642.167C612.568 650.725 603.061 661.898 597.357 675.686 584.049 652.865 566.7 648.11 545.311 661.423L536.756 660.71 525.349 675.686C516.793 674.26 507.763 675.924 498.256 680.679L498.256 678.539 486.136 667.841 476.868 667.128 464.747 685.671 455.479 691.376 453.34 687.097 441.933 682.105 434.803 685.671 427.673 685.671 421.258 691.376 413.415 691.376 407.711 702.074 402.721 709.919 395.591 720.617 389.174 707.78 374.915 708.493 372.064 712.772 365.647 745.578 352.101 772.68 351.388 787.656 342.833 789.083 339.268 798.354 319.305 810.478 316.453 819.75 297.203 824.742 277.24 813.331 255.852 801.92 257.277 798.354M1400.86 901.766 1419.39 1099.32 1273.24 889.643 1400.86 901.766M1333.84 1035.85 1306.75 1120 1301.04 1095.75 1300.33 1089.33 1283.22 1003.75 1298.19 1000.9 1333.84 1035.85M884.678 327.651 789.142 361.884 726.402 387.558C695.031 400.396 664.137 415.373 633.718 432.489L547.45 490.257 468.312 559.437 503.96 485.265 489.701 480.273 383.471 639.314 382.757 624.337 375.628 631.469 389.887 586.538 383.471 581.546 377.055 582.972 381.332 589.391 354.24 678.539 372.777 645.019 375.628 663.562 390.6 647.872 400.581 651.438 404.859 664.989 415.553 669.268 455.479 610.073 466.886 617.205 456.192 635.748 467.599 643.593 517.506 592.244 480.432 647.159 491.84 651.438 585.237 565.856 559.571 612.926 572.404 621.484C581.434 619.583 590.228 616.967 598.783 613.639L602.348 613.639 615.181 602.228 608.765 627.903 676.496 582.259C713.569 557.536 751.594 534.951 790.568 514.507L882.539 466.723 977.363 422.505C942.19 441.999 907.968 463.632 874.697 487.405 837.148 514.031 806.491 547.313 782.725 587.251L767.04 615.066 777.022 617.205 882.539 560.864C923.416 539.468 965.48 520.212 1008.73 503.095L1070.05 478.134 1131.36 454.598 1161.3 443.187 1162.73 421.792 1025.13 427.497 1047.23 407.528 1045.8 399.683 1033.68 392.551 1016.57 402.536 1012.3 391.125 847.605 415.373 846.892 403.962 787.003 425.357 778.447 423.218 767.04 431.776 764.189 432.489 764.901 431.776 816.947 395.403C841.188 383.993 860.676 366.638 875.41 343.341L884.678 327.651M957.4 410.381 759.911 497.39 829.068 456.739 870.419 436.768 913.91 421.078 957.4 410.381M967.38 592.957 935.298 612.213 921.039 622.197 907.493 634.321 914.623 644.306 921.039 645.019 1008.73 602.228 1020.14 609.36 1011.58 621.484 1012.3 630.043 1075.75 623.624 1087.16 619.345 1117.81 602.941C1142.53 586.776 1162.02 566.331 1176.28 541.608L1170.57 525.918 1176.28 515.933 1159.17 502.382C1108.31 516.646 1059.83 535.902 1013.72 560.15L990.909 572.988 967.38 586.538 967.38 592.957M1247.57 617.205C1219.53 620.058 1194.34 629.329 1172 645.019 1153.94 656.43 1138.25 670.456 1124.94 687.097 1151.56 689.95 1177.94 686.384 1204.08 676.4 1229.75 667.366 1251.61 652.865 1269.67 632.895L1265.4 625.05 1247.57 617.205M1242.58 724.183 1232.6 744.865 1237.59 749.145 1246.86 748.431C1258.74 748.907 1268.25 744.628 1275.38 735.594L1282.51 722.757 1290.35 696.369 1278.94 689.237 1246.86 698.508 1234.03 716.338 1242.58 724.183" fill="#DDDDDD" fill-rule="evenodd"/><path d="M973.444 326 937.81 340.252 1019.76 347.378 874.383 359.492 874.383 358.779 910.016 343.815 973.444 326M1401.75 467.092 1411.73 476.356 1289.87 492.745 1290.58 493.458 1327.64 541.201 1322.65 539.776 1269.91 525.524 1216.46 510.56C1210.76 509.135 1205.53 506.522 1200.78 502.722L1216.46 497.733 1284.88 482.769 1323.36 472.793 1401.75 467.092M1393.91 824.098 1401.04 901.77 1273.47 889.656 1419.57 1099.16 1421 1118.4 1336.9 1026.47 1334.05 1035.74 1298.42 1000.82 1283.45 1003.67 1300.56 1089.18 1299.84 1089.18 1285.59 1121.96 1277.04 1118.4 1269.91 1123.38 1252.09 1120.53 1234.99 1134.79 1225.73 1164 1219.31 1138.35 1219.31 1074.22 1221.45 1067.8 1223.59 1062.81 1237.13 960.202 1215.04 948.801 1197.22 952.364 1188.67 954.502 1091.74 976.592 1096.73 935.262 1104.57 864.716 1108.14 829.086 1089.61 819.823 1092.46 796.307 999.812 697.257 786.726 657.352 773.185 635.263 763.921 633.124 778.885 629.562 786.726 635.975 798.127 633.124 819.507 640.963 823.071 640.251 900.752 588.232 919.281 576.118 919.994 577.543 963.466 554.028 967.742 553.315 967.742 554.028 952.776 567.567 904.315 600.346C889.586 611.272 875.333 619.823 861.555 626L861.555 626.711 877.946 649.514 896.475 650.939 905.74 662.34 924.982 663.766C928.783 666.616 932.822 668.516 937.097 669.467L1026.89 689.419 1083.91 662.34 1143.77 628.136 1145.19 628.849 1157.31 625.286 1158.02 627.424 1158.02 628.849 1153.03 632.412 1112.41 668.041 1076.07 708.659 1076.07 710.796 1092.46 720.773 1087.47 733.599 1098.16 745.714 1096.73 754.264 1086.04 764.241 1127.38 772.791 1113.84 793.456 1124.53 802.007 1154.46 819.823 1147.33 833.362 1165.15 838.349 1164.44 836.213 1393.91 824.098M352 787.757 352.713 772.791 366.253 745.714 372.667 712.934 375.518 708.659 389.771 707.946 396.185 720.773 352 787.757M408.301 702.246 414.002 691.557 421.841 691.557 428.255 685.857 435.382 685.857 442.508 682.293 453.911 687.281 456.048 691.557 465.314 685.857 477.429 667.329 486.693 668.041 498.809 678.73 498.809 680.869C508.311 676.117 517.338 674.455 525.89 675.88L537.292 660.915 545.844 661.628C567.224 648.326 584.566 653.077 597.869 675.88 603.57 662.103 613.073 650.939 626.376 642.388L638.491 645.951 651.319 640.251 604.996 703.671 552.971 666.616 490.257 710.796 485.98 676.592 451.773 710.796 448.21 690.131 414.002 742.864 408.301 702.246M652.744 640.963 660.584 648.089 674.124 643.101 686.24 649.514 760.357 633.837 670.561 680.869 652.744 640.963" fill="#AEAEAE" fill-rule="evenodd"/><path d="M257.966 798.646 240.139 798.646 241.565 795.792 244.418 789.37 239.426 782.234 238 772.243 242.991 763.68 250.122 757.257 251.548 753.689 255.114 747.267 247.983 699.455 250.122 690.178 257.966 683.754 267.235 680.901 275.792 680.901 282.21 683.041 292.906 591.698 297.898 582.421 307.167 578.854 317.15 578.854 327.133 583.135C329.986 585.989 331.411 589.32 331.411 593.126L331.411 595.981 418.405 433.277 425.536 426.854 435.519 426.854 443.363 433.277 444.788 443.267 435.519 481.802 443.363 471.098C479.016 424 521.325 383.085 570.288 348.357L571.002 348.357 618.064 317.672 628.047 316.244 635.891 320.526C638.268 322.905 639.456 325.997 639.456 329.803L636.603 338.366 603.803 381.897C616.638 374.761 629.948 367.863 643.735 361.202L643.021 361.202C681.051 341.696 720.983 324.332 762.816 309.108L763.529 309.108 794.191 303.399 833.41 292.695 834.836 292.695 902.577 280.564 961.762 274.141 963.187 274.141 967.466 274.141 1027.36 272 1035.21 274.141 1040.91 279.85 1047.33 292.695 1048.75 300.545 1045.9 307.681 1040.2 312.676 995.988 330.517 1097.96 336.939C1165.46 339.318 1230.11 353.827 1291.91 380.469 1337.55 400.45 1380.33 428.52 1420.26 464.675L1424.54 474.666 1421.69 484.657 1412.42 489.652 1314.73 502.497 1381.76 588.13C1417.41 633.327 1445.22 683.041 1465.19 737.276L1465.19 737.99C1479.92 778.904 1489.19 820.055 1493 861.444L1491.57 870.008 1485.87 875.717 1470.18 884.28 1462.33 885.707 1455.2 883.566 1409.57 852.168 1433.81 1116.92 1432.39 1125.48 1425.25 1131.9 1416.7 1132.62 1409.57 1128.34 1341.11 1054.12 1319.01 1124.05 1314.02 1131.9 1304.75 1134.04 1296.9 1131.19 1296.19 1130.48 1289.77 1135.47 1279.08 1135.47 1277.65 1134.76 1276.94 1135.47 1266.24 1137.61 1255.54 1135.47 1246.27 1143.32 1242 1166.16 1237.72 1173.29 1230.59 1177.57 1223.46 1179 1222.03 1179 1222.03 1154.03 1224.17 1164.73 1226.31 1164.73 1235.58 1135.47 1252.69 1121.2 1270.52 1124.05 1277.65 1119.06 1286.21 1122.63 1300.47 1089.8 1301.89 1096.22 1307.6 1120.49 1334.69 1036.28 1337.55 1027 1421.69 1119.06 1420.26 1099.79 1401.72 902.12 1394.59 824.337 1465.19 872.149 1480.87 863.586 1476.6 833.614C1471.37 802.69 1463.05 772.957 1451.64 744.412 1441.65 718.246 1429.77 693.032 1415.98 668.769L1371.77 598.122 1328.28 541.032 1291.2 493.22 1290.48 492.506 1412.42 476.093 1402.44 466.816 1346.1 428.281 1287.63 395.455 1243.42 377.615 1196.36 364.77 1148.58 356.92 1099.38 351.925 1020.23 346.93 938.231 339.794 973.884 325.521 1036.63 299.831 1030.21 286.986 969.606 289.127 906.143 295.55 839.827 306.967 784.921 322.667 739.998 335.512C709.574 346.454 679.862 359.299 650.865 374.047L600.237 404.019 549.61 433.99 627.333 330.517 581.698 361.915C545.569 386.653 513.718 415.436 486.147 448.262L431.24 518.196 405.57 555.304 432.667 440.413 318.576 654.497 319.29 593.839 309.306 593.839 294.332 720.862 282.923 698.026 273.653 695.173 264.383 698.026 272.227 754.403 267.235 757.971 265.096 765.821 253.687 775.098 262.244 788.656 257.966 798.646M1222.03 1063.4 1222.03 1023.43 1229.87 992.749C1231.3 982.283 1229.64 974.433 1224.88 969.2L1222.03 967.059 1214.9 956.355 1197.79 952.787 1215.61 949.219 1237.72 960.637 1224.17 1063.4 1222.03 1063.4M1189.23 954.928C1171.16 963.491 1152.86 972.293 1134.32 981.331L1131.47 982.045 1090.11 983.472 1086.55 982.758 1083.69 978.477 1083.69 974.195 1097.24 935.66 1092.25 977.049 1189.23 954.928M1105.09 865.013 1100.81 837.182 1099.38 834.328 1096.53 832.186 1085.12 825.764 1082.27 822.91 1081.56 822.91 1080.84 818.628 1082.98 801.501 1082.98 798.646 1081.56 795.792 996.701 705.163 992.423 703.022 784.208 663.773 780.643 662.346 778.503 659.493 775.651 653.07 774.938 650.215 768.521 643.079 767.808 642.365 762.816 640.224 762.103 640.224 759.251 640.937 672.257 686.609 668.692 687.323 664.413 685.896 662.274 683.041 653.717 663.773 650.152 660.205 645.16 660.205 641.595 662.346 608.794 707.305 605.942 710.159 605.942 709.445 601.664 710.159 594.533 708.732 591.68 707.305 555.314 678.047 551.036 676.619 546.757 678.047 492.564 716.581 488.286 717.295C486.385 717.295 484.72 716.581 483.294 715.154L483.294 715.868 481.155 711.586 481.155 710.872 480.442 705.877 478.303 701.596 473.311 699.455 468.32 701.596 454.771 715.154C453.345 716.581 451.919 717.295 450.493 717.295L446.215 716.581 441.223 715.154 436.232 718.721 418.405 746.553 414.84 748.694 410.561 749.407 406.996 747.267 404.857 743.698 404.857 740.844 402.718 736.563 399.152 734.422 394.874 734.422 391.308 737.276 355.655 791.511 354.23 792.938 352.09 794.365 351.378 794.365 347.811 795.079 344.96 798.646 339.968 798.646 343.533 789.37 352.09 787.943 396.3 720.862 403.431 710.159 408.422 702.308 414.126 742.985 448.354 690.178 451.919 710.872 486.147 676.619 490.425 710.872 553.175 666.628 605.229 703.735 651.578 640.224 652.29 639.51 653.005 640.937 670.83 680.901 760.677 633.802 764.242 633.089 773.512 635.23 787.06 657.352 1000.27 697.314 1092.96 796.506 1090.11 820.055 1108.65 829.332 1105.09 865.013" fill="#888888" fill-rule="evenodd"/><path d="M446.273 577.276 442 583 464.078 521.466 474.76 522.896 454.107 574.413 446.273 577.276M542.416 531.482 553.098 515.025 511.792 535.775 616.48 454.923 625.739 455.638 701.227 417 716.895 421.294C713.572 428.925 709.299 435.128 704.076 439.897L634.284 502.861 631.436 503.578 628.587 501.432 597.964 525.043 658.498 457.07 542.416 531.482M969 443.475 887.101 510.733 876.42 508.587 893.511 488.552 961.166 435.604 969 443.475M764.609 423.44 763.898 424.156 766.747 423.44 775.293 431.311 769.595 452.061 694.818 511.448 686.984 506.439 672.741 507.156 735.412 440.613 741.821 442.044 764.609 423.44" fill="#FFFFFF" fill-rule="evenodd" fill-opacity="0.501961"/><path d="M248.575 780 249.336 791.707 248.109 792.584 249.373 798.855 264.537 808.263 270.223 826.453 274.646 830.215 289.81 832.724 265.169 864.711C276.542 872.238 288.547 873.492 301.183 868.475L314.452 862.203 308.134 877.883 315.715 889.799 315.084 898.58 329.616 906.106 327.089 914.887 344.148 927.431C337.408 930.358 330.88 933.703 324.561 937.467L319.507 942.484 335.934 958.163C340.252 962.763 344.806 966.696 349.598 969.963L366.575 977.751 370 991 358.68 987.956C344.359 982.311 331.722 972.59 320.77 958.791L314.452 951.892 308.765 944.992 308.765 940.603 310.661 936.212 320.138 924.295 316.347 918.65 316.347 911.752C309.187 910.078 304.974 905.27 303.711 897.326L303.079 892.935 298.024 882.9C289.178 884.991 280.543 883.946 272.119 879.764L264.537 875.374 254.427 867.847 257.587 854.676 260.114 847.777 263.273 835.233 255.06 815.79 240.527 805.755 238 787.566 248.575 780Z" fill="#888888" fill-rule="evenodd"/><path d="M293.918 760C313.165 837.654 332.41 878.849 351.657 932.198L366 979 349.673 970.99C344.873 967.711 340.31 963.763 335.984 959.145L319.528 943.403 324.59 938.365C330.92 934.588 337.462 931.229 344.214 928.291L327.123 915.698 329.654 906.882 315.096 899.327 315.729 890.512 308.134 878.548 314.463 862.806 301.171 869.103C288.511 874.14 276.484 872.881 265.09 865.325L289.777 833.213 274.585 830.694 270.155 826.916 264.457 808.656 249.266 799.211 248 792.914 293.918 760Z" fill="#DDDDDD" fill-rule="evenodd"/></g></svg>
