<svg width="1761" height="1761" xmlns="http://www.w3.org/2000/svg" xmlns:xlink="http://www.w3.org/1999/xlink" overflow="hidden"><defs><clipPath id="clip0"><rect x="0" y="0" width="1761" height="1761"/></clipPath></defs><g clip-path="url(#clip0)"><path d="M1220.45 1129.21 1221.22 1132.31C1224.33 1139.55 1233.89 1146.52 1249.93 1153.24 1233.89 1146.52 1224.33 1139.54 1221.22 1132.31ZM1235.05 1108.01 1229.76 1111.38 1229.76 1111.38ZM1334.09 1096.07C1329.95 1100.07 1325.17 1103.37 1319.74 1105.95L1319.1 1105.84 1319.1 1105.84 1319.74 1105.95C1325.17 1103.37 1329.95 1100.07 1334.09 1096.07ZM1405.9 1059.24 1401.96 1065.64C1394.72 1073.91 1386.71 1074.94 1377.91 1068.74 1386.71 1074.94 1394.72 1073.91 1401.96 1065.64L1405.9 1059.24ZM1220.3 1054.63 1213.47 1059.44 1206.49 1061.77 1205.71 1061.77C1185.93 1065.84 1171.79 1064.35 1163.3 1057.3 1171.79 1064.35 1185.93 1065.84 1205.71 1061.77L1206.49 1061.77 1213.47 1059.44ZM1273.76 1036.42 1265.92 1062.93C1264.32 1082.41 1274.01 1095.34 1294.99 1101.74L1314.34 1105.03 1314.34 1105.03 1294.99 1101.74C1274.01 1095.34 1264.32 1082.41 1265.92 1062.93ZM1340.75 1006.88 1340.68 1008.28 1336.03 1027.66 1340.68 1008.28ZM1357.75 991.222 1357.75 991.997 1356.2 1012.15 1356.2 1013.7C1362.4 1005.43 1372.23 1000.78 1385.67 999.749L1380.24 998.974 1358.52 991.997ZM1206.49 967.966 1206.49 967.966 1222.78 974.943 1237.51 977.269 1240.57 971.434 1237.51 977.268 1222.78 974.943ZM1162.83 961.726 1199.51 964.09 1199.5 964.09ZM1333.52 952.462 1333.52 952.462 1333.7 952.462 1355.42 974.943 1362.4 972.617 1370.93 978.819 1371.71 978.819C1397.57 986.571 1415.67 981.145 1426.01 962.54 1415.67 981.144 1397.57 986.571 1371.71 978.819L1370.93 978.819 1362.4 972.617 1355.42 974.943 1333.7 952.462ZM214.372 933.857C213.337 973.133 233.764 988.896 275.652 981.145L281.928 978.504 286.706 976.493 286.706 976.493 281.928 978.504 275.652 981.144C233.764 988.896 213.337 973.133 214.372 933.857ZM391.274 922.341 395.885 926.105C428.981 939.801 453.286 941.157 468.8 930.175 453.286 941.157 428.981 939.8 395.885 926.105L391.275 922.341ZM248.503 905.95 249.22 906.308 249.22 906.308ZM288.839 902.849 290.39 903.624 289.134 903.088ZM248.503 891.996 250.054 891.996C257.811 892.513 265.051 893.741 271.774 895.679L289.134 903.088 307.261 917.772C311.527 924.102 313.919 931.79 314.437 940.834 315.471 959.439 310.299 975.459 298.923 988.896L294.269 992.773C279.79 999.49 264.017 1002.07 246.951 1000.52L246.176 1000.52C218.25 996.39 203.253 979.853 201.185 950.911 200.668 940.575 202.22 931.015 205.839 922.229 213.08 902.59 227.3 892.512 248.503 891.996ZM986.062 891.171 995.676 894.83 1005.29 898.489 1038.93 902.244 1005.29 898.489 995.676 894.83 986.062 891.171ZM943.526 868.74 952.058 874.942 952.834 874.942 954.527 875.942 954.527 875.941 952.834 874.941 952.058 874.941ZM944.47 863.076 943.526 867.964 941.199 867.189 943.526 867.965 944.47 863.076ZM197.307 846.259 191.487 852.802 197.307 846.259ZM1460.91 764.087 1451.61 764.862C1446.05 765.25 1441.38 766.187 1437.6 767.672L1435.99 768.8 1435.99 768.8 1437.6 767.673C1441.38 766.187 1446.05 765.25 1451.61 764.862L1460.91 764.088 1471.45 770.414ZM174.714 712.681 174.714 712.682 180.589 739.261 180.589 739.261ZM178.302 683.272 175.352 707.455 178.302 683.273ZM1443.85 616.799 1449.87 624.316 1449.87 624.315ZM1456.26 613.698 1460.91 617.574C1464.02 620.158 1467.38 621.967 1471 623 1467.38 621.966 1464.02 620.158 1460.91 617.574ZM1517.57 593.582 1512.11 602.069C1508.62 606.721 1505.15 610.645 1501.69 613.843 1505.15 610.645 1508.62 606.721 1512.11 602.07ZM180.241 576.488 189.55 599.744 204.288 608.271 222.732 611.151 204.288 608.271 189.55 599.744ZM270.222 535.402 270.222 535.402 270.997 541.603 270.998 541.604ZM1458.78 534.82 1456.62 537.688 1458.78 534.82ZM1425.75 464.164 1421.94 472.029C1417.93 477.068 1413.08 480.621 1407.39 482.688 1413.08 480.621 1417.93 477.068 1421.94 472.029ZM1253.87 400.447 1253.8 400.516 1253.8 401.292 1253.8 401.292 1253.8 400.516 1253.87 400.447ZM303.402 392.106 298.923 395.09C292.717 400.258 285.477 401.551 277.203 398.966 285.477 401.551 292.717 400.258 298.923 395.09ZM367.88 375.339 359.427 377.648C350.119 381.266 341.586 386.821 333.829 394.315L327.623 401.137 333.829 394.315C341.586 386.821 350.119 381.266 359.427 377.648L367.88 375.339ZM369.511 359.43 369.511 359.431 370.286 359.431 370.287 359.43ZM597.565 323.771 570.416 332.299C558.781 337.208 548.955 343.862 540.94 352.26L539.374 354.819 539.375 354.819 540.94 352.26C548.956 343.862 558.781 337.208 570.416 332.299L597.566 323.771ZM1052.9 312.918 1044.2 315.091 1044.2 315.091 1052.9 312.919ZM637.866 305.131 637.902 305.166 637.866 305.131ZM417.301 271.991C401.666 280.348 388.322 292.958 377.268 309.818 371.321 318.862 367.701 327.518 366.408 335.787L367.777 346.216 367.777 346.216 366.408 335.787C367.701 327.518 371.321 318.862 377.268 309.818 388.322 292.958 401.666 280.348 417.301 271.991ZM1000.93 221.444 993.946 223.77C990.326 225.063 987.934 226.871 986.77 229.197L986.89 234.445 986.89 234.444 986.771 229.197C987.935 226.871 990.326 225.063 993.946 223.77L1000.93 221.444C1015.92 221.961 1024.71 228.938 1027.3 242.375L1027.3 242.375C1024.71 228.937 1015.92 221.96 1000.93 221.444ZM691.425 220.669 684.443 221.444C653.416 224.029 642.815 236.432 652.64 258.654L657.283 260.029 652.64 258.654C642.815 236.432 653.416 224.029 684.443 221.444L691.425 220.669 692.409 220.669 692.41 220.669ZM666.493 214.599 666.215 214.661C658.199 217.891 650.571 222.478 643.331 228.421 650.571 222.478 658.199 217.891 666.215 214.661ZM688.855 195.282C695.481 194.765 702.284 194.958 709.265 195.863L711.593 196.638 727.106 202.064 755.807 208.266 757.359 208.266C766.667 210.851 774.165 216.793 779.854 226.096L779.078 225.32C792.006 242.891 796.143 261.239 791.489 280.36L956.713 274.158 959.815 254.003C962.918 240.049 969.382 228.162 979.208 218.343L979.983 218.343C1002.22 196.638 1026.78 193.796 1053.67 209.816L1054.45 209.816 1073.07 230.747C1084.96 252.969 1087.29 274.158 1080.05 294.314 1111.59 306.201 1138.74 325.063 1161.5 350.904 1163.05 341.085 1166.41 331.782 1171.58 322.996L1171.58 322.221C1189.16 294.83 1214.76 279.585 1248.37 276.484L1254.58 277.259 1272.42 285.011 1273.2 285.011C1281.99 290.179 1289.74 296.639 1296.47 304.391L1297.24 305.166C1310.69 321.705 1313.27 340.826 1305 362.531L1305 361.756 1298.02 377.261 1329.05 381.136C1337.84 368.733 1349.21 361.24 1363.18 358.656L1363.95 357.881C1386.19 354.78 1407.39 360.722 1427.56 375.71 1437.38 382.946 1444.37 393.281 1448.5 406.718L1447.73 406.718C1452.9 423.773 1452.9 441.086 1447.73 458.657L1448.5 457.882C1441.78 481.138 1428.34 495.351 1408.17 500.518L1441.52 536.177C1452.38 521.707 1468.16 511.63 1488.84 505.944L1499.7 506.719 1512.11 512.921 1514.44 514.472 1533.05 532.301 1533.05 531.526C1544.43 545.48 1548.31 560.467 1544.69 576.488 1536.42 607.496 1517.54 629.202 1488.06 641.605L1477.2 641.605 1474.88 640.83C1475.91 667.187 1473.33 694.06 1467.12 721.451L1462.47 729.203 1460.91 730.754 1487.29 740.056C1511.59 749.875 1525.56 768.997 1529.18 797.421 1532.79 827.396 1525.3 854.27 1506.68 878.042 1490.65 896.647 1471.77 907.5 1450.05 910.601L1450.05 936.183 1444.62 961.765 1443.85 962.54C1438.68 980.11 1427.56 991.739 1410.49 997.424L1408.94 998.199 1390.33 1000.52 1396.53 1002.85 1423.68 1023.01 1429.11 1029.21 1429.89 1036.96 1427.56 1053.24 1427.56 1054.01C1423.42 1070.55 1413.34 1082.18 1397.31 1088.9L1389.55 1089.67C1379.73 1088.64 1371.19 1084.76 1363.95 1078.05L1359.3 1088.9 1349.21 1104.4 1349.99 1105.18 1363.18 1113.7 1364.73 1115.25C1384.38 1132.31 1385.93 1150.4 1369.38 1169.52L1368.61 1170.29 1363.18 1175.72 1345.34 1189.67 1333.7 1192C1326.98 1190.45 1321.29 1187.61 1316.64 1183.47 1294.92 1170.55 1287.42 1152.72 1294.14 1129.98L1297.24 1123.78 1300.35 1121.46 1291.81 1119.13 1291.04 1118.36 1282.5 1156.34 1279.4 1161.77 1275.52 1165.64C1272.94 1167.19 1270.87 1168.48 1269.32 1169.52L1258.46 1172.62C1238.81 1170.04 1222.78 1159.96 1210.36 1142.39 1206.75 1137.22 1204.94 1131.79 1204.94 1126.11L1204.94 1125.33 1206.49 1119.13C1212.18 1105.69 1220.97 1096.65 1232.86 1092L1248.37 1085.8 1253.03 1085.02C1245.27 1069 1245.79 1053.24 1254.58 1037.73L1253.8 1036.96 1253.03 1036.18 1248.37 1031.53 1248.37 1032.31C1248.37 1046.26 1242.68 1058.15 1231.31 1067.97 1220.97 1076.75 1208.3 1081.15 1193.3 1081.15 1178.3 1081.15 1165.63 1076.75 1155.29 1067.97 1143.91 1058.15 1138.23 1046.26 1138.23 1032.31 1138.23 1018.35 1143.91 1006.47 1155.29 996.649 1165.63 987.863 1178.3 983.47 1193.3 983.47 1208.3 983.47 1220.97 987.863 1231.31 996.649L1234.41 999.749 1234.41 991.997 1197.95 981.145 1159.94 978.819C1152.7 990.188 1142.62 999.49 1129.69 1006.73 1111.08 1016.55 1091.42 1019.13 1070.74 1014.48 1043.85 1008.79 1028.85 992.256 1025.75 964.865L1025.75 964.09C1024.71 954.271 1025.23 944.71 1027.3 935.407L1026.53 936.183 1031.96 919.903 997.824 911.376 997.048 911.376 995.497 910.601 996.273 927.656 993.946 934.632 989.292 942.384C976.881 960.989 961.108 970.808 941.974 971.842L931.114 968.741 915.6 956.338 910.171 947.811 907.068 925.33 907.068 924.555C907.585 916.803 909.395 909.567 912.498 902.849L910.171 904.399C877.591 920.42 843.978 927.396 809.33 925.33L808.555 925.33C760.461 919.644 718.574 900.007 682.892 866.414L657.294 880.368 656.518 880.368C639.97 889.154 622.904 895.613 605.322 899.748L604.547 899.748C568.348 906.984 534.993 903.365 504.482 888.895L502.931 903.624C500.863 923.263 491.036 937.992 473.454 947.811 448.632 961.248 423.034 963.574 396.66 954.788L395.885 954.788C381.406 948.586 371.062 938.508 364.857 924.555L364.857 925.33C358.651 911.376 356.065 897.163 357.1 882.694L355.548 883.469 350.119 884.244 295.044 885.019 288.839 884.244 263.241 871.841 262.465 871.065C243.848 860.213 227.818 847.551 214.372 833.08L215.148 835.406 214.372 843.934 212.045 851.685 208.166 858.662 192.652 874.166 191.877 874.942C180.5 885.278 169.122 887.345 157.746 881.143L156.97 881.143C142.491 873.391 135.51 860.988 136.026 843.934L141.457 822.228 148.438 814.476 169.381 802.848 178.69 800.522 187.222 805.173 205.063 823.003C188.515 802.848 175.587 779.333 166.279 752.459L166.279 751.684C161.108 735.146 159.557 717.317 161.625 698.195 163.693 680.624 170.674 664.603 182.568 650.132L182.568 649.357 205.063 626.876 180.241 613.698 175.587 607.496 167.83 580.364 167.83 551.681 170.157 545.48 187.998 522.999 188.774 522.224C212.561 504.653 235.057 501.034 256.259 511.371L260.914 484.239 260.914 483.463 277.203 438.502 277.203 439.277 288.839 417.571 287.287 418.346 278.755 417.571C268.929 413.954 259.103 409.56 249.278 404.393L247.727 403.617C234.281 394.315 228.594 382.687 230.662 368.733L230.662 367.958C233.764 344.186 247.727 328.164 272.549 319.896L274.1 319.896 281.858 318.345 292.717 319.896 306.68 326.872 309.007 328.423 326.072 344.702 326.072 343.927C331.761 350.645 333.829 358.139 332.278 366.408L332.278 367.958 352.446 353.229C350.894 341.86 352.187 330.748 356.324 319.896L356.324 320.67C363.046 301.032 375.2 284.495 392.782 271.058 422.258 247.285 455.872 241.341 493.622 253.228 520.513 262.014 537.061 278.035 543.267 301.29L611.528 294.314C599.633 266.922 607.133 241.859 634.023 219.119 650.7 204.778 668.977 196.832 688.855 195.282Z" fill="#FFFFFF" fill-rule="evenodd"/><path d="M910.324 951.616C877.756 967.648 844.154 974.629 809.519 972.561L808.743 972.561C760.667 966.872 718.794 947.22 683.124 913.605L657.535 927.568 656.759 927.568C640.217 936.36 623.157 942.824 605.581 946.961L604.806 946.961C568.62 954.202 535.276 950.582 504.776 936.101L503.225 950.84C501.158 970.492 491.335 985.231 473.759 995.057 449.461 1007.99 424.132 1010.57 397.767 1002.81 367.784 959.89 352.533 921.363 352.017 887.23L397.767 715.018 1305.02 715.018 1305.02 1179.68 1293.39 1179.68 1294.16 1177.35 1297.26 1171.15 1300.36 1168.82 1291.83 1166.49 1291.06 1165.72 1282.53 1203.73 1279.43 1209.16 1275.55 1213.04 1269.35 1216.92 1258.49 1220.02C1238.85 1217.43 1222.82 1207.35 1210.41 1189.77 1206.8 1184.59 1204.99 1179.16 1204.99 1173.47L1204.99 1172.7 1206.54 1166.49C1212.22 1153.05 1221.01 1144 1232.9 1139.34L1248.41 1133.14 1253.06 1132.36C1245.31 1116.33 1245.83 1100.56 1254.61 1085.04L1253.84 1084.27 1253.06 1083.49 1248.41 1078.84 1248.41 1079.61C1248.41 1093.57 1242.72 1105.47 1231.35 1115.3 1221.01 1124.09 1208.35 1128.48 1193.36 1128.48 1178.36 1128.48 1165.7 1124.09 1155.36 1115.3 1143.99 1105.47 1138.3 1093.57 1138.3 1079.61 1138.3 1065.65 1143.99 1053.75 1155.36 1043.93 1165.7 1035.14 1178.36 1030.74 1193.36 1030.74 1208.35 1030.74 1221.01 1035.14 1231.35 1043.93L1234.45 1047.03 1234.45 1039.27 1198.01 1028.41 1160.01 1026.09C1152.77 1037.46 1142.69 1046.77 1129.77 1054.01 1111.16 1063.84 1091.52 1066.42 1070.84 1061.77 1043.96 1056.08 1028.96 1039.53 1025.86 1012.12L1025.86 1011.35C1024.83 1001.52 1025.35 991.954 1027.41 982.645L1026.64 983.421 1032.07 967.13 997.947 958.597 997.172 958.597 995.621 957.822 996.397 974.888 994.07 981.87 989.418 989.627C977.011 1008.24 961.244 1018.07 942.117 1019.1L931.261 1016 915.752 1003.59 910.324 995.057 907.222 972.561 907.222 971.785 912.651 950.065 910.324 951.616M1240.66 889.557 1244.53 891.885 1246.86 891.109 1242.21 887.23 1240.66 889.557" fill="#000000" fill-rule="evenodd" fill-opacity="0.2"/><path d="M449.518 824.011 452.018 827.012 447.017 825.511 449.518 824.011" fill="#5F1B01" fill-rule="evenodd"/><path d="M842.756 609.173 845.084 608.397 840.428 610.726 842.756 609.173M1333.99 403.446 1332.44 398.012 1335.54 400.341 1333.99 403.446M1365.03 477.974 1361.15 475.645 1365.81 477.974 1365.03 477.974M1221.46 842.072 1221.46 840.52 1222.24 840.52 1221.46 842.072M1371.24 980.259 1372.02 980.259 1371.24 980.259M1206.72 1063.33 1213.7 1061 1206.72 1063.33M1238.54 1107.58 1239.31 1108.35 1230 1113.01 1238.54 1107.58M180.016 571.133 180.016 570.357 180.016 577.344 180.016 571.133" fill="#FF6600" fill-rule="evenodd"/><path d="M1003.02 745.412 1000.62 745.412 995.017 747.012 1000.62 743.012 1003.02 745.412" fill="#FEAE85" fill-rule="evenodd"/><path d="M1204.26 797.667 1201.93 794.562 1205.03 795.338 1204.26 797.667M1406.02 726.253 1402.91 724.701 1403.69 723.148 1406.02 726.253M1253.92 401.788 1253.92 401.012 1254.7 401.012 1254.7 401.788 1253.92 401.788M1342.39 979.305 1344.71 977.753 1345.49 978.529 1342.39 979.305M1388.17 1015.01 1387.39 1015.01 1388.17 1015.01M943.524 869.08 943.524 869.856 952.059 876.066 952.836 876.066 969.907 886.157 943.524 869.856 941.196 868.304 943.524 869.08M264.528 603.609 265.304 606.714 254.44 609.818 264.528 603.609M248.232 907.115 250.56 907.115 249.784 907.892 248.232 907.115M197.016 846.57 197.016 847.346 197.016 846.57" fill="#C74601" fill-rule="evenodd"/><path d="M994.234 224.502 1001.22 222.175C1016.21 222.692 1025.01 229.674 1027.59 243.122L1027.59 245.449C1010.01 266.654 996.561 264.327 987.252 238.467 984.666 231.744 986.994 227.089 994.234 224.502M299.922 591.451C359.915 589.382 388.1 617.052 384.481 674.46 383.964 686.356 379.309 697.217 370.517 707.043 323.454 761.865 272.77 767.038 218.467 722.559 206.054 712.215 201.4 698.768 204.503 682.218 209.157 657.393 218.726 637.481 233.206 622.482L265.013 603.863 254.928 610.07 265.789 606.966 299.922 591.451M474.47 849.789 469.815 859.098 464.385 864.528C443.698 868.666 424.045 866.339 405.426 857.546 399.737 833.756 411.374 817.205 440.336 807.896L444.215 806.344 448.094 805.569 453.524 807.12 457.403 809.447 463.609 824.187 473.694 848.237 474.47 849.789M738.231 768.33C730.99 756.952 727.37 742.471 727.37 724.886 727.37 711.439 732.801 699.803 743.661 689.976L755.298 696.182C733.059 684.804 714.182 666.702 698.667 641.877 694.012 634.119 692.202 625.068 693.236 614.724 696.339 588.347 703.839 566.625 715.734 549.558L712.631 550.334C664.016 560.16 636.346 542.059 629.623 496.029 627.555 481.03 628.589 467.065 632.727 454.136L571.441 451.809C526.446 440.948 510.155 418.191 522.568 383.539 531.36 359.749 547.392 342.939 570.665 333.113L597.817 324.579C654.707 321.476 680.824 343.974 676.169 392.073L675.394 395.176 675.394 399.055C704.873 377.333 737.714 365.696 773.916 364.144L795.638 367.248C797.706 356.903 803.137 348.888 811.929 343.198 830.547 332.337 850.459 326.39 871.663 325.355 940.965 325.872 981.046 355.094 991.907 413.019L989.58 430.087C965.789 478.186 932.431 490.339 889.506 466.549 867.784 463.962 849.683 458.791 835.202 451.033L825.893 468.1 804.171 501.459 812.704 500.683C873.731 504.303 918.467 528.871 946.912 574.383 950.532 580.59 952.084 587.572 951.567 595.33 948.981 648.6 925.708 683.252 881.748 699.285L895.712 693.855C904.504 707.302 907.607 725.404 905.021 748.16 902.435 768.848 891.316 782.295 871.663 788.501L780.898 793.156C763.831 789.536 750.902 782.812 742.109 772.985L738.231 768.33M1134.65 479.737C1167.75 485.427 1172.4 497.064 1148.61 514.648L1133.1 520.078C1127.41 521.113 1121.72 519.561 1116.03 515.423L1114.48 513.096 1112.93 511.544 1111.38 509.217C1110.34 498.356 1114.99 489.563 1125.34 482.84L1134.65 479.737M978.719 488.271C1004.58 397.244 1059.4 369.834 1143.18 406.037L1157.15 416.122C1128.7 463.187 1073.36 490.598 991.131 498.356L978.719 488.271M842.96 609.294 840.632 610.845 845.287 608.518 842.96 609.294M1036.13 676.012C1014.92 701.354 1003.03 698.51 1000.44 667.478 999.924 660.755 1000.96 653.773 1003.54 646.532 1022.16 596.881 1057.59 568.436 1109.82 561.195 1150.16 564.815 1161.54 582.658 1143.96 614.724 1138.79 624.551 1130.51 630.757 1119.13 633.343L1085 641.877C1074.14 662.047 1058.36 673.167 1037.68 675.236L1036.13 676.012M1399.96 403.71C1388.58 431.638 1373.84 432.673 1355.74 406.813L1353.41 400.607C1359.62 390.78 1368.67 386.383 1380.57 387.418 1389.88 388.453 1396.08 393.365 1399.18 402.158L1399.96 403.71M1230.84 464.221C1268.6 476.634 1275.32 495.253 1251.01 520.078 1247.39 523.181 1243 523.181 1237.82 520.078L1223.86 514.648C1202.14 494.994 1203.17 478.702 1226.96 465.773L1230.84 464.221M1228.52 337.768C1216.62 319.665 1221.28 307.771 1242.48 302.081 1269.89 316.562 1269.37 329.751 1240.93 341.646 1235.76 343.715 1231.62 342.422 1228.52 337.768M1306.09 573.608C1335.57 588.606 1335.57 605.932 1306.09 625.586L1289.03 626.361C1263.17 612.914 1261.36 598.692 1283.6 583.693 1290.84 579.038 1298.33 575.676 1306.09 573.608M1192.83 571.28C1223.86 579.555 1225.67 590.675 1198.26 604.639 1189.99 608.26 1183.78 606.191 1179.64 598.433 1171.37 583.434 1175.76 574.383 1192.83 571.28M1476.76 532.491 1487.62 528.612C1497.45 529.647 1503.65 534.559 1506.24 543.352L1507.02 545.679C1494.09 573.608 1482.45 572.832 1472.11 543.352 1471.07 538.697 1472.62 535.077 1476.76 532.491M1461.25 765.228C1492.79 779.191 1492.79 794.19 1461.25 810.223 1444.7 818.498 1433.58 814.102 1427.89 797.035 1421.68 777.899 1429.7 767.555 1451.94 766.003L1461.25 765.228M1346.43 854.443C1379.53 859.098 1386 873.321 1365.83 897.111 1360.14 903.834 1353.16 905.645 1344.88 902.542 1316.95 892.198 1314.89 877.458 1338.67 858.322L1346.43 854.443M1303.77 707.043 1307.64 706.267C1342.81 722.3 1344.36 740.402 1312.3 760.573 1304.02 765.745 1294.97 766.779 1285.15 763.676 1254.63 753.332 1251.79 738.333 1276.61 718.68 1284.37 712.991 1293.42 709.112 1303.77 707.043M1184.3 849.789C1217.91 853.408 1223.86 866.339 1202.14 888.578 1197.49 893.233 1191.8 895.301 1185.07 894.784 1155.08 892.716 1148.61 881.079 1165.68 859.874 1170.33 853.667 1176.54 850.305 1184.3 849.789M1000.44 743.505 1004.32 741.178 1005.1 738.075C1007.16 732.903 1011.04 729.541 1016.73 727.99 1042.59 705.75 1074.4 694.631 1112.15 694.631 1154.04 707.043 1162.32 729.282 1136.98 761.349 1106.98 799.104 1070.78 811.775 1028.37 799.362L1021.39 794.707C1001.22 783.329 995.01 767.038 1002.77 745.833L1000.44 743.505M652.896 259.413C643.07 237.174 653.672 224.762 684.703 222.175L691.685 221.4C711.855 219.331 726.594 225.538 735.903 240.018L736.679 241.57C724.267 261.74 703.321 269.757 673.842 265.619L652.896 259.413M486.882 477.41C522.051 486.719 542.737 508.7 548.944 543.352L537.307 550.334 572.217 533.266C642.552 529.128 678.238 559.385 679.273 624.034 679.273 633.343 676.686 642.136 671.515 650.411L654.448 673.684C681.859 692.821 693.236 724.369 688.582 768.33 685.995 790.57 673.842 805.569 652.121 813.326 579.715 838.152 531.617 815.912 507.828 746.608 500.07 723.335 503.173 702.906 517.137 685.321L526.446 690.752 504.725 676.788C496.45 670.581 492.053 662.047 491.537 651.186L492.312 632.567C460.247 647.049 425.596 643.17 388.36 620.931 373.879 612.656 366.121 600.243 365.087 583.693 363.535 560.936 368.449 539.731 379.826 520.078 364.311 519.043 347.76 515.423 330.177 509.217 312.593 503.527 301.474 491.374 296.819 472.755 288.545 441.723 298.371 418.709 326.298 403.71L334.056 395.176C349.571 380.177 368.19 372.937 389.911 373.454 445.766 362.593 484.814 379.401 507.052 423.88 511.707 433.706 510.931 443.534 504.725 453.36L486.882 477.41M432.578 322.252C410.34 300.013 413.701 283.722 442.664 273.377 473.694 287.341 476.022 304.15 449.645 323.803L432.578 322.252M225.449 569.729C215.104 575.935 207.089 574.383 201.4 565.074 188.987 545.421 194.677 532.75 218.467 527.06 250.532 539.473 252.86 553.696 225.449 569.729M449.645 824.187 447.318 825.739 451.972 827.291 449.645 824.187" fill="#FFFFFF" fill-rule="evenodd"/><path d="M994.515 224.046C987.274 226.635 984.947 231.294 987.533 238.022 996.842 263.904 1010.29 266.233 1027.87 245.01L1027.87 242.68C1025.29 229.222 1016.5 222.234 1001.5 221.717L994.515 224.046M370.011 359.921C363.288 344.91 365.873 328.347 377.769 310.23 397.422 280.209 424.315 263.644 458.45 260.538 504.48 263.644 528.529 282.538 530.598 317.218L652.395 304.018 638.431 305.571 636.104 303.242C613.865 277.361 616.45 252.515 643.862 228.705 658.343 216.799 674.376 210.33 691.96 209.294 702.304 208.258 712.13 210.071 721.44 214.729L723.767 215.506C769.28 213.953 786.347 233.88 774.969 275.291 772.9 282.538 770.055 289.266 766.435 295.478L938.659 286.937 959.605 286.937 962.708 290.043 963.484 291.595 963.484 294.701C966.587 311.266 973.828 316.958 985.206 311.783L985.206 309.453 974.345 300.136 975.896 292.372 972.017 283.055 970.466 280.725C968.397 273.478 968.397 264.938 970.466 255.104 975.638 228.705 992.446 214.212 1020.89 211.623 1061.75 217.318 1077.01 240.61 1066.66 281.502L1058.13 302.465C1101.57 314.371 1137 339.217 1164.41 377.003L1165.96 377.003 1165.96 377.779 1165.96 379.332C1170.62 382.438 1175.79 385.026 1181.48 387.096 1188.2 391.755 1195.7 394.861 1203.98 396.413L1205.53 395.637 1206.3 394.861 1205.53 394.084C1194.15 389.943 1185.1 383.473 1178.38 374.673 1172.17 362.251 1174.5 347.239 1185.36 329.64 1200.87 304.278 1222.59 291.336 1250.52 290.819 1294.48 302.725 1305.86 329.381 1284.66 370.791L1276.12 384.767 1269.92 384.767 1254.4 401.072 1254.4 401.848 1241.99 404.178 1251.3 407.283 1248.2 416.6 1248.2 418.153 1248.2 419.706C1247.16 424.365 1248.45 428.506 1252.07 432.129 1269.66 450.763 1289.83 462.669 1312.59 467.845L1311.81 467.845 1329.65 473.28 1325.77 475.609 1314.14 483.373 1313.36 487.255 1313.36 492.691 1314.14 494.243 1318.79 499.678 1321.89 503.561 1321.89 512.878 1325 517.536C1315.17 524.784 1304.57 531.252 1293.19 536.947L1293.19 538.5 1292.42 545.488 1293.97 549.37 1330.43 550.923C1339.74 561.275 1350.6 562.052 1363.01 553.252L1368.44 554.028 1371.54 554.028 1373.1 552.475C1381.89 522.971 1375.68 499.938 1354.48 483.373 1396.37 503.043 1425.85 530.995 1442.92 567.227 1448.09 540.829 1464.9 525.041 1493.34 519.866 1526.96 533.841 1538.08 554.287 1526.7 581.203 1504.98 590.521 1481.45 592.332 1456.1 586.638 1443.69 593.367 1439.81 603.72 1444.47 617.696L1450.67 625.46 1450.67 623.907 1449.9 629.342 1449.9 638.659C1437.49 645.388 1427.4 654.447 1419.64 665.834L1411.11 668.94 1402.58 678.257 1394.82 678.257 1376.2 667.387 1370.77 665.057 1367.67 665.834 1377.75 652.635C1384.99 639.694 1384.99 627.013 1377.75 614.59L1373.1 623.13 1370.77 626.236 1343.62 665.834 1342.84 669.716 1343.62 672.822 1352.15 675.928 1349.05 682.915 1350.6 683.692C1354.74 686.28 1358.87 688.092 1363.01 689.127L1364.56 690.68 1375.42 703.879C1383.18 713.714 1392.49 720.702 1403.35 724.843L1406.45 726.396 1418.09 748.135 1439.04 741.924C1483.52 741.924 1508.6 760.817 1514.29 798.603L1510.41 793.945 1506.53 797.827 1500.32 824.226 1485.58 831.213C1456.1 842.083 1426.88 842.601 1397.92 832.766L1380.08 800.932 1300.17 825.778 1231.13 777.64 1216.39 799.38 1210.96 795.498 1205.53 795.498 1202.42 794.721 1204.75 797.827C1188.72 813.356 1161.82 831.99 1124.07 853.73 1086.32 875.47 1035.89 860.977 972.793 810.25L972.017 769.875 963.484 759.782 919.264 848.295C854.616 866.929 791.519 863.823 729.973 838.978L729.198 821.12C728.681 804.038 733.077 787.992 742.386 772.981 751.178 782.816 764.108 789.545 781.175 793.168L871.941 788.51C891.595 782.298 902.714 768.84 905.3 748.135 907.886 725.36 904.783 707.244 895.991 693.786L882.027 699.22C925.988 683.174 949.261 648.494 951.847 595.179 952.364 587.415 950.813 580.427 947.192 574.215 918.747 528.666 874.01 504.078 812.982 500.455L804.449 501.231 826.17 467.845 835.48 450.763C849.961 458.528 868.063 463.703 889.784 466.292 932.711 490.102 966.07 477.939 989.86 429.8L992.188 412.718C981.327 354.746 941.245 325.499 871.941 324.982 850.737 326.018 830.825 331.97 812.206 342.84 803.414 348.534 797.984 356.556 795.915 366.909L774.193 363.803C737.99 365.356 705.149 377.003 675.669 398.743L675.669 394.861 676.445 391.755C681.099 343.616 654.982 321.1 598.091 324.206L570.938 332.746C547.665 342.58 531.633 359.404 522.84 383.214 510.428 417.894 526.719 440.67 571.714 451.54L633.001 453.869C628.863 466.809 627.83 480.785 629.898 495.796 636.62 541.865 664.291 559.981 712.906 550.146L716.01 549.37C704.114 566.451 696.615 588.191 693.512 614.59 692.478 624.942 694.288 634 698.942 641.765 714.458 666.611 733.335 684.727 755.574 696.115L743.938 689.903C733.077 699.738 727.646 711.385 727.646 724.843 727.646 742.442 731.266 756.935 738.507 768.323L711.355 778.416 698.942 807.92 686.53 810.25 680.324 825.778C657.05 845.448 630.414 857.871 600.418 863.047 569.904 867.705 536.545 855.542 500.342 826.555L479.396 806.368 485.602 825.002 463.881 824.226 457.674 809.473 453.795 807.144 448.365 805.591 444.486 806.368 440.607 807.92C411.644 817.238 400.007 833.801 405.697 857.612 424.315 866.412 443.969 868.741 464.656 864.6L470.087 859.165 474.742 849.847 490.257 860.717 489.481 860.717 489.481 861.494C483.792 878.058 473.706 889.705 459.226 896.433L434.401 904.974 405.697 900.316 390.181 845.965 436.728 779.193 439.056 775.311 463.881 783.075C450.433 758.746 443.193 728.983 442.158 693.786L430.522 701.55 421.988 764.441 352.168 826.555 331.222 826.555C267.091 838.978 219.25 816.461 187.702 759.005L182.272 745.806C165.721 701.291 177.617 663.764 217.958 633.224L233.474 622.354C218.993 637.365 209.424 657.293 204.77 682.139 201.666 698.703 206.321 712.161 218.733 722.513 273.038 767.029 323.723 761.852 370.787 706.985 379.579 697.15 384.234 686.28 384.751 674.375 388.371 616.919 360.185 589.226 300.19 591.297L318.033 579.651 318.809 577.321 320.361 574.215 321.913 573.439 327.343 571.11 329.67 568.004 331.222 564.122C321.396 559.463 310.017 557.652 297.087 558.687L295.536 557.134C291.916 548.852 286.743 541.606 280.02 535.394L276.917 534.618 274.59 533.841 270.711 536.17C268.643 465.256 294.243 411.425 347.513 374.673L363.805 376.226 449.916 369.238 451.468 366.133 455.347 360.698C464.656 359.145 472.673 355.522 479.396 349.828L477.844 348.275 468.535 342.064 456.123 344.393 366.908 346.722 370.011 359.921M989.86 306.348 1010.81 328.864 1024.77 328.864 1034.86 317.994 1053.47 313.336 996.842 291.595 989.86 306.348M978.999 488.032 991.412 498.125C1073.64 490.361 1128.98 462.927 1157.43 415.824L1143.47 405.731C1059.68 369.498 1004.86 396.931 978.999 488.032M1134.93 479.491 1125.62 482.597C1115.28 489.325 1110.62 498.125 1111.66 508.996L1113.21 511.325 1114.76 512.878 1116.31 515.207C1122 519.348 1127.69 520.901 1133.38 519.866L1148.9 514.43C1172.69 496.832 1168.03 485.185 1134.93 479.491M1015.46 597.508 1027.87 580.427 1034.86 577.321 1058.9 566.451 1055.8 564.122 1042.61 561.016 1041.84 558.687 1041.06 557.134 1039.51 555.581 1035.63 554.028 1004.6 548.593 1004.6 549.37 998.394 550.923 995.291 554.028 994.515 555.581 996.066 562.569 994.515 561.016 992.964 563.345 994.515 578.098C995.549 584.827 997.359 591.297 999.945 597.508 998.394 602.167 999.945 605.014 1004.6 606.049L1006.15 605.273 1008.48 603.72 1015.46 597.508M1036.41 675.928 1037.96 675.151C1058.65 673.081 1074.42 661.952 1085.28 641.765L1119.42 633.224C1130.79 630.636 1139.07 624.425 1144.24 614.59 1161.82 582.497 1150.45 564.64 1110.11 561.016 1057.87 568.263 1022.44 596.732 1003.82 646.423 1001.24 653.67 1000.2 660.658 1000.72 667.387 1003.31 698.444 1015.2 701.291 1036.41 675.928M1234.23 709.314 1234.23 708.538 1236.56 695.338 1244.32 686.021 1243.54 684.468 1238.11 679.81 1189.24 683.692C1184.58 667.128 1174.24 655.741 1158.2 649.529L1154.33 650.305 1145.02 657.293C1143.47 662.47 1144.24 667.646 1147.34 672.822 1156.14 686.798 1165.19 693.786 1174.5 693.786L1172.94 691.456 1190.01 704.656 1214.06 724.066 1222.59 717.078 1231.13 713.196 1234.23 709.314M1400.25 403.401 1399.47 401.848C1396.37 393.048 1390.16 388.132 1380.85 387.096 1368.96 386.061 1359.91 390.461 1353.7 400.295L1356.03 406.507C1374.13 432.388 1388.87 431.352 1400.25 403.401M1334.31 403.401 1340.51 391.755C1349.31 377.779 1361.98 370.532 1378.53 370.015 1413.18 375.709 1432.31 391.495 1435.93 417.377 1428.18 425.658 1423.52 436.27 1421.97 449.21 1408.01 454.386 1393.78 454.386 1379.3 449.21 1374.13 443.516 1367.67 440.929 1359.91 441.446L1333.53 422.812 1334.31 403.401M1200.87 447.658 1211.73 440.67 1212.51 436.788 1214.84 433.682C1222.08 432.129 1227.51 428.247 1231.13 422.036L1231.13 420.483 1229.58 420.483 1183.03 424.365C1179.41 426.954 1178.38 429.54 1179.93 432.129L1191.56 436.788C1192.6 442.482 1195.7 446.105 1200.87 447.658M1306.38 573.439C1298.62 575.51 1291.12 578.874 1283.88 583.533 1261.64 598.544 1263.45 612.778 1289.31 626.236L1306.38 625.46C1335.86 605.79 1335.86 588.45 1306.38 573.439M1228.8 337.405C1231.9 342.064 1236.04 343.357 1241.21 341.287 1269.66 329.381 1270.18 316.182 1242.77 301.689 1221.56 307.383 1216.91 319.288 1228.8 337.405M1231.13 463.963 1227.25 465.515C1203.46 478.455 1202.42 494.76 1224.15 514.43L1238.11 519.866C1243.28 522.971 1247.68 522.971 1251.3 519.866 1275.61 495.02 1268.88 476.385 1231.13 463.963M1217.16 547.817 1217.16 546.264 1215.61 544.711C1204.75 537.464 1192.86 533.841 1179.93 533.841L1171.39 536.947 1164.41 543.935 1164.41 545.488 1164.41 550.923 1164.41 553.252C1177.34 559.463 1191.56 563.086 1207.08 564.122L1215.61 558.687 1217.16 555.581 1217.94 553.252 1217.16 547.817M1193.11 571.11C1176.05 574.215 1171.65 583.274 1179.93 598.285 1184.06 606.049 1190.27 608.119 1198.55 604.496 1225.96 590.521 1224.15 579.392 1193.11 571.11M1477.05 532.288C1472.91 534.877 1471.36 538.5 1472.4 543.158 1482.74 572.663 1494.38 573.439 1507.31 545.488L1506.53 543.158C1503.94 534.358 1497.74 529.442 1487.91 528.406L1477.05 532.288M1346.72 854.506 1338.96 858.388C1315.17 877.54 1317.24 892.292 1345.17 902.645 1353.44 905.75 1360.42 903.938 1366.11 897.21 1386.28 873.4 1379.82 859.165 1346.72 854.506M1461.54 765.217 1452.23 765.993C1429.99 767.546 1421.97 777.898 1428.18 797.05 1433.87 814.132 1444.98 818.532 1461.54 810.25 1493.08 794.204 1493.08 779.193 1461.54 765.217M1336.63 835.095 1371.54 837.425 1374.65 843.636 1383.96 853.73 1397.92 864.6 1400.25 943.019C1372.84 946.642 1347.5 943.278 1324.22 932.925L1320.34 921.279 1303.28 906.527 1302.5 894.104C1304.05 868.223 1315.43 848.554 1336.63 835.095M1304.05 706.985C1293.71 709.055 1284.66 712.937 1276.9 718.631 1252.07 738.301 1254.92 753.312 1285.43 763.664 1295.26 766.77 1304.31 765.734 1312.59 760.558 1344.65 740.371 1343.1 722.255 1307.93 706.208L1304.05 706.985M1184.58 849.847C1176.82 850.365 1170.62 853.73 1165.96 859.941 1148.9 881.164 1155.36 892.81 1185.36 894.88 1192.08 895.398 1197.77 893.328 1202.42 888.669 1224.15 866.412 1218.2 853.471 1184.58 849.847M1221.82 840.53 1221.82 842.083C1231.13 846.224 1238.37 852.436 1243.54 860.717L1262.16 856.059 1262.16 857.612 1261.38 862.271 1260.61 880.905 1262.94 892.551 1275.35 921.279 1264.49 925.938 1238.11 908.08 1210.96 938.36 1207.08 969.418 1199.32 964.759 1200.1 965.535 1152 962.43 1142.69 943.019 1143.47 923.608 1139.59 904.974 1120.97 895.657 1117.86 886.34C1122.52 856.318 1146.05 839.236 1188.46 835.095L1221.82 840.53M1282.33 963.206 1308.71 976.405 1315.69 984.17 1315.69 1002.8 1293.19 1015.23 1272.24 1013.67 1260.61 990.381 1282.33 963.206M1203.2 998.922C1195.44 1006.17 1191.82 1016.52 1192.34 1029.98 1188.2 1038.26 1182.25 1043.44 1174.5 1045.51L1169.84 1039.3C1164.15 1034.12 1158.98 1031.79 1154.33 1032.31L1155.1 1022.99C1156.65 1013.67 1162.08 1006.95 1171.39 1002.8L1180.7 999.698 1203.2 998.922M1295.52 1044.73 1310.26 1040.85 1299.4 1075.01 1281.55 1064.14 1282.33 1046.28 1288.54 1043.95 1295.52 1044.73M1387.84 1015.23 1386.28 1022.21C1370.77 1029.46 1362.49 1039.56 1361.46 1052.5 1356.8 1042.14 1360.17 1031.27 1371.54 1019.89 1375.16 1016.26 1379.3 1014.19 1383.96 1013.67L1387.84 1015.23M1003.05 745.806C995.291 767.029 1001.5 783.334 1021.67 794.721L1028.65 799.38C1071.06 811.802 1107.26 799.121 1137.26 761.335 1162.6 729.242 1154.33 706.985 1112.43 694.562 1074.68 694.562 1042.87 705.691 1017.01 727.948 1011.32 729.501 1007.44 732.866 1005.38 738.042L1004.6 741.148 1000.72 743.477 995.291 747.359 1000.72 745.806 1003.05 745.806M956.502 888.669C988.567 906.786 989.343 927.231 958.829 950.007 945.382 959.841 934.263 957.771 925.47 943.795 917.713 931.373 918.488 918.173 927.798 904.198 934.521 893.328 944.089 888.152 956.502 888.669M1102.35 910.409 1113.99 920.503C1117.6 930.855 1117.09 939.913 1112.43 947.677 1104.16 961.136 1092.78 968.901 1078.3 970.971L1053.47 957.771 1053.47 932.149 1102.35 910.409M180.72 570.333 180.72 571.11 183.823 552.475C188.478 534.877 200.115 524.524 218.733 521.418L229.594 519.089C247.696 523.23 260.626 529.7 268.384 538.5L268.384 545.488 266.056 547.817 262.953 550.923 262.177 554.805 262.177 558.687C249.765 579.91 231.663 589.744 207.873 588.191L203.218 584.309C195.46 576.027 187.961 571.369 180.72 570.333M679.548 300.913 675.669 298.583 671.79 297.031C668.687 297.031 666.359 298.583 664.808 301.689L664.808 304.018 667.911 310.23 695.839 336.628 704.373 335.852 706.7 334.299 708.252 332.746 709.803 324.982 710.579 323.429 717.561 316.441 719.888 314.888 728.422 311.783 729.973 311.006 731.525 309.453 733.077 304.018 732.301 301.689 731.525 300.136C726.353 293.925 719.371 292.372 710.579 295.478L702.821 298.583 700.494 300.136 683.426 300.136 679.548 300.913M432.849 321.876 449.916 323.429C476.293 303.759 473.966 286.937 442.934 272.961 413.971 283.314 410.611 299.619 432.849 321.876M487.154 477.162 504.997 453.093C511.203 443.258 511.979 433.422 507.324 423.588 485.086 379.073 446.038 362.251 390.181 373.121 368.459 372.603 349.841 379.849 334.325 394.861L326.567 403.401C298.639 418.413 288.813 441.446 297.087 472.503 301.742 491.138 312.862 503.301 330.446 508.996 348.03 515.207 364.58 518.83 380.096 519.866 368.719 539.535 363.805 560.758 365.356 583.533 366.391 600.096 374.149 612.519 388.63 620.801 425.867 643.059 460.518 646.941 492.585 632.448L491.809 651.082C492.325 661.952 496.722 670.493 504.997 676.704L526.719 690.68 517.409 685.245C503.445 702.844 500.342 723.29 508.1 746.583 531.89 815.943 579.989 838.201 652.395 813.356 674.117 805.591 686.271 790.58 688.857 768.323 693.512 724.325 682.134 692.75 654.723 673.599L671.79 650.305C676.961 642.024 679.548 633.224 679.548 623.907 678.513 559.204 642.827 528.923 572.49 533.065L537.58 550.146 549.216 543.158C543.01 508.478 522.323 486.479 487.154 477.162M653.171 258.986 674.117 265.197C703.597 269.338 724.543 261.315 736.955 241.128L736.18 239.575C726.87 225.082 712.13 218.871 691.96 220.941L684.978 221.717C653.947 224.306 643.345 236.728 653.171 258.986M259.074 343.616 259.85 342.84 277.693 333.523 285.451 331.97 311.052 346.722 307.172 360.698C285.967 365.356 269.935 359.662 259.074 343.616M225.716 569.557C253.127 553.511 250.8 539.276 218.733 526.854 194.943 532.548 189.254 545.229 201.666 564.898 207.356 574.215 215.371 575.768 225.716 569.557M701.269 672.045 686.53 667.387 674.117 677.481 684.978 699.22 720.664 713.972 721.44 709.314 701.269 672.045M567.835 519.866 619.812 519.089C607.917 515.983 588.265 507.183 560.853 492.691L567.835 519.866M251.316 907.303C278.209 908.856 293.984 917.397 298.639 932.925L245.11 943.019 242.007 938.36 234.249 925.161 235.801 923.608 250.541 908.08 251.316 907.303M152.016 831.99C155.119 824.226 163.394 818.79 176.841 815.685 196.495 826.037 203.477 836.39 197.788 846.742 171.927 858.647 156.671 853.73 152.016 831.99" fill="#DDDDDD" fill-rule="evenodd"/><path d="M369.785 360.226 366.684 347.048 455.863 344.723 468.271 342.397 477.576 348.599 479.127 350.149C472.407 355.834 464.393 359.451 455.088 361.001L451.21 366.428 449.659 369.528 363.582 376.505 347.297 374.954 370.561 360.226 369.785 360.226M270.525 536.189 274.402 533.863 276.729 534.639 279.831 535.414C286.551 541.615 291.722 548.85 295.34 557.119L296.891 558.669C309.815 557.635 321.19 559.444 331.012 564.095L329.461 567.971 327.134 571.071 321.706 573.397 320.155 574.172 318.604 577.273 317.829 579.599 299.993 591.226 265.872 606.729 265.096 603.629 275.178 598.202 278.28 596.652 274.402 573.397 265.096 592.776C257.858 606.212 245.969 612.931 229.425 612.931L204.61 609.055 189.875 600.528 180.57 577.273 180.57 570.296C187.808 571.33 195.304 575.981 203.058 584.25L207.711 588.125C231.492 589.676 249.587 579.857 261.995 558.669L261.995 554.793 262.77 550.917 265.872 547.817 268.198 545.491 268.198 538.515 271.3 542.39 270.525 536.189M187.549 758.662C219.085 816.024 266.907 838.504 331.012 826.102L351.949 826.102 421.742 764.088 430.272 701.3 441.905 693.548C442.939 728.689 450.176 758.403 463.618 782.692L438.803 774.941 444.231 776.491 444.231 757.112 441.905 754.011 436.476 747.034 434.15 747.034 434.15 766.414 433.374 783.467 436.476 778.816 389.948 845.481 405.457 899.742 434.15 904.393 458.965 895.866C473.44 889.149 483.521 877.522 489.208 860.984 493.345 932.299 462.326 954.263 396.151 926.873 381.677 920.672 374.955 909.561 375.989 893.541L379.867 859.434C286.81 885.273 222.705 851.682 187.549 758.662M489.984 860.209 474.474 849.356 498.514 865.635 473.699 827.652 472.148 828.427 473.699 847.806 463.618 823.776 485.331 824.551 479.127 805.947 500.065 826.102C536.253 855.042 569.599 867.185 600.101 862.534 630.085 857.367 656.71 844.964 679.975 825.326L686.179 809.823 698.586 807.497 710.994 778.041 738.135 767.964 742.013 772.615C732.707 787.602 728.313 803.622 728.83 820.675L729.605 838.504C791.126 863.31 854.198 866.41 918.821 847.806L963.023 759.437 971.553 769.514 972.328 809.823C1035.4 860.468 1085.81 874.937 1123.55 853.232 1161.28 831.528 1188.17 812.924 1204.19 797.42L1204.97 795.095 1210.4 795.095 1215.83 798.971 1230.56 777.266 1299.58 825.326 1379.45 800.521 1397.29 832.303C1426.24 842.122 1455.45 841.605 1484.92 830.753L1499.65 823.776 1505.85 797.42 1509.73 793.544 1513.61 798.195C1516.71 849.873 1493.19 881.138 1443.04 891.991L1432.96 885.789 1432.18 883.464 1422.1 871.061C1417.97 870.027 1416.67 871.061 1418.23 874.162L1425.98 899.742 1432.18 905.169C1438.9 924.289 1436.84 943.668 1425.98 963.306 1415.64 981.91 1397.55 987.336 1371.7 979.584L1370.92 979.584 1362.39 973.383 1355.41 975.709 1333.7 953.229 1330.6 953.229 1344.56 977.259 1342.23 978.809 1340.68 1009.04 1336.03 1028.42C1352.05 1043.41 1354.9 1061.49 1344.56 1082.68 1338.87 1093.53 1330.6 1101.54 1319.74 1106.71 1269.08 1103.09 1254.08 1078.81 1274.76 1033.85L1263.91 1017.57C1257.7 1009.82 1253.83 1001.81 1252.27 993.537 1265.72 978.034 1268.04 962.531 1259.25 947.027 1249.43 955.295 1242.19 965.632 1237.54 978.034L1222.81 975.709 1206.52 968.732 1210.4 937.725 1237.54 907.494 1263.91 925.323 1274.76 920.672 1262.36 891.991 1260.03 880.363 1260.8 861.759C1276.83 863.826 1289.76 858.917 1299.58 847.031L1295.7 843.931 1283.29 840.054 1282.52 839.279 1280.97 837.729 1278.64 834.628 1272.44 833.853 1259.25 833.078 1258.48 833.853 1235.21 821.451 1222.03 840.054 1221.26 840.054 1187.91 834.628C1145.52 838.763 1121.99 855.817 1117.34 885.789L1120.44 895.092 1139.06 904.393 1142.93 922.997 1142.16 942.376 1151.46 961.755C1107.52 1013.95 1072.62 1011.37 1046.77 954.004 1043.67 946.252 1044.19 938.242 1048.32 929.974 1060.73 906.719 1081.67 894.316 1111.14 892.766L1112.69 904.393 1112.69 882.689C1064.61 909.044 1017.05 910.078 970.002 885.789L972.328 881.138 971.553 876.487 966.125 854.007 963.798 851.682 967.675 828.427 966.9 826.102 956.819 819.125 952.166 824.551 943.636 868.735 941.309 867.961C856.524 925.839 775.617 922.739 698.586 858.659 707.892 847.806 711.769 833.853 710.218 816.8L686.954 847.806 685.403 846.256C648.18 880.88 603.978 894.833 552.797 888.115L515.574 875.712 489.984 860.209M1402.72 724.555C1391.86 720.42 1382.55 713.444 1374.8 703.625L1363.94 690.447 1362.39 688.897C1358.26 687.863 1354.12 686.055 1349.98 683.471L1348.43 682.696 1351.54 675.719 1343 672.619 1342.23 669.518 1343 665.642 1370.15 626.109 1372.47 623.008 1377.13 614.481C1384.36 626.883 1384.36 639.545 1377.13 652.464L1367.04 665.642 1370.15 664.867 1375.57 667.192 1394.19 678.044 1401.94 678.044 1410.47 668.742 1419 665.642C1426.76 654.273 1436.84 645.229 1449.24 638.511L1449.24 629.209 1450.02 623.783 1450.02 625.333 1443.82 617.582C1439.16 603.629 1443.04 593.293 1455.45 586.575 1480.78 592.26 1504.3 590.451 1526.02 581.149L1512.06 602.853C1498.1 621.458 1484.4 628.434 1470.96 623.783 1467.34 622.749 1463.98 620.941 1460.88 618.357L1456.22 614.481 1457 618.357C1461.14 647.296 1459.33 680.112 1451.57 716.803L1403.49 723.004 1402.72 724.555M1353.86 483.478C1375.06 500.015 1381.26 523.011 1372.47 552.468L1370.92 554.018 1367.82 554.018 1362.39 553.243C1349.98 562.028 1339.13 561.253 1329.82 550.917L1293.37 549.367 1291.82 545.491 1292.6 538.515 1292.6 536.964C1303.97 531.279 1314.57 524.82 1324.39 517.585L1321.29 512.934 1321.29 503.632 1318.19 499.756 1313.54 494.33 1312.76 492.78 1312.76 487.353 1313.54 483.478 1325.17 475.726 1329.05 473.4 1344.56 479.602 1353.86 483.478M1311.99 467.974C1289.24 462.807 1269.08 450.921 1251.5 432.317 1247.88 428.7 1246.59 424.565 1247.62 419.914L1247.62 418.364 1247.62 416.813 1250.72 407.511 1260.8 407.511 1261.58 408.287 1262.36 406.736 1263.91 405.961 1264.68 405.961 1264.68 404.411 1264.68 403.636 1267.78 400.535C1276.05 393.817 1285.1 389.941 1294.93 388.908 1310.95 389.941 1323.36 393.042 1332.15 398.209L1333.7 403.636 1332.92 423.015 1359.29 441.619C1367.04 441.102 1373.51 443.685 1378.68 449.37 1393.15 454.538 1407.37 454.538 1421.33 449.37 1422.88 436.451 1427.53 425.857 1435.29 417.589 1436.32 426.89 1435.29 437.743 1432.18 450.146L1431.41 452.471 1431.41 453.246C1426.76 469.266 1418.74 479.343 1407.37 483.478L1374.02 481.152 1364.72 478.051 1365.49 478.051 1360.84 475.726 1343 465.649 1342.23 464.874 1337.58 460.223 1326.72 464.874 1312.76 467.974 1311.99 467.974M1253.83 401.31 1269.33 385.031 1275.54 385.031 1254.6 401.31 1253.83 401.31M989.389 306.74 996.368 292.011 1052.98 313.716 1034.37 318.367 1024.28 329.219 1010.33 329.219 989.389 306.74M994.042 578.048 992.491 563.32 994.042 560.994 995.592 562.545 994.042 555.568 994.817 554.018 997.919 550.917 1004.12 549.367 1004.12 548.592 1035.14 554.018 1039.02 555.568 1040.57 557.119 1041.35 558.669 1042.12 560.994 1055.3 564.095 1058.41 566.421 1034.37 577.273 1027.39 580.373 1014.98 597.427 1021.18 589.676 1021.18 586.575 1018.86 585.025 994.042 578.048M1189.46 704.4 1172.4 691.222 1173.95 693.548C1164.65 693.548 1155.6 686.571 1146.81 672.619 1143.71 667.451 1142.93 662.283 1144.48 657.115L1153.79 650.139 1157.67 649.363C1173.69 655.565 1184.03 666.934 1188.69 683.471L1237.54 679.595 1242.97 684.246 1243.74 685.796 1235.99 695.098 1233.66 708.276 1233.66 709.051 1206.52 700.524 1203.42 700.524 1189.46 704.4M1200.32 447.82C1195.15 446.27 1192.05 442.653 1191.01 436.968L1179.38 432.317C1177.83 429.732 1178.86 427.149 1182.48 424.565L1229.01 420.689 1230.56 420.689 1230.56 422.24C1226.94 428.441 1221.51 432.317 1214.28 433.867L1211.95 436.968 1211.17 440.843 1200.32 447.82M1216.6 547.817 1217.38 553.243 1216.6 555.568 1215.05 558.669 1206.52 564.095C1191.01 563.061 1176.79 559.444 1163.87 553.243L1163.87 550.917 1163.87 545.491 1163.87 543.941 1170.85 536.964 1179.38 533.863C1192.3 533.863 1204.19 537.481 1215.05 544.716L1216.6 546.266 1216.6 547.817M1336.03 834.628C1314.83 848.065 1303.46 867.702 1301.9 893.541L1302.68 905.944 1319.74 920.672 1323.62 932.299C1346.88 942.635 1372.21 945.993 1399.61 942.376L1397.29 864.084 1383.33 853.232 1374.02 843.155 1370.92 836.954 1336.03 834.628M1281.74 962.531 1260.03 989.662 1271.66 1012.92 1292.6 1014.47 1315.09 1002.06 1315.09 983.46 1308.11 975.709 1281.74 962.531M1202.64 998.188 1223.58 1005.17C1233.4 1012.4 1234.7 1025.84 1227.46 1045.47 1224.87 1052.19 1220.22 1057.1 1213.5 1060.2L1206.52 1062.53 1205.75 1062.53C1170.59 1069.76 1153.27 1059.43 1153.79 1031.52 1158.44 1031 1163.61 1033.33 1169.3 1038.5L1173.95 1044.7C1181.71 1042.63 1187.65 1037.46 1191.79 1029.2 1191.27 1015.76 1194.89 1005.42 1202.64 998.188M1294.93 1043.92 1287.95 1043.15 1281.74 1045.47 1280.97 1063.3 1298.8 1074.16 1309.66 1040.05 1294.93 1043.92M1360.84 1051.68C1361.88 1038.76 1370.15 1028.68 1385.66 1021.44L1387.21 1014.47 1387.98 1014.47C1417.97 1023.77 1422.62 1041.08 1401.94 1066.4 1394.7 1074.67 1386.69 1075.71 1377.9 1069.5L1360.84 1051.68M1101.83 909.82 1052.98 931.524 1052.98 957.105 1077.79 970.283C1092.27 968.216 1103.64 960.464 1111.91 947.027 1116.57 939.276 1117.08 930.233 1113.46 919.897L1101.83 909.82M1346.11 1169.5 1344.56 1171.05C1333.18 1179.32 1323.62 1177.25 1315.86 1164.85 1297.77 1137.98 1306.3 1122.22 1341.45 1117.56L1354.64 1126.09C1365.49 1135.91 1366.53 1146.76 1357.74 1158.65L1356.19 1160.2 1355.41 1160.97 1354.64 1162.52 1353.86 1163.3 1352.31 1164.85 1349.21 1167.17 1347.66 1168.73 1346.11 1169.5M1229.79 1112.14 1239.09 1107.49 1238.32 1106.71 1239.87 1105.16C1244 1102.58 1248.4 1100.77 1253.05 1099.74L1275.54 1113.69 1267.01 1151.67 1249.95 1154C1233.92 1147.28 1224.36 1140.3 1221.26 1133.07L1220.48 1129.97 1220.48 1125.32 1221.26 1124.54C1221.77 1120.41 1224.62 1116.27 1229.79 1112.14M679.199 301.313 683.077 300.538 700.137 300.538 702.464 298.988 710.218 295.887C719.007 292.787 725.986 294.337 731.156 300.538L731.931 302.089 732.707 304.414 731.156 309.84 729.605 311.39 728.054 312.166 719.524 315.267 717.198 316.817 710.218 323.793 709.443 325.344 707.892 333.095 706.341 334.646 704.014 336.196 695.484 336.971 667.567 310.616 664.465 304.414 664.465 302.089C666.016 298.988 668.343 297.438 671.445 297.438L675.322 298.988 679.199 301.313M310.85 347.048 317.829 356.35C322.998 365.652 320.414 375.73 310.074 386.582L308.523 388.132 307.747 388.908 306.197 390.458 305.421 391.233 303.87 392.783 299.217 395.884C293.014 401.051 285.775 402.344 277.504 399.76 242.349 386.841 236.145 368.237 258.893 343.948 269.749 359.967 285.775 365.652 306.972 361.001L310.85 347.048M567.531 519.911 560.552 492.78C587.953 507.249 607.597 516.035 619.488 519.135L567.531 519.911M700.912 671.843 721.075 709.051 720.3 713.702 684.628 698.974 673.771 677.27 686.179 667.192 700.912 671.843M298.442 932.299C301.027 941.602 299.476 953.488 293.789 967.957 290.687 975.709 284.742 980.36 275.953 981.91 234.077 989.662 213.656 973.9 214.691 934.625 215.207 921.706 221.67 913.695 234.077 910.595L248.812 906.719 250.362 907.494 235.629 922.997 234.077 924.548 241.832 937.725 244.934 942.376 298.442 932.299M197.63 847.031 191.427 854.007 180.57 861.759 177.468 863.31C167.128 869.511 159.373 867.185 154.204 856.333 149.551 846.514 148.775 838.246 151.878 831.528 156.53 853.232 171.781 858.142 197.63 846.256L197.63 847.031" fill="#AAAAAA" fill-rule="evenodd"/><path d="M1273.21 285.113C1282 290.286 1289.76 296.753 1296.48 304.513L1297.26 305.289C1310.71 321.844 1313.29 340.984 1305.02 362.711L1305.02 361.936 1298.03 377.455 1329.06 381.335C1337.85 368.92 1349.23 361.419 1363.19 358.832L1363.97 358.056C1386.21 354.952 1407.41 360.9 1427.58 375.903 1437.4 383.146 1444.38 393.492 1448.52 406.943L1447.74 406.943C1452.91 424.014 1452.91 441.345 1447.74 458.933L1448.52 458.157C1441.8 481.437 1428.35 495.664 1408.18 500.836L1441.54 536.531C1452.4 522.047 1468.17 511.959 1488.86 506.268L1499.72 507.044 1512.13 513.252 1514.45 514.804 1533.07 532.652 1533.07 531.875C1544.45 545.843 1548.33 560.846 1544.71 576.882 1536.43 607.922 1517.56 629.649 1488.08 642.065L1477.22 642.065 1474.89 641.289C1475.93 667.672 1473.34 694.573 1467.14 721.991L1462.48 729.751 1460.93 731.303 1487.3 740.615C1511.61 750.444 1525.57 769.585 1529.19 798.037 1532.81 828.042 1525.31 854.943 1506.7 878.739 1490.67 897.363 1471.79 908.227 1450.07 911.331L1450.07 936.938 1444.64 962.546 1443.87 963.321C1438.69 980.91 1427.58 992.55 1410.51 998.241L1408.96 999.016 1390.34 1001.34 1396.55 1003.67 1423.7 1023.85 1429.13 1030.06 1429.9 1037.82 1427.58 1054.11 1427.58 1054.89C1423.44 1071.44 1413.35 1083.08 1397.32 1089.81L1389.57 1090.58C1379.74 1089.55 1371.21 1085.67 1363.97 1078.94L1359.32 1089.81 1349.23 1105.33 1350.01 1106.1 1363.19 1114.64 1364.74 1116.19C1384.4 1133.26 1385.95 1151.37 1369.4 1170.51L1368.62 1171.28 1363.19 1176.72 1345.35 1190.68 1333.72 1193.01C1326.99 1191.46 1321.31 1188.62 1316.65 1184.48 1294.93 1171.54 1287.43 1153.7 1294.16 1130.93L1297.26 1124.73 1300.36 1122.4 1291.83 1120.07 1291.05 1119.29 1282.52 1157.32 1279.42 1162.75 1275.54 1166.63C1272.95 1168.18 1270.89 1169.47 1269.33 1170.51L1258.47 1173.61C1238.82 1171.03 1222.79 1160.94 1210.38 1143.35 1206.76 1138.18 1204.95 1132.74 1204.95 1127.05L1204.95 1126.28 1206.5 1120.07C1212.19 1106.62 1220.98 1097.57 1232.88 1092.91L1248.39 1086.7 1253.04 1085.93C1245.29 1069.89 1245.8 1054.11 1254.6 1038.59L1253.82 1037.82 1253.04 1037.04 1248.39 1032.38 1248.39 1033.16C1248.39 1047.13 1242.7 1059.03 1231.33 1068.86 1220.98 1077.65 1208.31 1082.05 1193.32 1082.05 1178.32 1082.05 1165.65 1077.65 1155.31 1068.86 1143.93 1059.03 1138.24 1047.13 1138.24 1033.16 1138.24 1019.19 1143.93 1007.29 1155.31 997.465 1165.65 988.67 1178.32 984.273 1193.32 984.273 1208.31 984.273 1220.98 988.67 1231.33 997.465L1234.43 1000.57 1234.43 992.809 1197.97 981.945 1159.96 979.617C1152.72 990.998 1142.64 1000.31 1129.71 1007.55 1111.09 1017.38 1091.44 1019.97 1070.76 1015.31 1043.87 1009.62 1028.87 993.068 1025.77 965.649L1025.77 964.874C1024.73 955.045 1025.25 945.474 1027.32 936.162L1026.54 936.938 1031.97 920.642 997.841 912.107 997.065 912.107 995.514 911.331 996.29 928.402 993.963 935.386 989.308 943.146C976.897 961.769 961.125 971.598 941.991 972.633L931.131 969.529 915.617 957.114 910.187 948.578 907.085 926.074 907.085 925.298C907.602 917.539 909.412 910.296 912.515 903.571L910.187 905.123C877.608 921.159 843.995 928.143 809.347 926.074L808.571 926.074C760.478 920.383 718.59 900.726 682.908 867.099L657.311 881.067 656.535 881.067C639.986 889.862 622.921 896.328 605.339 900.467L604.563 900.467C568.365 907.71 535.01 904.088 504.499 889.603L502.947 904.347C500.879 924.005 491.053 938.749 473.471 948.578 448.648 962.029 423.051 964.357 396.677 955.562L395.901 955.562C381.422 949.354 371.079 939.266 364.873 925.298L364.873 926.074C358.668 912.107 356.082 897.88 357.117 883.395L355.565 884.171 350.135 884.947 295.061 885.723 288.855 884.947 263.257 872.532 262.481 871.755C243.865 860.892 227.834 848.217 214.388 833.732L215.164 836.06 214.388 844.596 212.061 852.356 208.183 859.34 192.669 874.859 191.893 875.636C180.517 885.982 169.139 888.051 157.763 881.843L156.987 881.843C142.508 874.083 135.527 861.668 136.043 844.596L141.473 822.869 148.454 815.109 169.398 803.469 178.706 801.141 187.239 805.797 205.08 823.645C188.532 803.469 175.604 779.931 166.295 753.03L166.295 752.254C161.124 735.7 159.573 717.853 161.641 698.712 163.709 681.123 170.691 665.086 182.585 650.601L182.585 649.825 205.08 627.321 180.258 614.13 175.604 607.922 167.847 580.762 167.847 552.051 170.174 545.843 188.015 523.34 188.791 522.564C212.578 504.976 235.073 501.353 256.276 511.7L260.93 484.541 260.93 483.765 277.22 438.758 277.22 439.534 288.855 417.806 287.304 418.582 278.771 417.806C268.946 414.185 259.12 409.787 249.295 404.615L247.743 403.839C234.298 394.527 228.61 382.887 230.678 368.92L230.678 368.143C233.781 344.347 247.743 328.309 272.566 320.033L274.117 320.033 281.874 318.48 292.734 320.033 306.696 327.016 309.023 328.568 326.089 344.864 326.089 344.088C331.778 350.813 333.846 358.315 332.294 366.592L332.294 368.143 352.462 353.4C350.911 342.019 352.203 330.896 356.341 320.033L356.341 320.808C363.063 301.15 375.216 284.597 392.798 271.146 422.275 247.349 455.889 241.399 493.639 253.298 520.529 262.093 537.078 278.13 543.283 301.409L611.545 294.425C599.65 267.006 607.15 241.918 634.04 219.155 656.276 200.015 681.357 192.255 709.282 195.876L711.609 196.651 727.123 202.083 755.824 208.291 757.375 208.291C766.684 210.878 774.182 216.827 779.871 226.139L779.095 225.363C792.023 242.951 796.16 261.317 791.506 280.457L956.729 274.25 959.832 254.074C962.935 240.107 969.399 228.208 979.224 218.379L980 218.379C1002.24 196.651 1026.8 193.807 1053.69 209.843L1054.47 209.843 1073.08 230.795C1084.98 253.039 1087.31 274.25 1080.06 294.425 1111.61 306.324 1138.76 325.205 1161.51 351.072 1163.06 341.243 1166.43 331.931 1171.6 323.136L1171.6 322.361C1189.18 294.942 1214.78 279.682 1248.39 276.578L1254.6 277.354 1272.44 285.113 1273.21 285.113M1275.54 384.439 1284.07 370.471C1305.28 329.085 1293.9 302.444 1249.94 290.545 1222.02 291.062 1200.3 303.996 1184.78 329.344 1173.92 346.933 1171.6 361.936 1177.8 374.351 1184.52 383.146 1193.58 389.612 1204.95 393.751L1205.73 394.527 1204.95 395.303 1203.4 396.079C1195.13 394.527 1187.63 391.423 1180.9 386.767 1175.22 384.698 1170.05 382.111 1165.39 379.007L1165.39 377.455 1165.39 376.679 1163.84 376.679C1136.43 338.915 1101.01 314.084 1057.57 302.185L1066.1 281.233C1076.45 240.366 1061.19 217.086 1020.34 211.395 991.894 213.982 975.087 228.467 969.916 254.85 967.847 264.678 967.847 273.215 969.916 280.457L971.467 282.785 975.346 292.097 973.794 299.857 984.654 309.169 984.654 311.497C973.277 316.669 966.038 310.98 962.935 294.425L962.935 291.321 962.159 289.769 959.056 286.665 938.112 286.665 765.908 295.201C769.528 288.993 772.372 282.269 774.441 275.026 785.817 233.639 768.752 213.723 723.245 215.275L720.918 214.499C711.609 209.843 701.784 208.032 691.441 209.067 673.859 210.102 657.827 216.568 643.348 228.467 615.94 252.263 613.355 277.094 635.591 302.961L637.918 305.289 651.881 303.737 530.096 316.929C528.028 282.269 503.982 263.386 457.957 260.282 423.826 263.386 396.936 279.941 377.284 309.945 365.39 328.052 362.805 344.605 369.528 359.608L370.303 359.608 347.032 374.351C293.768 411.082 268.171 464.882 270.239 535.756L271.014 541.963 267.911 538.083C260.154 529.288 247.227 522.823 229.127 518.684L218.267 521.012C199.65 524.116 188.015 534.463 183.361 552.051L180.258 570.675 180.258 576.882 189.566 600.162 204.305 608.698 229.127 612.578C245.675 612.578 257.568 605.853 264.809 592.402L274.117 573.003 277.995 596.282 274.893 597.834 264.809 603.266 233.005 621.89 217.491 632.753C177.155 663.275 165.261 700.781 181.809 745.27L187.239 758.462C222.405 851.58 286.528 885.206 379.611 859.34L375.733 893.483C374.699 909.519 381.422 920.642 395.901 926.85 462.094 954.269 493.122 932.282 488.985 860.892L488.985 860.116 489.76 860.116 515.358 875.636 552.592 888.051C603.788 894.776 648.002 880.808 685.235 846.148L686.787 847.7 710.058 816.661C711.609 833.732 707.731 847.7 698.422 858.564 775.475 922.711 856.406 925.815 941.215 867.876L943.542 869.427 969.916 885.723C1016.97 910.038 1064.55 909.003 1112.64 882.619L1112.64 904.347 1111.09 892.707C1081.62 894.259 1060.67 906.675 1048.26 929.954 1044.12 938.231 1043.61 946.25 1046.71 954.01 1072.57 1011.43 1107.47 1014.02 1151.43 961.769L1199.52 964.874 1198.75 964.098 1206.5 968.753 1222.79 975.737 1237.53 978.065C1242.19 965.649 1249.43 955.302 1259.25 947.026 1268.04 962.546 1265.71 978.065 1252.27 993.585 1253.82 1001.86 1257.7 1009.88 1263.9 1017.64L1274.76 1033.94C1254.08 1078.94 1269.08 1103.26 1319.75 1106.88 1330.61 1101.71 1338.89 1093.69 1344.58 1082.82 1354.92 1061.61 1352.07 1043.51 1336.04 1028.5L1340.7 1009.1 1342.25 978.841 1345.35 978.065 1344.58 977.289 1330.61 953.234 1333.72 953.234 1355.44 975.737 1362.42 973.409 1370.95 979.617 1371.73 979.617C1397.58 987.377 1415.68 981.945 1426.02 963.321 1436.88 943.663 1438.95 924.263 1432.23 905.123L1426.02 899.691 1418.27 874.083C1416.72 870.98 1418.01 869.944 1422.15 870.98L1432.23 883.395 1433.01 885.723 1443.09 891.931C1493.25 881.067 1516.78 849.769 1513.68 798.037 1507.99 760.273 1482.91 741.391 1438.44 741.391L1417.49 747.598 1405.86 725.871 1403.53 722.767 1451.62 716.559C1459.38 679.829 1461.19 646.979 1457.05 618.01L1456.28 614.13 1460.93 618.01C1464.03 620.596 1467.4 622.407 1471.02 623.441 1484.46 628.097 1498.16 621.113 1512.13 602.49L1526.09 580.762C1537.47 553.862 1526.35 533.428 1492.73 519.46 1464.29 524.632 1447.49 540.411 1442.31 566.795 1425.25 530.583 1395.77 502.648 1353.89 482.989L1344.58 479.109 1329.06 472.901 1311.22 467.469 1312 467.469 1312.77 467.469 1326.74 464.365 1337.6 459.709 1342.25 464.365 1343.03 465.141 1360.87 475.229 1364.74 477.557 1374.05 480.661 1407.41 482.989C1418.78 478.85 1426.8 468.762 1431.45 452.725L1431.45 451.949 1432.23 449.621C1435.33 437.206 1436.37 426.342 1435.33 417.03 1431.71 391.164 1412.58 375.386 1377.93 369.695 1361.38 370.212 1348.71 377.455 1339.92 391.423L1333.72 403.062 1335.27 399.959 1332.17 397.631C1323.37 392.458 1310.96 389.354 1294.93 388.319 1285.11 389.354 1276.06 393.234 1267.78 399.959L1264.68 403.062 1264.68 403.839 1264.68 405.39 1263.9 405.39 1262.35 406.167 1261.58 407.718 1260.8 406.943 1250.72 406.943 1241.41 403.839 1253.82 401.511 1254.6 401.511 1254.6 400.735 1275.54 384.439M438.565 774.758 436.237 778.638 433.135 783.294 433.91 766.222 433.91 746.823 436.237 746.823 441.667 753.806 443.994 756.91 443.994 776.31 438.565 774.758M1014.91 597.058 1007.93 603.266 1005.6 604.818 1004.05 605.594C999.392 604.559 997.841 601.714 999.392 597.058 996.806 590.85 994.997 584.384 993.963 577.659L1018.78 584.642 1021.11 586.194 1021.11 589.298 1014.91 597.058M1233.65 708.8 1230.55 712.679 1222.02 716.559 1213.48 723.543 1189.44 704.144 1203.4 700.264 1206.5 700.264 1233.65 708.8M1221.24 841.492 1222.02 839.94 1235.2 821.317 1258.47 833.732 1259.25 832.957 1272.44 833.732 1278.64 834.508 1280.97 837.612 1282.52 839.164 1283.3 839.94 1295.71 843.82 1299.59 846.924C1289.76 858.823 1276.83 863.737 1260.8 861.668L1261.58 857.012 1261.58 855.46 1242.96 860.116C1237.79 851.839 1230.55 845.631 1221.24 841.492M1244.51 845.372 1246.84 844.596 1242.19 840.716 1240.63 843.044 1244.51 845.372M1213.48 1060.32C1220.21 1057.22 1224.86 1052.3 1227.45 1045.58 1234.69 1025.92 1233.39 1012.47 1223.57 1005.22L1202.62 998.241 1180.13 999.016 1170.82 1002.12C1161.51 1006.26 1156.08 1012.98 1154.53 1022.3L1153.76 1031.61C1153.24 1059.54 1170.56 1069.89 1205.73 1062.65L1206.5 1062.65 1213.48 1060.32M1380.26 999.793 1358.54 992.809 1357.76 992.033 1357.76 992.809 1356.21 1012.98 1356.21 1012.21 1356.21 1014.54C1362.42 1006.26 1372.24 1001.6 1385.69 1000.57L1380.26 999.793M1387.24 1014.54 1383.36 1012.98C1378.71 1013.5 1374.57 1015.57 1370.95 1019.19 1359.57 1030.57 1356.21 1041.44 1360.87 1051.78L1377.93 1069.63C1386.72 1075.84 1394.74 1074.8 1401.98 1066.53 1422.66 1041.18 1418.01 1023.85 1388.02 1014.54L1387.24 1014.54M943.542 868.652 952.075 824.421 956.729 818.989 966.813 825.973 967.589 828.301 963.71 851.58 966.038 853.908 971.467 876.411 972.243 881.067 969.916 885.723 952.85 875.636 952.075 875.636 943.542 869.427 943.542 868.652M955.953 888.051C943.542 887.534 933.975 892.707 927.253 903.571 917.944 917.539 917.169 930.73 924.925 943.146 933.717 957.114 944.835 959.182 958.28 949.354 988.791 926.591 988.015 906.158 955.953 888.051M1346.13 1169.73 1347.68 1168.96 1349.23 1167.4 1352.33 1165.08 1353.89 1163.52 1354.66 1162.75 1355.44 1161.2 1356.21 1160.42 1357.76 1158.87C1366.56 1146.97 1365.52 1136.11 1354.66 1126.28L1341.47 1117.74C1306.31 1122.4 1297.78 1138.18 1315.88 1165.08 1323.63 1177.49 1333.2 1179.56 1344.58 1171.28L1346.13 1169.73M1229.77 1112.31C1224.6 1116.45 1221.76 1120.59 1221.24 1124.73L1220.47 1125.5 1220.47 1130.16 1221.24 1133.26C1224.34 1140.5 1233.91 1147.49 1249.94 1154.21L1267.01 1151.88 1275.54 1113.86 1253.04 1099.89C1248.39 1100.93 1244 1102.74 1239.86 1105.33L1238.31 1106.88 1229.77 1112.31M258.603 343.312C235.849 367.626 242.055 386.25 277.22 399.183 285.493 401.77 292.734 400.475 298.939 395.303L303.594 392.199 305.145 390.647 305.921 389.871 307.472 388.319 308.248 387.543 309.799 385.991C320.142 375.127 322.727 365.039 317.556 355.728L310.575 346.416 284.977 331.672 277.22 333.224 259.379 342.536 258.603 343.312M473.471 847.7 471.919 828.301 473.471 827.525 498.293 865.548 474.247 849.252 473.471 847.7M248.519 906.675 233.781 910.555C221.37 913.658 214.905 921.678 214.388 934.61 213.354 973.926 233.781 989.705 275.668 981.945 284.46 980.393 290.407 975.737 293.509 967.977 299.198 953.493 300.75 941.594 298.164 932.282 293.509 916.762 277.736 908.227 250.846 906.675L248.519 906.675M314.453 941.594C315.488 960.218 310.316 976.254 298.939 989.705L294.285 993.585C279.806 1000.31 264.033 1002.9 246.968 1001.34L246.192 1001.34C218.267 997.205 203.27 980.652 201.202 951.682 200.685 941.335 202.237 931.765 205.856 922.97 213.096 903.312 227.316 893.224 248.519 892.707L250.07 892.707C265.584 893.742 279.03 897.622 290.407 904.347L288.855 903.571C304.886 910.814 313.418 923.487 314.453 941.594M197.323 846.924 197.323 846.148C203.012 835.802 196.031 825.455 176.379 815.109 162.933 818.213 154.66 823.645 151.557 831.405 148.454 838.13 149.23 846.407 153.884 856.236 159.055 867.099 166.812 869.427 177.155 863.22L180.258 861.668 191.118 853.908 197.323 846.924" fill="#888888" fill-rule="evenodd"/><path d="M853.016 400.303C840.095 428.258 822.263 432.4 799.52 412.727L799.52 386.325 806.498 373.124 818.127 370.018C836.735 371.054 848.106 380.372 852.241 397.973L853.016 400.303M349.839 403.409C355.007 397.196 361.21 393.831 368.447 393.314 392.222 390.725 409.797 397.973 421.168 415.057L421.943 417.386C403.336 453.106 379.301 454.142 349.839 420.492 345.187 415.316 345.187 409.621 349.839 403.409M307.197 610.741 312.624 609.964C322.444 610.482 330.456 614.106 336.659 620.836L338.209 623.165C332.523 643.872 319.861 650.344 300.219 642.578 296.083 638.955 294.017 634.554 294.017 629.378L294.792 620.836 298.668 616.177 300.994 613.07 307.197 610.741M427.37 522.217C437.19 506.687 450.371 497.368 466.911 494.262 483.452 499.957 494.822 511.605 501.025 529.206L501.8 531.535C490.429 577.091 467.17 584.598 432.022 554.055 421.684 544.736 420.133 534.124 427.37 522.217M713.461 453.106 713.461 456.212C694.336 496.075 671.593 499.957 645.233 467.86 639.547 461.648 638.255 454.142 641.356 445.341 648.075 426.704 660.223 415.057 677.796 410.398 700.022 415.057 711.91 429.293 713.461 453.106M575.455 380.89C614.22 388.655 619.648 404.962 591.737 429.811L571.578 431.364C557.623 423.599 551.679 411.951 553.746 396.42L557.623 390.984 565.376 383.995 566.927 383.219 575.455 381.666 575.455 380.89M537.465 550.948C591.22 553.019 601.557 571.397 568.477 606.082 560.208 614.364 549.869 616.953 537.465 613.847 498.699 605.046 492.496 587.186 518.857 560.267 524.025 554.572 530.228 551.466 537.465 550.948M568.477 680.628C574.163 681.145 578.556 683.734 581.657 688.394L583.208 690.723C585.275 694.346 585.793 697.971 584.759 701.594L580.882 709.36 577.005 711.689 573.904 713.242C566.151 715.312 559.69 713.242 554.521 707.03 552.454 704.96 551.42 702.371 551.42 699.265L552.971 691.5 554.521 689.17 559.949 683.734 563.825 682.181 568.477 680.628M776.261 546.289 777.811 549.395 776.261 557.161 771.609 564.926 767.732 567.256 763.08 569.585C756.878 571.138 751.192 569.844 746.024 565.703L743.698 563.373 739.821 557.937 739.046 552.502 740.596 542.407 742.922 539.301 748.349 533.865 753.001 532.312 758.428 531.535 770.058 536.195 773.16 538.524 774.71 541.63 776.261 546.289M759.979 673.639 766.182 668.204 770.834 666.651 775.485 665.098 787.89 670.534 790.216 672.086 791.767 675.193 794.093 679.852 794.868 682.958 793.317 690.723 788.666 698.488 784.789 700.818 780.913 703.147C774.71 704.7 768.766 703.407 763.08 699.265L760.754 696.935 756.878 691.5 756.878 686.064 758.428 675.969 759.979 673.639" fill="#FFFFFF" fill-rule="evenodd" fill-opacity="0.501961"/></g></svg>