<svg width="1761" height="1761" xmlns="http://www.w3.org/2000/svg" xmlns:xlink="http://www.w3.org/1999/xlink" overflow="hidden"><defs><clipPath id="clip0"><rect x="0" y="0" width="1761" height="1761"/></clipPath></defs><g clip-path="url(#clip0)"><path d="M1264.2 1040.34 1263.54 1046.93 1263.54 1046.92ZM1265.73 1034.49 1264.27 1038.88 1264.27 1038.88 1264.27 1039.61ZM1308.56 971.484 1299.37 977.457C1293.64 981.357 1288.61 985.562 1284.29 990.071 1288.61 985.562 1293.64 981.357 1299.37 977.457ZM1389.31 909.452 1387.12 937.239 1368.11 950.401 1387.12 937.239ZM1115.09 905.064 1115.09 905.064 1167.74 909.452 1167.74 909.452ZM288.781 901.408 288.781 901.408 334.849 946.013ZM1374.69 892.633 1315.53 933.824 1315.53 933.824ZM1202.45 864.998 1170.67 883.126 1155.31 905.064 1155.31 905.064 1170.67 883.127 1202.45 864.998ZM1191.85 841.039 1108.51 889.707C1099.74 890.195 1093.4 887.026 1089.5 880.202 1093.4 887.026 1099.74 890.195 1108.51 889.707L1191.85 841.039ZM250.587 840.228 265.38 844.371 275.235 863.257 265.38 844.371ZM1357.14 790.258 1357.14 790.259 1355.98 793.163ZM1448.54 786.602 1460.97 797.57 1402.48 849.489 1406.86 856.802 1396.62 879.47 1404.67 892.633 1396.62 879.47 1406.86 856.802 1402.48 849.489 1460.97 797.57 1448.54 786.602ZM1427.34 755.159 1427.34 755.159 1394.43 807.808C1381.27 829.257 1366.16 848.758 1349.09 866.307L1331.63 882.961 1331.63 882.961 1349.09 866.308C1366.16 848.758 1381.27 829.258 1394.43 807.808ZM912.537 736.146 914 746.384 925.7 747.846 925.699 747.846 914 746.383ZM1441.23 701.046 1448.54 710.553 1395.16 774.17 1448.54 710.553 1441.23 701.046ZM1397.63 694.517 1395.89 698.853 1395.9 698.845ZM543.255 690.809 456.237 731.758 416.018 709.09 416.018 709.09 456.237 731.759ZM1392.24 688.615 1353.02 738.74 1353.02 738.741 1392.24 688.615 1398.82 691.54 1398.82 691.54ZM923.024 665.249 923.023 665.249 923.506 676.184C938.131 736.146 973.718 786.846 1030.27 828.283L1048.55 842.908 1030.27 828.283C973.718 786.846 938.131 736.146 923.506 676.184ZM225.162 627.191 280.006 773.439 225.162 627.191ZM1470.48 613.297 1470.48 613.297 1483.64 623.534 1416.37 710.553 1416.37 710.553 1483.64 623.534ZM1022.59 560.715 1006.87 583.315C1000.53 593.675 995.305 604.217 991.192 614.942L982.806 645.42 991.192 614.942C995.305 604.217 1000.53 593.675 1006.87 583.316ZM1455.13 560.647 1455.12 560.647 1404.67 678.377 1400.85 687.297 1404.67 678.378ZM279.275 537.247 275.618 663.021 274.156 703.971 274.156 703.971 274.156 703.971 285.124 777.826 274.156 703.971 275.618 663.022ZM431.26 536.526 414.555 608.178C402.856 656.44 389.693 705.19 375.068 754.427 367.268 771.977 355.324 786.358 339.237 797.57 313.887 814.633 289.512 813.17 266.112 793.182L225.894 722.984 225.893 722.984 266.112 793.183 230.281 788.796 266.112 793.183C289.512 813.17 313.887 814.633 339.237 797.57 355.324 786.358 367.268 771.978 375.068 754.427 389.693 705.19 402.855 656.44 414.555 608.178L431.26 536.526ZM1433.19 527.01 1441.23 531.398 1409.06 597.941 1390.04 628.653 1390.04 628.653 1390.04 628.652 1409.06 597.941 1441.23 531.398ZM1299.14 525.205 1278.28 575.168 1278.28 575.168 1299.14 525.205ZM410.423 523.584 387.499 587.703 379.928 606.409 387.5 587.703ZM1285.93 497.535 1277.43 513.116 1251.47 554.437 1277.43 513.116ZM1022.96 470.704C1002.97 508.241 979.324 543.219 952.025 575.637L945.003 583.144 945.003 583.145 952.025 575.638C979.324 543.219 1002.97 508.242 1022.96 470.704L1030.27 472.166ZM1303.23 464.927 1299.37 472.166 1298.64 473.629 1299.37 472.166ZM329 434.142 347.281 439.26 357.518 485.329 312.181 551.141 300.482 581.852 300.481 581.853 312.181 551.141 357.518 485.329 347.281 439.26ZM426.987 406.354 404.318 444.379 375.068 491.179 320.225 573.809 375.068 491.179 404.318 444.379 426.987 406.355 428.449 432.679 430.898 442.473 430.898 442.473 428.45 432.679ZM1047.91 397.263 1040.51 405.623 1030.27 416.592C1010.04 439.748 990.232 463.513 970.854 487.888 990.232 463.513 1010.04 439.748 1030.27 416.592L1040.51 405.623ZM1193.47 362.336 1134.84 423.904 1050.2 525.704 1134.84 423.904ZM1364.45 361.017 1348.14 411.017 1348.14 411.017ZM445.999 356.63 445.999 356.63 449.247 433.264 449.247 433.264ZM1343.55 341.091 1336.66 380.212 1332.63 393.002 1324.1 420.057 1324.1 420.057 1332.63 393.002 1336.66 380.212ZM1446.35 333.961 1403.21 563.572 1393.53 590.857 1403.21 563.573ZM600.015 333.278 570.129 358.64 534.261 397.312 534.261 397.311 570.129 358.641 600.014 333.278ZM559.065 317.303 545.45 361.017 545.45 361.017ZM1345.58 306.693 1344.16 337.663 1344.16 337.663ZM1408.32 285.699 1395.89 399.041 1384.92 412.472 1384.92 412.472 1395.89 399.041 1408.32 285.699ZM544.719 275.461 556.418 279.849 560.074 293.743 554.955 310.561 559.343 316.411 554.956 310.561 560.075 293.743 556.419 279.849ZM928.625 216.231 928.624 216.231 903.031 250.598 903.032 250.598ZM1363.72 204.53 1284.01 273.268 1284.01 273.268 1363.72 204.531ZM1207.96 195.024C1088.04 201.362 980.056 235.974 884.018 298.86L824.506 347.214 824.506 347.214 884.018 298.861C980.056 235.974 1088.04 201.362 1207.96 195.024L1160.07 263.944 1160.07 263.944C1176.64 241.641 1192.61 218.668 1207.96 195.024ZM899.374 178.937 835.024 276.192 831.368 282.043 831.369 282.043 835.024 276.193 835.025 276.192 899.375 178.937ZM1383.46 172.356 1369.57 309.83 1369.57 309.83ZM1266.46 171.625 1169.21 287.161 1120.21 344.198 1120.21 344.198 1169.21 287.161 1169.21 287.161 1266.46 171.625ZM1265 157 1278.16 161.388 1281.09 177.475 1212.35 257.912 1382.73 158.462 1398.82 168.7 1394.43 267.418 1423.68 282.774 1417.1 348.586 1448.54 320.067 1460.24 327.38 1461.71 336.886 1430.99 513.116 1455.86 527.01 1454.39 546.022 1467.56 551.872 1469.75 566.497 1448.54 615.491 1470.48 598.672 1499 627.922 1453.66 692.271 1463.17 716.403 1439.04 745.652 1442.69 758.815 1430.99 778.558 1455.86 773.439 1475.6 793.914 1471.94 808.54 1422.22 856.071 1414.18 878.739 1420.02 894.095 1401.01 944.552 1385.66 956.983 1385.66 988.426 1218.2 1161 1235.75 1128.83 1239.41 1120.05 1373.96 978.188 1239.41 1120.05 1238.67 1120.78 1235.75 1128.82 1218.2 1161 1208.69 1147.84 1225.51 1087.14C1236.72 1043.27 1242.09 1012.07 1241.6 993.545L1236.48 975.263 1202.11 961.37C1179.69 982.819 1162.87 1007.93 1151.66 1036.69L1109.24 1036.69 1112.9 985.501 1121.84 971.848 1112.9 985.501 1114.36 958.444 1115.09 937.239 1030.27 861.92 922.043 751.502 906.687 750.04 912.537 746.384 896.449 749.309 858.424 725.909 837.218 726.64 831.368 731.759C750.931 732.246 685.85 720.059 636.124 695.196L633.2 689.346 597.368 703.971 592.981 698.853 592.249 691.54 424.793 755.159 416.75 753.696 345.818 816.583 333.386 881.664 369.949 978.188 361.175 973.801 328.269 970.876 317.299 948.939 279.275 912.376 255.875 856.802 236.862 848.758 233.205 840.714 238.325 826.089 217.118 792.453 222.237 777.095 239.787 774.902 212.731 720.059 227.356 708.359 245.637 720.79 212.731 632.309 212 623.534 221.506 613.297 262.456 635.234 266.112 532.86 275.618 523.354 296.825 527.741 315.837 431.216 326.074 420.248 365.561 448.035 435.031 348.586 446.73 342.005 458.43 347.855 461.356 355.898 463.55 404.892 540.331 262.298 576.162 294.473 571.775 307.636 574.699 316.411 676.343 227.199 682.194 224.274 896.45 165.044 908.881 167.237 914.731 183.324 885.481 227.199 936.669 203.799 943.981 214.768 983.469 196.487Z" fill="#FFFFFF" fill-rule="evenodd"/><path d="M1319.3 492.254 1324.3 482.254 1319.3 492.254" fill="#F93D15" fill-rule="evenodd"/><path d="M1264.21 1039.24 1264.21 1038.52 1265.21 1034.24 1264.21 1039.24" fill="#D82107" fill-rule="evenodd"/><path d="M1363.5 203.749C1351.31 231.539 1345.45 261.28 1345.94 292.971 1346.92 352.452 1333.26 408.276 1304.96 460.444L1299.11 471.414 1298.38 472.877 1290.33 488.234 1277.16 512.368C1256.67 550.398 1229.35 588.426 1195.2 626.455 1143 685.936 1087.88 718.359 1029.83 723.721L983.729 715.677C973.484 668.384 981.046 624.017 1006.41 582.576L1029.83 548.935C1063 506.031 1097.88 464.101 1134.47 423.146 1182.27 370.978 1232.03 320.761 1283.74 272.494L1363.5 203.749M1029.83 415.833C989.339 462.151 950.557 510.905 913.482 562.099 861.284 633.281 797.867 649.37 723.229 610.366 711.033 598.665 705.179 581.601 705.667 559.173 705.667 547.959 701.765 537.234 693.96 526.994L723.229 463.369 753.23 422.415C789.817 374.147 833.234 332.706 883.48 298.089 979.583 235.196 1087.64 200.58 1207.64 194.242 1176.91 241.534 1143.74 286.145 1108.13 328.074L1040.07 404.864 1029.83 415.833M1302.04 617.679C1325.94 557.223 1355.7 501.155 1391.31 449.475 1386.43 490.429 1378.14 530.895 1366.43 570.874L1333.5 682.767 1208.37 801.242C1245.94 742.248 1277.16 681.061 1302.04 617.679M788.354 298.089 723.229 407.789 713.717 423.878C669.812 497.01 612.736 554.786 542.489 597.202L516.878 610.366 497.852 588.426C472.974 553.323 464.193 512.612 471.51 466.295L489.803 443.624C539.562 383.167 595.906 329.294 658.836 282 712.497 242.021 772.987 217.888 840.308 209.599L788.354 298.089M426.142 405.595 427.606 431.922 430.533 443.624C420.289 492.866 405.653 540.646 386.628 586.964L374.188 617.679 353.7 671.797 319.308 573.068 374.188 490.429 403.458 443.624 426.142 405.595" fill="#FFFFFF" fill-rule="evenodd"/><path d="M264.82 844.413 246.528 839.291 253.845 825.388 274.333 823.925 291.162 842.949 264.82 844.413M265.552 793.192 225.308 722.949 279.455 773.436 284.576 777.827 273.601 703.924 275.065 662.949 278.723 537.095 294.089 542.217 294.089 597.827 299.943 581.729 311.65 550.998 357.015 485.144 445.552 356.363 449.211 442.706 454.332 439.778 441.893 488.802 414.088 608.071C402.381 656.364 389.21 705.144 374.577 754.412 366.772 771.974 354.821 786.364 338.723 797.583 313.357 814.656 288.967 813.192 265.552 793.192M545.064 360.754 684.82 237.826 899.211 178.558 834.82 275.876 831.162 281.73 844.332 278.07 902.869 250.266 984.82 210.754 1266.53 171.242 1169.21 286.851 1120.19 343.924 1211.65 274.412 1383.6 171.974 1369.7 309.535 1364.58 360.754 1330.92 463.924 1329.45 463.924 1325.06 466.12 1300.92 520.998 1241.65 662.949 1175.8 744.168 1180.92 735.388C1145.31 782.705 1101.16 818.559 1048.48 842.949L1030.19 828.315C973.601 786.851 937.991 736.12 923.357 676.12 921.406 667.827 922.625 659.534 927.015 651.242 956.771 590.754 991.162 533.437 1030.19 479.29L1078.48 417.096 1030.19 471.973 1022.87 470.51C982.869 545.632 928.235 610.51 858.967 665.144L827.503 690.022C738.235 710.51 671.406 702.949 627.015 667.339L646.04 638.071 636.528 630.754 620.43 638.803 651.162 586.852C658.966 573.193 666.771 553.437 674.577 527.582L605.796 646.12C585.308 662.705 564.333 677.583 542.869 690.754L455.796 731.729 415.552 709.047C414.576 672.949 417.503 632.461 424.333 587.583 430.186 542.705 439.699 505.876 452.87 477.095L477.016 421.486 476.284 420.754 545.064 360.754M1396.04 398.802 1446.53 333.681 1403.36 563.437 1374.82 643.925 1390.19 628.559 1455.31 560.51 1404.82 678.315 1396.04 698.803 1398.97 691.486 1392.38 688.559C1331.4 776.364 1257.5 841.242 1170.67 883.193L1155.31 905.145 1167.75 909.535 1115.06 905.145C1147.26 889.047 1176.53 868.315 1202.87 842.949L1203.6 840.022 1202.87 837.096 1199.94 836.364 1108.48 889.778C1099.7 890.266 1093.36 887.095 1089.45 880.266 1088.97 878.315 1089.21 876.852 1090.19 875.876L1112.87 845.145 1146.53 820.266C1203.6 774.9 1240.43 722.461 1257.02 662.949L1255.55 669.534 1256.28 668.803 1341.89 487.339C1347.75 474.169 1351.65 461.974 1353.6 450.754L1396.04 398.802M1395.31 774.168 1427.5 755.144 1394.58 807.827C1381.41 829.29 1366.28 848.803 1349.21 866.363L1301.65 911.729C1279.21 932.217 1257.75 944.9 1237.26 949.779 1237.75 941.486 1241.41 933.681 1248.23 926.363L1357.26 790.266 1354.33 797.583 1395.31 774.168M1235.8 1129.05 1218.23 1161.24 1208.72 1148.07 1225.55 1087.34C1236.77 1043.44 1242.14 1012.22 1241.65 993.681L1246.04 1000.27 1235.06 1074.17 1249.7 1086.61 1238.72 1121 1235.8 1129.05M1112.87 985.632 1114.33 958.558 1126.77 964.413 1112.87 985.632M1363.84 204.168 1284.09 272.949C1232.38 321.242 1182.62 371.485 1134.82 423.68 1098.23 464.656 1063.36 506.608 1030.19 549.534L1006.77 583.193C981.405 624.656 973.844 669.047 984.089 716.364L1030.19 724.412C1088.23 719.047 1143.36 686.607 1195.55 627.095 1229.7 589.046 1257.02 550.998 1277.5 512.949L1290.67 488.802 1298.72 473.437 1299.45 471.973 1305.31 460.998C1333.6 408.803 1347.26 352.949 1346.28 293.437 1345.8 261.73 1351.65 231.973 1363.84 204.168M1030.19 416.364 1040.43 405.388 1108.48 328.559C1144.09 286.607 1177.26 241.973 1207.99 194.656 1087.99 200.998 979.943 235.632 883.845 298.558 833.601 333.193 790.186 374.656 753.601 422.948L723.6 463.924 694.333 527.582C702.138 537.827 706.04 548.558 706.04 559.778 705.552 582.217 711.405 599.29 723.6 610.998 798.235 650.022 861.649 633.925 913.845 562.705 950.918 511.485 989.698 462.706 1030.19 416.364M1302.38 618.315C1277.5 681.729 1246.28 742.949 1208.72 801.973L1333.84 683.437 1366.77 571.485C1378.48 531.485 1386.77 490.998 1391.65 450.022 1356.04 501.73 1326.28 557.827 1302.38 618.315M1357.99 891.973C1360.92 889.535 1364.33 887.583 1368.23 886.119L1374.82 892.705 1276.04 961.486 1357.99 891.973M1324.33 789.534 1300.19 844.413 1291.41 840.754 1213.84 892.705 1237.26 861.242C1262.14 830.998 1291.16 807.095 1324.33 789.534M1264.33 1039.05C1264.82 1013.68 1276.53 993.193 1299.45 977.584L1314.09 968.071 1319.94 973.193 1263.6 1047.09 1264.33 1039.78 1265.8 1034.66 1264.33 1039.05M913.845 746.364 912.381 736.12 925.552 747.827 913.845 746.364M788.723 298.558 840.674 210.022C773.357 218.314 712.869 242.461 659.21 282.461 596.284 329.779 539.942 383.68 490.186 444.168L471.894 466.852C464.577 513.193 473.357 553.925 498.235 589.046L517.26 610.998 542.869 597.827C613.113 555.389 670.187 497.583 714.089 424.412L723.6 408.315 788.723 298.558M426.528 406.12 403.845 444.168 374.577 490.998 319.699 573.681 354.089 672.461 374.577 618.315 387.016 587.583C406.04 541.242 420.675 493.437 430.918 444.168L427.992 432.461 426.528 406.12" fill="#DDDDDD" fill-rule="evenodd"/><path d="M360.378 973.189 336.967 960.02 331.115 946.85 330.384 946.118 329.652 944.656 334.041 945.387 287.954 900.759 290.88 894.174 264.544 843.694 290.88 842.23 274.054 823.208 253.571 824.671 229.429 788.092 265.275 792.48C288.685 812.478 313.07 813.941 338.431 796.87 354.525 785.653 366.473 771.265 374.276 753.706 388.907 704.444 402.075 655.67 413.78 607.384L441.579 488.131 454.015 439.114 456.211 437.651 465.72 429.603 543.996 274.502 555.701 278.891 559.359 292.792 554.238 309.619 558.627 315.472 544.728 360.1 475.962 420.092 476.694 420.824 452.553 476.426C439.385 505.203 429.874 542.027 424.022 586.899 417.194 631.771 414.268 672.253 415.244 708.346L455.479 731.026 542.533 690.056C563.992 676.887 584.964 662.011 605.447 645.427L674.213 526.906C666.409 552.757 658.606 572.511 650.803 586.167L620.078 638.111 636.172 630.064 645.682 637.38 626.661 666.644C671.042 702.249 737.858 709.809 827.107 689.324L858.563 664.449C927.817 609.823 982.44 544.953 1022.43 469.842L1029.75 471.304 1078.03 416.434 1029.75 478.62C990.731 532.76 956.347 590.069 926.598 650.549 922.208 658.84 920.989 667.132 922.94 675.423 937.571 735.415 973.173 786.14 1029.75 827.599L1048.04 842.23C1100.71 817.843 1144.84 781.994 1180.45 734.684L1175.33 743.463 1241.17 662.255 1300.42 520.322 1324.56 465.452 1328.95 463.257 1330.41 463.257 1364.07 360.1 1369.19 308.888 1389.67 280.355 1407.96 284.745 1395.52 398.143 1353.09 450.088C1351.14 461.306 1347.24 473.5 1341.39 486.668L1255.8 668.108 1255.06 668.839 1256.53 662.255C1239.95 721.759 1203.12 774.191 1146.06 819.551L1112.41 844.425 1089.73 875.153C1088.76 876.128 1088.52 877.591 1089 879.542 1092.9 886.371 1099.24 889.541 1108.02 889.053L1199.47 835.646 1202.39 836.378 1203.12 839.304 1202.39 842.23C1176.06 867.593 1146.79 888.322 1114.61 904.417L1167.28 908.807 1154.84 904.417 1170.2 882.469C1257.02 840.524 1330.9 775.654 1391.86 687.861L1398.45 690.787 1395.52 698.103 1404.3 677.618 1470.14 612.505 1483.31 622.748 1416.01 709.809 1440.88 700.298 1448.19 709.809 1394.79 773.459 1353.82 796.87 1356.75 789.554 1247.75 925.633C1240.92 932.95 1237.26 940.754 1236.78 949.046 1257.26 944.168 1278.72 931.487 1301.15 911.001L1348.7 865.642C1365.77 848.084 1380.89 828.573 1394.06 807.113L1448.19 785.896 1460.63 796.87 1402.11 848.814 1406.5 856.131 1396.25 878.811 1404.3 891.98 1388.94 908.807 1386.74 936.608 1367.72 949.776 1373.58 977.578 1238.97 1119.51 1238.24 1120.24 1249.21 1085.86 1234.58 1073.42 1245.55 999.526 1241.17 992.942 1236.04 974.651 1201.66 960.751C1179.23 982.211 1162.4 1007.33 1151.18 1036.11L1108.75 1036.11 1112.41 984.894 1126.31 963.678 1113.87 957.824 1114.61 936.608 1029.75 861.252 921.477 750.779 906.115 749.316 911.967 745.658 895.873 748.584 857.832 725.173 836.617 725.904 830.765 731.026C750.294 731.514 685.186 719.32 635.44 694.445L632.514 688.592 596.668 703.225 592.279 698.103 591.547 690.787 424.022 754.437 415.975 752.974 345.014 815.893 332.578 881.005 369.155 977.578 360.378 973.189M279.175 772.727 224.308 626.406 274.786 662.255 273.322 703.225 284.295 777.117 279.175 772.727M299.658 581.046 328.189 433.261 346.477 438.382 356.719 484.474 311.363 550.319 299.658 581.046M834.422 275.233 928.061 215.242 902.457 249.627 843.932 277.428 830.765 281.087 834.422 275.233M1168.74 286.207 1211.17 273.77 1119.73 343.273 1168.74 286.207M1402.84 562.756 1432.83 526.176 1440.88 530.565 1408.69 597.141 1389.67 627.869 1374.31 643.233 1402.84 562.756M1318.71 491.789 1323.83 482.279 1318.71 491.789M1323.83 788.823C1290.67 806.382 1261.65 830.281 1236.78 860.521L1213.37 891.98 1290.91 840.036 1299.69 843.694 1323.83 788.823M1357.48 891.248 1275.55 960.751 1374.31 891.98 1367.72 885.395C1363.82 886.858 1360.41 888.81 1357.48 891.248M1263.84 1039.03 1263.11 1046.35 1319.44 972.457 1313.59 967.335 1298.96 976.847C1276.04 992.454 1264.33 1012.94 1263.84 1038.3L1263.84 1039.03M913.43 745.658 925.135 747.121 911.967 735.415 913.43 745.658" fill="#AAAAAA" fill-rule="evenodd"/><path d="M360.599 973.857 327.667 970.928 316.689 948.97 278.635 912.371 255.217 856.741 236.189 848.689 232.53 840.637 237.653 825.997 216.43 792.327 221.553 776.955 239.117 774.759 212.039 719.861 226.676 708.15 244.971 720.594 212.039 632.025 211.308 623.241 220.821 612.993 261.803 634.953 265.462 532.476 274.976 522.961 296.199 527.352 315.226 430.731 325.471 419.752 364.989 447.567 434.512 348.019 446.221 341.431 457.93 347.287 460.858 355.338 463.053 404.381 539.894 261.645 575.753 293.852 571.362 307.028 574.289 315.812 676.012 226.511 681.867 223.583 896.29 164.294 908.731 166.489 914.585 182.592 885.312 226.511 936.54 203.088 943.858 214.067 983.376 195.768 1265.13 156.242 1278.3 160.634 1281.23 176.737 1212.44 257.254 1382.95 157.705 1399.05 167.953 1394.66 266.77 1423.93 282.141 1417.34 348.019 1448.81 319.471 1460.52 326.791 1461.99 336.307 1431.25 512.713 1456.13 526.621 1454.67 545.652 1467.84 551.507 1470.04 566.147 1448.81 615.189 1470.77 598.354 1499.31 627.633 1453.94 692.046 1463.45 716.202 1439.3 745.48 1442.96 758.656 1431.25 778.419 1456.13 773.295 1475.89 793.791 1472.23 808.431 1422.47 856.009 1414.42 878.7 1420.27 894.071 1401.24 944.578 1385.88 957.021 1385.88 988.496 1218.29 1161.24 1235.85 1129.04 1239.51 1120.25 1374.17 978.248 1368.31 950.433 1387.34 937.258 1389.54 909.443 1404.9 892.608 1396.85 879.432 1407.1 856.741 1402.71 849.42 1461.25 797.45 1448.81 786.471 1394.66 807.699 1427.59 754.996 1395.39 774.027 1448.81 710.346 1441.49 700.83 1416.61 710.346 1483.94 623.241 1470.77 612.993 1404.9 678.139 1455.4 560.291 1390.27 628.365 1409.29 597.622 1441.49 531.013 1433.44 526.621 1403.44 563.219 1446.62 333.38 1396.12 398.525 1408.56 285.069 1390.27 280.677 1369.78 309.225 1383.68 171.613 1211.7 274.089 1169.26 286.533 1266.59 170.881 984.839 210.408 902.876 249.934 928.49 215.532 834.817 275.553 899.217 178.201 684.794 237.49 545.017 360.463 558.921 315.812 554.53 309.956 559.653 293.121 555.994 279.213 544.285 274.821 465.98 430 456.467 438.052 454.271 439.515 449.149 442.444 445.489 356.07 356.939 484.898 346.694 438.783 328.399 433.66 299.858 581.518 294.003 597.622 294.003 541.992 278.635 536.868 274.976 662.768 224.48 626.901 279.367 773.295 225.212 722.789 265.462 793.058 229.603 788.668 253.753 825.265 246.435 839.173 264.73 844.297 291.076 894.803 288.149 901.392 334.253 946.041 329.862 945.31 330.594 946.773 331.326 947.505 337.18 960.681 360.599 973.857" fill="#888888" fill-rule="evenodd"/></g></svg>