<svg width="1761" height="1761" xmlns="http://www.w3.org/2000/svg" xmlns:xlink="http://www.w3.org/1999/xlink" overflow="hidden"><defs><clipPath id="clip0"><rect x="0" y="0" width="1761" height="1761"/></clipPath></defs><g clip-path="url(#clip0)"><path d="M1223.16 1083.83C1225.92 1105.09 1244 1118.74 1277.4 1124.79 1281.31 1125.5 1284.93 1125.71 1288.24 1125.41L1277.4 1124.79C1244 1118.74 1225.92 1105.09 1223.16 1083.83ZM253.078 1073.16C254.44 1084.01 260.482 1092.43 271.204 1098.42 260.482 1092.43 254.44 1084.01 253.078 1073.16ZM393.465 1028.72 390.309 1033.72C382.49 1048.9 380.654 1061.35 384.8 1071.07L391.701 1079.15 391.701 1079.15 384.8 1071.07C380.654 1061.35 382.491 1048.9 390.31 1033.72L393.466 1028.72ZM1261.77 1022.33 1261.77 1022.33 1267.45 1025.18 1267.45 1025.89 1267.45 1025.89 1267.27 1026.43 1267.45 1025.89 1267.45 1025.89 1267.45 1025.18C1279.3 1031.35 1294.94 1034.67 1314.37 1035.14 1294.94 1034.67 1279.3 1031.35 1267.45 1025.18ZM289.551 953.496C291.506 960.789 294.719 967.978 299.192 975.063L301.802 978.243 301.802 978.243 299.192 975.063C294.72 967.978 291.506 960.789 289.551 953.496ZM1367.65 900.035 1358.44 909.916 1352.75 914.896 1358.44 909.916ZM1368.39 899.243 1368.39 899.244 1370.52 903.513ZM266.807 889.168 272.492 898.71 287.776 906.027 272.492 898.71 266.807 889.168ZM1123.87 850.15C1116.76 856.791 1111.07 864.854 1106.81 874.341 1101.12 886.674 1099.7 899.244 1102.54 912.051 1110.13 944.305 1126 968.022 1150.17 983.201L1145.19 989.604C1139.98 997.668 1138.8 1005.73 1141.64 1013.8 1138.8 1005.73 1139.98 997.668 1145.19 989.604L1150.17 983.201C1126 968.022 1110.13 944.305 1102.54 912.051 1099.7 899.243 1101.12 886.674 1106.81 874.341 1111.07 864.854 1116.76 856.79 1123.87 850.15ZM147.922 698.6 140.103 701.446C124.938 711.881 119.252 726.586 123.043 745.559L125.17 747.938 125.17 747.938 123.044 745.559C119.252 726.586 124.939 711.881 140.103 701.446L147.922 698.6ZM1235.64 668.895C1229.13 673.757 1222.91 679.39 1216.99 685.793 1190.45 714.727 1181.68 742.002 1190.69 767.616L1202.75 764.065 1202.77 764.058 1190.69 767.616C1181.68 742.002 1190.45 714.727 1216.99 685.793ZM163.738 645.771C165.041 658.934 175.407 671.563 194.836 683.659L199.101 686.505C205.735 690.3 212.606 692.908 219.714 694.331L217.7 703.067 219.714 694.331C212.606 692.908 205.735 690.3 199.101 686.504L194.836 683.658C175.407 671.563 165.041 658.934 163.738 645.771ZM1370.52 613.931 1371.23 614.643 1370.52 614.643ZM1283.8 600.413C1266.27 603.259 1256.32 613.22 1253.95 630.296 1256.32 613.22 1266.27 603.259 1283.8 600.413ZM1284.51 589.741 1345.64 594.721 1348.49 596.144C1357.49 599.464 1364.83 605.631 1370.52 614.643L1371.23 614.643C1383.08 633.616 1383.55 652.352 1372.65 670.852L1366.97 678.678 1389.71 670.14 1395.4 668.717C1410.56 669.191 1422.41 676.306 1430.94 690.062L1435.92 698.6 1437.34 701.446 1437.34 711.407 1434.49 721.368C1431.65 731.329 1425.25 739.393 1415.3 745.559L1403.93 751.251 1398.24 751.963C1396.82 775.205 1389.71 795.839 1376.92 813.864L1386.16 826.67 1396.11 850.861 1402.51 850.861 1405.35 851.573 1421.7 859.399 1421.7 859.4 1423.83 860.822 1421.7 860.111 1440 876.12C1444.39 882.761 1447.05 890.706 1448 899.955L1446.58 908.493 1431.65 931.261 1430.94 931.972 1420.99 941.222 1420.28 941.934 1410.33 946.203 1405.35 946.914 1399.66 946.914 1389 943.357 1391.14 959.01C1392.08 977.509 1389.24 994.822 1382.61 1010.95L1381.89 1010.95C1371.47 1034.67 1353.7 1048.9 1328.58 1053.64L1326.45 1053.64C1331.66 1063.13 1333.32 1074.04 1331.43 1086.37L1323.61 1116.96 1324.32 1116.25 1324.32 1116.96 1323.61 1116.96 1323.61 1116.96 1324.32 1116.96C1319.11 1134.04 1307.5 1143.05 1289.49 1144L1288.07 1144C1271.96 1143.05 1257.5 1139.02 1244.71 1131.9L1244 1131.9C1229.78 1124.79 1220.07 1115.54 1214.85 1104.16 1211.06 1097.04 1209.17 1089.69 1209.17 1082.1 1184.53 1084.47 1163.44 1075.46 1145.9 1055.06L1145.9 1054.35C1127.42 1033.01 1122.68 1011.9 1131.69 991.027 1115.58 978.22 1103.73 962.567 1096.15 944.068 1080.98 908.493 1085.72 876.475 1110.36 848.015L1114.63 824.536 1114.63 823.824C1116.52 814.338 1120.55 805.8 1126.71 798.21L1127.42 798.21C1140.69 781.134 1156.33 768.802 1174.34 761.212 1171.97 740.342 1176.94 721.13 1189.26 703.581L1188.55 703.581C1202.3 682.71 1219.59 665.871 1240.44 653.064 1238.55 640.257 1240.44 628.161 1246.13 616.777L1246.13 616.066C1253.71 601.362 1265.56 592.824 1281.67 590.452ZM202.166 587.161C207.231 586.746 212.606 587.132 218.293 588.317 246.725 588.317 268.523 598.99 283.688 620.335L287.242 618.912 292.217 618.201 324.204 624.604 325.625 624.604C335.103 626.501 343.633 631.007 351.215 638.122 357.849 644.289 362.825 651.879 366.142 660.891 371.828 676.544 372.777 691.959 368.985 707.138L382.49 715.676 402.393 734.886 402.393 734.887 402.393 734.887 403.104 736.31 402.394 735.599 410.212 761.924C409.264 789.435 397.655 811.492 375.382 828.094L376.804 833.074 376.804 833.786 376.804 835.208 437.934 836.631 438.645 836.631C459.496 841.375 477.266 851.336 491.956 866.515L492.666 866.515C507.831 881.693 517.072 899.006 520.388 918.454 522.758 931.735 520.626 944.78 513.991 957.587L513.991 958.298C507.831 970.157 500.248 981.066 491.245 991.027L501.197 998.142 501.907 998.142C508.542 1004.31 513.043 1012.13 515.413 1021.62 520.151 1044.39 514.702 1064.55 499.064 1082.1L480.583 1097.75C450.255 1117.2 419.926 1117.44 389.599 1098.46 378.226 1091.82 371.828 1082.34 370.407 1070L370.407 1069.29C369.458 1057.43 370.88 1046.52 374.672 1036.56L369.696 1035.85 352.636 1032.29 356.901 1039.41C366.853 1057.43 365.194 1076.88 351.925 1097.75 343.396 1111.03 331.785 1119.81 317.096 1124.08L315.674 1124.79C294.823 1128.11 275.395 1122.66 257.387 1108.42L256.677 1108.42C240.565 1095.14 235.352 1077.59 241.039 1055.77L241.039 1054.35C250.99 1025.89 271.366 1009.53 302.168 1005.26L306.434 1005.26 299.325 998.142 298.615 998.142C278.238 976.323 270.655 951.183 275.869 922.723L263.784 914.896 263.074 913.474 250.99 897.821 246.725 907.07 246.725 907.782C230.614 936.242 206.682 950.709 174.933 951.183L174.222 951.183C153.371 951.183 140.814 941.222 136.549 921.3L136.549 920.589C132.757 903.038 134.89 886.199 142.946 870.072L143.657 870.072 155.03 854.419 155.741 853.707 169.246 844.458 160.006 828.805 159.295 828.094C155.978 818.607 155.03 809.357 156.452 800.345L166.403 769.75 147.211 775.442C130.625 779.237 118.305 772.596 110.249 755.52L108.827 751.251C105.036 725.163 114.276 705.004 136.549 690.774L145.079 688.639 157.163 689.351 164.981 692.197C177.303 700.735 185.833 712.119 190.571 726.349 191.519 728.246 191.755 730.618 191.282 733.464L191.23 733.62 193.274 731.268 204.787 712.83 208.341 709.273 203.365 707.85C192.466 703.107 182.514 696.703 173.511 688.639L173.511 687.928 157.163 664.448 157.163 663.736C153.371 655.198 152.66 646.423 155.03 637.411L155.03 636.7 164.981 612.509C174.577 596.855 186.973 588.407 202.166 587.161Z" fill="#AAAAAA" fill-rule="evenodd"/><path d="M1370.72 614.719 1370.72 614.007 1371.43 614.719 1370.72 614.719M1421.89 859.46 1424.02 860.883 1421.89 860.171 1421.89 859.46M1323.81 1117.01 1324.52 1116.3 1324.52 1117.01 1323.81 1117.01M1146.14 1055.11 1146.14 1054.4 1146.14 1055.11M1267.67 1025.23 1267.67 1025.94 1261.98 1022.38 1267.67 1025.23M351.6 638.196 351.6 637.485 351.6 638.196M402.769 734.955 403.48 736.378 402.769 735.666 402.769 734.955M213.728 853.056 213.017 852.345 215.86 853.768 219.413 854.479 220.124 855.191 215.86 853.768 213.728 853.056" fill="#5F1B01" fill-rule="evenodd"/><path d="M1145.92 1054.52C1127.44 1033.21 1122.7 1012.14 1131.7 991.309 1115.59 978.525 1103.75 962.9 1096.16 944.434 1081 908.923 1085.74 876.963 1110.38 848.554L1114.65 825.117 1114.65 824.406C1116.54 814.937 1120.57 806.414 1126.73 798.838L1127.44 798.838C1140.71 781.793 1156.35 769.482 1174.35 761.907 1171.98 741.074 1176.96 721.897 1189.28 704.379L1188.57 704.379C1202.31 683.545 1219.61 666.737 1240.46 653.953 1238.56 641.169 1240.46 629.095 1246.15 617.731L1246.15 617.021C1253.73 602.343 1265.58 593.821 1281.69 591.453L1284.53 590.743 1345.66 595.714 1348.5 597.135C1357.51 600.449 1364.85 606.605 1370.54 615.601L1371.25 615.601C1383.1 634.54 1383.57 653.242 1372.67 671.708L1366.98 679.521 1389.73 670.998 1395.42 669.578C1410.58 670.051 1422.43 677.153 1430.96 690.884L1435.93 699.407 1437.35 702.248 1437.35 712.191 1434.51 722.134C1431.67 732.077 1425.27 740.127 1415.32 746.282L1403.95 751.964 1398.26 752.674C1396.84 775.874 1389.73 796.471 1376.94 814.464L1386.18 827.247 1396.13 851.395 1402.53 851.395 1405.37 852.105 1421.72 859.918 1421.72 860.628C1437.35 868.677 1446.12 881.935 1448.02 900.401L1446.6 908.923 1431.67 931.65 1430.96 932.36 1421.01 941.594 1420.3 942.304 1410.34 946.565 1405.37 947.275 1399.68 947.275 1389.02 943.724 1391.15 959.349C1392.1 977.815 1389.26 995.097 1382.62 1011.2L1381.91 1011.2C1371.49 1034.87 1353.72 1049.07 1328.6 1053.81L1326.47 1053.81C1331.68 1063.28 1333.34 1074.17 1331.44 1086.48L1323.62 1117.02 1324.34 1117.02C1319.12 1134.06 1307.51 1143.06 1289.51 1144.01L1288.08 1144.01C1271.97 1143.06 1257.52 1139.04 1244.72 1131.93L1244.01 1131.93C1229.8 1124.83 1220.08 1115.6 1214.87 1104.23 1211.08 1097.13 1209.18 1089.79 1209.18 1082.22 1184.54 1084.59 1163.45 1075.59 1145.92 1055.23L1145.92 1054.52M1267.47 1025.4C1279.32 1031.55 1294.95 1034.87 1314.38 1035.34 1344.71 1036.29 1364.14 1021.61 1372.67 991.309 1382.62 955.798 1375.99 930.467 1352.77 915.315L1358.45 910.344 1368.41 899.69 1370.54 903.952C1396.6 938.989 1417.69 937.095 1433.8 898.27L1433.09 896.139C1428.83 875.306 1415.08 862.995 1391.86 859.208L1383.33 861.338C1383.33 847.134 1377.88 833.166 1366.98 819.435L1359.17 810.912 1368.41 796.708C1378.36 780.609 1383.57 763.327 1384.04 744.861L1384.04 729.947C1403.95 740.363 1417.21 731.841 1423.85 704.379L1423.14 702.248C1418.87 688.044 1409.4 680.704 1394.71 680.231L1371.96 688.754 1354.19 668.867C1376.94 633.829 1369.12 609.919 1330.73 597.135L1283.82 601.396C1266.29 604.237 1256.33 614.18 1253.97 631.225 1252.54 640.696 1253.25 649.454 1256.1 657.504 1241.88 664.133 1228.85 673.839 1217 686.623 1190.47 715.505 1181.7 742.731 1190.7 768.299L1202.79 764.748 1177.2 772.56C1139.76 785.818 1121.99 811.859 1123.89 850.685 1116.78 857.314 1111.09 865.363 1106.83 874.833 1101.14 887.143 1099.72 899.69 1102.56 912.474 1110.14 944.671 1126.02 968.345 1150.19 983.497L1145.21 989.889C1140 997.938 1138.81 1005.99 1141.66 1014.04 1158.24 1057.12 1186.2 1072.51 1225.53 1060.2 1215.58 1095.24 1232.88 1116.78 1277.42 1124.83 1293.06 1127.67 1303.96 1122.46 1310.12 1109.21 1329.07 1066.12 1314.62 1039.13 1266.76 1028.24L1267.47 1026.11 1267.47 1025.4M402.41 736.339C408.097 743.441 410.703 752.201 410.229 762.617 409.281 790.079 397.672 812.096 375.399 828.668L376.821 833.64 376.821 834.35 376.821 835.77 437.951 837.191 438.662 837.191C459.513 841.925 477.283 851.869 491.973 867.02L492.683 867.02C507.848 882.172 517.089 899.453 520.406 918.866 522.775 932.124 520.643 945.145 514.008 957.929L514.008 958.639C507.848 970.476 500.265 981.366 491.262 991.309L501.214 998.411 501.924 998.411C508.559 1004.57 513.06 1012.38 515.43 1021.85 520.168 1044.58 514.719 1064.7 499.081 1082.22L480.6 1097.84C450.272 1117.26 419.943 1117.49 389.616 1098.55 378.243 1091.92 371.845 1082.46 370.424 1070.14L370.424 1069.43C369.475 1057.6 370.897 1046.71 374.689 1036.76L369.713 1036.05 352.653 1032.5 356.918 1039.6C366.87 1057.6 365.211 1077.01 351.942 1097.84 343.413 1111.1 331.802 1119.86 317.113 1124.12L315.691 1124.83C294.84 1128.15 275.412 1122.7 257.404 1108.5L256.694 1108.5C240.582 1095.24 235.369 1077.72 241.056 1055.94L241.056 1054.52C251.007 1026.11 271.383 1009.78 302.185 1005.51L306.451 1005.51 299.342 998.411 298.632 998.411C278.255 976.631 270.672 951.536 275.886 923.128L263.802 915.315 263.091 913.895 251.007 898.27 246.742 907.503 246.742 908.213C230.631 936.622 206.699 951.063 174.95 951.536L174.239 951.536C153.388 951.536 140.831 941.594 136.566 921.707L136.566 920.997C132.774 903.478 134.907 886.669 142.963 870.571L143.674 870.571 155.047 854.946 155.758 854.236 169.263 845.003 160.023 829.378 159.312 828.668C155.995 819.198 155.047 809.965 156.469 800.969L166.42 770.43 147.228 776.111C130.642 779.899 118.322 773.271 110.266 756.225L108.844 751.964C105.053 725.922 114.293 705.799 136.566 691.595L145.096 689.464 157.18 690.174 164.998 693.015C177.32 701.538 185.85 712.901 190.588 727.106 191.536 729 191.772 731.367 191.299 734.208L190.588 736.339C193.431 727.816 198.169 720.241 204.804 713.612L208.358 710.06 203.382 708.64C192.483 703.906 182.531 697.514 173.528 689.464L173.528 688.754 157.18 665.316 157.18 664.606C153.388 656.083 152.677 647.323 155.047 638.328L155.047 637.618 164.998 613.47C177.793 592.636 195.564 584.588 218.31 589.322 246.742 589.322 268.54 599.976 283.705 621.283L287.259 619.862 292.234 619.152 324.221 625.544 325.642 625.544C335.12 627.437 343.65 631.936 351.232 639.038 357.866 645.193 362.842 652.77 366.159 661.765 371.845 677.39 372.794 692.778 369.002 707.93L382.507 716.452 402.41 735.628 402.41 736.339M213.334 853.526 197.696 849.264C169.263 849.738 153.152 863.469 149.361 890.457 144.147 927.862 160.26 940.646 197.696 928.809 208.121 925.969 217.125 920.524 224.707 912.474 242.715 893.062 246.742 877.673 236.791 866.31L251.718 864.179 257.404 862.048 260.958 879.804C265.697 895.902 276.359 905.609 292.945 908.923 280.624 939.7 288.443 968.819 316.402 996.281 337.726 1017.11 362.367 1025.64 390.326 1021.85L398.856 1020.43 390.326 1033.92C374.689 1064.23 382.981 1083.64 415.205 1092.16 446.007 1100.21 470.411 1092.4 488.419 1068.72 516.851 1030.37 509.98 1004.09 467.805 989.889L488.419 969.292C512.587 941.83 513.297 913.185 490.551 883.355 466.384 852.105 432.738 839.321 389.616 845.003L364.026 848.554 367.58 847.844C367.107 837.427 363.553 827.958 356.918 819.435 367.818 813.753 377.294 804.994 385.351 793.157 409.992 757.645 401.937 732.314 361.183 717.163L359.051 715.742 351.942 710.06C355.259 703.431 357.156 696.093 357.629 688.044 360.472 646.851 338.2 627.437 290.812 629.805L277.307 634.066C264.986 608.498 240.107 596.898 202.672 599.266 196.985 599.266 191.772 601.396 187.034 605.658 153.388 634.066 155.995 660.345 194.853 684.493L199.118 687.333C205.752 691.122 212.623 693.725 219.731 695.146L217.599 704.379 221.153 714.322C214.993 718.11 209.78 723.792 205.515 731.367 201.723 737.996 200.777 744.625 202.672 751.254L202.672 751.964 196.274 754.805 194.142 756.225 184.901 764.037 179.215 771.14C155.047 809.965 166.183 837.191 212.623 852.816L213.334 853.526M177.082 727.816 174.239 720.714 161.444 702.958 156.469 700.827 147.939 699.407 140.12 702.248C124.955 712.664 119.269 727.343 123.06 746.282 127.799 755.752 135.144 759.776 145.096 758.356 163.577 754.568 174.239 744.388 177.082 727.816M188.455 746.992 189.166 743.441 189.166 742.731 187.034 747.702 188.455 746.992M256.694 876.253 256.694 878.384 256.694 880.514 259.537 879.804 260.248 879.804 256.694 876.253M303.607 1016.17C291.286 1016.64 280.388 1020.9 270.91 1028.95 262.38 1036.53 256.931 1045.29 254.561 1055.23 247.926 1081.74 260.01 1098.55 290.812 1105.66 311.663 1110.39 327.538 1103.76 338.437 1085.77 360.71 1047.89 349.099 1024.69 303.607 1016.17" fill="#888888" fill-rule="evenodd"/><path d="M1267.67 1025.62 1266.96 1027.75C1314.83 1038.63 1329.28 1065.59 1310.32 1108.64 1304.16 1121.89 1293.26 1127.09 1277.62 1124.26 1233.08 1116.21 1215.78 1094.69 1225.73 1059.68 1186.39 1071.98 1158.43 1056.6 1141.85 1013.56 1139 1005.51 1140.19 997.471 1145.4 989.428L1150.38 983.041C1126.21 967.903 1110.33 944.249 1102.75 912.079 1099.9 899.306 1101.33 886.769 1107.01 874.469 1111.28 865.008 1116.96 856.965 1124.07 850.342 1122.18 811.549 1139.95 785.53 1177.39 772.284L1202.98 764.478 1190.9 768.026C1181.89 742.479 1190.66 715.277 1217.2 686.419 1229.05 673.646 1242.08 663.949 1256.3 657.325 1253.45 649.282 1252.74 640.531 1254.16 631.069 1256.53 614.038 1266.49 604.103 1284.02 601.265L1330.94 597.007C1369.33 609.78 1377.15 633.67 1354.4 668.679L1372.17 688.548 1394.92 680.033C1409.61 680.505 1419.09 687.839 1423.35 702.031L1424.06 704.16C1417.43 731.599 1404.16 740.114 1384.26 729.706L1384.26 744.608C1383.78 763.059 1378.57 780.326 1368.62 796.411L1359.37 810.603 1367.19 819.119C1378.1 832.838 1383.54 846.794 1383.54 860.987L1392.08 858.858C1415.3 862.642 1429.04 874.942 1433.31 895.758L1434.02 897.887C1417.9 936.68 1396.81 938.572 1370.75 903.564L1368.62 899.306 1358.66 909.95 1352.98 914.918C1376.2 930.056 1382.83 955.366 1372.88 990.847 1364.35 1021.12 1344.92 1035.79 1314.59 1034.84 1295.16 1034.37 1279.52 1031.06 1267.67 1024.91L1261.98 1022.07 1267.67 1025.62M212.726 852.471C166.281 836.859 155.144 809.657 179.314 770.865L185.001 763.768 194.243 755.962 196.375 754.543 202.773 751.705 202.773 750.995C200.878 744.372 201.825 737.749 205.617 731.126 209.882 723.557 215.096 717.88 221.256 714.095L217.702 704.16 219.834 694.935C212.726 693.516 205.854 690.914 199.219 687.129L194.954 684.291C156.093 660.164 153.485 633.908 187.134 605.523 191.873 601.265 197.086 599.136 202.773 599.136 240.212 596.77 265.093 608.361 277.416 633.908L290.922 629.65C338.314 627.284 360.589 646.681 357.745 687.839 357.272 695.882 355.375 703.214 352.058 709.837L359.167 715.514 361.299 716.933C402.057 732.072 410.113 757.382 385.469 792.863 377.412 804.69 367.935 813.442 357.034 819.119 363.67 827.634 367.224 837.096 367.697 847.504L364.143 848.213 389.735 844.665C432.861 838.988 466.51 851.761 490.68 882.985 513.428 912.789 512.717 941.41 488.547 968.849L467.932 989.428C510.111 1003.62 516.982 1029.88 488.547 1068.2 470.538 1091.85 446.131 1099.66 415.326 1091.61 383.099 1083.1 374.806 1063.7 390.446 1033.42L398.976 1019.94 390.446 1021.36C362.484 1025.15 337.84 1016.63 316.514 995.815 288.552 968.376 280.733 939.281 293.055 908.531 276.467 905.22 265.804 895.521 261.065 879.437L257.511 861.696 251.824 863.825 236.896 865.954C246.848 877.308 242.82 892.683 224.81 912.079 217.228 920.121 208.223 925.562 197.797 928.401 160.358 940.228 144.244 927.454 149.457 890.081 153.249 863.115 169.362 849.396 197.797 848.923L213.436 853.181 215.569 853.89 219.834 855.309 219.123 854.6 215.569 853.89 212.726 852.471M177.181 727.578C174.338 744.136 163.675 754.307 145.192 758.091 135.24 759.511 127.894 755.49 123.155 746.028 119.363 727.104 125.05 712.439 140.216 702.031L148.036 699.193 156.566 700.612 161.542 702.741 174.338 720.481 177.181 727.578M303.718 1015.68C349.215 1024.2 360.826 1047.38 338.551 1085.23 327.651 1103.2 311.775 1109.83 290.922 1105.1 260.117 1098 248.032 1081.21 254.667 1054.71 257.038 1044.78 262.487 1036.03 271.018 1028.46 280.496 1020.41 291.396 1016.16 303.718 1015.68M174.338 902.144C196.613 893.156 197.086 882.985 175.76 871.631 160.594 873.996 155.855 882.275 161.542 896.467 164.386 902.144 168.651 904.037 174.338 902.144M289.501 1024.91 274.572 1032.71C257.038 1050.69 260.592 1063.23 285.235 1070.32 291.396 1072.22 296.609 1071.03 300.875 1066.78 321.728 1047.85 317.936 1033.9 289.501 1024.91" fill="#AAAAAA" fill-rule="evenodd"/><path d="M289.393 1025.62C317.847 1034.63 321.642 1048.61 300.775 1067.58 296.506 1071.84 291.289 1073.03 285.124 1071.13 260.464 1064.02 256.907 1051.46 274.454 1033.44L289.393 1025.62M174.15 902.587C168.459 904.484 164.191 902.587 161.345 896.898 155.654 882.674 160.396 874.378 175.573 872.007 196.914 883.386 196.44 893.579 174.15 902.587" fill="#DDDDDD" fill-rule="evenodd"/></g></svg>