<svg width="1761" height="1761" xmlns="http://www.w3.org/2000/svg" xmlns:xlink="http://www.w3.org/1999/xlink" overflow="hidden"><defs><clipPath id="clip0"><rect x="0" y="0" width="1761" height="1761"/></clipPath></defs><g clip-path="url(#clip0)"><path d="M1290.54 1141.75 1270.53 1152.09 1290.54 1141.75ZM1286.84 1131.42 1286.84 1131.42 1305.3 1141.01 1305.3 1141.01ZM1381.06 1068 1358.45 1104.87 1342.21 1104.87 1329.66 1076.85 1342.21 1104.87 1358.45 1104.87ZM1438.18 1020.81 1394.63 1045.88 1394.63 1045.88ZM369.956 921.989 381.029 924.938C405.638 941.654 426.8 961.073 444.518 983.197L444.518 1010.48 444.518 1010.48 444.518 1239.83 406.868 1200.74 319.018 1138.8 319.756 1115.2 327.877 1105.61 326.4 1090.13 262.912 1068 277.677 1040.72 250.362 1028.92 239.288 1008.27 344.856 969.185 370.694 937.475 370.694 937.475 344.856 969.185 239.288 1008.27 250.362 1028.92 277.676 1040.72 262.912 1068 326.4 1090.13 327.876 1105.61 319.756 1115.2 319.018 1138.8 406.867 1200.74 444.518 1239.83 444.518 1259 398.747 1211.07 312.373 1150.6 307.206 1144.7 305.729 1138.06 306.467 1114.46 310.159 1104.87 313.85 1100.45 259.959 1081.28 252.576 1076.11 249.623 1068.74 251.838 1060.63 258.482 1047.35 245.932 1042.19 239.288 1035.56 228.215 1014.91 226 1006.79 228.953 998.683 235.597 993.521 338.212 955.911 361.097 927.888C363.065 924.447 366.018 922.48 369.956 921.989ZM1413.82 909.452 1413.82 909.452 1464.76 942.637 1464.76 942.637ZM1292.75 613 1300.13 616.687 1430.06 742.053 1434.49 749.427 1481 938.212 1480.26 947.062 1475.09 953.699 1466.97 956.648 1458.11 954.436 1437.44 941.162 1454.42 1017.12 1452.95 1025.97 1447.04 1033.34C1433.26 1040.72 1419.73 1048.34 1406.44 1056.2L1372.48 1111.51 1367.31 1116.67 1359.93 1118.89 1343.69 1118.89 1335.57 1115.94 1333.35 1114.46 1330.4 1122.57 1331.88 1125.52 1331.88 1134.37 1327.45 1141.75 1316.37 1151.33 1308.99 1155.02 1300.13 1153.55 1300.13 1152.81 1298.66 1153.55 1259.53 1174.19 1167.99 1239.09 1167.99 1220.65 1167.99 1220.65 1176.85 686.007 1177.59 669.783 1177.59 669.783 1179.8 662.409 1186.44 657.984 1283.89 613.737Z" fill="#AFAFAF" fill-rule="evenodd"/><path d="M1176.86 687.015 1177.6 670.792 1179.81 663.417 1186.46 658.992 1283.91 614.746 1292.76 614.008 1300.15 617.695 1430.08 743.061 1434.51 750.435 1481.01 939.221 1480.28 948.07 1475.11 954.707 1466.99 957.657 1458.13 955.445 1437.46 942.171 1454.44 1018.13 1452.96 1026.98 1447.06 1034.35C1433.28 1041.73 1419.74 1049.35 1406.45 1057.21L1372.49 1112.52 1367.33 1117.68 1359.94 1119.89 1343.7 1119.89 1335.58 1116.94 1333.37 1115.47 1330.41 1123.58 1331.89 1126.53 1331.89 1135.38 1327.46 1142.76 1316.39 1152.34 1309.01 1156.03 1300.15 1154.55 1300.15 1153.82 1298.67 1154.55 1259.54 1175.2 1168 1240.1 1168 1221.66 1249.21 1164.14 1290.55 1142.76 1286.86 1132.43 1305.31 1142.02 1316.39 1132.43 1313.44 1124.32 1329.68 1077.86 1342.23 1105.88 1358.47 1105.88 1394.64 1046.89 1438.2 1021.81 1413.84 910.46 1464.77 943.646 1418.26 754.86 1288.34 628.757 1177.6 670.792 1176.86 687.015M444.532 1240.83 444.532 1260.01 398.762 1212.07 312.388 1151.6 307.221 1145.7 305.744 1139.07 306.482 1115.47 310.173 1105.88 313.865 1101.46 259.973 1082.28 252.591 1077.12 249.638 1069.75 251.853 1061.64 258.497 1048.36 245.947 1043.2 239.303 1036.56 228.229 1015.91 226.015 1007.8 228.967 999.691 235.612 994.529 338.227 956.919 361.112 928.897C363.08 925.455 366.033 923.489 369.971 922.997L381.044 925.947C405.652 942.662 426.815 962.082 444.532 984.205L444.532 1011.49C425.338 983.467 400.73 959.132 370.709 938.483L344.871 970.193 239.303 1009.28 250.377 1029.93 277.691 1041.73 262.926 1069.01 326.414 1091.13 327.891 1106.62 319.771 1116.21 319.032 1139.81 406.882 1201.75 444.532 1240.83" fill="#999999" fill-rule="evenodd"/><path d="M1176.98 687.259 1177.72 671.037 1288.5 629.008 1418.49 755.095 1465.02 943.857 1414.05 910.676 1438.43 1022.02 1394.85 1047.09 1358.66 1106.07 1342.42 1106.07 1329.86 1078.05 1313.61 1124.51 1316.57 1132.62 1305.49 1142.2 1287.02 1132.62 1290.72 1142.94 1249.36 1164.32 1168.12 1221.84 1176.98 687.259M444.333 1011.69 444.333 1241.01 406.667 1201.93 318.779 1139.99 319.517 1116.4 327.641 1106.81 326.164 1091.33 262.648 1069.21 277.419 1041.92 250.093 1030.13 239.015 1009.48 344.628 970.401 370.477 938.695C400.511 959.341 425.13 983.674 444.333 1011.69" fill="#AFAFAF" fill-rule="evenodd"/></g></svg>