<svg width="1761" height="1761" xmlns="http://www.w3.org/2000/svg" xmlns:xlink="http://www.w3.org/1999/xlink" overflow="hidden"><defs><clipPath id="clip0"><rect x="0" y="0" width="1761" height="1761"/></clipPath></defs><g clip-path="url(#clip0)"><path d="M340.282 441.349 433.472 443.993 588.725 420.71 583.567 417.938C471.936 427.875 489.127 429.241 373.755 433.568L352.52 438.448 357.69 441.994M409.997 461.208 417.904 453.514C337.257 462.169 198.195 484.012 175.963 479.478 411.952 363.626 580.69 295.727 843.589 276.264 864.87 280.993 882.47 285.498 899.022 299.684L904.825 300.587 915.788 317.738C929.976 331.451 927.222 315.507 931.952 331.112L923.483 288.225 955.966 276.511 1013.23 352.046C1009.13 317.031 995.995 279.437 1000.91 247 1025.23 255.182 1084.37 322.673 1126.09 360.51L1107.06 362.769 1070.27 388.15 1166.1 464.452 1148.51 490.913 1221 603.045 1183.92 638.835 1154.25 637.354 1106.23 680.878 991.525 662.093 975.336 681.199 940.449 688.852 959.737 724.336 821.657 845.671 805.576 850.057 613.717 915.204 664.341 855.447 665.525 838.189 798.523 708.324 793.838 702.586C779.65 711.571 772.17 719.781 758.928 729.711L637.99 815.085C596.372 843.929 553.935 870.597 506.41 889.927 458.886 909.257 402.498 924.446 352.841 931.066L206.575 933C169.05 930.798 131.525 936.009 93.9998 926.393L265.22 694.374 395.809 591.719C300.128 663.124 156.644 775.569 106.272 787.228 144.029 668.264 163.633 651.831 211.015 598.69 258.397 545.55 324.355 504.325 390.564 468.387L399.321 460.63 406.228 460.266" fill="#FFFFFF" fill-rule="evenodd"/><path d="M331.068 448.579 326.1 445.031 367.98 428.714 708.702 403.883 708.702 406.012 433.995 449.288 331.068 448.579M393.534 469.153 409.861 461.349 465.938 451.417 393.534 469.153M1115.93 347.79 1167.46 399.865C1230.73 377.957 1288.63 360.413 1355.64 341 1320.9 371.744 1296.87 383.91 1259.63 408.419L1278.7 407.236C1307.57 410.547 1334.97 426.607 1353.43 451.674 1373.78 478.16 1389.16 509.355 1399.57 541.517L1377.39 537.54 1373.61 538.444C1405.79 581.957 1426.33 652.147 1455.19 768.97L1459 790.19 1317.59 754.912C1317.8 818.62 1311.77 876.091 1311.98 939.798L1091.76 849.549 1060.05 901.993 956.973 810.701C897.066 876.163 822.158 916.045 732.245 926.924L759.033 883.345 424.265 1016 481.292 942.595 420.788 964.005C395.234 972.991 364.839 981.785 338.339 984.15L189.897 988.664 78 976.775 97.2064 926.985 207.557 928.253 354.493 919.739C404.182 913.118 454.612 899.771 501.344 881.429 548.075 863.087 593.235 838.54 634.879 809.689L758.391 722.426C771.641 712.494 785.365 703.035 799.561 694.048L807.369 705.399 671.79 840.904 677.469 865.026 624.941 905.465 803.82 835.938 813.048 840.904 951.466 718.879 918.814 678.44 964.953 677.021 969.922 647.934 1093.43 669.218 1150.22 623.813 1168.68 630.907 1202.04 608.205 1138.86 490.436 1150.22 472.7 1048.71 388.276 1105.5 348.546 1126.41 353.021M271.442 692.629C211.988 755.864 111.654 885.279 93.0788 882.332 97.7823 850.285 98.6109 820.561 107.189 786.191L395.664 591.887 274.023 694.564" fill="#DDDDDD" fill-rule="evenodd"/><path d="M1286.83 937.306 1274.54 999C1265.52 956.318 1238.96 936.638 1194.84 939.958 1166.37 939.483 1139.33 943.751 1113.71 952.762L1073 889.451 1092.54 853 1292 932.781" fill="#AAAAAA" fill-rule="evenodd"/><path d="M1075.7 889.406 1061.51 911.394 958.646 823.441C872.096 885.387 809.666 919.433 771.356 925.58L727.372 932.673 727.372 922.034 744.398 890.825 420.897 1019.21 454.24 963.883 424.444 975.232C397.486 984.689 370.291 990.6 342.859 992.964L192.46 999.348 79.66 988.708 72.5658 984.453 69.0184 977.359 69.7279 968.848 89.5921 922.034 91.7202 919.906 129.32 868.127 109.456 889.406 101.652 893.662 93.1392 892.243 86.7542 886.569 84.6261 877.348 98.1053 783.72 98.8148 782.301C117.26 711.844 153.677 648.952 208.067 593.627 253.471 546.813 304.55 506.619 361.305 473.046L171.177 485.813 169.758 482.976 169.048 480.848 342.859 395.022C463.936 334.495 578.391 298.084 686.224 285.789L850.103 267.348C873.278 272.549 894.088 282.952 912.533 298.557L916.081 303.522 916.79 304.231 918.918 305.65 916.081 292.173C915.135 288.863 915.608 285.553 917.499 282.243L925.303 275.859 951.552 266.639 960.065 266.639 967.16 271.604 1000.5 317.708 994.118 236.848 996.247 235.429 1000.5 234.011 1117.56 338.278 1119.69 341.115 1170.77 390.766 1364.44 334.022 1366.57 336.859 1367.28 338.987 1294.92 399.278C1321.88 405.425 1344.34 420.793 1362.31 445.383 1383.6 473.282 1399.68 504.018 1410.55 537.592L1410.55 547.522 1403.46 554.615 1394.95 556.034C1419.07 600.483 1443.43 681.107 1468.02 797.906L1326.84 767.406 1316.91 947.569 1281.44 939.057 1098.4 858.906 1075.7 889.406M410.255 460.987 393.939 468.79C327.725 504.728 268.606 549.414 216.58 602.848 164.082 656.282 128.847 717.045 110.875 785.138L97.3958 878.766 271.916 692.22 101.652 926.999 81.079 973.813 191.041 984.453 340.022 978.069C366.507 975.705 392.52 970.03 418.059 961.046L500.353 928.417 428.701 1012.82 774.194 871.673 735.885 921.325C825.746 910.448 899.054 870.728 955.809 802.162L1060.8 899.336 1089.89 839.755 1311.23 936.22 1311.23 748.255 1458.8 787.267 1453.12 771.662C1424.27 654.863 1393.77 574.712 1361.6 531.208L1372.25 534.045 1395.66 541.138C1385.25 508.984 1369.88 479.666 1349.54 453.185 1331.1 428.123 1307.45 413.937 1278.6 410.627L1267.25 409.918 1255.9 412.045 1243.84 414.173 1352.38 342.534 1165.8 406.371 1113.3 355.301 1001.21 246.778 1023.21 373.743 954.39 279.406 928.141 288.627 944.458 366.65C939.728 351.045 930.269 336.386 916.081 322.673L901.892 311.325 901.892 308.487C885.339 294.301 866.42 284.844 845.138 280.115 638.929 296.193 417.823 362.158 181.818 478.011L434.376 448.929 410.255 460.987M1117.56 338.987 1116.85 338.278 1119.69 341.115 1117.56 338.987M418.769 1019.92 418.059 1020.63 415.931 1012.82 418.769 1019.92M418.769 1021.34 418.769 1022.05 418.769 1021.34M419.478 1022.05 426.572 1027.01 418.769 1022.05 419.478 1022.05" fill="#888888" fill-rule="evenodd"/></g></svg>