<svg width="1761" height="1761" xmlns="http://www.w3.org/2000/svg" xmlns:xlink="http://www.w3.org/1999/xlink" overflow="hidden"><defs><clipPath id="clip0"><rect x="0" y="0" width="1761" height="1761"/></clipPath></defs><g clip-path="url(#clip0)"><path d="M967.356 1069.96 967.414 1076.69 966.496 1081.06 965.989 1074.47ZM348.939 890.609 310.395 923.419C253.149 975.922 204.728 1037.26 165.133 1107.42L128.639 1179.73 128.639 1179.73 165.133 1107.42C204.729 1037.26 253.149 975.922 310.395 923.419L348.939 890.61ZM231.681 866.859 204.859 902.31 204.858 902.311ZM381.177 826.241 373.813 840.323 364.167 866.681 364.167 866.681 373.813 840.323 381.177 826.242ZM1419.5 711.153 1450.31 744.43 1500.4 804.57 1450.31 772.353C1410.95 749.442 1369.71 730.827 1326.6 716.508L1318.8 714.209 1318.8 714.209 1326.6 716.508C1369.71 730.827 1410.95 749.442 1450.31 772.353L1500.4 804.57 1533.31 847.528 1542.62 860.415 1542.62 861.131 1542.62 861.131 1542.62 860.415 1533.31 847.527 1500.4 804.57 1450.31 744.43ZM1332.33 698.408 1342.97 706.483 1342.97 706.484 1332.33 698.408ZM1378.75 667.824 1387.34 676.415 1387.34 676.415 1378.75 667.824ZM1398.79 637.037 1403.08 637.753 1541.18 669.255 1541.19 669.255 1403.08 637.753 1398.79 637.037ZM1397.35 636.321 1398.07 637.037 1398.07 637.037 1397.35 636.321ZM1398.49 586.699 1385.19 590.5 1381.79 591.945 1385.19 590.5ZM317.949 583.999 310.395 591.932 305.02 598.555 310.396 591.932ZM1450.31 536.803C1435.04 537.997 1419.84 540.085 1404.69 543.068L1359.43 554.702 1359.43 554.702 1404.69 543.068C1419.84 540.085 1435.04 537.997 1450.31 536.803L1569.09 545.395 1457.61 570.257 1569.09 545.395 1582.69 548.974 1582.69 548.974 1569.09 545.394ZM361 489.619 354.045 497.426 354.046 497.426ZM865.925 476.641 865.925 476.642 869.26 490.266 869.26 490.266ZM1205.03 407.617 1205.03 407.617 1202.33 411.021 1202.33 411.022ZM327.569 407.216 327.565 407.218 208.971 463.024ZM292.503 407.059 267.461 431.558 267.461 431.558ZM442.061 398.624 388.731 442.178 442.061 398.624ZM296.799 389.317 299.662 400.056 299.662 400.056ZM1473.21 385.737 1450.31 393.612C1414.05 406.976 1379.47 423.922 1346.55 444.445L1332.24 453.752 1323.65 459.48 1320.12 461.602 1320.07 461.628 1320.07 461.628 1320.12 461.602 1323.65 459.481 1323.65 459.48 1332.24 453.753 1346.55 444.445C1379.46 423.922 1414.05 406.976 1450.31 393.613L1473.2 385.737ZM1228.73 382.137 1214.17 396.118 1205.26 407.33 1205.26 407.329 1214.17 396.118ZM258.977 379.395 196.977 429.947C176.225 448.204 156.308 467.117 137.226 486.687L113.806 514.063 113.806 514.063 137.226 486.687C156.308 467.117 176.225 448.204 196.977 429.948L258.978 379.395ZM152.722 363.914 146.528 367.122 136.51 372.133 136.511 372.133 146.529 367.122 152.721 363.915ZM549.074 316.932 619.661 341.819 619.662 341.819ZM814.16 304.834 852.085 420.103 852.18 423.019 852.18 423.02 852.086 420.103 852.086 420.102ZM672.238 296.479 703.246 320.585 703.246 320.585ZM1010.23 288.367 998.063 380.009 1010.23 288.367ZM1346.01 281.386 1342.64 283.865 1346.01 281.386ZM479.271 280.491 547.251 316.289 547.251 316.289 479.271 280.491ZM1165.51 271.9 1165.51 271.9 1165.51 271.9 1175.53 290.515 1175.53 290.515ZM1161.21 264.025 1166.22 264.74 1165.78 269.197 1166.22 264.74ZM420.765 262.099 390.821 269.371 390.821 269.372 420.765 262.1ZM433.474 259.013 432.035 259.362 432.035 259.362 433.474 259.013ZM495.73 255.433 447.194 274.238 447.195 274.238ZM749.759 254.717 933.441 365.823 749.759 254.717ZM677.485 246.842 684.588 251.674 677.486 246.842ZM1427.41 227.511 1194.85 331.324 1180.53 300.538 1176.96 292.663 1175.53 291.23 1175.53 291.231 1176.96 292.663 1175.53 293.379 1175.53 293.379 1176.96 292.663 1180.53 300.538 1194.85 331.325 1427.41 227.511ZM905.754 188.133 905.754 188.133 954.526 234.018ZM944.379 167.484 987.508 189.207C1013.39 203.287 1038.85 218.203 1063.9 233.954L1063.9 233.955 1073.91 240.398 1073.91 240.398 1083.22 246.842 1083.22 246.841 1073.91 240.398 1063.9 233.954C1038.85 218.203 1013.39 203.287 987.508 189.207ZM1096.1 162.359 1084.65 233.238 1083.37 245.376 1084.65 233.238 1077.49 361.394 1077.49 361.395 1084.65 233.238 1096.1 162.359 1096.1 162.359 1118.41 181.868 1125.31 190.702 1118.41 181.868C1111.65 174.709 1104.21 168.205 1096.1 162.359ZM814.876 141.596 818.897 145.718 962.284 292.662 962.284 292.663 818.897 145.718 814.876 141.596ZM828.368 131.495 835.449 135.51 835.449 135.51ZM844.93 122.265 844.93 122.265 869.975 131.572ZM767.576 95.2476 844.93 122.981 844.93 122.981ZM759.06 92.1949 798.325 149.884 759.061 92.1952ZM756.198 90.7631 756.199 90.7634 757.629 91.479 757.63 91.479ZM726.145 70.0001C858.287 105.798 973.257 156.631 1071.05 222.499L1083.93 143.028 1104.68 149.471 1113.27 154.483C1157.64 199.349 1187.93 251.614 1204.15 311.278 1281.91 271.184 1363.72 237.773 1449.59 211.044 1418.11 283.594 1382.57 355.906 1342.97 427.978L1425.26 386.453 1440.29 379.293 1450.31 375.713C1468.44 369.509 1480.84 373.566 1487.52 387.885L1393.06 531.791 1431.7 524.632 1450.31 523.2 1453.17 522.484C1505.65 514.37 1553.59 522.723 1597 547.542L1441 632.025 1552.63 660.664 1551.92 676.415 1422.4 692.165 1557.64 856.835 1551.92 872.586 1421.68 816.741C1428.36 850.152 1437.9 883.086 1450.31 915.543L1468.94 956.641 1481.84 980.069C1491.83 997.431 1502.78 1015.78 1514.71 1035.11L1512.18 1035.32 1515.42 1040.84 1479.65 1042.27 1477.71 1038.24 1463.9 1039.4 1519.72 1234.86C1439.1 1186.65 1371.35 1133.91 1316.49 1076.63 1329.85 1175.91 1318.88 1274 1283.58 1370.89L1217.03 1084.51C1186.5 1311.71 1132.83 1496.66 1056.02 1639.37L1042.43 1663 1044.58 1655.84 1046.01 1639.37 1056.02 1539.14C1067 1441.77 1069.14 1305.98 1062.47 1131.76 1052.45 1177.11 1035.51 1206.7 1011.66 1220.54L1022.39 1039.4 970.156 1116.73 969.748 1068.68 984.474 1020.09C1008.8 949.927 1013.57 880.24 998.785 811.031L998.07 803.872C990.914 722.253 955.136 660.92 890.734 619.871L890.018 619.871 882.147 614.143 854.955 600.541 852.093 599.109 838.497 593.381 813.452 582.641C754.416 560.447 695.113 548.992 635.541 548.276 615.684 548.037 595.797 548.992 575.88 551.139L575.165 551.139 573.733 551.856 573.018 551.856C550.12 551.856 528.413 556.151 507.901 564.743L479.993 571.187 471.406 573.334 464.966 575.482 462.104 576.914 466.397 579.062 467.113 579.062 467.113 579.778 474.269 583.357 504.323 599.825 412.729 624.167C417.022 629.417 419.169 638.486 419.169 651.373 418.692 668.079 413.205 683.592 402.711 697.911L313.264 827.498C326.621 810.316 343.557 801.247 364.07 800.292 373.133 800.292 378.381 804.588 379.812 813.179 386.492 844.681 386.492 876.899 379.812 909.833L365.501 975.701 365.501 976.417C364.964 999.685 366.407 1023.69 369.828 1048.44L375.709 1081.92 371.934 1094.53 371.934 1094.53 375.709 1081.93 376.444 1086.11 379.499 1098.47 373.351 1116.57 356.907 1065.85C341.88 1011.71 335.44 960.649 337.587 912.679 256.488 995.253 187.792 1087.13 131.501 1188.32L125.06 1208.37C97.3922 1068.52 117.428 946.806 185.169 843.232L213.634 803.77 158.693 836.072C134.84 848.005 110.272 858.267 84.9886 866.858L38.4764 881.177C103.832 803.377 145.336 711.973 162.987 606.967L170.858 571.885 12 655.652C50.6412 563.532 111.465 484.062 194.472 417.239L228.819 388.6 116.474 382.157C202.82 312.948 299.185 269.036 405.567 250.421L321.129 161.643 293.221 145.892C473.07 146.847 642.899 159.734 802.711 184.553Z" fill="#DDDDDD" fill-rule="evenodd"/><path d="M1542.61 860.413 1542.61 860.413 1542.61 860.414 1542.61 860.414ZM1500.37 804.551 1500.38 804.553 1500.38 804.553 1500.37 804.551ZM1449.66 772.015 1449.67 772.02 1449.69 772.029 1449.68 772.024 1449.67 772.02 1449.67 772.02ZM1396.79 744.773 1396.8 744.777 1396.81 744.782 1396.8 744.777ZM1382.58 738.36 1382.59 738.364 1382.6 738.368 1382.59 738.363ZM1327.33 716.789 1327.35 716.796 1327.37 716.802 1327.35 716.796ZM1397.37 636.335 1397.37 636.336 1397.37 636.336ZM1569.03 545.402 1569.03 545.402 1569.03 545.402 1569.03 545.402ZM1213.86 396.493 1213.85 396.5 1213.85 396.504 1213.86 396.496ZM1214.53 395.756 1214.53 395.762 1214.53 395.764 1214.53 395.758ZM1166.22 264.754 1166.22 264.754 1166.22 264.754 1166.22 264.754ZM1084.63 233.405 1084.63 233.413 1084.63 233.421 1084.63 233.413ZM726.141 70.0001C858.283 105.798 973.252 156.63 1071.05 222.497L1083.93 143.027 1104.68 149.471 1113.27 154.482C1146.54 188.131 1171.9 225.942 1189.34 267.915L1189.34 267.924 1189.35 267.932 1204.14 311.274 1323.82 256.147C1364.73 239.441 1406.65 224.407 1449.58 211.042L1449.57 211.066 1449.59 211.059C1433.85 247.334 1417.09 283.549 1399.32 319.705L1342.99 427.963 1425.26 386.449 1440.28 379.29 1450.3 375.71C1468.43 369.505 1480.83 373.562 1487.51 387.881L1487.51 387.885 1487.52 387.899 1393.08 531.782 1431.7 524.627 1450.3 523.195 1453.16 522.479C1505.64 514.365 1553.58 522.719 1596.99 547.537L1596.98 547.544 1597 547.554 1441.02 632.026 1552.63 660.657 1552.63 660.672 1552.63 660.674 1551.92 676.425 1422.41 692.175 1557.64 856.826 1557.63 856.832 1557.64 856.843 1551.92 872.594 1421.68 816.75C1425.02 833.456 1429.08 850.042 1433.85 866.508L1450.31 915.545 1468.93 956.631 1481.83 980.058C1491.82 997.42 1502.78 1015.77 1514.7 1035.1L1514.7 1035.1 1514.71 1035.11 1512.19 1035.33 1515.42 1040.82 1515.41 1040.82 1515.43 1040.84 1479.65 1042.27 1477.71 1038.24 1463.9 1039.41 1519.72 1234.86C1439.1 1186.66 1371.36 1133.92 1316.5 1076.64 1329.85 1175.92 1318.88 1274 1283.58 1370.89L1283.57 1370.87 1283.57 1370.88 1217.03 1084.52 1204.5 1167.73C1172.72 1357.29 1123.23 1514.5 1056.03 1639.37L1042.43 1663 1042.45 1662.94 1042.42 1662.98 1044.57 1655.82 1046 1639.36 1056.02 1539.12C1065.62 1453.93 1068.46 1339.31 1064.55 1195.28L1062.46 1131.79 1053.66 1162.82C1043.55 1190.92 1029.55 1210.16 1011.66 1220.54L1011.66 1220.52 1011.65 1220.53 1022.39 1039.42 979.183 1103.37 979.301 1100.82C979.71 1090.31 980.12 1088.95 979.301 1074.61 978.482 1060.28 975.753 1038.3 974.389 1014.82 973.024 991.334 971.796 954.064 971.114 933.723 970.432 913.381 970.295 892.767 970.295 892.767 968.658 892.903 968.249 908.74 961.29 934.542 954.331 960.344 936.319 1022.46 928.542 1047.58 924.653 1060.14 922.333 1066.42 920.406 1071.13L919.577 1073.09 921.276 1057.04 925.868 1037.02 925.868 1037.02 921.275 1057.04 919.577 1073.09 917.662 1077.61C916.748 1079.77 915.784 1082.12 914.624 1085.26L914.624 1078.71C914.624 1078.71 915.579 1078.3 914.624 1065.6 913.669 1052.91 911.213 1022.6 908.893 1002.53 906.574 982.461 905.209 967.444 900.706 945.191 896.204 922.938 887.743 892.903 881.876 869.012 876.009 845.121 870.005 820.138 865.502 801.844 861 783.55 858.407 773.448 854.859 759.249 854.996 755.768 855.132 752.287 847.491 778.089 839.85 803.891 820.883 871.196 809.012 914.064 797.141 956.931 785.27 1007.99 776.265 1035.29 767.259 1062.6 762.074 1063.69 754.978 1077.89 751.294 1074.54 747.61 1071.2 743.517 1048.4 739.423 1025.6 733.692 976.454 730.418 941.095 727.143 905.736 726.597 858.636 723.868 836.247 721.139 813.858 717.318 816.588 714.044 806.759L722.231 763.345C724.345 758.908 726.461 754.471 716.5 769.079 706.539 783.687 678.976 817.271 662.466 850.991 645.955 884.712 627.671 934.405 617.438 971.402 607.204 1008.4 603.656 1045.94 601.063 1072.97 598.471 1100 601.882 1133.59 601.882 1133.59 592.74 1134.54 563.54 1102.19 546.211 1078.71 528.882 1055.23 508.96 1017.27 497.908 992.7 486.855 968.126 483.308 948.604 479.897 931.265 476.485 913.927 478.259 902.869 477.441 888.671 470.822 897.067 464.205 905.463 450.423 931.265 436.642 957.068 408.67 1011.13 394.752 1043.49 387.794 1059.66 382.915 1074.68 378.737 1088.38L371.499 1111.05 368.8 1102.76 368.597 1101.9 356.906 1065.84C353.149 1052.3 349.929 1038.96 347.246 1025.81L345.951 1018 344.748 1012.74 343.686 1004.32 340.806 986.938 339.365 970.073 338.307 961.685 338.237 956.856 337.585 949.225 337.585 912.694 279.094 976.362C222.921 1041.78 173.725 1112.44 131.507 1188.33L125.066 1208.37 125.062 1208.35 125.06 1208.36C97.3918 1068.51 117.428 946.796 185.168 843.223L213.606 803.799 158.699 836.081C134.846 848.013 110.278 858.275 84.9948 866.867L38.4828 881.185 38.5012 881.16 38.4763 881.168C103.832 803.368 145.336 711.966 162.986 606.961L170.852 571.903 12.0065 655.662 12.0202 655.635 12 655.646C50.641 563.527 111.465 484.057 194.471 417.235L228.8 388.613 116.48 382.17 116.502 382.155 116.473 382.153C181.232 330.247 251.627 292.57 327.657 269.123L405.557 250.421 321.134 161.659 293.226 145.908 293.251 145.908 293.22 145.891C428.106 146.607 557.356 154.035 680.971 168.175L802.702 184.551 726.148 70.0171 726.154 70.0189Z" fill="#DDDDDD" fill-rule="evenodd"/><path d="M1073.94 240.605 1063.92 234.88 1063.92 234.164 1073.94 240.605M759.114 92.4489C812.061 118.215 860.955 150.184 905.792 188.357L1001.67 278.539 937.99 368.721C875.026 330.548 812.3 292.615 749.812 254.92L906.508 314.326 915.809 303.59 892.913 235.595 962.317 292.854 814.923 141.834 894.344 276.392 578.091 188.357 592.401 201.956 450.731 184.063 439.998 215.555 703.304 320.768 603.849 243.468 695.434 259.215 677.546 247.047 706.882 239.89 699.011 235.595 716.183 242.037 798.467 347.25 525.859 290.707 500.101 274.961 511.549 265.656 495.808 255.636 327.664 320.768 547.324 316.473 622.452 342.955 618.875 343.671 488.653 391.625 680.408 373.732 571.652 462.482C677.069 417.152 741.226 400.929 764.122 413.812 786.542 426.219 821.601 451.746 869.301 490.396L852.129 420.254 814.208 305.021 950.154 438.863 998.093 380.173 1010.26 288.559 1077.51 361.564 1084.67 233.448 1096.12 162.591C1117.11 216.509 1128.79 271.621 1131.18 327.925 1134.04 388.046 1127.12 446.259 1110.43 502.563L1103.27 529.761C1151.45 501.608 1203.92 482.762 1260.68 473.218L1271.42 476.081 1150.5 560.537 1342.97 706.547 1072.51 545.507 1134.75 760.227C1097.07 728.734 1056.52 701.536 1013.12 678.633 957.785 650.958 899.829 634.019 839.25 627.816L685.417 607.06C624.36 601.811 563.542 606.105 502.963 619.943L432.128 543.36C458.362 498.985 493.901 463.437 538.738 436.716 447.63 466.776 371.549 518.548 310.492 592.029 241.803 674.1 175.501 758.318 111.582 844.683L58.6344 869.018C118.26 798.399 156.182 715.135 172.4 619.228L185.994 565.547 261.122 487.533C207.698 498.03 156.898 523.08 108.72 562.685L35.0227 622.806C65.0738 571.273 99.1792 525.943 137.34 486.817 175.501 447.691 217 411.189 261.838 377.31L359.862 340.092 146.642 367.29 207.459 335.798C279.486 301.443 354.853 275.915 433.559 259.215L332.673 156.865C513.457 163.067 682.078 180.484 838.535 209.113L759.114 92.4489M1542.59 860.429 1543.31 861.145 1544.02 861.86 1542.59 861.145 1542.59 860.429M757.683 91.7332 756.967 91.7332 756.252 91.0175 757.683 91.7332M296.898 389.478 171.684 470.355 170.969 481.091 327.664 407.371 267.562 431.706 299.76 400.214 296.898 389.478M397.784 356.554 299.76 463.914 526.575 342.955 397.784 356.554M189.572 660.024 172.4 712.988 215.33 661.456C289.742 572.705 372.741 492.543 464.326 420.97L354.138 497.553 442.145 398.782 204.597 592.745 212.468 613.501 174.546 660.74 189.572 660.024" fill="#DDDDDD" fill-rule="evenodd"/><path d="M1063.89 233.824 1063.89 234.541 1073.91 240.27 1083.21 246.716 1084.64 233.108 1077.48 361.307 1010.23 288.255 998.066 379.928 950.128 438.657 814.186 304.728 792.721 311.89 812.039 360.591 740.491 378.496 786.997 390.671 852.822 442.237 852.107 420.035 869.278 490.223C821.579 451.548 786.521 426.004 764.102 413.59 741.206 400.698 677.051 416.931 571.637 462.291L680.39 373.483 488.64 391.387 618.858 343.402 622.436 342.686 547.31 316.187 479.339 280.377 525.845 290.404 798.445 346.984 716.164 241.703 704.717 227.379 749.792 254.594C812.278 292.313 875.002 330.272 937.965 368.469L1001.64 278.229 905.768 187.988C860.931 149.79 812.039 117.801 759.094 92.0175L844.952 122.814 844.952 122.098 869.994 131.408 908.63 149.313C962.052 174.141 1013.81 202.312 1063.89 233.824M1134.72 760.229 1072.48 545.37 1342.93 706.514 1150.46 560.41 1271.38 475.899 1260.65 473.034C1203.89 482.584 1151.42 501.443 1103.24 529.613L1110.4 502.398C1127.09 446.058 1134.01 387.807 1131.15 327.646 1128.76 271.306 1117.07 216.159 1096.09 162.205 1128.52 185.6 1150.23 219.5 1161.2 263.905L1166.2 264.621 1165.49 271.783 1162.63 342.686C1162.63 385.181 1157.62 426.242 1147.6 465.872L1145.46 470.169C1143.07 474.466 1142.12 478.524 1142.59 482.344L1146.17 481.628C1187.67 421.468 1236.8 367.514 1293.56 319.768 1326.95 291.597 1363.44 268.441 1403.03 250.297L1405.18 248.865 1420.92 242.419 1320.03 461.575 1323.61 459.426 1266.37 567.572 1359.39 554.68C1389.44 545.131 1419.73 539.163 1450.25 536.775L1569.02 545.37 1450.25 571.869 1385.14 590.49C1346.98 602.427 1315.03 620.331 1289.27 644.205 1305.49 654.231 1323.13 661.871 1342.21 667.123L1341.5 667.123C1355.33 672.375 1370.59 675.479 1387.29 676.434L1450.25 744.472 1500.34 804.633 1450.25 772.404C1397.78 741.846 1341.97 718.928 1282.83 703.649L1282.11 702.933 1242.05 697.203 1238.47 697.92 1236.32 698.636 1234.18 699.352 1232.74 702.933 1237.04 709.379 1230.6 705.797 1228.45 707.23C1279.01 745.427 1332.67 780.759 1389.44 813.227 1390.87 865.27 1383.47 916.598 1367.26 967.209 1357.72 997.767 1344.84 1027.37 1328.62 1056.02L1312.16 1044.56C1309.78 1013.05 1301.19 983.205 1286.41 955.034 1248.72 881.505 1198.16 816.569 1134.72 760.229M1175.51 291.12 1176.94 292.552 1175.51 293.269 1175.51 291.12M1397.31 636.327 1403.03 637.759 1398.74 637.043 1398.02 637.043 1397.31 636.327M1474.58 680.731 1450.25 680.731 1410.9 676.434 1416.62 675.717 1450.25 676.434 1467.42 679.298 1474.58 680.731M502.95 619.854C468.606 629.403 435.218 641.579 402.782 656.38 346.019 683.118 292.836 716.063 243.229 755.215L228.203 766.674 111.58 844.74C175.497 758.319 241.798 674.046 310.484 591.922 371.54 518.393 447.618 466.588 538.724 436.508 493.888 463.246 458.351 498.817 432.117 543.221L502.95 619.854M185.99 565.423 195.291 546.086 35.0227 622.719 108.718 562.559C156.894 522.928 207.694 497.861 261.116 487.358L185.99 565.423M261.831 377.064 262.547 376.347 263.978 374.915 136.622 372.05 146.638 367.037 359.853 339.821 261.831 377.064M1242.05 712.243 1239.18 710.811 1242.05 711.527 1242.05 712.243M397.774 356.294 526.561 342.686 299.752 463.723 397.774 356.294" fill="#AAAAAA" fill-rule="evenodd"/><path d="M830.228 561.057 844.081 566.892 846.998 568.35 874.702 582.21 882.722 588.045 883.451 588.045C949.069 629.865 985.522 692.353 992.813 775.506L993.542 782.801C1008.61 853.312 1003.75 924.309 978.96 995.793 965.838 1033.24 956.115 1071.17 949.797 1109.58L938.132 1140.22 935.216 1123.44C926.467 1011.6 905.567 905.345 872.516 804.683L776.277 1152.62C742.739 1033.97 727.914 918.717 731.802 806.872 659.381 911.424 623.17 1028.13 623.17 1157L623.17 1181.07 621.713 1179.61C539.082 1110.07 493.88 1028.13 486.103 933.791 449.65 997.98 418.3 1065.09 392.053 1135.11L386.949 1157C359.73 1083.08 346.849 1014.51 348.308 951.297L348.308 950.568 362.89 883.461C369.694 849.908 369.694 817.083 362.89 784.989 361.431 776.235 356.085 771.86 346.849 771.86 325.95 772.832 308.694 782.071 295.086 799.577L386.22 667.552C396.913 652.963 402.504 637.16 402.989 620.14 402.989 607.009 400.802 597.771 396.426 592.421L489.748 567.621 459.128 550.844 451.836 547.197 451.836 546.468 451.108 546.468 446.734 544.279 449.65 542.82 450.379 544.279 449.65 542.82 456.212 540.633 464.961 538.444 493.395 531.88C514.294 523.127 536.409 518.749 559.74 518.749L560.47 518.749 561.928 518.02 562.656 518.02C643.828 509.267 724.512 519.965 804.71 550.115L830.228 561.057" fill="#000000" fill-rule="evenodd" fill-opacity="0.25098"/><path d="M852.622 420.421 853.337 442.594 787.522 391.095 741.023 378.936 812.56 361.055 793.245 312.417 814.707 305.265 852.622 420.421M1165.96 272.363 1175.97 290.96 1175.97 291.675 1175.97 293.821 1177.4 293.105 1180.98 300.973 1195.29 331.729 1427.79 228.017 1421.35 243.038 1405.61 249.475 1403.46 250.906C1363.88 269.026 1327.39 292.151 1294.01 320.285 1237.26 367.968 1188.13 421.852 1146.64 481.933L1143.07 482.648C1142.59 478.833 1143.54 474.78 1145.93 470.489L1148.07 466.197C1158.09 426.619 1163.1 385.612 1163.1 343.173L1165.96 272.363M1324.06 459.76 1332.64 454.038 1346.95 444.74C1379.86 424.236 1414.43 407.307 1450.68 393.957L1473.57 386.089 1359.82 554.889 1266.83 567.763 1324.06 459.76M1569.43 545.591 1583.02 549.167 1540.1 569.909 1539.38 569.909 1397.74 636.428 1398.45 637.143 1399.17 637.143 1403.46 637.858 1541.53 669.33 1475 680.774 1467.85 679.343 1450.68 676.482 1417.05 675.767 1411.33 676.482 1379.14 667.899 1387.72 676.482C1371.03 675.528 1355.77 672.429 1341.94 667.184L1342.66 667.184C1323.58 661.939 1305.93 654.309 1289.72 644.296 1315.47 620.454 1347.42 602.572 1385.58 590.651L1450.68 572.055 1569.43 545.591M1500.75 804.513 1533.66 847.428 1542.96 860.303 1542.96 861.018 1394.88 794.499 1389.16 798.075 1389.16 798.791 1389.87 813.096C1333.12 780.671 1279.46 745.385 1228.91 707.238L1231.06 705.808 1237.49 709.384 1233.2 702.946 1234.63 699.37 1236.78 698.655 1238.93 697.94 1242.5 697.225 1282.56 702.946 1283.28 703.662C1342.42 718.921 1398.22 741.809 1450.68 772.326L1500.75 804.513M1242.5 712.245 1242.5 711.53 1239.64 710.814 1242.5 712.245" fill="#8E8E8E" fill-rule="evenodd"/><path d="M749.611 255.073 704.554 227.882 715.997 242.193 698.833 235.753 706.7 240.046 677.377 247.202 695.257 259.366 603.712 243.624 703.124 320.902 439.934 215.718 450.662 184.234 592.269 202.123 577.966 188.528 894.079 276.539 814.693 142.017 962.023 292.996 892.649 235.753 915.535 303.729 906.238 314.462 749.611 255.073M525.757 290.85 479.269 280.832 547.213 316.609 327.649 320.902 495.719 255.788 511.453 265.806 500.01 275.108 525.757 290.85M296.896 389.594 299.757 400.327 267.573 431.811 327.649 407.482 171.022 481.183 171.738 470.45 296.896 389.594M189.617 660.068 174.598 660.783 212.503 613.558 204.636 592.807 442.079 398.896 354.111 497.641 464.25 421.078C372.706 492.632 289.744 572.772 215.364 661.499L172.453 713.018 189.617 660.068" fill="#FFFFFF" fill-rule="evenodd"/><path d="M1104.71 149.474 1113.29 154.484C1157.66 199.342 1187.95 251.597 1204.17 311.249 1281.93 271.163 1363.75 237.759 1449.61 211.034 1418.13 283.571 1382.59 355.869 1342.99 427.927L1425.28 386.41 1440.31 379.252 1450.33 375.673C1468.46 369.469 1480.86 373.525 1487.54 387.842L1393.08 531.721 1431.72 524.563 1450.33 523.132 1453.19 522.415C1505.67 514.303 1553.61 522.655 1597.02 547.469L1441.03 631.936 1552.66 660.569 1551.94 676.317 1422.42 692.065 1557.67 856.703 1551.94 872.452 1421.71 816.617C1428.39 850.022 1437.93 882.95 1450.33 915.401 1467.03 958.35 1488.73 1000.11 1515.45 1040.67L1479.67 1042.1 1395.23 866.009C1394.75 916.593 1389.27 962.884 1378.77 1004.88L1374.48 1017.76C1364.46 1040.19 1349.91 1057.61 1330.83 1070.02L1300.77 1052.84 1292.19 1022.77C1276.92 971.711 1254.74 924.945 1225.64 882.473 1173.64 806.596 1106.85 746.706 1025.28 702.802 961.831 669.397 894.327 646.729 822.77 634.799L680.37 623.346 672.499 621.199C563.255 615.472 460.928 640.049 365.517 694.928L274.639 761.5 228.126 795.143C183.284 825.685 135.578 849.545 85.0111 866.725L38.4989 881.041C103.855 803.255 145.359 711.869 163.009 606.882L170.88 571.807 12.0227 655.558C50.6637 563.456 111.488 484.001 194.494 417.19L228.842 388.557 116.497 382.115C202.842 312.92 299.208 269.015 405.589 250.404L321.151 161.643 293.244 145.894C473.092 146.85 642.922 159.734 802.734 184.549L726.167 70.0175C858.31 105.809 973.28 156.632 1071.07 222.487L1083.95 143.031 1104.71 149.474M1063.92 233.94C1013.83 202.444 962.068 174.288 908.639 149.474L869.998 131.578 844.953 122.272 844.953 122.988 759.083 92.208 838.513 208.886C682.04 180.254 513.402 162.835 332.6 156.632L433.497 258.994C354.783 275.697 279.409 301.227 207.375 335.586L146.551 367.083 136.533 372.093 263.905 374.957 262.474 376.388 261.759 377.104C216.916 410.987 175.413 447.494 137.248 486.625 99.0836 525.756 64.9752 571.091 34.9208 622.631L195.21 546.038 185.908 565.365 172.311 619.051C156.092 714.971 118.167 798.245 58.5348 868.872L111.488 844.534 228.126 766.51 243.153 755.057C292.767 715.925 345.957 682.998 402.727 656.274 435.167 641.48 468.56 629.311 502.908 619.767 563.493 605.928 624.317 601.633 685.379 606.882L839.228 627.641C899.813 633.845 957.775 650.786 1013.11 678.464 1056.52 701.371 1097.07 728.572 1134.76 760.068 1198.21 816.379 1248.78 881.28 1286.46 954.771 1301.25 982.927 1309.84 1012.75 1312.22 1044.25L1328.68 1055.7C1344.9 1027.07 1357.78 997.481 1367.32 966.94 1383.54 916.355 1390.94 865.054 1389.51 813.038L1388.79 798.722 1388.79 798.006 1394.51 794.427 1542.64 860.998 1544.07 861.714 1543.35 860.998 1542.64 860.283 1533.34 847.398 1500.42 804.449 1450.33 744.32 1387.36 676.317 1378.77 667.727 1410.97 676.317 1450.33 680.612 1474.66 680.612 1541.21 669.159 1403.1 637.663 1397.38 636.231 1539.06 569.66 1539.78 569.66 1582.71 548.901 1569.12 545.322 1450.33 536.732C1419.8 539.119 1389.51 545.083 1359.45 554.628L1473.23 385.694 1450.33 393.568C1414.07 406.93 1379.49 423.872 1346.57 444.391L1332.26 453.697 1323.67 459.423 1320.09 461.571 1420.99 242.53 1427.43 227.498 1194.87 331.292 1180.56 300.512 1176.98 292.637 1175.55 291.206 1175.55 290.49 1165.53 271.879 1166.25 264.721 1161.24 264.005C1150.26 219.624 1128.56 185.741 1096.12 162.358L1084.67 233.224 1083.24 246.825 1073.94 240.383 1063.92 233.94M757.652 91.4922 756.221 90.7764 756.937 91.4922 757.652 91.4922" fill="#5A5A5A" fill-rule="evenodd"/><path d="M403.022 333.018 294.01 368.298C275.485 372.618 257.435 378.857 239.86 387.018L232.023 386.298C256.722 371.418 281.898 360.378 307.548 353.178L326.072 347.418 376.66 335.178 403.022 333.018" fill="#5A5A5A" fill-rule="evenodd"/><path d="M936.354 540.024 935.021 539.024 937.021 539.024 936.354 540.024" fill="#FFFFFF" fill-rule="evenodd"/><path d="M797.019 766.019 795.219 773.019 794.019 769.908 796.419 766.019 797.019 766.019" fill="#E6E6F2" fill-rule="evenodd"/><path d="M620.119 501.693 575.759 500.234C549.525 502.667 524.721 508.261 501.349 517.018L477.023 516.288C508.504 501.207 542.608 492.451 579.337 490.018L648.023 492.936 627.274 499.504 620.119 501.693" fill="#000000" fill-rule="evenodd" fill-opacity="0.34902"/><path d="M617.023 567.017C604.191 574.659 590.883 584.689 577.101 597.107L559.278 617.167 545.02 644.39 527.198 700.271 516.505 759.018C502.721 721.764 495.356 679.734 494.405 632.928L617.023 567.017M425.254 649.406 411.709 700.988C396.977 660.391 395.075 619.793 406.006 579.196L425.967 572.032 425.254 649.406" fill="#000000" fill-rule="evenodd" fill-opacity="0.25098"/><path d="M994.173 524.126 1110.07 594.278 1160.16 611.458 1205.23 671.588C1201.41 645.34 1226.93 670.156 1281.78 746.034 1291.8 735.058 1300.38 734.342 1307.54 743.887L1326.14 766.078C1331.39 771.804 1340.69 765.123 1354.04 746.034 1350.7 757.965 1356.43 767.032 1371.21 773.236 1386 778.963 1401.74 804.733 1418.43 850.546 1435.12 896.359 1467.32 957.921 1515.01 1035.23L1464.22 1039.53 1520.02 1234.95C1439.42 1186.75 1371.69 1134.02 1316.84 1076.75 1330.19 1176.01 1319.22 1274.08 1283.93 1370.96L1217.39 1084.62C1186.87 1311.78 1133.21 1496.71 1056.42 1639.39L1042.82 1663.02 1044.97 1655.86 1046.4 1639.39 1056.42 1539.18C1067.39 1441.83 1069.53 1306.06 1062.86 1131.87 1052.84 1177.21 1035.91 1206.79 1012.06 1220.63L1022.79 1039.53 970.563 1116.84C971.039 861.523 955.062 662.997 922.629 521.263L994.173 524.126M648.614 493.345 678.663 482.608 698.695 474.017 718.012 476.881C729.459 486.902 745.437 495.493 765.947 502.651 754.022 502.651 741.86 505.991 729.459 512.672L627.866 618.616 606.403 652.26 614.988 585.688 617.85 567.792 494.794 633.648 425.396 671.588 425.396 650.113 426.111 572.803 406.079 579.961 371.023 591.414 392.486 541.306 445.429 513.388 458.307 514.82C512.68 520.547 566.815 516.252 620.712 501.935L627.866 499.787 648.614 493.345" fill="#5A5A5A" fill-rule="evenodd"/><path d="M984.087 595.943 965.491 505.733 954.763 509.313 965.491 505.017 994.099 515.041 1022.71 610.262C1009.36 574.942 993.145 541.531 974.074 510.029 971.213 510.506 970.021 511.938 970.498 514.325L984.087 595.943M937.598 516.473 996.96 810.729 996.96 680.425C1018.42 785.432 1022.71 890.199 1009.83 994.728L1009.12 994.728 987.662 1062.74 988.378 1070.62C987.424 1069.66 987.186 1065.85 987.662 1059.16L981.941 948.907 971.213 734.838C967.398 681.38 961.677 636.514 954.048 600.239L934.738 520.052 934.023 517.904 934.738 517.904 934.738 513.609 936.168 517.189 937.598 516.473M996.245 661.095 993.384 646.06 996.245 660.379 996.245 661.095M1117.11 594.511 1124.98 588.068C1160.74 600.478 1188.16 622.91 1207.23 655.367L1222.25 661.095C1236.08 666.345 1247.76 674.459 1257.29 685.437L1327.38 845.81 1381.02 964.658C1355.28 935.065 1331.2 903.563 1308.79 870.152L1291.62 845.81 1215.81 739.849 1213.67 746.293 1210.81 739.849 1233.69 845.81C1242.27 883.995 1248.47 922.893 1252.29 962.51L1267.31 1151.52 1273.03 1284.69C1264.92 1247.94 1258.25 1211.18 1253 1174.43 1246.33 1124.31 1232.74 1077.06 1212.24 1032.67L1211.52 1024.8 1205.8 991.148 1199.36 949.623 1192.92 908.098 1190.78 895.21 1190.78 894.495 1189.35 883.755 1185.77 865.141 1182.2 845.81 1172.18 794.261 1152.87 709.064C1142.86 670.402 1130.94 632.218 1117.11 594.511M1285.9 1332.66 1285.19 1334.8 1284.47 1332.66 1285.9 1332.66M1072.77 1488.02 1073.49 1457.95 1077.06 1351.27 1076.35 1210.95 1075.63 1087.8C1081.83 1048.19 1083.26 1007.85 1079.92 966.806L1068.48 845.81 1062.04 793.545 1054.89 741.281 1044.88 684.721 1068.48 766.339 1077.06 769.203 1073.49 708.347 1077.06 701.904 1050.6 593.795 1067.76 641.764 1077.06 605.966 1094.94 972.533 1101.38 988.284 1102.09 977.545 1093.51 624.581C1109.25 683.289 1121.88 742.713 1131.42 802.853L1138.57 845.81 1140 865.857 1140.72 894.495 1140 923.133 1137.85 968.953 1136.42 1019.79 1134.99 1054.15 1134.28 1069.9 1134.28 1071.33 1133.56 1078.49 1130.7 1124.31 1127.13 1169.42 1122.84 1215.96 1117.11 1263.21 1110.68 1311.18 1102.09 1358.43 1092.8 1404.25 1079.92 1457.95 1072.77 1488.02M1086.36 598.807 1074.2 575.181 1068.48 614.558 1034.87 541.531 1036.3 563.01 1023.42 526.496 1062.04 545.826 1069.91 549.406 1086.36 598.807M1112.11 845.094 1112.11 845.81 1084.21 1315.47 1095.66 1302.59C1122.36 1151.28 1128.08 999.024 1112.82 845.81L1112.11 845.094" fill="#DDDDDD" fill-rule="evenodd"/><path d="M996.645 680.537 995.928 661.219 995.928 660.503 993.061 646.193 983.743 596.108 970.125 514.54C969.647 512.155 970.842 510.724 973.708 510.247 992.822 541.73 1009.07 575.12 1022.45 610.418L1044.67 684.83 1054.7 741.355 1061.87 793.587 1068.32 845.818 1079.79 966.738C1083.13 1007.76 1081.7 1048.07 1075.49 1087.66L1071.19 998.936 1070.47 991.065 1069.04 972.462 1068.32 991.065C1064.02 1058.8 1050.16 1125.1 1026.75 1189.97 1027.71 1133.69 1031.77 1078.12 1038.93 1023.26 1045.62 969.839 1045.86 916.892 1039.65 864.421L1028.18 948.851 1021.02 987.488C1013.85 1015.63 1003.1 1042.82 988.761 1069.06L988.044 1070.49 987.327 1062.62 1008.83 994.643 1009.55 994.643C1022.45 890.179 1018.15 785.478 996.645 680.537M1069.76 549.6 1061.87 515.256 1039.65 451.576C1037.74 447.76 1037.02 443.467 1037.5 438.697 1024.12 417.708 1014.33 396.483 1008.11 375.017L1010.98 375.017 1050.4 431.542 1052.55 434.404 1053.27 435.12 1068.32 470.179 1117.06 594.677C1130.92 632.36 1142.87 670.52 1152.9 709.157 1157.68 778.8 1160.78 849.157 1162.22 920.231 1169.39 987.488 1171.06 1055.7 1167.24 1124.86 1158.63 1261.29 1130.92 1393.18 1084.09 1520.54 1086.48 1526.26 1090.78 1528.17 1096.99 1526.26L1100.58 1519.11 1098.43 1526.98 1073.34 1592.09 1053.99 1635.02 1056.14 1617.85 1064.74 1565.61 1069.04 1530.55 1072.62 1487.62 1079.79 1457.57 1092.69 1403.91 1102.01 1358.12 1110.61 1310.89 1117.06 1262.96 1122.8 1215.73 1127.1 1169.23 1130.68 1124.15 1133.55 1078.36 1134.26 1071.2 1134.26 1069.77 1134.98 1054.03 1136.41 1019.69 1137.85 968.885 1140 923.093 1140.72 894.473 1140 865.853 1138.56 845.818 1131.4 802.888C1121.84 742.786 1109.18 683.399 1093.41 624.728L1086.24 598.97 1069.76 549.6M1257.55 685.546C1262.8 683.638 1267.82 686.738 1272.6 694.847L1284.78 717.028 1295.54 719.174 1287.65 719.89 1296.25 722.752 1312.74 760.673C1367.69 869.43 1408.79 983.671 1436.02 1103.4 1372.95 1033.76 1322.77 955.29 1285.5 867.999L1270.45 868.714C1268.54 882.548 1268.78 895.903 1271.17 908.782 1283.11 972.223 1288.37 1036.62 1286.94 1101.97 1285.5 1173.99 1286.94 1242.68 1291.24 1308.03L1286.22 1332.36 1284.78 1332.36 1273.32 1284.42 1267.58 1151.34 1252.53 962.445C1248.71 922.854 1242.5 883.979 1233.89 845.818L1210.96 739.924 1213.83 746.363 1215.98 739.924 1291.95 845.818 1309.16 870.145C1331.61 903.535 1355.74 935.017 1381.55 964.592L1327.79 845.818 1257.55 685.546M1212.39 1032.56 1208.81 1024.69 1211.67 1024.69 1212.39 1032.56M1184.44 1200.71 1182.29 1211.44 1183.72 1200.71 1184.44 1200.71M1190.89 895.188 1193.04 908.067 1191.61 908.067 1190.89 895.188" fill="#AAAAAA" fill-rule="evenodd"/><path d="M954.23 509.594 964.984 506.017 983.625 596.145 992.946 646.215 995.814 661.237 996.531 680.55 996.531 810.734 937.023 516.747 954.23 509.594M1022.34 610.451 993.663 515.316 1023.06 526.761 1035.96 563.241 1034.53 541.782 1068.23 614.743 1073.96 575.401 1086.15 599.006 1093.32 624.757 1101.93 977.398 1101.21 988.127 1094.76 972.391 1076.83 606.159 1067.51 641.924 1050.3 593.999 1076.83 702.009 1073.25 708.446 1076.83 769.246 1068.23 766.385 1044.57 684.841 1022.34 610.451M1111.96 845.068 1112.68 845.783C1127.98 998.857 1122.24 1150.98 1095.47 1302.14L1084 1315.02 1111.96 845.783 1111.96 845.068" fill="#FFFFFF" fill-rule="evenodd"/><path d="M1295.17 719.037 1296.6 719.037 1295.17 719.037M1295.89 722.615 1371.04 748.379 1433.31 918.706C1439.04 934.451 1446.43 949.241 1455.5 963.077L1502.02 1028.2 1485.56 1026.77 1469.81 1020.33 1437.6 1010.31 1494.87 1203.54 1472.68 1187.79C1449.3 1170.62 1427.11 1153.44 1406.11 1136.27 1367.46 1103.82 1331.2 1069.95 1297.32 1034.64L1300.9 1068.28C1303.76 1096.91 1304.95 1126.72 1304.47 1157.74 1303.52 1207.83 1298.99 1257.93 1290.88 1308.03 1286.58 1242.66 1285.15 1173.96 1286.58 1101.92 1288.01 1036.55 1282.76 972.142 1270.83 908.687 1268.45 895.805 1268.21 882.447 1270.12 868.61L1285.15 867.894C1322.37 955.205 1372.47 1033.69 1435.46 1103.35 1408.26 983.592 1367.22 869.326 1312.35 760.545L1295.89 722.615M1208.56 1024.62 1205.7 1052.53 1200.69 1096.91 1193.53 1148.43 1184.23 1200.68 1183.51 1200.68 1182.08 1211.41 1172.06 1250.77 1159.89 1298.01 1147.72 1343.81 1135.56 1388.9 1123.39 1434.7 1101.2 1516.28 1100.48 1519.15 1096.91 1526.3C1090.7 1528.21 1086.41 1526.3 1084.02 1520.58 1130.79 1393.19 1158.46 1261.27 1167.05 1124.82 1170.87 1055.64 1169.2 987.41 1162.04 920.138 1160.61 849.048 1157.51 778.675 1152.73 709.018L1172.06 794.181 1182.08 845.709 1185.66 865.032 1189.24 883.639 1190.67 894.374 1190.67 895.089 1191.39 907.971 1192.82 907.971 1199.26 949.479 1205.7 990.988 1211.43 1024.62 1208.56 1024.62" fill="#8E8E8E" fill-rule="evenodd"/><path d="M748.023 490.464 723.727 487.604C707.53 492.37 693.001 501.664 680.139 515.485L642.981 556.234 628.689 578.396 640.837 535.503 639.408 536.932 700.861 484.03 691.572 480.455 652.985 489.749C620.115 496.898 588.674 508.812 558.661 525.494L525.791 548.371 495.779 576.251 476.486 594.839 453.62 617.715 436.47 637.018 437.899 566.958 490.777 518.345 483.631 516.915 436.47 539.077 390.023 563.383 395.739 543.366 427.895 510.481 443.615 510.481 458.621 508.336 473.627 504.762 533.651 486.175 540.797 484.03 562.949 489.034 457.192 573.392 557.947 511.911 560.09 504.762 616.542 474.021 633.691 474.736 661.559 472.592C684.426 467.826 707.292 467.826 730.158 472.592L738.019 474.021 748.023 490.464" fill="#DDDDDD" fill-rule="evenodd"/><path d="M628.732 578.039 643.034 555.858 680.22 515.076C693.092 501.243 707.633 491.942 723.843 487.172L748.156 490.034 756.023 502.197 736.715 505.775C723.366 508.636 710.97 513.645 699.529 520.8L662.342 549.419 645.179 570.883 629.447 597.357 613.714 628.122 628.732 578.039M389.883 563.013 436.366 538.687 483.563 516.507 490.714 517.938 437.796 566.591 437.796 548.704 387.023 572.315 389.883 563.013M436.366 636.708 453.528 617.39 476.412 594.495 495.72 575.892 525.755 547.988 558.65 525.093C588.685 508.398 620.15 496.473 653.046 489.319L691.662 480.017 700.959 483.595 639.459 536.541 437.081 651.018 436.366 636.708" fill="#AAAAAA" fill-rule="evenodd"/><path d="M634.128 474.136 616.965 473.419 560.469 504.23 558.323 511.396 457.488 573.018 563.33 488.466 541.16 483.451 478.228 494.198 480.373 483.451 604.807 467.687 576.202 469.12 773.581 422.545 785.023 449.773 717.085 467.687 713.509 462.671 689.909 465.537 685.618 458.372 634.128 474.136M609.813 391.017 616.965 401.049 520.421 461.955 594.08 404.631 440.325 444.757 436.75 438.309 426.023 439.742 506.833 408.214 549.742 405.348 609.813 391.017" fill="#FFFFFF" fill-rule="evenodd"/><path d="M755.339 1068.19 804.671 809.346C815.634 748.807 817.302 688.029 809.676 627.013 805.386 591.738 797.045 557.893 784.652 525.479L861.869 562.661 863.299 571.241 863.299 578.391 869.733 591.262 871.163 599.127C904.528 681.117 923.595 767.16 928.361 857.253 930.744 910.642 926.692 962.602 916.206 1013.13L915.491 1008.84 906.912 930.902 904.767 919.461 904.767 918.746C894.281 853.917 878.313 790.279 856.864 727.833 842.565 773.118 828.98 818.88 816.111 865.119L759.628 1087.49 755.339 1068.19M547.283 494.017C589.228 498.784 630.219 508.557 670.257 523.334L717.445 544.07C725.549 547.883 731.506 554.795 735.32 564.806L415.014 655.615 412.869 655.615 404.29 657.76 374.261 665.625C329.933 675.636 285.129 682.547 239.847 686.361L175.5 689.221 275.596 650.609 316.349 637.024 415.729 614.143 458.627 604.847 576.597 581.251 594.471 578.391 510.105 550.505 517.255 549.79 445.758 526.194 445.043 526.194 442.898 516.183 547.283 494.017M124.023 1125.39C132.602 1059.13 159.295 998.83 204.099 944.487L287.75 850.103C321.115 813.875 357.817 782.175 397.855 755.004L442.898 722.828C446.234 723.304 448.857 725.211 450.763 728.548L451.478 729.978C406.673 773.356 375.691 824.124 358.532 882.28L310.629 923.037C253.432 975.473 205.053 1036.73 165.491 1106.8L129.027 1179.02 128.312 1176.16 124.023 1125.39M367.826 1080.34C367.826 1001.21 387.846 927.327 427.884 858.683 464.108 795.761 509.866 740.703 565.157 693.511L581.602 682.071C585.892 690.651 582.793 701.138 572.307 713.532 548.952 742.133 531.793 773.595 520.829 807.916L500.095 860.114 490.801 877.275 491.516 860.114 444.328 931.617 404.29 1004.55C390.467 1032.68 379.742 1062.47 372.116 1093.93L367.826 1080.34M586.607 1113.23C569.447 1075.58 561.106 1035.77 561.583 993.825 562.059 935.192 571.831 879.181 590.896 825.792 600.429 797.667 612.584 770.496 627.36 744.278L629.504 741.418 652.383 709.242C678.599 675.397 709.342 645.604 744.614 619.863L751.049 624.153 752.479 625.583 735.32 759.294 734.604 761.439 736.75 735.698 722.45 751.429C640.944 847.719 598.761 960.933 595.901 1091.07L595.901 1121.82 586.607 1113.23M503.67 617.003C496.044 617.956 496.52 618.195 505.1 617.718 508.914 616.765 508.436 616.526 503.67 617.003" fill="#AAAAAA" fill-rule="evenodd"/><path d="M785.087 525.414C797.496 557.866 805.849 591.75 810.145 627.066 817.781 688.152 816.111 749 805.133 809.609L755.732 1068.75C735.686 967.098 728.765 864.73 734.97 761.647L735.686 759.499 752.869 625.634 751.437 624.202 744.993 619.907C709.673 645.678 678.887 675.506 652.636 709.389L713.492 594.852 601.804 694.356 608.247 702.231 579.609 748.761 582.473 759.499 555.983 803.167 558.131 809.609 537.369 934.884 550.256 931.305 560.279 882.627 591.065 826.074C571.973 879.524 562.188 935.6 561.711 994.3 561.234 1036.3 569.586 1076.15 586.769 1113.85 519.947 1050.85 487.968 972.109 490.832 877.616L500.139 860.435 520.902 808.177C531.88 773.816 549.063 742.319 572.45 713.685 582.95 701.276 586.053 690.777 581.757 682.187L565.291 693.641C509.923 740.887 464.103 796.008 427.829 859.003 387.736 927.726 367.689 1001.7 367.689 1080.92 347.166 1013.15 345.734 945.861 363.393 879.047L358.382 882.627C375.564 824.403 406.589 773.578 451.455 730.149L450.739 728.718C448.83 725.377 446.204 723.468 442.863 722.99L397.759 755.204C357.666 782.407 320.913 814.143 287.503 850.413L203.737 944.906C158.872 999.311 132.142 1059.68 123.551 1126.02 117.346 986.187 165.792 865.685 268.888 764.51 311.845 721.559 360.053 685.527 413.51 656.416L414.941 655.7 735.686 564.786C731.867 554.764 725.901 547.844 717.787 544.027L670.535 523.267C630.442 508.473 589.394 498.688 547.392 493.917 627.101 485.326 706.332 495.825 785.087 525.414M916.821 1013.63C927.321 963.042 931.379 911.022 928.992 857.572 924.219 767.374 905.126 681.232 871.716 599.147L870.284 591.273 863.841 578.388 863.841 571.229 862.409 562.639C926.844 603.681 962.641 665.006 969.801 746.614L970.517 753.773C977.199 835.38 970.517 904.341 950.47 960.655 929.947 1017.45 919.684 1055.62 919.684 1075.19L916.821 1013.63M510.163 550.469 594.644 578.388 576.746 581.251 458.615 604.874 415.657 614.181 316.141 637.088 275.332 650.689 175.099 689.346 167.224 689.346C269.365 612.988 383.679 566.695 510.163 550.469M411.362 595.568 491.548 569.081 485.82 559.775 333.324 606.306 411.362 595.568M438.568 521.835 437.852 521.119 437.852 521.835 436.42 518.256 442.863 516.108 445.011 526.13 438.568 521.835M454.319 663.575 451.455 656.416 445.727 652.121 342.631 720.127 344.063 728.718 225.931 861.151 231.659 866.878 173.667 943.474 362.677 740.171 466.49 669.301 454.319 663.575M503.719 617.044C508.491 616.567 508.97 616.805 505.151 617.76 496.56 618.237 496.083 617.998 503.719 617.044M526.629 668.586 465.774 739.455 473.649 745.898 479.377 743.035 422.817 845.402 586.053 624.202 518.038 671.449 526.629 668.586M795.825 715.832 777.211 571.229 766.472 779.543 762.176 753.057 749.289 921.999 753.585 900.523 757.164 974.972 765.756 977.12 772.915 790.997 780.791 787.418 788.666 720.843 795.825 715.832" fill="#DDDDDD" fill-rule="evenodd"/><path d="M591.314 826.096 560.536 882.602 550.515 931.24 537.632 934.817 558.389 809.645 556.241 803.208 582.725 759.577 579.862 748.848 608.492 702.356 602.05 694.487 713.71 595.065 652.87 709.508 629.965 741.695 627.818 744.556C613.026 770.782 600.858 797.962 591.314 826.096M411.657 595.781 333.638 606.51 486.096 560.017 491.822 569.316 411.657 595.781M454.603 663.731 466.771 669.453 362.985 740.265 174.023 943.4 231.999 866.867 226.273 861.144 344.375 728.82 342.943 720.237 446.013 652.287 451.74 656.578 454.603 663.731M526.895 668.738 518.306 671.599 586.304 624.391 423.109 845.409 479.654 743.126 473.928 745.987 466.055 739.549 526.895 668.738M796.023 715.946 788.865 720.952 780.992 787.472 773.119 791.048 765.961 977.018 757.371 974.872 753.793 900.484 749.498 921.942 762.382 753.139 766.677 779.604 777.413 571.462 796.023 715.946" fill="#FFFFFF" fill-rule="evenodd"/><path d="M415.189 655.303 413.745 656.018 413.023 655.303 415.189 655.303M439.023 521.732 438.301 521.732 438.301 521.017 439.023 521.732" fill="#384147" fill-rule="evenodd"/><path d="M755.84 1068.47 760.135 1087.79 816.698 865.228C829.585 818.951 843.189 773.15 857.508 727.826 878.988 790.325 894.978 854.017 905.479 918.901L905.479 919.617 907.626 931.067 916.218 1009.07 916.934 1013.36 919.798 1074.91C919.798 1055.35 930.061 1017.18 950.585 960.408 970.632 904.112 977.315 835.172 970.632 753.589 985.429 822.767 980.656 892.423 956.313 962.555 943.425 999.291 933.878 1036.5 927.674 1074.19L916.218 1104.25 913.354 1087.79C904.763 978.06 884.238 873.816 851.78 775.058L757.272 1116.42C724.337 1000.01 709.778 886.936 713.597 777.205 642.477 879.78 606.917 994.282 606.917 1120.71L606.917 1144.33C524.818 1075.62 479.95 994.759 472.313 901.726 436.514 964.702 405.728 1030.54 379.952 1099.24L374.94 1120.71C347.257 1045.81 334.846 976.391 337.71 912.46 256.566 994.997 187.832 1086.84 131.509 1187.98L125.065 1208.02C97.381 1068.23 117.428 946.572 185.207 843.044 224.346 783.885 272.795 731.643 330.55 686.32L156.568 693.476 145.828 699.201C237.473 621.435 347.494 569.194 475.893 542.477L445.822 526.017 517.42 549.633 510.26 550.349C383.771 566.57 269.453 612.848 167.308 689.182L175.183 689.182 239.621 686.32C284.967 682.503 329.834 675.585 374.224 665.566L404.296 657.694 412.887 655.548 413.603 656.263C360.144 685.365 311.935 721.386 268.976 764.324 165.876 865.468 117.428 985.932 123.633 1125.72L127.929 1176.53 128.645 1179.39 165.159 1107.11C204.778 1036.98 253.225 975.675 310.503 923.195L358.473 882.404 363.485 878.825C345.825 945.619 347.257 1012.89 367.781 1080.63L372.077 1094.23C379.713 1062.74 390.453 1032.93 404.296 1004.78L444.39 931.783 491.645 860.219 490.929 877.394C488.065 971.858 520.045 1050.58 586.869 1113.55L596.177 1122.14 596.177 1091.37C599.041 961.124 641.284 847.814 722.905 751.442L737.224 735.698 735.076 761.461C728.871 864.513 735.792 966.849 755.84 1068.47" fill="#5A5A5A" fill-rule="evenodd"/><path d="M1200.73 966.488C1193.57 900.163 1175.93 818.329 1147.8 720.988 1119.18 623.647 1086.99 526.544 1051.23 429.68 1126.1 584.28 1179.27 746.993 1210.74 917.818 1220.76 971.259 1223.38 1026.37 1218.61 1083.15 1213.36 1071.7 1207.4 1032.81 1200.73 966.488M1233.63 761.785 1255.09 817.613C1289.9 903.503 1307.55 992.971 1308.02 1086.02L1233.63 761.785M469.69 310.866C458.721 305.14 449.9 295.596 443.224 282.236L440.363 277.942C423.672 269.353 415.566 258.617 416.042 245.733L416.042 245.017 417.473 245.017C439.886 262.672 457.53 284.144 470.405 309.434L471.12 311.582 469.69 310.866" fill="#5A5A5A" fill-rule="evenodd"/></g></svg>
