<svg width="1761" height="1761" xmlns="http://www.w3.org/2000/svg" xmlns:xlink="http://www.w3.org/1999/xlink" overflow="hidden"><defs><clipPath id="clip0"><rect x="0" y="0" width="1761" height="1761"/></clipPath></defs><g clip-path="url(#clip0)"><path d="M1302.91 868.799 1257.18 981.405 1302.91 868.799 1314.52 876.791ZM1193.3 812.133 1204.19 823.031 1204.19 823.031ZM1199.11 795.424C1194.75 794.94 1192.09 797.361 1191.13 802.689 1191.61 800.025 1192.52 798.088 1193.85 796.877L1199.11 795.424ZM1019.09 793.244 1018.37 794.698 1017.64 793.971ZM1252.1 789.612 1241.21 793.245 1260.66 811.649 1241.21 793.245ZM1297.96 772.209 1297.96 772.209 1325.41 791.792ZM1330.02 765.893 1330.49 766.365 1338.48 780.168 1359.53 818.672 1359.53 818.672 1338.48 780.168 1340.66 777.989 1338.48 780.168 1330.49 766.366 1330.49 766.365ZM1051.03 749.656 1061.52 764.728 1090.95 807.048 1090.95 807.048 1061.52 764.728 1051.03 749.656ZM1083.7 743.844 1082.97 746.023 1082.24 747.476 1080.79 748.203 1079.34 748.929 1074.98 747.838 1079.34 748.929 1080.79 748.203 1082.24 747.476 1082.97 746.023ZM1310.17 741.664 1315.25 750.382 1319.61 757.647 1315.25 750.382ZM1352.27 727.134 1352.27 727.135 1364.61 732.22ZM1049.76 720.778 1049.76 720.778 1059.74 722.776 1059.74 722.775ZM836.898 714.784 822.38 745.297 841.253 732.946 822.381 745.296ZM1069.51 713.418 1076.56 728.53 1069.51 713.419ZM1090.14 708.284 1090.14 708.284 1091.68 711.152C1102.81 732.462 1116.6 752.319 1133.06 770.724L1145.4 892.047 1145.4 892.046 1133.06 770.724C1116.6 752.319 1102.81 732.462 1091.68 711.152ZM854.319 684.272 851.416 687.904 844.883 716.237 840.527 722.049 837.624 729.314 837.625 729.313 840.528 722.049 844.883 716.237 851.416 687.904 854.319 684.272ZM371.611 677.733 334.592 743.117 334.593 743.116 371.612 677.734ZM975.541 674.828 979.896 677.734 981.348 677.734 982.799 677.734 984.985 678.827 982.799 677.733 981.347 677.733 979.896 677.733ZM1305.09 669.016 1300.73 674.827 1296.77 675.224 1296.77 675.225 1300.73 674.828 1305.09 669.016ZM521.024 668.346 524.045 669.742 524.046 669.742ZM962.474 659.571 969.733 689.357 992.235 759.826 992.235 759.826 969.734 689.357 962.475 659.571ZM999.035 651.229 1039.42 769.271 1039.42 769.271 999.035 651.229ZM866.659 644.315 866.659 644.316 868.111 647.221 855.045 684.272 854.319 685.725 855.045 684.272 868.111 647.221ZM937.795 643.589 931.262 652.306 919.648 730.767 919.648 730.766 931.262 652.307 937.795 643.589ZM970.314 641.406 970.459 642.136 971.253 647.24 970.459 642.135ZM279.425 639.956 279.425 639.956 248.938 738.758ZM955.942 638.503 965.378 650.127C966.83 653.759 966.588 657.15 964.652 660.298 968.524 654.002 965.621 646.737 955.942 638.503ZM978.447 636.327 979.17 637.05C982.073 650.127 986.186 662.235 991.51 673.375L991.51 676.281 988.606 679.186 987.155 679.913 988.606 679.186 991.51 676.281 991.51 673.375C986.186 662.235 982.073 650.127 979.17 637.05ZM846.334 629.059 836.898 639.956 838.35 649.4 819.477 676.281 819.477 676.281 838.35 649.401 836.898 639.956 846.335 629.059ZM397.58 623.88 397.579 623.88 396.292 624.699 396.291 624.7ZM1275.64 618.424 1275.64 618.424 1342.83 668.289 1342.83 668.289 1380.58 684.272 1342.83 668.289ZM939.032 616.327 937.795 622.52 937.795 622.521 939.033 616.327ZM890.042 614.615 889.161 620.341 883.418 615.428 889.161 620.341 890.042 614.615ZM315.719 613.076 315.719 613.077 280.877 687.904 280.878 687.904ZM454.362 610.17 454.36 610.171 381.048 684.998 372.337 678.46 372.338 678.46 381.048 684.999ZM738.905 606.538 670.672 647.948 670.673 647.947 738.905 606.538 741.083 631.965 741.808 637.777 749.067 674.101C752.454 692.505 760.197 706.551 772.295 716.237L772.295 716.237 757.415 698.438C753.544 691.416 750.761 683.304 749.067 674.101L741.808 637.777 741.083 631.965 753.57 655.825 741.083 631.965ZM640.912 605.085 639.46 607.264 597.359 656.665 599.793 657.579 597.359 656.665 639.46 607.265ZM518.964 597.82 518.964 597.821 508.076 644.315 513.086 660.471 508.077 644.315ZM312.922 594.544 299.025 600.725 299.024 600.726 312.923 594.544ZM735.276 593.461 735.274 593.462 679.711 640.324ZM300.663 581.255 296.846 591.282 276.522 623.973 296.847 591.282 300.663 581.256ZM299.776 579.929 237.324 664.656 237.325 664.656 299.776 579.929ZM1255.73 577.617 1255.73 577.618 1261.94 585.022ZM437.656 574.285 437.655 574.285 297.574 665.382 297.572 665.383ZM828.188 570.94 828.188 570.94 836.243 576.437 836.243 576.437ZM798.427 565.855 798.427 565.855 827.462 610.897 845.541 628.295 827.462 610.897ZM522.901 550 522.901 550 511.706 578.205 436.94 609.444C431.617 614.771 424.117 618.646 414.438 621.068 424.117 618.646 431.617 614.771 436.941 609.444L511.706 578.205ZM1251.37 545.513 1251.37 545.514 1296.43 558.477ZM768.919 539.643 767.94 540.428 773.021 653.033 815.847 738.032 815.848 738.031 773.021 653.033 767.94 540.428 768.92 539.643ZM290.635 537.392 227.888 582.564 236.599 594.187 227.888 582.564 290.635 537.392ZM728.256 528.509 672.85 600.726 667.043 612.349 659.05 611.683 667.043 612.35 672.85 600.726 728.257 528.509ZM690.149 525.367 639.46 606.538 537.112 663.203 537.112 663.203 639.46 606.538 639.461 606.536 690.149 525.367ZM654.644 524.739 611.877 552.051 528.401 625.426 528.401 625.427 611.877 552.052 654.645 524.739ZM319.825 497.635 317.175 498.29 317.171 498.292 319.825 497.635ZM1156.76 470.339 1156.76 470.339 1174.43 477.95 1193.3 499.745 1226.69 527.351 1193.3 499.744 1174.43 477.95ZM1205.64 464.147 1210 467.779 1275.33 512.821 1287.67 509.915 1287.67 509.915 1275.33 512.821 1210 467.779 1205.64 464.147ZM301.202 458.335 304.831 460.514 325.881 469.232 333.14 471.411 312.815 478.676 287.41 491.027 258.375 508.462 243.131 519.359 226.436 532.436 226.437 532.436 243.131 519.36 258.375 508.462 287.41 491.027 312.816 478.676 333.14 471.411 325.882 469.232 337.17 467.593 337.17 467.593 325.881 469.232 304.831 460.514ZM289.587 450.344 294.732 453.883 289.588 450.344ZM1244.11 448.89 1248.47 449.617 1248.47 449.616ZM1186.76 446.796 1249.2 463.42 1249.19 463.42ZM300.021 443.62 311.364 445.984 351.286 450.344 311.364 445.984ZM1170.08 442.352 1191.85 465.6C1200.08 472.38 1206.37 479.645 1210.72 487.394L1215.04 492.743 1210.72 487.394C1206.37 479.645 1200.08 472.38 1191.85 465.6L1170.08 442.352ZM1264.26 437.871 1301.46 445.984 1301.46 445.984ZM1135.96 430.728 1158.46 459.787 1136.68 453.976 1119.99 445.94 1119.99 445.941 1136.69 453.976 1158.46 459.788 1135.96 430.728ZM399.754 412.32 297.573 414.745 297.572 414.746 259.101 435.087 259.101 435.087 297.572 414.746 399.753 412.32ZM1086.63 393.206 1095.31 394.404 1131.47 426.714 1095.31 394.404ZM498.647 373.078 398.469 381.327 347.657 396.583 308.46 409.66 308.463 409.66 347.658 396.584 398.469 381.327 498.647 373.078ZM1088.05 365.345 1004.01 385.648 1004.01 385.649 1088.05 365.345ZM993.123 360.898 993.122 360.898 968.385 370.692 968.385 370.692ZM940.948 356.003 946.26 360.709 940.948 356.003ZM586.735 351.468 536.385 357.353 418.069 357.353 418.068 357.353 536.386 357.353 586.733 351.468ZM612.619 344.655 616.36 344.955 616.36 344.955ZM1117.81 342.771 1117.81 342.772 1138.86 344.277 1138.86 344.276ZM491.72 329.569 543.644 334.832 543.643 334.832ZM486.3 329.02 444.199 342.097 405.002 356.626 387.581 365.345 391.814 365.834 387.581 365.345 405.002 356.627 444.199 342.097 486.3 329.02ZM1047.67 322.865 1022.4 326.666 1022.4 326.666 1047.67 322.865ZM529.852 314.49 510.254 316.67 521.261 322.657 510.254 316.67 529.853 314.491 665.596 332.694 665.596 332.693ZM1117.81 312.311 1066.36 320.052 1066.36 320.052 1117.81 312.312ZM777.67 300.269 801.476 309.976 801.476 309.976ZM904.404 292.696 910.211 313.038 910.212 313.038 904.405 292.696 969.711 315.873ZM858.497 291.533 867.748 294.512 867.748 294.512ZM826.01 281.072 827.462 285.431 842.729 310.534 842.729 310.534 827.462 285.431 826.01 281.072ZM637.588 252.394 678.657 256.372 753.423 298.508 751.971 289.79 751.97 289.79 753.422 298.508 678.657 256.371ZM633.653 252.013 680.835 291.243 686.641 296.328 648.17 301.414 605.344 306.499 648.17 301.414 687.321 314.475 648.17 301.414 686.642 296.328 680.837 291.244 680.835 291.243 633.653 252.013ZM667.587 236.756C680.048 237.967 692.449 240.631 704.789 244.748L723.661 249.833C754.632 258.551 785.119 269.448 815.122 282.525L816.573 275.26C818.509 267.995 823.348 263.879 831.091 262.91L836.898 263.636 894.968 284.705 908.034 276.713 1011.83 311.584 1051.03 304.32 1095.31 299.234 1124.34 297.055C1127.73 296.086 1131.6 298.508 1135.96 304.32L1137.41 312.311 1134.51 320.302 1122.17 326.114C1133.78 323.692 1143.94 325.63 1152.65 331.926L1155.56 340.644 1154.83 350.088C1149.99 356.869 1142.49 360.259 1132.33 360.259L1193.3 380.601 1201.29 387.866 1204.19 391.498C1256.45 410.871 1305.09 430.728 1350.09 451.07L1377.68 463.42 1377.68 475.044 1375.5 477.223 1371.14 479.403 1282.59 466.326 1325.41 504.103C1330.25 515.727 1329.77 526.624 1323.96 536.795L1397.27 674.827 1398 687.904 1395.1 691.537C1392.68 692.99 1390.02 694.201 1387.11 695.169L1383.48 697.348 1381.3 696.622 1395.1 728.588 1397.27 737.305 1395.82 741.664 1390.02 747.476 1386.39 749.655 1378.4 748.929 1394.37 801.962 1388.56 819.398 1384.93 828.116 1380.58 830.295 1363.16 831.022C1354.45 828.6 1348.88 823.515 1346.46 815.766L1342.83 870.979 1341.38 879.696 1315.98 889.141 1314.52 888.414 1268.79 989.396C1266.37 994.239 1261.78 996.418 1255 995.934L1255 982.857 1252.1 983.584 1246.29 979.951 1244.11 943.627 1231.05 934.909 1233.95 916.747 1215.08 913.841 1196.21 929.098 1195.48 926.918 1191.85 920.38 1195.48 926.918 1190.4 930.55 1186.04 934.909 1172.98 937.089 1159.19 891.32 1150.48 896.406 1141.77 898.585 1127.25 774.356 1092.41 728.588 1114.91 806.321C1107.65 812.617 1099.18 815.523 1089.5 815.039L1069.9 788.886C1055.39 788.402 1043.29 783.074 1033.61 772.903L1001.67 677.733 1000.22 760.553 993.687 766.365 989.332 767.091 979.896 744.57C971.668 722.291 964.652 698.559 958.845 673.375L926.906 735.126 914.567 735.852C915.534 710.667 918.438 685.725 923.277 661.024L900.775 691.537 891.339 703.887C871.014 725.197 848.028 741.664 822.38 753.288L813.67 745.297 810.766 742.391 772.295 670.469 780.28 716.964 778.828 720.596 776.65 722.776 774.473 725.682 759.229 715.511 754.148 703.161C743.018 676.523 736.243 648.674 733.824 619.614L672.85 656.665 666.317 652.306 664.139 647.948 684.464 628.333 664.139 637.05 601.714 666.836 593.003 661.024 590.826 657.392 611.151 631.965 525.497 677.733 510.254 671.195C501.06 653.759 500.334 635.839 508.076 617.435L339.673 749.655 331.688 748.203 328.059 745.297 352.739 698.802 320.8 718.417 319.348 719.143 265.634 756.194 256.197 760.553 251.842 757.647 238.05 738.758 258.375 669.742 247.486 674.101 238.776 677.007 230.791 671.921 227.888 668.289 227.888 664.656 269.989 597.82 244.583 605.811 232.243 604.358 217 582.564 218.451 574.572 261.278 541.88 219.177 540.428 217.726 536.069 218.451 522.265 238.05 506.283 239.502 504.83 296.846 469.959 274.344 450.344C262.73 449.86 254.745 446.227 250.39 439.446L248.938 435.087 249.664 426.369 305.557 394.404 306.283 394.404 346.206 378.421 377.418 366.071 378.144 357.353C397.017 342.34 418.31 331.442 442.021 324.661L463.798 318.123 500.091 311.584 504.447 303.593 512.431 299.961 650.348 284.705 628.571 260.731 623.49 253.466 626.394 241.115 630.023 237.483C642.605 235.788 655.126 235.546 667.587 236.756Z" fill="#FFFFFF" fill-rule="evenodd"/><path d="M372.466 677.01 372.466 676.283 373.918 677.01 373.192 677.737 372.466 677.01M305.647 459.724 302.015 457.544 302.015 456.817 305.647 459.724M1249.84 448.823 1245.48 448.097 1232.41 443.009 1249.84 448.823M1228.05 526.581 1227.32 527.308 1228.05 526.581M1256.37 777.295 1257.1 777.295 1256.37 777.295M1321.02 756.948 1321.02 757.674 1321.02 756.948M1122.01 693.724 1121.28 692.997 1122.01 693.724M1098.77 682.096 1095.86 681.37 1096.59 680.643 1100.22 682.096 1098.77 682.096M1019.6 794.01 1018.87 793.283 1020.33 792.556 1019.6 794.01" fill="#FF9900" fill-rule="evenodd"/><path d="M687.823 296.086 682.015 291.01 688.549 295.36 687.823 296.086M1339.84 779.009 1331.85 765.232 1342.02 776.834 1339.84 779.009M1227.3 579.604 1226.57 580.329 1225.12 578.879 1227.3 579.604M970.992 688.37 971.718 687.646 970.992 688.37M856.272 683.295 855.546 684.745 855.546 683.295 856.272 683.295" fill="#CD7101" fill-rule="evenodd"/><path d="M971.741 500.267 971.015 499.542 971.741 498.092 971.741 500.267M1018.2 477.787 1017.47 478.513 1016.75 477.787 1018.2 477.787M1088.61 583.659 1090.06 582.934 1093.69 588.01 1088.61 583.659M1211.29 467.635 1206.93 464.009 1212.01 466.185 1211.29 467.635" fill="#FEC27A" fill-rule="evenodd"/><path d="M299.015 414.204 309.897 409.125 538.431 374.293 561.647 387.355 482.567 409.85 299.015 414.204M531.176 314.063 606.629 306.08 754.632 334.381 753.18 343.815 531.176 314.063M679.905 256.009 717.631 264.717 753.18 277.054 785.828 288.664 818.476 303.178 848.947 318.417 895.379 346.717 893.928 363.408 800.338 343.089 752.455 311.16 811.946 313.337 753.18 289.39 754.632 298.098 679.905 256.009M1007.11 415.656C1032.26 422.912 1056.68 431.863 1080.38 442.505L1160.19 482.417 1181.23 507.815 1155.84 507.089C1162.61 510.476 1163.09 511.927 1157.29 511.443L1101.42 497.656 1105.05 507.089 1080.38 495.478 1041.21 476.611 1044.11 475.885 962.851 422.187 1007.11 415.656M1096.34 393.886 1136.97 430.169 1159.46 459.195 1137.7 453.39 1080.38 425.815C1050.39 413.721 1019.68 405.013 988.244 399.691L1036.13 391.709 1033.22 385.178 1096.34 393.886M971.557 499.833 970.832 501.284 970.106 502.735C972.525 514.346 972.525 525.714 970.106 536.841 965.753 561.03 963.819 585.461 964.302 610.133L929.478 598.523 936.008 588.364 931.655 576.027 920.772 581.107 906.262 561.514 896.105 581.833 890.301 619.567C877.242 605.054 862.248 592.234 845.32 581.107L829.359 570.222 835.162 537.567 814.848 547.726 806.868 537.567 866.359 507.089 831.535 515.071 852.574 491.85 819.201 490.399 809.044 507.089 799.613 507.815 801.789 489.673 714.729 499.107C717.147 490.399 722.951 484.352 732.141 480.965L754.632 470.806 770.593 466.452 751.004 457.018 762.612 449.036 811.946 456.293 780.75 441.054 767.691 438.151 765.514 440.328 755.357 438.151C713.278 463.792 650.401 482.659 566.726 494.753 508.686 509.266 447.743 519.425 383.899 525.231L455.724 483.142 454.998 481.691 452.822 482.417C405.906 497.897 361.891 518.942 320.78 545.549L309.172 544.098 444.841 466.452 318.603 497.656 518.117 443.231 526.097 451.939 514.49 467.178 583.413 440.328 645.806 430.169 462.979 431.62 710.375 380.098 700.944 379.372 784.377 356.877 795.985 358.328 803.966 353.248 847.496 369.939 885.222 377.195 928.753 409.85 921.497 422.187 935.282 432.346C928.027 436.7 917.386 439.845 903.36 441.779L914.968 443.231 954.871 482.417 888.85 470.806 919.321 478.063 932.38 494.027 927.301 502.735 915.693 507.089 927.301 506.364 933.831 500.558 948.341 502.735 959.949 512.895 970.832 499.107 971.557 499.833M1017.26 478.063 1017.99 477.337 1079.66 515.797 1148.58 561.514 1209.52 663.832 1205.17 661.656 1131.17 613.036 1084.01 576.027 1089.81 582.558 1088.36 583.284 1091.27 590.541 1093.44 595.62 1123.91 635.532 1107.23 627.549C1084.49 615.455 1064.91 600.216 1048.46 581.833L1025.24 551.355 1016.54 531.762 1054.99 549.903 1007.11 488.947 1027.42 487.496 1017.26 478.063M997.675 601.426C985.584 569.496 980.989 537.083 983.891 504.187L1036.85 656.576 1037.58 655.85C1052.57 665.042 1061.52 679.313 1064.42 698.665L1069.5 710.275C1076.27 720.434 1081.35 731.319 1084.74 742.93L1084.01 745.107 1083.28 746.558 1081.83 747.284 1080.38 748.009 1074.58 746.558 1063.7 726.24 1060.79 721.885C1053.06 723.337 1047.49 719.225 1044.11 709.549L1033.95 684.151 1031.77 670.363 1000.58 616.664 997.675 601.426M1211.7 465.726C1237.82 478.304 1263.45 492.818 1288.6 509.266L1276.27 512.169 1210.97 467.178 1211.7 465.726M1157.29 523.054C1160.67 521.602 1164.3 522.57 1168.17 525.956L1212.42 565.868 1216.78 570.222 1158.01 548.452 1147.85 536.841 1166.72 540.47 1131.89 516.523 1157.29 523.054M1224.76 603.602 1226.93 597.071 1306.01 668.187 1301.66 673.992 1287.15 675.443 1210.97 599.248 1224.76 603.602M980.263 636.257C983.165 649.319 987.276 661.413 992.597 672.541L992.597 675.443 989.695 678.346 988.244 679.072 983.891 676.894 982.44 676.894 980.989 676.894 976.636 673.992 971.557 641.337 970.832 637.708 974.459 634.806 976.636 634.08 979.538 635.532 980.263 636.257M839.515 648.594 820.652 675.443 807.593 666.735 786.554 575.302 793.083 575.302 799.613 565.142 828.633 610.133 847.496 628.275 838.064 639.16 839.515 648.594M454.998 345.992 502.882 340.186 531.902 339.461 563.824 340.186 618.237 344.541 637.1 345.266 537.706 356.877 419.448 356.877 454.998 345.992M349.074 554.257 369.389 536.841 408.566 534.664 383.899 554.257 372.291 562.965C359.715 571.19 346.656 578.688 333.113 585.461 322.473 590.783 311.591 595.62 300.466 599.974L334.565 567.319 349.074 554.257M457.9 540.47 456.449 562.24 299.015 664.558 417.272 534.664 457.9 540.47M727.062 361.231C708.199 364.133 691.029 369.213 675.551 376.47L551.49 363.408 785.828 347.443 789.456 348.894 727.062 361.231M563.824 513.62 688.61 494.753 684.257 496.93 683.532 498.381 685.708 499.833 689.336 502.735 613.158 551.355 529.725 624.646 536.98 546.275 563.824 513.62M727.788 514.346 736.494 518.7 674.101 599.974 668.296 611.585 659.59 610.859 714.003 520.877 727.788 514.346M374.467 676.894 384.624 652.948 383.899 646.417 394.056 635.532 455.724 609.408 382.448 684.151 373.742 677.62 374.467 676.894" fill="#FFFFFF" fill-rule="evenodd"/><path d="M1086.23 727.028 1109.46 801.001 1092.76 806.078 1052.83 748.785 1068.08 780.695 1041.21 768.366 995.471 634.926 994.019 758.938 971.511 688.592 964.25 658.858 966.428 659.583C970.301 653.298 967.397 646.046 957.716 637.826L939.564 621.872 941.016 614.619 930.851 625.498 910.521 657.407 880.752 699.47C868.651 712.041 854.856 721.71 839.366 728.479L842.27 721.227 846.627 715.425 853.161 687.141 856.065 683.515 856.065 684.966 856.792 683.515 869.861 646.529 868.409 643.628 853.887 671.187 827.023 727.028 817.584 737.182 774.746 652.331 769.663 539.922 784.185 528.318 815.406 518.891 768.937 527.593 756.594 515.264 746.429 515.264 760.95 533.395 726.099 598.665 604.845 658.133 599.037 655.957 641.149 606.642 642.601 604.466 641.149 605.917 695.604 518.891 538.773 662.484 525.704 669.011 516.264 664.66 509.73 643.628 520.621 597.214 336.199 742.258 373.229 676.988 373.955 677.714 382.668 684.241 456.001 609.543 394.285 635.651 384.12 646.529 384.846 653.056 374.681 676.988 373.229 676.263 364.516 682.065 355.077 666.835 350.721 681.34 282.47 687.141 317.321 612.444 278.113 623.322 298.443 590.687 304.252 575.457 304.978 574.007 304.252 574.732 303.526 574.732 238.18 593.588 229.467 581.984 312.239 522.517 228.015 531.944 244.714 518.891 259.962 508.012 289.005 490.607 314.417 478.278 334.747 471.026 327.486 468.85 467.618 448.544 354.351 449.994 352.899 449.994 312.965 445.643 260.688 434.765 299.17 414.459 482.865 410.107 562.007 387.625 538.773 374.571 310.06 409.382 349.268 396.328 400.093 381.098 514.812 371.671 426.958 369.495 389.202 365.144 406.628 356.441 445.836 341.937 487.948 328.883 545.307 334.685 511.908 316.554 531.512 314.378 753.69 344.112 755.142 334.685 607.023 306.401 649.862 301.324 702.139 318.729 709.399 317.279 735.538 324.531 689.069 295.523 682.535 291.171 635.34 252.009 680.357 256.361 755.142 298.424 753.69 289.721 812.501 313.653 752.964 311.478 800.884 343.387 894.547 363.693 896 347.013 849.531 318.729C841.302 308.094 834.526 296.973 829.201 285.37L827.749 281.018C855.34 288.27 883.414 298.907 911.973 312.928L906.165 292.622 1008.54 328.883 1119.63 312.203 1039.04 336.86 1140.69 344.112 1081.15 361.518 967.154 371.671 1033.23 345.563 1004.18 350.639 997.65 347.739 954.085 365.869 909.795 326.707 937.385 373.847 912.699 378.923 946.098 399.954 940.29 412.283 954.811 427.513 965.702 471.751 996.197 471.026 974.415 457.972 960.62 434.765 964.25 426.787 958.442 411.558 969.333 403.58 963.524 395.603 1089.86 365.144 1187.88 394.878 1188.61 397.053 1190.78 407.206 1303.33 445.643 1133.42 408.657 1152.3 425.337 1147.95 433.314 1161.74 439.841 1194.41 483.355 1187.15 479.003 1113.82 450.72 1176.26 477.553 1195.14 499.31 1228.54 526.868 1227.81 527.593 1192.24 516.715 1167.55 513.088 1228.54 537.021C1229.99 542.823 1232.9 548.141 1237.25 552.976L1248.87 566.03 1256.86 576.183 1272.1 594.313 1256.86 589.237 1241.61 584.16 1227.81 579.809 1225.64 579.084 1227.09 580.534 1222.73 579.084 1200.95 574.007 1196.59 573.282C1184.98 570.865 1174.08 567.238 1163.92 562.403L1163.19 562.403 1161.02 560.953C1159.56 563.371 1160.29 566.755 1163.19 571.106L1176.99 590.687 1179.89 592.138 1190.06 597.939 1187.88 592.138 1184.98 584.885 1187.88 584.885 1198.05 585.611 1231.44 587.061 1237.98 588.511 1344.71 667.561 1381.01 736.457 1366.49 731.38 1243.06 645.079 1239.43 650.88 1232.17 651.606 1227.09 655.232 1227.09 655.957 1229.27 661.759C1237.01 681.098 1239.67 701.162 1237.25 721.952L1192.24 687.141 1155.21 653.056 1153.75 655.232 1158.11 663.209C1166.34 674.813 1172.63 686.9 1176.99 699.47L1170.45 700.921C1159.32 700.437 1147.7 697.295 1135.6 691.493 1125.44 686.658 1115.27 683.032 1105.11 680.615L1103.66 678.439 1102.93 677.714 1084.05 669.011 1066.63 645.079C1048.72 622.355 1036.61 596.731 1030.32 568.205L1029.6 568.205 1028.14 567.48 1027.42 567.48C1029.84 578.117 1034.68 592.379 1041.94 610.268 1049.2 628.157 1052.35 640.727 1051.38 647.98 1049.93 655.232 1049.93 659.825 1051.38 661.759 1061.06 673.846 1068.32 687.141 1073.16 701.646 1076.06 710.832 1080.42 719.293 1086.23 727.028M954.085 667.561 921.412 729.93 933.029 651.606 939.564 642.903 954.085 667.561M766.759 676.988 774.02 715.425C761.918 705.755 754.174 691.734 750.785 673.362L743.525 637.101 742.798 631.299 766.759 676.988M302.8 457.972 291.183 449.994 352.899 449.994 337.651 456.521 309.334 456.521 302.8 457.247 302.8 457.972M1251.05 463.048 1310.59 512.364 1311.31 528.318 1299.69 541.372 1251.77 521.791C1234.83 514.539 1221.76 502.936 1212.57 486.981 1208.21 479.245 1201.92 471.993 1193.69 465.224L1171.91 442.017 1251.05 463.048M1311.31 561.678 1352.7 632.025 1253.23 544.998 1311.31 561.678M1363.59 756.762 1377.38 803.177 1373.75 817.681 1361.41 817.681 1340.35 779.244 1342.53 777.069 1332.37 765.465 1331.64 764.74 1321.48 756.762 1317.12 749.51 1312.04 740.808 1297.52 726.303 1307.68 745.884 1311.31 756.762 1314.22 768.366 1293.16 745.884 1275.01 721.952 1256.86 694.394 1242.34 670.461 1256.86 680.615 1320.02 724.128 1363.59 756.762M1007.81 415.909 963.524 422.436 1044.84 476.102 1041.94 476.828 1081.15 495.683 1105.83 507.287 1102.2 497.859 1158.11 511.638C1163.92 512.122 1163.44 510.671 1156.66 507.287L1182.07 508.012 1161.02 482.629 1081.15 442.742C1057.43 432.106 1032.98 423.161 1007.81 415.909M1097.12 394.152 1033.95 385.45 1036.86 391.977 988.936 399.954C1020.4 405.273 1051.14 413.976 1081.15 426.062L1138.51 453.621 1160.29 459.422 1137.78 430.414 1097.12 394.152M971.511 499.31 960.62 513.088 949.003 502.936 934.481 500.76 927.947 506.562 916.33 507.287 927.947 502.936 933.029 494.233 919.96 478.278 889.465 471.026 955.537 482.629 915.603 443.467 903.986 442.017C918.024 440.084 928.673 436.94 935.933 432.589L922.138 422.436 929.399 410.107 885.834 377.472 848.079 370.22 804.515 353.54 796.528 358.617 784.911 357.166 701.412 379.648 710.851 380.373 463.261 431.864 646.231 430.414 583.789 440.567 514.812 467.4 526.429 452.17 518.443 443.467 318.774 497.859 445.11 466.675 309.334 544.273 320.952 545.723C362.095 519.132 406.145 498.101 453.096 482.629L455.275 481.904 456.001 483.355 384.12 525.417C448.014 519.615 509.004 509.463 567.09 494.958 650.83 482.871 713.756 464.016 755.868 438.391L766.033 440.567 768.211 438.391 781.281 441.292 812.501 456.521 763.129 449.269 751.512 457.247 771.115 466.675 755.142 471.026 732.634 481.179C723.437 484.563 717.628 490.607 715.208 499.31L802.336 489.882 800.158 508.012 809.597 507.287 819.762 490.607 853.161 492.057 832.105 515.264 866.957 507.287 807.419 537.746 815.406 547.899 835.736 537.746 829.927 570.381 845.901 581.259C862.842 592.379 877.848 605.192 890.917 619.696L896.726 581.984 906.891 561.678 921.412 581.259 932.303 576.183 936.659 588.511 930.125 598.665 964.976 610.268C964.493 585.611 966.428 561.195 970.785 537.021 973.205 525.901 973.205 514.539 970.785 502.936L971.511 501.485 972.237 500.035 972.237 497.859 971.511 499.31M1018.71 477.553 1017.25 477.553 1017.98 478.278 1028.14 487.706 1007.81 489.156 1055.74 550.075 1017.25 531.944 1025.97 551.525 1049.2 581.984C1065.66 600.357 1085.26 615.587 1108.01 627.673L1124.71 635.651 1094.22 595.764 1092.04 590.687 1089.13 583.435 1094.22 587.786 1090.59 582.71 1084.78 576.183 1131.97 613.169 1206.03 661.759 1210.39 663.934 1149.4 561.678 1080.42 515.99 1018.71 477.553M998.375 601.565 1001.28 616.795 1032.5 670.461 1034.68 684.241 1044.84 709.623C1048.23 719.293 1053.8 723.403 1061.54 721.952L1064.45 726.303 1075.34 746.609 1081.15 748.06 1082.6 747.335 1084.05 746.609 1084.78 745.159 1085.5 742.984C1082.12 731.38 1077.03 720.501 1070.26 710.349L1065.17 698.745C1062.27 679.406 1053.31 665.143 1038.31 655.957L1037.58 656.682 984.58 504.386C981.676 537.263 986.275 569.656 998.375 601.565M1212.57 465.949 1207.48 463.774 1211.84 467.4 1277.19 512.364 1289.53 509.463C1264.36 493.024 1238.7 478.52 1212.57 465.949M1158.11 523.242 1132.7 516.715 1167.55 540.647 1148.67 537.021 1158.84 548.625 1217.65 570.381 1213.29 566.03 1169 526.142C1165.13 522.758 1161.5 521.791 1158.11 523.242M1225.64 603.741 1211.84 599.39 1288.08 675.538 1302.6 674.088 1306.96 668.286 1227.81 597.214 1225.64 603.741M1253.23 745.884 1264.12 745.884 1327.29 790.848 1302.6 789.397 1253.23 745.884M1256.86 777.069 1246.69 779.244 1212.57 756.762 1170.45 716.15 1187.88 716.15 1256.86 777.069M1295.34 820.582 1282.99 830.01 1243.06 792.298 1253.95 788.672 1291.71 809.704 1289.53 813.33 1295.34 820.582M1206.03 822.032 1195.14 811.154 1192.96 801.726C1193.93 796.407 1196.59 793.991 1200.95 794.474L1214.02 815.505 1206.03 822.032M1140.69 708.898 1153.75 711.074 1182.07 736.457 1140.69 708.898M980.95 636.376 980.224 635.651 977.319 634.2 975.141 634.926 971.511 637.826 972.237 641.453 977.319 674.088 981.676 676.988 983.128 676.988 984.58 676.988 988.936 679.164 990.389 678.439 993.293 675.538 993.293 672.637C987.968 661.517 983.854 649.43 980.95 636.376M971.511 688.592 972.237 687.867 971.511 688.592M840.092 648.705 838.64 639.277 848.079 628.399 829.201 610.268 800.158 565.304 793.624 575.457 787.089 575.457 808.145 666.835 821.214 675.538 840.092 648.705M455.275 346.288 419.697 357.166 538.047 357.166 637.518 345.563 618.641 344.837 564.185 340.486 532.238 339.761 503.195 340.486 455.275 346.288M349.268 554.426 334.747 567.48 300.622 600.115C311.755 595.764 322.646 590.929 333.295 585.611 346.848 578.842 359.917 571.348 372.503 563.129L384.12 554.426 408.806 534.845 369.598 537.021 349.268 554.426M429.862 603.741 397.915 624.047 398.641 623.322 416.067 620.421C425.748 618.004 433.25 614.136 438.575 608.818L513.36 577.633 534.416 524.692 488.674 547.899 483.592 573.282 437.123 603.741 429.862 603.741M458.179 540.647 417.519 534.845 299.17 664.66 456.727 562.403 458.179 540.647M727.551 361.518 789.993 349.189 786.363 347.739 551.842 363.693 676 376.747C691.49 369.495 708.673 364.418 727.551 361.518M564.185 513.814 537.321 546.449 530.06 624.772 613.558 551.525 689.796 502.936 686.165 500.035 683.987 498.584 684.713 497.134 689.069 494.958 564.185 513.814M728.277 514.539 714.482 521.066 660.027 610.993 668.739 611.719 674.548 600.115 736.99 518.891 728.277 514.539" fill="#DDDDDD" fill-rule="evenodd"/><path d="M1196.8 926.342 1193.16 919.804 1177.91 929.975C1174.04 909.633 1168.47 889.775 1161.2 870.402L1159.03 859.504 1155.39 883.479 1146.68 891.47 1134.33 770.144C1117.87 751.739 1104.07 731.881 1092.93 710.57L1072.59 672.792 1066.05 664.801 1085.66 727.28C1079.85 719.531 1075.5 711.055 1072.59 701.852 1067.75 687.322 1060.48 674.003 1050.8 661.895 1049.35 659.957 1049.35 655.356 1050.8 648.091 1051.77 640.826 1048.62 628.233 1041.36 610.313 1034.09 592.392 1029.25 578.104 1026.83 567.449L1027.56 567.449 1029.01 568.175 1029.74 568.175C1036.03 596.751 1048.14 622.421 1066.05 645.185L1083.48 669.16 1102.37 677.878 1103.1 678.604 1104.55 680.784C1114.72 683.205 1124.89 686.838 1135.06 691.681 1147.16 697.493 1158.78 700.642 1169.92 701.126L1176.46 699.673C1172.1 687.08 1165.81 674.972 1157.57 663.348L1153.21 655.356 1154.67 653.177 1191.71 687.322 1236.74 722.194C1239.17 701.368 1236.5 681.268 1228.75 661.895L1226.58 656.083 1226.58 655.356 1231.66 651.723 1238.92 650.997 1242.56 645.185 1366.04 731.639 1353.69 726.553 1363.13 757.067 1319.55 724.374 1256.36 680.784 1241.83 670.612 1256.36 694.587 1274.51 722.194 1292.67 746.169 1313.74 768.691 1310.83 757.067 1307.2 746.169 1297.03 726.553 1311.56 741.084 1316.64 749.802 1321 757.067 1331.17 765.058 1327.54 872.581 1315.92 876.214 1304.3 868.222 1258.54 980.831 1256.36 982.283 1253.45 983.01 1247.64 979.377 1245.46 943.052 1232.39 934.334 1235.29 916.172 1216.41 913.266 1197.52 928.522 1196.8 926.342M963.637 658.989 961.458 648.817 953.468 667.707 938.942 643.005 932.404 651.723 937.489 627.022 904.803 672.066 885.192 696.767 881.56 701.126 842.337 732.365 823.452 744.716 837.979 714.203 826.358 727.28 853.232 671.339 867.759 643.732 869.212 646.638 856.138 683.69 855.411 683.69 852.506 687.322 845.969 715.656 841.611 721.468 838.705 728.733C854.201 721.952 868.002 712.266 880.107 699.673L909.888 657.535 930.226 625.569 940.394 614.672 938.942 621.937 957.1 637.92C966.785 646.154 969.691 653.419 965.817 659.715L963.637 658.989M774.06 652.45 763.165 621.21 766.07 677.151 742.101 631.381 739.922 605.954 671.645 647.364 736.29 592.876 725.395 598.689 760.26 533.303 745.733 515.14 755.902 515.14 768.25 527.491 814.736 518.773 783.503 528.217 768.976 539.842 774.06 652.45M640.412 605.954 537.997 662.621 694.888 518.773 640.412 605.954M363.673 682.237 256.173 747.622 249.636 738.178 280.143 639.373 238.015 664.074 303.386 575.441 297.575 590.697 277.238 623.39 316.46 612.492 281.595 687.322 349.872 681.51 354.231 666.98 363.673 682.237M326.629 468.644 305.565 459.926 301.933 457.02 308.47 456.293 336.798 456.293 352.051 449.755 353.504 449.755 466.815 448.302 326.629 468.644M399.264 380.737 442.845 372.745 426.139 369.113 514.027 371.293 399.264 380.737M649.128 300.821 687.625 295.736 688.351 295.009 734.837 324.07 708.689 316.804 701.425 318.258 649.128 300.821M1080.58 361.121 1108.18 357.489 1089.3 364.754 962.911 395.267 968.722 403.259 957.827 411.25 963.637 426.507 960.006 434.498 973.806 457.747 995.597 470.824 965.09 471.55 954.195 427.233 939.668 411.977 945.479 399.626 912.067 378.557 936.763 373.472 909.161 326.249 953.468 365.48 997.05 347.318 1003.59 350.224 1032.64 345.138 966.543 371.293 1080.58 361.121M1302.84 445.396 1365.31 466.465 1249.82 449.029 1232.39 443.216 1245.46 448.302 1229.48 445.396 1250.55 462.832 1171.37 441.763 1193.16 465.012C1201.4 471.792 1207.69 479.057 1212.05 486.807 1221.25 502.79 1234.32 514.414 1251.27 521.679L1299.21 541.295 1310.83 561.637 1252.72 544.927 1352.23 632.108 1382.01 683.69 1344.24 667.707 1237.47 588.518 1230.93 587.064 1197.52 585.612 1187.35 584.885 1184.45 584.885 1187.35 592.15 1189.53 597.962 1179.36 592.15 1176.46 590.697 1162.66 571.081C1159.75 566.722 1159.03 563.332 1160.48 560.91L1162.66 562.363 1163.38 562.363C1173.55 567.206 1184.45 570.839 1196.07 573.261L1200.43 573.987 1222.22 579.073 1226.58 580.526 1227.3 579.799 1241.1 584.158 1256.36 589.244 1271.61 594.33 1256.36 576.167 1248.37 565.996 1236.74 552.919C1232.39 548.075 1229.48 542.748 1228.03 536.936L1167.02 512.961 1191.71 516.594 1227.3 527.491 1228.03 526.765 1194.62 499.157 1175.73 477.362 1113.27 450.481 1186.63 478.815 1193.89 483.174 1161.2 439.584 1147.4 433.046 1151.76 425.054 1132.88 408.344 1302.84 445.396M1252.72 746.169 1302.12 789.76 1326.81 791.212 1263.62 746.169 1252.72 746.169M1256.36 777.409 1257.08 777.409 1256.36 777.409 1187.35 716.382 1169.92 716.382 1212.05 757.067 1246.19 779.589 1256.36 777.409M1321 757.067 1321 757.793 1321 757.067M1121.98 693.861 1121.26 693.134 1121.98 693.861M1140.14 709.117 1181.54 736.725 1153.21 711.297 1140.14 709.117M1205.51 822.452 1213.5 815.914 1200.43 794.845C1196.07 794.361 1193.41 796.782 1192.44 802.11L1194.62 811.555 1205.51 822.452M1294.85 820.999 1289.04 813.734 1291.22 810.102 1253.45 789.033 1242.56 792.666 1282.5 830.444 1294.85 820.999M1098.74 682.237 1100.19 682.237 1096.56 680.784 1095.83 681.51 1098.74 682.237M429.045 603.774 436.308 603.774 482.794 573.261 487.879 547.833 533.639 524.585 512.575 577.62 437.761 608.859C432.434 614.187 424.929 618.062 415.244 620.484L397.811 623.39 397.085 624.116 429.045 603.774" fill="#AAAAAA" fill-rule="evenodd"/><path d="M1196.5 926.019 1191.41 929.646 1187.06 934 1173.99 936.176 1160.2 890.468 1151.49 895.546 1142.78 897.723 1128.26 773.658 1093.42 727.949 1115.92 805.581C1108.66 811.868 1100.2 814.77 1090.52 814.287L1070.92 788.168C1056.4 787.685 1044.3 782.364 1034.63 772.206L1002.69 677.162 1001.23 759.872 994.702 765.677 990.347 766.402 980.91 743.911C972.683 721.661 965.667 697.96 959.86 672.809L927.921 734.479 915.582 735.204C916.549 710.053 919.453 685.143 924.292 660.475L901.79 690.947 892.353 703.281C872.029 724.563 849.043 741.009 823.395 752.617L814.685 744.636 811.781 741.734 773.31 669.907 781.294 716.34 779.843 719.968 777.665 722.145 775.487 725.047 760.244 714.89 755.163 702.556C744.033 675.953 737.258 648.141 734.838 619.119L673.865 656.122 667.332 651.768 665.154 647.415 685.479 627.826 665.154 636.532 602.729 666.279 594.018 660.475 591.841 656.847 612.165 631.454 526.512 677.162 511.269 670.632C502.075 653.219 501.349 635.323 509.091 616.943L340.688 748.989 332.703 747.538 329.074 744.636 353.754 698.202 321.815 717.792 320.363 718.517 266.648 755.519 257.212 759.872 252.857 756.97 239.065 738.107 259.39 669.181 248.501 673.534 239.791 676.436 231.806 671.358 228.903 667.73 228.903 664.102 271.003 597.354 245.598 605.335 233.258 603.883 218.015 582.118 219.466 574.137 262.293 541.488 220.192 540.037 218.74 535.684 219.466 521.898 239.065 505.937 240.517 504.486 297.861 469.661 275.359 450.071C263.745 449.588 255.76 445.96 251.405 439.188L249.953 434.835 250.679 426.129 306.571 394.205 307.297 394.205 347.221 378.244 378.433 365.909 379.159 357.203C398.032 342.209 419.325 331.326 443.036 324.554L464.812 318.024 501.106 311.495 505.462 303.514 513.446 299.886 651.363 284.65 629.586 260.708 624.505 253.452 627.409 241.118 631.038 237.491C656.201 234.105 681.123 236.523 705.803 244.746L724.676 249.825C755.647 258.531 786.134 269.414 816.137 282.474L817.588 275.218C819.524 267.963 824.363 263.852 832.106 262.884L837.913 263.61 895.983 284.65 909.049 276.669 1012.85 311.495 1052.05 304.24 1096.32 299.161 1125.36 296.984C1128.75 296.016 1132.62 298.435 1136.97 304.24L1138.43 312.22 1135.52 320.201 1123.18 326.005C1134.8 323.587 1144.96 325.522 1153.67 331.81L1156.57 340.516 1155.85 349.948C1151.01 356.72 1143.51 360.105 1133.34 360.105L1194.32 380.42 1202.3 387.676 1205.21 391.303C1257.47 410.65 1306.1 430.482 1351.11 450.796L1378.69 463.131 1378.69 474.739 1376.51 476.916 1372.16 479.092 1283.6 466.033 1326.43 503.76C1331.27 515.369 1330.78 526.252 1324.98 536.409L1398.29 674.26 1399.01 687.319 1396.11 690.947C1393.69 692.398 1391.03 693.607 1388.13 694.575L1384.5 696.751 1382.32 696.026 1396.11 727.949 1398.29 736.655 1396.84 741.009 1391.03 746.813 1387.4 748.989 1379.42 748.264 1395.39 801.227 1389.58 818.64 1385.95 827.347 1381.59 829.523 1364.17 830.249C1355.46 827.83 1349.9 822.751 1347.48 815.013L1343.85 870.153 1342.4 878.859 1316.99 888.291 1315.54 887.565 1269.81 988.414C1267.39 993.251 1262.79 995.427 1256.02 994.944L1256.02 981.884 1258.2 980.434 1303.93 867.977 1315.54 875.957 1327.15 872.329 1330.78 764.951 1331.51 765.677 1339.49 779.462 1360.54 817.915 1372.88 817.915 1376.51 803.404 1362.72 756.97 1353.28 726.498 1365.62 731.577 1380.14 736.655 1343.85 667.73 1381.59 683.692 1351.83 632.179 1310.46 561.803 1298.84 541.488 1310.46 528.428 1309.73 512.466 1250.21 463.131 1229.16 445.718 1245.13 448.62 1249.48 449.346 1364.9 466.758 1302.47 445.718 1189.96 407.265 1187.79 397.107 1187.06 394.931 1089.07 365.184 1107.94 357.929 1080.36 361.556 1139.88 344.144 1038.25 336.888 1118.83 312.22 1007.77 328.908 905.419 292.631 911.226 312.946C882.675 298.918 854.608 288.278 827.025 281.023L828.476 285.376C833.8 296.984 840.574 308.109 848.801 318.75L818.314 303.514 785.65 289.003 752.985 277.395 717.417 265.061 679.672 256.354 634.668 252.001 681.849 291.18 687.656 296.259 649.185 301.337 606.359 306.416 530.867 314.397 511.269 316.574 544.659 334.712 487.315 328.908 445.214 341.967 406.017 356.478 388.596 365.184 426.341 369.537 443.036 373.165 399.484 381.146 348.672 396.382 309.475 409.441 298.587 414.52 260.116 434.835 312.378 445.718 352.302 450.071 353.754 450.071 352.302 450.071 290.602 450.071 302.216 458.052 305.845 460.228 326.896 468.935 334.155 471.111 313.83 478.367 288.425 490.701 259.39 508.114 244.146 518.996 227.451 532.056 311.653 522.624 228.903 582.118 237.613 593.726 302.942 574.862 303.668 574.862 304.394 574.137 303.668 575.588 238.339 664.102 280.44 639.434 249.953 738.107 256.486 747.538 363.916 682.241 372.626 676.436 372.626 677.162 335.606 742.459 519.979 597.354 509.091 643.788 515.624 664.828 525.06 669.181 538.126 662.651 640.474 606.06 641.926 604.609 640.474 606.785 598.374 656.122 604.181 658.298 725.402 598.805 736.29 593 671.687 647.415 739.919 606.06 742.097 631.454 742.823 637.258 750.082 673.534C753.469 691.915 761.212 705.941 773.31 715.615L766.051 677.162 763.148 621.296 774.036 652.494 816.862 737.381 826.299 727.223 837.913 714.164 823.395 744.636 842.268 732.302 881.465 701.104 885.095 696.751 904.693 672.083 937.358 627.1 932.277 651.768 920.663 730.126 953.327 667.73 961.312 648.866 963.489 659.024 970.748 688.77 993.25 759.147 994.702 635.081 1040.43 768.579 1067.29 780.913 1052.05 748.989 1091.97 806.306 1108.66 801.227 1085.44 727.223 1065.84 664.828 1072.37 672.809 1092.7 710.536C1103.83 731.818 1117.62 751.65 1134.07 770.03L1146.41 891.193 1155.12 883.213 1158.75 859.27 1160.93 870.153C1168.19 889.5 1173.75 909.332 1177.62 929.646L1192.87 919.489 1196.5 926.019M1113.75 328.182 1103.58 330.359 1110.12 331.084 1113.75 328.182" fill="#888888" fill-rule="evenodd"/></g></svg>