<svg width="1761" height="1761" xmlns="http://www.w3.org/2000/svg" xmlns:xlink="http://www.w3.org/1999/xlink" overflow="hidden"><defs><clipPath id="clip0"><rect x="0" y="0" width="1761" height="1761"/></clipPath></defs><g clip-path="url(#clip0)"><path d="M1022 1227.44 1079.18 1273.45 1077.7 1274.93 1082.89 1277.16 1084.38 1277.9 1084.38 1281.61 1082.15 1286.06 1065.07 1301.64 1056.9 1303.87 1040.57 1313.52 1031.66 1315C1028.19 1314.51 1025.47 1313.27 1023.49 1311.29L989.33 1280.87 983.389 1259.35 1001.21 1247.48 1015.32 1259.35 1053.19 1291.26 1053.19 1291.26 1015.32 1259.35 1018.29 1258.61C1021.26 1258.61 1022 1256.38 1020.52 1251.93L1007.15 1242.28 1013.09 1237.09 1011.61 1233.38 1014.58 1235.61ZM1112.92 1094.62C1103.92 1139.89 1086.98 1187.37 1062.1 1237.09L1068.35 1246.81 1062.1 1237.09C1086.98 1187.37 1103.92 1139.89 1112.92 1094.62ZM1178.68 1019.68C1166.8 1062.72 1153.68 1104.52 1139.33 1145.08L1092.55 1263.06 1092.55 1263.06C1126.21 1186.88 1154.92 1105.75 1178.68 1019.68ZM1092.85 901.996 1091.06 903.186 1091.06 903.186ZM1088.09 888.345 1086.61 891.313 1088.09 888.346ZM510.21 844.797 510.21 844.797 506.661 849.761ZM209.634 811.919 208.892 814.145 204.993 815.629C206.355 815.629 207.654 815.134 208.892 814.145ZM1077.7 797.078 1075.81 809.368 1077.7 797.079ZM1131.76 782.333 1113.34 787.433 1131.76 782.333ZM407.157 774.818 406.638 776.375 407.157 774.819ZM199.266 772.201 197.753 773.334 195.531 779.553 197.753 773.334ZM248.99 757.752 237.852 767.398C230.426 773.334 224.486 779.889 220.03 787.061L214.394 801.846 220.031 787.061C224.486 779.889 230.426 773.334 237.852 767.398ZM204.335 755.577 202.951 756.268 201.706 757.098 202.951 756.268ZM208.892 754.784 204.562 755.505 208.892 754.784ZM753.936 736.976 751.708 763.688 751.708 763.688ZM927.264 736.957 927.264 736.957 920.271 752.558ZM218.545 731.04 217.803 732.524 211.517 740.201 217.803 732.524 218.545 731.04ZM719.778 704.328 690.818 727.33C666.561 750.085 640.075 769.377 611.363 785.207 640.075 769.377 666.561 750.085 690.818 727.33ZM418.296 665.001C386.117 670.937 359.881 685.036 339.583 707.296L314.336 733.266 339.584 707.296C359.881 685.036 386.117 670.937 418.296 665.001ZM298 641.814C290.822 653.562 284.634 665.743 279.436 678.357L278.409 680.922 279.436 678.358C284.634 665.743 290.822 653.562 298 641.814ZM921.014 613.042 921.014 613.042 921.014 656.097 921.014 656.097ZM1210.61 403.815 1208.39 409.751 1151.95 411.235 1208.39 409.751ZM1004.92 391.942 954.429 402.331 1004.92 391.943ZM674.481 359.294 629.185 371.908 587.193 390.89 629.185 371.908ZM1163.09 346.68 1130.42 372.65 1130.42 372.65ZM1083.64 317 1097.74 321.452 1108.14 328.13 1128.93 342.228 1174.97 331.84 1184.63 346.68 1182.4 362.262 1195.76 370.424 1215.07 388.975 1225.47 407.525 1195.76 417.913 1247 470.595C1265.81 491.372 1283.63 519.32 1300.47 554.442 1307.64 569.283 1313.03 585.174 1316.62 602.116L1322 656.097 1322 656.097 1322 678.357C1319.03 725.351 1317.54 778.776 1317.54 838.631L1316.06 897.992C1313.09 943.007 1307.15 987.775 1298.24 1032.29 1290.32 1071.37 1279.43 1109.46 1265.56 1146.56 1253.68 1177.73 1237.35 1206.67 1216.56 1233.38 1196.75 1258.61 1172.74 1282.1 1144.53 1303.87L1161.61 1278.64C1186.85 1218.29 1205.17 1168.33 1216.56 1128.76 1234.38 1065.93 1234.38 1029.08 1216.56 1018.2 1211.61 1014.73 1205.66 1013.5 1198.73 1014.49L1107.4 1265.29 1098.49 1274.19C1067.79 1260.83 1044.28 1242.78 1027.94 1220.02 1038.34 1207.66 1046.51 1194.05 1052.45 1179.21 1061.85 1155.96 1068.29 1132.22 1071.75 1107.98L1071.75 1106.5 1071.79 1106.26 1071.79 1106.26 1089.58 975.902 1071.79 1106.26 1072.5 1068.65 1077.7 1015.23 1082.15 959.578 1083.64 932.866 1076.21 893.539 1073.98 878.7 1069.53 879.441 1058.39 872.763 1063.59 786.69 1044.28 782.98 1033.14 771.108 995.27 772.592 987.102 730.298 967.053 725.104 964.083 739.202 950.716 745.88 935.123 736.234 923.984 760.72 907.648 763.688 895.767 748.106 867.549 746.622 851.212 702.844 850.47 702.844 808.144 715.458 805.916 716.2 802.203 717.684 794.777 720.652 794.777 720.652 784.381 746.622 769.53 745.138 768.045 767.398 756.906 776.302 733.144 766.656 701.214 762.204C676.461 778.034 649.729 791.143 621.016 801.531 598.245 810.435 574.977 813.155 551.215 809.693L540.077 817.855 505.176 863.859 489.582 863.859 471.169 812.907 470.908 813.298 467.013 814.714 458.394 826.017 443.543 839.373 433.89 833.437 424.979 805.241 413.84 806.725 396.761 797.078 403.444 747.364 386.365 734.75 384.138 733.266 381.167 737.718 376.712 739.944 365.573 745.88C354.683 741.923 325.723 760.968 278.693 803.015L249.733 777.044 205.179 822.307 189.585 816.371C183.15 795.1 185.378 774.076 196.268 753.3 213.099 721.641 232.159 692.456 253.446 665.743L362.603 540.344C423.988 476.037 494.038 425.085 572.75 387.49 603.443 373.144 634.877 361.026 667.056 351.132L742.797 336.292 776.213 329.614 828.193 325.162 915.073 328.872 921.014 328.872 921.014 340.744 921.014 354.1 921.014 369.682 921.014 395.653 921.014 403.139 921.014 403.139 921.014 395.653 921.014 369.682 921.014 369.682 921.014 354.1 955.914 355.584 955.914 355.584 921.014 354.1 921.014 340.744 921.014 340.744 921.014 328.872 977.449 331.84 1011.61 335.55 1065.81 343.712Z" fill="#FFFFFF" fill-rule="evenodd"/><path d="M1013.52 1238.01 1012.02 1235.01 1015.02 1236.81 1013.52 1238.01" fill="#006600" fill-rule="evenodd"/><path d="M955.818 701.509 955.018 701.009 955.818 701.009 958.218 701.509 959.018 702.009 955.818 701.509" fill="#006633" fill-rule="evenodd"/><path d="M376.729 740.863 365.59 746.8C354.7 742.842 325.74 761.89 278.71 803.944L249.75 777.969 205.195 823.239 189.602 817.302C183.166 796.028 185.394 775.001 196.285 754.221 213.116 722.557 232.176 693.367 253.462 666.65L362.62 541.23C424.005 476.913 494.054 425.952 572.766 388.352 603.459 374.003 634.894 361.883 667.072 351.987L742.814 337.145 776.23 330.465 828.21 326.013 915.09 329.723 921.03 329.723 921.03 341.598 823.754 334.176 812.615 334.176 776.23 337.887 735.389 346.05 674.498 360.151 629.201 372.767 566.826 400.968 508.163 435.106 452.47 476.665 399.006 521.935C378.214 540.736 359.155 561.516 341.828 584.274L322.521 608.764C304.205 630.534 289.848 654.034 279.452 679.266L277.967 682.977C254.7 693.861 234.898 709.199 218.562 728.989L218.562 730.473 218.562 731.957 217.819 733.442 211.136 741.605 211.879 746.058C212.869 750.016 211.879 753.232 208.909 755.705L204.453 756.448 202.968 757.19 200.74 758.674 200.74 761.643 200.74 772.032 197.77 774.259 194.057 784.649 199.255 791.328 197.027 797.265C196.037 803.696 197.275 809.634 200.74 815.076 203.711 817.055 206.433 817.055 208.909 815.076L209.651 812.849 211.136 811.365C214.106 794.544 223.017 780.196 237.869 768.322L249.007 758.674 248.265 760.158 282.423 788.359 282.423 789.101C300.244 769.311 320.045 752.242 341.828 737.894 351.233 731.957 360.887 728.247 370.788 726.762L374.501 740.121 376.729 740.863M1304.94 657.002 1322.02 657.002 1322.02 679.266C1319.05 726.268 1317.56 779.701 1317.56 839.566L1316.08 898.936C1313.11 943.959 1307.17 988.734 1298.25 1033.26 1290.33 1072.35 1279.44 1110.44 1265.58 1147.55 1253.7 1178.72 1237.36 1207.66 1216.57 1234.38 1196.77 1259.61 1172.76 1283.11 1144.54 1304.88L1161.62 1279.65C1182.41 1258.37 1200.73 1234.38 1216.57 1207.66 1260.14 1134.93 1285.63 1041.92 1293.06 928.622L1295.28 898.936C1302.22 788.112 1305.43 707.467 1304.94 657.002M1198.75 1015.45 1107.41 1266.29 1098.5 1275.2C1067.81 1261.84 1044.3 1243.78 1027.96 1221.02L1068.8 1248.48 1092.56 1264.06C1126.23 1187.87 1154.94 1106.73 1178.7 1020.65L1198.75 1015.45M1071.77 1108.96C1070.29 1096.09 1070.53 1082.98 1072.51 1069.63L1077.71 1016.19 1082.17 960.533 1083.65 933.817 1076.23 894.484 1074 879.641 1069.54 880.383 1058.41 873.704 1063.6 787.617 1044.3 783.906 1033.16 772.032 995.287 773.517 987.119 731.215 967.07 726.02 964.099 740.121 950.733 746.8 935.139 737.152 924 761.643 907.664 764.611 895.783 749.026 867.566 747.542 851.229 703.757 850.486 703.757 857.17 702.272C870.536 710.188 876.476 722.062 874.991 737.894L885.387 740.863 887.615 734.184C890.09 725.773 889.843 718.104 886.872 711.178L886.872 709.693 887.615 709.693 893.555 714.888 896.526 717.857 898.011 726.02 898.753 735.668C900.734 746.058 906.427 752.49 915.832 754.963L920.288 753.479C928.208 742.595 930.931 729.731 928.456 714.888L938.109 727.505C942.07 733.442 947.515 736.905 954.446 737.894L958.159 707.467 955.931 701.53 958.901 702.272C963.852 708.704 970.535 714.888 978.951 720.826L987.119 731.215 990.089 731.957 999 746.8 1006.43 766.837 1017.56 766.095 1024.99 740.121 1027.96 759.416 1045.78 760.901 1059.15 776.485 1067.32 775.001 1077.71 787.617 1077.71 798.007C1075.73 822.25 1070.53 844.761 1062.12 865.54L1071.03 868.509 1085.14 860.346 1086.62 861.83 1087.37 863.314 1085.88 866.283 1082.91 879.641 1085.14 882.609 1088.11 889.289 1086.62 892.257C1084.64 895.226 1084.15 898.442 1085.14 901.905L1086.62 903.389 1091.08 904.131 1095.53 901.163 1094.79 918.974 1089.59 976.86 1071.77 1107.47 1071.77 1108.96M794.794 721.568 784.398 747.542 769.547 746.058 768.061 768.322 756.923 777.227 733.161 767.58 701.23 763.127 736.131 746.058 739.844 751.253 751.725 764.611 753.953 737.894 768.061 731.957 780.685 734.926 785.14 725.278 794.794 721.568M551.232 810.623 540.093 818.787 505.193 864.799 489.599 864.799 470.292 811.365 458.411 826.95 443.56 840.308 433.906 834.371 424.995 806.17 413.857 807.654 396.778 798.007 403.461 748.284 407.174 775.743 406.431 777.969 407.174 792.07C410.638 797.017 414.6 797.76 419.055 794.296L422.025 786.133 427.223 763.869 428.708 758.674 433.164 767.58 433.164 768.322C438.114 784.154 440.589 800.233 440.589 816.56 439.599 819.034 440.341 822.002 442.817 825.466L445.787 828.434C459.153 820.023 466.331 805.676 467.322 785.391L482.173 792.812 491.084 818.787C493.064 828.681 493.806 839.071 493.312 849.956L506.678 850.698 514.104 840.308C521.035 828.929 526.727 817.797 531.183 806.913L551.232 810.623M1077.71 1275.94 1082.91 1278.16 1084.4 1278.91 1084.4 1282.62 1082.17 1287.07 1065.09 1302.65 1056.92 1304.88 1040.58 1314.53 1031.67 1316.01C1028.21 1315.52 1025.48 1314.28 1023.5 1312.3L989.347 1281.88 983.406 1260.35 1032.42 1304.14 1053.21 1292.26 1015.34 1260.35 1018.31 1259.61C1021.28 1259.61 1022.02 1257.38 1020.53 1252.93L1064.35 1285.59 1077.71 1275.94" fill="#999999" fill-rule="evenodd"/><path d="M374.286 739.973 370.572 726.615C360.668 728.099 351.012 731.81 341.604 737.747 319.816 752.095 300.01 769.165 282.183 788.956L282.183 788.214 248.016 760.011 285.897 728.099C283.421 743.437 284.66 757.785 289.611 771.144L314.122 734.036 339.376 708.061C359.679 685.796 385.922 671.695 418.109 665.758L411.424 673.179C393.103 692.97 380.723 715.235 374.286 739.973M823.657 334.013 920.959 341.435 920.959 354.793 885.306 346.63 823.657 334.013M920.959 370.379 920.959 396.354 757.551 434.204 920.959 370.379M920.959 457.953 920.959 484.671C858.072 498.03 795.68 514.109 733.783 532.911L915.76 461.664 905.361 463.89 913.531 460.922 920.959 457.953M1193.55 656.851 1304.97 656.851C1305.46 707.318 1302.24 787.966 1295.31 898.795L1293.08 928.481C1285.66 1041.78 1260.15 1134.8 1216.58 1207.53 1200.73 1234.25 1182.41 1258.25 1161.61 1279.52 1186.87 1219.16 1205.19 1169.19 1216.58 1129.61 1234.4 1066.77 1234.4 1029.91 1216.58 1019.02 1211.63 1015.56 1205.69 1014.32 1198.75 1015.31L1178.7 1020.51C1154.93 1106.6 1126.21 1187.74 1092.54 1263.94L1068.77 1248.35 1062.08 1237.96C1095.26 1171.66 1114.33 1109.32 1119.28 1050.94L1125.22 929.223 1152.7 916.607 1129.68 906.959 1137.1 892.115 1207.67 849.812C1180.93 859.213 1154.19 864.408 1127.45 865.398L1154.93 853.523 1143.05 855.75 1226.98 827.548 1237.38 780.05 1115.56 797.119 1113.33 788.214C1144.53 781.781 1172.51 767.433 1197.27 745.169L1221.78 722.903C1216.33 697.67 1206.92 675.654 1193.55 656.851M850.397 703.607 808.059 716.224 816.972 691.733 825.143 684.312 832.57 683.569 819.201 665.015C838.017 664.025 854.358 671.201 868.223 686.538L886.792 711.029C889.763 717.956 890.011 725.625 887.535 734.036L885.306 740.715 874.908 737.747C876.393 721.914 870.451 710.039 857.082 702.123L850.397 703.607M805.831 716.966 802.117 718.451 794.69 721.419 785.033 725.13 780.577 734.778 767.95 731.81 753.838 737.747 751.609 764.464 739.725 751.106 736.011 745.911 701.102 762.98C676.342 778.813 649.603 791.924 620.883 802.314 598.105 811.221 574.832 813.941 551.063 810.478L531.009 806.767C526.552 817.652 520.858 828.785 513.925 840.165L506.498 850.555 493.128 849.812C510.459 825.569 522.344 798.851 528.78 769.66L531.752 756.301 547.35 745.169C555.768 753.579 561.71 763.475 565.176 774.855L568.89 788.214 611.227 764.464 611.227 785.987C639.947 770.154 666.44 750.858 690.703 728.099L719.671 705.092 716.699 671.695 713.728 655.367 714.471 653.883 754.58 731.067C748.143 707.318 746.41 682.333 749.381 656.109 767.702 676.396 779.586 699.403 785.033 725.13L793.947 696.928 801.374 712.513 805.831 716.966M403.254 748.137 386.17 735.52 383.942 734.036 386.17 731.067 396.569 716.966 405.482 725.13 405.482 725.872 403.254 743.684 403.254 748.137M990.036 731.81 966.268 685.796 967.01 679.116 979.637 686.538 1007.86 714.74 1031.63 715.482 1050.94 739.973 1053.17 685.054C1053.67 662.789 1055.4 667.242 1058.37 698.412L1064.31 745.911 1065.05 748.137 1065.05 750.364 1072.48 749.621 1083.62 757.043C1089.07 768.918 1092.04 781.04 1092.54 793.409 1093.03 809.736 1090.06 826.063 1083.62 842.391L1071 868.366 1062.08 865.398C1070.5 844.617 1075.7 822.105 1077.68 797.862L1077.68 787.471 1067.28 774.855 1059.11 776.339 1045.74 760.754 1027.92 759.269 1024.95 739.973 1017.52 765.949 1006.38 766.691 998.949 746.652 990.036 731.81M954.383 737.747 941.014 698.412 958.097 707.318 954.383 737.747M1014.55 1236.48 1021.97 1228.31 1079.17 1274.33 1077.68 1275.81 1064.31 1285.46 1020.49 1252.8 1007.12 1243.16 1013.06 1237.96 1014.55 1236.48M983.351 1260.23 1001.18 1248.35 1015.29 1260.23 1053.17 1292.14 1032.37 1304.01 983.351 1260.23M581.517 469.086 515.411 495.803C550.073 474.033 587.459 454.243 627.568 436.431 664.706 419.609 702.835 404.518 741.953 391.159L788.005 380.769 764.979 391.159C726.355 408.477 686.989 425.051 646.88 440.884L581.517 469.086M440.392 816.416C446.829 781.287 464.408 753.332 493.128 732.552L495.356 738.489C501.793 764.712 500.307 791.43 490.9 818.642L481.987 792.667 467.131 785.245C466.14 805.531 458.961 819.879 445.591 828.29L442.62 825.321C440.144 821.858 439.401 818.889 440.392 816.416" fill="#DDDDDD" fill-rule="evenodd"/><path d="M376.634 741.01 374.407 740.267C380.84 715.51 393.214 693.229 411.525 673.425L418.206 665.998C386.037 671.939 359.808 686.051 339.517 708.331L314.277 734.326 289.779 771.46C284.831 758.092 283.592 743.733 286.068 728.384L248.208 760.32 248.95 758.834 237.815 768.49C222.968 780.373 214.06 794.731 211.09 811.566L209.606 813.051 208.863 815.279C206.388 817.26 203.667 817.26 200.697 815.279 197.233 809.833 195.996 803.891 196.986 797.455L199.213 791.513 194.016 784.829 197.728 774.431 200.697 772.203 200.697 761.805 200.697 758.834 202.925 757.349 204.409 756.606 208.863 755.864C211.833 753.388 212.823 750.17 211.833 746.209L211.09 741.752 217.772 733.583 218.514 732.098 218.514 730.612 218.514 729.127C234.846 709.322 254.641 693.972 277.902 683.08L279.387 679.366C289.779 654.115 304.132 630.596 322.443 608.81L341.744 584.301C359.066 561.526 378.119 540.73 398.905 521.915L452.354 476.61 508.03 435.019 566.675 400.855 629.033 372.633 674.316 360.007 735.189 345.896 776.018 337.727 812.393 334.013 823.529 334.013 885.143 346.639 920.776 354.808 920.776 370.405 757.459 434.277 920.776 396.4 920.776 458.043 913.353 461.014 905.187 463.984 915.58 461.757 733.704 533.055C795.567 514.24 857.924 498.149 920.776 484.78L920.776 657.085 1193.22 657.085C1206.58 675.901 1215.98 697.934 1221.43 723.185L1196.93 745.466C1172.18 767.747 1144.22 782.106 1113.04 788.542L1115.27 797.455 1237.02 780.373 1226.62 827.905 1142.74 856.128 1154.62 853.9 1127.15 865.783C1153.87 864.792 1180.6 859.593 1207.32 850.186L1136.8 892.519 1129.38 907.373 1152.39 917.029 1124.92 929.654 1118.98 1051.46C1114.03 1109.88 1094.98 1172.27 1061.82 1238.62L1068.5 1249.01 1027.67 1221.53C1038.07 1209.16 1046.23 1195.54 1052.17 1180.69 1061.57 1157.41 1068.01 1133.65 1071.47 1109.39L1071.47 1107.9 1089.29 977.187 1094.49 919.257 1095.23 901.432 1090.77 904.403 1086.32 903.66 1084.84 902.175C1083.84 898.709 1084.34 895.49 1086.32 892.519L1087.8 889.549 1084.84 882.865 1082.61 879.894 1085.58 866.525 1087.06 863.554 1086.32 862.069 1084.84 860.583 1070.73 868.753 1083.35 842.759C1089.78 826.42 1092.75 810.081 1092.26 793.741 1091.76 781.363 1088.8 769.232 1083.35 757.349L1072.22 749.922 1064.79 750.665 1064.79 748.437 1064.05 746.209 1058.11 698.676C1055.14 667.483 1053.41 663.027 1052.91 685.308L1050.69 740.267 1031.39 715.758 1007.63 715.016 979.422 686.793 966.802 679.366 966.06 686.051 989.815 732.098 986.845 731.355 978.679 720.957C970.266 715.016 963.585 708.826 958.636 702.39L957.894 701.647 955.667 700.904 954.924 700.904 955.667 701.647 957.894 707.589 940.82 698.676 954.182 738.039C947.253 737.049 941.809 733.583 937.85 727.641L928.2 715.016C930.674 729.869 927.952 742.743 920.034 753.635L915.58 755.121C906.177 752.645 900.485 746.209 898.506 735.811L897.764 726.156 896.279 717.986 893.309 715.016 887.37 709.817 886.628 709.817 886.628 711.302 868.069 686.793C854.212 671.445 837.881 664.264 819.074 665.255L832.437 683.822 825.013 684.565 816.847 691.992 807.939 716.501 805.712 717.244 801.258 712.787 793.834 697.191 784.926 725.413C779.482 699.667 767.605 676.643 749.294 656.343 746.324 682.585 748.056 707.589 754.49 731.355L714.403 654.115 713.661 655.6 716.63 671.939 719.6 705.36 690.648 728.384C666.398 751.16 639.92 770.47 611.217 786.314L611.217 764.776 568.903 788.542 565.191 775.174C561.727 763.786 555.788 753.883 547.375 745.466L531.785 756.606 528.816 769.975C522.383 799.188 510.505 825.925 493.183 850.186 493.677 839.293 492.935 828.896 490.956 818.993 500.359 791.761 501.843 765.024 495.41 738.782L493.183 732.84C464.479 753.635 446.91 781.61 440.476 816.765 440.476 800.425 438.001 784.334 433.053 768.49L433.053 767.747 428.599 758.834 427.114 764.034 421.918 786.314 418.948 794.484C414.494 797.95 410.534 797.207 407.07 792.256L406.328 778.145 407.07 775.917 403.359 748.437 403.359 743.981 405.586 726.156 405.586 725.413 396.678 717.244 386.285 731.355 384.058 734.326 381.088 738.782C379.604 740.267 378.119 741.01 376.634 741.01M581.523 469.184 646.849 440.961C686.936 425.117 726.281 408.531 764.883 391.201L787.896 380.803 741.87 391.201C702.774 404.569 664.666 419.671 627.548 436.505 587.462 454.33 550.096 474.134 515.453 495.92L581.523 469.184" fill="#FFFFFF" fill-rule="evenodd"/><path d="M1210.63 404.803C1205.18 392.44 1195.28 384.527 1180.92 381.065L1168.3 379.582 1141.57 375.131 1157.9 364.004 1162.36 362.521 1171.27 353.619C1170.28 349.168 1167.81 347.191 1163.84 347.685L1163.1 347.685 1117.8 364.004 1114.83 352.135 1108.89 349.91 1108.15 348.427C1102.7 340.514 1095.53 336.064 1086.61 335.074L1085.13 335.816 1079.93 346.201 1092.56 359.553 1095.53 372.164 1045.77 361.779 1011.61 353.619 977.453 346.201 921.016 341.75 921.016 329.882 977.453 332.849 1011.61 336.558 1065.82 344.718 1083.64 318.013 1097.75 322.464 1108.15 329.14 1128.94 343.234 1174.98 332.849 1184.64 347.685 1182.41 363.262 1195.78 371.422 1215.08 389.967 1225.48 408.512 1195.78 418.897 1247.01 471.564C1265.83 492.335 1283.65 520.275 1300.48 555.387 1314.84 585.059 1322.02 618.933 1322.02 657.013L1304.94 657.013 1304.19 625.116C1301.22 577.147 1289.84 540.303 1270.03 514.588L1249.99 490.109C1221.77 458.46 1189.09 432.497 1151.96 412.221L1208.4 410.737 1210.63 404.803" fill="#999999" fill-rule="evenodd"/><path d="M1163.43 347.626 1164.17 347.626C1168.14 347.132 1170.61 349.11 1171.61 353.562L1162.68 362.465 1158.22 363.949 1141.86 375.077 1168.63 379.529 1181.27 381.013C1195.65 384.475 1205.56 392.39 1211.02 404.755L1130.71 373.594 1163.43 347.626M1085.35 335.755 1086.84 335.013C1095.76 336.003 1102.95 340.454 1108.4 348.368L1109.14 349.852 1115.09 352.078 1103.94 357.271 1085.35 335.755M921.016 370.626 921.016 355.045 955.965 356.529 921.016 370.626M921.016 458.174 921.016 396.594 941.837 391.4 954.478 391.4 954.478 403.271 1005.04 392.884 993.888 404.755C972.572 427.507 948.281 445.314 921.016 458.174M921.016 484.884 1100.97 453.723 1016.2 513.819 1024.38 521.981 1107.66 510.852 1092.79 520.497 1089.81 532.368 1108.4 533.852C1123.27 533.852 1138.89 530.142 1155.25 522.723L1019.17 628.077 1026.61 631.045 1165.66 600.626 1145.58 613.239C1164.91 625.11 1181.02 639.701 1193.91 657.013L921.016 657.013 921.016 484.884" fill="#FFFFFF" fill-rule="evenodd"/><path d="M1210.69 404.172 1208.46 410.122 1152.01 411.609C1189.15 431.936 1221.83 457.963 1250.05 489.692L1270.11 514.232C1289.91 540.012 1301.3 576.947 1304.27 625.036L1305.02 657.013 1193.6 657.013C1180.73 639.661 1164.64 625.036 1145.33 613.138L1165.38 600.496 1026.49 630.985 1019.06 628.011 1154.98 522.413C1138.64 529.849 1123.04 533.567 1108.19 533.567L1089.62 532.08 1092.59 520.182 1107.45 510.514 1024.26 521.669 1016.09 513.489 1100.76 453.253 921.016 484.487 921.016 457.715C948.25 444.825 972.514 426.977 993.806 404.172L1004.95 392.274 954.44 402.685 954.44 390.787 941.813 390.787 921.016 395.992 921.016 369.964 955.925 355.835 921.016 354.348 921.016 340.962 977.465 345.424 1011.63 352.861 1045.8 361.041 1095.56 371.452 1092.59 358.81 1079.96 345.424 1085.16 335.013 1103.73 356.579 1114.87 351.373 1117.84 363.272 1163.15 346.912 1130.47 372.939 1210.69 404.172" fill="#DDDDDD" fill-rule="evenodd"/></g></svg>