<svg width="1761" height="1761" xmlns="http://www.w3.org/2000/svg" xmlns:xlink="http://www.w3.org/1999/xlink" overflow="hidden"><defs><clipPath id="clip0"><rect x="0" y="0" width="1761" height="1761"/></clipPath></defs><g clip-path="url(#clip0)"><path d="M967.356 1069.96 967.414 1076.69 966.496 1081.06 965.989 1074.47ZM348.939 890.609 310.395 923.419C253.149 975.922 204.728 1037.26 165.133 1107.42L128.639 1179.73 128.639 1179.73 165.133 1107.42C204.729 1037.26 253.149 975.922 310.395 923.419L348.939 890.61ZM231.681 866.859 204.859 902.31 204.858 902.311ZM381.177 826.241 373.813 840.323 364.167 866.681 364.167 866.681 373.813 840.323 381.177 826.242ZM1419.5 711.153 1450.31 744.43 1500.4 804.57 1450.31 772.353C1410.95 749.442 1369.71 730.827 1326.6 716.508L1318.8 714.209 1318.8 714.209 1326.6 716.508C1369.71 730.827 1410.95 749.442 1450.31 772.353L1500.4 804.57 1533.31 847.528 1542.62 860.415 1542.62 861.131 1542.62 861.131 1542.62 860.415 1533.31 847.527 1500.4 804.57 1450.31 744.43ZM1332.33 698.408 1342.97 706.483 1342.97 706.484 1332.33 698.408ZM1378.75 667.824 1387.34 676.415 1387.34 676.415 1378.75 667.824ZM1398.79 637.037 1403.08 637.753 1541.18 669.255 1541.19 669.255 1403.08 637.753 1398.79 637.037ZM1397.35 636.321 1398.07 637.037 1398.07 637.037 1397.35 636.321ZM1398.49 586.699 1385.19 590.5 1381.79 591.945 1385.19 590.5ZM317.949 583.999 310.395 591.932 305.02 598.555 310.396 591.932ZM1450.31 536.803C1435.04 537.997 1419.84 540.085 1404.69 543.068L1359.43 554.702 1359.43 554.702 1404.69 543.068C1419.84 540.085 1435.04 537.997 1450.31 536.803L1569.09 545.395 1457.61 570.257 1569.09 545.395 1582.69 548.974 1582.69 548.974 1569.09 545.394ZM361 489.619 354.045 497.426 354.046 497.426ZM865.925 476.641 865.925 476.642 869.26 490.266 869.26 490.266ZM1205.03 407.617 1205.03 407.617 1202.33 411.021 1202.33 411.022ZM327.569 407.216 327.565 407.218 208.971 463.024ZM292.503 407.059 267.461 431.558 267.461 431.558ZM442.061 398.624 388.731 442.178 442.061 398.624ZM296.799 389.317 299.662 400.056 299.662 400.056ZM1473.21 385.737 1450.31 393.612C1414.05 406.976 1379.47 423.922 1346.55 444.445L1332.24 453.752 1323.65 459.48 1320.12 461.602 1320.07 461.628 1320.07 461.628 1320.12 461.602 1323.65 459.481 1323.65 459.48 1332.24 453.753 1346.55 444.445C1379.46 423.922 1414.05 406.976 1450.31 393.613L1473.2 385.737ZM1228.73 382.137 1214.17 396.118 1205.26 407.33 1205.26 407.329 1214.17 396.118ZM258.977 379.395 196.977 429.947C176.225 448.204 156.308 467.117 137.226 486.687L113.806 514.063 113.806 514.063 137.226 486.687C156.308 467.117 176.225 448.204 196.977 429.948L258.978 379.395ZM152.722 363.914 146.528 367.122 136.51 372.133 136.511 372.133 146.529 367.122 152.721 363.915ZM549.074 316.932 619.661 341.819 619.662 341.819ZM814.16 304.834 852.085 420.103 852.18 423.019 852.18 423.02 852.086 420.103 852.086 420.102ZM672.238 296.479 703.246 320.585 703.246 320.585ZM1010.23 288.367 998.063 380.009 1010.23 288.367ZM1346.01 281.386 1342.64 283.865 1346.01 281.386ZM479.271 280.491 547.251 316.289 547.251 316.289 479.271 280.491ZM1165.51 271.9 1165.51 271.9 1165.51 271.9 1175.53 290.515 1175.53 290.515ZM1161.21 264.025 1166.22 264.74 1165.78 269.197 1166.22 264.74ZM420.765 262.099 390.821 269.371 390.821 269.372 420.765 262.1ZM433.474 259.013 432.035 259.362 432.035 259.362 433.474 259.013ZM495.73 255.433 447.194 274.238 447.195 274.238ZM749.759 254.717 933.441 365.823 749.759 254.717ZM677.485 246.842 684.588 251.674 677.486 246.842ZM1427.41 227.511 1194.85 331.324 1180.53 300.538 1176.96 292.663 1175.53 291.23 1175.53 291.231 1176.96 292.663 1175.53 293.379 1175.53 293.379 1176.96 292.663 1180.53 300.538 1194.85 331.325 1427.41 227.511ZM905.754 188.133 905.754 188.133 954.526 234.018ZM944.379 167.484 987.508 189.207C1013.39 203.287 1038.85 218.203 1063.9 233.954L1063.9 233.955 1073.91 240.398 1073.91 240.398 1083.22 246.842 1083.22 246.841 1073.91 240.398 1063.9 233.954C1038.85 218.203 1013.39 203.287 987.508 189.207ZM1096.1 162.359 1084.65 233.238 1083.37 245.376 1084.65 233.238 1077.49 361.394 1077.49 361.395 1084.65 233.238 1096.1 162.359 1096.1 162.359 1118.41 181.868 1125.31 190.702 1118.41 181.868C1111.65 174.709 1104.21 168.205 1096.1 162.359ZM814.876 141.596 818.897 145.718 962.284 292.662 962.284 292.663 818.897 145.718 814.876 141.596ZM828.368 131.495 835.449 135.51 835.449 135.51ZM844.93 122.265 844.93 122.265 869.975 131.572ZM767.576 95.2478 844.93 122.981 844.93 122.981ZM759.06 92.195 798.325 149.884 759.061 92.1953ZM756.198 90.763 756.199 90.7633 757.629 91.4792 757.63 91.4792ZM726.145 70.0001C858.287 105.798 973.257 156.631 1071.05 222.499L1083.93 143.028 1104.68 149.471 1113.27 154.483C1157.64 199.349 1187.93 251.614 1204.15 311.278 1281.91 271.184 1363.72 237.773 1449.59 211.044 1418.11 283.594 1382.57 355.906 1342.97 427.978L1425.26 386.453 1440.29 379.293 1450.31 375.713C1468.44 369.509 1480.84 373.566 1487.52 387.885L1393.06 531.791 1431.7 524.632 1450.31 523.2 1453.17 522.484C1505.65 514.37 1553.59 522.723 1597 547.542L1441 632.025 1552.63 660.664 1551.92 676.415 1422.4 692.165 1557.64 856.835 1551.92 872.586 1421.68 816.741C1428.36 850.152 1437.9 883.086 1450.31 915.543L1468.94 956.641 1481.84 980.069C1491.83 997.431 1502.78 1015.78 1514.71 1035.11L1512.18 1035.32 1515.42 1040.84 1479.65 1042.27 1477.71 1038.24 1463.9 1039.4 1519.72 1234.86C1439.1 1186.65 1371.35 1133.91 1316.49 1076.63 1329.85 1175.91 1318.88 1274 1283.58 1370.89L1217.03 1084.51C1186.5 1311.71 1132.83 1496.66 1056.02 1639.37L1042.43 1663 1044.58 1655.84 1046.01 1639.37 1056.02 1539.14C1067 1441.77 1069.14 1305.98 1062.47 1131.76 1052.45 1177.11 1035.51 1206.7 1011.66 1220.54L1022.39 1039.4 970.156 1116.73 969.748 1068.68 984.474 1020.09C1008.8 949.927 1013.57 880.24 998.785 811.031L998.07 803.872C990.914 722.253 955.136 660.92 890.734 619.871L890.018 619.871 882.147 614.143 854.955 600.541 852.093 599.109 838.497 593.381 813.452 582.641C754.416 560.447 695.113 548.992 635.541 548.276 615.684 548.037 595.797 548.992 575.88 551.139L575.165 551.139 573.733 551.856 573.018 551.856C550.12 551.856 528.413 556.151 507.901 564.743L479.993 571.187 471.406 573.334 464.966 575.482 462.104 576.914 466.397 579.062 467.113 579.062 467.113 579.778 474.269 583.357 504.323 599.825 412.729 624.167C417.022 629.417 419.169 638.486 419.169 651.373 418.692 668.079 413.205 683.592 402.711 697.911L313.264 827.498C326.621 810.316 343.557 801.247 364.07 800.292 373.133 800.292 378.381 804.588 379.812 813.179 386.492 844.681 386.492 876.899 379.812 909.833L365.501 975.701 365.501 976.417C364.964 999.685 366.407 1023.69 369.828 1048.44L375.709 1081.92 371.934 1094.53 371.934 1094.53 375.709 1081.93 376.444 1086.11 379.499 1098.47 373.351 1116.57 356.907 1065.85C341.88 1011.71 335.44 960.649 337.587 912.679 256.488 995.253 187.792 1087.13 131.501 1188.32L125.06 1208.37C97.3924 1068.52 117.428 946.806 185.169 843.232L213.634 803.77 158.693 836.072C134.84 848.005 110.272 858.267 84.9887 866.858L38.4765 881.177C103.832 803.377 145.336 711.973 162.987 606.967L170.858 571.885 12 655.652C50.6411 563.532 111.465 484.062 194.472 417.239L228.819 388.6 116.474 382.157C202.82 312.948 299.185 269.036 405.567 250.421L321.129 161.643 293.221 145.892C473.07 146.847 642.899 159.734 802.711 184.553Z" fill="#DDDDDD" fill-rule="evenodd"/><path d="M1542.61 860.413 1542.61 860.413 1542.61 860.414 1542.61 860.414ZM1500.37 804.551 1500.38 804.553 1500.38 804.553 1500.37 804.551ZM1449.66 772.015 1449.67 772.02 1449.69 772.029 1449.68 772.024 1449.67 772.02 1449.67 772.02ZM1396.79 744.773 1396.8 744.777 1396.81 744.782 1396.8 744.777ZM1382.58 738.36 1382.59 738.364 1382.6 738.368 1382.59 738.363ZM1327.33 716.789 1327.35 716.796 1327.37 716.802 1327.35 716.796ZM1397.37 636.335 1397.37 636.336 1397.37 636.336ZM1569.03 545.402 1569.03 545.402 1569.03 545.402 1569.03 545.402ZM1213.86 396.493 1213.85 396.5 1213.85 396.504 1213.86 396.496ZM1214.53 395.756 1214.53 395.762 1214.53 395.764 1214.53 395.758ZM1166.22 264.754 1166.22 264.754 1166.22 264.754 1166.22 264.754ZM1084.63 233.405 1084.63 233.413 1084.63 233.421 1084.63 233.413ZM726.141 70.0001C858.283 105.798 973.252 156.63 1071.05 222.497L1083.93 143.027 1104.68 149.471 1113.27 154.482C1146.54 188.131 1171.9 225.942 1189.34 267.915L1189.34 267.924 1189.35 267.932 1204.14 311.274 1323.82 256.147C1364.73 239.441 1406.65 224.407 1449.58 211.042L1449.57 211.066 1449.59 211.059C1433.85 247.334 1417.09 283.549 1399.32 319.705L1342.99 427.963 1425.26 386.449 1440.28 379.29 1450.3 375.71C1468.43 369.505 1480.83 373.562 1487.51 387.881L1487.51 387.885 1487.52 387.899 1393.08 531.782 1431.7 524.627 1450.3 523.195 1453.16 522.479C1505.64 514.365 1553.58 522.719 1596.99 547.537L1596.98 547.544 1597 547.554 1441.02 632.026 1552.63 660.657 1552.63 660.672 1552.63 660.674 1551.92 676.425 1422.41 692.175 1557.64 856.826 1557.63 856.832 1557.64 856.843 1551.92 872.594 1421.68 816.75C1425.02 833.456 1429.08 850.042 1433.85 866.508L1450.31 915.545 1468.93 956.631 1481.83 980.058C1491.82 997.42 1502.78 1015.77 1514.7 1035.1L1514.7 1035.1 1514.71 1035.11 1512.19 1035.33 1515.42 1040.82 1515.41 1040.82 1515.43 1040.84 1479.65 1042.27 1477.71 1038.24 1463.9 1039.41 1519.72 1234.86C1439.1 1186.66 1371.36 1133.92 1316.5 1076.64 1329.85 1175.92 1318.88 1274 1283.58 1370.89L1283.57 1370.87 1283.57 1370.88 1217.03 1084.52 1204.5 1167.73C1172.72 1357.29 1123.23 1514.5 1056.03 1639.37L1042.43 1663 1042.45 1662.94 1042.42 1662.98 1044.57 1655.82 1046 1639.36 1056.02 1539.12C1065.62 1453.93 1068.46 1339.31 1064.55 1195.28L1062.46 1131.79 1053.66 1162.82C1043.55 1190.92 1029.55 1210.16 1011.66 1220.54L1011.66 1220.52 1011.65 1220.53 1022.39 1039.42 979.183 1103.37 979.301 1100.82C979.71 1090.31 980.12 1088.95 979.301 1074.61 978.482 1060.28 975.753 1038.3 974.389 1014.82 973.024 991.334 971.796 954.064 971.114 933.723 970.432 913.381 970.295 892.767 970.295 892.767 968.658 892.903 968.249 908.74 961.29 934.542 954.331 960.344 936.319 1022.46 928.542 1047.58 924.653 1060.14 922.333 1066.42 920.406 1071.13L919.577 1073.09 921.276 1057.04 925.868 1037.02 925.868 1037.02 921.275 1057.04 919.577 1073.09 917.662 1077.61C916.748 1079.77 915.784 1082.12 914.624 1085.26L914.624 1078.71C914.624 1078.71 915.579 1078.3 914.624 1065.6 913.669 1052.91 911.213 1022.6 908.893 1002.53 906.574 982.461 905.209 967.444 900.706 945.191 896.204 922.938 887.743 892.903 881.876 869.012 876.009 845.121 870.005 820.138 865.502 801.844 861 783.55 858.407 773.448 854.859 759.249 854.996 755.768 855.132 752.287 847.491 778.089 839.85 803.891 820.883 871.196 809.012 914.064 797.141 956.931 785.27 1007.99 776.265 1035.29 767.259 1062.6 762.074 1063.69 754.978 1077.89 751.294 1074.54 747.61 1071.2 743.517 1048.4 739.423 1025.6 733.692 976.454 730.418 941.095 727.143 905.736 726.597 858.636 723.868 836.247 721.139 813.858 717.318 816.588 714.044 806.759L722.231 763.345C724.345 758.908 726.461 754.471 716.5 769.079 706.539 783.687 678.976 817.271 662.466 850.991 645.955 884.712 627.671 934.405 617.438 971.402 607.204 1008.4 603.656 1045.94 601.063 1072.97 598.471 1100 601.882 1133.59 601.882 1133.59 592.74 1134.54 563.54 1102.19 546.211 1078.71 528.882 1055.23 508.96 1017.27 497.908 992.7 486.855 968.126 483.308 948.604 479.897 931.265 476.485 913.927 478.259 902.869 477.441 888.671 470.822 897.067 464.205 905.463 450.423 931.265 436.642 957.068 408.67 1011.13 394.752 1043.49 387.794 1059.66 382.915 1074.68 378.737 1088.38L371.499 1111.05 368.8 1102.76 368.597 1101.9 356.906 1065.84C353.149 1052.3 349.929 1038.96 347.246 1025.81L345.951 1018 344.748 1012.74 343.686 1004.32 340.806 986.938 339.365 970.073 338.307 961.685 338.237 956.856 337.585 949.225 337.585 912.694 279.094 976.362C222.921 1041.78 173.725 1112.44 131.507 1188.33L125.066 1208.37 125.062 1208.35 125.06 1208.36C97.392 1068.51 117.428 946.796 185.168 843.223L213.606 803.799 158.699 836.081C134.846 848.013 110.278 858.275 84.9949 866.867L38.483 881.185 38.5014 881.16 38.4765 881.168C103.832 803.368 145.336 711.966 162.986 606.961L170.852 571.903 12.0065 655.662 12.0202 655.635 12 655.646C50.6411 563.527 111.465 484.057 194.471 417.235L228.8 388.613 116.48 382.17 116.502 382.155 116.473 382.153C181.232 330.247 251.627 292.57 327.657 269.123L405.557 250.421 321.134 161.659 293.226 145.908 293.251 145.908 293.22 145.891C428.106 146.607 557.356 154.035 680.971 168.175L802.702 184.551 726.148 70.0171 726.154 70.0189Z" fill="#DDDDDD" fill-rule="evenodd"/><path d="M1073.92 240.588 1063.9 234.862 1063.9 234.147 1073.92 240.588M759.093 92.4314C812.04 118.198 860.934 150.166 905.771 188.34L1001.65 278.521 937.969 368.704C875.005 330.53 812.279 292.597 749.791 254.903L906.487 314.309 915.788 303.572 892.892 235.577 962.296 292.836 814.902 141.817 894.323 276.374 578.069 188.34 592.379 201.939 450.709 184.045 439.976 215.537 703.283 320.75 603.828 243.45 695.413 259.197 677.525 247.03 706.861 239.872 698.99 235.577 716.162 242.02 798.446 347.232 525.837 290.689 500.079 274.943 511.527 265.638 495.786 255.618 327.642 320.75 547.302 316.455 622.431 342.938 618.854 343.653 488.631 391.607 680.387 373.714 571.631 462.464C677.048 417.134 741.205 400.911 764.101 413.794 786.521 426.201 821.58 451.728 869.28 490.378L852.108 420.236 814.187 305.004 950.133 438.845 998.073 380.155 1010.24 288.542 1077.49 361.546 1084.65 233.43 1096.1 162.574C1117.09 216.491 1128.77 271.604 1131.16 327.907 1134.02 388.028 1127.1 446.241 1110.41 502.545L1103.25 529.743C1151.43 501.59 1203.9 482.744 1260.66 473.2L1271.4 476.063 1150.48 560.519 1342.95 706.529 1072.49 545.489 1134.73 760.209C1097.05 728.716 1056.5 701.518 1013.1 678.615 957.764 650.94 899.808 634.001 839.229 627.798L685.396 607.042C624.338 601.793 563.52 606.087 502.941 619.925L432.106 543.342C458.34 498.967 493.879 463.419 538.716 436.698 447.608 466.758 371.527 518.53 310.47 592.011 241.781 674.082 175.479 758.3 111.559 844.665L58.6118 869C118.238 798.381 156.16 715.117 172.378 619.21L185.972 565.529 261.1 487.515C207.676 498.012 156.876 523.062 108.698 562.667L35.0001 622.788C65.0513 571.255 99.1568 525.925 137.317 486.799 175.479 447.673 216.978 411.171 261.816 377.292L359.84 340.075 146.62 367.272 207.437 335.78C279.464 301.426 354.831 275.897 433.537 259.197L332.651 156.847C513.435 163.049 682.057 180.466 838.514 209.096L759.093 92.4314M1542.57 860.411 1543.29 861.127 1544 861.842 1542.57 861.127 1542.57 860.411M757.662 91.7159 756.946 91.7159 756.231 91.0001 757.662 91.7159M296.876 389.46 171.662 470.337 170.947 481.073 327.642 407.353 267.54 431.688 299.738 400.196 296.876 389.46M397.762 356.536 299.738 463.896 526.554 342.938 397.762 356.536M189.55 660.006 172.378 712.97 215.308 661.438C289.72 572.687 372.719 492.525 464.304 420.952L354.116 497.535 442.123 398.764 204.575 592.727 212.446 613.483 174.524 660.722 189.55 660.006" fill="#DDDDDD" fill-rule="evenodd"/><path d="M1063.87 233.806 1063.87 234.523 1073.89 240.252 1083.19 246.698 1084.62 233.09 1077.46 361.289 1010.21 288.237 998.045 379.91 950.107 438.639 814.165 304.71 792.7 311.872 812.018 360.573 740.47 378.478 786.976 390.653 852.801 442.219 852.086 420.017 869.257 490.205C821.558 451.53 786.5 425.986 764.081 413.572 741.185 400.68 677.03 416.913 571.615 462.273L680.369 373.465 488.618 391.369 618.836 343.384 622.414 342.668 547.288 316.169 479.317 280.359 525.823 290.386 798.424 346.966 716.143 241.685 704.695 227.361 749.771 254.576C812.257 292.295 874.981 330.254 937.944 368.451L1001.62 278.211 905.747 187.97C860.91 149.773 812.018 117.783 759.073 92.0001L844.931 122.797 844.931 122.081 869.973 131.391 908.609 149.295C962.031 174.124 1013.79 202.294 1063.87 233.806M1134.7 760.21 1072.46 545.352 1342.91 706.495 1150.44 560.391 1271.36 475.881 1260.63 473.016C1203.87 482.566 1151.4 501.425 1103.22 529.594L1110.38 502.379C1127.07 446.04 1133.99 387.789 1131.13 327.628 1128.74 271.288 1117.05 216.141 1096.07 162.187 1128.5 185.582 1150.21 219.482 1161.18 263.887L1166.18 264.603 1165.47 271.765 1162.61 342.668C1162.61 385.163 1157.6 426.224 1147.58 465.854L1145.44 470.151C1143.05 474.448 1142.1 478.506 1142.57 482.326L1146.15 481.61C1187.65 421.45 1236.78 367.496 1293.54 319.75 1326.93 291.579 1363.42 268.423 1403.01 250.279L1405.16 248.847 1420.9 242.401 1320.01 461.557 1323.59 459.408 1266.35 567.554 1359.37 554.661C1389.42 545.113 1419.71 539.144 1450.23 536.757L1569 545.352 1450.23 571.851 1385.12 590.471C1346.96 602.409 1315.01 620.312 1289.25 644.186 1305.47 654.212 1323.11 661.852 1342.19 667.104L1341.48 667.104C1355.31 672.356 1370.57 675.46 1387.27 676.415L1450.23 744.453 1500.32 804.614 1450.23 772.385C1397.76 741.827 1341.95 718.909 1282.81 703.63L1282.09 702.914 1242.03 697.184 1238.45 697.901 1236.3 698.617 1234.16 699.333 1232.72 702.914 1237.02 709.36 1230.58 705.778 1228.43 707.211C1278.99 745.408 1332.65 780.74 1389.42 813.208 1390.85 865.251 1383.45 916.579 1367.24 967.189 1357.7 997.747 1344.82 1027.35 1328.6 1056L1312.14 1044.54C1309.76 1013.03 1301.17 983.185 1286.39 955.015 1248.7 881.486 1198.14 816.55 1134.7 760.21M1175.49 291.102 1176.92 292.534 1175.49 293.251 1175.49 291.102M1397.29 636.308 1403.01 637.74 1398.72 637.024 1398 637.024 1397.29 636.308M1474.56 680.712 1450.23 680.712 1410.88 676.415 1416.6 675.698 1450.23 676.415 1467.4 679.279 1474.56 680.712M502.928 619.835C468.584 629.384 435.196 641.56 402.76 656.361 345.997 683.099 292.814 716.044 243.207 755.196L228.181 766.655 111.558 844.721C175.475 758.3 241.776 674.027 310.462 591.903 371.518 518.374 447.596 466.57 538.702 436.49 493.866 463.228 458.329 498.799 432.095 543.203L502.928 619.835M185.968 565.405 195.269 546.068 35.0001 622.7 108.695 562.541C156.871 522.909 207.671 497.843 261.094 487.34L185.968 565.405M261.809 377.046 262.525 376.329 263.956 374.897 136.599 372.032 146.616 367.019 359.831 339.803 261.809 377.046M1242.03 712.224 1239.16 710.792 1242.03 711.508 1242.03 712.224M397.752 356.276 526.539 342.668 299.73 463.705 397.752 356.276" fill="#AAAAAA" fill-rule="evenodd"/><path d="M830.142 560.991 843.995 566.826 846.911 568.284 874.615 582.144 882.635 587.978 883.364 587.978C948.982 629.798 985.435 692.286 992.726 775.439L993.455 782.734C1008.52 853.244 1003.66 924.241 978.873 995.724 965.751 1033.17 956.028 1071.1 949.71 1109.51L938.045 1140.15 935.129 1123.37C926.38 1011.53 905.48 905.277 872.429 804.615L776.19 1152.55C742.652 1033.9 727.827 918.649 731.716 806.804 659.295 911.356 623.084 1028.06 623.084 1156.93L623.084 1181 621.626 1179.54C538.996 1110 493.794 1028.06 486.017 933.723 449.564 997.911 418.214 1065.02 391.967 1135.04L386.863 1156.93C359.644 1083.01 346.763 1014.44 348.222 951.229L348.222 950.5 362.804 883.393C369.608 849.84 369.608 817.015 362.804 784.922 361.345 776.167 355.999 771.793 346.763 771.793 325.864 772.765 308.608 782.004 295 799.509L386.134 667.485C396.827 652.896 402.418 637.094 402.903 620.073 402.903 606.942 400.716 597.705 396.34 592.355L489.662 567.555 459.042 550.778 451.75 547.131 451.75 546.402 451.022 546.402 446.648 544.213 449.564 542.754 450.293 544.213 449.564 542.754 456.126 540.567 464.875 538.378 493.309 531.814C514.208 523.061 536.323 518.683 559.654 518.683L560.384 518.683 561.842 517.954 562.57 517.954C643.742 509.201 724.426 519.899 804.624 550.049L830.142 560.991" fill="#000000" fill-rule="evenodd" fill-opacity="0.25098"/><path d="M852.6 420.404 853.314 442.577 787.499 391.078 741 378.919 812.537 361.038 793.222 312.4 814.684 305.248 852.6 420.404M1165.94 272.346 1175.95 290.943 1175.95 291.658 1175.95 293.804 1177.38 293.088 1180.96 300.956 1195.27 331.712 1427.77 228 1421.33 243.021 1405.59 249.458 1403.44 250.889C1363.86 269.009 1327.37 292.134 1293.99 320.268 1237.24 367.951 1188.11 421.835 1146.62 481.916L1143.05 482.63C1142.57 478.816 1143.52 474.763 1145.91 470.472L1148.05 466.18C1158.07 426.602 1163.08 385.595 1163.08 343.156L1165.94 272.346M1324.04 459.743 1332.62 454.021 1346.93 444.723C1379.84 424.219 1414.41 407.29 1450.66 393.94L1473.55 386.072 1359.8 554.871 1266.81 567.745 1324.04 459.743M1569.41 545.573 1583 549.15 1540.08 569.891 1539.36 569.891 1397.72 636.41 1398.43 637.125 1399.15 637.125 1403.44 637.84 1541.51 669.312 1474.98 680.756 1467.83 679.325 1450.66 676.464 1417.03 675.749 1411.31 676.464 1379.12 667.882 1387.7 676.464C1371.01 675.51 1355.75 672.411 1341.92 667.166L1342.64 667.166C1323.56 661.921 1305.91 654.291 1289.7 644.279 1315.45 620.437 1347.4 602.554 1385.56 590.633L1450.66 572.037 1569.41 545.573M1500.73 804.495 1533.64 847.41 1542.94 860.285 1542.94 861 1394.86 794.481 1389.14 798.057 1389.14 798.773 1389.85 813.078C1333.1 780.653 1279.44 745.367 1228.89 707.22L1231.04 705.791 1237.47 709.366 1233.18 702.928 1234.61 699.352 1236.76 698.637 1238.91 697.922 1242.48 697.207 1282.54 702.928 1283.26 703.644C1342.4 718.903 1398.2 741.791 1450.66 772.308L1500.73 804.495M1242.48 712.228 1242.48 711.512 1239.62 710.796 1242.48 712.228" fill="#8E8E8E" fill-rule="evenodd"/><path d="M749.589 255.056 704.531 227.865 715.974 242.176 698.811 235.736 706.677 240.029 677.355 247.185 695.234 259.349 603.69 243.607 703.102 320.885 439.912 215.701 450.64 184.217 592.247 202.106 577.944 188.511 894.057 276.522 814.67 142 962 292.979 892.626 235.736 915.512 303.712 906.215 314.445 749.589 255.056M525.735 290.833 479.247 280.815 547.19 316.592 327.627 320.885 495.697 255.771 511.431 265.789 499.988 275.091 525.735 290.833M296.874 389.577 299.735 400.31 267.551 431.793 327.627 407.465 171 481.165 171.716 470.432 296.874 389.577M189.595 660.05 174.576 660.765 212.481 613.54 204.614 592.789 442.057 398.879 354.089 497.623 464.228 421.06C372.684 492.614 289.722 572.754 215.342 661.481L172.431 713 189.595 660.05" fill="#FFFFFF" fill-rule="evenodd"/><path d="M1104.69 149.456 1113.27 154.466C1157.64 199.324 1187.93 251.579 1204.15 311.231 1281.91 271.145 1363.73 237.741 1449.59 211.016 1418.11 283.553 1382.57 355.851 1342.97 427.909L1425.26 386.392 1440.29 379.234 1450.31 375.655C1468.44 369.451 1480.84 373.507 1487.52 387.824L1393.06 531.702 1431.7 524.545 1450.31 523.114 1453.17 522.396C1505.65 514.284 1553.59 522.636 1597 547.451L1441.01 631.917 1552.64 660.55 1551.92 676.298 1422.4 692.046 1557.65 856.684 1551.92 872.433 1421.69 816.598C1428.37 850.003 1437.91 882.931 1450.31 915.382 1467.01 958.331 1488.71 1000.09 1515.43 1040.65L1479.65 1042.08 1395.21 865.99C1394.73 916.574 1389.25 962.864 1378.75 1004.86L1374.46 1017.74C1364.44 1040.17 1349.89 1057.59 1330.81 1070L1300.75 1052.82 1292.17 1022.75C1276.9 971.691 1254.72 924.925 1225.62 882.454 1173.62 806.577 1106.83 746.687 1025.26 702.783 961.81 669.378 894.306 646.71 822.749 634.78L680.349 623.327 672.478 621.18C563.233 615.453 460.906 640.03 365.495 694.909L274.617 761.481 228.104 795.124C183.261 825.666 135.556 849.526 84.9885 866.706L38.4762 881.022C103.832 803.236 145.337 711.85 162.987 606.863L170.857 571.788 12 655.539C50.6412 563.438 111.466 483.983 194.472 417.172L228.82 388.539 116.475 382.097C202.82 312.902 299.186 268.997 405.567 250.386L321.129 161.625 293.222 145.876C473.07 146.832 642.901 159.716 802.713 184.531L726.146 70.0001C858.289 105.792 973.259 156.615 1071.05 222.469L1083.93 143.014 1104.69 149.456M1063.9 233.922C1013.81 202.426 962.047 174.27 908.618 149.456L869.977 131.56 844.932 122.254 844.932 122.971 759.062 92.1906 838.492 208.868C682.019 180.236 513.38 162.818 332.578 156.615L433.475 258.976C354.761 275.679 279.387 301.209 207.353 335.568L146.528 367.065 136.511 372.075 263.883 374.939 262.452 376.37 261.737 377.086C216.894 410.969 175.391 447.476 137.226 486.607 99.061 525.738 64.9526 571.073 34.8981 622.612L195.188 546.02 185.886 565.346 172.289 619.032C156.07 714.952 118.145 798.226 58.5124 868.853L111.466 844.515 228.104 766.491 243.131 755.038C292.745 715.906 345.935 682.979 402.705 656.255 435.145 641.461 468.538 629.292 502.886 619.748 563.472 605.909 624.296 601.614 685.358 606.863L839.207 627.622C899.792 633.826 957.754 650.767 1013.09 678.445 1056.5 701.352 1097.05 728.553 1134.74 760.049 1198.19 816.36 1248.76 881.261 1286.44 954.751 1301.23 982.907 1309.82 1012.73 1312.2 1044.23L1328.66 1055.68C1344.88 1027.05 1357.76 997.461 1367.3 966.92 1383.52 916.336 1390.92 865.035 1389.49 813.019L1388.77 798.703 1388.77 797.987 1394.49 794.408 1542.62 860.979 1544.05 861.695 1543.33 860.979 1542.62 860.264 1533.32 847.379 1500.4 804.43 1450.31 744.301 1387.34 676.298 1378.75 667.708 1410.95 676.298 1450.31 680.593 1474.64 680.593 1541.19 669.14 1403.08 637.644 1397.36 636.212 1539.04 569.641 1539.76 569.641 1582.69 548.883 1569.1 545.303 1450.31 536.714C1419.78 539.101 1389.49 545.064 1359.43 554.609L1473.21 385.676 1450.31 393.55C1414.05 406.912 1379.47 423.854 1346.55 444.373L1332.24 453.679 1323.65 459.405 1320.07 461.553 1420.97 242.512 1427.41 227.48 1194.85 331.274 1180.54 300.494 1176.96 292.619 1175.53 291.188 1175.53 290.472 1165.51 271.861 1166.23 264.703 1161.22 263.987C1150.24 219.606 1128.54 185.724 1096.1 162.34L1084.65 233.206 1083.22 246.807 1073.92 240.365 1063.9 233.922M757.631 91.4748 756.2 90.7589 756.916 91.4748 757.631 91.4748" fill="#5A5A5A" fill-rule="evenodd"/><path d="M403 333 293.988 368.28C275.462 372.6 257.412 378.839 239.837 387L232 386.28C256.699 371.4 281.876 360.36 307.525 353.16L326.05 347.4 376.638 335.16 403 333" fill="#5A5A5A" fill-rule="evenodd"/><path d="M936.333 540 935 539 937 539 936.333 540" fill="#FFFFFF" fill-rule="evenodd"/><path d="M797.001 766 795.2 773 794 769.889 796.401 766 797.001 766" fill="#E6E6F2" fill-rule="evenodd"/><path d="M620.096 501.675 575.736 500.216C549.502 502.649 524.698 508.243 501.326 517L477 516.27C508.481 501.189 542.585 492.433 579.314 490L648 492.918 627.251 499.486 620.096 501.675" fill="#000000" fill-rule="evenodd" fill-opacity="0.34902"/><path d="M617 567C604.168 574.642 590.86 584.672 577.078 597.09L559.256 617.149 544.998 644.373 527.175 700.253 516.482 759C502.698 721.746 495.333 679.716 494.382 632.911L617 567M425.231 649.388 411.686 700.97C396.954 660.373 395.052 619.776 405.984 579.179L425.944 572.015 425.231 649.388" fill="#000000" fill-rule="evenodd" fill-opacity="0.25098"/><path d="M994.152 524.109 1110.05 594.261 1160.14 611.441 1205.21 671.571C1201.39 645.323 1226.91 670.139 1281.76 746.016 1291.78 735.041 1300.36 734.324 1307.52 743.869L1326.12 766.06C1331.37 771.786 1340.67 765.105 1354.02 746.016 1350.68 757.947 1356.41 767.014 1371.19 773.218 1385.98 778.945 1401.72 804.715 1418.41 850.528 1435.1 896.341 1467.3 957.903 1514.99 1035.21L1464.2 1039.51 1520 1234.93C1439.4 1186.73 1371.67 1134 1316.82 1076.73 1330.17 1175.99 1319.2 1274.06 1283.91 1370.94L1217.37 1084.6C1186.85 1311.76 1133.19 1496.69 1056.4 1639.37L1042.8 1663 1044.95 1655.84 1046.38 1639.37 1056.4 1539.16C1067.37 1441.81 1069.51 1306.04 1062.84 1131.85 1052.82 1177.19 1035.89 1206.77 1012.04 1220.61L1022.77 1039.51 970.542 1116.82C971.018 861.505 955.041 662.98 922.608 521.246L994.152 524.109M648.592 493.328 678.641 482.591 698.673 474 717.99 476.864C729.437 486.885 745.415 495.476 765.925 502.634 754 502.634 741.838 505.974 729.437 512.655L627.844 618.599 606.381 652.242 614.966 585.671 617.827 567.775 494.771 633.631 425.373 671.571 425.373 650.096 426.088 572.786 406.056 579.944 371 591.397 392.463 541.289 445.406 513.371 458.284 514.803C512.657 520.53 566.792 516.235 620.69 501.918L627.844 499.77 648.592 493.328" fill="#5A5A5A" fill-rule="evenodd"/><path d="M984.064 595.926 965.468 505.716 954.74 509.296 965.468 505 994.076 515.024 1022.69 610.245C1009.34 574.925 993.122 541.514 974.051 510.012 971.19 510.489 969.998 511.921 970.475 514.308L984.064 595.926M937.575 516.456 996.937 810.711 996.937 680.408C1018.4 785.414 1022.69 890.181 1009.81 994.71L1009.1 994.71 987.639 1062.72 988.355 1070.6C987.401 1069.64 987.163 1065.83 987.639 1059.14L981.918 948.889 971.19 734.82C967.375 681.362 961.654 636.497 954.025 600.222L934.715 520.035 934 517.887 934.715 517.887 934.715 513.592 936.145 517.172 937.575 516.456M996.222 661.078 993.361 646.043 996.222 660.362 996.222 661.078M1117.09 594.494 1124.96 588.051C1160.72 600.461 1188.14 622.893 1207.21 655.349L1222.23 661.078C1236.06 666.328 1247.74 674.442 1257.27 685.419L1327.36 845.792 1381 964.64C1355.26 935.047 1331.18 903.545 1308.77 870.134L1291.6 845.792 1215.79 739.831 1213.65 746.275 1210.79 739.831 1233.67 845.792C1242.25 883.977 1248.45 922.875 1252.27 962.492L1267.29 1151.5 1273.01 1284.67C1264.9 1247.92 1258.23 1211.16 1252.98 1174.41 1246.31 1124.29 1232.72 1077.04 1212.22 1032.65L1211.5 1024.78 1205.78 991.13 1199.34 949.605 1192.9 908.08 1190.76 895.192 1190.76 894.477 1189.33 883.737 1185.75 865.123 1182.18 845.792 1172.16 794.243 1152.85 709.047C1142.84 670.385 1130.92 632.201 1117.09 594.494M1285.88 1332.64 1285.17 1334.78 1284.45 1332.64 1285.88 1332.64M1072.75 1488 1073.47 1457.93 1077.04 1351.25 1076.33 1210.93 1075.61 1087.78C1081.81 1048.17 1083.24 1007.83 1079.9 966.788L1068.46 845.792 1062.02 793.527 1054.87 741.263 1044.86 684.704 1068.46 766.321 1077.04 769.185 1073.47 708.329 1077.04 701.887 1050.58 593.778 1067.74 641.747 1077.04 605.949 1094.92 972.515 1101.36 988.266 1102.07 977.527 1093.49 624.564C1109.23 683.272 1121.86 742.695 1131.4 802.835L1138.55 845.792 1139.98 865.839 1140.7 894.477 1139.98 923.115 1137.83 968.935 1136.4 1019.77 1134.97 1054.13 1134.26 1069.88 1134.26 1071.31 1133.54 1078.47 1130.68 1124.29 1127.11 1169.4 1122.82 1215.94 1117.09 1263.19 1110.66 1311.16 1102.07 1358.41 1092.78 1404.23 1079.9 1457.93 1072.75 1488M1086.34 598.79 1074.18 575.164 1068.46 614.541 1034.85 541.514 1036.28 562.993 1023.4 526.479 1062.02 545.809 1069.89 549.389 1086.34 598.79M1112.09 845.076 1112.09 845.792 1084.19 1315.45 1095.64 1302.57C1122.34 1151.26 1128.06 999.006 1112.8 845.792L1112.09 845.076" fill="#DDDDDD" fill-rule="evenodd"/><path d="M996.623 680.519 995.906 661.201 995.906 660.485 993.039 646.175 983.721 596.091 970.103 514.523C969.625 512.138 970.82 510.707 973.686 510.23 992.8 541.713 1009.05 575.103 1022.43 610.401L1044.65 684.812 1054.68 741.337 1061.85 793.569 1068.3 845.8 1079.77 966.72C1083.11 1007.74 1081.68 1048.05 1075.47 1087.64L1071.17 998.918 1070.45 991.047 1069.02 972.443 1068.3 991.047C1064 1058.78 1050.14 1125.08 1026.73 1189.95 1027.69 1133.67 1031.75 1078.1 1038.91 1023.24 1045.6 969.821 1045.84 916.874 1039.63 864.403L1028.16 948.833 1021 987.47C1013.83 1015.61 1003.08 1042.8 988.739 1069.04L988.022 1070.47 987.304 1062.6 1008.81 994.625 1009.53 994.625C1022.43 890.161 1018.13 785.46 996.623 680.519M1069.74 549.583 1061.85 515.239 1039.63 451.559C1037.72 447.743 1037 443.45 1037.48 438.68 1024.1 417.691 1014.31 396.466 1008.09 375L1010.96 375 1050.38 431.525 1052.53 434.387 1053.25 435.103 1068.3 470.162 1117.04 594.659C1130.9 632.342 1142.85 670.503 1152.88 709.139 1157.66 778.782 1160.76 849.139 1162.2 920.213 1169.37 987.47 1171.04 1055.68 1167.22 1124.84 1158.61 1261.27 1130.9 1393.16 1084.07 1520.52 1086.46 1526.24 1090.76 1528.15 1096.97 1526.24L1100.56 1519.09 1098.41 1526.96 1073.32 1592.07 1053.97 1635 1056.12 1617.83 1064.72 1565.59 1069.02 1530.53 1072.6 1487.6 1079.77 1457.55 1092.67 1403.89 1101.99 1358.1 1110.59 1310.87 1117.04 1262.94 1122.78 1215.71 1127.08 1169.21 1130.66 1124.13 1133.53 1078.34 1134.24 1071.18 1134.24 1069.75 1134.96 1054.01 1136.39 1019.67 1137.83 968.866 1139.98 923.075 1140.7 894.455 1139.98 865.835 1138.54 845.8 1131.38 802.87C1121.82 742.768 1109.16 683.381 1093.39 624.711L1086.22 598.953 1069.74 549.583M1257.53 685.528C1262.78 683.62 1267.8 686.72 1272.58 694.829L1284.76 717.01 1295.52 719.156 1287.63 719.872 1296.23 722.734 1312.72 760.655C1367.67 869.412 1408.77 983.653 1436 1103.38 1372.93 1033.74 1322.75 955.272 1285.48 867.981L1270.43 868.696C1268.52 882.53 1268.76 895.885 1271.15 908.764 1283.09 972.205 1288.35 1036.6 1286.92 1101.95 1285.48 1173.97 1286.92 1242.66 1291.22 1308.01L1286.2 1332.34 1284.76 1332.34 1273.3 1284.4 1267.56 1151.32 1252.51 962.427C1248.69 922.836 1242.48 883.961 1233.87 845.8L1210.94 739.906 1213.81 746.345 1215.96 739.906 1291.93 845.8 1309.14 870.127C1331.59 903.517 1355.72 934.999 1381.53 964.574L1327.77 845.8 1257.53 685.528M1212.37 1032.54 1208.79 1024.67 1211.65 1024.67 1212.37 1032.54M1184.42 1200.69 1182.27 1211.42 1183.7 1200.69 1184.42 1200.69M1190.87 895.17 1193.02 908.049 1191.59 908.049 1190.87 895.17" fill="#AAAAAA" fill-rule="evenodd"/><path d="M954.207 509.914 970.781 508 985.265 596.428 992.922 646.477 995.79 661.492 996.507 680.797 996.507 810.926 937 517.064 954.207 509.914M1022.32 610.728 993.639 515.633 1023.04 527.073 1035.1 556.889 1037.83 539.595 1068.21 615.018 1073.94 575.693 1086.13 599.288 1093.3 625.028C1099.49 746.681 1103.44 859.393 1101.91 977.52L1101.19 988.245 1094.74 972.515 1044.55 685.087 1022.32 610.728M1111.94 845.246 1112.66 845.961C1127.95 998.97 1122.21 1151.03 1095.45 1302.13L1083.98 1315C1090.15 1158.65 1102.62 1002.31 1111.94 845.961L1111.94 845.246" fill="#FFFFFF" fill-rule="evenodd"/><path d="M1295.15 719.019 1296.58 719.019 1295.15 719.019M1295.87 722.597 1371.02 748.361 1433.29 918.689C1439.02 934.434 1446.41 949.224 1455.48 963.06L1502 1028.18 1485.54 1026.75 1469.79 1020.31 1437.58 1010.29 1494.85 1203.52 1472.66 1187.77C1449.28 1170.6 1427.09 1153.42 1406.09 1136.25 1367.44 1103.8 1331.18 1069.93 1297.3 1034.62L1300.88 1068.26C1303.74 1096.89 1304.93 1126.7 1304.45 1157.72 1303.5 1207.81 1298.97 1257.91 1290.86 1308.01 1286.56 1242.64 1285.13 1173.94 1286.56 1101.9 1287.99 1036.53 1282.74 972.125 1270.81 908.67 1268.43 895.787 1268.19 882.43 1270.1 868.593L1285.13 867.876C1322.35 955.188 1372.45 1033.67 1435.44 1103.33 1408.24 983.575 1367.2 869.308 1312.33 760.527L1295.87 722.597M1208.54 1024.6 1205.68 1052.51 1200.67 1096.89 1193.51 1148.41 1184.21 1200.66 1183.49 1200.66 1182.06 1211.39 1172.04 1250.75 1159.87 1297.99 1147.7 1343.79 1135.54 1388.88 1123.37 1434.68 1101.18 1516.26 1100.46 1519.13 1096.89 1526.28C1090.68 1528.19 1086.39 1526.28 1084 1520.56 1130.77 1393.17 1158.44 1261.25 1167.03 1124.8 1170.85 1055.62 1169.18 987.393 1162.02 920.121 1160.59 849.03 1157.49 778.657 1152.71 709L1172.04 794.163 1182.06 845.691 1185.64 865.015 1189.22 883.622 1190.65 894.357 1190.65 895.072 1191.37 907.954 1192.8 907.954 1199.24 949.462 1205.68 990.971 1211.41 1024.6 1208.54 1024.6" fill="#8E8E8E" fill-rule="evenodd"/><path d="M748 490.446 723.704 487.586C707.507 492.352 692.978 501.646 680.116 515.467L642.958 556.216 628.667 578.378 640.814 535.485 639.385 536.914 700.838 484.012 691.549 480.438 652.962 489.731C620.092 496.88 588.651 508.794 558.638 525.476L525.768 548.353 495.756 576.233 476.463 594.821 453.597 617.697 436.447 637 437.876 566.94 490.754 518.327 483.608 516.897 436.447 539.059 390 563.365 395.716 543.348 427.872 510.463 443.592 510.463 458.598 508.318 473.604 504.744 533.628 486.157 540.774 484.012 562.926 489.016 457.169 573.374 557.924 511.893 560.067 504.744 616.519 474.003 633.668 474.719 661.536 472.574C684.403 467.808 707.269 467.808 730.135 472.574L737.996 474.003 748 490.446" fill="#DDDDDD" fill-rule="evenodd"/><path d="M628.425 578.021 642.71 555.841 679.853 515.059C692.71 501.226 707.234 491.925 723.424 487.155L747.709 490.017 766 501.136C759.572 502.328 742.71 504.565 736.281 505.758 722.948 508.619 710.567 513.628 699.139 520.783L661.996 549.402 644.853 570.865 629.139 597.34 613.425 628.104 628.425 578.021M389.857 562.996 436.285 538.67 483.427 516.49 490.569 517.921 437.713 566.574 437.713 548.687 387 572.297 389.857 562.996M436.285 636.69 453.427 617.372 476.284 594.477 495.569 575.875 525.569 547.971 558.426 525.076C588.425 508.381 619.853 496.456 652.711 489.302L691.281 480 700.567 483.578 639.14 536.524 436.999 651C436.761 646.23 436.523 641.46 436.285 636.69" fill="#AAAAAA" fill-rule="evenodd"/><path d="M633.991 473.973 616.837 473.257 541.074 483.272 478.176 494 501.2 484.315 773.367 422.473C782.911 429.901 791.731 432.984 802 444.758L716.902 467.535 689.741 465.389M609.689 391 616.837 401.014 520.346 461.813 593.965 404.59 440.294 444.646 436.721 438.209 426 439.639 506.766 408.167 609.689 391" fill="#FFFFFF" fill-rule="evenodd"/><path d="M755.316 1068.17 804.649 809.328C815.612 748.789 817.279 688.011 809.654 626.996 805.363 591.72 797.023 557.876 784.629 525.462L861.847 562.644 863.277 571.224 863.277 578.374 869.711 591.245 871.141 599.11C904.505 681.099 923.572 767.142 928.339 857.235 930.722 910.623 926.67 962.583 916.184 1013.11L915.469 1008.82 906.889 930.883 904.745 919.442 904.745 918.727C894.259 853.898 878.29 790.261 856.842 727.815 842.543 773.1 828.957 818.862 816.089 865.101L759.606 1087.47 755.316 1068.17M547.26 494C589.205 498.767 630.196 508.54 670.234 523.317L717.422 544.053C725.527 547.866 731.483 554.778 735.298 564.789L414.991 655.597 412.846 655.597 404.267 657.742 374.238 665.607C329.91 675.618 285.106 682.529 239.824 686.343L175.477 689.203 275.573 650.591 316.326 637.006 415.706 614.126 458.604 604.829 576.574 581.234 594.448 578.374 510.082 550.488 517.232 549.773 445.735 526.177 445.02 526.177 442.875 516.166 547.26 494M124 1125.37C132.579 1059.11 159.272 998.811 204.076 944.468L287.727 850.085C321.092 813.857 357.794 782.157 397.832 754.986L442.875 722.81C446.211 723.286 448.834 725.193 450.74 728.53L451.455 729.96C406.65 773.338 375.668 824.106 358.509 882.262L310.606 923.018C253.409 975.454 205.03 1036.71 165.468 1106.78L129.004 1179 128.289 1176.14 124 1125.37M367.803 1080.32C367.803 1001.19 387.823 927.308 427.861 858.664 464.085 795.743 509.843 740.685 565.134 693.493L581.579 682.053C585.869 690.633 582.77 701.12 572.284 713.514 548.929 742.115 531.77 773.577 520.806 807.898L500.072 860.096 490.778 877.257 491.493 860.096 444.305 931.598 404.267 1004.53C390.444 1032.66 379.719 1062.45 372.093 1093.91L367.803 1080.32M586.585 1113.21C569.424 1075.56 561.083 1035.75 561.56 993.806 562.036 935.173 571.808 879.163 590.873 825.774 600.406 797.649 612.561 770.478 627.337 744.26L629.481 741.4 652.361 709.224C678.576 675.379 709.32 645.586 744.591 619.845L751.026 624.136 752.456 625.565 735.298 759.276 734.581 761.421 736.727 735.68 722.427 751.411C640.921 847.701 598.738 960.914 595.878 1091.05L595.878 1121.8 586.585 1113.21M503.647 616.985C496.021 617.938 496.497 618.178 505.077 617.7 508.891 616.747 508.413 616.508 503.647 616.985" fill="#AAAAAA" fill-rule="evenodd"/><path d="M785.064 525.396C797.473 557.848 805.826 591.732 810.122 627.048 817.759 688.134 816.088 748.982 805.111 809.591L755.709 1068.73C735.663 967.079 728.742 864.711 734.947 761.628L735.663 759.481 752.846 625.616 751.414 624.184 744.971 619.889C709.651 645.66 678.864 675.488 652.614 709.371L713.469 594.834 601.781 694.338 608.225 702.213 579.587 748.743 582.451 759.481 555.96 803.148 558.108 809.591 537.347 934.865 550.234 931.286 560.256 882.608 591.043 826.055C571.95 879.505 562.165 935.581 561.688 994.281 561.212 1036.28 569.564 1076.13 586.747 1113.83 519.925 1050.83 487.945 972.09 490.809 877.597L500.116 860.416 520.879 808.159C531.857 773.797 549.04 742.301 572.428 713.667 582.927 701.258 586.03 690.759 581.734 682.169L565.268 693.623C509.9 740.869 464.081 795.989 427.806 858.984 387.713 927.707 367.666 1001.68 367.666 1080.9 347.143 1013.13 345.711 945.842 363.37 879.028L358.359 882.608C375.542 824.384 406.566 773.559 451.433 730.13L450.716 728.7C448.808 725.359 446.181 723.45 442.841 722.972L397.736 755.186C357.643 782.388 320.89 814.124 287.481 850.394L203.714 944.887C158.849 999.292 132.12 1059.66 123.529 1126 117.323 986.168 165.769 865.666 268.866 764.492 311.823 721.541 360.03 685.509 413.487 656.398L414.918 655.682 735.663 564.768C731.845 554.746 725.878 547.826 717.765 544.009L670.512 523.249C630.419 508.455 589.371 498.67 547.37 493.9 627.079 485.309 706.309 495.807 785.064 525.396M916.798 1013.61C927.299 963.023 931.356 911.003 928.97 857.553 924.196 767.356 905.104 681.214 871.693 599.129L870.261 591.255 863.819 578.37 863.819 571.211 862.387 562.621C926.821 603.663 962.618 664.988 969.778 746.595L970.495 753.755C977.176 835.361 970.495 904.322 950.448 960.636 929.924 1017.43 919.661 1055.6 919.661 1075.17L916.798 1013.61M510.141 550.451 594.621 578.37 576.723 581.233 458.593 604.856 415.635 614.163 316.119 637.07 275.309 650.671 175.076 689.328 167.201 689.328C269.342 612.97 383.656 566.677 510.141 550.451M411.34 595.55 491.526 569.063 485.797 559.757 333.302 606.288 411.34 595.55M438.546 521.817 437.829 521.102 437.829 521.817 436.397 518.238 442.841 516.09 444.988 526.112 438.546 521.817M454.297 663.557 451.433 656.398 445.705 652.103 342.608 720.109 344.04 728.7 225.909 861.132 231.637 866.859 173.644 943.455 362.655 740.153 466.467 669.283 454.297 663.557M503.696 617.026C508.469 616.549 508.947 616.787 505.128 617.742 496.537 618.219 496.061 617.98 503.696 617.026M526.607 668.568 465.752 739.437 473.626 745.88 479.354 743.017 422.795 845.383 586.03 624.184 518.015 671.431 526.607 668.568M795.802 715.814 777.188 571.211 766.45 779.525 762.154 753.039 749.267 921.98 753.563 900.504 757.141 974.953 765.733 977.101 772.892 790.979 780.769 787.399 788.643 720.825 795.802 715.814" fill="#DDDDDD" fill-rule="evenodd"/><path d="M591.291 826.063 542.136 960.446 537.609 934.777 556.218 803.176 571.212 759.548C581.484 737.853 594.889 708.846 602.027 694.462 606.865 686.391 635.729 651.163 713.687 595.046L652.847 709.482 629.942 741.667 627.795 744.528C613.003 770.752 600.835 797.931 591.291 826.063M411.634 595.762 333.615 606.49 486.073 560 491.799 569.298 411.634 595.762M454.58 663.708 466.748 669.43 362.962 740.237 174 943.36 231.976 866.831 226.25 861.109 344.352 728.793 342.92 720.21 445.99 652.264 451.717 656.555 454.58 663.708M526.872 668.714 518.283 671.575 586.281 624.37 423.086 845.375 479.631 743.098 473.905 745.959 466.032 739.521 526.872 668.714M796 715.919 788.842 720.925 780.969 787.441 765.938 976.976C751.463 1014.81 753.242 971.381 748.769 902.947 756.642 793.279 752.013 724.869 777.39 571.444L796 715.919" fill="#FFFFFF" fill-rule="evenodd"/><path d="M415.166 655.285 413.722 656 413 655.285 415.166 655.285M439 521.715 438.278 521.715 438.278 521 439 521.715" fill="#384147" fill-rule="evenodd"/><path d="M755.817 1068.45 760.112 1087.77 816.675 865.209C829.562 818.933 843.166 773.132 857.485 727.808 878.965 790.307 894.955 853.999 905.456 918.882L905.456 919.598 907.603 931.048 916.195 1009.05 916.911 1013.34 919.775 1074.89C919.775 1055.33 930.038 1017.16 950.562 960.389 970.609 904.093 977.292 835.154 970.609 753.571 985.406 822.749 980.633 892.404 956.29 962.536 943.402 999.272 933.855 1036.48 927.651 1074.17L916.195 1104.23 913.331 1087.77C904.74 978.041 884.215 873.797 851.757 775.04L757.249 1116.4C724.314 999.991 709.755 886.917 713.574 777.187 642.454 879.762 606.894 994.263 606.894 1120.69L606.894 1144.31C524.795 1075.6 479.927 994.74 472.29 901.707 436.491 964.683 405.706 1030.52 379.929 1099.22L374.918 1120.69C347.234 1045.79 334.824 976.372 337.688 912.441 256.544 994.978 187.81 1086.82 131.487 1187.96L125.043 1208C97.3585 1068.21 117.405 946.553 185.184 843.026 224.324 783.867 272.773 731.625 330.528 686.302L156.545 693.458 145.806 699.183C237.451 621.417 347.472 569.177 475.871 542.46L445.799 526 517.397 549.616 510.237 550.332C383.749 566.553 269.431 612.83 167.286 689.164L175.16 689.164 239.599 686.302C284.944 682.485 329.811 675.567 374.201 665.548L404.273 657.676 412.864 655.53 413.58 656.245C360.121 685.347 311.913 721.368 268.953 764.306 165.854 865.45 117.405 985.913 123.611 1125.7L127.907 1176.51 128.623 1179.37 165.137 1107.09C204.756 1036.96 253.202 975.656 310.48 923.176L358.45 882.386 363.463 878.806C345.802 945.6 347.234 1012.87 367.759 1080.61L372.055 1094.21C379.69 1062.72 390.43 1032.91 404.273 1004.76L444.367 931.764 491.622 860.201 490.906 877.376C488.042 971.839 520.022 1050.56 586.846 1113.53L596.154 1122.12 596.154 1091.35C599.018 961.105 641.261 847.796 722.882 751.424L737.201 735.68 735.053 761.443C728.848 864.494 735.769 966.83 755.817 1068.45" fill="#5A5A5A" fill-rule="evenodd"/><path d="M1200.71 966.469C1193.55 900.144 1175.91 818.31 1147.78 720.97 1119.16 623.629 1086.97 526.526 1051.21 429.662 1126.08 584.262 1179.25 746.974 1210.72 917.799 1220.74 971.24 1223.36 1026.35 1218.59 1083.13 1213.34 1071.68 1207.38 1032.79 1200.71 966.469M1233.61 761.766 1255.07 817.594C1289.88 903.484 1307.53 992.952 1308 1086L1233.61 761.766M469.668 310.849C458.699 305.123 449.878 295.579 443.202 282.219L440.341 277.925C423.65 269.336 415.544 258.6 416.02 245.716L416.02 245 417.451 245C439.864 262.655 457.508 284.127 470.383 309.417L471.098 311.565 469.668 310.849" fill="#5A5A5A" fill-rule="evenodd"/></g></svg>
    