<svg width="1761" height="1761" xmlns="http://www.w3.org/2000/svg" xmlns:xlink="http://www.w3.org/1999/xlink" overflow="hidden"><defs><clipPath id="clip0"><rect x="0" y="0" width="1761" height="1761"/></clipPath></defs><g clip-path="url(#clip0)"><path d="M132.357 1022.13 122.3 1043.76 87.4903 1100.14 122.301 1043.76 122.3 1043.76 132.358 1022.13ZM1301.23 1005.14 1305.87 1013.63 1305.87 1013.63ZM368.467 994.424 308.732 1012.28 244.516 1021.9 308.732 1012.28ZM714.085 954.156 712.757 954.599 714.085 954.156ZM683.985 936.696 630.539 970.378C579.484 998.185 525.075 1017.75 467.315 1029.08 436.888 1036.03 406.46 1041.18 376.033 1044.53L284.751 1049.17 284.751 1049.17C345.606 1049.68 406.46 1042.99 467.315 1029.08 525.075 1017.75 579.484 998.185 630.54 970.378ZM1337.56 913.953 1336.81 937.936 1341.46 944.115 1336.81 937.936ZM1189.83 901.631 1190.61 903.949 1190.61 903.949 1189.83 901.631ZM766.688 873.825 710.218 952.611 707.123 956.474 707.124 956.474 710.218 952.612 710.218 952.612ZM1291.95 854.514 1292.72 857.604 1292.72 857.602ZM1260.46 851.366 1256.36 858.375 1237.8 857.604 1229.29 867.644 1228.51 868.418 1233.15 866.1 1229.29 867.645 1237.8 857.604 1256.36 858.376ZM1310.51 846.017 1325.21 867.645 1343.78 869.19 1325.21 867.644ZM1404.11 844.472 1407.98 858.375 1407.98 858.375ZM775.198 840.61C697.841 893.135 615.841 935.618 529.201 968.06 489.491 982.478 455.711 992.778 427.863 998.957L487.428 974.239 500.602 967.847 487.428 974.239 427.863 998.957C455.712 992.778 489.491 982.479 529.201 968.06 615.841 935.618 697.841 893.135 775.198 840.61L776.745 849.879ZM1267.19 839.837 1267.19 839.838 1288.85 863.783ZM1373.95 837.521 1380.91 861.465 1380.91 861.465ZM903.854 836.989 866.214 858.497 854.498 863.662 824.36 874.766 811.967 878.483 768.236 886.956 768.236 886.956C780.807 885.508 793.06 883.38 804.996 880.574L811.967 878.483 816.826 877.542 824.36 874.766 839.852 870.119 854.498 863.662 862.032 860.886 866.214 858.497 872.805 855.591C883.472 850.069 893.821 843.869 903.854 836.989ZM94.4519 836.748 89.0374 845.245 82.0748 854.514 68.1505 866.1 68.1505 866.1 82.0748 854.514 89.0374 845.245ZM1213.19 836.725 1210.93 843.483 1203.02 868.316ZM1124.08 825.934C1113.25 851.681 1098.81 872.537 1080.76 888.501L1070.7 896.997 1080.76 888.501C1098.81 872.537 1113.25 851.681 1124.08 825.934ZM718.727 814.348C639.822 870.477 572.521 910.385 516.824 934.073 572.521 910.385 639.823 870.477 718.727 814.348ZM1223.39 807.407 1217.73 823.134 1215.47 829.899ZM251.976 801.847 229.828 817.437 229.828 817.437ZM960.856 794.265C953.636 796.839 947.448 800.701 942.291 805.851L960.857 794.265ZM1229.06 794.002 1227.93 796.196 1223.41 807.357ZM270.497 792.442 270.102 792.492 270.002 792.736ZM1233.59 787.603 1231.33 789.606 1230.2 791.802ZM1233.59 787.603 1234.71 790.185C1234.9 791.811 1234.9 794.2 1234.7 797.354 1233.67 809.971 1230.51 822.201 1225.23 834.045L1202.99 868.416 1202.98 868.418C1222.07 846.275 1232.64 822.587 1234.7 797.354 1235.09 791.046 1234.72 787.796 1233.59 787.603ZM274.919 785.698 272.936 787.095 260.19 793.492 232.454 815.367 260.191 793.492 272.935 787.095 272.936 787.095 272.936 787.095ZM282.18 785.317 279.54 787.063 280.388 786.558ZM295.582 775.727 295.581 775.727 275.254 785.93 277.016 784.222 277.016 784.222 275.254 785.93 275.254 785.93 275.254 785.931ZM305.188 769.289 301.281 772.084 302.323 771.361ZM1042.86 768.774 1042.86 768.774 1044.34 776.37ZM1353.36 757.112 1361.57 768.774 1381.68 772.637 1361.57 768.774ZM486.139 750.064 466.542 759.505 466.542 759.505ZM1341.45 740.194 1330.62 742.512 1331.4 774.182 1331.4 774.182 1330.62 742.512 1341.45 740.194ZM514.504 717.794 514.503 717.794 478.145 747.146ZM1053.83 707.126 1045.18 744.057C1048.27 732.953 1050.85 722.483 1052.91 712.647ZM1189.68 690.723 1193.61 702.631 1194.15 705.271 1197.76 728.234 1198.11 731.206 1199.67 763.039 1199.78 769.827 1199.19 809.371 1198.86 816.987 1196.02 866.873C1196.87 855.27 1197.58 844.201 1198.14 833.664L1198.86 816.987 1199.15 811.901 1199.19 809.371 1199.43 803.652C1199.72 794.181 1199.88 785.243 1199.89 776.838L1199.78 769.827 1199.83 766.325 1199.67 763.039 1199.51 753.221C1199.25 745.881 1198.85 739.074 1198.3 732.8L1198.11 731.206 1198.06 730.144 1197.76 728.234 1196.26 715.578 1194.15 705.271 1193.85 703.36 1193.61 702.631 1193.39 701.552C1192.29 697.409 1191.05 693.8 1189.68 690.723ZM341.002 690.263 297.902 735.367 243.752 783.805 297.903 735.367ZM1184.42 682.262 1184.42 682.263 1225.61 712.194C1238.63 723.137 1250.95 735.045 1262.55 747.919L1277.25 765.685 1291.17 764.913 1277.25 765.684 1262.55 747.919C1239.34 722.171 1213.3 700.286 1184.42 682.262ZM1058.22 674.46 1055.48 697.308 1057.54 685.038ZM630.539 669.131 591.087 679.173 630.54 669.131ZM1174.36 666.814C1228 682.777 1280.86 700.543 1332.95 720.111L1395.61 744.057 1332.95 720.111C1280.86 700.544 1228 682.777 1174.36 666.814ZM1094.68 649.821 1144.19 671.448 1144.19 671.448ZM385.316 644.414 368.126 657.803 385.316 644.414ZM1057.51 641.234 1058.77 665.992 1059.07 661.232ZM229.14 627.463 221.318 629.738 221.318 629.738ZM1344.55 627.42 1339.91 640.552 1379.36 649.821 1339.91 640.552 1344.55 627.42ZM1050.59 620.469 1054.6 632.499 1054.6 632.499 1054.6 632.499 1054.65 632.441 1054.6 632.499ZM362.109 588.799 362.109 588.799 362.1 588.808 341.694 608.641 337.221 613.823 334.453 616.607 326.771 625.932 319.321 634.565 315.269 639.895 311.427 644.558 303.09 655.916 294.989 666.573 290.613 672.914 286.444 678.594 277.451 691.984 268.7 704.663 264.896 710.68 259.501 718.712C250.194 733.098 240.561 748.499 230.601 764.913L230.602 764.912 264.896 710.68 277.451 691.984 290.613 672.914 303.09 655.916 315.269 639.895 326.771 625.932 337.221 613.823 362.1 588.808ZM982.517 582.62 1062.19 601.93 1062.19 601.93ZM1394.06 574.895 1486.89 638.234 1485.34 639.779 1485.34 639.779 1486.89 638.234 1486.89 638.234 1394.06 574.895ZM713.567 561.821 678.695 572.771C663.159 578.242 645.769 584.888 626.527 592.709L617.907 596.385 626.526 592.71C645.769 584.889 663.158 578.243 678.694 572.771ZM724.634 558.927 719.742 559.882 719.742 559.882ZM540.805 539.363C524.302 554.297 498.001 572.578 461.9 594.206 498.001 572.578 524.302 554.297 540.805 539.363ZM1389.1 517.574 1394.83 534.729 1288.85 530.094 1288.85 530.095 1394.83 534.729ZM706.35 497.652 710.218 499.197 706.35 497.652ZM701.708 497.652C675.665 503.059 650.524 510.205 626.285 519.088L556.278 550.95 556.277 550.95C578.71 538.592 602.046 527.971 626.285 519.088L701.708 497.652ZM1158.89 496.881 1149.61 499.97 1149.61 499.97 1158.89 496.881ZM1150.38 493.791 1150.39 493.792 1209.17 510.784 1209.17 510.784ZM323.43 493.018C286.041 508.724 249.489 525.331 213.776 542.839L109.151 598.068 109.15 598.068C177.225 559.447 248.651 524.43 323.43 493.018ZM1365.72 471.054 1396.38 501.515 1386.32 509.239 1386.32 509.24 1396.38 501.515 1459.04 569.488 1469.09 581.847 1469.09 581.847 1459.04 569.488 1396.38 501.515ZM422.061 465.211 422.061 465.211C369.715 494.821 322.527 529.065 280.497 567.944L241.044 609.14 280.497 567.944C301.512 548.504 323.817 530.223 347.411 513.102ZM998.761 451.307 984.837 458.259 998.761 451.307ZM319.562 443.583 189.603 465.211 189.602 465.211 319.562 443.583ZM1077.67 433.542 1017.33 438.948 1017.33 438.948 1077.67 433.542ZM998.761 424.272 998.761 424.273 1002.63 442.038 1062.19 464.439 1063.74 473.708 1095.46 482.204 1063.74 473.708 1062.19 464.439 1002.63 442.038ZM504.447 424.272 421.269 443.875 504.445 424.273ZM460.654 393.933 426.509 398.589C412.198 401.55 398.209 405.477 384.543 410.369 364.43 418.608 346.895 430.452 331.94 445.901L316.468 461.349 316.469 461.349 331.94 445.901C346.896 430.452 364.43 418.608 384.543 410.369 398.21 405.477 412.198 401.55 426.509 398.589ZM1056.78 380.244 1025.84 388.741 1025.84 388.741ZM1187.56 375.52 1209.95 378.699C1243.98 389.513 1277.76 405.991 1311.29 428.134 1277.76 405.991 1243.98 389.513 1209.95 378.699ZM1124.08 353.981 1124.08 353.982 1291.17 365.568 1310.51 360.161 1310.51 360.161 1291.17 365.568ZM613.994 346.944 515.47 357.458C473.311 363.637 431.215 371.49 389.184 381.017L395.373 389.513 389.184 381.017C431.215 371.49 473.311 363.637 515.47 357.458ZM1085.4 340.078 987.158 356.299 1011.91 414.23 1001.66 422.058 1011.91 414.23 987.158 356.299 1085.4 340.078ZM818.426 316.322 829.114 321.194 823.671 318.351ZM1076.89 316.133 1076.89 316.133 1087.84 317.663ZM349.676 308.757 369.072 313.044C385.446 316.133 401.884 318.708 418.387 320.768L468.088 325.402 468.089 325.402C434.825 323.342 401.819 319.223 369.072 313.043ZM726.213 288.768 736.104 290.381 731.059 289.167ZM659.368 287.251 641.65 290.457 632.087 292.187 632.087 292.187 632.087 292.187 508.315 319.995C538.742 332.353 572.005 340.336 608.105 343.94 572.006 340.336 538.742 332.353 508.315 319.995L632.087 292.187 641.65 290.457 659.368 287.251ZM1104.74 275.967 1039.76 321.539 1000.31 306.864 1000.31 306.864 1039.76 321.539 1033.57 325.402 1033.57 325.402 1039.76 321.539 1104.74 275.967ZM904.284 274.823 908.253 275.967C921.146 281.116 933.523 287.553 945.385 295.277 933.524 287.553 921.146 281.116 908.253 275.967ZM599.597 201.814 631.312 215.718 677.418 229.686 631.313 215.718ZM593.408 191C663.545 208.508 734.456 223.699 806.141 236.573L937.649 272.877 966.271 223.442 983.29 221.124 993.347 229.621 1000.31 293.732C1019.91 294.247 1037.7 289.871 1053.69 280.601L1100.1 252.794 1115.57 255.111 1121.76 283.691 1101.65 300.684C1177.97 307.379 1252.49 324.629 1325.21 352.436L1328.3 360.934 1323.66 374.065 1275.7 387.968C1351.51 434.313 1403.86 475.51 1432.74 511.556L1486.89 578.758 1481.47 595.751 1446.66 597.296 1507 638.234 1503.13 649.821 1438.93 665.269 1500.04 732.47 1495.4 747.146 1435.06 746.374 1438.93 774.953C1439.96 793.492 1437.12 812.03 1430.42 830.568L1417.27 857.604 1400.25 874.597 1384 867.644 1379.36 883.866 1377.04 889.273 1349.96 929.439 1358.47 947.977 1322.12 968.06 1324.44 985.053 1319.02 990.461 1319.02 1019.81 1257.13 1121 1247.08 1121 1237.02 1110.19 1250.95 1015.18C1251.98 1003.85 1248.37 994.065 1240.12 985.826L1263.32 921.714 1260.36 916.298 1263.32 921.714 1240.12 985.826C1222.07 961.624 1197.31 955.186 1165.85 966.515L1141.1 1015.18 1110.16 1018.27C1100.87 1014.15 1093.91 1007.2 1089.27 997.412L1067.61 951.839 997.214 866.1 1034.35 825.162 1068.38 904.721 1034.35 825.162 997.214 866.1 974.781 880.776 956.988 874.597 946.158 836.748C910.058 864.555 871.637 889.273 830.895 910.9 799.953 927.379 768.494 941.283 736.519 952.611L703.256 962.653 695.52 944.887C666.64 968.575 633.376 986.083 595.728 997.412L510.635 1023.67C444.108 1041.18 376.549 1053.28 307.959 1059.98L133.131 1059.21 95.999 1116.37 70.4718 1107.1 147.055 788.857 79.7546 883.093 55 876.142C65.3144 820.527 82.5904 767.487 106.829 717.022 119.206 690.759 133.905 665.784 150.923 642.096L220.545 551.722 110.697 615.834 95.999 598.841 247.62 475.253 180.319 477.569 179.545 459.031 377.58 337.761 258.45 299.912 253.035 289.098 261.544 274.422C321.367 278.542 381.706 279.829 442.561 278.284 507.541 275.194 570.974 266.698 632.86 252.794L586.445 205.676Z" fill="#DDDDDD" fill-rule="evenodd"/><path d="M996.847 868.337 974.429 883.014 956.649 876.834 945.826 838.985C909.751 866.792 871.356 891.51 830.643 913.138 799.721 929.616 768.284 943.52 736.332 954.849L703.091 964.891 695.361 947.124C666.5 970.812 633.259 988.321 595.637 999.65L510.603 1025.91C444.121 1043.42 376.609 1055.52 308.066 1062.22L133.358 1061.44 96.2522 1118.6 70.7425 1109.33 147.273 791.095 80.019 885.331 55.2814 878.379C65.5887 822.764 82.8528 769.725 107.075 719.259 119.444 692.997 134.132 668.022 151.139 644.334L220.713 553.96 110.94 618.071 96.2522 601.078 247.769 477.49 180.514 479.807 179.741 461.269 377.64 339.998 258.591 302.149 253.18 291.335 261.683 276.659C321.465 280.779 381.762 282.066 442.575 280.521 507.511 277.431 570.9 268.935 632.744 255.031L586.361 207.913 593.319 193.237C663.408 210.746 734.27 225.936 805.905 238.81L937.323 275.114 965.925 225.679 982.932 223.361 992.982 231.858 999.939 295.97C1019.52 296.485 1037.3 292.108 1053.28 282.839L1099.66 255.031 1115.12 257.348 1121.31 285.928 1101.21 302.922C1177.48 309.616 1251.95 326.866 1324.62 354.674L1327.71 363.171 1323.07 376.302 1275.14 390.205C1350.9 436.551 1403.21 477.747 1432.07 513.793L1486.18 580.995 1480.77 597.988 1445.98 599.533 1506.28 640.472 1502.42 652.058 1438.25 667.507 1499.32 734.708 1494.69 749.384 1434.39 748.611 1438.25 777.191C1439.28 795.729 1436.45 814.267 1429.75 832.806L1416.61 859.841 1399.6 876.834 1383.37 869.882 1378.73 886.103 1376.41 891.51 1349.35 931.676 1357.86 950.214 1321.52 970.297 1323.84 987.291 1318.43 992.698 1318.43 1022.05 1256.59 1123.24 1246.54 1123.24 1236.49 1112.42 1253.5 1112.42C1275.66 1083.59 1286.48 1052.43 1285.96 1018.96L1302.2 1025.14 1305.29 1015.87 1300.65 1007.37 1305.29 997.333 1302.2 987.291 1312.25 983.429 1308.38 967.208 1317.66 958.711 1316.11 942.49 1326.94 947.898 1340.85 946.353 1336.21 940.173 1336.99 915.456 1348.58 910.821 1353.99 900.779 1347.81 886.876 1366.36 893.828 1371 879.151 1368.68 872.972 1380.28 863.703 1373.32 839.758 1401.92 865.247 1407.33 860.613 1403.47 846.709 1353.22 810.406 1343.17 871.427 1324.62 869.882 1309.93 848.254 1306.84 870.655 1288.28 866.021 1266.64 842.075 1255.82 860.613 1237.26 859.841 1228.76 869.882 1227.99 870.655 1189.33 914.683 1161.51 858.296 1119.76 892.283 1106.62 881.469 1067.97 906.958 1033.95 827.399 996.847 868.337M999.939 309.101 992.208 311.418 982.932 282.839 975.975 236.493 953.556 258.893 945.053 297.514C921.347 282.066 895.579 271.767 867.749 266.617L781.941 252.714C728.859 247.564 678.611 235.978 631.198 217.955L599.503 204.051 686.084 264.301 520.653 287.473 355.222 294.425 271.733 290.563C336.154 311.161 401.604 323.52 468.086 327.64 434.588 335.364 402.12 346.435 370.683 360.853 307.293 391.235 246.996 426.767 189.791 467.448L319.662 445.82 126.402 584.085 109.394 600.306C177.422 561.684 248.799 526.667 323.527 495.255 254.983 537.996 198.552 593.869 154.231 662.872 139.285 686.045 126.143 710.505 114.805 736.252L71.515 845.164 66.8768 865.247 68.4229 868.337 82.3376 856.751 89.2954 847.482 94.7062 838.985 98.5719 828.171 100.118 821.22 198.294 703.811C158.096 791.868 128.205 882.499 108.621 975.705L81.5651 1100.06 87.7494 1102.38 122.536 1045.99 284.874 1051.4C345.687 1051.92 406.5 1045.22 467.312 1031.32 525.033 1019.99 579.404 1000.42 630.425 972.615 679.384 945.323 724.736 913.138 766.48 876.062L710.048 954.849 706.956 958.711 713.913 956.394 764.161 935.539C838.373 903.612 904.597 860.098 962.833 804.998L960.514 870.655 976.748 872.2 1037.82 805.771 1041.68 817.357 1070.29 899.234 1080.34 890.738C1098.37 874.774 1112.8 853.919 1123.63 828.171L1119.76 883.014 1158.41 813.495 1164.6 796.502 1189.33 903.869 1190.11 906.186 1191.65 903.869 1230.31 849.027 1248.86 852.117 1270.5 798.047 1291.38 856.751 1292.15 859.841 1292.15 856.751 1290.6 803.454 1332.35 855.978 1337.76 767.922 1409.65 836.668 1415.06 733.935 1476.13 736.252 1400.37 655.92 1484.64 642.017 1488.5 641.244 1486.18 640.472 1393.42 577.133 1468.4 584.085 1458.35 571.726 1395.74 503.752C1372.55 476.975 1344.2 452.514 1310.7 430.371 1277.2 408.228 1243.45 391.75 1209.43 380.936L1290.6 367.806 1309.93 362.398C1258.39 348.494 1206.34 337.423 1153.77 329.184L1076.47 318.37 1033.18 327.64 1039.36 323.777 1104.3 278.204 1102.75 267.39C1086.26 281.809 1067.97 292.108 1047.87 298.287L999.939 309.101" fill="#888888" fill-rule="evenodd"/><path d="M1240.05 987.961C1222.01 963.767 1197.27 957.332 1165.83 968.657L1141.09 1017.3 1110.17 1020.39C1100.89 1016.27 1093.93 1009.32 1089.3 999.542L1067.65 953.987 1107.08 916.151 1125.63 947.037 1168.15 920.784 1182.07 951.669 1225.36 906.885 1258.6 915.379 1263.24 923.873 1240.05 987.961M122.943 1045.87 88.1554 1102.24 81.9705 1099.92 109.028 975.607C128.613 882.435 158.505 791.837 198.706 703.813L100.525 821.178 98.9785 828.127 95.1126 838.937 89.7016 847.431 82.7434 856.697 68.8276 868.278 67.2815 865.19 71.9203 845.114 115.213 736.242C126.551 710.504 139.694 686.053 154.64 662.889 198.964 593.911 255.398 538.059 323.945 495.334 249.213 526.734 177.833 561.738 109.802 600.345L126.809 584.13 320.079 445.917 190.202 467.537C247.41 426.871 307.71 391.352 371.103 360.981 402.542 346.568 435.011 335.501 468.511 327.78 402.026 323.662 336.572 311.307 272.149 290.717L355.641 294.577 521.081 287.628 686.52 264.464 599.935 204.237 631.63 218.136C679.046 236.153 729.297 247.734 782.382 252.882L868.194 266.78C896.025 271.928 921.795 282.223 945.503 297.666L954.006 259.059 976.426 236.667 983.383 282.996 992.66 311.564 1000.39 309.248 1039.82 323.919 1033.63 327.78 1076.93 318.514 1154.23 329.324C1206.8 337.56 1258.86 348.627 1310.4 362.525L1291.07 367.931 1124.08 356.348 1127.18 357.893C1151.91 372.821 1179.49 380.542 1209.9 381.057 1243.91 391.867 1277.67 408.339 1311.17 430.474 1344.67 452.609 1373.02 477.06 1396.21 503.828L1386.16 511.549 1394.66 537.029 1288.75 532.397 1310.4 540.891 1372.24 569.46C1396.98 594.168 1425.33 614.759 1457.28 631.231L1344.41 629.687 1339.77 642.813 1379.2 652.079 1386.93 653.623 1428.68 718.483 1353.69 718.483 1332.82 713.078C1228.71 685.796 1184.9 670.61 1201.39 667.522L1174.33 669.066C1227.93 685.024 1280.76 702.783 1332.82 722.344L1395.44 746.28 1374.56 740.103 1366.06 750.913 1381.52 774.85 1361.42 770.989 1341.32 742.419 1330.5 744.736 1331.27 776.394 1309.62 765.584 1300.35 774.85 1291.07 767.129 1277.15 767.9 1262.47 750.141C1239.27 724.403 1213.25 702.526 1184.38 684.509 1199.85 701.496 1203.71 763.01 1195.98 869.051L1189.02 872.14 1175.11 829.671 1188.25 818.861C1170.21 765.326 1143.93 714.88 1109.4 667.522L1138.77 683.737 1144.18 673.699 1094.71 652.079 1158.87 813.457 1120.22 882.95 1124.08 828.127C1113.26 853.865 1098.83 874.713 1080.79 890.671L1070.74 899.164 1042.14 817.317 1044.46 808.052C1047.55 794.668 1047.03 782.313 1042.91 770.989L1045.23 746.28C1061.72 687.083 1063.53 645.902 1050.64 622.738 1055.8 633.548 1056.05 638.695 1051.41 638.18L1039.82 763.267C1025.39 802.904 1001.94 834.562 969.468 858.241L971.014 804.191 960.964 796.47C953.749 799.043 947.564 802.904 942.41 808.052 893.449 854.38 835.467 881.405 768.466 889.127L766.92 876C774.651 869.823 778.001 861.844 776.97 852.064L775.424 842.798C698.116 895.304 616.169 937.771 529.584 970.201 489.899 984.614 456.142 994.91 428.311 1001.09L487.838 976.378C605.861 924.387 682.912 871.11 718.989 816.545 640.135 872.654 572.876 912.548 517.215 936.227L371.875 995.682C331.16 1011.12 288.383 1020.65 243.544 1024.25 198.19 1027.85 161.34 1027.85 132.994 1024.25L122.943 1045.87M1074.61 355.577 1092.39 354.033 1085.43 342.45 987.249 358.666 1011.99 416.576 998.845 426.614 1002.71 444.372 1062.24 466.765 1063.78 476.031 1095.48 484.524 1079.24 469.854 1080.02 460.588 1062.24 448.234 1077.7 435.88 1017.4 441.284 1100.89 395.728 1056.83 382.601 1025.9 391.095 1072.29 363.298 1074.61 355.577M960.964 447.461 975.652 438.968 979.518 432.018 945.503 368.703 936.226 372.564 942.41 378.741 926.175 389.551 932.36 437.424 923.083 449.778 928.495 464.448 922.31 487.613 933.133 499.967 955.552 475.258 949.367 469.081 955.552 464.448 960.964 447.461M984.929 460.588 981.837 472.17 971.014 477.575 967.922 483.752 974.106 493.79 968.695 505.372 975.652 511.549 970.241 517.726 969.468 526.219 991.114 531.625 969.468 539.346 968.695 547.839 977.198 557.105 971.787 567.143 992.66 574.865 982.61 584.903 1062.24 604.206 1064.56 592.624 1039.04 583.358 1041.36 574.093 1081.56 557.105 1088.52 539.346 1081.56 530.081 1072.29 528.537 1113.26 517.726 1033.63 500.739 1022.04 464.448 998.845 453.638 984.929 460.588M389.657 383.374 395.842 391.867 470.83 394.956C440.937 397.014 412.334 402.935 385.018 412.715 364.918 420.951 347.395 432.791 332.449 448.234L316.987 463.677C380.38 455.955 442.999 443.601 504.845 426.614 389.914 476.546 295.598 545.009 221.898 632.003L362.598 591.08C328.068 620.936 284.26 679.619 231.175 767.129L385.791 646.674 358.734 674.471C320.079 718.226 278.333 758.634 233.495 795.697L296.114 777.938C270.859 787.719 248.956 801.618 230.402 819.634L277.56 786.431C256.945 805.477 276.529 793.123 336.314 749.369 395.583 705.099 471.345 662.632 563.599 621.966 655.338 581.3 717.443 559.422 749.912 556.333L805.574 551.701 746.82 552.472 812.532 525.448 812.532 504.6 706.62 499.967 710.485 501.511 711.259 504.6 702.755 503.055 701.981 499.967C649.927 510.777 601.481 528.537 556.642 553.245 615.396 509.49 682.139 484.524 756.87 478.347L796.297 476.803 670.285 445.917 800.163 428.93 711.259 417.348 820.263 414.259 824.128 402.677 783.155 393.411 742.955 378.741 847.321 369.475 780.836 349.4 872.833 346.311C784.186 294.32 704.043 277.075 632.404 294.577L508.711 322.374C539.119 334.729 572.361 342.708 608.438 346.311L642.454 346.311C557.93 351.974 473.665 364.328 389.657 383.374M1209.12 513.093 1150.37 496.106 1158.87 499.195 1149.6 502.284 1209.12 513.093M1234.63 799.558C1232.57 824.782 1222.01 848.461 1202.94 870.595 1225.61 798.014 1236.18 774.335 1234.63 799.558M530.358 560.966 462.327 596.485C498.404 574.865 524.688 556.59 541.181 541.662L530.358 560.966M649.412 649.763 645.546 638.18 737.543 603.434C594.266 622.995 467.738 679.361 357.96 772.533L348.683 787.976C403.314 768.93 458.719 746.28 514.896 720.027L478.561 749.369 466.965 761.723 643.227 676.787 630.858 671.382 591.431 681.42 649.412 649.763" fill="#DDDDDD" fill-rule="evenodd"/><path d="M1074.6 355.764 1072.28 363.475 1025.86 391.237 1056.81 382.754 1100.9 395.864 1017.35 441.363 1077.7 435.965 1062.22 448.304 1080.02 460.643 1079.24 469.897 1095.49 484.549 1063.77 476.066 1062.22 466.812 1002.65 444.448 998.785 426.711 1011.94 416.686 987.18 358.848 1085.43 342.653 1092.39 354.221 1074.6 355.764M984.859 460.643 998.785 453.702 1021.99 464.498 1033.6 500.743 1113.28 517.709 1072.28 528.506 1081.56 530.048 1088.53 539.302 1081.56 557.039 1041.33 574.005 1039.01 583.259 1064.54 592.513 1062.22 604.08 982.539 584.801 992.595 574.776 971.708 567.064 977.123 557.039 968.613 547.784 969.386 539.302 991.048 531.59 969.386 526.192 970.16 517.709 975.575 511.54 968.613 505.37 974.028 493.803 967.839 483.778 970.933 477.608 981.764 472.21 984.859 460.643M389.161 383.526C473.229 364.503 557.555 352.165 642.139 346.51L608.099 346.51C571.996 342.911 538.73 334.941 508.301 322.603L632.082 294.841C703.772 277.361 783.972 294.584 872.682 346.51L780.62 349.594 847.152 369.645 742.712 378.899 782.941 393.55 823.943 402.805 820.075 414.372 710.993 417.457 799.961 429.024 669.989 445.99 796.092 476.837 756.637 478.379C681.852 484.549 615.062 509.484 556.266 553.183 601.136 528.506 649.617 510.768 701.709 499.972L702.482 503.057 710.993 504.599 710.219 501.514 706.351 499.972 812.339 504.599 812.339 525.421 746.58 552.411 805.376 551.641 749.674 556.268C717.182 559.353 655.033 581.202 563.228 621.817 470.908 662.432 395.091 704.847 335.78 749.06 275.952 792.76 256.353 805.099 276.983 786.076L229.792 819.237C248.36 801.243 270.279 787.362 295.551 777.594L232.887 795.331C277.758 758.314 319.534 717.956 358.215 674.257L385.292 646.495 230.566 766.798C283.688 679.398 327.528 620.789 362.083 590.97L221.282 631.843C295.035 544.957 389.418 476.58 504.432 426.711 442.541 443.677 379.877 456.016 316.439 463.727L331.912 448.304C346.869 432.881 364.404 421.056 384.519 412.83 411.854 403.062 440.478 397.149 470.392 395.093L395.35 392.008 389.161 383.526M529.962 560.895 540.793 541.615C524.289 556.524 497.985 574.776 461.882 596.369L529.962 560.895M649.102 649.579 591.079 681.197 630.535 671.172 642.913 676.57 466.524 761.399 478.128 749.06 514.49 719.756C458.272 745.976 402.828 768.597 348.158 787.619L357.441 772.195C467.297 679.141 593.916 622.846 737.296 603.309L645.233 638.012 649.102 649.579" fill="#FFFFFF" fill-rule="evenodd"/><path d="M1236.52 1112.24 1250.44 1017.23C1251.47 1005.91 1247.87 996.121 1239.62 987.882L1262.81 923.773 1258.17 915.278 1224.93 906.781 1181.62 951.58 1167.71 920.684 1125.18 946.945 1106.62 916.049 1067.18 953.897 996.819 868.161 1033.93 827.225 1067.96 906.781 1106.62 881.292 1119.77 892.105 1161.52 858.12 1189.36 914.505 1228.02 870.479 1232.66 868.161 1228.79 869.706 1237.3 859.665 1255.86 860.437 1266.68 841.899 1288.33 865.844 1306.89 870.479 1309.98 848.078 1324.67 869.706 1343.23 871.25 1353.28 810.232 1403.54 846.534 1407.41 860.437 1402 865.071 1373.39 839.583 1380.35 863.527 1368.75 872.795 1371.07 878.974 1366.43 893.65 1347.87 886.698 1354.06 900.601 1348.64 910.643 1337.05 915.278 1336.27 939.994 1340.91 946.173 1326.99 947.718 1316.17 942.311 1317.71 958.531 1308.44 967.027 1312.3 983.248 1302.25 987.11 1305.34 997.151 1300.7 1007.19 1305.34 1015.69 1302.25 1024.96 1286.01 1018.78C1286.53 1052.25 1275.7 1083.4 1253.54 1112.24L1236.52 1112.24M122.282 1045.81 132.335 1024.18C160.686 1027.79 197.544 1027.79 242.907 1024.18 287.755 1020.58 330.541 1011.05 371.266 995.606L516.635 936.131C572.309 912.445 639.581 872.538 718.452 816.411 682.367 870.994 605.3 924.288 487.252 976.296L427.713 1001.01C455.55 994.834 489.314 984.535 529.007 970.117 615.61 937.676 697.574 895.195 774.898 842.672L776.445 851.941C777.476 861.725 774.125 869.706 766.393 875.885L767.94 889.016C834.954 881.292 892.948 854.258 941.919 807.914 947.074 802.765 953.26 798.903 960.477 796.328L970.529 804.052 968.982 858.12C1001.46 834.433 1024.91 802.765 1039.35 763.115L1050.95 637.987C1055.59 638.502 1055.33 633.353 1050.17 622.539 1063.06 645.711 1061.26 686.906 1044.76 746.122L1042.44 770.839C1046.57 782.167 1047.08 794.526 1043.99 807.914L1041.67 817.183 1037.8 805.597 976.715 872.023 960.477 870.479 962.797 804.824C904.545 859.922 838.304 903.434 764.073 935.36L713.812 956.214 709.946 954.669 766.393 875.885C724.638 912.96 679.274 945.144 630.302 972.435 579.268 1000.24 524.883 1019.81 467.148 1031.14 406.319 1045.04 345.491 1051.73 284.663 1051.22L122.282 1045.81M1158.43 813.321 1094.25 651.89 1143.74 673.517 1138.32 683.559 1108.94 667.338C1143.48 714.712 1169.77 765.175 1187.81 818.728L1174.66 829.541 1188.58 872.023 1195.54 868.934C1203.28 762.858 1199.41 701.324 1183.94 684.331 1212.81 702.353 1238.84 724.238 1262.04 749.984L1276.73 767.75 1290.65 766.978 1299.93 774.702 1309.21 765.433 1330.86 776.246 1330.09 744.578 1340.91 742.26 1361.02 770.839 1381.12 774.702 1365.66 750.757 1374.16 739.943 1395.04 746.122 1332.41 722.178C1280.34 702.611 1227.5 684.846 1173.89 668.883L1200.95 667.338C1184.46 670.428 1228.28 685.618 1332.41 712.909L1353.28 718.316 1428.29 718.316 1386.53 653.435 1378.8 651.89 1339.37 642.621 1344.01 629.491 1456.9 631.036C1424.94 614.558 1396.59 593.961 1371.84 569.244L1309.98 540.665 1288.33 532.169 1394.27 536.803 1385.76 511.315 1395.81 503.591 1458.44 571.561 1468.5 583.92 1393.49 576.968 1486.28 640.304 1484.74 641.849 1400.45 655.752 1476.23 736.081 1415.14 733.764 1409.73 836.493 1337.82 767.75 1332.41 855.802 1290.65 803.28 1292.2 856.575 1291.42 855.802 1291.42 856.575 1270.55 797.873 1248.9 851.941 1230.34 848.852 1191.68 903.691 1189.36 903.691 1164.61 796.328 1158.43 813.321M1209.46 380.779C1179.05 380.264 1151.47 372.54 1126.72 357.607L1123.63 356.063 1290.65 367.649 1209.46 380.779M1039.35 323.622 999.912 308.947 1047.85 298.133C1067.96 291.954 1086.26 281.656 1102.75 267.238L1104.3 278.051 1039.35 323.622M960.477 447.205 955.064 464.198 948.878 468.832 955.064 475.011 932.641 499.728 921.815 487.37 928.001 464.198 922.588 449.523 931.867 437.165 925.681 389.276 941.919 378.462 935.733 372.283 945.012 368.421 979.035 431.757 975.168 438.709 960.477 447.205M1208.69 512.859 1149.15 502.046 1158.43 498.956 1149.92 495.867 1208.69 512.859M1234.2 799.418C1235.75 774.187 1225.18 797.873 1202.5 870.479 1221.57 848.336 1232.14 824.65 1234.2 799.418" fill="#AAAAAA" fill-rule="evenodd"/><path d="M1486.96 640.237 1489.28 641.009 1485.42 641.781 1486.96 640.237M1292.82 856.354 1292.82 859.442 1292.04 856.354 1292.04 855.582 1292.82 856.354M1192.26 903.436 1190.71 905.752 1189.94 903.436 1192.26 903.436M714.243 955.922 707.282 958.238 710.376 954.378 714.243 955.922" fill="#D27E00" fill-rule="evenodd"/></g></svg>
