<svg width="1761" height="1761" xmlns="http://www.w3.org/2000/svg" xmlns:xlink="http://www.w3.org/1999/xlink" overflow="hidden"><defs><clipPath id="clip0"><rect x="0" y="0" width="1761" height="1761"/></clipPath></defs><g clip-path="url(#clip0)"><path d="M777.278 825.83 645.808 891.83 635.318 884.107 656.297 821.617 533.219 907.979 524.128 894.639 543.708 845.49 496.156 865.852 414.337 915 396.854 903.065 403.847 896.043 415.735 856.724 368.182 887.617 350 837.766 350.699 799.149 370.979 717 957 729.638 957 795.639 854.202 795.639 777.278 825.83" fill="#000000" fill-rule="evenodd" fill-opacity="0.2"/><path d="M774.018 211C779.809 213.894 784.442 215.631 791.392 219.683L1124.96 389.864C1127.86 371.631 1132.2 345.583 1133.65 335.163 1133.65 329.953 1132.49 322.862 1133.65 319.534 1137.99 318.666 1143.21 314.614 1146.68 316.929L1193.59 433.278C1203.43 416.492 1215.02 397.389 1223.12 382.918L1257 318.666C1260.48 319.534 1263.08 311.141 1267.43 321.271L1272.64 533.998 1337.79 413.308C1339.53 413.597 1342.13 405.349 1343 414.176L1313.46 586.094C1319.26 576.254 1326.06 560.77 1330.84 556.573 1334.89 558.02 1340.97 556.139 1343 560.914 1336.92 604.617 1328.81 664.818 1324.76 692.024L1316.07 751.934C1313.32 749.474 1311.58 747.738 1309.34 745.639L1307.33 743.899 1305.96 745.665 1305.85 751.026C1305.74 756.548 1305.65 761.92 1305.65 766.696 1299.57 801.137 1281.32 868.573 1269.16 919.512 1261.89 937.311 1253.47 935.249 1245.2 935.67L1237.73 937.565 1223.22 986 1226.02 929.993 1179.1 931.394 1172.8 924.394 1152.49 924.394 1177 855.09 1158.09 852.29 1149.68 841.09 1148.29 824.989 1154.58 813.788 1155.28 810.988 1147.58 813.088 1115.36 822.189 1110.46 812.388 1107.81 806.03 1101.51 805.768 1075.45 787.534C1065.46 792.888 1045.99 809.89 1028.33 822.046 1024.86 819.73 1020.73 827.196 1017.25 824.88 1013.92 819.67 1002.77 799.69 998.136 791.007 990.463 791.586 971.497 801.426 958.177 806.636 949.346 808.662 941.383 809.53 932.986 810.978L926.853 786.457 919.255 788.209 892.893 782.481 884.87 764.151 692.314 860.384C687.92 861.721 685.437 858.857 681.999 858.093 678.178 858.475 676.268 853.511 676.268 853.511 674.549 850.265 673.211 843.582 671.683 838.617 670.537 833.08 670.155 825.633 669.391 819.141 670.155 811.504 673.211 800.047 675.122 790.5 673.211 788.973 663.66 796.61 657.929 799.666L570.82 861.53C563.37 864.967 563.943 860.003 560.505 859.239L560.505 851.219C563.752 839.572 573.495 809.976 579.99 789.355 579.799 786.491 573.877 791.646 570.82 792.792 552.482 803.484 508.927 833.271 477.981 853.511L448.18 869.55C446.987 869.215 446.103 868.38 445.414 867.232L444.327 864.385 440.302 864.507 440.157 869.55C437.865 871.459 431.752 868.786 427.549 868.404L422.965 853.511 428.695 831.743 379.41 860.384C374.253 861.53 372.533 856.566 369.095 854.656L375.972 842.054 351.902 854.656 331.271 854.656 334.71 812.268 264.793 834.035 259.063 816.85C261.355 811.504 269.76 800.811 275.109 792.792 276.064 789.164 275.873 785.154 276.255 781.335L178.831 797.374C178.449 796.372 178.21 794.773 178.061 792.801 178.028 791.845 177.995 790.888 177.963 789.932L177.589 789.988 177.945 789.414 177.828 785.99C177.78 781.001 177.876 775.416 177.685 771.025L158.2 758.423 161.497 755.34 160.08 754.986 171.771 745.733 193.731 725.199 277.401 650.732 277.401 643.859 210.924 646.15C207.676 641.758 207.103 630.111 205.193 622.091 199.271 620.373 184.562 620.564 174.246 619.8L176.538 598.033 145.592 600.324C141.007 598.033 144.064 590.395 143.3 585.431L262.501 518.984C275.109 511.919 277.019 506 284.278 499.508L287.809 494.467 287.545 493.873 288.311 493.751 292.301 488.052 357.633 475.45C364.51 473.54 359.925 469.34 361.072 466.285L226.97 466.285C222.672 465.616 223.436 464.662 225.466 463.635L226.534 463.095 225.913 463.071 227.112 462.803 231.555 460.556 394.31 425.042 458.496 412.44 359.925 378.07C352.666 375.588 359.925 375.015 359.925 373.488L400.041 365.468 325.54 327.662 327.833 318.497 562.339 327.906 571.563 318.683C570.485 317.713 573.36 312.792 572.282 311.822 571.327 307.813 574.259 295.203 574.259 289.856L577.697 278.4 586.867 278.4 700.337 302.458C725.935 307.995 738.543 312.387 757.646 317.351 761.466 317.924 757.646 313.533 757.646 311.623L726.699 271.526 735.019 260.185 735.073 260.062 735.11 260.062 739.307 254.341 747.33 256.633 782.861 274.963 788.737 277.36 778.362 247.467C777.638 241.39 776.262 233.539 775.213 226.575L774.443 220.555 774.293 220.16 772.892 216.659 773.592 215.96 774.007 216.155Z" fill="#FFFFFF" fill-rule="evenodd"/><path d="M325.275 588.931 349.085 584.028 146 591.032 172.612 574.225 181.015 568.622 181.715 568.622 223.733 569.323 337.881 560.919 414.213 565.12 416.314 567.222 417.714 570.023 457.631 567.921 484.942 568.622C489.611 569.556 491.479 572.591 490.544 577.726L489.844 579.127 488.444 581.227 379.898 586.13 325.275 589.631 325.275 588.931M319.673 497.193 289.56 499.994 286.759 493.691 356.788 482.486 319.673 497.193M454.13 452.373 225.133 462.877 358.19 438.368 482.141 431.364 447.827 422.261 447.827 420.86 496.848 411.757 364.492 373.941 469.536 390.747 473.038 391.448 469.536 390.048 470.237 387.946C495.446 393.083 519.49 401.019 542.366 411.757L557.072 415.958 590.687 422.261C597.689 423.194 603.992 425.762 609.595 429.964L611.696 432.766 741.951 438.368 454.13 452.373M753.855 322.119 792.371 330.523 741.951 278.701 751.755 278 897.416 396.35 1043.78 442.569 1125.01 398.451 1129.91 376.042 1121.51 501.394 1135.52 492.29 1148.12 498.593 1157.92 366.237 1195.04 448.872 1162.82 521.703 1206.24 580.527 1260.17 373.24 1262.97 527.304 1251.06 553.216 1246.16 556.717 1236.36 583.329 1223.05 661.061 1202.74 710.081 1223.05 707.98 1230.05 712.882 1233.56 720.585 1298.68 630.948 1292.38 663.162 1315.49 609.239 1333 574.925 1307.08 742.995 1237.06 833.333 1272.08 735.993 1264.37 742.295 1212.55 858.543 1218.15 863.445 1207.65 895.659 1217.45 898.46 1257.37 852.241 1263.67 848.039 1222.35 986 1225.15 929.973 1178.23 931.374 1171.93 924.372 1151.63 924.372 1176.13 855.042 1157.22 852.241 1148.82 841.037 1147.42 824.93 1153.72 813.725 1154.42 810.924 1146.72 813.024 1114.5 822.129 1109.6 812.324 1106.1 803.92 1086.5 790.615 1085.09 774.508 1020.67 818.627 1015.07 819.328 1004.56 785.713 933.83 806.722 933.83 793.416 996.156 778.71 932.431 745.096 931.73 738.093 941.534 726.188 931.73 725.488 925.427 736.693 865.202 709.381 933.83 689.073 828.786 681.369 733.547 749.298 684.526 791.315 702.734 763.304 564.076 853.641 598.39 765.405 539.565 804.621 568.277 746.497 496.147 776.61 449.927 864.146 479.34 777.309 426.818 864.847 428.919 851.541 431.019 847.339 472.337 775.909 455.53 794.117 454.13 793.416 374.996 857.143 385.5 841.037 384.1 829.832 389.002 823.529 336.48 848.039 336.48 800.419 264.349 827.731 297.263 768.206 190.819 787.813 409.31 698.877 413.512 703.779 435.221 704.479 532.563 588.931 438.023 741.595 480.741 727.589 431.72 755.6 434.521 707.28 310.569 765.405 277.656 810.223 336.48 787.114 387.602 791.315 494.046 722.687 499.649 726.188 505.251 719.185 717.44 647.756 690.829 597.334 994.756 674.367 883.41 568.622 689.428 594.533 685.227 586.13 723.043 582.628 723.043 565.12 398.806 508.397 622.2 600.836 386.201 508.397 400.207 497.892 660.716 533.607 577.381 481.086 582.984 469.881 708.336 511.898 893.914 537.109 920.525 530.106 760.859 446.071 809.879 423.661 1076.69 658.96 965.344 438.368 824.585 404.053 820.383 366.237 753.855 322.119M882.709 760.503 682.425 857.143 691.528 839.635 697.131 829.131 708.336 824.229 730.746 815.125 869.404 747.197C875.006 747.197 879.207 749.298 882.009 753.499L883.41 755.6 889.012 757.001 882.709 760.503M209.026 746.497 173.311 758.401 159.306 754.901 314.071 632.349 283.958 659.66 253.845 691.173 225.834 723.387 209.026 746.497M315.471 629.547 214.629 643.553 216.029 633.049 325.976 604.337 346.985 602.237 317.572 628.848 315.471 629.547M965.344 600.135 975.848 618.343 1068.99 729.689 1068.99 693.974 1005.26 627.447 993.356 623.245 983.552 607.139 965.344 600.135M1113.8 616.942 1106.81 612.04 1109.6 687.672 1113.8 616.942M1198.54 671.565 1141.12 746.497 1142.51 712.882 1166.32 631.649 1124.31 731.79 1123.61 767.506 1136.22 780.811 1171.23 740.894 1198.54 671.565M790.271 681.369 823.184 669.465 753.855 647.055 790.271 681.369M635.505 710.782 627.802 705.88 456.23 771.007 467.435 775.208 484.242 768.206 491.946 771.707 572.479 738.794 615.898 726.188 635.505 710.782M650.912 710.782 607.494 795.518 706.936 740.894 762.959 687.672 744.051 682.77 650.912 710.782" fill="#DDDDDD" fill-rule="evenodd"/><path d="M181.107 568.784 180.408 568.784 172.006 574.386 145.402 591.19 348.436 584.188 324.632 589.09 316.23 590.489 316.931 590.489 295.927 593.991 269.322 598.892 241.318 600.291 206.312 607.993 173.406 619.196 325.332 604.493 215.413 633.2 214.013 643.702 314.83 629.698 314.83 631.099 313.43 632.499 158.704 755.028 172.706 758.528 208.412 746.626 176.207 790.036 190.209 787.935 296.627 768.331 263.721 827.845 335.834 800.539 335.834 848.149 388.343 823.643 383.442 829.945 384.842 841.148 374.34 857.252 453.454 793.536 449.252 800.539 442.952 809.64 434.551 827.144 428.95 846.75 428.249 851.651 426.149 864.954 478.658 777.433 449.252 864.253 538.868 804.739 597.678 765.53 563.372 853.751 701.995 763.43 683.792 791.436 673.291 818.742 672.591 827.144 674.69 836.246 676.091 837.647 676.792 837.647 690.793 815.241 706.197 790.736 717.398 773.932 731.4 759.229 695.695 829.245 690.793 839.747 681.692 857.252 881.926 760.63 895.928 753.627 891.028 767.631 893.828 759.929C902.696 764.597 905.963 772.298 903.629 783.034L933.034 783.034 933.034 793.536 933.034 806.839 1003.74 785.835 1014.25 819.443 1014.95 821.543 1019.85 818.742 1084.26 774.632 1085.66 790.736 1105.26 804.039 1108.76 812.441 1103.16 811.741 1075.86 793.536 1017.75 829.945 995.344 797.037 982.043 803.339 970.14 809.64 968.741 810.34 958.938 815.241 949.137 817.342 930.234 812.441 926.733 793.536 883.327 790.036 876.325 773.932 681.692 872.655 664.189 843.248 666.989 804.039 565.472 869.154 554.971 862.853 571.774 802.639 448.553 881.057 421.949 878.257 418.448 845.349 377.141 872.655 363.138 860.752 331.633 862.153 324.632 822.243 259.521 841.847 254.62 822.943 272.123 790.736 173.406 804.739 172.006 773.932 148.202 759.929 271.423 652.104 207.012 655.605 204.212 632.499 165.005 628.999 167.805 610.794 140.5 604.493 137.001 584.188 276.324 500.868 279.125 485.465 337.934 473.563 218.214 474.963 214.013 461.66 439.451 410.548 354.738 382.541 355.437 367.838 383.442 364.337 321.832 330.729 323.231 316.726 564.772 318.826 573.874 272.616 747.503 304.123 720.198 267.715 737.001 247.41 777.608 267.015 772.708 220.103 811.213 321.627 798.612 306.924 784.609 291.52 769.907 278.917 751.704 268.415 736.301 260.713 734.201 260.013 733.5 260.013 731.4 264.914 732.101 268.415 741.203 278.917 791.611 330.729 753.104 322.327 575.974 283.818 575.974 332.129 540.968 330.729 531.167 330.729 331.633 323.028 455.554 383.942 468.856 390.244 468.856 390.943 363.838 374.14 496.161 411.949 447.152 421.05 445.753 421.751 357.538 438.555 224.515 463.059 453.454 452.557 386.943 472.862 356.137 482.664 286.125 493.867 288.926 500.169 319.031 497.368 291.726 509.971 260.922 524.675 230.816 540.078 200.711 556.182 181.107 568.784M772.007 215.903 770.607 204 1117.16 380.441 1134.67 310.424 1151.47 313.225 1197.68 419.65 1255.79 313.925 1272.59 318.126 1278.19 509.271 1336.3 407.747 1351 409.847 1330.7 552.681 1347.51 558.982 1334.2 678.71 1320.9 794.937 1311.1 837.647 1277.49 954.574C1261.63 1004.98 1247.39 1042.8 1234.79 1068L1312.5 807.54 1291.5 836.946 1306.19 743.125 1332.1 575.086 1333.5 563.883 1314.59 609.394 1291.5 663.307 1297.79 631.099 1338.4 418.95 1266.99 552.681 1262.09 561.783 1262.09 527.475 1259.29 373.439 1258.58 325.128 1194.17 449.057 1157.07 366.437 1137.47 320.927 1129.06 376.24 1124.17 398.645 963.84 310.424 961.739 309.024C945.87 301.556 933.501 295.488 924.633 290.82 911.564 283.818 900.129 277.983 890.327 273.316L860.922 259.312 831.517 243.909 772.007 215.903" fill="#888888" fill-rule="evenodd"/><path d="M1235.29 1068 1217.08 1075 1221.98 986.166 1263.29 848.365 1256.99 852.561 1217.08 898.727 1207.28 895.929 1217.78 863.753 1212.18 858.857 1263.99 742.742 1271.69 736.447 1236.68 833.675 1306.7 743.442 1292 837.173 1313 807.794 1235.29 1068M1262.58 528 1262.58 562.276 1263.99 562.974 1222.67 661.602 1235.98 583.96 1245.78 557.379 1250.68 553.882 1262.58 528M965.019 600.746 983.223 607.742 993.025 623.83 1004.92 628.027 1068.64 694.477 1068.64 730.152 975.521 618.934 965.019 600.746M1113.45 617.535 1109.25 688.183 1106.46 612.638 1113.45 617.535M1198.17 672.095 1170.87 741.343 1135.86 781.214 1123.26 767.924 1123.96 732.25 1165.96 632.224 1142.16 713.364 1140.76 746.939 1198.17 672.095M789.979 681.887 753.569 647.613 822.885 669.996 789.979 681.887M635.242 711.265 615.638 726.654 572.228 739.245 491.709 772.12 484.008 768.624 467.203 775.618 456.001 771.421 627.54 706.369 635.242 711.265" fill="#AAAAAA" fill-rule="evenodd"/></g></svg>