<svg width="1761" height="1761" xmlns="http://www.w3.org/2000/svg" xmlns:xlink="http://www.w3.org/1999/xlink" overflow="hidden"><defs><clipPath id="clip0"><rect x="0" y="0" width="1761" height="1761"/></clipPath></defs><g clip-path="url(#clip0)"><path d="M454.608 1191.09 454.608 1191.09 450.77 1197.59ZM1364.71 1102.3 1364.03 1115.22 1347.22 1124.27 1364.03 1115.22ZM1248.21 1101.62 1259.65 1152.44 1253.93 1156.02 1267.51 1193.95 1267.51 1193.95 1253.93 1156.02 1259.65 1152.44 1248.21 1101.62ZM364.523 1097.33 331.635 1140.27 364.523 1097.33ZM1354.74 1067.99 1354.74 1067.99 1364.75 1101.62 1364.75 1101.62ZM1404.07 999.995 1406.21 1058.68 1404.07 999.995ZM350.224 984.25 314.477 1097.33 314.477 1097.33ZM1241.77 835.384 1241.77 835.384 1442.68 959.916 1467.7 1010.73 1467.7 1010.73 1442.68 959.916ZM402.417 832.521 402.416 832.521 421.72 838.963 435.304 881.189 1235.34 852.561 1236.77 841.825 1235.34 852.56 435.304 881.188 421.72 838.962ZM407.421 799.598 288.738 1001.43 276.584 1056.54 276.584 1056.54 288.738 1001.43 407.421 799.599 416.715 801.746 416.715 801.746ZM398.127 786 431.015 796.736 426.725 822.501 435.304 831.805 446.028 864.012 1223.19 836.099 1230.34 823.932 1245.35 818.922 1453.4 947.749 1482 1007.15 1471.28 1022.18 1419.08 1014.31 1420.51 1060.11 1412.65 1068.7 1369.75 1065.84 1371.18 1125.24 1323.28 1151.01 1308.98 1151.01 1269.66 1128.11 1274.66 1151.01 1271.09 1158.17 1280.38 1198.96 1265.37 1206.12 1183.86 1166.04 463.188 1202.54 446.744 1219 381.683 1203.97 370.958 1193.95 371.673 1151.72 326.631 1151.01 317.336 1138.84 335.925 1108.78 310.902 1108.07 300.893 1098.76 303.752 1073 263 1056.54 276.584 991.407Z" fill="#AAAAAA" fill-rule="evenodd"/><path d="M1441.99 960.837 1467.02 1011.5 1403.39 1000.79 1405.54 1059.3 1364.79 1053.6 1354.06 1068.58 1364.07 1102.12 1363.36 1115.67 1315.46 1141.36 1247.55 1102.12 1258.98 1152.78 1253.26 1156.34 1266.85 1194.16 1186.07 1154.2 454.022 1191.31 444.729 1207.01 383.963 1192.73 386.108 1140.65 331.062 1140.65 363.946 1097.84 313.904 1097.84 349.649 985.097 326.057 1041.47 309.615 1040.04 297.462 1062.87 276.016 1057.16 288.169 1002.22 406.84 801.005 416.133 803.146 401.836 833.828 421.137 840.25 434.72 882.348 1234.68 853.807 1236.11 843.104 1241.11 836.682 1441.99 960.837" fill="#AAAAAA" fill-rule="evenodd"/><path d="M1442.69 960.921 1241.79 836.389 1236.79 842.83 1235.36 853.566 435.32 882.194 421.735 839.967 402.432 833.526 416.731 802.751 407.436 800.603 288.754 1002.43 276.6 1057.54 298.048 1063.27 310.202 1040.36 326.646 1041.8 350.24 985.255 314.492 1098.34 364.539 1098.34 331.651 1141.28 386.703 1141.28 384.558 1193.52 445.329 1207.84 454.624 1192.09 1186.74 1154.88 1267.53 1194.96 1253.94 1157.02 1259.66 1153.45 1248.22 1102.63 1316.15 1141.99 1364.05 1116.23 1364.76 1102.63 1354.75 1068.99 1365.48 1053.96 1406.23 1059.69 1404.09 1001 1467.72 1011.74 1442.69 960.921M1245.37 819.928 1453.42 948.754 1482.02 1008.16 1471.29 1023.19 1419.1 1015.31 1420.53 1061.12 1412.67 1069.71 1369.77 1066.85 1371.2 1126.25 1323.3 1152.01 1309 1152.01 1269.67 1129.11 1274.68 1152.01 1271.1 1159.17 1280.4 1199.97 1265.38 1207.12 1183.88 1167.04 463.203 1203.54 446.759 1220.01 381.698 1204.98 370.974 1194.96 371.689 1152.73 326.646 1152.01 317.352 1139.85 335.941 1109.79 310.917 1109.07 300.908 1099.77 303.768 1074 263.015 1057.54 276.6 992.412 398.142 787.005 431.03 797.741 426.74 823.506 435.32 832.81 446.044 865.017 1223.2 837.104 1230.35 824.937 1245.37 819.928" fill="#888888" fill-rule="evenodd"/></g></svg>
