<svg width="1761" height="1761" xmlns="http://www.w3.org/2000/svg" xmlns:xlink="http://www.w3.org/1999/xlink" overflow="hidden"><defs><clipPath id="clip0"><rect x="0" y="0" width="1761" height="1761"/></clipPath></defs><g clip-path="url(#clip0)"><path d="M1262.53 1065.77 1261.07 1078.87 1261.07 1078.87 1262.53 1065.77 1275.24 1088.24ZM270.52 1026.3 270.52 1026.3 266.496 1035.2 266.497 1035.2ZM1169.63 999.508 1184.85 1068.29 1169.63 999.509ZM1261.8 996.616 1266.89 1011.9 1296.72 1103.62 1284.36 1104.35 1284.36 1104.35 1296.73 1103.63 1266.89 1011.9 1261.8 996.617 1293.81 1003.17 1373.85 1078.15 1373.85 1078.15 1293.81 1003.17ZM1338.2 995.888 1342.56 1003.9 1332.38 1008.26 1342.56 1003.9ZM240.226 993.008 234.484 1003.17 234.484 1003.17 240.226 993.008ZM1435.1 992.135 1435.53 998.105 1435.1 992.135ZM1433.56 992.033 1435.69 1000.26 1422.59 1003.9 1418.23 1005.35 1416.05 1004.62 1416.05 1004.62 1418.23 1005.35 1422.59 1003.9 1435.69 1000.26 1435.69 1000.26 1433.56 992.033ZM1464.79 988.911 1464.79 988.913 1464.79 1008.99 1464.79 1008.99ZM1129.96 983.68 1189.77 1090.52 1189.77 1090.52ZM290.378 982.369 290.378 982.369 276.642 1012.76 274.166 1018.23 274.166 1018.23 276.642 1012.76ZM1390.62 977.079 1394.22 997.344 1389.13 1001.71 1377.48 991.521 1389.13 1001.71 1394.22 997.345 1390.62 977.079ZM1066.81 974.778 1065.36 988.609 1064.99 989.348 1065.36 988.609ZM1298.73 969.501C1298.85 969.864 1300.12 971.139 1302.55 973.322L1298.73 969.501ZM1349.84 962.403 1342.56 973.322 1349.84 962.403ZM1306.07 958.358 1317.82 971.138 1306.07 958.358ZM376.358 956.579 305.785 1091.25 305.785 1091.25 376.358 956.581ZM940.692 953.014 940.692 953.015 979.508 1017 979.508 1017ZM972.96 947.116 972.96 947.116 1024.44 1019.54ZM373.324 939.583 373.323 939.585 370.537 947.116 355.259 984.241 370.538 947.116ZM232.283 937.913 208.291 987.881 197.378 986.425 197.378 986.425 208.291 987.881 232.283 937.913ZM871.871 930.99 871.871 930.99 871.283 934.013ZM411.281 929.645 411.281 929.645 413.656 934.397ZM1010.82 928.876 1010.82 928.877 1021.71 967.498 1020.48 969.132 1021.71 967.498ZM874.334 927.968 874.334 927.968 858.005 984.969 852.912 981.33 858.005 984.969ZM1018.8 924.549 1046.44 1050.48 1046.44 1050.48 1018.8 924.55ZM879.141 911.189 879.14 911.19 877.931 915.413 877.931 915.414ZM441.839 904.167 364.717 1097.8 364.717 1097.8 441.839 904.169ZM1081.37 896.887 1077.73 1039.56 1077.73 1039.57 1081.37 896.888ZM825.774 894.584 825.773 894.585 804.893 960.947 788.159 962.403 782.781 941.649 788.159 962.403 804.893 960.947ZM700.851 892.52 647.739 1008.26 647.739 1008.26 700.851 892.521ZM765.116 889.645 726.316 974.778 712.492 972.594 712.492 972.594 726.316 974.778 765.116 889.646ZM458.573 889.608 449.842 924.549 443.294 957.307 449.842 924.55ZM1453.44 886.456 1453.44 886.456 1486.62 920.182 1463.34 910.718 1463.34 919.031 1463.34 919.033 1463.34 910.719 1486.62 920.182 1501.17 926.005 1486.62 920.182ZM521.143 878.689 449.115 996.616 434.563 992.976 434.563 992.977 449.115 996.617 521.143 878.689ZM1046.44 877.961 1055.17 880.873 1065.36 925.277 1069.73 936.925 1065.36 925.277 1055.17 880.872ZM1058.25 872.452 1058.81 881.601 1058.81 881.601 1058.26 872.452ZM641.919 870.681 538.605 1046.12 531.329 1048.3 531.329 1048.3 538.605 1046.12ZM678.773 868.249 664.473 891.063 664.473 891.064ZM747.026 861.789 748.142 886.696 747.026 861.79ZM698.587 834.855 697.284 837.257 698.587 834.855ZM535.45 825.82 535.45 825.82 532.148 835.199ZM257.765 808.806 243.942 829.916 243.942 829.916 182.828 920.18 182.827 920.182 243.942 829.916 257.765 808.807ZM282.155 782.863 253.401 821.908 282.155 782.864ZM1418.96 740.379 1418.96 740.38 1462.96 804.197 1483.71 834.284 1442.24 794.975 1435.57 789.21 1435.57 789.21 1442.24 794.975 1483.71 834.284 1502.62 861.218 1464.79 837.924 1464.79 837.923 1448.79 827.732 1448.79 827.733 1464.79 837.924 1502.62 861.218 1483.71 834.284 1462.96 804.197ZM325.061 714.381 289.051 744.018 277.462 758.329 289.051 744.019 325.061 714.381ZM276.682 698.886 174.826 803.707 174.824 803.711 276.682 698.886ZM310.15 689.422 309.827 689.746 310.15 689.423ZM371.942 668.69 358.278 677.185 371.942 668.69ZM1371.66 665.4 1370.39 668.268 1371.66 665.4 1405.13 687.966ZM334.597 663.585 304.329 695.246 304.337 695.238ZM318.153 610.076 204.655 695.973 204.654 695.974 318.152 610.077ZM1308.37 605.708 1308.37 605.709 1334.56 620.995 1335.29 627.547 1334.56 620.995ZM360.352 580.958 360.352 580.959 363.262 591.149ZM461.567 576.118 436.018 598.428 326.884 696.702 326.884 696.702 436.018 598.429ZM1348.36 561.511 1350.56 564.943 1462.61 730.915 1517.9 813.173 1492.82 794.718 1517.9 813.174 1462.61 730.916 1350.56 564.943ZM1344.02 554.752 1344.02 554.752 1439.33 614.444 1384.76 557.664 1439.33 614.444ZM498.274 527.229 457.117 555.48 385.089 615.9 457.118 555.48ZM570.235 500.768 569.89 500.884 543.698 513.987 543.027 513.316 543.697 513.987 569.89 500.884 570.235 500.769ZM1042.61 455.622 1042.61 455.622 1117.74 475.405 1200.69 502.34 1277.08 543.105 1349.83 587.509 1349.84 587.509 1277.08 543.104 1200.69 502.339 1117.74 475.405ZM576.574 452.996 566.252 457.935 538.068 471.421 566.252 457.935ZM691.393 412.802 642.646 432.456 565.524 468.854 489.858 507.435 467.419 522.115 489.858 507.435 565.524 468.854 642.646 432.457 691.393 412.802 697.941 414.986ZM1031.89 408.434 1063.9 416.442 1095.19 425.905 1155.58 447.743C1193.9 462.787 1229.55 481.472 1262.53 503.796L1293.81 526.362 1310.55 538.008 1310.55 538.009 1293.81 526.362 1262.53 503.796C1229.55 481.472 1193.9 462.787 1155.58 447.743L1095.19 425.905 1063.9 416.442ZM701.579 401.155 675.386 404.794 649.194 408.434 675.386 404.795ZM749.598 395.331 758.164 396.809 758.164 396.809ZM913.481 394.603 899.262 399.739 899.262 399.739ZM884.964 377.278 871.828 380.044 871.828 380.044ZM746.688 332 765.604 333.456 801.255 337.096 828.175 342.191 847.819 348.743 860.187 356.022 907.479 350.927 953.315 349.471 1038.44 357.478C1065.6 358.934 1092.52 363.302 1119.2 370.581L1193.41 398.243 1244.34 424.449 1306.18 468.854 1361.48 514.715 1410.22 563.488 1454.61 613.716 1452.42 621.723 1440.78 631.187 1393.49 604.98 1531 815.357 1522.27 827.733 1480.07 805.166 1515.72 862.674 1508.45 875.777 1485.89 869.226 1513.54 933.285 1498.99 942.021 1477.16 933.285 1472.79 1022.1 1456.06 1022.1 1445.88 1010.45 1406.59 1019.91 1398.58 1011.9 1380.39 1016.27 1364.39 1000.26 1386.22 1083.97 1370.94 1093.43 1282.17 1016.27 1309.09 1108.72 1304.73 1116 1272.72 1116 1209.06 1026.44 1204.51 1025.71C1201.72 1024.92 1199.01 1023.32 1192.03 1019.24 1190.94 1018.61 1190.24 1017.46 1189.35 1016.57L1184.46 1015.34 1198.5 1102.9 1179.59 1102.9 1094.46 952.94 1086.46 1057.04 1072.64 1057.76 1058.08 1035.93 1055.17 1062.86 1036.99 1063.59 991.149 1000.98 987.511 1029.37 969.322 1029.37 931.079 966.965 927.432 968.435 919.414 965.76C915.189 964.351 913.867 958.772 911.397 955.064 910.292 953.405 909.712 951.446 908.724 949.716 907.927 948.32 906.984 947.012 906.051 945.705 902.659 940.954 898.781 936.559 896.697 930.997 896.052 929.277 895.759 927.443 895.36 925.649 894.868 923.431 895.04 920.997 894.024 918.964L891.398 916.337 865.28 997.345 852.912 999.528 839.816 990.065 825.992 937.653 809.258 975.506 778.7 974.778 762.694 928.189 727.771 990.065 701.579 982.786 692.12 944.204 652.832 1022.1 635.371 1018.46 628.095 920.91 546.608 1058.49 522.598 1061.4 508.047 926.734 453.48 1011.18 421.467 1001.71 369.81 1110.9 351.621 1106.54 354.531 1027.92 309.423 1105.81 291.233 1097.07 314.799 980.307 305.231 979.509 270.862 1049.76 252.762 1043.24 252.584 1043.31C240.608 1035.32 249.666 1042.92 247.238 1012.56 247.092 1010.72 246.3 1009 245.902 1007.21L245.149 1003.44 233.756 1018.46 218.477 1002.44 189.375 1000.98 177.006 984.969 198.105 921.638 190.102 933.285 179.189 935.469 169.731 929.645 167.548 918.726 233.029 764.401 174.096 818.997 161 811.718 245.397 682.871 196.65 709.805 188.647 696.702 204.654 677.775 222.115 657.393 260.676 614.444 305.057 568.583 391.637 487.053C437.717 449.2 487.191 416.685 540.06 389.508L629.55 353.111C666.899 340.007 705.944 332.971 746.688 332Z" fill="#FFFFFF" fill-rule="evenodd"/><path d="M1189.2 468.84 1202.29 483.371 1253.2 545.127 1275.02 575.641 1235.02 548.033 1235.02 1157.6 1189.2 1060.97 1189.2 1061.69 1188.47 1060.24 1207.38 1191.02 1189.2 1177.94 1188.47 1177.94 1103.38 1008.66 1095.38 1111.1 1090.29 1110.37 1081.56 1110.37 1067.02 1088.57 1064.11 1115.46 1045.93 1116.18 1000.11 1053.7 996.47 1082.04 978.289 1082.04 903.379 959.978 874.289 1050.07 861.925 1052.25 848.834 1042.8 835.016 990.492 818.289 1028.27 787.743 1027.55 771.743 981.047 736.834 1042.8 710.652 1035.54 701.198 997.031 661.925 1074.77 644.47 1071.14 637.198 973.782 555.743 1111.1 531.743 1114 517.198 979.594 462.652 1074.77 432.107 1073.32 432.107 1074.04 430.652 1074.77 395.016 1175.03 395.016 590.898 400.834 581.453 432.107 534.955 506.289 467.387 549.198 443.412 638.652 407.085C675.986 394.007 715.016 386.985 755.743 386.016L774.652 387.469 810.289 391.101 837.198 396.187 856.834 402.726 869.198 409.991 916.47 404.906 962.289 403.453 1047.38 411.444 1090.29 416.53 1128.11 433.24 1189.2 468.84" fill="#000000" fill-rule="evenodd" fill-opacity="0.2"/><path d="M954.333 349.48 1039.46 357.488C1066.62 358.944 1093.54 363.312 1120.22 370.591L1194.43 398.253 1245.36 424.459 1307.2 468.864 1362.5 514.725 1411.24 563.497 1455.62 613.726 1453.44 621.733 1441.8 631.196 1394.51 604.99 1532.02 815.367 1523.29 827.742 1481.09 805.176 1516.74 862.684 1509.46 875.787 1486.91 869.235 1514.56 933.295 1500 942.03 1478.18 933.295 1473.81 1022.1 1457.08 1022.1 1446.89 1010.46 1407.6 1019.92 1399.6 1011.91 1381.41 1016.28 1365.41 1000.27 1387.23 1083.98 1371.95 1093.44 1283.19 1016.28 1310.11 1108.73 1305.75 1116.01 1273.73 1116.01 1180.6 984.979 1199.52 1102.91 1180.6 1102.91 1095.48 952.95 1087.48 1057.05 1073.65 1057.77 1059.1 1035.94 1056.19 1062.87 1038 1063.6 992.166 1000.99 988.528 1029.38 970.339 1029.38 895.4 907.089 866.297 997.354 853.929 999.538 840.833 990.075 827.009 937.662 810.275 975.516 779.718 974.788 763.711 928.199 728.788 990.075 702.596 982.795 693.137 944.214 653.849 1022.1 636.388 1018.46 629.112 920.92 547.625 1058.5 523.615 1061.41 509.064 926.743 454.497 1011.19 422.484 1001.72 370.827 1110.91 352.638 1106.55 355.548 1027.93 310.44 1105.82 292.251 1097.08 322.808 945.67 271.879 1049.77 253.69 1043.22 264.603 979.156 234.773 1018.46 219.494 1002.45 190.392 1000.99 178.023 984.979 199.122 921.648 191.119 933.295 180.206 935.479 170.748 929.655 168.565 918.736 234.046 764.411 175.113 819.007 162.017 811.728 246.414 682.881 197.667 709.815 189.664 696.712 205.671 677.785 223.132 657.402 261.693 614.454 306.074 568.593 392.654 487.063C438.734 449.209 488.208 416.695 541.077 389.518L630.567 353.12C667.916 340.017 706.961 332.981 747.705 332.01L766.621 333.466 802.272 337.105 829.192 342.201 848.836 348.753 861.204 356.032 908.496 350.936 954.333 349.48M1351.58 564.953 1345.03 554.762 1440.34 614.454 1385.78 557.674 1357.4 530.74 1293.38 479.783C1270.58 462.797 1247.06 447.269 1222.8 433.195L1174.06 410.628 1109.3 387.334C1073.9 376.658 1037.52 371.076 1000.17 370.591L948.512 369.863 886.669 377.142 809.548 364.768 760.801 353.848 710.599 351.664 658.942 362.584 605.102 380.054 537.439 413.54 480.689 446.298 429.76 484.151 370.827 532.195 314.078 583.88 259.51 639.932 205.671 695.984 319.171 610.086 175.841 803.72 277.699 698.896 183.844 920.192 244.959 829.926 258.783 808.816 254.417 821.919 193.302 981.34 198.395 986.435 209.308 987.891 244.959 913.64 244.959 916.552 244.959 920.92 235.501 1003.18 304.619 880.883 267.513 1035.21 360.641 829.198 306.802 1091.26 377.375 956.589 365.734 1097.81 442.856 904.177 435.58 992.987 450.132 996.626 522.16 878.699 532.346 1048.31 539.622 1046.13 642.936 870.691 648.756 1008.27 701.868 892.53 713.509 972.604 727.333 974.788 768.804 883.794 789.176 962.413 805.91 960.957 830.647 882.338 853.929 981.34 859.022 984.979 891.762 870.691 980.525 1017.01 973.977 947.126 1047.46 1050.49 1019.81 924.559 1078.75 1039.58 1082.38 896.897 1190.79 1090.53 1168.24 988.619 1166.78 982.795 1150.77 910 1185.7 963.141 1262.09 1078.88 1263.55 1065.78 1285.37 1104.36 1297.74 1103.63 1267.91 1011.91 1262.82 996.626 1294.83 1003.18 1374.86 1078.16 1343.58 973.332 1350.85 962.413 1358.13 969.692 1378.5 991.531 1390.14 1001.72 1395.24 997.354 1387.23 952.221 1386.5 949.31 1398.87 973.332 1417.06 1004.63 1419.25 1005.36 1423.61 1003.91 1436.71 1000.27 1434.52 970.42 1465.81 1009 1465.81 984.979 1464.35 921.648 1464.35 910.729 1487.64 920.192 1502.19 926.015 1449.8 827.742 1465.81 837.934 1503.64 861.228 1484.73 834.294 1419.97 740.389 1518.92 813.184 1463.63 730.925 1351.58 564.953" fill="#888888" fill-rule="evenodd"/><path d="M245.402 829.862C243.948 819.692 246.614 808.796 253.401 797.173 263.582 777.318 275.944 759.642 290.489 744.146 304.063 730.102 319.092 717.753 335.575 707.099 338.484 705.646 338.484 706.857 335.575 710.731L335.575 712.911 305.76 752.863 254.856 821.871 259.219 808.796 245.402 829.862M245.402 916.304 266.491 860.37C277.156 834.704 289.761 809.28 304.305 784.098 322.728 753.105 343.574 722.596 366.845 692.571L385.025 671.505 403.205 650.44 328.303 696.93 437.383 598.865C470.35 567.387 505.983 539.057 544.282 513.876L545.009 514.602 571.188 501.527 595.186 493.537 641 479.735 561.735 519.687 523.193 543.658 479.561 574.894 508.649 556.734C537.737 539.3 568.037 523.561 599.549 509.517 643.666 489.662 687.784 472.228 731.9 457.216L736.99 456.49 752.262 451.405 744.262 459.396 744.99 460.848 744.99 462.301 712.266 484.093C678.33 507.338 642.697 527.435 605.367 544.385L572.643 560.366 505.013 589.422 587.187 538.573 614.821 521.866 700.63 476.103 646.817 498.621 593.731 523.319 516.648 566.903 481.743 590.875C453.625 615.088 427.687 641.481 403.932 670.053L388.661 693.298 345.756 761.58 391.57 708.552 417.749 679.496 476.652 627.195 464.29 644.629 431.566 704.92C459.684 670.537 491.196 639.544 526.102 611.94L566.825 582.158 654.817 534.215 630.819 558.186 550.827 646.081 481.743 738.335C461.381 768.843 446.837 800.563 438.111 833.494L435.202 842.937 412.659 929.379 415.567 935.19 405.386 964.246 393.024 991.123 390.115 993.302 385.752 977.321 391.57 959.888 399.569 927.2 407.568 898.87 423.567 842.937 413.386 834.946 371.935 946.812 356.664 983.859 349.392 993.302 344.302 989.671 350.846 948.265 352.301 936.643 371.208 848.022 377.025 827.682 377.025 826.229 379.207 818.239 392.297 787.73 374.844 785.551 347.937 816.786 340.666 802.984 353.028 792.815 339.938 800.079 339.211 773.202 266.491 915.577 258.492 919.936 245.402 920.662 245.402 916.304M1168.22 988.218C1158.52 993.06 1150.28 989.428 1143.5 977.321L1113.68 925.02 1089.68 886.521 1083.87 881.436 1087.5 869.087 1054.78 797.9 1059.87 881.436 1047.51 877.804 1056.23 880.71 1066.41 925.02 1070.78 936.643C1067.87 947.296 1066.9 959.888 1067.87 974.416L1066.41 988.218 1065.69 989.671 1058.41 962.793 1053.32 958.435 1034.42 924.294 1024.96 903.228C1020.6 891.606 1013.81 881.679 1004.6 873.446L988.602 858.918C976.482 791.12 955.878 725.501 926.79 662.062L874.431 553.102 830.799 471.744C885.582 502.253 934.547 541.479 977.694 589.422 1018.42 634.943 1051.87 683.854 1078.05 736.155L1096.96 776.108 1095.5 784.098 1088.96 790.636C1098.17 829.377 1111.98 866.908 1130.41 903.228L1152.22 952.624 1166.77 982.406 1168.22 988.218M1373.29 756.495C1382.02 764.727 1387.59 774.897 1390.02 787.004L1389.29 792.815 1387.84 794.268C1380.08 795.721 1374.5 792.815 1371.11 785.551 1362.87 770.054 1351.96 758.432 1338.39 750.684L1337.66 748.504C1337.17 747.052 1337.42 746.083 1338.39 745.599L1341.3 743.419 1346.39 741.967 1364.57 749.231 1373.29 756.495M1118.77 476.103 1201.67 502.98 1278.03 543.658 1350.75 587.969 1035.87 454.311 1118.77 476.103M1056.23 477.555 1144.22 521.866C1172.83 537.363 1201.43 554.554 1230.03 573.441L1306.39 630.827 1352.93 671.505 1357.29 694.024 1342.75 698.383 1264.94 650.44 1272.21 657.704 1192.22 585.063 1284.57 622.11 1225.67 582.884 1154.4 545.111 1198.76 558.913 1144.95 532.036C1124.59 520.897 1104.71 509.033 1085.32 496.442 1075.14 490.631 1065.44 484.336 1056.23 477.555M849.706 452.131 858.433 444.141 896.248 470.292 934.062 494.989 1008.96 543.658 1043.87 566.903 1073.68 593.054 1138.41 654.072 1159.49 678.77 1178.4 704.194 1211.85 757.221 1260.58 838.579 1235.12 855.286 1223.49 929.379C1188.1 883.858 1154.65 837.368 1123.13 789.909L1100.59 749.231C1088.47 719.69 1073.44 691.845 1055.5 665.694L1026.42 626.468 996.601 589.422 963.15 553.102 908.61 501.527 849.706 452.131M1032.96 409.273 1064.96 417.264 1096.23 426.707 1156.59 448.499C1194.88 463.511 1230.52 482.157 1263.48 504.433L1294.75 526.951 1311.48 538.573 1264.94 514.602 1218.4 490.631 1176.95 472.471 1132.59 458.669 1041.69 438.33 955.878 418.717 926.79 410 918.063 406.368 1032.96 409.273M879.522 482.64 843.162 463.027 854.797 466.659 879.522 482.64M1110.77 566.903 1160.95 603.95 1222.76 654.798 1270.76 702.741 1324.57 762.306 1351.48 795.721 1354.38 820.418 1297.66 743.419 1281.66 739.061 1274.39 755.042 1278.76 762.306 1055.5 531.309 1110.77 566.903M1336.2 627.921 1309.3 606.129 1335.48 621.384 1336.2 627.921M1257.67 914.851 1259.12 905.407 1264.94 912.672 1265.67 925.02 1274.39 927.2C1278.76 928.652 1282.39 931.074 1285.3 934.464L1318.75 970.784 1339.11 995.482 1343.48 1003.47 1333.3 1007.83 1323.11 1001.29C1303.24 984.828 1280.69 973.206 1255.48 966.426L1257.67 914.851M1312.93 861.823 1302.75 869.087 1219.13 732.523 1316.57 840.031 1312.93 861.823M1342.02 837.852 1344.93 843.663 1345.66 843.663C1361.66 858.676 1375.47 879.5 1387.11 906.134L1386.38 912.672 1380.56 911.945C1371.84 911.945 1364.57 906.86 1358.75 896.691 1347.6 878.773 1338.87 859.16 1332.57 837.852L1333.3 834.946 1342.02 837.852M1302.75 970.784C1298.39 967.878 1298.63 968.605 1303.48 972.963L1302.75 970.784M1328.21 927.926C1330.63 930.832 1330.14 933.011 1326.75 934.464L1322.39 932.285 1288.21 899.596 1294.03 887.248 1328.21 927.926M525.375 455.037 546.463 443.414C580.399 428.403 615.063 417.021 650.453 409.273L676.633 405.642 702.812 402.01 686.086 407.821 668.634 413.632 601.004 442.688 567.552 458.669 534.101 474.65 417.022 537.121 377.753 558.913 358.846 571.262 356.664 562.545 525.375 455.037M1017.69 971.51 1012.6 970.784C1003.87 954.803 997.329 937.127 992.965 917.756 989.572 903.712 991.511 891.848 998.783 882.163L1022.78 967.152 1020.6 970.058 1017.69 971.51M977.694 856.012 975.512 855.286C974.543 875.625 975.27 895.722 977.694 915.577 979.633 929.622 973.573 939.306 959.514 944.633L953.697 930.105 942.788 913.398 875.159 828.409 831.527 553.102 830.799 584.337 809.711 494.263 820.618 483.367 924.608 694.024 956.605 765.212C968.725 794.268 975.755 824.535 977.694 856.012M864.25 840.031C868.129 849.232 870.068 858.433 870.068 867.635L873.704 903.955C877.583 930.589 872.008 943.665 856.979 943.181L852.616 933.737 850.434 929.379 841.707 878.531 863.523 838.579 864.25 840.031M376.298 630.101 369.754 628.648 305.76 695.477 311.578 689.666 303.578 698.383 290.489 697.656 364.663 593.78 361.754 581.432 364.663 591.601 434.474 545.111 491.196 508.065 566.825 469.565 643.909 433.245 692.631 413.632 699.176 415.811 648.999 445.594C631.062 452.858 613.609 461.091 596.641 470.292L521.011 513.15 458.472 556.007 386.479 616.299 376.298 630.101M757.352 426.707 762.443 431.066 726.082 443.414 617.002 473.924 651.181 459.396C685.602 444.868 720.992 433.971 757.352 426.707M726.082 516.781 680.996 589.422 645.363 659.157 622.093 711.458 598.822 768.843 575.552 826.956 556.644 836.399 569.734 794.268 559.553 789.183 548.645 792.089 526.102 856.012 505.013 863.276 481.016 913.398 453.382 959.888 444.655 956.982 451.2 924.294 459.927 889.427 478.106 842.937 515.921 765.938 507.195 760.127 550.099 684.581 469.38 795.721 499.923 748.504 550.099 676.59 602.458 608.308 534.101 742.693 566.098 694.75 594.459 651.166 653.362 572.714 706.448 516.781 764.624 463.754 726.082 516.781M750.807 494.263 685.359 642.449 659.907 697.656 621.365 767.391 599.549 800.805 680.996 622.11 726.81 536.394 750.807 494.263M781.349 522.593 786.44 517.508 799.53 561.819 811.892 604.676 822.8 648.261 832.254 691.118 838.072 722.354C841.465 742.693 840.98 762.306 836.617 781.193 826.436 826.229 812.862 870.783 795.894 914.851L763.17 767.391 760.261 723.08 763.17 678.043 767.533 633.006 781.349 522.593M716.629 609.761 772.623 486.999 720.265 793.541 706.448 822.597 692.631 848.022 665.724 890.879 659.18 865.455C657.241 857.223 654.574 849.474 651.181 842.21L632.273 800.079 647.544 768.843 665.724 729.618 700.63 650.44 716.629 609.761M737.718 810.249 744.262 773.202 749.353 886.521 742.808 890.879 723.174 934.464 712.266 872.72 710.811 868.361 728.264 813.154 737.718 810.249M608.276 873.446 599.549 886.521 547.918 1010.01 542.1 897.417 531.192 899.596 609.73 852.38 608.276 873.446" fill="#FFFFFF" fill-rule="evenodd"/><path d="M886.66 377.483 872.84 380.394 864.839 396.406 887.387 399.317 837.926 402.228C803.497 396.406 769.553 387.672 736.094 376.027L813.923 406.595 750.641 395.678 808.831 418.968 780.463 432.068 774.645 448.08C782.403 444.684 789.919 441.045 797.193 437.163L773.917 472.825 783.373 472.825C790.162 461.665 798.89 454.146 809.558 450.264 831.865 441.53 855.14 434.979 879.386 430.613L914.3 432.068 866.294 416.057C896.843 397.618 930.545 387.915 967.398 386.944L1075.78 394.222 1101.96 401.501 1128.15 410.962 1155.79 422.607 1182.7 432.796 1235.8 455.358 1255.44 467.731C1290.35 496.358 1322.36 528.866 1351.45 565.257L1463.47 731.196 1406 688.256 1372.54 665.693 1369.64 672.244C1368.66 679.037 1371.33 686.315 1377.64 694.078L1419.82 740.657 1484.56 834.544 1443.1 795.243 1379.09 739.93 1332.54 702.084 1327.45 705.723 1327.45 707.179 1312.9 699.173 1297.63 690.439 1296.9 690.439 1295.44 691.894 1299.81 699.173 1323.08 720.279 1364.54 749.391 1346.36 742.113 1341.27 743.569 1338.36 745.752C1337.39 746.237 1337.15 747.208 1337.63 748.664L1338.36 750.847C1351.94 758.61 1362.85 770.255 1371.09 785.781 1374.48 793.059 1380.06 795.971 1387.82 794.515L1389.27 793.059 1390 787.237C1387.58 775.107 1382 764.918 1373.27 756.669L1465.65 838.184 1449.65 827.994 1502.02 926.248 1487.47 920.425 1395.82 827.266 1383.46 834.544 1388.55 842.55 1387.09 844.006 1392.18 866.568 1409.64 944.443 1423.46 1004.12 1419.1 1005.58 1398.73 973.555 1386.36 949.537 1387.09 952.449 1382 937.165C1379.09 941.047 1376.67 940.319 1374.73 934.981L1366.73 911.691 1351.45 908.78C1347.57 899.076 1341.02 892.769 1331.81 889.858L1339.09 923.336 1358 969.916 1350.72 962.638 1343.45 973.555 1374.73 1078.36 1294.72 1003.4 1262.71 996.845 1267.8 1012.13 1256.89 1004.85 1209.61 964.094 1168.15 928.431 1185.61 963.366 1150.7 910.236 1166.7 983.017 1152.15 953.177 1130.33 903.686C1111.9 867.296 1098.08 829.692 1088.87 790.876L1095.42 784.326 1096.87 776.32 1077.96 736.291C1051.77 683.889 1018.31 634.883 977.581 589.274 934.424 541.239 885.448 501.938 830.652 471.37L874.295 552.884 926.665 662.055C955.76 725.616 976.369 791.361 988.492 859.29L1004.49 873.846C1013.71 882.095 1020.5 892.041 1024.86 903.686L1034.32 924.792 1053.23 958.999 1058.32 963.366 1065.59 990.295 1066.32 988.839 1067.78 975.011C1066.81 960.455 1067.78 947.839 1070.69 937.165L1066.32 925.52 1056.14 881.124 1047.41 878.213 1059.77 881.852 1054.68 798.154 1087.41 869.479 1083.78 881.852 1089.6 886.946 1113.6 925.52 1143.42 977.922C1150.21 990.052 1158.45 993.691 1168.15 988.839L1190.7 1090.73 1082.32 897.135 1078.69 1039.79 1019.77 924.792 1047.41 1050.7 973.945 947.354 980.491 1017.22 891.752 870.935 859.02 985.2 853.928 981.561 830.652 882.579 805.922 961.182 789.192 962.638 768.825 884.035 727.365 975.011 713.545 972.827 701.907 892.769 648.809 1008.49 642.99 870.935 539.703 1046.34 532.429 1048.52 522.246 878.941 450.236 996.845 435.689 993.206 442.963 904.414 365.861 1098.01 377.499 956.816 306.944 1091.46 360.77 829.45 267.666 1035.42 304.762 881.124 235.661 1003.4 245.117 921.153 258.21 920.425 266.211 916.059 338.948 773.409 339.676 800.338 352.769 793.059 340.403 803.249 347.677 817.077 374.59 785.781 392.046 787.965 378.954 818.533 376.772 826.539 376.772 827.994 370.953 848.373 352.041 937.165 350.586 948.81 344.04 990.295 349.132 993.934 356.405 984.472 371.68 947.354 413.141 835.272 423.323 843.278 407.321 899.319 399.32 927.703 391.319 960.455 385.5 977.922 389.865 993.934 392.774 991.75 405.139 964.821 415.322 935.709 412.413 929.887 434.962 843.278 437.871 833.816C446.6 800.823 461.147 769.042 481.514 738.474L550.614 646.043 630.625 557.979 654.628 533.961 566.616 581.996 525.883 611.836C490.969 639.492 459.449 670.546 431.325 704.995L464.056 644.587 476.422 627.12 417.505 679.522 391.319 708.634 345.495 761.764 388.41 693.35 403.684 670.061C427.445 641.433 453.389 614.99 481.514 590.73L516.427 566.712 593.529 523.044 646.627 498.298 700.452 475.737 614.623 521.588 586.982 538.328 504.789 589.274 572.435 560.162 605.167 544.15C642.506 527.168 678.147 507.032 712.09 483.742L744.822 461.908 744.822 460.453 744.095 458.997 752.096 450.991 736.821 456.086 731.729 456.814C687.603 471.854 643.475 489.322 599.348 509.215 567.828 523.287 537.521 539.056 508.426 556.523L479.331 574.718 522.974 543.422 561.525 519.405 640.808 479.376 594.984 493.204 570.98 501.21 544.795 514.31 544.067 513.583C505.76 538.812 470.118 567.197 437.144 598.735L328.038 696.989 402.957 650.41 384.773 671.516 366.589 692.622C343.312 722.705 322.462 753.273 304.034 784.326 289.487 809.556 276.879 835.029 266.211 860.745L245.117 916.786 245.117 913.875 209.476 988.111 198.565 986.655 193.474 981.561 254.573 822.172 305.489 753.03 335.311 713.001 335.311 710.818C338.221 706.936 338.221 705.723 335.311 707.179 318.825 717.853 303.791 730.226 290.214 744.297 275.667 759.823 263.302 777.533 253.119 797.426 246.329 809.071 243.662 819.988 245.117 830.178L184.018 920.425 277.849 699.173 176.017 803.977 319.309 610.38 205.839 696.262 259.665 640.22 314.218 584.179 370.953 532.505 429.87 484.47 480.786 446.624 537.521 413.873 605.167 380.394 658.992 362.927 710.636 352.01 760.824 354.193 809.558 365.11 886.66 377.483M1056.14 477.192C1065.35 483.985 1075.05 490.293 1085.23 496.115 1104.63 508.731 1124.51 520.617 1144.88 531.778L1198.7 558.706 1154.33 544.878 1225.62 582.724 1284.53 622.025 1192.16 584.907 1272.17 657.688 1264.89 650.41 1342.72 698.445 1357.27 694.078 1352.91 671.516 1306.35 630.759 1229.98 573.262C1201.37 554.34 1172.76 537.115 1144.15 521.588L1056.14 477.192M1118.69 475.737 1035.77 453.902 1350.72 587.818 1277.99 543.422 1201.61 502.665 1118.69 475.737M1032.86 408.778 917.937 405.867 926.665 409.506 955.76 418.24 1041.59 437.891 1132.51 458.269 1176.88 472.097 1218.34 490.293 1264.89 514.31 1311.45 538.328 1294.72 526.683 1263.44 504.121C1230.46 481.802 1194.82 463.121 1156.52 448.08L1096.14 426.246 1064.87 416.784 1032.86 408.778M849.564 451.719 908.481 501.21 963.034 552.884 996.493 589.274 1026.32 626.392 1055.41 665.693C1073.35 691.894 1088.39 719.794 1100.51 749.391L1123.06 790.148C1154.58 837.698 1188.04 884.278 1223.43 929.887L1235.07 855.651 1260.53 838.911 1211.8 757.397 1178.34 704.267 1159.42 678.794 1138.33 654.049 1073.59 592.913 1043.77 566.712 1008.86 543.422 933.939 494.659 896.116 469.914 858.292 443.713 849.564 451.719M1336.18 627.848 1335.45 621.298 1309.26 606.014 1336.18 627.848M1110.69 566.712 1055.41 531.05 1278.71 762.492 1274.35 755.214 1281.62 739.202 1297.63 743.569 1354.36 820.716 1351.45 795.971 1324.54 762.492 1270.71 702.812 1222.71 654.776 1160.88 603.83 1110.69 566.712M879.386 482.287 854.656 466.275 843.018 462.636 879.386 482.287M1464.19 921.881 1465.65 985.2C1452.07 958.999 1442.62 931.827 1437.28 903.686L1432.92 886.946 1464.19 921.881M1434.37 970.644 1436.55 1000.48 1414.73 916.059 1434.37 970.644M1342 838.184 1333.27 835.272 1332.54 838.184C1338.84 859.533 1347.57 879.184 1358.72 897.135 1364.54 907.325 1371.82 912.419 1380.55 912.419L1386.36 913.147 1387.09 906.597C1375.45 879.911 1361.63 859.047 1345.63 844.006L1344.9 844.006 1342 838.184M1312.9 862.201 1316.54 840.367 1219.07 732.652 1302.72 869.479 1312.9 862.201M1257.62 915.331 1255.44 967.005C1280.65 973.798 1303.2 985.443 1323.08 1001.94L1333.27 1008.49 1343.45 1004.12 1339.09 996.117 1318.72 971.372 1285.26 934.981C1282.35 931.586 1278.71 929.159 1274.35 927.703L1265.62 925.52 1264.89 913.147 1259.07 905.869 1257.62 915.331M1328.17 928.431 1293.99 887.674 1288.17 900.047 1322.36 932.798 1326.72 934.981C1330.11 933.526 1330.6 931.342 1328.17 928.431M1302.72 971.372 1303.44 973.555C1298.6 969.188 1298.35 968.461 1302.72 971.372M1378.36 991.75 1386.36 995.389 1390 1001.94 1378.36 991.75M864.111 840.367 863.384 838.911 841.563 878.941 850.291 929.887 852.473 934.254 856.837 943.715C871.87 944.2 877.447 931.099 873.567 904.414L869.93 868.023C869.93 858.805 867.991 849.585 864.111 840.367M977.581 856.378C975.642 824.84 968.611 794.515 956.488 765.403L924.483 694.078 820.469 483.015 809.558 493.932 830.652 584.179 831.38 552.884 875.022 828.722 942.668 913.875 953.578 930.615 959.397 945.171C973.46 939.833 979.521 930.13 977.581 916.059 975.157 896.165 974.429 876.029 975.399 855.651L977.581 856.378M1017.59 972.099 1020.5 970.644 1022.68 967.733 998.675 882.579C991.402 892.284 989.462 904.171 992.856 918.242 997.22 937.649 1003.77 955.36 1012.5 971.372L1017.59 972.099M525.156 454.63 356.405 562.345 358.587 571.079 377.499 558.706 416.777 536.872 533.884 474.281 567.343 458.269 600.802 442.257 668.448 413.145 685.905 407.323 702.635 401.501 676.449 405.139 650.264 408.778C614.865 416.541 580.193 427.945 546.25 442.985L525.156 454.63M376.044 630.031 386.228 616.203 458.238 555.795 520.792 512.854 596.438 469.914C613.411 460.696 630.868 452.447 648.809 445.169L698.998 415.329 692.451 413.145 643.717 432.796 566.616 469.186 490.969 507.76 434.234 544.878 364.406 591.458 361.497 581.268 364.406 593.641 290.214 697.717 303.307 698.445 311.308 689.711 305.489 695.534 369.498 628.576 376.044 630.031M757.187 426.246C720.819 433.524 685.421 444.441 650.991 458.997L616.805 473.553 725.911 442.985 762.279 430.613 757.187 426.246M750.641 493.932 726.638 536.144 680.813 622.025 599.348 801.065 621.169 767.586 659.72 697.717 685.178 642.404 750.641 493.932M725.911 516.494 764.461 463.364 706.272 516.494 653.173 572.535 594.256 651.137 565.889 694.806 533.884 742.841 602.257 608.197 549.887 676.611 499.698 748.664 469.148 795.971 549.887 684.617 506.971 760.308 515.7 766.131 477.877 843.278 459.692 889.858 450.964 924.792 444.417 957.543 453.146 960.455 480.786 913.875 504.789 863.657 525.883 856.378 548.432 792.332 559.342 789.421 569.526 794.515 556.433 836.728 575.344 827.266 598.62 769.042 621.896 711.545 645.172 659.143 680.813 589.274 725.911 516.494M781.191 522.316 767.371 632.943 763.007 678.066 760.097 723.19 763.007 767.586 795.738 915.331C812.711 871.178 826.288 826.539 836.471 781.414 840.835 762.492 841.32 742.841 837.926 722.463L832.107 691.167 822.651 648.226 811.74 604.558 799.375 561.617 786.283 517.222 781.191 522.316M737.549 810.527 728.093 813.438 710.636 868.751 712.09 873.118 723.001 934.981 742.64 891.313 749.186 886.946 744.095 773.409 737.549 810.527M716.455 609.653 700.452 650.41 665.539 729.74 647.354 769.042 632.079 800.338 650.991 842.55C654.385 849.828 657.053 857.592 658.992 865.84L665.539 891.313 692.451 848.373 706.272 822.9 720.091 793.787 772.462 486.654 716.455 609.653M608.076 873.846 609.531 852.74 530.975 900.047 541.885 897.863 547.704 1010.67 599.348 886.946 608.076 873.846" fill="#DDDDDD" fill-rule="evenodd"/><path d="M1351.65 564.967C1322.54 528.595 1290.52 496.102 1255.59 467.488L1235.94 455.122 1182.82 432.57 1155.9 422.386 1128.24 410.747 1102.05 401.29 1075.85 394.016 967.424 386.741C930.554 387.711 896.837 397.41 866.274 415.839L914.302 431.843 879.373 430.388C855.116 434.753 831.83 441.3 809.514 450.03 798.841 453.91 790.109 461.426 783.317 472.581L773.857 472.581 797.143 436.935C789.866 440.816 782.347 444.453 774.585 447.847L780.406 431.843 808.786 418.749 750.571 395.47 813.88 406.382 736.017 375.829C769.491 387.468 803.45 396.198 837.894 402.017L887.378 399.108 864.819 396.198 872.824 380.194 886.65 377.284 948.504 370.01 1000.17 370.737C1037.53 371.222 1073.91 376.8 1109.32 387.468L1174.09 410.747 1222.85 433.298C1247.1 447.363 1270.63 462.881 1293.43 479.855L1357.47 530.777 1385.85 557.693 1440.43 614.434 1345.1 554.783 1351.65 564.967M1185.73 962.884 1168.27 927.966 1209.75 963.611 1257.05 1004.35 1267.96 1011.62 1297.8 1103.28 1285.43 1104.01 1263.6 1065.45 1262.14 1078.55 1185.73 962.884M1358.2 969.431 1339.28 922.874 1332 889.411C1341.22 892.321 1347.77 898.625 1351.65 908.325L1366.93 911.235 1374.93 934.513C1376.87 939.848 1379.3 940.576 1382.21 936.696L1387.3 951.972 1395.31 997.074 1390.22 1001.44 1386.58 994.892 1378.57 991.255 1358.2 969.431M1398.95 973.069 1419.32 1005.08 1417.14 1004.35 1398.95 973.069M1423.69 1003.62 1409.86 943.97 1392.4 866.133 1387.3 843.582 1388.76 842.127 1383.67 834.125 1396.04 826.85 1487.73 919.964 1464.44 910.507 1464.44 921.419 1433.15 886.502 1437.52 903.233C1442.85 931.361 1452.31 958.519 1465.9 984.708L1465.9 1008.71 1434.6 970.159 1414.96 915.6 1436.79 999.984 1423.69 1003.62M1465.9 837.762 1373.48 756.287 1364.75 749.013 1323.27 719.915 1299.98 698.818 1295.61 691.544 1297.07 690.089 1297.8 690.089 1313.08 698.818 1327.63 706.82 1327.63 705.366 1332.73 701.728 1379.3 739.556 1443.34 794.842 1484.82 834.125 1503.74 861.04 1465.9 837.762M1420.05 740.283 1377.84 693.726C1371.54 685.967 1368.87 678.693 1369.84 671.903L1372.75 665.356 1406.22 687.907 1463.71 730.826 1519.02 813.029 1420.05 740.283" fill="#AAAAAA" fill-rule="evenodd"/></g></svg>
