<svg width="1761" height="1761" xmlns="http://www.w3.org/2000/svg" xmlns:xlink="http://www.w3.org/1999/xlink" overflow="hidden"><defs><clipPath id="clip0"><rect x="0" y="0" width="1761" height="1761"/></clipPath></defs><g clip-path="url(#clip0)"><path d="M291.29 933.313 275.992 1098.69 275.211 1103.63 275.992 1098.69 361.227 1476.8 452.291 1523.43 452.291 1523.43 361.228 1476.8 275.992 1098.69ZM242.48 763.564 242.479 763.565 202.412 867.016 216.253 880.858 241.751 1315.07 241.752 1315.07 216.254 880.858 202.412 867.016ZM820.761 305.646 815.727 306.36C789.197 311.612 761.301 318.548 732.039 327.169 614.506 361.654 529.999 392.252 478.518 418.965L372.155 471.42 342.286 496.19 250.494 685.61 184.199 805.819 208.968 814.561 208.969 814.561 184.199 805.819 250.494 685.61 342.286 496.191 342.286 496.19 372.155 471.42 478.518 418.965C529.999 392.252 614.506 361.654 732.04 327.169ZM900.279 295.58 891.219 295.66 847.178 301.902ZM958.515 295.068 958.513 295.068 958.515 295.068ZM907.61 282 1001.59 285.642C1019.07 289.042 1028.54 292.199 1030 295.113L1017.62 304.584 1017.62 304.584 996.489 332.997 997.946 355.582C997.461 368.696 992.603 377.923 983.376 383.267 955.207 395.895 927.037 406.823 898.868 416.051L764.094 456.849C720.869 469.477 678.615 487.448 637.333 510.761 607.707 526.788 576.381 539.174 543.355 547.916L476.332 558.844 381.626 639.712 296.13 700.389 381.626 639.713 592.165 1091.41 604.55 1396.66 605.279 1417.06 600.179 1423.62 600.179 1423.62 600.179 1423.62 606.007 1438.19 461.033 1484.82 468.318 1527.07 458.119 1538 351.028 1486.27 280.362 1176.65 252.679 1326.72 237.38 1328.91 228.638 1315.8 203.869 887.415 190.027 869.93 203.869 827.675 174 814.561 174 804.362 249.765 663.754 327.716 485.262 372.155 460.492 415.865 437.178 546.998 376.71C609.649 349.51 674.001 327.412 740.053 310.413 806.104 292.928 861.957 283.457 907.61 282Z" fill="#FFFFFF" fill-rule="evenodd"/><path d="M604.282 1396.28 605.011 1416.67 599.911 1423.23 599.911 1403.56 604.282 1396.28M443.996 1480.77 452.011 1523.02 360.939 1476.4 275.696 1098.38 290.996 933.037 248.01 882.78 250.196 685.391 341.996 496.016 290.996 703.601 443.996 1480.77" fill="#EEEEEE" fill-rule="evenodd"/><path d="M1018.01 304.517 996.869 332.93 998.327 355.515C997.842 368.629 992.98 377.857 983.746 383.2 955.558 395.829 927.369 406.757 899.18 415.985L764.311 456.784C721.056 469.412 678.773 487.383 637.461 510.696 607.815 526.724 576.467 539.11 543.418 547.852L476.348 558.781 381.575 639.65 291.176 703.762 342.208 496.125 372.098 471.355 478.535 418.899C530.052 392.186 614.619 361.587 732.234 327.102 849.363 292.617 944.623 285.089 1018.01 304.517M275.867 1098.64 241.603 1315.02 216.087 880.8 202.236 866.957 242.332 763.503 208.797 814.502 184.01 805.759 250.352 685.548 248.164 882.985 291.176 933.255 275.867 1098.64" fill="#FFFFFF" fill-rule="evenodd"/><path d="M381.271 640.016 591.636 1091.46 604.01 1396.55 599.643 1403.83 599.643 1423.49 443.871 1481.02 291.011 704.091 381.271 640.016" fill="#CCCCCC" fill-rule="evenodd"/><path d="M600.189 1423.63 606.017 1438.21 461.044 1484.83 468.329 1527.09 458.13 1538.02 351.039 1486.29 280.373 1176.66 252.69 1326.74 237.391 1328.92 228.649 1315.81 203.879 887.431 190.038 869.946 203.879 827.69 174.01 814.577 174.01 804.377 249.776 663.769 327.726 485.277 372.165 460.507 415.876 437.194 547.008 376.725C609.66 349.526 674.012 327.428 740.063 310.428 806.114 292.943 861.968 283.472 907.621 282.015L1001.6 285.658C1019.08 289.057 1028.55 292.215 1030.01 295.129L1017.63 304.6C944.29 285.173 849.097 292.7 732.05 327.185 614.517 361.669 530.009 392.268 478.528 418.98L372.165 471.435 342.296 496.205 250.504 685.625 184.21 805.834 208.979 814.577 242.49 763.579 202.422 867.032 216.264 880.874 241.762 1315.08 276.002 1098.71 361.238 1476.82 452.301 1523.44 444.288 1481.19 600.189 1423.63" fill="#888888" fill-rule="evenodd"/></g></svg>