<svg width="1761" height="1761" xmlns="http://www.w3.org/2000/svg" xmlns:xlink="http://www.w3.org/1999/xlink" overflow="hidden"><defs><clipPath id="clip0"><rect x="0" y="0" width="1761" height="1761"/></clipPath></defs><g clip-path="url(#clip0)"><path d="M610.2 585.804 610.68 586.332 610.2 585.804ZM687.931 566.755 723.124 597.605 736.342 632.648 736.342 632.648 723.125 597.605ZM857.722 419.078 550.417 533.436 557.797 554.088 550.417 574.003 553.631 582.032 550.417 574.003 557.797 554.088 550.417 533.436 857.722 419.078ZM991.782 277.5 1040.49 287.826C1062.64 292.251 1079.36 304.299 1090.68 323.967 1147.27 321.508 1206.56 322.983 1268.56 328.392L1278.15 332.818 1281.84 342.406 1282.58 354.207 1453.81 454.517 1456.76 455.992 1515.07 508.359 1519.5 517.21 1518.02 526.061 1511.38 532.699 1501.79 534.174 1413.96 514.259 1518.02 710.453 1519.5 720.042 1515.07 728.155C1512.61 730.121 1509.66 731.351 1506.22 731.842L1475.22 734.793 1467.84 733.317 1465.62 732.58 1448.65 769.459 1448.65 1258.47 1444.22 1268.79 1433.88 1273.22 1400.67 1273.22 1304.72 1462.77 1299.56 1468.67 1291.44 1470.89 1290.7 1470.89 1280.37 1466.46 1275.94 1459.09 1264.87 1405.24 1253.8 1409.67 1235.34 1476.79 1229.44 1484.16 1220.58 1487.11 1179.99 1487.11 1174.82 1486.38 1121.68 1464.25 1065.59 1536.53 1060.42 1540.96 1053.04 1542.43 1044.18 1542.43 1034.59 1554.97 1026.47 1560.13 1017.61 1559.4 952.664 1534.32 885.5 1608.07 875.167 1612.5 864.834 1608.81 859.667 1598.49 822.026 901.483 737.83 681.429 735.257 679.982C706.379 668.458 662.972 662.88 605.034 663.249L585.844 680.95 576.249 689.064C554.599 709.224 536.64 707.012 522.37 682.425L520.894 679.475 471.443 649.972 402.803 649.972 246.332 788.635 220.5 777.572 256.666 708.24 252.237 698.652 258.142 664.724 299.474 628.583 299.474 628.583 296.521 625.633 349.662 529.011C552.876 396.925 738.386 319.049 906.189 295.386L929.285 293.161 932.736 287.088Z" stroke="#4B3014" stroke-miterlimit="8" fill="#FFFFFF" fill-rule="evenodd"/><path d="M1454.34 459.016 1457.29 460.491 1515.57 512.858 1520 521.709 1518.52 530.56 1511.88 537.198 1502.29 538.673 1414.51 518.759 1518.52 714.952 1520 724.54 1515.57 732.653C1513.11 734.62 1510.16 735.851 1506.72 736.342L1475.74 739.292 1468.36 737.817 1466.15 737.079 1449.18 773.957 1449.18 1262.96 1444.75 1273.29 1434.43 1277.71 1401.23 1277.71 1305.33 1467.27 1300.17 1473.17 1292.05 1475.38 1291.32 1475.38 1280.99 1470.96 1276.56 1463.58 1265.5 1409.74 1254.43 1414.16 1235.99 1481.28 1230.09 1488.66 1221.24 1491.61 1180.67 1491.61 1175.5 1490.87 1122.39 1468.75 1066.33 1541.03 1061.16 1545.45 1053.79 1546.93 1044.93 1546.93 1035.34 1559.47 1027.23 1564.63 1018.38 1563.89 953.465 1538.81 886.337 1612.57 876.009 1617 865.682 1613.31 860.518 1602.98 822.897 905.982 727 655.209 933.548 291.589 992.562 282 1041.25 292.326C1063.38 296.751 1080.1 308.799 1091.41 328.467 1147.96 326.008 1207.22 327.483 1269.19 332.892L1278.78 337.318 1282.46 346.906 1283.2 358.707 1454.34 459.016" fill="#888888" fill-rule="evenodd"/><path d="M851 542 1068.96 601.895C1073.21 640.125 1062.37 706.817 1081.7 716.586 1081.7 716.586 1157.33 643.099 1184.95 660.515 1205.76 714.463 1227.43 809.614 1247.4 822.358 1247.4 822.358 1283.51 748.87 1304.76 736.976 1304.76 736.976 1362.75 675.595 1374.86 750.994 1374.86 750.994 1372.31 1118.85 1377.41 1189.38L1422.02 1167.71C1423.72 1167.71 1426.06 1158.57 1427.12 1167.71 1427.12 1167.71 1432.64 1213.37 1428.39 1222.5 1416.92 1222.5 1405.24 1216.13 1393.98 1222.5L1359.57 1263.28C1343.42 1270.08 1321.33 1271.14 1311.13 1283.67 1311.13 1283.67 1310.92 1324.88 1298.38 1338.47 1298.38 1338.47 1262.06 1357.59 1235.93 1365.23 1200.67 1372.45 1159.24 1383.28 1130.14 1386.89 1102.95 1386.89 1071.51 1388.81 1048.56 1386.89 1048.56 1386.89 1027.65 1383.19 1009.22 1379.28L992.952 1375.54 1000.56 1416.3C999.302 1444.44 995.514 1479.8 992.989 1511.55 991.185 1526.7 990.103 1525.98 988.66 1533.2L945.37 1514.8 923.724 1539.69 904.245 1563.51 894.504 1570C891.437 1562.42 888.371 1554.85 889.093 1532.11 889.814 1509.38 892.7 1461.58 898.833 1433.61 904.966 1405.65 912 1383.64 925.889 1364.34L934.75 1354.09 925.186 1264.79C914.571 1170.02 902.94 1072.29 899.435 998.219 901.984 920.483 911.119 820.446 907.082 765.012 907.082 765.012 883.502 693.011 875.217 665.612Z" fill="#FFFFFF" fill-rule="evenodd"/><path d="M1080.71 341.443C1139.24 338.493 1200.98 339.968 1265.91 345.869 1266.15 352.261 1266.4 358.653 1266.65 365.046L1445.21 469.783 1503.5 522.151 1384.7 494.861 1503.5 719.824 1472.51 722.774 1460.7 705.81 1432.67 768.505 1432.67 1187.45 1381.02 1204.42 1358.14 1242.03 1355.19 840.05 1341.91 810.547C1341.66 857.998 1341.42 905.449 1341.17 952.901L1313.13 926.348 1304.28 931.511 1279.93 1320.22 1269.6 1076.08 1263.69 1034.77 1255.58 1324.64 1255.58 1317.27 1208.36 1343.82 1208.36 1355.62 1162.61 776.618 1155.23 781.043 1184.01 1341.61 1084.39 1362.26 1053.4 1355.62 1025.37 1151.31 1037.91 1151.31 1049.71 1143.2C1042.34 1027.15 1028.81 910.859 1009.13 794.32 996.835 721.546 963.385 658.358 908.783 604.761L904.356 600.335 882.22 575.995 876.317 584.108 941.249 670.406 950.841 724.987 940.511 713.186C971.993 971.34 981.094 1207.12 967.812 1420.53L948.628 1424.96 944.201 1447.08 907.307 1477.32 910.259 1560.67 873.366 1600.5 835.735 901.27 760.473 698.434 724.318 602.548 682.259 565.669 618.803 598.86 611.425 590.747 556.085 590.009 551.658 578.945 559.036 559.031 551.658 538.378 1080.71 341.443M1290.26 1458.88 1289.52 1458.88 1290.26 1458.88M973.715 1529.69 965.598 1526.74 970.764 1515.68 973.715 1529.69M300.785 633.526 296.5 627.911C314.209 595.703 324.695 562.495 342.404 530.287 574.584 379.329 788.614 300.691 978.142 293.5L940.511 328.904C890.337 374.634 817.288 413.973 721.366 446.918L484.513 530.264C445.652 544.525 411.956 559.277 383.426 574.52 362.274 585.337 336.727 605.007 302.785 633.526" stroke="" stroke-width="3" stroke-miterlimit="8" fill="#FFFFFF" fill-rule="evenodd"/><path d="M1433.5 1187.33 1433.5 1261.08 1390.7 1261.08 1291.08 1458.73 1290.34 1458.73 1274.85 1387.93 1240.9 1401.2 1220.24 1474.95 1179.65 1474.95 1116.19 1449.14 1053.47 1530.26 1037.23 1529.53 1022.47 1547.96 974.507 1529.53 971.556 1515.51 966.39 1526.58 947.942 1519.2 911.045 1560.5 908.094 1477.16 944.99 1446.93 949.418 1424.8 968.604 1420.38C981.887 1207 972.786 971.249 941.301 713.129L951.631 724.929 942.038 670.355 877.101 584.069 883.004 575.957 905.142 600.294 909.569 604.719C964.176 658.309 999.064 720.771 1011.36 793.536 1031.04 910.059 1043.14 1027.05 1050.51 1143.08L1038.71 1151.2 1026.16 1151.2 1054.2 1355.48 1085.2 1362.12 1184.82 1341.47 1156.04 780.978 1163.42 776.553 1209.17 1355.48 1209.17 1343.68 1256.4 1317.13 1256.4 1324.5 1264.51 1034.67 1270.42 1075.97 1280.75 1320.08 1305.1 931.425 1313.96 926.262 1342 952.812C1342.24 905.367 1342.49 857.922 1342.73 810.477L1356.02 839.977 1358.97 1241.91 1381.84 1204.29 1433.5 1187.33M761.245 698.379C735.664 677.73 684.254 667.651 607.018 668.143L587.832 685.842 578.239 693.955C556.592 714.113 538.637 711.901 524.37 687.317L522.894 684.367 473.452 654.868 404.825 654.868 251.148 794.278 219.5 782.453 257.187 713.893 253.523 702.778 257.899 670.381 298.75 630.621C332.695 602.106 351.596 587.757 382.187 570.532 412.777 553.307 443.431 541.529 482.295 527.27L719.265 445.463C815.197 412.523 890.039 373.541 940.219 327.817L978.935 293.5 1021 301.612C1052.97 308.003 1073.14 321.278 1081.51 341.436L554.563 538.345 561.943 558.995 555.998 578.19 558.991 589.252 612.901 588.556 620.28 597.385 683.742 564.915 726.521 599.638 761.245 698.379" stroke="#4B3014"  stroke-miterlimit="8" fill="#AEAEAE" fill-rule="evenodd"/></g></svg>
