<svg width="1761" height="1761" xmlns="http://www.w3.org/2000/svg" xmlns:xlink="http://www.w3.org/1999/xlink" overflow="hidden"><defs><clipPath id="clip0"><rect x="0" y="0" width="1761" height="1761"/></clipPath></defs><g clip-path="url(#clip0)"><path d="M725.749 652.756C738.308 653.879 750.306 657.588 761.743 663.88L767.798 672.307 770.489 682.082 768.471 688.15C762.864 695.341 755.239 698.15 745.596 696.577 728.776 694.105 713.751 687.476 700.52 676.689L695.474 671.97 689.082 665.565C687.288 663.992 686.391 662.194 686.391 660.172L690.764 656.801C693.231 654.778 695.81 653.655 698.501 653.43ZM546.789 644.329C553.293 643.205 558.002 646.014 560.917 652.756L559.235 655.453 549.48 671.296 534.006 687.138C527.727 693.206 521.223 696.464 514.495 696.914L509.449 693.206C507.88 690.734 507.095 687.925 507.095 684.779 506.422 675.116 509.337 665.79 515.841 656.801 519.429 653.655 523.354 651.632 527.614 650.733 533.893 647.587 540.285 645.452 546.789 644.329ZM632.335 582.949 631.896 583.653 626.514 594.44 631.896 583.654 632.335 582.949ZM538.716 569.496 545.443 573.204 554.862 581.631C559.572 586.8 561.926 593.991 561.926 603.204L555.535 608.935C543.425 607.587 533.669 602.193 526.269 592.755 522.905 588.26 521.56 583.204 522.232 577.586L525.596 573.878C529.857 570.282 534.23 568.822 538.716 569.496ZM768.134 569.159C774.638 569.833 780.468 571.968 785.627 575.564L790 579.945 790 582.979C785.739 591.519 778.899 597.923 769.48 602.193L746.942 610.958C735.953 614.778 724.852 616.688 713.639 616.688 709.154 615.789 705.79 613.766 703.547 610.62 704.22 607.474 705.229 604.553 706.575 601.856 711.284 591.069 719.021 583.541 729.786 579.271 740.102 574.777 750.642 571.519 761.406 569.496ZM743.578 509.832 715.321 516.91 694.057 525.966 694.057 525.966 715.321 516.911ZM763.761 495 773.853 498.034 773.853 503.764 773.853 509.495 766.789 511.854C749.969 513.203 734.607 518.372 720.703 527.36L713.303 532.08 713.302 532.08 711.957 533.091 711.621 532.754 711.62 532.754 711.957 533.091C702.089 541.406 694.016 550.732 687.737 561.069 682.13 570.732 678.318 581.406 676.299 593.092L669.572 618.036 660.489 639.61C654.658 650.396 646.809 658.711 636.942 664.554L624.495 670.959 613.731 676.352 610.031 677.7C587.38 664.217 576.728 641.969 578.073 610.957 579.195 579.945 591.08 555.001 613.731 536.125 636.157 516.798 663.18 503.989 694.801 497.697Z" fill="#FFFFFF" fill-rule="evenodd"/><path d="M714.009 532.005 712.409 533.006 712.009 532.672 714.009 532.005" fill="#0099CC" fill-rule="evenodd"/><path d="M614.008 676.383 614.008 653.825C614.458 643.725 615.696 633.849 617.723 624.198L626.844 594.571 632.248 583.797 642.382 567.637C646.435 561.577 652.966 554.731 661.973 547.1 670.756 539.244 679.763 533.072 688.996 528.583L716.019 517.136 744.393 510.066 774.794 504.005 774.794 509.729 767.7 512.086C750.811 513.432 735.386 518.595 721.424 527.573L713.993 532.286 712.303 532.959 712.641 533.296C702.733 541.601 694.626 550.915 688.321 561.24 682.691 570.891 678.863 581.553 676.836 593.224L670.08 618.138 660.96 639.685C655.105 650.459 647.223 658.763 637.315 664.599L624.817 670.996 614.008 676.383M726.491 652.815C739.102 653.937 751.149 657.641 762.634 663.925L768.714 672.342 771.416 682.106 769.389 688.166C763.76 695.349 756.103 698.154 746.42 696.583 729.53 694.114 714.443 687.493 701.157 676.719L696.09 672.006 689.672 665.609C687.87 664.038 686.969 662.242 686.969 660.222L691.361 656.855C693.838 654.835 696.428 653.713 699.13 653.489L726.491 652.815M762.296 569.657 769.052 569.32C775.582 569.993 781.437 572.126 786.617 575.717L791.008 580.094 791.008 583.124C786.73 591.653 779.861 598.05 770.403 602.314L747.771 611.068C736.737 614.883 725.59 616.791 714.33 616.791 709.826 615.893 706.449 613.873 704.197 610.731 704.872 607.589 705.886 604.671 707.237 601.977 711.966 591.204 719.735 583.685 730.544 579.42 740.903 574.931 751.487 571.677 762.296 569.657" fill="#DDDDDD" fill-rule="evenodd"/><path d="M613.797 676.435 610.095 677.784C587.432 664.295 576.774 642.037 578.12 611.012 579.242 579.987 591.134 555.032 613.797 536.148 636.236 516.813 663.274 503.998 694.913 497.703L763.911 495.005 774.008 498.041 774.008 503.773 743.716 509.844 715.444 516.925 688.517 528.391C679.318 532.888 670.342 539.07 661.591 546.939 652.616 554.583 646.109 561.44 642.07 567.51L631.972 583.697 626.587 594.488 617.5 624.164C615.48 633.831 614.246 643.724 613.797 653.84L613.797 676.435M527.633 650.805C533.916 647.658 540.311 645.522 546.818 644.398 553.326 643.274 558.038 646.084 560.955 652.829L559.272 655.527 549.511 671.376 534.029 687.226C527.746 693.296 521.239 696.556 514.507 697.006L509.458 693.296C507.888 690.823 507.102 688.013 507.102 684.866 506.429 675.199 509.346 665.868 515.853 656.876 519.443 653.728 523.371 651.704 527.633 650.805M545.472 573.243 554.896 581.673C559.609 586.844 561.964 594.039 561.964 603.256L555.57 608.989C543.453 607.64 533.692 602.245 526.287 592.802 522.922 588.305 521.575 583.247 522.248 577.626L525.614 573.917C529.877 570.32 534.253 568.859 538.741 569.533L545.472 573.243" fill="#FFFFFF" fill-rule="evenodd"/></g></svg>