<svg width="1761" height="1761" xmlns="http://www.w3.org/2000/svg" xmlns:xlink="http://www.w3.org/1999/xlink" overflow="hidden"><defs><clipPath id="clip0"><rect x="0" y="0" width="1761" height="1761"/></clipPath></defs><g clip-path="url(#clip0)"><path d="M1046.6 206C1049.99 208.157 1054.92 210.005 1056.77 212.47 1056.77 216.167 1046.44 221.713 1056.77 223.562L1169.56 226.335 1239.83 240.201C1255.24 244.514 1276.35 249.136 1286.06 253.141 1290.06 256.839 1297.3 260.998 1298.08 264.234 1295.61 268.547 1293.61 273.785 1290.68 277.174 1279.58 280.871 1258.47 285.493 1257.4 288.266L1294.38 303.98C1318.72 318.77 1351.08 337.102 1367.42 348.348 1380.98 359.132 1398.23 370.224 1408.1 380.7 1414.26 391.176 1426.12 403.809 1426.59 412.128 1414.26 419.831 1398.7 430.923 1389.61 435.236L1367.42 440.782C1376.35 450.95 1388.53 460.964 1394.23 471.286 1408.1 493.778 1422.43 520.892 1435.83 538.763 1452.78 564.336 1477.9 595.455 1486.68 615.483 1490.38 635.51 1495.31 663.395 1497.78 675.565 1497.47 681.728 1497.93 689.739 1496.85 694.052L1491.31 706.068C1491.31 714.079 1496.54 735.031 1496.85 742.118 1496.99 744.472 1497.13 746.827 1497.27 749.182L1497.99 749.247 1531.11 907.068C1533.5 918.656 1530.37 912.218 1530 914.794L1504.61 945.696 1474.81 1102.41C1469.66 1125.96 1456.41 1145.82 1447.21 1167.53 1441.88 1176.36 1442.06 1167.53 1439.48 1167.53 1438.01 1163.48 1438.75 1151.34 1438.38 1143.25 1435.99 1128.53 1428.81 1097.63 1424.03 1074.82 1422.01 1074.27 1418.14 1101.31 1415.2 1114.55 1405.45 1141.04 1386.25 1202.9 1368.59 1247.78 1358.84 1269.12 1337.19 1294.08 1324.68 1316.52 1318.98 1323.14 1316.58 1319.46 1312.54 1320.93 1309.96 1319.28 1308.86 1312.11 1307.02 1307.69 1302.79 1316.7 1293.04 1350.37 1286.04 1371.7 1280.34 1384.21 1266.91 1399.66 1257.34 1413.64 1254.4 1408.67 1258.08 1378.32 1258.45 1360.67 1250.17 1368.21 1224.59 1424.68 1207.67 1456.68 1199.02 1470.29 1187.8 1480.23 1177.86 1492L1218.71 1318.73C1211.35 1341.9 1181.17 1430.56 1162.41 1486.48 1159.46 1487.95 1155.05 1485.01 1151.37 1484.27 1149.53 1471.58 1149.9 1434.98 1149.16 1410.33 1152.47 1374.09 1163.88 1313.21 1171.24 1264.65 1174.55 1238.35 1177.86 1208.73 1181.17 1180.77 1181.73 1174.15 1178.97 1174.89 1177.86 1171.94L1132.6 1290.03C1117.7 1330.5 1093.6 1403.34 1074.1 1459.99 1066.19 1469.38 1054.96 1465.14 1045.4 1467.72 1042.27 1466.25 1043.19 1461.1 1042.08 1457.79 1043.19 1444.73 1048.71 1410.7 1052.02 1387.15 1057.17 1341.9 1069.68 1242.21 1078.51 1169.74L1080.72 1085.86C1079.43 1074.45 1070.78 1101.31 1070.78 1101.31 1068.21 1103.89 1065.27 1101.31 1065.27 1101.31 1063.24 1098.73 1060.85 1091.01 1058.64 1085.86 1057.91 1077.03 1058.64 1059.37 1058.64 1046.13 1056.43 1027.55 1046.13 985.795 1039.88 955.628 1031.23 925.094 1019.27 876.166 1008.97 836.435 1003.82 814.546 997.192 795.968 991.305 775.734 987.625 765.801 984.682 767.641 981.37 763.594 978.426 773.527 974.011 808.476 970.331 830.917 964.812 848.759 954.877 876.534 947.149 899.343L944.582 903.351C944.594 903.768 944.605 904.184 944.617 904.601 943.618 921.544 934.468 920.374 930.81 926.845L921.778 937.422 915.137 946.799 914.879 945.219 914.227 945.955C910.569 948.206 910.288 945.393 908.318 945.111 906.49 941.173 904.942 929.92 903.253 922.324 901.987 911.634 901.565 891.942 900.721 876.75 898.188 863.387 891.717 847.493 887.214 832.864L850.072 739.184C843.178 722.445 837.128 717.241 830.656 706.27 829.39 712.459 831.501 753.532 831.501 753.532 830.656 771.677 827.561 794.605 825.592 815.141 823.059 824.143 818.838 819.079 815.462 821.049 810.678 821.189 802.518 818.235 796.047 816.829 790.7 810.64 786.479 794.886 781.696 783.914 773.958 765.066 758.06 724.274 746.241 694.454 741.317 683.764 734.423 680.388 728.514 673.355 724.856 670.542 721.198 669.417 717.54 667.447 717.54 675.606 723.731 703.456 726.826 721.461 728.936 738.903 730.765 767.035 732.735 789.822 730.906 800.512 721.761 795.73 721.761 795.73 717.822 796.011 709.099 791.51 709.099 791.51 705.441 788.275 702.908 781.382 699.813 776.318 696.859 765.628 691.934 740.872 687.995 723.149 682.086 707.957 665.484 675.324 654.229 651.412 649.305 642.691 645.787 637.346 641.567 630.313 638.893 628.203 636.502 630.313 633.969 630.313L559.684 770.411 551.242 780.539C547.866 779.835 541.113 774.349 536.048 771.255 534.5 767.035 534.36 757.751 533.515 751 530.842 752.969 522.26 769.004 516.632 778.007 511.989 780.539 508.754 778.007 504.814 778.007 500.031 774.068 491.87 762.252 485.399 754.375 483.992 761.549 483.147 789.822 482.022 807.545 480.475 824.284 480.334 848.618 479.49 869.154 477.661 875.625 469.923 870.842 465.139 871.686 463.31 869.295 461.762 862.684 460.074 858.183 455.994 849.462 447.13 829.488 440.659 815.141 439.392 811.765 437.845 820.767 436.438 823.58 433.062 825.972 425.745 827.519 420.399 829.488 414.209 828.785 406.33 826.112 399.295 824.425 392.19 848.618 385.085 872.812 378.191 892.786 371.297 912.759 364.685 927.107 357.932 944.267 354.555 950.457 353.43 946.518 351.179 947.643L337.672 928.232C330.356 908.118 311.644 862.262 301.374 821.893 291.103 781.523 277.034 734.823 276.049 686.014 275.064 637.205 289.134 567.016 295.465 529.037 301.796 491.059 308.127 483.182 314.036 458.144 318.116 454.487 323.322 452.236 328.387 451.392 333.452 444.922 343.019 425.511 350.335 412.57L370.594 423.542 373.971 433.669 395.075 410.882 398.646 410.961 405.859 398.956C410.684 391.022 417.168 386.509 420.173 382.041L434.549 366.158C439.172 367.391 441.791 369.146 448.417 366.835L536.526 284.48 539.697 280.957 540.21 281.037 542.643 278.763C546.341 280.611 555.51 276.096 557.513 279.023L555.664 301.207C567.991 296.277 565.372 293.812 592.646 286.418L804.367 224.487C808.682 224.179 811.61 223.1 817.311 223.562L845.972 229.108C845.047 230.032 835.34 232.651 843.198 231.881 873.4 226.335 906.375 219.557 933.804 215.243Z" fill="#FFFFFF" fill-rule="evenodd"/><path d="M1203.86 1359.68 1193.6 1386.51 1207.8 1344.68 1203.86 1359.68M1165.19 1468.6 1160.46 1482.02 1160.46 1478.86 1161.25 1464.65 1165.19 1468.6M1093.39 879.007 1092.6 867.958 1089.44 897.161 1083.13 928.732 1088.66 901.897 1083.92 946.885 1078.4 980.824 1079.98 983.192 1068.14 1092.9C1055.52 950.832 1019.22 815.076 959.252 685.634L963.197 724.309C972.666 804.816 956.359 876.903 914.276 940.571L909.542 886.9C938.473 787.977 948.731 687.477 940.314 585.396 920.325 576.451 900.073 567.243 879.558 557.772L897.706 581.45 879.558 576.714 915.854 634.332 897.706 632.753 891.394 638.278 799.864 601.182 825.113 646.171 812.489 636.699 811.7 625.65 770.67 603.55 766.724 596.446 728.85 599.603 697.288 562.507 676.773 593.289 666.515 586.975 662.57 571.979 663.359 571.979 657.047 568.821 656.258 571.979 634.953 616.178 633.375 620.125C615.491 663.799 594.186 705.893 569.462 746.409L549.736 774.034 647.578 561.718 629.43 562.507 613.649 579.082C579.983 620.65 556.312 666.692 542.635 717.206L545.002 688.003 514.229 770.877 501.604 763.773 545.002 636.699 537.901 635.121 557.627 596.446 515.807 620.125 485.823 728.256 479.511 751.934 496.081 624.071 452.683 661.956 458.207 646.171 439.269 669.06 454.262 799.29 449.527 805.605 441.637 785.084 425.856 822.969 417.965 822.969 410.864 818.233 411.653 804.026 432.168 774.823 432.957 712.47 427.434 705.366 416.387 749.566 419.544 670.638 402.973 758.248 411.653 766.141 396.661 812.708 384.036 821.39 352.474 911.368 354.052 822.179 347.74 907.422 329.592 886.111C277.515 750.355 274.359 609.075 320.123 462.269L331.959 461.48 356.42 418.859 352.474 489.105 359.576 478.844 317.756 637.489 327.225 520.675C305.657 634.332 307.499 747.198 332.748 859.276L332.748 769.298C339.586 645.118 365.363 524.096 410.075 406.231L421.911 388.866 430.59 400.706 445.582 373.87 449.527 380.184 475.566 351.77 549.736 282.314 541.846 322.567 584.454 302.046 525.276 345.456 522.909 351.77 514.229 353.349 491.347 376.238 497.659 366.767 406.919 479.633 458.207 421.227 467.675 422.016 410.864 514.362 466.097 470.951 449.527 507.258 455.051 513.572 468.464 490.683 455.84 531.726 497.659 489.105 486.612 517.519 488.98 524.622 466.097 598.814 557.627 561.718 598.657 501.733 594.712 487.526 618.383 489.105 625.485 428.33 647.578 543.565C655.469 509.889 670.986 480.423 694.132 455.166L710.702 439.38C684.927 474.634 668.093 513.047 660.203 554.614L675.195 569.611 690.976 501.733 745.42 596.446 743.842 478.844 726.483 459.112 746.998 476.476 738.318 461.48 803.809 507.258 781.716 437.801 790.395 425.963 817.223 456.744 877.191 461.48 857.465 447.273 996.337 478.055 922.956 422.805 1104.44 448.851 957.674 339.142C1056.04 387.552 1160.2 419.648 1270.14 435.434L1324.58 441.748 1318.27 437.801 1338.78 435.434C1302.49 404.388 1262.77 379.395 1219.64 360.452L1222.79 347.035C1278.55 365.977 1327.74 394.128 1370.35 431.487L1344.31 434.644 1392.44 494.63 1434.26 556.193 1465.03 610.653 1477.66 638.278 1495.01 684.056 1477.66 691.949 1486.33 734.57 1474.5 742.463 1463.45 736.148 1453.98 796.133 1461.87 753.512 1470.55 796.923 1468.19 787.451 1450.83 837.965 1446.88 834.019 1438.2 834.808C1451.35 763.247 1445.3 694.053 1420.06 627.228L1409.01 597.236 1406.64 605.128C1438.2 671.427 1446.88 741.673 1432.68 815.865 1431.63 792.713 1427.68 770.613 1420.84 749.566L1405.06 704.577 1419.27 862.433 1427.95 856.118C1417.42 967.143 1395.33 1052.38 1361.67 1111.84 1376.39 1028.71 1370.87 948.201 1345.1 870.325 1359.82 989.243 1347.99 1104.74 1309.59 1216.82L1285.13 1279.96C1290.39 1221.55 1299.59 1161.3 1312.74 1099.22L1300.91 1089.74C1289.86 1161.3 1271.98 1232.08 1247.25 1302.06L1249.62 1289.43 1240.15 1281.54C1270.14 1191.04 1287.5 1098.16 1292.23 1002.92 1278.03 1112.37 1243.83 1214.19 1189.65 1308.37 1191.76 1200.51 1208.33 1094.22 1239.36 989.506 1241.47 982.14 1239.89 975.562 1234.63 969.774L1225.16 987.928 1243.31 882.954C1204.38 1003.45 1163.61 1122.1 1121.01 1238.92 1113.64 1259.96 1107.07 1281.54 1101.28 1303.64L1092.6 1311.53 1090.23 1321C1090.76 1265.75 1094.44 1211.03 1101.28 1156.83 1099.18 1096.32 1101.02 1035.55 1106.8 974.51L1109.96 900.318 1112.33 790.609 1093.39 879.007M829.059 676.952 816.434 654.064 827.481 661.167 829.059 676.952M811.7 650.117C825.903 703.788 828.533 757.722 819.59 811.919L811.7 815.076 803.809 811.919 796.708 789.03 799.075 680.899 763.568 635.121 728.061 649.328 720.17 639.067 702.811 616.178 717.803 615.389 755.677 624.071 771.459 618.546 776.193 624.86 811.7 650.117M698.866 623.282 725.694 782.715C708.86 746.935 695.446 708.787 685.452 668.271L675.195 627.228 655.469 638.278 642.055 619.335 657.047 603.55 663.359 607.496 670.46 601.971 677.562 613.81 698.866 623.282M478.722 754.302 471.62 864.011 455.84 821.39C453.209 801.395 455.84 782.19 463.73 763.773 466.886 756.933 471.095 752.197 476.355 749.566L478.722 754.302M412.442 795.344 414.02 768.508C418.229 776.402 417.702 785.347 412.442 795.344M831.426 231.8 798.286 257.846 927.69 224.697 922.956 232.589 809.333 263.371C761.464 278.104 712.806 289.943 663.359 298.889L663.359 293.364 831.426 231.8M1049.99 216.015 1034.21 234.168 1079.19 231.8C1021.85 243.376 963.986 251.269 905.596 255.479L904.018 253.111C951.361 237.851 1000.02 225.486 1049.99 216.015M1287.5 266.528 1281.97 276.789 1243.31 283.893 1105.23 258.636 1287.5 266.528M1441.36 1120.53 1434.26 1028.18C1437.41 981.877 1446.62 937.151 1461.87 894.004L1478.44 851.383C1486.33 923.996 1480.02 995.557 1459.51 1066.07L1441.36 1120.53M990.813 320.199C987.657 324.935 983.186 327.303 977.4 327.303L971.877 328.092C942.419 320.725 915.591 310.728 891.394 298.099 890.868 293.89 892.446 290.732 896.128 288.628L902.44 286.26C935.58 289.943 964.512 300.731 989.235 318.621L990.813 320.199M948.994 350.981C949.52 355.191 947.679 358.61 943.471 361.242L940.314 362.031 934.002 361.242C917.169 348.613 892.972 340.72 861.41 337.563L862.988 335.985 946.627 349.403 948.994 350.981M967.931 440.169 974.244 436.223 952.15 433.855 967.931 440.169M1078.4 449.641 1117.06 459.901 1110.75 454.376 1078.4 449.641M1309.59 474.108 1322.21 474.108 1323 473.319 1323.79 472.53 1326.16 470.951 1330.89 471.74 1379.02 478.055 1364.03 458.323 1363.24 458.323 1357.72 459.901 1274.87 469.373 1271.71 468.583 1266.98 469.373 1237.79 464.637 1237 463.848 1233.84 460.691C1201.75 458.059 1170.72 452.008 1140.73 442.537L1139.15 440.959C1127.58 431.487 1114.17 426.226 1098.91 425.173L1097.33 425.173C1107.86 431.487 1118.64 437.012 1129.69 441.748L1124.95 442.537 1117.06 443.326 1115.48 444.905 1114.69 446.484 1114.69 449.641C1122.06 455.429 1130.74 459.376 1140.73 461.48L1248.83 485.947 1250.41 487.526C1261.98 494.366 1273.29 496.997 1284.34 495.419L1285.13 493.051 1284.34 489.894 1281.97 486.737C1279.87 484.633 1281.18 484.369 1285.92 485.947L1293.02 485.158 1294.6 482.79 1295.39 479.633 1296.17 477.265 1309.59 474.108 1344.31 500.154C1393.75 538.04 1433.47 584.871 1463.45 640.646 1455.04 610.653 1440.83 583.818 1420.84 560.139 1390.33 524.358 1353.25 495.682 1309.59 474.108M1214.9 533.304 1255.93 567.243 1210.17 491.472 1169.14 492.262 1183.34 516.729C1132.32 491.472 1078.66 474.898 1022.38 467.005 1076.56 493.315 1121.01 530.672 1155.72 579.082L1186.5 630.385 1177.82 630.385 1158.88 605.918 1149.41 605.918 1180.97 650.906 1191.23 661.167 1214.9 679.32C1213.32 638.278 1204.12 599.078 1187.29 561.718L1169.14 523.833 1200.7 553.825 1203.07 534.093 1214.9 533.304M1119.43 564.086C1034.21 520.412 943.471 491.736 847.207 478.055 851.941 488.579 859.043 496.472 868.511 501.733 886.396 510.679 904.018 520.412 921.377 530.936L908.753 507.258 936.369 514.362C934.791 513.309 932.95 511.994 930.846 510.415L1105.23 575.925 1103.65 559.35 1119.43 564.086M1060.25 599.603 967.931 554.614 990.813 600.393 986.868 605.918 980.556 608.285 1074.45 837.965C1099.18 760.09 1109.7 680.899 1106.01 600.393L1069.72 592.5 1060.25 599.603M948.994 559.35 948.994 558.561 896.917 530.936 894.55 531.726 873.245 530.147 871.667 531.726C896.391 547.511 922.167 556.719 948.994 559.35M958.463 478.055 955.306 476.476 959.252 478.844 958.463 478.055M1057.09 501.733 1053.94 496.997 1023.16 484.369 1020.8 485.947 1018.43 487.526 960.83 479.633C989.235 494.893 1021.85 504.101 1058.67 507.258L1057.09 501.733M1254.36 608.285 1256.72 613.021 1246.46 601.182C1244.89 601.182 1244.1 602.235 1244.1 604.339L1245.68 611.443 1248.83 614.6 1246.46 619.335C1258.04 646.696 1274.87 670.375 1296.96 690.37L1296.17 693.527 1295.39 695.895 1294.6 700.631 1300.12 707.734 1304.85 704.577 1310.38 696.684 1314.32 701.42 1314.32 698.263 1310.38 689.581 1309.59 684.845 1307.22 682.477C1294.07 655.642 1279.08 629.86 1262.25 605.128L1262.25 603.55C1263.3 599.867 1261.72 597.236 1257.51 595.657 1252.78 598.288 1251.72 602.497 1254.36 608.285M1311.17 552.247 1430.31 714.049C1401.91 629.332 1352.2 558.561 1281.18 501.733L1311.17 552.247M1265.4 733.78 1251.99 678.531 1252.78 717.995 1265.4 733.78M1246.46 759.827 1260.67 795.344 1259.09 805.605 1243.31 804.026 1249.62 806.394 1264.61 992.663C1282.5 939.519 1287.5 885.585 1279.6 830.861L1267.77 752.723 1253.57 752.723 1246.46 759.827M1393.23 751.934 1326.95 642.224 1386.13 877.429 1393.23 751.934M1312.74 980.035 1306.43 970.564 1330.89 1010.82 1299.33 732.202 1312.74 980.035M1144.68 1030.55 1163.61 1005.29C1228.84 909.526 1230.68 811.13 1169.14 710.102 1179.13 806.394 1171.51 900.844 1146.26 993.453L1151.78 1002.92 1144.68 1030.55M675.195 305.203C678.351 316.253 669.408 327.303 648.367 338.353 629.43 348.35 610.756 352.56 592.345 350.981 613.385 330.46 639.951 315.464 672.038 305.992L675.195 305.203M825.113 320.199C804.598 327.039 787.765 325.461 774.615 315.464L787.239 308.36 803.809 305.992 827.481 307.571 830.637 309.15 830.637 310.728 825.113 320.199M772.248 410.966 807.755 404.652C827.744 404.126 846.155 400.442 862.988 393.602L876.402 395.181 877.98 395.97 781.716 413.334C776.982 414.387 773.826 413.597 772.248 410.966M571.041 377.817C551.578 388.341 534.481 400.969 519.752 415.702L556.048 373.87 571.041 377.817M434.535 542.776 450.316 489.894 405.341 537.251 394.294 535.672 419.544 477.265 401.395 490.683 404.551 463.058 382.458 610.653 399.817 556.193 393.505 623.282 382.458 628.017 358.787 810.341C400.87 728.256 427.697 641.435 439.269 549.879L434.535 542.776M529.221 585.396 521.33 591.711 519.752 602.76 529.221 585.396M762.779 568.032 766.724 587.764 775.404 594.868 762.779 568.032M767.513 514.362 766.724 538.829 788.028 559.35C808.018 580.397 831.426 596.446 858.254 607.496L850.363 506.469 799.075 483.58 816.434 518.308 767.513 514.362M754.888 519.097 755.677 527.779 761.99 535.672 754.888 519.097M814.856 470.162 812.489 476.476 829.059 482.001 814.856 470.162M832.215 658.01 834.582 662.745 829.848 661.167 832.215 658.01M610.493 504.101 616.805 490.683 578.931 549.09 584.454 545.143 541.846 595.657 635.742 551.458 610.493 504.101M601.813 493.84 603.391 496.997 605.759 493.84 601.813 493.84M866.144 584.607 865.355 601.971 892.183 613.81 866.144 584.607" fill="#DDDDDD" fill-rule="evenodd"/><path d="M1193.67 1387.13 1161.52 1488 1151.94 1471.84 1160.43 1406.86C1169.37 1296.39 1187.63 1186.7 1203.93 1077.8L1069.5 1457.03 1045.73 1460.67 1055.86 1372.93C1068.48 1291.39 1081.18 1211.05 1086.44 1130.04 1091.7 1046.39 1097.18 962.331 1093.5 879.737L1112.43 791.357 1110.07 901.043 1106.91 975.22C1101.13 1036.24 1099.29 1097.01 1101.39 1157.5 1094.55 1211.69 1090.87 1266.4 1090.35 1321.64L1092.71 1312.17 1101.39 1304.28C1107.17 1282.18 1113.75 1260.61 1121.11 1239.57 1163.7 1122.78 1204.45 1004.15 1243.36 883.683L1225.22 988.635 1234.69 970.485C1239.94 976.272 1241.52 982.848 1239.42 990.213 1208.39 1094.9 1191.83 1201.17 1189.73 1309.01 1243.89 1214.84 1278.07 1113.05 1292.26 1003.63 1287.53 1098.85 1270.18 1191.7 1240.21 1282.18L1249.67 1290.07 1247.31 1302.7C1272.02 1232.73 1289.9 1161.97 1300.94 1090.43L1312.77 1099.9C1299.63 1161.97 1290.42 1222.21 1285.17 1280.6L1309.62 1217.48C1348 1105.42 1359.83 989.95 1345.11 871.057 1370.88 948.916 1376.4 1029.4 1361.67 1112.52 1395.33 1053.08 1417.41 967.855 1427.93 856.853L1419.25 863.166 1405.06 705.345 1420.83 750.324C1427.66 771.366 1431.61 793.461 1432.66 816.609 1446.86 742.432 1438.18 672.202 1406.63 605.917L1409 598.026 1420.04 628.012C1445.28 694.823 1451.33 764.001 1438.18 835.547L1446.86 834.758 1450.8 838.704 1468.15 788.201 1470.52 797.67 1461.84 754.269 1453.96 796.881 1463.42 736.909 1474.46 743.222 1486.3 735.331C1497.86 793.198 1518.83 843.547 1521 908.934L1512.32 920.771 1495.76 893.941C1492.08 945.497 1489.53 996.789 1480.59 1047.82 1473.75 1085.17 1468.61 1133.54 1441.67 1160.96 1441.56 1147.71 1438.63 1134.46 1438.52 1121.2L1459.48 1066.76C1479.99 996.263 1486.3 924.717 1478.41 852.119L1461.84 894.73C1446.59 937.868 1437.39 982.585 1434.24 1028.88L1431.08 994.158C1416.36 1076.23 1394.99 1170.29 1361.34 1248.15L1317.5 1311.38 1322.12 1252.78 1265.45 1397.39 1262.21 1316.66 1181.05 1482.62 1220.49 1312.17 1206.29 1352.41 1207.87 1345.31 1193.67 1387.13M1089.56 897.887 1088.77 902.621 1083.25 929.451 1089.56 897.887M1084.04 947.601 1080.09 983.9 1078.52 981.532 1084.04 947.601M816.653 654.841 810.344 643.794 811.921 650.896 776.428 625.644 771.695 619.332 755.92 624.855 718.061 616.175 703.075 616.964 696.765 609.073 699.131 624.066 677.835 614.597 670.736 602.76 663.638 608.284 657.328 604.339 642.342 620.121 636.82 616.175 635.243 616.964 656.539 572.774 662.849 572.774 666.793 587.767 677.046 594.08 697.554 563.305 729.103 600.393 766.963 597.237 770.907 604.339 811.921 626.433 812.71 637.481 825.33 646.95 832.429 658.787 830.062 661.943 827.696 661.943 816.653 654.841M397.043 813.452 352.873 937.342 330 886.839 348.141 908.145 354.451 822.922 352.873 912.091 384.423 822.133 397.043 813.452M1309.62 474.925 1296.21 478.081 1295.42 480.448 1294.63 483.605 1293.05 485.972 1285.95 486.761C1281.22 485.183 1279.91 485.447 1282.01 487.55L1284.38 490.707 1285.17 493.863 1284.38 496.23C1273.34 497.809 1262.03 495.178 1250.46 488.339L1248.88 486.761 1140.83 462.299C1130.84 460.195 1122.16 456.25 1114.8 450.462L1114.8 447.306 1115.59 445.728 1117.16 444.15 1125.05 443.36 1129.78 442.571C1118.74 437.837 1107.96 432.313 1097.45 426L1099.02 426C1114.27 427.053 1127.68 432.313 1139.25 441.782L1140.83 443.36C1170.8 452.83 1201.82 458.879 1233.9 461.51L1237.05 464.666 1237.84 465.455 1267.03 470.19 1271.76 469.401 1274.91 470.19 1357.73 460.721 1363.25 459.143 1364.04 459.143 1379.03 478.87 1330.91 472.557 1326.18 471.768 1323.81 473.346 1323.03 474.136 1322.24 474.925 1309.62 474.925 1308.04 474.136 1309.62 474.925M1057.22 502.543 1058.8 508.067C1021.99 504.911 989.388 495.705 960.993 480.448L1018.57 488.339 1020.94 486.761 1023.3 485.183 1054.06 497.809 1057.22 502.543M958.627 478.87 959.416 479.659 955.472 477.292 958.627 478.87M949.162 560.149C922.345 557.518 896.579 548.312 871.865 532.53L873.443 530.951 894.739 532.53 897.105 531.741 949.162 559.359 949.162 560.149M1254.41 609.073C1251.78 603.286 1252.83 599.078 1257.56 596.447 1261.77 598.026 1263.34 600.657 1262.29 604.339L1262.29 605.917C1279.12 630.643 1294.11 656.42 1307.25 683.25L1309.62 685.617 1310.41 690.352 1314.35 699.032 1314.35 702.188 1310.41 697.453 1304.88 705.345 1300.15 708.501 1294.63 701.399 1295.42 696.664 1296.21 694.297 1297 691.141C1274.91 671.149 1258.09 647.476 1246.52 620.121L1248.88 615.386 1245.73 612.23 1244.15 605.128C1244.15 603.024 1244.94 601.971 1246.52 601.971L1256.77 613.808 1254.41 609.073" fill="#AAAAAA" fill-rule="evenodd"/><path d="M1203.82 1360.03 1166.73 1488.7 1158.84 1493.44C1153.58 1494.49 1149.11 1491.33 1145.43 1483.96 1129.65 1454.49 1125.96 1423.97 1134.38 1392.39L1147.79 1336.34 1173.83 1201.35 1077.57 1466.6 1038.9 1472.91 1032.59 1458.7 1073.62 1108.99C1068.36 1111.63 1063.1 1110.57 1057.84 1105.84 1053.11 1101.1 1050.74 1094.52 1050.74 1086.1 1051.27 1062.94 1049.16 1040.05 1044.43 1017.42L1016.81 891.117 982.879 766.39C984.458 836.91 963.416 900.326 919.754 956.637L906.34 955.848 892.926 890.327C887.139 861.909 879.775 834.279 870.832 807.439 861.363 780.599 850.579 754.286 838.48 728.498 837.954 760.601 834.272 791.651 827.433 821.649L821.121 831.911 791.926 824.017 731.167 685.081 740.636 785.336C741.162 796.387 737.216 803.492 728.8 806.65 712.494 806.124 701.708 798.229 696.449 782.967L690.136 760.075C679.615 717.972 664.097 677.712 643.581 639.295L641.214 636.927 634.112 642.453 578.089 745.076 556.784 783.757 529.166 777.441 524.432 784.546C512.333 790.335 501.024 787.704 490.502 776.652L486.557 871.381 471.565 880.854 463.674 879.275 440.791 830.332 430.533 839.805 403.705 833.49C393.711 866.645 382.926 899.8 371.354 932.955L359.517 955.848C343.211 953.217 332.163 941.376 326.377 920.325L302.705 846.12 279.033 760.075C272.195 730.077 270.353 694.553 273.509 653.504 276.665 611.929 282.978 567.722 292.447 520.883L310.595 451.415 321.642 447.468 346.103 406.419 377.666 417.471 403.705 391.42 435.268 359.054 450.26 357.475 552.049 268.272 564.675 273.009 568.62 291.955C633.323 267.219 698.027 246.169 762.73 228.802L814.019 216.961 847.949 223.276 1046.79 198.015C1058.89 199.068 1065.21 205.383 1065.73 216.961 1140.96 217.486 1214.08 227.487 1285.09 246.958L1302.45 261.168C1303.5 273.798 1299.03 283.271 1289.04 289.586L1282.72 293.533C1318.5 310.9 1351.9 331.425 1382.94 355.107L1409.76 381.158 1430.28 408.787C1428.7 421.943 1422.39 430.891 1411.34 435.627L1388.46 445.1 1378.99 447.468 1471.31 562.722C1489.2 588.509 1499.98 616.928 1503.66 647.978L1508.4 693.764 1498.14 704.816 1521.02 809.018 1536.01 914.799C1530.23 922.693 1526.02 931.113 1523.39 940.06 1513.4 976.899 1505.24 1014 1498.93 1051.37 1492.09 1095.05 1476.57 1135.83 1452.37 1173.73L1442.12 1175.3 1433.44 1170.57 1424.76 1109.78C1415.81 1168.73 1396.35 1224.25 1366.37 1276.35L1345.06 1306.35 1319.81 1333.98 1311.13 1333.19C1306.4 1352.13 1299.03 1369.24 1289.04 1384.5L1264.58 1418.44 1253.53 1428.7 1250.37 1405.02 1218.81 1456.33 1189.61 1485.54 1173.83 1495.01 1206.19 1352.13 1220.39 1311.87 1180.93 1482.38 1272.47 1283.45 1265.36 1397.13 1327.7 1224.25 1317.44 1311.08 1358.47 1233.72C1392.14 1155.83 1416.34 1075.84 1431.07 993.74L1434.22 1028.47 1441.33 1120.83 1444.48 1158.73C1459.21 1121.89 1470 1084.79 1476.83 1047.42 1485.78 996.371 1492.09 945.06 1495.77 893.485L1512.34 920.325 1521.02 908.483 1486.3 734.813 1477.62 692.185 1494.98 684.291 1477.62 638.505 1465 610.876 1434.22 556.407 1392.4 494.833 1344.27 434.838 1370.31 431.68C1385.04 431.68 1397.93 426.418 1408.97 415.892L1414.5 408.787C1367.15 351.95 1307.45 313.794 1235.38 294.323L1214.08 288.797 1243.27 284.06 1281.94 276.956 1287.46 266.693 1281.15 258.799 1203.03 240.643 1079.15 231.959 1034.17 234.328 1049.95 216.171 927.645 224.855 798.238 258.01 831.379 231.959 814.019 231.17 806.129 232.749C705.128 260.115 631.22 283.271 584.401 302.217L541.792 322.741 549.682 282.482 539.424 280.903 475.51 351.95 449.471 380.369 445.525 374.053 434.479 370.895 421.854 389.052 410.018 406.419 359.517 479.045 352.416 489.307 356.361 419.049 331.9 461.678 320.064 462.467C274.298 609.297 277.455 750.602 329.533 886.38L352.416 936.902 396.603 812.965 411.596 766.39 413.963 762.443 413.963 768.758 412.385 795.598 411.596 804.281 410.807 818.491 417.908 823.227 425.799 823.227 441.58 785.336 449.471 805.86 455.783 821.649 471.565 864.277 478.666 754.549 479.455 752.181 485.768 728.498 501.549 764.021 514.174 771.126 544.948 688.238 542.58 717.447 541.002 730.866 549.682 774.284 569.409 746.655C594.133 706.132 615.438 664.03 633.323 620.349L634.901 616.402 636.479 615.613 642.003 619.559 655.417 638.505C683.298 682.187 702.235 729.814 712.23 781.389L725.644 782.967 698.816 623.507 696.449 608.508 702.761 616.402 720.12 639.295C753.787 685.606 779.3 735.603 796.66 789.283L803.761 812.175 811.652 815.333 819.543 812.175C828.485 757.97 825.855 704.027 811.652 650.347L810.074 643.242 816.386 654.293 829.012 677.187 867.676 749.023C887.666 786.388 901.606 832.437 909.496 887.169L914.23 940.849C956.314 877.17 972.622 805.071 963.153 724.551L959.207 685.87C1019.18 815.333 1055.47 951.112 1068.1 1093.21L1079.93 983.477 1083.88 947.165 1088.61 902.168 1089.4 897.432 1092.56 868.224 1093.35 879.275C1097.03 961.9 1096.24 1045.05 1090.98 1128.73 1085.72 1209.77 1076.78 1291.08 1064.15 1372.66L1048.37 1459.49 1066.52 1453.97 1203.82 1077.42C1187.51 1186.36 1174.89 1296.08 1165.94 1406.6L1161.21 1465.02 1160.42 1479.23 1160.42 1482.38 1165.15 1468.96 1193.56 1386.87 1203.82 1360.03" fill="#888888" fill-rule="evenodd"/></g></svg>