<svg width="1761" height="1761" xmlns="http://www.w3.org/2000/svg" xmlns:xlink="http://www.w3.org/1999/xlink" overflow="hidden"><defs><clipPath id="clip0"><rect x="0" y="0" width="1761" height="1761"/></clipPath></defs><g clip-path="url(#clip0)"><path d="M658.271 1097.68 644.975 1087.71 635.003 1078.84 636.111 1077.73 638.327 1077.73 641.651 1081.06 642.759 1081.06 644.975 1081.06 707.024 1041.16 742.481 1023.43 833.337 1019 866.578 1027.87 898.711 1043.38C923.087 1059.63 940.446 1075.52 950.787 1091.03L951.895 1092.14 951.895 1094.35 953.003 1095.46 951.895 1096.57 950.787 1098.79 950.787 1099.89 948.571 1101 945.247 1101 934.167 1110.98C901.665 1128.71 872.488 1138.68 846.634 1140.89L828.905 1142 864.362 1136.46C883.568 1133.51 909.052 1120.58 940.815 1097.68 918.655 1071.08 890.954 1051.88 857.714 1040.06L842.202 1034.52C814.132 1027.13 786.432 1026.76 759.101 1033.41 725.86 1040.79 694.097 1056.68 663.812 1081.06L650.515 1088.81 649.407 1088.81 648.299 1088.81 649.407 1089.92 658.271 1097.68" fill-rule="evenodd"/><path d="M829.25 1141.9 822.612 1143 769.501 1141.9 759.543 1141.9 758.436 1141.9 720.817 1129.75 695.368 1120.92 694.262 1120.92 661.068 1098.84 658.855 1097.74 650.003 1090.01 650.003 1088.91 651.109 1088.91 664.387 1081.18C694.631 1056.89 726.349 1041.07 759.543 1033.71 786.836 1027.08 814.497 1027.45 842.528 1034.81L858.018 1040.33C891.212 1052.11 918.874 1071.24 941.003 1097.74 909.285 1120.55 883.836 1133.43 864.657 1136.38L829.25 1141.9" fill="#FFFFFF" fill-rule="evenodd"/><path d="M969.004 999.002C871.133 971.357 764.799 956.08 650.003 953.17 718.439 940.802 786.875 944.44 855.311 964.082L969.004 999.002" fill="#010101" fill-rule="evenodd" fill-opacity="0.501961"/><path d="M11.8569 78.0385 5.08321 68.1466 0.00323977 59.3539 0.567681 58.2548 1.69656 58.2548 3.38988 61.5519 3.95432 61.5519 5.08321 61.5519 36.693 21.9845 54.7558 4.39885 101.041 0.00250953 117.975 8.79518 134.344 24.1825C146.763 40.3027 155.606 56.0564 160.874 71.4441L161.439 72.543 161.439 74.7413 162.003 75.8405 161.439 76.9396 160.874 79.1376 160.874 80.2368 159.745 81.336 158.052 81.336 152.407 91.2278C135.85 108.814 120.986 118.705 107.815 120.904L98.7836 122.003 116.846 116.507C126.63 113.576 139.613 100.753 155.794 78.0385 144.505 51.6601 130.393 32.6088 113.459 20.8854L105.557 15.3899C91.2576 8.0624 77.1459 7.69601 63.2228 14.2907 46.2888 21.6178 30.1076 37.3719 14.6791 61.5519L7.90541 69.2458 7.34097 69.2458 6.77653 69.2458 7.34097 70.345 11.8569 78.0385" fill-rule="evenodd" transform="matrix(-1 0 0 1 560 1024)"/><path d="M91.7828 112.899 88.3837 114.003 61.1895 112.899 56.0908 112.899 55.5243 112.899 36.2618 100.755 23.2314 91.9231 22.6649 91.9231 5.66848 69.8436 4.53543 68.7395 0.00325173 61.0115 0.00325173 59.9075 0.569775 59.9075 7.36805 52.1798C22.8538 27.8922 39.0944 12.0686 56.0908 4.70859 70.0657-1.91498 84.2291-1.54697 98.5815 5.81264L106.513 11.3325C123.509 23.1083 137.673 42.2441 149.004 68.7395 132.763 91.5547 119.732 104.435 109.912 107.379L91.7828 112.899" fill="#FFFFFF" fill-rule="evenodd" transform="matrix(-1 0 0 1 553 1033)"/><path d="M164.003 54.0025C113.687 25.8358 59.0204 10.2701 0.00325708 7.30505 35.1866-5.29591 70.3699-1.58954 105.553 18.4235L164.003 54.0025" fill="#010101" fill-rule="evenodd" fill-opacity="0.501961" transform="matrix(-1 0 0 1 553 950)"/><path d="M801.497 1028.01 836.003 1032.81 843.037 1048.64C845.012 1055.71 846 1063.2 846 1071.1L840.075 1102.69 834.379 1093.01 840.075 1102.69 832.175 1116.51C833.492 1113.55 833.739 1110.92 832.916 1108.62L828.686 1104.2 832.915 1108.62C833.738 1110.92 833.492 1113.55 832.175 1116.51L824.275 1124.41 822.3 1126.39 812.425 1135.27 801.851 1142 770.181 1141.34 760.204 1141.34 759.095 1141.34 721.405 1129.15 709.803 1125.11 695.9 1105.65 695.9 1105.65 690.962 1093.81 690.962 1091.83 689.975 1090.84 689.975 1089.86 688 1071.1 689.568 1062.72 711.428 1050.18C727.317 1042.24 743.576 1036.42 760.204 1032.73 773.876 1029.4 787.641 1027.83 801.497 1028.01Z" fill="#663124" fill-rule="evenodd"/><path d="M789.376 995.002 801.181 999.935 789.376 995.002M812.002 1135.1 801.181 1142 812.002 1135.1M691.001 1093.66 691.001 1091.69 691.001 1093.66M790.36 1131.15 791.343 1130.16 792.327 1131.15 790.36 1131.15" fill="#0A51F5" fill-rule="evenodd"/><path d="M831.792 1116.32 823.928 1124.16 804.268 1132 793.455 1129.06C807.872 1126.45 818.357 1117.95 824.911 1103.58L826.877 1102.6C832.775 1105.86 834.413 1110.44 831.792 1116.32M784.608 1033 782.642 1039.86 778.71 1044.76 788.54 1051.63C794.438 1056.85 797.386 1063.71 797.386 1072.21 797.386 1080.05 794.438 1086.91 788.54 1092.79L787.557 1093.77C781.659 1099 775.105 1101.62 767.897 1101.62L749.219 1095.73 742.339 1101.62C729.887 1108.8 717.764 1108.8 705.967 1101.62L704.001 1098.67C704.001 1088.87 708.589 1082.99 717.764 1081.03L738.407 1077.11 738.407 1072.21C737.751 1063.71 740.373 1056.85 746.271 1051.63L747.253 1050.65 741.356 1043.78 742.339 1033.98 784.608 1033" fill-rule="evenodd"/><path d="M696 1105.77C703.895 1115 712.119 1118.29 720.671 1115.66L721.658 1116.64C733.5 1129.16 748.632 1135.42 767.053 1135.42L775.934 1135.42 779.882 1139.37 801.592 1142.34 798.697 1143 768.911 1142.38 758.941 1142.38 757.833 1142.38 720.168 1130.18 711.557 1127.18 710.803 1126.53ZM812.447 1083.05C825.605 1085.02 829.881 1091.61 825.276 1102.81L825.276 1103.8C818.697 1118.29 808.171 1126.86 793.698 1129.49L791.724 1130.48 786.789 1130.48C783.5 1131.14 781.198 1129.82 779.882 1126.53 774.619 1115.99 775.934 1106.43 783.829 1097.87L787.776 1093.92 788.763 1092.93C795.342 1087 803.237 1083.7 812.447 1083.05ZM829.296 1033 835.602 1033.88 846 1071.19 840.079 1102.81 830.21 1086.01 831.197 1071.19 828.237 1049.45 827.25 1047.47C829.553 1046.48 830.868 1044.75 831.197 1042.28Z" fill="#BF6A4A" fill-rule="evenodd"/><path d="M800.82 1028.02 809.681 1029.32 816 1037 784.273 1032.8 758 1033.45 759.361 1033.03C773.088 1029.49 786.908 1027.82 800.82 1028.02Z" fill="#D9A693" fill-rule="evenodd"/><path d="M741.836 1038.53 741.299 1043.86 747.221 1050.73 746.234 1051.72C740.312 1056.95 737.68 1063.82 738.337 1072.32L738.337 1077.23 717.61 1081.16C708.398 1083.12 703.792 1089.01 703.792 1098.82L705.766 1101.76C717.61 1108.96 729.784 1108.96 742.286 1101.76L749.195 1095.88 767.948 1101.76C775.186 1101.76 781.766 1099.15 787.688 1093.91L783.74 1097.84C775.844 1106.34 774.528 1115.83 779.792 1126.3 781.108 1129.57 783.411 1130.88 786.701 1130.22L791.636 1130.22 790.649 1131.21 792.623 1131.21 791.636 1130.22 793.61 1129.24 804.468 1132.19 824.208 1124.34 822.234 1126.3 812.364 1135.13 801.507 1142 779.792 1139.06 775.844 1135.13 766.961 1135.13C748.537 1135.13 733.402 1128.92 721.558 1116.48L720.571 1115.5C712.017 1118.12 703.792 1114.85 695.896 1105.69L690.961 1093.91 690.961 1091.95 689.974 1090.97 689.974 1089.99 688 1071.34 689.582 1062.93C696.71 1058.87 699.222 1054.8 710.968 1050.73 718.909 1046.79 726.942 1043.37 735.067 1040.48L741.836 1038.53ZM810.149 1028 830.311 1031.35 827.169 1047.79 828.156 1049.75 831.117 1071.34 830.13 1086.06 840 1102.75 832.104 1116.48C834.736 1110.6 833.091 1106.02 827.169 1102.75L825.195 1103.73 825.195 1102.75C829.801 1091.62 825.524 1085.08 812.364 1083.12 803.152 1083.77 795.255 1087.04 788.675 1092.93 794.597 1087.04 797.559 1080.17 797.559 1072.32 797.559 1063.82 794.597 1056.95 788.675 1051.72L778.805 1044.85 782.753 1039.94 784.727 1033.07 816.312 1036.99 810.149 1028Z" fill="#663124" fill-rule="evenodd"/><path d="M54.5937 0.0146919 71.1912 4.77021 74.575 20.4565C75.525 27.4699 76 34.8911 76 42.7201L73.15 74.0364 70.4103 64.4408 73.15 74.0368 69.35 87.7375C69.9833 84.8017 70.1021 82.1919 69.7062 79.9086L67.6718 75.535 69.7061 79.9086C70.1019 82.1919 69.9833 84.8017 69.3499 87.7375L65.5499 95.5665 64.5999 97.5238 59.8499 106.332 54.764 113 39.53 112.346 34.731 112.346 34.1978 112.346 16.0681 100.261 10.4878 96.2628 3.79996 76.9723 3.80014 76.9727 1.42499 65.2292 1.42499 63.2719 0.949991 62.2933 0.949991 61.3147 0 42.7205 0.754149 34.4113 11.2691 21.9866C18.912 14.1132 26.7326 8.34572 34.731 4.68349 41.3076 1.38785 47.9284-0.168419 54.5937 0.0146919Z" fill="#663124" fill-rule="evenodd" transform="matrix(-1 0 0 1 531 1031)"/><path d="M47.1555 0.00143517 52.814 4.90109 47.1555 0.00143517M58.001 139.143 52.814 146.002 58.001 139.143M0.000690652 97.9884 0.000690652 96.0287 0.000690652 97.9884M47.627 135.223 48.0986 134.243 48.5701 135.223 47.627 135.223" fill="#0A51F5" fill-rule="evenodd" transform="matrix(-1 0 0 1 530 998)"/><path d="M61.4191 83.3184 57.6396 91.1599 48.1907 99.0018 42.9936 96.0612C49.9228 93.4473 54.9623 84.9521 58.112 70.5759L59.0569 69.5957C61.8916 72.8629 62.679 77.4372 61.4191 83.3184M38.7416 0.00143565 37.7967 6.86313 35.9069 11.7641 40.6314 18.6254C43.466 23.853 44.8834 30.7143 44.8834 39.2094 44.8834 47.051 43.466 53.9127 40.6314 59.7938L40.1589 60.774C37.3242 66.0016 34.1745 68.6155 30.71 68.6155L21.7334 62.7344 18.4262 68.6155C12.4419 75.8035 6.6151 75.8035 0.945583 68.6155L0.000691974 65.6749C0.000691974 55.873 2.2055 49.9919 6.6151 48.0312L16.5365 44.1104 16.5365 39.2094C16.2214 30.7143 17.4813 23.853 20.316 18.6254L20.7885 17.6452 17.9538 10.7839 18.4262 0.981627 38.7416 0.00143565" fill-rule="evenodd" transform="matrix(-1 0 0 1 524 1035)"/><path d="M0 72.1122C3.7896 81.2517 7.73687 84.5156 11.8421 81.9042L12.3158 82.8834C18 95.2868 25.2631 101.489 34.1052 101.489L38.3683 101.489 40.263 105.405 50.6841 108.343 49.2945 109 34.9972 108.384 30.2115 108.384 29.6798 108.384 11.6004 96.2922 7.46733 93.3205 7.10535 92.6758ZM55.8946 49.5905C62.2104 51.5489 64.263 58.0767 62.0524 69.1746L62.0524 70.1538C58.8945 84.5156 53.842 93.0021 46.8947 95.6135L45.9473 96.5927 43.5788 96.5927C41.9999 97.2452 40.8947 95.9397 40.263 92.6758 37.7368 82.2309 38.3683 72.7651 42.1577 64.2786L44.0525 60.3618 44.5261 59.3826C47.684 53.5073 51.4735 50.2431 55.8946 49.5905ZM63.9818 0 67.009 0.870563 71.9998 37.8397 69.1578 69.1746 64.4208 52.5281 64.8945 37.8397 63.4734 16.2972 62.9998 14.3388C64.1051 13.3596 64.7366 11.6461 64.8945 9.19792Z" fill="#BF6A4A" fill-rule="evenodd" transform="matrix(-1 0 0 1 527 1036)"/><path d="M19.9338 0.01402 24.0584 1.1746 27.0002 8.00026 12.2307 4.2648 0 4.8403 0.633751 4.46929C7.02399 1.32437 13.4573-0.160717 19.9338 0.01402Z" fill="#D9A693" fill-rule="evenodd" transform="matrix(-1 0 0 1 497 1031)"/><path d="M25.8553 10.5286 25.5976 15.8644 28.4417 22.7338 27.9677 23.7152C25.1236 28.9489 23.8594 35.8184 24.1753 44.3235L24.1753 49.2303 14.2209 53.1557C9.79653 55.1184 7.58454 61.0069 7.58454 70.8204L8.53259 73.7644C14.2209 80.9609 20.0673 80.9609 26.0716 73.7644L29.3898 67.8763 38.3962 73.7644C41.8725 73.7644 45.0325 71.1474 47.8768 65.9136L45.9807 69.839C42.1884 78.3442 41.5564 87.8307 44.0845 98.2982 44.7166 101.57 45.8226 102.878 47.4028 102.224L49.7729 102.224 49.2989 103.205 50.247 103.205 49.7729 102.224 50.721 101.243 55.9352 104.187 65.4157 96.3355 64.4676 98.2982 59.7274 107.131 54.5132 114 44.0845 111.056 42.1884 107.131 37.9222 107.131C29.0737 107.131 21.8052 100.915 16.117 88.4847L15.6429 87.5033C11.5347 90.1204 7.58454 86.8493 3.79236 77.6898L1.42207 65.9136 1.42207 63.9509 0.948046 62.9696 0.948046 61.9882 0 43.3422 0.759721 34.9305C4.18341 30.8653 5.38973 26.8001 11.031 22.7349 14.8447 18.7872 18.7026 15.3674 22.6049 12.4755L25.8553 10.5286ZM58.6636 0 68.3471 3.35298 66.8378 19.7898 67.312 21.7525 68.734 43.3422 68.26 58.0628 73.0002 74.7458 69.208 88.4847C70.472 82.5966 69.6821 78.0168 66.8378 74.7458L65.8897 75.7271 65.8897 74.7458C68.1019 63.6236 66.0478 57.0811 59.7274 55.1184 55.3033 55.7728 51.5109 59.0442 48.3509 64.9323 51.195 59.0442 52.6171 52.1743 52.6171 44.3235 52.6171 35.8184 51.195 28.9489 48.3509 23.7152L43.6105 16.8457 45.5065 11.9386 46.4548 5.06917 61.6235 8.99457 58.6636 0Z" fill="#663124" fill-rule="evenodd" transform="matrix(-1 0 0 1 531 1030)"/></g></svg>