<svg width="1761" height="1761" xmlns="http://www.w3.org/2000/svg" xmlns:xlink="http://www.w3.org/1999/xlink" overflow="hidden"><defs><clipPath id="clip0"><rect x="0" y="0" width="1761" height="1761"/></clipPath></defs><g clip-path="url(#clip0)"><path d="M658.271 1097.68 644.975 1087.71 635.003 1078.84 636.111 1077.73 638.327 1077.73 641.651 1081.06 642.759 1081.06 644.975 1081.06 707.024 1041.16 742.481 1023.43 833.337 1019 866.578 1027.87 898.711 1043.38C923.087 1059.63 940.446 1075.52 950.787 1091.03L951.895 1092.14 951.895 1094.35 953.003 1095.46 951.895 1096.57 950.787 1098.79 950.787 1099.89 948.571 1101 945.247 1101 934.167 1110.98C901.665 1128.71 872.488 1138.68 846.634 1140.89L828.905 1142 864.362 1136.46C883.568 1133.51 909.052 1120.58 940.815 1097.68 918.655 1071.08 890.954 1051.88 857.714 1040.06L842.202 1034.52C814.132 1027.13 786.432 1026.76 759.101 1033.41 725.86 1040.79 694.097 1056.68 663.812 1081.06L650.515 1088.81 649.407 1088.81 648.299 1088.81 649.407 1089.92 658.271 1097.68" fill-rule="evenodd"/><path d="M829.25 1141.9 822.612 1143 769.501 1141.9 759.543 1141.9 758.436 1141.9 720.817 1129.75 695.368 1120.92 694.262 1120.92 661.068 1098.84 658.855 1097.74 650.003 1090.01 650.003 1088.91 651.109 1088.91 664.387 1081.18C694.631 1056.89 726.349 1041.07 759.543 1033.71 786.836 1027.08 814.497 1027.45 842.528 1034.81L858.018 1040.33C891.212 1052.11 918.874 1071.24 941.003 1097.74 909.285 1120.55 883.836 1133.43 864.657 1136.38L829.25 1141.9" fill="#FFFFFF" fill-rule="evenodd"/><path d="M969.004 999.002C871.133 971.357 764.799 956.08 650.003 953.17 718.439 940.802 786.875 944.44 855.311 964.082L969.004 999.002" fill="#010101" fill-rule="evenodd" fill-opacity="0.501961"/><path d="M11.8569 78.0385 5.08321 68.1466 0.00323977 59.3539 0.567681 58.2548 1.69656 58.2548 3.38988 61.5519 3.95432 61.5519 5.08321 61.5519 36.693 21.9845 54.7558 4.39885 101.041 0.00250953 117.975 8.79518 134.344 24.1825C146.763 40.3027 155.606 56.0564 160.874 71.4441L161.439 72.543 161.439 74.7413 162.003 75.8405 161.439 76.9396 160.874 79.1376 160.874 80.2368 159.745 81.336 158.052 81.336 152.407 91.2278C135.85 108.814 120.986 118.705 107.815 120.904L98.7836 122.003 116.846 116.507C126.63 113.576 139.613 100.753 155.794 78.0385 144.505 51.6601 130.393 32.6088 113.459 20.8854L105.557 15.3899C91.2576 8.0624 77.1459 7.69601 63.2228 14.2907 46.2888 21.6178 30.1076 37.3719 14.6791 61.5519L7.90541 69.2458 7.34097 69.2458 6.77653 69.2458 7.34097 70.345 11.8569 78.0385" fill-rule="evenodd" transform="matrix(-1 0 0 1 560 1024)"/><path d="M91.7828 112.899 88.3837 114.003 61.1895 112.899 56.0908 112.899 55.5243 112.899 36.2618 100.755 23.2314 91.9231 22.6649 91.9231 5.66848 69.8436 4.53543 68.7395 0.00325173 61.0115 0.00325173 59.9075 0.569775 59.9075 7.36805 52.1798C22.8538 27.8922 39.0944 12.0686 56.0908 4.70859 70.0657-1.91498 84.2291-1.54697 98.5815 5.81264L106.513 11.3325C123.509 23.1083 137.673 42.2441 149.004 68.7395 132.763 91.5547 119.732 104.435 109.912 107.379L91.7828 112.899" fill="#FFFFFF" fill-rule="evenodd" transform="matrix(-1 0 0 1 553 1033)"/><path d="M164.003 54.0025C113.687 25.8358 59.0204 10.2701 0.00325708 7.30505 35.1866-5.29591 70.3699-1.58954 105.553 18.4235L164.003 54.0025" fill="#010101" fill-rule="evenodd" fill-opacity="0.501961" transform="matrix(-1 0 0 1 553 950)"/><path d="M708 1085C708 1055.73 736.206 1032 771 1032 805.794 1032 834 1055.73 834 1085 834 1114.27 805.794 1138 771 1138 736.206 1138 708 1114.27 708 1085Z" fill="#FF6600" fill-rule="evenodd"/><path d="M800.86 1028.02 822 1029.91C820.184 1039.9 816.017 1055.88 814.202 1065.87 810.518 1075.26 806.169 1083.29 798.802 1091.17 783.332 1106.18 757.799 1108.01 741.2 1108.9 724.602 1109.79 711.734 1104.77 699.21 1096.51L697 1077.37 701.078 1056.2 709.967 1049.5C725.897 1041.38 742.786 1036.6 759.458 1032.83 773.167 1029.43 786.967 1027.83 800.86 1028.02Z" fill="#FF6600" fill-rule="evenodd"/><path d="M817.78 1031 836.529 1033.61 845.493 1047.25C849.164 1056.47 851 1066.54 851 1077.46 851 1099.29 843.657 1118.12 828.971 1133.93L817.852 1143 768.719 1142.56 758.748 1141.97 757.641 1141.97C741.569 1138.49 732.529 1133.84 719.973 1129.77L715.622 1128.25 706.435 1116.14C702.947 1109.93 700.468 1103.44 699 1096.66 711.483 1104.94 725.435 1109.08 740.855 1109.08 762.15 1109.08 780.507 1101.55 795.928 1086.49 803.271 1078.59 808.778 1069.93 812.449 1060.52L817.78 1031Z" fill="#DF5900" fill-rule="evenodd"/><path d="M797.103 1054.05 807.002 1077.5 797.103 1100.95 774.007 1111 750.91 1100.95 742.112 1085.32 742.112 1077.5C741.378 1067.82 744.311 1060.01 750.91 1054.05L774.007 1044 791.604 1049.58 797.103 1054.05" fill="#481800" fill-rule="evenodd"/><path d="M711.831 1049.27 711.193 1050.32C707.977 1058.76 706.2 1068.03 706.2 1077.76 706.2 1097.23 713.312 1114.86 724.81 1127.62L737.35 1137 720.644 1131.4 695.225 1122.23 694.243 1122.23 688.994 1113.91C684.491 1102.53 682 1090.01 682 1076.87L684.029 1066.13 687.212 1063.73C694.948 1058.53 702.777 1053.88 710.697 1049.77L711.831 1049.27ZM815.334 1029 842.214 1032.87 850.564 1035.97 853.006 1039.84C857.51 1051.22 860 1063.74 860 1076.87 860 1090.01 857.51 1102.53 853.006 1113.91 846.598 1126.91 842.82 1131.48 838.713 1137.11L834.629 1141.9 828.952 1144 821.736 1143.97 789.517 1143.26 794.474 1142.73C817.279 1132.03 833.281 1106.97 833.281 1077.76 833.281 1068.03 831.504 1058.76 828.288 1050.32L815.334 1029Z" fill="#A84300" fill-rule="evenodd"/><path d="M0 53.5C-8.40268e-15 23.9527 14.7746 0 33 0 51.2254-1.36225e-14 66 23.9527 66 53.5 66 83.0471 51.2254 107 33 107 14.7746 107-1.2604e-14 83.0471 0 53.5Z" fill="#FF6600" fill-rule="evenodd" transform="matrix(-1 0 0 1 523 1036)"/><path d="M54.0073 0.0151454 65 1.91201C64.0559 11.9032 61.889 27.883 60.9449 37.8742 59.0296 47.2566 56.7678 55.2895 52.9369 63.1711 44.8924 78.1838 31.6155 80.0083 22.9841 80.8985 14.3528 81.7888 7.66157 76.7705 1.14921 68.5133L0 49.3725 2.12027 28.2033 6.74254 21.4957C15.0266 13.3793 23.8089 8.60332 32.4783 4.82805 39.6066 1.43069 46.7829-0.173618 54.0073 0.0151454Z" fill="#FF6600" fill-rule="evenodd" transform="matrix(-1 0 0 1 529 1033)"/><path d="M62.5158 0 72.3838 2.61113 77.1015 16.2462C79.0339 25.4693 80.0001 35.5404 80.0001 46.4583 80.0001 68.2937 76.1356 87.1178 68.4059 102.93L62.5536 112 36.6945 111.561 31.4467 110.975 30.8635 110.975C22.405 107.493 17.6468 102.838 11.0383 98.77L8.74873 97.2547 3.91305 85.1414C2.0773 78.9293 0.772948 72.4353 0 65.6587 6.57025 73.9416 13.9131 78.0825 22.029 78.0825 33.2368 78.0825 42.8986 70.5531 51.0146 55.4935 54.8795 47.5874 57.778 38.9285 59.7102 29.5168L62.5158 0Z" fill="#DF5900" fill-rule="evenodd" transform="matrix(-1 0 0 1 528 1036)"/><path d="M28.8233 10.2015 34.001 34.0015 28.8233 57.8015 16.742 68.0016 4.66072 57.8015 0.0583227 41.9349 0.0583227 34.0015C-0.32521 24.1793 1.20892 16.2459 4.66072 10.2015L16.742 0.00148732 25.9468 5.66816 28.8233 10.2015" fill="#481800" fill-rule="evenodd" transform="matrix(-1 0 0 1 505 1048)"/><path d="M15.7534 20.0935 15.4165 21.1344C13.7184 29.4964 12.7795 38.6897 12.7795 48.34 12.7795 67.6408 16.5353 85.1142 22.6077 97.7624L29.2297 107.062 20.4074 101.508 6.98389 92.4227 6.46552 92.4227 3.69355 84.1722C1.31526 72.8875 0 60.4808 0 47.458L1.07159 36.8075 2.75255 34.4331C6.83788 29.2752 10.9719 24.6619 15.1547 20.5924L15.7534 20.0935ZM70.4123 0 84.6072 3.84133 89.0169 6.90588 90.3063 10.7439C92.6848 22.0286 93.9998 34.4349 93.9998 47.458 93.9998 60.4808 92.6848 72.8875 90.3063 84.1722 86.9223 97.0635 84.927 101.593 82.7581 107.168L80.6014 111.922 77.6037 114 73.7933 113.969 56.7784 113.267 59.396 112.741C71.4395 102.131 79.89 77.2908 79.89 48.34 79.89 38.69 78.9511 29.4964 77.253 21.1347L70.4123 0Z" fill="#A84300" fill-rule="evenodd" transform="matrix(-1 0 0 1 537 1034)"/></g></svg>