<svg width="1761" height="1761" xmlns="http://www.w3.org/2000/svg" xmlns:xlink="http://www.w3.org/1999/xlink" overflow="hidden"><defs><clipPath id="clip0"><rect x="0" y="0" width="1761" height="1761"/></clipPath></defs><g clip-path="url(#clip0)"><path d="M658.271 1097.68 644.975 1087.71 635.003 1078.84 636.111 1077.73 638.327 1077.73 641.651 1081.06 642.759 1081.06 644.975 1081.06 707.024 1041.16 742.481 1023.43 833.337 1019 866.578 1027.87 898.711 1043.38C923.087 1059.63 940.446 1075.52 950.787 1091.03L951.895 1092.14 951.895 1094.35 953.003 1095.46 951.895 1096.57 950.787 1098.79 950.787 1099.89 948.571 1101 945.247 1101 934.167 1110.98C901.665 1128.71 872.488 1138.68 846.634 1140.89L828.905 1142 864.362 1136.46C883.568 1133.51 909.052 1120.58 940.815 1097.68 918.655 1071.08 890.954 1051.88 857.714 1040.06L842.202 1034.52C814.132 1027.13 786.432 1026.76 759.101 1033.41 725.86 1040.79 694.097 1056.68 663.812 1081.06L650.515 1088.81 649.407 1088.81 648.299 1088.81 649.407 1089.92 658.271 1097.68" fill-rule="evenodd"/><path d="M829.25 1141.9 822.612 1143 769.501 1141.9 759.543 1141.9 758.436 1141.9 720.817 1129.75 695.368 1120.92 694.262 1120.92 661.068 1098.84 658.855 1097.74 650.003 1090.01 650.003 1088.91 651.109 1088.91 664.387 1081.18C694.631 1056.89 726.349 1041.07 759.543 1033.71 786.836 1027.08 814.497 1027.45 842.528 1034.81L858.018 1040.33C891.212 1052.11 918.874 1071.24 941.003 1097.74 909.285 1120.55 883.836 1133.43 864.657 1136.38L829.25 1141.9" fill="#FFFFFF" fill-rule="evenodd"/><path d="M969.004 999.002C871.133 971.357 764.799 956.08 650.003 953.17 718.439 940.802 786.875 944.44 855.311 964.082L969.004 999.002" fill="#010101" fill-rule="evenodd" fill-opacity="0.501961"/><path d="M11.8569 78.0385 5.08321 68.1466 0.00323977 59.3539 0.567681 58.2548 1.69656 58.2548 3.38988 61.5519 3.95432 61.5519 5.08321 61.5519 36.693 21.9845 54.7558 4.39885 101.041 0.00250953 117.975 8.79518 134.344 24.1825C146.763 40.3027 155.606 56.0564 160.874 71.4441L161.439 72.543 161.439 74.7413 162.003 75.8405 161.439 76.9396 160.874 79.1376 160.874 80.2368 159.745 81.336 158.052 81.336 152.407 91.2278C135.85 108.814 120.986 118.705 107.815 120.904L98.7836 122.003 116.846 116.507C126.63 113.576 139.613 100.753 155.794 78.0385 144.505 51.6601 130.393 32.6088 113.459 20.8854L105.557 15.3899C91.2576 8.0624 77.1459 7.69601 63.2228 14.2907 46.2888 21.6178 30.1076 37.3719 14.6791 61.5519L7.90541 69.2458 7.34097 69.2458 6.77653 69.2458 7.34097 70.345 11.8569 78.0385" fill-rule="evenodd" transform="matrix(-1 0 0 1 560 1024)"/><path d="M91.7828 112.899 88.3837 114.003 61.1895 112.899 56.0908 112.899 55.5243 112.899 36.2618 100.755 23.2314 91.9231 22.6649 91.9231 5.66848 69.8436 4.53543 68.7395 0.00325173 61.0115 0.00325173 59.9075 0.569775 59.9075 7.36805 52.1798C22.8538 27.8922 39.0944 12.0686 56.0908 4.70859 70.0657-1.91498 84.2291-1.54697 98.5815 5.81264L106.513 11.3325C123.509 23.1083 137.673 42.2441 149.004 68.7395 132.763 91.5547 119.732 104.435 109.912 107.379L91.7828 112.899" fill="#FFFFFF" fill-rule="evenodd" transform="matrix(-1 0 0 1 553 1033)"/><path d="M164.003 54.0025C113.687 25.8358 59.0204 10.2701 0.00325708 7.30505 35.1866-5.29591 70.3699-1.58954 105.553 18.4235L164.003 54.0025" fill="#010101" fill-rule="evenodd" fill-opacity="0.501961" transform="matrix(-1 0 0 1 553 950)"/><path d="M829.25 1140.89 822.612 1142 769.501 1140.89 759.543 1140.89 758.436 1140.89 720.817 1128.64 695.368 1119.73 694.262 1119.73 661.068 1097.46 658.855 1096.34 650.003 1088.55 650.003 1087.43 651.109 1087.43 664.387 1079.64C694.631 1055.14 726.349 1039.17 759.543 1031.75 786.836 1025.07 814.497 1025.44 842.528 1032.86L858.018 1038.43C891.212 1050.31 918.874 1069.61 941.003 1096.34 909.285 1119.36 883.836 1132.35 864.657 1135.32L829.25 1140.89" fill="#FFFFFF" fill-rule="evenodd"/><path d="M800.26 1027.01 815.567 1029.13 837 1078.77 815.186 1129.29 790 1140 768.932 1139.56 758.951 1139.56 757.842 1139.56 720.137 1127.46 710.401 1124.09 694 1095.61 694 1078.77 696.85 1056.6 710.156 1049.03C726.052 1041.14 742.317 1035.36 758.951 1031.69 772.629 1028.39 786.398 1026.83 800.26 1027.01Z" fill-rule="evenodd"/><path d="M58.7032 0.0148507 67.1593 2.14646 79.0001 52.224 66.9491 103.191 53.0351 114 41.3959 113.56 35.8821 113.56 35.2694 113.56 14.4393 101.345 9.06084 97.9538 0 69.2131 0 52.224 1.57469 29.8658 8.92555 22.2242C17.7068 14.2657 26.6923 8.4359 35.8821 4.7341 43.4381 1.40284 51.0452-0.170239 58.7032 0.0148507Z" fill-rule="evenodd" transform="matrix(-1 0 0 1 526 1028)"/></g></svg>