<svg width="1761" height="1761" xmlns="http://www.w3.org/2000/svg" xmlns:xlink="http://www.w3.org/1999/xlink" overflow="hidden"><defs><clipPath id="clip0"><rect x="0" y="0" width="1761" height="1761"/></clipPath></defs><g clip-path="url(#clip0)"><path d="M644.139 1115.32 647.545 1110.75 657.763 1099.33C687.282 1069.63 725.506 1053.64 772.435 1051.36 826.932 1049.07 871.589 1057.83 906.407 1077.63 917.004 1082.96 919.653 1090.57 914.355 1100.47L847.368 1149.59C824.661 1161.77 800.062 1170.91 773.57 1177 731.183 1185.37 695.987 1176.24 667.981 1149.59L664.575 1147.3 664.575 1146.16 650.951 1131.31 646.41 1124.46 645.274 1121.03 643.003 1117.6 644.139 1115.32" fill="#FFFFFF" fill-rule="evenodd"/><path d="M645.003 1112 644.003 1113 644.003 1112 645.003 1112" fill="#FF0000" fill-rule="evenodd"/><path d="M667.914 1149.42C696 1175.99 731.297 1185.11 773.805 1176.75 800.373 1170.68 825.043 1161.57 847.815 1149.42L914.993 1100.45C920.307 1090.58 917.65 1082.99 907.023 1077.68 872.106 1057.94 827.32 1049.2 772.667 1051.48 725.604 1053.76 687.271 1069.7 657.667 1099.31L647.419 1110.7 644.003 1115.26 646.28 1109.56 655.389 1094.76C674.366 1068.18 707.006 1050.34 753.31 1041.23 810.241 1029.84 888.805 1037.06 989.004 1062.87L907.023 1127.78 871.726 1149.42 801.132 1176.75C749.515 1193.46 712.32 1191.56 689.548 1171.06L667.914 1149.42M646.28 1124.37 650.835 1131.2 659.944 1142.59 646.28 1124.37" fill="#000000" fill-rule="evenodd" fill-opacity="0.8"/><path d="M999.004 1008.38C946.679 990.169 894.353 978.788 842.028 974.235 767.712 969.683 700.978 987.513 641.828 1027.73L635.003 1030 636.141 1027.73 637.278 1026.59 655.478 1011.79 675.953 1000.41C751.028 964.751 829.516 956.026 911.416 974.235L993.316 1001.55 997.866 1004.96 999.004 1008.38" fill="#000000" fill-rule="evenodd" fill-opacity="0.501961"/><path d="M0.548613 64.3196 2.18942 59.7509 7.11218 48.3293C21.3331 18.6321 39.7475 2.64139 62.3553 0.356993 88.6094-1.9274 110.123 6.82962 126.897 26.6273 132.002 31.9576 133.278 39.5722 130.726 49.4713L98.4548 98.5855C87.5155 110.769 75.6647 119.907 62.9022 125.998 42.4824 134.374 25.5266 125.237 12.0348 98.5855L10.3938 96.3011 10.3938 95.1591 3.8304 80.3104 1.64254 73.4572 1.09549 70.0308 0.00156201 66.604 0.548613 64.3196" fill="#FFFFFF" fill-rule="evenodd" transform="matrix(-1 0 0 1 557 1054)"/><path d="M1.00284 0.00222159 0.0028553 1.00257 0.0028553 0.00222159 1.00284 0.00222159" fill="#FF0000" fill-rule="evenodd" transform="matrix(-1 0 0 1 557 1115)"/><path d="M11.5065 113.422C25.0202 139.995 42.0037 149.105 62.457 140.754 75.2402 134.68 87.1105 125.569 98.0674 113.422L130.391 64.4518C132.947 54.5818 131.669 46.9895 126.556 41.6749 109.755 21.9349 88.2062 13.204 61.9091 15.4816 39.2645 17.7593 20.8201 33.7028 6.57584 63.3128L1.64522 74.7012 0.00156456 79.2566 1.09728 73.5622 5.48013 58.7574C14.6111 32.1843 30.3161 14.3426 52.5956 5.23186 79.9882-6.15659 117.79 1.05627 166.001 26.8697L126.556 91.7837 109.572 113.422 75.6054 140.754C50.7694 157.457 32.8728 155.559 21.9158 135.06L11.5065 113.422M1.09728 88.3674 3.2887 95.2004 7.67155 106.589 1.09728 88.3674" fill="#000000" fill-rule="evenodd" fill-opacity="0.8" transform="matrix(-1 0 0 1 556 1039)"/><path d="M176.002 43.3789C150.702 25.1692 125.402 13.7881 100.102 9.23562 64.1684 4.68317 31.9016 22.5134 3.30159 62.7266L0.00157069 65.0029 0.551661 62.7266 1.10158 61.5883 9.90162 46.7931 19.8017 35.412C56.1017-0.24846 94.0516-8.97416 133.652 9.23562L173.252 36.5503 175.452 39.9644 176.002 43.3789" fill="#000000" fill-rule="evenodd" fill-opacity="0.501961" transform="matrix(-1 0 0 1 561 968)"/><path d="M774.053 1050.35C787.651 1049.78 800.636 1049.9 813.006 1050.71L823.851 1052.08 836 1080.51 813.119 1134.05 759.729 1157 706.339 1134.05 686 1098.36 686 1080.51 686.474 1076.79 710.311 1063.99C729.386 1056.04 750.633 1051.49 774.053 1050.35Z" fill-rule="evenodd"/><path d="M45.7873 0.35302C52.8585-0.215273 59.6105-0.0966386 66.0431 0.708203L71.6824 2.08386 78 30.5133 66.1018 84.054 38.339 107 10.5764 84.054 0 48.3601 0 30.5133 0.246625 26.7887 12.6414 13.9899C22.5607 6.03523 33.6092 1.48961 45.7873 0.35302Z" fill-rule="evenodd" transform="matrix(-1 0 0 1 537 1053)"/><path d="M774.06 1049.35C787.728 1048.78 800.779 1048.9 813.212 1049.71L838.308 1052.88 844 1081.04C844 1126.86 806.818 1164 760.952 1164 726.552 1164 697.037 1143.11 684.43 1113.33L678 1081.52 682.87 1077.51C708.354 1060.45 738.751 1051.06 774.06 1049.35Z" fill="#663124" fill-rule="evenodd"/><path d="M45.7153 0.353438C52.2199-0.215529 58.4309-0.0967532 64.3481 0.709042L76.2913 3.88024 79.0001 32.0423C79.0001 77.8585 61.3049 115 39.4771 115 23.1062 115 9.05998 94.108 3.06001 64.3333L0 32.5203 2.3175 28.5129C14.4457 11.4465 28.9118 2.05998 45.7153 0.353438Z" fill="#663124" fill-rule="evenodd" transform="matrix(-1 0 0 1 538 1053)"/><path d="M679.001 1101 679.001 1103.12 679.001 1101M797.376 1155 809.002 1147.59 797.376 1155M785.749 1143.35 786.806 1142.3 787.863 1143.35 785.749 1143.35" fill="#0A51F5" fill-rule="evenodd"/><path d="M687 1116.07C695.474 1126.01 704.301 1129.56 713.481 1126.72L714.54 1127.79C727.25 1141.28 743.491 1148.02 763.263 1148.02L772.796 1148.02 777.033 1152.28 800.336 1155.48 763.263 1164C739.255 1164 719.13 1155.48 702.888 1138.44ZM811.987 1091.58C826.11 1093.71 830.7 1100.81 825.757 1112.88L825.757 1113.94C818.695 1129.56 807.397 1138.79 791.862 1141.63L789.744 1142.7 784.448 1142.7C780.917 1143.41 778.445 1141.99 777.033 1138.44 771.384 1127.08 772.796 1116.78 781.27 1107.55L785.507 1103.29 786.566 1102.23C793.627 1095.84 802.101 1092.29 811.987 1091.58ZM828.815 1052 844.572 1054 844.823 1054.57C846.941 1062.2 848 1070.28 848 1078.8L841.645 1112.88 831.053 1094.77 832.112 1078.8 828.934 1055.37 827.875 1053.24Z" fill="#BF6A4A" fill-rule="evenodd"/><path d="M740.514 1054.34 742.309 1056.43 741.249 1057.49C734.885 1063.15 732.057 1070.57 732.764 1079.75L732.764 1085.05 710.493 1089.29C700.594 1091.41 695.645 1097.77 695.645 1108.37L697.766 1111.55C710.493 1119.32 723.573 1119.32 737.006 1111.55L744.43 1105.19 764.58 1111.55C772.358 1111.55 779.428 1108.72 785.791 1103.07L781.549 1107.31C773.065 1116.49 771.651 1126.74 777.307 1138.04 778.721 1141.58 781.195 1142.99 784.731 1142.28L790.033 1142.28 788.973 1143.34 791.094 1143.34 790.033 1142.28 792.155 1141.22 803.821 1144.4 825.031 1135.92 822.91 1138.04 812.305 1147.58 800.639 1155 777.307 1151.82 773.065 1147.58 763.52 1147.58C743.723 1147.58 727.461 1140.87 714.735 1127.44L713.674 1126.38C704.483 1129.21 695.645 1125.68 687.161 1115.79L681.858 1103.07 681.858 1100.95 680.797 1099.89 680.797 1098.83 679 1081.76 683.474 1078.08C691.947 1072.4 700.963 1067.58 710.525 1063.61ZM776.307 1050 813.473 1050.34 828.946 1052.29 828.213 1053.26 829.273 1055.37 832.455 1078.69 831.395 1094.59 842 1112.61 833.516 1127.44C836.344 1121.08 834.576 1116.14 828.213 1112.61L826.092 1113.67 826.092 1112.61C831.041 1100.59 826.446 1093.53 812.305 1091.41 802.406 1092.12 793.922 1095.65 786.852 1102.01 793.215 1095.65 796.396 1088.23 796.396 1079.75 796.396 1070.57 793.215 1063.15 786.852 1057.49L776.246 1050.08Z" fill="#663124" fill-rule="evenodd"/><path d="M828.353 1113.19C834.754 1116.72 836.532 1121.67 833.687 1128.03L825.152 1136.52 803.816 1145 792.081 1141.82C807.727 1138.99 819.107 1129.8 826.219 1114.25ZM775.29 1051 776.636 1051.01 786.747 1058.05C793.148 1063.7 796.348 1071.13 796.348 1080.32 796.348 1088.8 793.148 1096.22 786.747 1102.58L785.68 1103.64C779.279 1109.3 772.167 1112.13 764.344 1112.13L744.074 1105.76 736.606 1112.13C723.093 1119.9 709.936 1119.9 697.134 1112.13L695 1108.95C695 1098.34 699.978 1091.98 709.936 1089.86L732.339 1085.62 732.339 1080.32C731.628 1071.13 734.472 1063.7 740.873 1058.05L741.94 1056.99 740.673 1055.52 741.509 1055.26C752.222 1052.99 763.483 1051.57 775.29 1051Z" fill-rule="evenodd"/><path d="M0 63.5027C4.21062 73.3542 8.59654 76.8724 13.158 74.0577L13.6842 75.1131C20.0002 88.4828 28.0702 95.1676 37.8948 95.1676L42.6317 95.1676 44.7369 99.3896 56.316 102.556 37.8948 111C25.9651 111 15.965 102.556 7.89477 85.668ZM62.1054 39.2265C69.1229 41.3373 71.4036 48.3741 68.9475 60.3364L68.9475 61.3918C65.4388 76.8724 59.8246 86.02 52.1054 88.8347L51.0528 89.8901 48.4212 89.8901C46.6667 90.5936 45.4386 89.1866 44.7369 85.668 41.93 74.4096 42.6317 64.2062 46.8422 55.0589L48.9475 50.8369 49.4738 49.7815C52.9826 43.4486 57.193 39.93 62.1054 39.2265ZM70.4669 0 78.2966 1.98637 78.4212 2.54816C79.4738 10.1126 80.0001 18.1169 80.0001 26.5607L76.8422 60.3364 71.579 42.3928 72.1053 26.5607 70.5265 3.33955 70 1.2287Z" fill="#BF6A4A" fill-rule="evenodd" transform="matrix(-1 0 0 1 537 1053)"/><path d="M30.1908 4.34106 31.072 6.43468 30.5515 7.49446C27.4283 13.1467 26.0404 20.5659 26.3874 29.7512L26.3874 35.0505 15.4566 39.2896C10.5984 41.4095 8.16933 47.7686 8.16933 58.3671L9.21047 61.5464C15.4566 69.3189 21.8762 69.3189 28.4694 61.5464L32.113 55.1874 42.0028 61.5464C45.8199 61.5464 49.2899 58.7204 52.4129 53.0678L50.331 57.3073C46.1668 66.4923 45.4728 76.7378 48.2489 88.0427 48.9429 91.5757 50.1575 92.9885 51.8924 92.2821L54.495 92.2821 53.9745 93.3419 55.0155 93.3419 54.495 92.2821 55.5362 91.2224 61.2618 94.4017 71.6719 85.9231 70.6309 88.0427 65.4258 97.5814 59.7002 105 48.2489 101.821 46.1668 97.5814 41.4821 97.5814C31.7661 97.5814 23.7848 90.869 17.5387 77.4442L17.0182 76.3844C12.5071 79.2107 8.16933 75.678 4.00532 65.7859L1.40275 53.0678 1.40275 50.9479 0.882268 49.8881 0.882268 48.8283 0 31.7638 2.19585 28.0802C6.3542 22.4038 10.7797 17.5789 15.4723 13.6057ZM47.7581 0 65.9993 0.33753 73.5934 2.29355 73.2335 3.25498 73.754 5.37454 75.3156 28.6915 74.7951 44.5889 80.0001 62.6065 75.8361 77.4442C77.2241 71.0851 76.3566 66.1393 73.2335 62.6065L72.1926 63.6663 72.1926 62.6065C74.6216 50.5949 72.3661 43.5291 65.4258 41.4095 60.5677 42.1159 56.4036 45.649 52.9336 52.008 56.0566 45.649 57.6181 38.2298 57.6181 29.7512 57.6181 20.5659 56.0566 13.1467 52.9336 7.49446L47.7284 0.0752868Z" fill="#663124" fill-rule="evenodd" transform="matrix(-1 0 0 1 541 1051)"/><path d="M65.724 62.1882C68.8788 65.7228 69.7551 70.6713 68.353 77.0337L64.1466 85.5171 53.6309 94.0002 47.8472 90.8192C55.5586 87.9914 61.1672 78.8011 64.6725 63.2485ZM39.5718 0 40.2351 0.0122541 45.2182 7.04683C48.3729 12.7025 49.9502 20.1252 49.9502 29.3154 49.9502 37.7985 48.3729 45.2216 45.2182 51.584L44.6923 52.6444C41.5376 58.3 38.0324 61.1278 34.1766 61.1278L24.1865 54.7651 20.506 61.1278C13.8459 68.9041 7.36115 68.9041 1.05169 61.1278L0 57.9464C0 47.3423 2.45366 40.9799 7.36115 38.8592L18.4028 34.6175 18.4028 29.3154C18.0523 20.1252 19.4543 12.7025 22.609 7.04683L23.135 5.98649 22.5102 4.51636 22.9223 4.25938C28.2022 1.98769 33.7522 0.568014 39.5718 0Z" fill-rule="evenodd" transform="matrix(-1 0 0 1 533 1051)"/></g></svg>