<svg width="1761" height="1761" xmlns="http://www.w3.org/2000/svg" xmlns:xlink="http://www.w3.org/1999/xlink" overflow="hidden"><defs><clipPath id="clip0"><rect x="0" y="0" width="1761" height="1761"/></clipPath></defs><g clip-path="url(#clip0)"><path d="M0.164968 53.8741C0.164968 24.3268 14.9396 0.373975 33.1651 0.373975 51.3907 0.373975 66.1653 24.3268 66.1653 53.8741 66.1653 83.4211 51.3907 107.374 33.1651 107.374 14.9396 107.374 0.164968 83.4211 0.164968 53.8741Z" fill="#00CCFF" fill-rule="evenodd" transform="matrix(-1 1.22465e-16 1.22465e-16 1 523 1036)"/><path d="M54.1749 0.387693 65.1675 2.28465C64.2235 12.2759 62.0565 28.2558 61.1126 38.247 59.1972 47.6293 56.9353 55.6622 53.1046 63.5438 45.0601 78.5567 31.7829 80.3811 23.1515 81.2712 14.5204 82.1618 7.82895 77.1434 1.31686 68.886L0.167495 49.7453 2.28789 28.576 6.90989 21.8686C15.194 13.7519 23.9763 8.97615 32.646 5.20065 39.7743 1.80346 46.9506 0.1989 54.1749 0.387693Z" fill="#00CCFF" fill-rule="evenodd" transform="matrix(-1 1.22465e-16 1.22465e-16 1 529 1033)"/><path d="M62.6777 0.373976 72.5455 2.98495 77.2631 16.6203C79.1958 25.8433 80.1618 35.9143 80.1618 46.8326 80.1618 68.6679 76.2975 87.492 68.5678 103.304L62.7153 112.374 36.8561 111.935 31.6085 111.349 31.0252 111.349C22.5667 107.867 17.8086 103.212 11.2001 99.1441L8.91044 97.6291 4.07475 85.5156C2.23916 79.3035 0.934578 72.8095 0.161719 66.0328 6.73192 74.3158 14.075 78.4566 22.1909 78.4566 33.3986 78.4566 43.0603 70.9273 51.1765 55.8675 55.0412 47.9614 57.9399 39.3025 59.8718 29.891L62.6777 0.373976Z" fill="#24BBDB" fill-rule="evenodd" transform="matrix(-1 1.22465e-16 1.22465e-16 1 528 1036)"/><path d="M28.9925 10.5782 34.1704 34.3783 28.9925 58.1785 16.9112 68.3784 4.82992 58.1785 0.227418 42.312 0.227418 34.3783C-0.155944 24.5561 1.37822 16.6228 4.82992 10.5782L16.9112 0.378308 26.1162 6.04498 28.9925 10.5782" fill="#0D4A53" fill-rule="evenodd" transform="matrix(-1 1.22465e-16 1.22465e-16 1 505 1048)"/><path d="M15.9135 20.4669 15.5763 21.5076C13.8783 29.8697 12.9394 39.0631 12.9394 48.7132 12.9394 68.0141 16.6954 85.4877 22.7678 98.1358L29.3896 107.435 20.5673 101.881 7.14382 92.7961 6.62545 92.7961 3.85347 84.5456C1.47533 73.261 0.159915 60.8541 0.159915 47.8313L1.23167 37.181 2.9124 34.8064C6.99798 29.6484 11.1319 25.0351 15.3146 20.9657L15.9135 20.4669ZM70.5725 0.373254 84.7674 4.21445 89.1771 7.27917 90.4666 11.1171C92.8451 22.4017 94.1601 34.8083 94.1601 47.8313 94.1601 60.8541 92.8451 73.261 90.4666 84.5456 87.0824 97.4369 85.0872 101.966 82.9184 107.541L80.7616 112.296 77.764 114.373 73.9535 114.342 56.9386 113.64 59.5561 113.114C71.5995 102.504 80.0501 77.6642 80.0501 48.7132 80.0501 39.0631 79.1112 29.8697 77.4131 21.5079L70.5725 0.373254Z" fill="#1B92AF" fill-rule="evenodd" transform="matrix(-1 1.22465e-16 1.22465e-16 1 537 1034)"/><path d="M973.5 1048 977 1048 970 1049 973.5 1048" fill="#0099CC" fill-rule="evenodd"/><path d="M809.715 1180.77 736.977 1183 692.215 1175.19 665.357 1152.87 665.357 1150.64 663.12 1147.29 662 1142.82 672.072 1110.46 675.429 1103.76 692.215 1081.44C712.358 1060.6 735.857 1045.35 762.715 1035.68 786.588 1025.26 810.833 1020.79 835.453 1022.28L843.285 1023.4 850 1024.52 877.977 1028.98C901.103 1033.44 923.111 1042 944 1054.65L944 1068.04 942.88 1066.93 941.761 1066.93 940.642 1068.04 939.523 1069.16 939.523 1072.51 940.642 1075.86 940.642 1079.2 939.523 1102.64C937.285 1115.29 927.214 1128.31 909.309 1141.71L854.476 1170.73 815.31 1179.66 809.715 1180.77" fill="#FFFFFF" fill-rule="evenodd"/><path d="M809.731 1180.42 739.461 1186 685.921 1177.07 665.844 1165.91 661.382 1151.39C653.202 1151.39 649.855 1146.55 651.344 1136.88L659.151 1106.73 664.728 1094.45 666.959 1091.1C679.6 1071.74 695.959 1055.74 716.036 1043.08 744.294 1025.22 774.781 1012.94 807.5 1006.24L822 1004 862.155 1006.24 877.77 1008.47 919.041 1019.64 921.272 1020.75 925.733 1019.64 942.464 1014.05 944.695 1012.94 949.157 1008.47 949.157 1007.35 950.272 1006.24 952.503 1005.12 952.503 1004 959.195 1009.59 959.195 1010.7 954.734 1017.4 938.003 1027.45 944.695 1030.8 963.658 1028.57 964.772 1028.57 970.35 1026.34 973.696 1022.99 978.158 1015.17 984.85 1009.59 987.081 1009.59 987.081 1010.7C987.081 1018.89 984.107 1025.96 978.158 1031.92L975.927 1034.15 972.58 1035.27 968.119 1038.62 973.696 1038.62 978.158 1038.62 982.62 1038.62C998.235 1034.9 1009.76 1027.08 1017.2 1015.17L1017.2 1012.94 1019.43 1011.82 1022.77 1011.82 1025 1015.17 1025 1016.29C1016.82 1034.15 1001.21 1044.57 978.158 1047.55L977.043 1047.55 973.696 1047.55 964.772 1047.55C967.748 1054.25 966.631 1059.46 961.426 1063.18L954.734 1059.83 943.58 1054.25C922.759 1041.59 900.823 1033.03 877.77 1028.57L849.885 1024.1 843.193 1022.99 835.386 1021.87C810.846 1020.38 786.679 1024.85 762.884 1035.27 736.114 1044.94 712.69 1060.2 692.613 1081.05L675.882 1103.38 672.536 1110.08 662.498 1142.46 663.613 1146.92 665.844 1150.27 665.844 1152.51 692.613 1174.84 737.229 1182.65 809.731 1180.42M854.347 1170.37 909.002 1141.34C926.849 1127.94 936.887 1114.92 939.118 1102.26L940.233 1078.81 940.233 1075.46 939.118 1072.11 939.118 1068.76 940.233 1067.65 941.349 1066.53 942.464 1066.53 943.58 1067.65C956.221 1077.32 956.221 1091.84 943.58 1111.19 930.195 1129.8 915.695 1143.2 900.079 1151.39L854.347 1170.37" fill-rule="evenodd"/><path d="M918.927 937.486 954.593 953.219C964.996 957.714 972.798 964.832 978 974.572L978 979.068C972.798 984.312 967.968 984.312 963.51 979.068 951.621 966.33 937.875 957.714 922.271 953.219L895.521 944.228 825.302 936.362 752.854 945.352 681.521 967.829C672.604 970.825 664.802 974.946 658.115 980.191L657 980.191 658.115 976.819 660.344 973.449 662.573 971.2C680.406 959.962 700.097 951.346 721.646 945.352L817.5 926.247 847.594 924 918.927 937.486" fill="#000000" fill-rule="evenodd" fill-opacity="0.4"/><path d="M2.14067 0.37763 4.14092 0.37763 0.140786 1.37766 2.14067 0.37763" fill="#0099CC" fill-rule="evenodd" transform="matrix(-1 1.22465e-16 1.22465e-16 1 394 1046)"/><path d="M72.9567 160.122 37.1034 162.369 15.0399 154.507 1.80165 132.046 1.80165 129.8 0.698497 126.431 0.146919 121.939 5.11112 89.37 6.76586 82.6316 15.0399 60.1708C24.9683 39.207 36.5518 23.8585 49.79 14.1258 61.5573 3.64372 73.5083-0.84866 85.643 0.649039L89.5044 1.77204 92.8135 2.89505 106.603 7.38742C118.003 11.8794 128.851 20.4895 139.147 33.2176L139.147 46.694 138.596 45.571 138.044 45.571 137.492 46.694 136.941 47.8174 136.941 51.1864 137.492 54.555 137.492 57.9244 136.941 81.5086C135.838 94.2363 130.873 107.339 122.048 120.815L95.0202 150.015 75.7146 158.999 72.9567 160.122" fill="#FFFFFF" fill-rule="evenodd" transform="matrix(-1 1.22465e-16 1.22465e-16 1 546 1020)"/><path d="M78.6482 178.718 43.8891 184.362 17.4058 175.331 7.47482 164.043 5.26779 149.368C1.22156 149.368-0.433537 144.476 0.302141 134.693L4.16427 104.214 6.92288 91.7969 8.0264 88.4109C14.2793 68.8443 22.3714 52.6645 32.3027 39.8706 46.2799 21.8093 61.3605 9.39234 77.5447 2.61927L84.7174 0.361702 104.579 2.61927 112.304 4.87684 132.718 16.1651 133.822 17.2942 136.029 16.1651 144.304 10.5211 145.408 9.39234 147.615 4.87684 147.615 3.74806 148.167 2.61927 149.269 1.49013 149.269 0.361702 152.581 6.00599 152.581 7.13477 150.374 13.9078 142.097 24.0673 145.408 27.4536 154.788 25.1961 155.339 25.1961 158.098 22.9381 159.753 19.5518 161.96 11.6499 165.271 6.00599 166.374 6.00599 166.374 7.13477C166.374 15.4128 164.903 22.562 161.96 28.5824L160.856 30.8403 159.201 31.9691 156.994 35.3555 159.753 35.3555 161.96 35.3555 164.167 35.3555C171.891 31.593 177.593 23.6908 181.271 11.6499L181.271 9.39234 182.373 8.2632 184.03 8.2632 185.132 11.6499 185.132 12.7791C181.087 30.8403 173.363 41.3759 161.96 44.3861L161.408 44.3861 159.753 44.3861 155.339 44.3861C156.811 51.1592 156.259 56.427 153.683 60.1898L150.374 56.8035 144.856 51.1592C134.558 38.3653 123.707 29.7112 112.304 25.1961L98.5105 20.6806 95.2003 19.5518 91.3382 18.423C79.2002 16.9177 67.246 21.4328 55.4755 31.9691 42.234 41.7521 30.6476 57.1796 20.7163 78.2511L12.4405 100.828 10.785 107.601 5.81937 140.337 6.3713 144.853 7.47482 148.239 7.47482 150.497 20.7163 173.074 42.7856 180.975 78.6482 178.718M100.718 168.558 127.752 139.209C136.581 125.662 141.545 112.493 142.649 99.6991L143.201 75.9936 143.201 72.6068 142.649 69.2205 142.649 65.8338 143.201 64.7053 143.753 63.5765 144.304 63.5765 144.856 64.7053C151.11 74.4883 151.11 89.1632 144.856 108.73 138.236 127.544 131.063 141.09 123.338 149.368L100.718 168.558" fill-rule="evenodd" transform="matrix(-1 1.22465e-16 1.22465e-16 1 552 1002)"/><path d="M129.881 13.8187 147.547 29.552C152.7 34.047 156.565 41.1648 159.141 50.9044L159.141 55.3997C156.565 60.644 154.172 60.644 151.964 55.3997 146.075 42.6632 139.266 34.047 131.537 29.552L118.287 20.5611 83.5052 12.6946 47.6201 21.6852 12.2867 44.1617C7.86973 47.1582 4.00543 51.2791 0.692721 56.5234L0.140782 56.5234 0.692721 53.1519 1.79696 49.7807 2.9012 47.5329C11.7344 36.2948 21.4881 27.6789 32.1615 21.6852L79.6409 2.58029 94.5468 0.332824 129.881 13.8187" fill="#000000" fill-rule="evenodd" fill-opacity="0.4" transform="matrix(-1 1.22465e-16 1.22465e-16 1 549 922)"/><path d="M823.967 1023 835.484 1032.54C851.867 1048.98 862 1071.69 862 1096.78 862 1134.41 839.201 1166.69 806.709 1180.49L804.617 1181.14 744.302 1183 736.232 1180.49C714.57 1171.29 697.217 1153.88 688.055 1132.14L681 1097.07 692.608 1081.54C712.651 1060.68 736.034 1045.41 762.757 1035.72 774.634 1030.51 786.604 1026.79 798.666 1024.55Z" fill="#206688" fill-rule="evenodd"/><path d="M779.969 1030 784.104 1030.42C814.862 1036.71 838 1063.91 838 1096.52 838 1133.79 807.779 1164 770.5 1164 733.221 1164 703 1133.79 703 1096.52 703 1087.21 704.889 1078.33 708.304 1070.26L712.112 1064.61 724.797 1054.1C736.492 1046.49 749.021 1040.27 762.387 1035.45Z" fill="#3399CC" fill-rule="evenodd"/><path d="M815.496 1046 819.116 1048.43C831.401 1060.68 839 1077.61 839 1096.3 839 1133.69 808.605 1164 771.11 1164 742.989 1164 718.861 1146.95 708.555 1122.65L708 1119.91 714.635 1122.95C721.747 1125 729.232 1126.03 737.092 1126.03 758.8 1126.03 777.514 1118.56 793.234 1103.63 808.205 1087.96 815.691 1069.3 815.691 1047.65Z" fill="#2B82AC" fill-rule="evenodd"/><path d="M794.797 1072.05 805 1095.5 794.797 1118.95 770.99 1129 747.183 1118.95 738.113 1103.32 738.113 1095.5C737.358 1085.82 740.38 1078.01 747.183 1072.05L770.99 1062 789.128 1067.58 794.797 1072.05" fill="#113948" fill-rule="evenodd"/><path d="M71.1909 0.3682C73.2099 3.55927 78.1968 7.34451 80.2158 10.5356 88.8317 27.04 94.1605 49.8406 94.1605 75.0258 94.1605 112.803 82.1705 145.216 65.0827 159.061L63.9832 159.715C52.0242 162.715 42.4413 162.151 31.67 163.368L28.6132 159.061C17.2213 149.831 7.50155 132.348 2.68317 110.526L0.160276 74.7269 5.07792 59.7278C15.6178 38.7888 27.915 23.4579 41.9687 13.7364 48.2148 8.50145 54.5099 4.76205 60.8535 2.51892 65.2888 1.99983 66.7555 0.88729 71.1909 0.3682Z" fill="#206688" fill-rule="evenodd" transform="matrix(-1 1.22465e-16 1.22465e-16 1 538 1020)"/><path d="M40.6442 0.371087 42.8191 0.787658C58.9958 7.07954 71.1644 34.2855 71.1644 66.8939 71.1644 104.16 55.2708 134.371 35.6645 134.371 16.0586 134.371 0.164607 104.16 0.164607 66.8939 0.164607 57.577 1.15803 48.7016 2.95426 40.6286L4.95698 34.9829 11.6283 24.4701C17.7786 16.8617 24.3683 10.6453 31.3977 5.8208Z" fill="#3399CC" fill-rule="evenodd" transform="matrix(-1 1.22465e-16 1.22465e-16 1 527 1028)"/><path d="M55.9639 0.376863 57.8428 2.81059C64.2199 15.0608 68.1643 31.9853 68.1643 50.6794 68.1643 88.0678 52.3866 118.377 32.9236 118.377 18.3266 118.377 5.8024 101.328 0.452309 77.0305L0.164607 74.2914 3.60872 77.3236C7.30011 79.3762 11.1857 80.4024 15.2659 80.4024 26.5339 80.4024 36.2482 72.9385 44.4082 58.0098 52.1794 42.3346 56.065 23.6738 56.065 2.0269Z" fill="#2B82AC" fill-rule="evenodd" transform="matrix(-1 1.22465e-16 1.22465e-16 1 524 1044)"/><path d="M29.8416 10.4327 35.1715 33.8827 29.8416 57.3334 17.4047 67.383 4.96819 57.3334 0.230306 41.6997 0.230306 33.8827C-0.164247 24.2051 1.41469 16.3885 4.96819 10.4327L17.4047 0.382639 26.8805 5.96628 29.8416 10.4327" fill="#113948" fill-rule="evenodd" transform="matrix(-1 1.22465e-16 1.22465e-16 1 509 1060)"/></g></svg>