<svg width="1761" height="1761" xmlns="http://www.w3.org/2000/svg" xmlns:xlink="http://www.w3.org/1999/xlink" overflow="hidden"><defs><clipPath id="clip0"><rect x="0" y="0" width="1761" height="1761"/></clipPath></defs><g clip-path="url(#clip0)"><path d="M0 53.5C-8.40268e-15 23.9527 14.7746 0 33 0 51.2254-1.36225e-14 66 23.9527 66 53.5 66 83.0471 51.2254 107 33 107 14.7746 107-1.2604e-14 83.0471 0 53.5Z" fill="#00CCFF" fill-rule="evenodd" transform="matrix(-1 0 0 1 523 1036)"/><path d="M54.0073 0.0151454 65 1.91201C64.0559 11.9032 61.889 27.883 60.9449 37.8742 59.0296 47.2566 56.7678 55.2895 52.9369 63.1711 44.8924 78.1838 31.6155 80.0083 22.9841 80.8985 14.3528 81.7888 7.66157 76.7705 1.14921 68.5133L0 49.3725 2.12027 28.2033 6.74254 21.4957C15.0266 13.3793 23.8089 8.60332 32.4783 4.82805 39.6066 1.43069 46.7829-0.173618 54.0073 0.0151454Z" fill="#00CCFF" fill-rule="evenodd" transform="matrix(-1 0 0 1 529 1033)"/><path d="M62.5158 0 72.3838 2.61113 77.1015 16.2462C79.0339 25.4693 80.0001 35.5404 80.0001 46.4583 80.0001 68.2937 76.1356 87.1178 68.4059 102.93L62.5536 112 36.6945 111.561 31.4467 110.975 30.8635 110.975C22.405 107.493 17.6468 102.838 11.0383 98.77L8.74873 97.2547 3.91305 85.1414C2.0773 78.9293 0.772948 72.4353 0 65.6587 6.57025 73.9416 13.9131 78.0825 22.029 78.0825 33.2368 78.0825 42.8986 70.5531 51.0146 55.4935 54.8795 47.5874 57.778 38.9285 59.7102 29.5168L62.5158 0Z" fill="#24BBDB" fill-rule="evenodd" transform="matrix(-1 0 0 1 528 1036)"/><path d="M28.8233 10.2015 34.001 34.0015 28.8233 57.8015 16.742 68.0016 4.66072 57.8015 0.0583227 41.9349 0.0583227 34.0015C-0.32521 24.1793 1.20892 16.2459 4.66072 10.2015L16.742 0.00148732 25.9468 5.66816 28.8233 10.2015" fill="#0D4A53" fill-rule="evenodd" transform="matrix(-1 0 0 1 505 1048)"/><path d="M15.7534 20.0935 15.4165 21.1344C13.7184 29.4964 12.7795 38.6897 12.7795 48.34 12.7795 67.6408 16.5353 85.1142 22.6077 97.7624L29.2297 107.062 20.4074 101.508 6.98389 92.4227 6.46552 92.4227 3.69355 84.1722C1.31526 72.8875 0 60.4808 0 47.458L1.07159 36.8075 2.75255 34.4331C6.83788 29.2752 10.9719 24.6619 15.1547 20.5924L15.7534 20.0935ZM70.4123 0 84.6072 3.84133 89.0169 6.90588 90.3063 10.7439C92.6848 22.0286 93.9998 34.4349 93.9998 47.458 93.9998 60.4808 92.6848 72.8875 90.3063 84.1722 86.9223 97.0635 84.927 101.593 82.7581 107.168L80.6014 111.922 77.6037 114 73.7933 113.969 56.7784 113.267 59.396 112.741C71.4395 102.131 79.89 77.2908 79.89 48.34 79.89 38.69 78.9511 29.4964 77.253 21.1347L70.4123 0Z" fill="#1B92AF" fill-rule="evenodd" transform="matrix(-1 0 0 1 537 1034)"/><path d="M973.505 1048 977.005 1048 970.005 1049 973.505 1048" fill="#0099CC" fill-rule="evenodd"/><path d="M809.719 1180.77 736.981 1183 692.219 1175.19 665.361 1152.87 665.361 1150.64 663.124 1147.29 662.004 1142.82 672.076 1110.46 675.433 1103.76 692.219 1081.44C712.362 1060.6 735.861 1045.35 762.719 1035.68 786.592 1025.26 810.838 1020.79 835.457 1022.28L843.29 1023.4 850.004 1024.52 877.981 1028.98C901.108 1033.44 923.116 1042 944.005 1054.65L944.005 1068.04 942.885 1066.93 941.766 1066.93 940.647 1068.04 939.528 1069.16 939.528 1072.51 940.647 1075.86 940.647 1079.2 939.528 1102.64C937.29 1115.29 927.219 1128.31 909.314 1141.71L854.481 1170.73 815.314 1179.66 809.719 1180.77" fill="#FFFFFF" fill-rule="evenodd"/><path d="M809.734 1180.42 739.464 1186 685.925 1177.07 665.848 1165.91 661.386 1151.39C653.206 1151.39 649.86 1146.55 651.348 1136.88L659.155 1106.73 664.732 1094.45 666.963 1091.1C679.604 1071.74 695.963 1055.74 716.04 1043.08 744.297 1025.22 774.784 1012.94 807.503 1006.24L822.003 1004 862.157 1006.24 877.772 1008.47 919.042 1019.64 921.273 1020.75 925.734 1019.64 942.465 1014.05 944.696 1012.94 949.158 1008.47 949.158 1007.35 950.273 1006.24 952.504 1005.12 952.504 1004 959.196 1009.59 959.196 1010.7 954.735 1017.4 938.004 1027.45 944.696 1030.8 963.658 1028.57 964.773 1028.57 970.35 1026.34 973.696 1022.99 978.158 1015.17 984.85 1009.59 987.081 1009.59 987.081 1010.7C987.081 1018.89 984.107 1025.96 978.158 1031.92L975.927 1034.15 972.581 1035.27 968.119 1038.62 973.696 1038.62 978.158 1038.62 982.62 1038.62C998.235 1034.9 1009.76 1027.08 1017.2 1015.17L1017.2 1012.94 1019.43 1011.82 1022.77 1011.82 1025 1015.17 1025 1016.29C1016.82 1034.15 1001.21 1044.57 978.158 1047.55L977.043 1047.55 973.696 1047.55 964.773 1047.55C967.748 1054.25 966.632 1059.46 961.427 1063.18L954.735 1059.83 943.581 1054.25C922.76 1041.59 900.824 1033.03 877.772 1028.57L849.887 1024.1 843.195 1022.99 835.388 1021.87C810.849 1020.38 786.682 1024.85 762.887 1035.27 736.117 1044.94 712.694 1060.2 692.617 1081.05L675.886 1103.38 672.54 1110.08 662.502 1142.46 663.617 1146.92 665.848 1150.27 665.848 1152.51 692.617 1174.84 737.233 1182.65 809.734 1180.42M854.349 1170.37 909.003 1141.34C926.85 1127.94 936.888 1114.92 939.119 1102.26L940.234 1078.81 940.234 1075.46 939.119 1072.11 939.119 1068.76 940.234 1067.65 941.35 1066.53 942.465 1066.53 943.581 1067.65C956.222 1077.32 956.222 1091.84 943.581 1111.19 930.196 1129.8 915.696 1143.2 900.08 1151.39L854.349 1170.37" fill-rule="evenodd"/><path d="M918.932 937.49 954.598 953.223C965.001 957.718 972.803 964.836 978.005 974.576L978.005 979.071C972.803 984.315 967.973 984.315 963.515 979.071 951.626 966.334 937.88 957.718 922.275 953.223L895.525 944.232 825.306 936.366 752.858 945.356 681.525 967.833C672.608 970.829 664.806 974.95 658.119 980.195L657.004 980.195 658.119 976.823 660.348 973.452 662.577 971.204C680.41 959.966 700.101 951.35 721.65 945.356L817.504 926.251 847.598 924.004 918.932 937.49" fill="#000000" fill-rule="evenodd" fill-opacity="0.4"/><path d="M2.00247 0.00355768 4.00257 0.00355768 0.00258662 1.00359 2.00247 0.00355768" fill="#0099CC" fill-rule="evenodd" transform="matrix(-1 0 0 1 394 1046)"/><path d="M72.8117 159.758 36.9584 162.005 14.895 154.143 1.65682 131.682 1.65682 129.436 0.553759 126.067 0.00214013 121.575 4.96635 89.0059 6.62121 82.2676 14.895 59.8067C24.8236 38.8429 36.4068 23.4943 49.645 13.7614 61.4123 3.2793 73.3633-1.21281 85.4982 0.284683L89.3594 1.4078 92.6687 2.53092 106.458 7.02303C117.858 11.5151 128.706 20.1253 139.002 32.8533L139.002 46.33 138.451 45.2069 137.899 45.2069 137.347 46.33 136.796 47.4531 136.796 50.8221 137.347 54.1911 137.347 57.5604 136.796 81.1445C135.693 93.8724 130.728 106.975 121.903 120.451L94.8752 149.651 75.5696 158.635 72.8117 159.758" fill="#FFFFFF" fill-rule="evenodd" transform="matrix(-1 0 0 1 546 1020)"/><path d="M78.5179 178.36 43.7588 184.004 17.2756 174.973 7.34435 163.685 5.13748 149.01C1.0914 149.01-0.563715 144.118 0.171969 134.335L4.03395 103.856 6.79259 91.4393 7.89612 88.053C14.1491 68.4865 22.2412 52.3067 32.1723 39.5129 46.1495 21.4516 61.2302 9.03447 77.4143 2.26145L84.5869 0.00401484 104.449 2.26145 112.173 4.51924 132.588 15.8075 133.691 16.9364 135.898 15.8075 144.174 10.1634 145.277 9.03447 147.484 4.51924 147.484 3.39035 148.036 2.26145 149.139 1.13255 149.139 0.00401484 152.45 5.64814 152.45 6.77704 150.243 13.5501 141.967 23.7094 145.277 27.0958 154.657 24.8383 155.208 24.8383 157.967 22.5805 159.622 19.1942 161.829 11.2923 165.14 5.64814 166.243 5.64814 166.243 6.77704C166.243 15.0549 164.772 22.2042 161.829 28.2247L160.726 30.4825 159.071 31.6114 156.864 34.9977 159.622 34.9977 161.829 34.9977 164.036 34.9977C171.76 31.2351 177.462 23.3331 181.14 11.2923L181.14 9.03447 182.243 7.90558 183.899 7.90558 185.002 11.2923 185.002 12.4212C180.956 30.4825 173.232 41.0181 161.829 44.0285L161.278 44.0285 159.622 44.0285 155.208 44.0285C156.68 50.8015 156.128 56.0694 153.553 59.832L150.243 56.4457 144.726 50.8015C134.427 38.0077 123.576 29.3536 112.173 24.8383L98.3801 20.3227 95.0699 19.1942 91.2077 18.0653C79.0696 16.5601 67.1155 21.0753 55.3451 31.6114 42.1035 41.3944 30.5172 56.822 20.586 77.8933L12.31 100.47 10.6548 107.243 5.68924 139.979 6.24101 144.495 7.34435 147.881 7.34435 150.139 20.586 172.716 42.6552 180.617 78.5179 178.36M100.587 168.2 127.622 138.851C136.45 125.304 141.415 112.135 142.519 99.3413L143.07 75.6358 143.07 72.2492 142.519 68.8628 142.519 65.4761 143.07 64.3476 143.622 63.2187 144.174 63.2187 144.726 64.3476C150.979 74.1306 150.979 88.8056 144.726 108.372 138.105 127.186 130.932 140.732 123.208 149.01L100.587 168.2" fill-rule="evenodd" transform="matrix(-1 0 0 1 552 1002)"/><path d="M129.742 13.4898 147.408 29.223C152.561 33.7182 156.426 40.8357 159.002 50.5756L159.002 55.0707C156.426 60.3151 154.033 60.3151 151.825 55.0707 145.936 42.3342 139.127 33.7182 131.398 29.223L118.148 20.2323 83.3666 12.3659 47.4813 21.3562 12.1479 43.8327C7.73121 46.8293 3.86676 50.9502 0.554256 56.1946L0.00214205 56.1946 0.554256 52.823 1.65831 49.4517 2.76253 47.204C11.5958 35.9659 21.3493 27.3502 32.023 21.3562L79.5021 2.25139 94.4083 0.00399698 129.742 13.4898" fill="#000000" fill-rule="evenodd" fill-opacity="0.4" transform="matrix(-1 0 0 1 549 922)"/><path d="M823.967 1023 835.484 1032.54C851.867 1048.98 862 1071.69 862 1096.78 862 1134.41 839.201 1166.69 806.709 1180.49L804.617 1181.14 744.302 1183 736.232 1180.49C714.57 1171.29 697.217 1153.88 688.055 1132.14L681 1097.07 692.608 1081.54C712.651 1060.68 736.034 1045.41 762.757 1035.72 774.634 1030.51 786.604 1026.79 798.666 1024.55Z" fill="#A6110D" fill-rule="evenodd"/><path d="M779.969 1030 784.104 1030.42C814.862 1036.71 838 1063.91 838 1096.52 838 1133.79 807.779 1164 770.5 1164 733.221 1164 703 1133.79 703 1096.52 703 1087.21 704.889 1078.33 708.304 1070.26L712.112 1064.61 724.797 1054.1C736.492 1046.49 749.021 1040.27 762.387 1035.45Z" fill="#EB1A14" fill-rule="evenodd"/><path d="M815.496 1046 819.116 1048.43C831.401 1060.68 839 1077.61 839 1096.3 839 1133.69 808.605 1164 771.11 1164 742.989 1164 718.861 1146.95 708.555 1122.65L708 1119.91 714.635 1122.95C721.747 1125 729.232 1126.03 737.092 1126.03 758.8 1126.03 777.514 1118.56 793.234 1103.63 808.205 1087.96 815.691 1069.3 815.691 1047.65Z" fill="#CF1612" fill-rule="evenodd"/><path d="M794.799 1072.05 805.002 1095.5 794.799 1118.95 770.992 1129 747.185 1118.95 738.115 1103.32 738.115 1095.5C737.359 1085.82 740.382 1078.01 747.185 1072.05L770.992 1062 789.13 1067.58 794.799 1072.05" fill="#530606" fill-rule="evenodd"/><path d="M71.0302 0C73.0492 3.19097 78.0364 6.9764 80.0554 10.1674 88.6711 26.6717 93.9998 49.4724 93.9998 74.6574 93.9998 112.435 82.0101 144.848 64.9224 158.693L63.8226 159.347C51.8638 162.347 42.2807 161.782 31.5096 163L28.4527 158.693C17.061 149.463 7.34112 131.98 2.52284 110.158L0 74.3585 4.9175 59.3597C15.4577 38.4204 27.7546 23.0897 41.8083 13.3681 48.0545 8.13339 54.3494 4.39402 60.6929 2.15077 65.1282 1.63175 66.5949 0.519013 71.0302 0Z" fill="#A6110D" fill-rule="evenodd" transform="matrix(-1 0 0 1 538 1020)"/><path d="M40.4796 0 42.6545 0.416514C58.8312 6.7085 70.9998 33.9144 70.9998 66.5227 70.9998 103.789 55.106 134 35.4999 134 15.8938 134 0 103.789 0 66.5227 0 57.206 0.993374 48.3304 2.78978 40.2575L4.79244 34.6117 11.4635 24.0991C17.6141 16.4906 24.2038 10.2742 31.233 5.4496Z" fill="#EB1A14" fill-rule="evenodd" transform="matrix(-1 0 0 1 527 1028)"/><path d="M55.7993 0 57.6781 2.43356C64.0552 14.6841 67.9997 31.6085 67.9997 50.3026 67.9997 87.6909 52.222 118 32.7591 118 18.1619 118 5.6377 100.951 0.287845 76.6536L0 73.9145 3.44418 76.9468C7.13559 78.9994 11.0212 80.0258 15.1011 80.0258 26.3693 80.0258 36.0835 72.5615 44.2434 57.6329 52.0146 41.9578 55.9002 23.2969 55.9002 1.65018Z" fill="#CF1612" fill-rule="evenodd" transform="matrix(-1 0 0 1 524 1044)"/><path d="M29.671 10.0516 35.001 33.5016 29.671 56.952 17.2344 67.0018 4.79784 56.952 0.0599849 41.3185 0.0599849 33.5016C-0.334693 23.8239 1.2444 16.0073 4.79784 10.0516L17.2344 0.00144084 26.7099 5.58505 29.671 10.0516" fill="#530606" fill-rule="evenodd" transform="matrix(-1 0 0 1 509 1060)"/></g></svg>