<svg width="1761" height="1761" xmlns="http://www.w3.org/2000/svg" xmlns:xlink="http://www.w3.org/1999/xlink" overflow="hidden"><defs><clipPath id="clip0"><rect x="0" y="0" width="1761" height="1761"/></clipPath></defs><g clip-path="url(#clip0)"><path d="M0 53.5C-8.40268e-15 23.9527 14.7746 0 33 0 51.2254-1.36225e-14 66 23.9527 66 53.5 66 83.0471 51.2254 107 33 107 14.7746 107-1.2604e-14 83.0471 0 53.5Z" fill="#00CCFF" fill-rule="evenodd" transform="matrix(-1 0 0 1 523 1036)"/><path d="M54.0073 0.0151454 65 1.91201C64.0559 11.9032 61.889 27.883 60.9449 37.8742 59.0296 47.2566 56.7678 55.2895 52.9369 63.1711 44.8924 78.1838 31.6155 80.0083 22.9841 80.8985 14.3528 81.7888 7.66157 76.7705 1.14921 68.5133L0 49.3725 2.12027 28.2033 6.74254 21.4957C15.0266 13.3793 23.8089 8.60332 32.4783 4.82805 39.6066 1.43069 46.7829-0.173618 54.0073 0.0151454Z" fill="#00CCFF" fill-rule="evenodd" transform="matrix(-1 0 0 1 529 1033)"/><path d="M62.5158 0 72.3838 2.61113 77.1015 16.2462C79.0339 25.4693 80.0001 35.5404 80.0001 46.4583 80.0001 68.2937 76.1356 87.1178 68.4059 102.93L62.5536 112 36.6945 111.561 31.4467 110.975 30.8635 110.975C22.405 107.493 17.6468 102.838 11.0383 98.77L8.74873 97.2547 3.91305 85.1414C2.0773 78.9293 0.772948 72.4353 0 65.6587 6.57025 73.9416 13.9131 78.0825 22.029 78.0825 33.2368 78.0825 42.8986 70.5531 51.0146 55.4935 54.8795 47.5874 57.778 38.9285 59.7102 29.5168L62.5158 0Z" fill="#24BBDB" fill-rule="evenodd" transform="matrix(-1 0 0 1 528 1036)"/><path d="M28.8233 10.2015 34.001 34.0015 28.8233 57.8015 16.742 68.0016 4.66072 57.8015 0.0583227 41.9349 0.0583227 34.0015C-0.32521 24.1793 1.20892 16.2459 4.66072 10.2015L16.742 0.00148732 25.9468 5.66816 28.8233 10.2015" fill="#0D4A53" fill-rule="evenodd" transform="matrix(-1 0 0 1 505 1048)"/><path d="M15.7534 20.0935 15.4165 21.1344C13.7184 29.4964 12.7795 38.6897 12.7795 48.34 12.7795 67.6408 16.5353 85.1142 22.6077 97.7624L29.2297 107.062 20.4074 101.508 6.98389 92.4227 6.46552 92.4227 3.69355 84.1722C1.31526 72.8875 0 60.4808 0 47.458L1.07159 36.8075 2.75255 34.4331C6.83788 29.2752 10.9719 24.6619 15.1547 20.5924L15.7534 20.0935ZM70.4123 0 84.6072 3.84133 89.0169 6.90588 90.3063 10.7439C92.6848 22.0286 93.9998 34.4349 93.9998 47.458 93.9998 60.4808 92.6848 72.8875 90.3063 84.1722 86.9223 97.0635 84.927 101.593 82.7581 107.168L80.6014 111.922 77.6037 114 73.7933 113.969 56.7784 113.267 59.396 112.741C71.4395 102.131 79.89 77.2908 79.89 48.34 79.89 38.69 78.9511 29.4964 77.253 21.1347L70.4123 0Z" fill="#1B92AF" fill-rule="evenodd" transform="matrix(-1 0 0 1 537 1034)"/><path d="M973.505 1048 977.005 1048 970.005 1049 973.505 1048" fill="#0099CC" fill-rule="evenodd"/><path d="M809.719 1180.77 736.981 1183 692.219 1175.19 665.361 1152.87 665.361 1150.64 663.124 1147.29 662.004 1142.82 672.076 1110.46 675.433 1103.76 692.219 1081.44C712.362 1060.6 735.861 1045.35 762.719 1035.68 786.592 1025.26 810.838 1020.79 835.457 1022.28L843.29 1023.4 850.004 1024.52 877.981 1028.98C901.108 1033.44 923.116 1042 944.005 1054.65L944.005 1068.04 942.885 1066.93 941.766 1066.93 940.647 1068.04 939.528 1069.16 939.528 1072.51 940.647 1075.86 940.647 1079.2 939.528 1102.64C937.29 1115.29 927.219 1128.31 909.314 1141.71L854.481 1170.73 815.314 1179.66 809.719 1180.77" fill="#FFFFFF" fill-rule="evenodd"/><path d="M809.734 1180.42 739.464 1186 685.925 1177.07 665.848 1165.91 661.386 1151.39C653.206 1151.39 649.86 1146.55 651.348 1136.88L659.155 1106.73 664.732 1094.45 666.963 1091.1C679.604 1071.74 695.963 1055.74 716.04 1043.08 744.297 1025.22 774.784 1012.94 807.503 1006.24L822.003 1004 862.157 1006.24 877.772 1008.47 919.042 1019.64 921.273 1020.75 925.734 1019.64 942.465 1014.05 944.696 1012.94 949.158 1008.47 949.158 1007.35 950.273 1006.24 952.504 1005.12 952.504 1004 959.196 1009.59 959.196 1010.7 954.735 1017.4 938.004 1027.45 944.696 1030.8 963.658 1028.57 964.773 1028.57 970.35 1026.34 973.696 1022.99 978.158 1015.17 984.85 1009.59 987.081 1009.59 987.081 1010.7C987.081 1018.89 984.107 1025.96 978.158 1031.92L975.927 1034.15 972.581 1035.27 968.119 1038.62 973.696 1038.62 978.158 1038.62 982.62 1038.62C998.235 1034.9 1009.76 1027.08 1017.2 1015.17L1017.2 1012.94 1019.43 1011.82 1022.77 1011.82 1025 1015.17 1025 1016.29C1016.82 1034.15 1001.21 1044.57 978.158 1047.55L977.043 1047.55 973.696 1047.55 964.773 1047.55C967.748 1054.25 966.632 1059.46 961.427 1063.18L954.735 1059.83 943.581 1054.25C922.76 1041.59 900.824 1033.03 877.772 1028.57L849.887 1024.1 843.195 1022.99 835.388 1021.87C810.849 1020.38 786.682 1024.85 762.887 1035.27 736.117 1044.94 712.694 1060.2 692.617 1081.05L675.886 1103.38 672.54 1110.08 662.502 1142.46 663.617 1146.92 665.848 1150.27 665.848 1152.51 692.617 1174.84 737.233 1182.65 809.734 1180.42M854.349 1170.37 909.003 1141.34C926.85 1127.94 936.888 1114.92 939.119 1102.26L940.234 1078.81 940.234 1075.46 939.119 1072.11 939.119 1068.76 940.234 1067.65 941.35 1066.53 942.465 1066.53 943.581 1067.65C956.222 1077.32 956.222 1091.84 943.581 1111.19 930.196 1129.8 915.696 1143.2 900.08 1151.39L854.349 1170.37" fill-rule="evenodd"/><path d="M918.932 937.49 954.598 953.223C965.001 957.718 972.803 964.836 978.005 974.576L978.005 979.071C972.803 984.315 967.973 984.315 963.515 979.071 951.626 966.334 937.88 957.718 922.275 953.223L895.525 944.232 825.306 936.366 752.858 945.356 681.525 967.833C672.608 970.829 664.806 974.95 658.119 980.195L657.004 980.195 658.119 976.823 660.348 973.452 662.577 971.204C680.41 959.966 700.101 951.35 721.65 945.356L817.504 926.251 847.598 924.004 918.932 937.49" fill="#000000" fill-rule="evenodd" fill-opacity="0.4"/><path d="M2.00247 0.00355768 4.00257 0.00355768 0.00258662 1.00359 2.00247 0.00355768" fill="#0099CC" fill-rule="evenodd" transform="matrix(-1 0 0 1 394 1046)"/><path d="M72.8117 159.758 36.9584 162.005 14.895 154.143 1.65682 131.682 1.65682 129.436 0.553759 126.067 0.00214013 121.575 4.96635 89.0059 6.62121 82.2676 14.895 59.8067C24.8236 38.8429 36.4068 23.4943 49.645 13.7614 61.4123 3.2793 73.3633-1.21281 85.4982 0.284683L89.3594 1.4078 92.6687 2.53092 106.458 7.02303C117.858 11.5151 128.706 20.1253 139.002 32.8533L139.002 46.33 138.451 45.2069 137.899 45.2069 137.347 46.33 136.796 47.4531 136.796 50.8221 137.347 54.1911 137.347 57.5604 136.796 81.1445C135.693 93.8724 130.728 106.975 121.903 120.451L94.8752 149.651 75.5696 158.635 72.8117 159.758" fill="#FFFFFF" fill-rule="evenodd" transform="matrix(-1 0 0 1 546 1020)"/><path d="M78.5179 178.36 43.7588 184.004 17.2756 174.973 7.34435 163.685 5.13748 149.01C1.0914 149.01-0.563715 144.118 0.171969 134.335L4.03395 103.856 6.79259 91.4393 7.89612 88.053C14.1491 68.4865 22.2412 52.3067 32.1723 39.5129 46.1495 21.4516 61.2302 9.03447 77.4143 2.26145L84.5869 0.00401484 104.449 2.26145 112.173 4.51924 132.588 15.8075 133.691 16.9364 135.898 15.8075 144.174 10.1634 145.277 9.03447 147.484 4.51924 147.484 3.39035 148.036 2.26145 149.139 1.13255 149.139 0.00401484 152.45 5.64814 152.45 6.77704 150.243 13.5501 141.967 23.7094 145.277 27.0958 154.657 24.8383 155.208 24.8383 157.967 22.5805 159.622 19.1942 161.829 11.2923 165.14 5.64814 166.243 5.64814 166.243 6.77704C166.243 15.0549 164.772 22.2042 161.829 28.2247L160.726 30.4825 159.071 31.6114 156.864 34.9977 159.622 34.9977 161.829 34.9977 164.036 34.9977C171.76 31.2351 177.462 23.3331 181.14 11.2923L181.14 9.03447 182.243 7.90558 183.899 7.90558 185.002 11.2923 185.002 12.4212C180.956 30.4825 173.232 41.0181 161.829 44.0285L161.278 44.0285 159.622 44.0285 155.208 44.0285C156.68 50.8015 156.128 56.0694 153.553 59.832L150.243 56.4457 144.726 50.8015C134.427 38.0077 123.576 29.3536 112.173 24.8383L98.3801 20.3227 95.0699 19.1942 91.2077 18.0653C79.0696 16.5601 67.1155 21.0753 55.3451 31.6114 42.1035 41.3944 30.5172 56.822 20.586 77.8933L12.31 100.47 10.6548 107.243 5.68924 139.979 6.24101 144.495 7.34435 147.881 7.34435 150.139 20.586 172.716 42.6552 180.617 78.5179 178.36M100.587 168.2 127.622 138.851C136.45 125.304 141.415 112.135 142.519 99.3413L143.07 75.6358 143.07 72.2492 142.519 68.8628 142.519 65.4761 143.07 64.3476 143.622 63.2187 144.174 63.2187 144.726 64.3476C150.979 74.1306 150.979 88.8056 144.726 108.372 138.105 127.186 130.932 140.732 123.208 149.01L100.587 168.2" fill-rule="evenodd" transform="matrix(-1 0 0 1 552 1002)"/><path d="M129.742 13.4898 147.408 29.223C152.561 33.7182 156.426 40.8357 159.002 50.5756L159.002 55.0707C156.426 60.3151 154.033 60.3151 151.825 55.0707 145.936 42.3342 139.127 33.7182 131.398 29.223L118.148 20.2323 83.3666 12.3659 47.4813 21.3562 12.1479 43.8327C7.73121 46.8293 3.86676 50.9502 0.554256 56.1946L0.00214205 56.1946 0.554256 52.823 1.65831 49.4517 2.76253 47.204C11.5958 35.9659 21.3493 27.3502 32.023 21.3562L79.5021 2.25139 94.4083 0.00399698 129.742 13.4898" fill="#000000" fill-rule="evenodd" fill-opacity="0.4" transform="matrix(-1 0 0 1 549 922)"/><path d="M799.913 1165.55 800.482 1166.12 800.482 1166.12ZM799.343 1164.98 798.204 1166.12 798.204 1166.12 799.343 1164.98ZM790.229 1127.34C781.116 1137.23 779.597 1148.25 785.673 1160.42 779.597 1148.25 781.116 1137.23 790.229 1127.34ZM806.178 1097.69C806.178 1106.82 802.761 1114.8 795.926 1121.64L794.786 1122.78C787.951 1128.86 780.356 1131.91 772.002 1131.91 780.356 1131.91 787.951 1128.86 794.786 1122.78L795.926 1121.64C802.761 1114.8 806.178 1106.82 806.178 1097.69ZM746.939 1073.74 746.939 1073.74C740.104 1079.82 737.066 1087.81 737.825 1097.69 737.066 1087.81 740.104 1079.82 746.939 1073.74ZM842.633 1052.07C846.431 1061.2 845.671 1066.9 840.355 1069.18L841.494 1071.46 840.355 1069.18C845.671 1066.9 846.431 1061.2 842.633 1052.07ZM816.033 1043.1 827.824 1056.63C824.975 1052.22 821.807 1048.29 818.318 1044.86ZM800.958 1033.46 811.969 1039.97 806.89 1036.05ZM824.701 1023 834.659 1031.54 848.33 1047.51C857.443 1061.96 862 1078.3 862 1096.55L855.165 1133.05 848.012 1120.87 855.165 1133.05 846.051 1149.01 846.455 1144.7 846.051 1149.01 836.938 1158.14 814.153 1167.26 801.622 1163.84 801.622 1163.84 814.153 1167.26 836.938 1158.14 834.659 1160.42 823.267 1170.68 810.736 1178.66 808.586 1178.37 803.355 1181.11 742.074 1183 735.262 1180.95C724.44 1176.38 714.661 1169.54 705.927 1160.42L688.839 1136.47 683.143 1122.78 683.143 1120.5 682.004 1119.36 682.004 1118.22 680 1099.16 693.234 1081.5 724.639 1055.43 725.865 1054.42C737.579 1046.78 750.129 1040.55 763.517 1035.71L785.345 1028.93 796.21 1031.38 793.54 1030.21 785.872 1028.77 799.495 1024.54Z" fill="#0744A7" fill-rule="evenodd"/><path d="M823.079 1171.13 810.487 1179.12 808.328 1178.82ZM799.04 1165.43 800.184 1166.57 797.895 1166.57ZM688 1136.93C697.158 1147.57 706.697 1151.37 716.618 1148.33L717.763 1149.47C731.5 1163.91 749.053 1171.13 770.421 1171.13L780.724 1171.13 785.303 1175.7 808.328 1178.82 804.08 1181.04 739.995 1183 734.648 1181.4C723.773 1176.84 713.947 1169.99 705.171 1160.87ZM823.079 1110.71C838.342 1112.99 843.303 1120.59 837.961 1133.51L837.961 1134.65C830.329 1151.37 818.119 1161.25 801.329 1164.29L793.316 1165.43C789.5 1166.19 786.829 1164.67 785.303 1160.87 779.198 1148.71 780.724 1137.69 789.882 1127.81L794.46 1123.25 795.605 1122.11C803.237 1115.27 812.395 1111.47 823.079 1110.71ZM848.263 1048C857.421 1062.44 862 1078.78 862 1097.03L855.132 1133.51 843.684 1114.13 844.829 1097.03 841.395 1071.94 840.25 1069.66C845.592 1067.38 846.356 1061.68 842.54 1052.56Z" fill="#0A51F5" fill-rule="evenodd"/><path d="M799.243 1165.28 798.105 1166.43 800.381 1166.43 799.243 1165.28ZM742.348 1053.27 741.211 1064.7 748.038 1072.7 746.9 1073.85C740.073 1079.94 737.038 1087.94 737.797 1097.85L737.797 1103.56 713.901 1108.14C703.281 1110.42 697.97 1117.28 697.97 1128.71L700.246 1132.14C713.901 1140.52 727.935 1140.52 742.348 1132.14L750.314 1125.28 771.934 1132.14C780.278 1132.14 787.864 1129.09 794.692 1122.99L790.14 1127.57C781.037 1137.47 779.519 1148.52 785.589 1160.71 787.106 1164.52 789.761 1166.05 793.554 1165.28L801.519 1164.14 814.036 1167.57 836.794 1158.43 834.518 1160.71 823.139 1171 810.622 1179 785.589 1175.57 781.037 1171 770.796 1171C749.555 1171 732.107 1163.76 718.453 1149.28L717.315 1148.14C707.453 1151.19 697.97 1147.38 688.867 1136.71L683.178 1122.99 683.178 1120.71 682.04 1119.57 682.04 1118.42 680 1098.96 692.437 1079.5C702.483 1071.14 709.685 1063.97 723.768 1055.61L742.348 1053.27ZM823.601 1022.16 834.518 1031.56 848.173 1047.56 842.483 1052.13C846.276 1061.27 845.518 1066.99 840.207 1069.27L841.345 1071.56 844.759 1096.71 843.621 1113.85 855 1133.28 845.897 1149.28C848.931 1142.42 847.035 1137.09 840.207 1133.28L837.932 1134.42 837.932 1133.28C843.242 1120.33 838.311 1112.71 823.139 1110.42 812.518 1111.18 803.415 1114.99 795.83 1121.85 802.657 1114.99 806.07 1106.99 806.07 1097.85 806.07 1087.94 802.657 1079.94 795.83 1073.85L784.45 1065.85 789.002 1060.13 791.278 1052.13 827.691 1056.7C820.105 1044.89 810.243 1036.6 798.105 1031.84L783.173 1028.6 799.768 1023.62C807.713 1023.13 813.867 1019.05 823.601 1022.16Z" fill="#0744A7" fill-rule="evenodd"/><path d="M742.282 1053.14 791.105 1052 788.834 1059.97 784.293 1065.66 795.647 1073.64C802.459 1079.71 805.865 1087.68 805.865 1097.55 805.865 1106.66 802.459 1114.63 795.647 1121.46L794.511 1122.6C787.699 1128.67 780.129 1131.7 771.803 1131.7L750.23 1124.87 742.282 1131.7C727.901 1140.05 713.898 1140.05 700.273 1131.7L698.002 1128.29C698.002 1116.9 703.3 1110.07 713.898 1107.79L737.741 1103.24 737.741 1097.55C736.984 1087.68 740.012 1079.71 746.824 1073.64L747.96 1072.5 741.147 1064.53 742.282 1053.14M837.657 1133.98 839.928 1132.84C846.74 1136.64 848.632 1141.95 845.604 1148.78L836.521 1157.89 813.813 1167 801.324 1163.59C817.976 1160.55 830.087 1150.68 837.657 1133.98" fill="#043268" fill-rule="evenodd"/><path d="M785.184 1027C789.504 1027.98 793.824 1030.79 798.144 1031.77 810.393 1036.6 820.345 1045.01 828 1057L791.254 1052.36 741.875 1053.52 724 1055.78 725.238 1054.74C737.046 1046.98 749.696 1040.64 763.191 1035.71 770.522 1033.42 777.853 1029.3 785.184 1027Z" fill="#C5DEFC" fill-rule="evenodd"/><path d="M62.592 142.55 62.8891 143.12 62.8893 143.12ZM62.2946 141.979 61.7 143.12 61.7002 143.12 62.2947 141.98ZM57.5375 104.344C52.7804 114.228 51.9873 125.252 55.1589 137.418 51.9875 125.252 52.7804 114.228 57.5375 104.344ZM65.8625 74.6917C65.8625 83.8153 64.0785 91.7986 60.5108 98.6414L59.916 99.7818C56.3481 105.865 52.3838 108.906 48.0231 108.906 52.3838 108.906 56.3481 105.865 59.916 99.7822L60.5108 98.6418C64.0785 91.7989 65.8625 83.8157 65.8625 74.6917ZM34.9409 50.7416 34.9408 50.742C31.373 56.8244 29.7871 64.8076 30.1837 74.6917 29.7873 64.8076 31.373 56.8244 34.9409 50.7416ZM84.8913 29.073C86.8735 38.1966 86.477 43.8991 83.7019 46.1802L84.2967 48.4609 83.7021 46.1802C86.477 43.8991 86.8735 38.1966 84.8913 29.073ZM71.0065 20.0993 77.1608 33.6348C75.6742 29.2157 74.0203 25.2908 72.1992 21.8604ZM63.1375 10.4579 68.8849 16.9667 66.2341 13.0531ZM75.5311 0 80.7287 8.54439 87.8646 24.5112C92.6217 38.9571 95.0002 55.3038 95.0002 73.5514L91.4325 110.046 87.6987 97.8734 91.4323 110.046 86.6752 126.013 86.8861 121.7 86.6752 126.013 81.9181 135.137 70.0252 144.26 63.4843 140.839 63.4839 140.839 70.025 144.26 81.9181 135.137 80.7287 137.418 74.7823 147.682 68.2412 155.665 67.1194 155.372 64.3886 158.113 32.4012 160 28.8457 157.946C23.1966 153.384 18.0925 146.542 13.5334 137.418L4.61382 113.468 1.64049 99.7822 1.64049 97.5011 1.0459 96.3607 1.0459 95.2204 0 76.1639 6.90783 58.4992 23.3007 32.4338 23.9406 31.4162C30.0551 23.7843 36.6061 17.5488 43.5939 12.7093L54.9881 5.93326 60.659 8.38045 59.2657 7.21265 55.263 5.76968 62.3738 1.54118Z" fill="#0744A7" fill-rule="evenodd" transform="matrix(-1 0 0 1 541 1022)"/><path d="M69.8685 123.135 63.3554 131.116 62.2384 130.823ZM57.4344 117.434 58.0264 118.574 56.8421 118.574ZM0 88.9308C4.73677 99.5719 9.67113 103.372 14.8027 100.332L15.3948 101.472C22.4999 115.914 31.579 123.135 42.6316 123.135L47.9607 123.135 50.329 127.695 62.2384 130.823 60.0414 133.036 26.8938 135 24.1283 133.396C18.5033 128.835 13.421 121.995 8.88148 112.874ZM69.8685 62.7076C77.7633 64.9877 80.3291 72.5888 77.5659 85.5104L77.5659 86.6504C73.6186 103.372 67.3027 113.254 58.6185 116.294L54.4738 117.434C52.5 118.194 51.1185 116.674 50.329 112.874 47.1712 100.712 47.9607 89.6907 52.6974 79.8095L55.0658 75.249 55.658 74.109C59.6053 67.2681 64.3421 63.4675 69.8685 62.7076ZM82.8949 0C87.6317 14.4417 90.0001 30.7836 90.0001 49.0259L86.4476 85.5104 80.5263 66.1281 81.1186 49.0259 79.3422 23.9427 78.7502 21.6627C81.5132 19.3823 81.908 13.6814 79.9343 4.56047Z" fill="#0A51F5" fill-rule="evenodd" transform="matrix(-1 0 0 1 536 1046)"/><path d="M62.6879 143.371 62.0897 144.507 63.2862 144.507 62.6879 143.371ZM32.7775 32.0687 32.1793 43.4261 35.7686 51.3762 35.1703 52.5122C31.5812 58.5694 29.9858 66.5195 30.3847 76.3626L30.3847 82.0414 17.8224 86.5843C12.239 88.8559 9.4473 95.67 9.4473 107.027L10.6438 110.435C17.8224 118.763 25.2002 118.763 32.7775 110.435L36.9649 103.62 48.3309 110.435C52.7178 110.435 56.7058 107.406 60.2951 101.349L57.9023 105.892C53.1167 115.735 52.3189 126.714 55.5095 138.828 56.3071 142.614 57.7028 144.128 59.6969 143.371L63.8844 142.235 70.4646 145.643 82.429 136.557 81.2325 138.828 75.2504 149.05 68.6701 157 55.5095 153.593 53.1167 149.05 47.7328 149.05C36.5662 149.05 27.3935 141.857 20.2152 127.471L19.6168 126.335C14.4323 129.364 9.4473 125.578 4.66172 114.978L1.67058 101.349 1.67058 99.0773 1.07243 97.9417 1.07243 96.806 0 77.4648 6.53837 58.1335C11.8195 49.8209 15.6057 42.6997 23.0093 34.3871L32.7775 32.0687ZM75.4934 1.15037 81.2325 10.4896 88.411 26.3902 85.4199 30.9331C87.414 40.0189 87.0151 45.6977 84.2234 47.9693L84.8217 50.2406 86.6164 75.2269 86.0181 92.2628 92.0001 111.571 87.2145 127.471C88.8097 120.656 87.8127 115.356 84.2234 111.571L83.0271 112.706 83.0271 111.571C85.8188 98.699 83.2265 91.1272 75.2504 88.8559 69.667 89.6129 64.8814 93.3988 60.8934 100.213 64.4825 93.3988 66.2772 85.4487 66.2772 76.3626 66.2772 66.5195 64.4825 58.5694 60.8934 52.5122L54.9112 44.5621 57.3041 38.8832 58.5004 30.9331 77.6432 35.476C73.6552 23.7403 68.4707 15.5061 62.0897 10.7737L54.2395 7.55455 62.964 2.60317C67.1405 2.11878 70.3758-1.93934 75.4934 1.15037Z" fill="#0744A7" fill-rule="evenodd" transform="matrix(-1 0 0 1 541 1020)"/><path d="M23.1814 1.14031 48.7394 0.00144206 47.5508 7.97208 45.1733 13.665 51.1171 21.6353C54.6832 27.7082 56.4663 35.6784 56.4663 45.5465 56.4663 54.6553 54.6832 62.6255 51.1171 69.4573L50.5226 70.5958C46.9563 76.6687 42.9939 79.705 38.6351 79.705L27.342 72.8732 23.1814 79.705C15.6527 88.0549 8.32213 88.0549 1.18957 79.705L0.000752776 76.2891C0.000752776 64.9029 2.77454 58.0711 8.32213 55.7938L20.8039 51.2394 20.8039 45.5465C20.4078 35.6784 21.9927 27.7082 25.559 21.6353L26.1533 20.4968 22.587 12.5265 23.1814 1.14031M73.1089 81.982 74.2977 80.8435C77.8638 84.639 78.8544 89.9526 77.2695 96.784L72.5145 105.893 60.6271 115.002 54.0888 111.586C62.8064 108.55 69.1464 98.6818 73.1089 81.982" fill="#043268" fill-rule="evenodd" transform="matrix(-1 0 0 1 531 1051)"/><path d="M31.1801 0C33.3816 0.948994 35.5832 3.66284 37.7846 4.61183 44.0269 9.28366 49.0986 17.4131 52.9999 28.9999L34.2734 24.5148 9.10962 25.636 0 27.818 0.630914 26.8157C6.64822 19.3122 13.0952 13.1815 19.9721 8.42343 23.7081 6.20378 27.4441 2.21964 31.1801 0Z" fill="#C5DEFC" fill-rule="evenodd" transform="matrix(-1 0 0 1 517 1026)"/></g></svg>