<svg width="1761" height="1761" xmlns="http://www.w3.org/2000/svg" xmlns:xlink="http://www.w3.org/1999/xlink" overflow="hidden"><defs><clipPath id="clip0"><rect x="0" y="0" width="1761" height="1761"/></clipPath></defs><g clip-path="url(#clip0)"><path d="M1001.11 1031.98 1006 1040.79 992.3 1054.5 921.824 1101.49 935.527 1084.85 946.294 1031 1001.11 1031.98M636 1037.86 699.625 1038.83 699.625 1097.57 727.033 1124 638.937 1101.49 636 1037.86M678.09 1083.87 678.09 1082.89 677.111 1082.89 678.09 1083.87" fill="#000000" fill-rule="evenodd" fill-opacity="0.2"/><path d="M875.793 1035 955 1042.86C953.045 1069.05 943.266 1090.33 925.664 1106.7 908.063 1123.07 876.445 1135.51 830.811 1144.02 790.393 1151.22 747.692 1138.78 702.711 1106.7L682.176 1091.97C671.745 1079.53 667.508 1063.81 669.463 1044.82L875.793 1035" fill="#FFFFFF" fill-rule="evenodd"/><path d="M876.172 1035.39 669.66 1045.23C667.703 1064.24 671.944 1079.97 682.383 1092.43L702.937 1107.18C747.958 1139.3 790.696 1151.75 831.15 1144.54 876.824 1136.02 908.47 1123.57 926.087 1107.18 943.704 1090.79 953.492 1069.48 955.449 1043.26L876.172 1035.39M965.236 1031.46C971.761 1034.08 969.803 1047.19 959.364 1070.79 944.357 1102.26 918.584 1123.57 882.044 1134.71 807.661 1157.65 745.675 1148.47 696.086 1107.18L680.426 1093.41C663.461 1077.02 654.653 1057.03 654 1033.43 728.384 1029.49 802.441 1028.18 876.172 1029.49L965.236 1031.46" fill-rule="evenodd"/><path d="M196.506 1.34284 199.138 10.1532 191.768 23.8585 153.863 70.848 161.233 54.2059 167.024 0.363866 196.506 1.34284M0.137894 7.21667 34.3574 8.19564 34.3574 66.9322 49.0984 93.364 1.71718 70.848 0.137894 7.21667M22.7753 53.2269 22.7753 52.2483 22.249 52.2483 22.7753 53.2269" fill="#000000" fill-rule="evenodd" fill-opacity="0.2" transform="matrix(-1 1.22465e-16 1.22465e-16 1 581 1035)"/><path d="M111.498 0.365311 154.148 8.22275C153.095 34.4136 147.829 55.6933 138.352 72.0626 128.874 88.432 111.849 100.872 87.2765 109.384 65.5127 116.587 42.5205 104.146 18.2995 72.0626L7.24197 57.3307C1.62585 44.8899-0.6559 29.1754 0.397078 10.1868L111.498 0.365311" fill="#FFFFFF" fill-rule="evenodd" transform="matrix(-1 1.22465e-16 1.22465e-16 1 563 1039)"/><path d="M119.343 6.75465 8.54657 16.5881C7.49648 35.5994 9.77174 51.3327 15.3731 63.7883L26.3999 78.5383C50.5546 110.66 73.4837 123.116 95.1876 115.905 119.692 107.383 136.67 94.9272 146.123 78.5383 155.573 62.1491 160.825 40.8441 161.874 14.6215L119.343 6.75465M167.126 2.82142C170.627 5.44393 169.577 18.5551 163.976 42.1548 155.924 73.6218 142.097 94.9272 122.493 106.072 82.5854 129.016 49.329 119.838 22.7241 78.5383L14.3226 64.7717C5.22086 48.3825 0.495265 28.3882 0.145114 4.78839 40.0526 0.8548 79.7849-0.456278 119.343 0.8548L167.126 2.82142" fill-rule="evenodd" transform="matrix(-1 1.22465e-16 1.22465e-16 1 571 1033)"/><path d="M746 1042 745 1042 745 1040 746 1042" fill="#85C2FE" fill-rule="evenodd"/><path d="M1.19311 1.36742 0.193077 1.36742 0.193077 0.367388 1.19311 1.36742" fill="#85C2FE" fill-rule="evenodd" transform="matrix(-1 1.22465e-16 1.22465e-16 1 536 1045)"/><path d="M876.392 1035 889 1036.24 885.541 1053.34C873.917 1080.76 846.702 1100 814.983 1100 783.264 1100 756.049 1080.76 744.424 1053.34L742 1041.36Z" fill="#3399CC" fill-rule="evenodd"/><path d="M875.99 1035 895 1036.87 891.272 1056.94C887.381 1066.64 881.543 1075.57 873.76 1083.72 857.416 1099.24 837.957 1107 815.387 1107 792.817 1107 773.749 1099.24 758.182 1083.72 746.507 1072.08 739.113 1059.27 736 1045.3 749.232 1053.84 764.019 1058.11 780.364 1058.11 797.292 1058.11 812.469 1053.74 825.895 1045.01L836.151 1036.88Z" fill="#2B82AC" fill-rule="evenodd"/><path d="M883.374 1036 905 1038.13 904.399 1044.05C895.823 1085.68 858.735 1117 814.283 1117 769.83 1117 732.742 1085.68 724.165 1044.05L724 1042.42 746.486 1041.36 749.044 1053.94C759.81 1079.22 785.012 1096.96 814.385 1096.96 843.759 1096.96 868.962 1079.22 879.727 1053.94Z" fill="#206688" fill-rule="evenodd"/><path d="M845 1036 839.177 1052.35 814.645 1065 790.112 1052.35 784 1039.48Z" fill="#113948" fill-rule="evenodd"/><path d="M87.9255 0.365675 96.1594 1.60818 93.9004 18.7011C86.309 46.1242 68.5361 65.366 47.8216 65.366 27.1071 65.366 9.33424 46.1242 1.74245 18.7011L0.159192 6.72077Z" fill="#3399CC" fill-rule="evenodd" transform="matrix(-1 1.22465e-16 1.22465e-16 1 537 1040)"/><path d="M91.7243 0.365312 104.158 2.25721 101.72 22.6092C99.1746 32.4459 95.3565 41.4961 90.2655 49.7596 79.5747 65.4998 66.8472 73.3652 52.0842 73.3652 37.3211 73.3652 24.8489 65.4998 14.667 49.7596 7.03011 37.9617 2.19404 24.9737 0.157749 10.8063 8.81264 19.4684 18.4848 23.794 29.176 23.794 40.2483 23.794 50.1757 19.3702 58.9569 10.5171L65.6654 2.26804Z" fill="#2B82AC" fill-rule="evenodd" transform="matrix(-1 1.22465e-16 1.22465e-16 1 541 1039)"/><path d="M104.056 0.365676 118.155 2.5193 117.763 8.51342C112.172 50.6625 87.9935 82.3662 59.0137 82.3662 30.0339 82.3662 5.85509 50.664 0.263154 8.51162L0.155582 6.8659 14.8153 5.79161 16.4827 18.5307C23.5012 44.1222 39.9316 62.079 59.0804 62.079 78.2304 62.079 94.6608 44.1222 101.679 18.5307Z" fill="#206688" fill-rule="evenodd" transform="matrix(-1 1.22465e-16 1.22465e-16 1 549 1040)"/><path d="M40.1699 0.366038 36.3514 13.8968 20.2647 24.3665 4.17763 13.8968 0.169661 3.24706Z" fill="#113948" fill-rule="evenodd" transform="matrix(-1 1.22465e-16 1.22465e-16 1 510 1041)"/></g></svg>