<svg width="1761" height="1761" xmlns="http://www.w3.org/2000/svg" xmlns:xlink="http://www.w3.org/1999/xlink" overflow="hidden"><defs><clipPath id="clip0"><rect x="0" y="0" width="1761" height="1761"/></clipPath></defs><g clip-path="url(#clip0)"><path d="M1007.01 1034.01 1011 1034.01 1003.01 1036.01 1007.01 1034.01" fill="#0099CC" fill-rule="evenodd"/><path d="M870.007 1044 965 1053.42C962.656 1084.8 950.928 1110.3 929.817 1129.91 908.708 1149.53 870.789 1164.43 816.06 1174.63 767.587 1183.26 716.375 1168.35 662.429 1129.91L637.802 1112.26C625.292 1097.36 620.211 1078.52 622.555 1055.77L870.007 1044" fill="#FFFFFF" fill-rule="evenodd"/><path d="M870.606 1044.64 622.792 1056.4C620.444 1079.11 625.533 1097.91 638.06 1112.8L662.724 1130.42C716.75 1168.8 768.035 1183.68 816.58 1175.06 871.389 1164.88 909.364 1150.01 930.505 1130.42 951.645 1110.84 963.39 1085.37 965.739 1054.04L870.606 1044.64M977.483 1039.94C985.313 1043.07 982.964 1058.74 970.437 1086.94 952.428 1124.54 921.501 1150.01 877.653 1163.32 788.393 1190.73 714.01 1179.76 654.503 1130.42L635.711 1113.97C615.353 1094.38 604.784 1070.5 604 1042.29 693.261 1037.59 782.129 1036.02 870.606 1037.59L977.483 1039.94" fill-rule="evenodd"/><path d="M202.431 1.57075 205.142 11.8022 197.55 27.7181 158.502 82.2865 166.094 62.96 172.06 0.433874 202.431 1.57075M0.142052 8.39201 35.3932 9.52889 35.3932 77.739 50.5787 108.434 1.76896 82.2865 0.142052 8.39201M23.462 61.8231 23.462 60.6867 22.9198 60.6867 23.462 61.8231" fill="#000000" fill-rule="evenodd" fill-opacity="0.2" transform="matrix(-1 1.22465e-16 1.22465e-16 1 579 1042)"/><path d="M114.394 0.439259 158.152 9.64171C157.071 40.3159 151.669 65.2382 141.945 84.4096 132.221 103.581 114.754 118.15 89.5432 128.119 67.214 136.555 43.6246 121.985 18.7745 84.4096L7.42971 67.1559C1.66808 52.5855-0.672937 34.181 0.407392 11.942L114.394 0.439259" fill="#FFFFFF" fill-rule="evenodd" transform="matrix(-1 1.22465e-16 1.22465e-16 1 560 1046)"/><path d="M122.167 7.9109 8.74881 19.411C7.67387 41.6446 10.003 60.0446 15.7368 74.6113L27.0246 91.8613C51.7508 129.427 75.2225 143.995 97.44 135.561 122.524 125.595 139.904 111.028 149.581 91.8613 159.254 72.6943 164.631 47.7782 165.704 17.1111L122.167 7.9109M171.081 3.31102C174.665 6.37803 173.59 21.7114 167.856 49.3111 159.614 86.1114 145.459 111.028 125.391 124.062 84.5396 150.894 50.4963 140.161 23.2618 91.8613L14.6615 75.7613C5.3444 56.5943 0.506984 33.2111 0.148548 5.61138 41.0003 1.01108 81.6729-0.522215 122.167 1.01108L171.081 3.31102" fill-rule="evenodd" transform="matrix(-1 1.22465e-16 1.22465e-16 1 568 1039)"/><path d="M692 1056 691 1056 691 1054 692 1056" fill="#85C2FE" fill-rule="evenodd"/><path d="M822.398 1045 835 1046.32 831.543 1064.47C819.924 1093.58 792.722 1114 761.018 1114 729.315 1114 702.113 1093.58 690.493 1064.47L685 1052.99 822.398 1045Z" fill="#FF6600" fill-rule="evenodd"/><path d="M821.991 1046 841 1047.95 837.272 1068.85C833.381 1078.96 827.544 1088.26 819.76 1096.75 803.416 1112.92 783.957 1121 761.387 1121 738.817 1121 719.749 1112.92 704.182 1096.75 692.507 1084.62 685.113 1071.28 682 1056.73 695.232 1065.62 710.019 1070.07 726.364 1070.07 743.292 1070.07 758.469 1065.52 771.895 1056.43L782.151 1047.96Z" fill="#DF5900" fill-rule="evenodd"/><path d="M829.374 1046.48 851 1045C850.8 1047.06 850.599 1052.82 850.399 1054.88 841.823 1098.32 804.735 1131 760.283 1131 715.83 1131 678.742 1098.32 670.165 1054.88 670.11 1054.31 670.055 1053.74 670 1053.17L692.486 1052.07 695.044 1065.2C705.81 1091.58 731.012 1110.09 760.385 1110.09 789.759 1110.09 814.962 1091.58 825.727 1065.2L829.374 1046.48Z" fill="#A84300" fill-rule="evenodd"/><path d="M791 1047 785.177 1064.23 760.645 1079 736.112 1064.23 730 1049.21C750.333 1047.86 770.667 1048.35 791 1047Z" fill="#481800" fill-rule="evenodd"/><path d="M1.19318 1.3773 0.193147 1.3773 0.193147 0.377269 1.19318 1.3773" fill="#85C2FE" fill-rule="evenodd" transform="matrix(-1 1.22465e-16 1.22465e-16 1 530 1053)"/><path d="M71.4393 0.43895 78.1294 1.89171 76.2939 21.877C70.1259 53.941 55.6855 76.4389 38.855 76.4389 22.0245 76.4389 7.58405 53.941 1.41574 21.877L0.129344 7.86944Z" fill="#FF6600" fill-rule="evenodd" transform="matrix(-1 1.22465e-16 1.22465e-16 1 531 1047)"/><path d="M75.2175 0 83.9999 0.316904 82.0307 23.9819C79.9749 35.4198 76.8911 45.9431 72.7792 55.5518 64.1441 73.8541 53.8642 82.9998 41.9403 82.9998 30.0164 82.9998 19.9427 73.8541 11.719 55.5518 5.55072 41.8334 1.64469 26.7311 0 10.2576 6.99044 20.3297 14.8025 25.3594 23.4376 25.3594 32.3806 25.3594 40.3988 20.2155 47.4913 9.9214L52.9097 0.329496C59.9255-0.407987 68.2017 0.737483 75.2175 0Z" fill="#DF5900" fill-rule="evenodd" transform="matrix(-1 1.22465e-16 1.22465e-16 1 534 1049)"/><path d="M83.922 0.64137 94.0496 0C93.9441 2.34787 95.0987 7.86781 94.9932 10.2157 90.4773 59.7449 70.9481 96.9999 47.5406 96.9999 24.1332 96.9999 4.60358 59.7466 0.0868875 10.2136 0.0580222 9.56879 0.0288653 8.92445 0 8.27969L11.8409 7.01731 13.1877 21.9868C18.8566 52.0595 32.1277 73.1607 47.5943 73.1607 63.062 73.1607 76.3333 52.0595 82.002 21.9868L83.922 0.64137Z" fill="#A84300" fill-rule="evenodd" transform="matrix(-1 1.22465e-16 1.22465e-16 1 540 1047)"/><path d="M32.1357 0.438406 29.081 16.224 16.2117 28.4387 3.34208 16.224 0.135728 3.79951Z" fill="#481800" fill-rule="evenodd" transform="matrix(-1 1.22465e-16 1.22465e-16 1 509 1049)"/></g></svg>