<svg width="1761" height="1761" xmlns="http://www.w3.org/2000/svg" xmlns:xlink="http://www.w3.org/1999/xlink" overflow="hidden"><defs><clipPath id="clip0"><rect x="0" y="0" width="1761" height="1761"/></clipPath></defs><g clip-path="url(#clip0)"><path d="M1007.01 1034 1011 1034 1003 1036 1007.01 1034" fill="#0099CC" fill-rule="evenodd"/><path d="M870.007 1044 965 1053.42C962.656 1084.8 950.928 1110.3 929.817 1129.91 908.708 1149.53 870.789 1164.43 816.06 1174.63 767.587 1183.26 716.375 1168.35 662.429 1129.91L637.802 1112.26C625.292 1097.36 620.211 1078.52 622.555 1055.77L870.007 1044" fill="#FFFFFF" fill-rule="evenodd"/><path d="M870.606 1044.64 622.792 1056.4C620.444 1079.11 625.533 1097.91 638.06 1112.8L662.724 1130.42C716.75 1168.8 768.035 1183.68 816.58 1175.06 871.389 1164.88 909.364 1150.01 930.505 1130.42 951.645 1110.84 963.39 1085.37 965.739 1054.04L870.606 1044.64M977.483 1039.94C985.313 1043.07 982.964 1058.74 970.437 1086.94 952.428 1124.54 921.501 1150.01 877.653 1163.32 788.393 1190.73 714.01 1179.76 654.503 1130.42L635.711 1113.97C615.353 1094.38 604.784 1070.5 604 1042.29 693.261 1037.59 782.129 1036.02 870.606 1037.59L977.483 1039.94" fill-rule="evenodd"/><path d="M202.424 1.51287 205.135 11.7445 197.543 27.6605 158.495 82.2288 166.087 62.9023 172.053 0.376142 202.424 1.51287M0.135007 8.33432 35.3862 9.47104 35.3862 77.6815 50.5715 108.376 1.76194 82.2288 0.135007 8.33432M23.455 61.7656 23.455 60.6292 22.9125 60.6292 23.455 61.7656" fill="#000000" fill-rule="evenodd" fill-opacity="0.2" transform="matrix(-1 1.22465e-16 1.22465e-16 1 579 1042)"/><path d="M114.387 0.377586 158.145 9.58006C157.064 40.2544 151.662 65.1765 141.938 84.3482 132.214 103.519 114.748 118.089 89.5367 128.057 67.2076 136.494 43.6179 121.924 18.7681 84.3482L7.42319 67.0944C1.66159 52.5238-0.679364 34.1195 0.400688 11.8802L114.387 0.377586" fill="#FFFFFF" fill-rule="evenodd" transform="matrix(-1 1.22465e-16 1.22465e-16 1 560 1046)"/><path d="M122.161 7.84988 8.74257 19.35C7.66793 41.5835 9.99697 59.9837 15.7308 74.5503L27.0186 91.8005C51.7446 129.366 75.2163 143.934 97.4339 135.5 122.518 125.534 139.898 110.967 149.575 91.8005 159.248 72.6332 164.625 47.7172 165.698 17.0502L122.161 7.84988M171.075 3.2499C174.659 6.31715 173.584 21.6505 167.85 49.25 159.608 86.0505 145.453 110.967 125.385 124.001 84.5335 150.833 50.4902 140.1 23.2558 91.8005L14.6554 75.7004C5.33817 56.5335 0.50104 33.1503 0.142587 5.55043 40.9943 0.9501 81.667-0.583344 122.161 0.9501L171.075 3.2499" fill-rule="evenodd" transform="matrix(-1 1.22465e-16 1.22465e-16 1 568 1039)"/><path d="M692 1056 691 1056 691 1054 692 1056" fill="#85C2FE" fill-rule="evenodd"/><path d="M1.19101 1.38019 0.190981 1.38019 0.190981 0.380157 1.19101 1.38019" fill="#85C2FE" fill-rule="evenodd" transform="matrix(-1 1.22465e-16 1.22465e-16 1 530 1053)"/><path d="M850 1046 844.836 1073.57C840.358 1084.65 833.642 1094.85 824.687 1104.18 805.998 1122.06 783.805 1131 758.108 1131 732.411 1131 710.607 1122.06 692.697 1104.18 679.459 1090.97 670.894 1076.2 667 1059.87L668.168 1061.04 667.213 1054.68Z" fill="#FF9900" fill-rule="evenodd"/><path d="M850 1044 844.576 1073.19C840.105 1084.34 833.399 1094.61 824.457 1104 805.795 1122 783.635 1131 757.975 1131 732.315 1131 710.544 1122 692.66 1104 679.441 1090.7 670.888 1075.83 667 1059.4L668.166 1060.57 667.002 1052.76Z" fill="#0066CC" fill-rule="evenodd"/><path d="M691.001 1056 690.001 1056 690.001 1055 691.001 1056" fill="#85C2FE" fill-rule="evenodd"/><path d="M826 1045 822.319 1064.69C819.023 1073.03 814.08 1080.87 807.488 1088.24 793.529 1100.64 776.856 1107.22 757.468 1108 738.081 1108 722.183 1101.41 709.775 1088.24L690 1055.68 691.163 1055.68 690.597 1051.44 708.567 1050.58 708.612 1051.03C710.163 1059.56 714.816 1067.31 722.571 1074.28 731.877 1083.59 743.122 1088.24 756.305 1088.24 769.489 1088.24 781.121 1083.59 791.202 1074.28 795.855 1069.25 799.442 1063.82 801.962 1058.01L804.776 1046.01Z" fill="#85C2FE" fill-rule="evenodd"/><path d="M93.9998 0 91.347 27.5721C89.0472 38.6493 85.5972 48.8523 80.9974 58.1808 71.3976 76.0602 59.9981 84.9999 46.7986 84.9999 33.5989 84.9999 22.3994 76.0602 13.1997 58.1808 6.39979 44.9654 2.00002 30.1957 0 13.8709L0.599986 15.0369 0.109241 8.67964Z" fill="#FF9900" fill-rule="evenodd" transform="matrix(-1 0 0 1 539 1048)"/><path d="M93.9998 0 91.2137 28.8552C88.9172 39.8778 85.4724 50.0306 80.8792 59.3131 71.2935 77.1043 59.9105 85.9999 46.7303 85.9999 33.5498 85.9999 22.3667 77.1043 13.1804 59.3131 6.39045 46.1628 1.9971 31.4659 0 15.2216L0.599111 16.3819 0.000929142 8.65916Z" fill="#0066CC" fill-rule="evenodd" transform="matrix(-1 0 0 1 539 1047)"/><path d="M1.00158 1.00158 0.00124112 1.00158 0.00124112 0.00124112 1.00158 1.00158" fill="#85C2FE" fill-rule="evenodd" transform="matrix(-1 0 0 1 528 1057)"/><path d="M71.0002 0 69.0785 19.6936C67.3579 28.0255 64.777 35.8731 61.3357 43.236 54.0482 55.637 45.3439 62.225 35.2224 62.9999 25.1012 62.9999 16.8016 56.4119 10.3239 43.236L0 10.6834 0.60729 10.6834 0.311556 6.43688 9.69309 5.58259 9.71664 6.033C10.5264 14.5585 12.9554 22.3095 17.0039 29.2847 21.8622 38.5856 27.7326 43.236 34.6151 43.236 41.4978 43.236 47.5705 38.5856 52.8336 29.2847 55.2628 24.247 57.1353 18.8216 58.4511 13.0086L59.9201 1.00899Z" fill="#85C2FE" fill-rule="evenodd" transform="matrix(-1 0 0 1 528 1048)"/></g></svg>