<svg width="1761" height="1761" xmlns="http://www.w3.org/2000/svg" xmlns:xlink="http://www.w3.org/1999/xlink" overflow="hidden"><defs><clipPath id="clip0"><rect x="0" y="0" width="1761" height="1761"/></clipPath></defs><g clip-path="url(#clip0)"><path d="M1001.11 1031.98 1006 1040.79 992.3 1054.5 921.824 1101.49 935.527 1084.85 946.294 1031 1001.11 1031.98M636 1037.86 699.625 1038.83 699.625 1097.57 727.033 1124 638.937 1101.49 636 1037.86M678.09 1083.87 678.09 1082.89 677.111 1082.89 678.09 1083.87" fill="#000000" fill-rule="evenodd" fill-opacity="0.2"/><path d="M875.793 1035 955 1042.86C953.045 1069.05 943.266 1090.33 925.664 1106.7 908.063 1123.07 876.445 1135.51 830.811 1144.02 790.393 1151.22 747.692 1138.78 702.711 1106.7L682.176 1091.97C671.745 1079.53 667.508 1063.81 669.463 1044.82L875.793 1035" fill="#FFFFFF" fill-rule="evenodd"/><path d="M876.172 1035.39 669.66 1045.23C667.703 1064.24 671.944 1079.97 682.383 1092.43L702.937 1107.18C747.958 1139.3 790.696 1151.75 831.15 1144.54 876.824 1136.02 908.47 1123.57 926.087 1107.18 943.704 1090.79 953.492 1069.48 955.449 1043.26L876.172 1035.39M965.236 1031.46C971.761 1034.08 969.803 1047.19 959.364 1070.79 944.357 1102.26 918.584 1123.57 882.044 1134.71 807.661 1157.65 745.675 1148.47 696.086 1107.18L680.426 1093.41C663.461 1077.02 654.653 1057.03 654 1033.43 728.384 1029.49 802.441 1028.18 876.172 1029.49L965.236 1031.46" fill-rule="evenodd"/><path d="M196.506 1.34284 199.138 10.1532 191.768 23.8585 153.863 70.848 161.233 54.2059 167.024 0.363866 196.506 1.34284M0.137894 7.21667 34.3574 8.19564 34.3574 66.9322 49.0984 93.364 1.71718 70.848 0.137894 7.21667M22.7753 53.2269 22.7753 52.2483 22.249 52.2483 22.7753 53.2269" fill="#000000" fill-rule="evenodd" fill-opacity="0.2" transform="matrix(-1 1.22465e-16 1.22465e-16 1 581 1035)"/><path d="M111.498 0.365311 154.148 8.22275C153.095 34.4136 147.829 55.6933 138.352 72.0626 128.874 88.432 111.849 100.872 87.2765 109.384 65.5127 116.587 42.5205 104.146 18.2995 72.0626L7.24197 57.3307C1.62585 44.8899-0.6559 29.1754 0.397078 10.1868L111.498 0.365311" fill="#FFFFFF" fill-rule="evenodd" transform="matrix(-1 1.22465e-16 1.22465e-16 1 563 1039)"/><path d="M119.343 6.75465 8.54657 16.5881C7.49648 35.5994 9.77174 51.3327 15.3731 63.7883L26.3999 78.5383C50.5546 110.66 73.4837 123.116 95.1876 115.905 119.692 107.383 136.67 94.9272 146.123 78.5383 155.573 62.1491 160.825 40.8441 161.874 14.6215L119.343 6.75465M167.126 2.82142C170.627 5.44393 169.577 18.5551 163.976 42.1548 155.924 73.6218 142.097 94.9272 122.493 106.072 82.5854 129.016 49.329 119.838 22.7241 78.5383L14.3226 64.7717C5.22086 48.3825 0.495265 28.3882 0.145114 4.78839 40.0526 0.8548 79.7849-0.456278 119.343 0.8548L167.126 2.82142" fill-rule="evenodd" transform="matrix(-1 1.22465e-16 1.22465e-16 1 571 1033)"/><path d="M877.302 1035 906 1037.83 901.978 1059.27C897.472 1070.41 890.712 1080.66 881.7 1090.04 862.891 1108.01 840.555 1117 814.693 1117 788.831 1117 766.887 1108.01 748.862 1090.04 735.539 1076.76 726.919 1061.91 723 1045.5L724.176 1046.67 723.513 1042.27Z" fill="#0066CC" fill-rule="evenodd"/><path d="M877.201 1035 906 1037.83 901.974 1059.3C897.468 1070.43 890.708 1080.68 881.696 1090.05 862.887 1108.02 840.552 1117 814.691 1117 788.829 1117 766.886 1108.02 748.862 1090.05 735.539 1076.77 726.919 1061.93 723 1045.53L724.176 1046.7 723.507 1042.26Z" fill="#0066CC" fill-rule="evenodd"/><path d="M746 1042 745 1042 745 1040 746 1042" fill="#85C2FE" fill-rule="evenodd"/><path d="M876.041 1035 881 1035.49 878.169 1050.58C874.852 1058.93 869.877 1066.8 863.242 1074.18 849.194 1086.62 832.413 1093.22 812.902 1094 793.39 1094 777.39 1087.39 764.902 1074.18L745 1041.54 746.17 1041.54 746.116 1041.13 765.017 1040.24 768.414 1049.12C770.756 1053 773.878 1056.7 777.78 1060.19 787.146 1069.52 798.463 1074.18 811.731 1074.18 824.999 1074.18 836.706 1069.52 846.852 1060.19 851.536 1055.14 855.145 1049.7 857.682 1043.87L859.587 1035.78Z" fill="#85C2FE" fill-rule="evenodd"/><path d="M100.494 0.365312 119.156 3.22572 116.541 24.9351C113.61 36.206 109.214 46.5867 103.354 56.0779 91.1225 74.2695 76.5985 83.3652 59.7812 83.3652 42.9638 83.3652 28.6943 74.2695 16.9733 56.0779 8.3094 42.6318 2.70374 27.6045 0.155582 10.9947L0.920138 12.1813 0.489128 7.72137Z" fill="#0066CC" fill-rule="evenodd" transform="matrix(-1 1.22465e-16 1.22465e-16 1 550 1039)"/><path d="M100.429 0.365312 119.156 3.23474 116.538 24.9582C113.608 36.2247 109.212 46.6015 103.351 56.0888 91.1207 74.2731 76.5967 83.3652 59.7797 83.3652 42.9628 83.3652 28.6939 74.2731 16.9729 56.0888 8.3094 42.648 2.70374 27.6265 0.155582 11.0233L0.920138 12.2094 0.485518 7.71379Z" fill="#0066CC" fill-rule="evenodd" transform="matrix(-1 1.22465e-16 1.22465e-16 1 550 1039)"/><path d="M1.19311 1.36742 0.193077 1.36742 0.193077 0.367388 1.19311 1.36742" fill="#85C2FE" fill-rule="evenodd" transform="matrix(-1 1.22465e-16 1.22465e-16 1 536 1045)"/><path d="M85.9162 0.365673 89.1614 0.853358 87.3092 15.9413C85.1383 24.2962 81.8822 32.1652 77.5407 39.548 68.3473 51.983 57.3659 58.589 44.5969 59.3658 31.8283 59.3658 21.3578 52.7599 13.1855 39.548L0.161358 6.90628 0.927358 6.90628 0.891621 6.49729 13.261 5.60495 15.4842 14.484C17.0162 18.3696 19.059 22.0613 21.613 25.5589 27.7421 34.8848 35.1479 39.548 43.8309 39.548 52.514 39.548 60.175 34.8848 66.8149 25.5589 69.8796 20.5073 72.2419 15.067 73.9017 9.23822L75.1485 1.14214Z" fill="#85C2FE" fill-rule="evenodd" transform="matrix(-1 1.22465e-16 1.22465e-16 1 536 1040)"/></g></svg>