<svg width="1761" height="1761" xmlns="http://www.w3.org/2000/svg" xmlns:xlink="http://www.w3.org/1999/xlink" overflow="hidden"><defs><clipPath id="clip0"><rect x="0" y="0" width="1761" height="1761"/></clipPath></defs><g clip-path="url(#clip0)"><path d="M1020.15 1040.18 1026 1050.79 1009.6 1067.3 925.217 1123.89 941.623 1103.85 954.515 1039 1020.15 1040.18M583 1047.26 659.178 1048.43 659.178 1119.17 691.994 1151 586.516 1123.89 583 1047.26M633.394 1102.67 633.394 1101.49 632.222 1101.49 633.394 1102.67" fill="#000000" fill-rule="evenodd" fill-opacity="0.2"/><path d="M1007.01 1034.01 1011 1034.01 1003.01 1036.01 1007.01 1034.01" fill="#0099CC" fill-rule="evenodd"/><path d="M870.007 1044 965 1053.42C962.656 1084.8 950.928 1110.3 929.817 1129.91 908.708 1149.53 870.789 1164.43 816.06 1174.63 767.587 1183.26 716.375 1168.35 662.429 1129.91L637.802 1112.26C625.292 1097.36 620.211 1078.52 622.555 1055.77L870.007 1044" fill="#FFFFFF" fill-rule="evenodd"/><path d="M870.606 1044.64 622.792 1056.4C620.444 1079.11 625.533 1097.91 638.06 1112.8L662.724 1130.42C716.75 1168.8 768.035 1183.68 816.58 1175.06 871.389 1164.88 909.364 1150.01 930.505 1130.42 951.645 1110.84 963.39 1085.37 965.739 1054.04L870.606 1044.64M977.483 1039.94C985.313 1043.07 982.964 1058.74 970.437 1086.94 952.428 1124.54 921.501 1150.01 877.653 1163.32 788.393 1190.73 714.01 1179.76 654.503 1130.42L635.711 1113.97C615.353 1094.38 604.784 1070.5 604 1042.29 693.261 1037.59 782.129 1036.02 870.606 1037.59L977.483 1039.94" fill-rule="evenodd"/><path d="M202.431 1.57075 205.142 11.8022 197.55 27.7181 158.502 82.2865 166.094 62.96 172.06 0.433874 202.431 1.57075M0.142052 8.39201 35.3932 9.52889 35.3932 77.739 50.5787 108.434 1.76896 82.2865 0.142052 8.39201M23.462 61.8231 23.462 60.6867 22.9198 60.6867 23.462 61.8231" fill="#000000" fill-rule="evenodd" fill-opacity="0.2" transform="matrix(-1 1.22465e-16 1.22465e-16 1 579 1042)"/><path d="M114.394 0.439259 158.152 9.64171C157.071 40.3159 151.669 65.2382 141.945 84.4096 132.221 103.581 114.754 118.15 89.5432 128.119 67.214 136.555 43.6246 121.985 18.7745 84.4096L7.42971 67.1559C1.66808 52.5855-0.672937 34.181 0.407392 11.942L114.394 0.439259" fill="#FFFFFF" fill-rule="evenodd" transform="matrix(-1 1.22465e-16 1.22465e-16 1 560 1046)"/><path d="M122.167 7.9109 8.74881 19.411C7.67387 41.6446 10.003 60.0446 15.7368 74.6113L27.0246 91.8613C51.7508 129.427 75.2225 143.995 97.44 135.561 122.524 125.595 139.904 111.028 149.581 91.8613 159.254 72.6943 164.631 47.7782 165.704 17.1111L122.167 7.9109M171.081 3.31102C174.665 6.37803 173.59 21.7114 167.856 49.3111 159.614 86.1114 145.459 111.028 125.391 124.062 84.5396 150.894 50.4963 140.161 23.2618 91.8613L14.6615 75.7613C5.3444 56.5943 0.506984 33.2111 0.148548 5.61138 41.0003 1.01108 81.6729-0.522215 122.167 1.01108L171.081 3.31102" fill-rule="evenodd" transform="matrix(-1 1.22465e-16 1.22465e-16 1 568 1039)"/><path d="M692 1056 691 1056 691 1054 692 1056" fill="#85C2FE" fill-rule="evenodd"/><path d="M822.398 1045 835 1046.32 831.543 1064.47C819.924 1093.58 792.722 1114 761.018 1114 729.315 1114 702.113 1093.58 690.493 1064.47L685 1052.99 822.398 1045Z" fill="#996600" fill-rule="evenodd"/><path d="M821.991 1046 841 1047.95 837.272 1068.85C833.381 1078.96 827.544 1088.26 819.76 1096.75 803.416 1112.92 783.957 1121 761.387 1121 738.817 1121 719.749 1112.92 704.182 1096.75 692.507 1084.62 685.113 1071.28 682 1056.73 695.232 1065.62 710.019 1070.07 726.364 1070.07 743.292 1070.07 758.469 1065.52 771.895 1056.43L782.151 1047.96Z" fill="#795200" fill-rule="evenodd"/><path d="M829.374 1046.48 851 1045C850.8 1047.06 850.599 1052.82 850.399 1054.88 841.823 1098.32 804.735 1131 760.283 1131 715.83 1131 678.742 1098.32 670.165 1054.88 670.11 1054.31 670.055 1053.74 670 1053.17L692.486 1052.07 695.044 1065.2C705.81 1091.58 731.012 1110.09 760.385 1110.09 789.759 1110.09 814.962 1091.58 825.727 1065.2L829.374 1046.48Z" fill="#644100" fill-rule="evenodd"/><path d="M791 1047 785.177 1064.23 760.645 1079 736.112 1064.23 730 1049.21C750.333 1047.86 770.667 1048.35 791 1047Z" fill="#241600" fill-rule="evenodd"/><path d="M1.19318 1.3773 0.193147 1.3773 0.193147 0.377269 1.19318 1.3773" fill="#85C2FE" fill-rule="evenodd" transform="matrix(-1 1.22465e-16 1.22465e-16 1 530 1053)"/><path d="M71.4393 0.43895 78.1294 1.89171 76.2939 21.877C70.1259 53.941 55.6855 76.4389 38.855 76.4389 22.0245 76.4389 7.58405 53.941 1.41574 21.877L0.129344 7.86944Z" fill="#996600" fill-rule="evenodd" transform="matrix(-1 1.22465e-16 1.22465e-16 1 531 1047)"/><path d="M852 1046 845.685 1079.59 839.251 1068.68 845.685 1079.59 836.761 1095.17C838.249 1091.83 838.528 1088.87 837.598 1086.27L832.82 1081.3 837.598 1086.27C838.527 1088.87 838.249 1091.83 836.761 1095.17L827.837 1104.07 825.606 1106.3 814.452 1116.31 802.182 1124.1 802.18 1124.1 763.14 1133C737.855 1133 716.661 1124.1 699.557 1106.3L682.825 1082.93 682.825 1082.93 677.248 1069.58 677.248 1067.36 676.132 1066.24 676.132 1065.13 675 1054.4Z" fill="#663124" fill-rule="evenodd"/><path d="M788.384 958.002 801.75 963.573 788.384 958.002M814.002 1116.2 801.75 1124 814.002 1116.2M677.001 1069.41 677.001 1067.18 677.001 1069.41M789.498 1111.75 790.612 1110.63 791.726 1111.75 789.498 1111.75" fill="#0A51F5" fill-rule="evenodd"/><path d="M831.021 1079.63C837.742 1083.33 839.609 1088.53 836.621 1095.2L827.66 1104.1 805.257 1113 792.935 1109.66C809.364 1106.7 821.313 1097.05 828.78 1080.74ZM796.181 1048 787.334 1068.5 786.214 1069.61C779.493 1075.55 772.025 1078.51 763.811 1078.51L742.527 1071.84 734.686 1078.51C720.497 1086.67 706.682 1086.67 693.24 1078.51L691 1075.18C691 1064.05 696.227 1057.38 706.682 1055.15L727.265 1051.26Z" fill-rule="evenodd"/><path d="M682 1083.01C690.966 1093.38 700.305 1097.08 710.019 1094.12L711.14 1095.23C724.588 1109.3 741.773 1116.34 762.694 1116.34L772.78 1116.34 777.264 1120.78 801.92 1124.11 762.694 1133C737.29 1133 715.996 1124.11 698.811 1106.34ZM814.248 1057.46C829.192 1059.68 834.048 1067.09 828.818 1079.68L828.818 1080.79C821.346 1097.08 809.392 1106.71 792.954 1109.67L790.713 1110.78 785.109 1110.78C781.373 1111.52 778.758 1110.04 777.264 1106.34 771.286 1094.49 772.78 1083.75 781.746 1074.12L786.229 1069.68 787.35 1068.57C794.822 1061.9 803.788 1058.2 814.248 1057.46ZM852 1046 845.629 1079.68 834.422 1060.79 835.364 1046.78Z" fill="#BF6A4A" fill-rule="evenodd"/><path d="M91.0001 0 87.7534 33.5937 84.4456 22.6843 87.7534 33.5941 83.1655 49.1709C83.9303 45.833 84.0736 42.866 83.5957 40.2699L81.1393 35.2973 83.5955 40.2699C84.0734 42.866 83.9303 45.833 83.1653 49.1709L78.5774 58.0719 77.4304 60.297 71.6956 70.3111 65.3871 78.0993 65.3866 78.0993 45.3147 87C32.3155 87 21.4189 78.099 12.6254 60.297L4.0229 36.9316 4.02308 36.932 1.15546 23.5807 1.15546 21.3552 0.581898 20.2428 0.581898 19.13 0 8.40247Z" fill="#663124" fill-rule="evenodd" transform="matrix(-1 0 0 1 544 1047)"/><path d="M72.3916 31.6256C75.8664 35.3336 76.8315 40.5253 75.2872 47.2002L70.6542 56.0999 59.0717 65 52.7011 61.6625C61.1949 58.696 67.3724 49.0542 71.2334 32.7382ZM54.3792 0 49.8053 20.5011 49.2263 21.6133C45.7514 27.5465 41.8905 30.513 37.6436 30.513L26.6399 23.8385 22.5861 30.513C15.2504 38.671 8.10784 38.671 1.15821 30.513L0 27.176C0 16.0511 2.70255 9.37658 8.10784 7.15102L18.7493 3.25765Z" fill-rule="evenodd" transform="matrix(-1 0 0 1 536 1049)"/><path d="M0 37.0105C4.58862 47.3788 9.36808 51.0814 14.3389 48.1191L14.9125 49.2298C21.7951 63.3011 30.5897 70.3367 41.2963 70.3367L46.4581 70.3367 48.7525 74.7804 61.3709 78.113 41.2963 87C28.2956 87 17.3979 78.113 8.60343 60.3391ZM67.68 11.4603C75.3274 13.6819 77.8127 21.0876 75.1362 33.6779L75.1362 34.7885C71.3124 51.0814 65.1947 60.7091 56.7824 63.6717L55.6352 64.7824 52.7673 64.7824C50.8556 65.5227 49.5173 64.0417 48.7525 60.3391 45.6935 48.4895 46.4581 37.7512 51.0466 28.1236L53.3409 23.6799 53.9143 22.5689C57.7381 15.9039 62.3265 12.2006 67.68 11.4603ZM87 0 83.7396 33.6779 78.0039 14.7929 78.486 0.784808Z" fill="#BF6A4A" fill-rule="evenodd" transform="matrix(-1 0 0 1 540 1047)"/></g></svg>