<svg width="1761" height="1761" xmlns="http://www.w3.org/2000/svg" xmlns:xlink="http://www.w3.org/1999/xlink" overflow="hidden"><defs><clipPath id="clip0"><rect x="0" y="0" width="1761" height="1761"/></clipPath></defs><g clip-path="url(#clip0)"><path d="M1007.01 1034 1011 1034 1003 1036 1007.01 1034" fill="#0099CC" fill-rule="evenodd"/><path d="M870.007 1044 965 1053.42C962.656 1084.8 950.928 1110.3 929.817 1129.91 908.708 1149.53 870.789 1164.43 816.06 1174.63 767.587 1183.26 716.375 1168.35 662.429 1129.91L637.802 1112.26C625.292 1097.36 620.211 1078.52 622.555 1055.77L870.007 1044" fill="#FFFFFF" fill-rule="evenodd"/><path d="M870.606 1044.64 622.792 1056.4C620.444 1079.11 625.533 1097.91 638.06 1112.8L662.724 1130.42C716.75 1168.8 768.035 1183.68 816.58 1175.06 871.389 1164.88 909.364 1150.01 930.505 1130.42 951.645 1110.84 963.39 1085.37 965.739 1054.04L870.606 1044.64M977.483 1039.94C985.313 1043.07 982.964 1058.74 970.437 1086.94 952.428 1124.54 921.501 1150.01 877.653 1163.32 788.393 1190.73 714.01 1179.76 654.503 1130.42L635.711 1113.97C615.353 1094.38 604.784 1070.5 604 1042.29 693.261 1037.59 782.129 1036.02 870.606 1037.59L977.483 1039.94" fill-rule="evenodd"/><path d="M202.424 1.51287 205.135 11.7445 197.543 27.6605 158.495 82.2288 166.087 62.9023 172.053 0.376142 202.424 1.51287M0.135007 8.33432 35.3862 9.47104 35.3862 77.6815 50.5715 108.376 1.76194 82.2288 0.135007 8.33432M23.455 61.7656 23.455 60.6292 22.9125 60.6292 23.455 61.7656" fill="#000000" fill-rule="evenodd" fill-opacity="0.2" transform="matrix(-1 1.22465e-16 1.22465e-16 1 579 1042)"/><path d="M114.387 0.377586 158.145 9.58006C157.064 40.2544 151.662 65.1765 141.938 84.3482 132.214 103.519 114.748 118.089 89.5367 128.057 67.2076 136.494 43.6179 121.924 18.7681 84.3482L7.42319 67.0944C1.66159 52.5238-0.679364 34.1195 0.400688 11.8802L114.387 0.377586" fill="#FFFFFF" fill-rule="evenodd" transform="matrix(-1 1.22465e-16 1.22465e-16 1 560 1046)"/><path d="M122.161 7.84988 8.74257 19.35C7.66793 41.5835 9.99697 59.9837 15.7308 74.5503L27.0186 91.8005C51.7446 129.366 75.2163 143.934 97.4339 135.5 122.518 125.534 139.898 110.967 149.575 91.8005 159.248 72.6332 164.625 47.7172 165.698 17.0502L122.161 7.84988M171.075 3.2499C174.659 6.31715 173.584 21.6505 167.85 49.25 159.608 86.0505 145.453 110.967 125.385 124.001 84.5335 150.833 50.4902 140.1 23.2558 91.8005L14.6554 75.7004C5.33817 56.5335 0.50104 33.1503 0.142587 5.55043 40.9943 0.9501 81.667-0.583344 122.161 0.9501L171.075 3.2499" fill-rule="evenodd" transform="matrix(-1 1.22465e-16 1.22465e-16 1 568 1039)"/><path d="M692 1056 691 1056 691 1054 692 1056" fill="#85C2FE" fill-rule="evenodd"/><path d="M822.398 1045 835 1046.32 831.543 1064.47C819.924 1093.58 792.722 1114 761.018 1114 729.315 1114 702.113 1093.58 690.493 1064.47L685 1052.99 822.398 1045Z" fill="#2CC523" fill-rule="evenodd"/><path d="M821.991 1046 841 1047.95 837.272 1068.85C833.381 1078.96 827.544 1088.26 819.76 1096.75 803.416 1112.92 783.957 1121 761.387 1121 738.817 1121 719.749 1112.92 704.182 1096.75 692.507 1084.62 685.113 1071.28 682 1056.73 695.232 1065.62 710.019 1070.07 726.364 1070.07 743.292 1070.07 758.469 1065.52 771.895 1056.43L782.151 1047.96Z" fill="#23A31D" fill-rule="evenodd"/><path d="M829.374 1046.48 851 1045C850.8 1047.06 850.599 1052.82 850.399 1054.88 841.824 1098.32 804.735 1131 760.283 1131 715.83 1131 678.742 1098.32 670.165 1054.88 670.11 1054.31 670.055 1053.74 670 1053.17L692.486 1052.07 695.044 1065.2C705.81 1091.58 731.012 1110.09 760.385 1110.09 789.759 1110.09 814.962 1091.58 825.727 1065.2L829.374 1046.48Z" fill="#1A7812" fill-rule="evenodd"/><path d="M791 1047 785.177 1064.23 760.645 1079 736.112 1064.23 730 1049.21C750.333 1047.86 770.667 1048.35 791 1047Z" fill="#164D0D" fill-rule="evenodd"/><path d="M1.19101 1.38019 0.190981 1.38019 0.190981 0.380157 1.19101 1.38019" fill="#85C2FE" fill-rule="evenodd" transform="matrix(-1 1.22465e-16 1.22465e-16 1 530 1053)"/><path d="M71.4735 0.377948 78.1636 1.83054 76.3283 21.8159C70.1602 53.8801 55.7196 76.3783 38.8892 76.3783 22.0588 76.3783 7.61814 53.8801 1.4497 21.8159L0.163524 7.80839Z" fill="#2CC523" fill-rule="evenodd" transform="matrix(-1 1.22465e-16 1.22465e-16 1 531 1047)"/><path d="M75.38 0.378668 84.1627 0.695609 82.1935 24.3608C80.1374 35.7984 77.0539 46.3217 72.9419 55.9306 64.3066 74.2327 54.0269 83.3785 42.103 83.3785 30.1791 83.3785 20.1052 74.2327 11.8813 55.9306 5.71324 42.2119 1.80707 27.1096 0.162441 10.6363 7.15283 20.7084 14.9648 25.7383 23.6002 25.7383 32.5431 25.7383 40.5612 20.5943 47.6538 10.3002L53.0721 0.708243C60.0881-0.0292394 68.3643 1.11615 75.38 0.378668Z" fill="#23A31D" fill-rule="evenodd" transform="matrix(-1 1.22465e-16 1.22465e-16 1 534 1049)"/><path d="M84.0827 1.01941 94.2104 0.377947C94.1046 2.72577 95.2594 8.24589 95.154 10.5937 90.6381 60.1232 71.1088 97.3782 47.7014 97.3782 24.294 97.3782 4.76422 60.1246 0.247632 10.5915 0.218754 9.94683 0.189515 9.30248 0.160636 8.65777L12.0015 7.39542 13.3483 22.3649C19.0172 52.4375 32.2882 73.5391 47.7551 73.5391 63.2228 73.5391 76.4939 52.4375 82.1627 22.3649L84.0827 1.01941Z" fill="#1A7812" fill-rule="evenodd" transform="matrix(-1 1.22465e-16 1.22465e-16 1 540 1047)"/><path d="M32.1722 0.378664 29.1175 16.1642 16.2482 28.3785 3.37843 16.1642 0.172188 3.73971Z" fill="#164D0D" fill-rule="evenodd" transform="matrix(-1 1.22465e-16 1.22465e-16 1 509 1049)"/></g></svg>