<svg width="1761" height="1761" xmlns="http://www.w3.org/2000/svg" xmlns:xlink="http://www.w3.org/1999/xlink" overflow="hidden"><defs><clipPath id="clip0"><rect x="0" y="0" width="1761" height="1761"/></clipPath></defs><g clip-path="url(#clip0)"><path d="M922.004 1065.37C916.094 1046.18 906.491 1029.21 893.194 1014.45L869.924 992.316C839.637 971.655 807.502 965.383 773.521 973.5 735.847 986.044 706.298 1007.07 684.875 1036.59 671.578 1055.04 663.083 1075.7 659.389 1098.57 667.515 1133.99 682.289 1156.87 703.712 1167.2 724.396 1177.53 745.08 1184.91 765.764 1189.34 786.449 1193.03 810.457 1187.12 837.79 1171.63 864.384 1156.13 884.329 1136.21 897.626 1111.86L922.004 1066.48C920.526 1083.45 913.878 1100.05 902.058 1116.28L868.816 1151.7 844.438 1171.63C811.935 1190.81 778.692 1197.08 744.711 1190.44 707.036 1179.37 680.073 1157.24 663.821 1124.03 646.092 1087.14 650.155 1053.56 676.01 1023.31 701.865 993.054 725.874 974.238 748.035 966.859L801.223 958.004C835.943 960.218 866.23 974.238 892.086 1000.06L916.463 1034.38 922.004 1059.83 922.004 1065.37" fill-rule="evenodd"/><path d="M922.004 1066.7 897.59 1112.22C884.274 1136.65 864.299 1156.63 837.666 1172.17 810.293 1187.72 786.249 1193.64 765.535 1189.94 744.82 1185.5 724.106 1178.09 703.391 1167.73 681.937 1157.37 667.141 1134.43 659.003 1098.9 662.702 1075.96 671.21 1055.23 684.526 1036.73 705.981 1007.12 735.573 986.031 773.303 973.448 807.334 965.307 839.515 971.598 869.848 992.322L893.151 1014.53C906.468 1029.33 916.085 1046.35 922.004 1065.59L922.004 1066.7" fill="#FFFFFF" fill-rule="evenodd"/><path d="M936.457 933.204 942.003 942.004 916.49 913.404C903.18 903.87 888.389 898.004 872.121 895.804L818.876 888.104 778.943 889.204 741.229 893.604 697.968 906.804 670.237 916.704C668.758 907.904 674.304 902.404 686.875 900.204L754.54 881.504 791.145 877.104 826.641 876.004 858.81 880.404 898.742 890.304C907.616 893.237 920.188 907.537 936.457 933.204" fill="#000000" fill-rule="evenodd" fill-opacity="0.501961"/><path d="M138.002 107.369C134.97 88.1829 130.044 71.2114 123.222 56.4532L111.285 34.3162C95.7468 13.655 79.2614 7.38285 61.8287 15.4997 42.5012 28.044 27.3424 49.0744 16.3522 78.5903 9.53066 97.038 5.17243 117.699 3.27751 140.574 7.44634 175.993 15.0257 198.868 26.0159 209.199 36.6271 219.529 47.2383 226.909 57.8495 231.336 68.4608 235.025 80.7774 229.122 94.7993 213.626 108.442 198.13 118.675 178.207 125.496 153.856L138.002 108.475C137.244 125.447 133.833 142.05 127.77 158.284L110.716 193.703 98.2101 213.626C81.5354 232.812 64.4816 239.084 47.0489 232.443 27.7212 221.374 13.8889 199.237 5.55141 166.032-3.54385 129.137-1.45953 95.5622 11.8044 65.308 25.0685 35.0541 37.385 16.2376 48.7542 8.8587L76.0402 0.00396153C93.8519 2.21774 109.39 16.2376 122.654 42.0642L135.16 76.3765 138.002 101.834 138.002 107.369" fill-rule="evenodd" transform="matrix(-1 0 0 1 554 967)"/><path d="M135.002 96.2673 122.47 141.579C115.635 165.893 105.382 185.786 91.7107 201.259 77.6602 216.731 65.3182 222.625 54.6853 218.941 44.0524 214.521 33.4195 207.153 22.7866 196.838 11.7739 186.523 4.17903 163.683 0.00166805 128.317 1.90047 105.477 6.26762 84.847 13.1029 66.4276 24.1156 36.9564 39.3057 15.958 58.6727 3.43267 76.1411-4.67183 92.6601 1.59084 108.23 22.2207L120.192 44.3241C127.027 59.0599 131.964 76.0057 135.002 95.1619L135.002 96.2673" fill="#FFFFFF" fill-rule="evenodd" transform="matrix(-1 0 0 1 551 979)"/><path d="M137.147 58.0708 140.002 67.004 126.87 37.9705C120.019 28.2927 112.406 22.3373 104.033 20.1039L76.6275 12.2872 56.0738 13.4041 36.662 17.8705 14.3953 31.2706 0.121864 41.3208C-0.639227 32.3871 2.21547 26.8038 8.68594 24.5707L43.5133 5.58733 62.3542 1.12052 80.6241 0.00399666 97.1814 4.47045 117.735 14.5206C122.303 17.4985 128.773 32.0151 137.147 58.0708" fill="#000000" fill-rule="evenodd" fill-opacity="0.501961" transform="matrix(-1 0 0 1 545 884)"/><path d="M758.386 980 761.421 980 783.065 983.413 802.432 992.513 800.153 993.65 802.432 992.513 783.065 983.413 804.71 992.513 820.659 1006.16 834.329 1022.09C843.443 1036.5 848 1052.8 848 1071L841.165 1107.4 832.051 1123.32C833.57 1119.91 833.855 1116.88 832.906 1114.22L830.878 1112.11 830.878 1112.11 832.905 1114.23C833.854 1116.88 833.57 1119.91 832.051 1123.32L822.937 1132.42 820.659 1134.7 809.267 1144.94 809.264 1144.94 809.267 1144.94 796.736 1152.9 796.736 1152.9 794.587 1152.61 784.775 1157.73C776.041 1160.58 766.737 1162 756.864 1162 731.042 1162 709.398 1152.9 691.93 1134.7L674.842 1110.81 685.998 1119.45 685.998 1119.45 674.842 1110.81 669.146 1097.16 669.146 1094.89 668.007 1093.75 668.007 1092.61 666 1073.58 667.967 1066.55C672.229 1056.19 677.694 1046.39 684.364 1037.14 700.482 1014.94 721.187 997.524 746.477 984.898Z" fill="#5E2D5B" fill-rule="evenodd"/><path d="M781.874 1095.87C789.475 1089.03 798.596 1085.23 809.237 1084.47 824.439 1086.75 829.38 1094.35 824.059 1107.28L824.059 1108.42C816.458 1125.14 804.297 1135.02 787.575 1138.06L779.594 1139.2C775.794 1139.96 773.133 1138.44 771.613 1134.64 765.532 1122.48 767.053 1111.46 776.174 1101.57L780.734 1097.01 781.874 1095.87M841.161 1107.28 829.76 1087.89 830.9 1070.79 827.479 1045.71 826.339 1043.43C831.66 1041.15 832.42 1035.45 828.619 1026.33L834.32 1021.77C843.441 1036.21 848.002 1052.55 848.002 1070.79L841.161 1107.28M804.677 992.123 800.116 993.263 802.397 992.123 783.014 983.002 804.677 992.123M669.001 1094.73 669.001 1097.01 669.001 1094.73M674.702 1110.7C683.823 1121.34 693.324 1125.14 703.205 1122.1L704.346 1123.24C718.027 1137.68 735.509 1144.9 756.792 1144.9L767.053 1144.9 771.613 1149.46 796.696 1152.88 809.237 1144.9C794.035 1156.3 776.554 1162 756.792 1162 730.949 1162 709.286 1152.88 691.804 1134.64L674.702 1110.7M784.155 1140.34 785.295 1139.2 786.435 1140.34 784.155 1140.34" fill="#B059AC" fill-rule="evenodd"/><path d="M785.244 1139.34 784.106 1140.48 786.382 1140.48ZM756.819 980 761.349 980 782.968 983.415 802.312 992.52 800.036 993.658 804.588 992.52 820.518 1006.18 834.173 1022.11 828.483 1026.66C832.276 1035.77 831.518 1041.46 826.208 1043.74L827.346 1046.01 830.759 1071.05 829.621 1088.12 841 1107.47 831.897 1123.41C834.931 1116.58 833.035 1111.27 826.208 1107.47L823.932 1108.61 823.932 1107.47C829.242 1094.57 824.311 1086.99 809.14 1084.71 798.519 1085.47 789.416 1089.26 781.831 1096.09 788.658 1089.26 792.071 1081.3 792.071 1072.19 792.071 1062.33 788.658 1054.36 781.831 1048.29L770.452 1040.32 775.003 1034.63 777.279 1026.66 813.691 1031.22C798.519 1007.7 774.245 998.211 740.867 1002.76 722.661 1007.32 709.386 1016.8 701.041 1031.22L728.35 1027.8 727.212 1039.18 734.039 1047.15 732.902 1048.29C726.074 1054.36 723.04 1062.33 723.799 1072.19L723.799 1077.88 699.903 1082.43C689.283 1084.71 683.973 1091.54 683.973 1102.92L686.249 1106.34C699.903 1114.68 713.937 1114.68 728.35 1106.34L736.315 1099.51 757.935 1106.34C766.279 1106.34 773.865 1103.3 780.693 1097.23L776.141 1101.78C767.038 1111.65 765.521 1122.65 771.589 1134.79 773.107 1138.58 775.762 1140.1 779.555 1139.34L787.52 1138.2 800.036 1141.62 822.794 1132.51 820.518 1134.79 809.14 1145.03 796.623 1153 771.589 1149.59 767.038 1145.03 756.797 1145.03C735.557 1145.03 718.109 1137.82 704.455 1123.41L703.317 1122.27C693.455 1125.3 683.973 1121.51 674.87 1110.89L669.18 1097.23 669.18 1094.95 668.043 1093.82 668.043 1092.68 666 1073.26 668.04 1065.97C672.296 1055.6 677.755 1045.79 684.417 1036.54 700.517 1014.33 721.198 996.902 746.458 984.269Z" fill="#5E2D5B" fill-rule="evenodd"/><path d="M728.282 1028.13 777.105 1027 774.834 1034.9 770.292 1040.55 781.646 1048.45C788.459 1054.47 791.865 1062.37 791.865 1072.15 791.865 1081.18 788.459 1089.08 781.646 1095.85L780.511 1096.98C773.699 1103 766.129 1106.01 757.803 1106.01L736.23 1099.24 728.282 1106.01C713.901 1114.29 699.897 1114.29 686.273 1106.01L684.002 1102.63C684.002 1091.34 689.3 1084.57 699.897 1082.31L723.741 1077.79 723.741 1072.15C722.984 1062.37 726.012 1054.47 732.824 1048.45L733.96 1047.32 727.147 1039.42 728.282 1028.13M823.656 1108.27 825.927 1107.14C832.74 1110.9 834.632 1116.17 831.604 1122.94L822.521 1131.97 799.813 1141 787.323 1137.62C803.976 1134.61 816.087 1124.82 823.656 1108.27" fill-rule="evenodd"/><path d="M728.153 1027.65 701.001 1031C709.298 1016.86 722.497 1007.55 740.597 1003.09 773.783 998.622 797.917 1007.93 813.002 1031L776.8 1026.54 728.153 1027.65" fill="#DFABE4" fill-rule="evenodd"/><path d="M681 1069.5C681 1027.25 715.25 993 757.5 993 799.75 993 834 1027.25 834 1069.5 834 1111.75 799.75 1146 757.5 1146 715.25 1146 681 1111.75 681 1069.5Z" fill="#996600" fill-rule="evenodd"/><path d="M679.001 1090.96C692.224 1099.55 707.001 1103.84 723.335 1103.84 745.89 1103.84 765.335 1096.04 781.668 1080.43 797.224 1064.04 805.002 1044.53 805.002 1021.9L802.668 1002 816.668 1013.71C832.224 1029.31 840.002 1048.43 840.002 1071.06 840.002 1093.69 832.224 1113.2 816.668 1129.59 800.335 1145.2 780.89 1153 758.335 1153 735.779 1153 716.724 1145.2 701.168 1129.59 689.501 1117.89 682.112 1105.01 679.001 1090.96" fill="#795200" fill-rule="evenodd"/><path d="M756.81 1000.88C717.515 1000.88 685.659 1032.66 685.659 1071.85 685.659 1111.04 717.515 1142.81 756.81 1142.81 796.106 1142.81 827.962 1111.04 827.962 1071.85 827.962 1032.66 796.106 1000.88 756.81 1000.88ZM757.683 979 775.307 980.772C817.364 989.355 849 1026.47 849 1070.95 849 1121.79 807.679 1163 756.707 1163 712.106 1163 674.894 1131.45 666.288 1089.5L665 1076.76 668.322 1064.91C672.574 1054.58 678.028 1044.81 684.683 1035.59 700.767 1013.47 721.427 996.112 746.662 983.528Z" fill="#644100" fill-rule="evenodd"/><path d="M782.494 1046.5 793.002 1071 782.494 1095.5 757.976 1106 733.458 1095.5 724.118 1079.17 724.118 1071C723.34 1060.89 726.453 1052.72 733.458 1046.5L757.976 1036 776.656 1041.83 782.494 1046.5" fill="#241600" fill-rule="evenodd"/><path d="M0 76.5C-1.01851e-14 34.2502 17.9086 0 40 0 62.0915-1.94789e-14 80.0001 34.2502 80.0001 76.5 80.0001 118.75 62.0915 153 40 153 17.9086 153-1.52776e-14 118.75 0 76.5Z" fill="#996600" fill-rule="evenodd" transform="matrix(-1 0 0 1 539 1001)"/><path d="M0.000634745 88.3739C6.89936 96.9009 14.6094 101.165 23.131 101.165 34.8992 101.165 45.0442 93.4126 53.5659 77.9086 61.6819 61.6294 65.7399 42.2497 65.7399 19.7689L64.5224 0.00121256 71.8267 11.6293C79.9427 27.1334 84.0007 46.1257 84.0007 68.6061 84.0007 91.087 79.9427 110.467 71.8267 126.746 63.305 142.25 53.16 150.002 41.392 150.002 29.6238 150.002 19.6818 142.25 11.5658 126.746 5.47896 115.118 1.62384 102.327 0.000634745 88.3739" fill="#795200" fill-rule="evenodd" transform="matrix(-1 0 0 1 540 1010)"/><path d="M48.4 22.0039C27.6844 22.0039 10.8908 53.9479 10.8908 93.3528 10.8908 132.757 27.6844 164.702 48.4 164.702 69.1157 164.702 85.9091 132.757 85.9091 93.3528 85.9091 53.9479 69.1157 22.0039 48.4 22.0039ZM48.86 0 58.1509 1.78136C80.322 10.4113 96.9999 47.7262 96.9999 92.4509 96.9999 143.565 75.2166 185 48.3454 185 24.8329 185 5.21594 153.276 0.679058 111.103L0 98.2883 1.75121 86.3772C3.99273 75.9956 6.86783 66.1702 10.3763 56.9008 18.8553 34.6544 29.7467 17.2049 43.0501 4.55221Z" fill="#644100" fill-rule="evenodd" transform="matrix(-1 0 0 1 548 986)"/><path d="M30.5186 10.3514 36.0009 34.5015 30.5186 58.6514 17.7266 69.0016 4.93477 58.6514 0.0616152 42.5516 0.0616152 34.5015C-0.344442 24.5348 1.27994 16.4848 4.93477 10.3514L17.7266 0.00119922 27.4729 5.75146 30.5186 10.3514" fill="#241600" fill-rule="evenodd" transform="matrix(-1 0 0 1 516 1044)"/></g></svg>