<svg width="1761" height="1761" xmlns="http://www.w3.org/2000/svg" xmlns:xlink="http://www.w3.org/1999/xlink" overflow="hidden"><defs><clipPath id="clip0"><rect x="0" y="0" width="1761" height="1761"/></clipPath></defs><g clip-path="url(#clip0)"><path d="M922.004 1065.37C916.094 1046.18 906.491 1029.21 893.194 1014.45L869.924 992.316C839.637 971.655 807.502 965.383 773.521 973.5 735.847 986.044 706.298 1007.07 684.875 1036.59 671.578 1055.04 663.083 1075.7 659.389 1098.57 667.515 1133.99 682.289 1156.87 703.712 1167.2 724.396 1177.53 745.08 1184.91 765.764 1189.34 786.449 1193.03 810.457 1187.12 837.79 1171.63 864.384 1156.13 884.329 1136.21 897.626 1111.86L922.004 1066.48C920.526 1083.45 913.878 1100.05 902.058 1116.28L868.816 1151.7 844.438 1171.63C811.935 1190.81 778.692 1197.08 744.711 1190.44 707.036 1179.37 680.073 1157.24 663.821 1124.03 646.092 1087.14 650.155 1053.56 676.01 1023.31 701.865 993.054 725.874 974.238 748.035 966.859L801.223 958.004C835.943 960.218 866.23 974.238 892.086 1000.06L916.463 1034.38 922.004 1059.83 922.004 1065.37" fill-rule="evenodd"/><path d="M922.004 1066.7 897.59 1112.22C884.274 1136.65 864.299 1156.63 837.666 1172.17 810.293 1187.72 786.249 1193.64 765.535 1189.94 744.82 1185.5 724.106 1178.09 703.391 1167.73 681.937 1157.37 667.141 1134.43 659.003 1098.9 662.702 1075.96 671.21 1055.23 684.526 1036.73 705.981 1007.12 735.573 986.031 773.303 973.448 807.334 965.307 839.515 971.598 869.848 992.322L893.151 1014.53C906.468 1029.33 916.085 1046.35 922.004 1065.59L922.004 1066.7" fill="#FFFFFF" fill-rule="evenodd"/><path d="M936.457 933.204 942.003 942.004 916.49 913.404C903.18 903.87 888.389 898.004 872.121 895.804L818.876 888.104 778.943 889.204 741.229 893.604 697.968 906.804 670.237 916.704C668.758 907.904 674.304 902.404 686.875 900.204L754.54 881.504 791.145 877.104 826.641 876.004 858.81 880.404 898.742 890.304C907.616 893.237 920.188 907.537 936.457 933.204" fill="#000000" fill-rule="evenodd" fill-opacity="0.501961"/><path d="M138.002 107.369C134.97 88.1829 130.044 71.2114 123.222 56.4532L111.285 34.3162C95.7468 13.655 79.2614 7.38285 61.8287 15.4997 42.5012 28.044 27.3424 49.0744 16.3522 78.5903 9.53066 97.038 5.17243 117.699 3.27751 140.574 7.44634 175.993 15.0257 198.868 26.0159 209.199 36.6271 219.529 47.2383 226.909 57.8495 231.336 68.4608 235.025 80.7774 229.122 94.7993 213.626 108.442 198.13 118.675 178.207 125.496 153.856L138.002 108.475C137.244 125.447 133.833 142.05 127.77 158.284L110.716 193.703 98.2101 213.626C81.5354 232.812 64.4816 239.084 47.0489 232.443 27.7212 221.374 13.8889 199.237 5.55141 166.032-3.54385 129.137-1.45953 95.5622 11.8044 65.308 25.0685 35.0541 37.385 16.2376 48.7542 8.8587L76.0402 0.00396153C93.8519 2.21774 109.39 16.2376 122.654 42.0642L135.16 76.3765 138.002 101.834 138.002 107.369" fill-rule="evenodd" transform="matrix(-1 0 0 1 554 967)"/><path d="M135.002 96.2673 122.47 141.579C115.635 165.893 105.382 185.786 91.7107 201.259 77.6602 216.731 65.3182 222.625 54.6853 218.941 44.0524 214.521 33.4195 207.153 22.7866 196.838 11.7739 186.523 4.17903 163.683 0.00166805 128.317 1.90047 105.477 6.26762 84.847 13.1029 66.4276 24.1156 36.9564 39.3057 15.958 58.6727 3.43267 76.1411-4.67183 92.6601 1.59084 108.23 22.2207L120.192 44.3241C127.027 59.0599 131.964 76.0057 135.002 95.1619L135.002 96.2673" fill="#FFFFFF" fill-rule="evenodd" transform="matrix(-1 0 0 1 551 979)"/><path d="M137.147 58.0708 140.002 67.004 126.87 37.9705C120.019 28.2927 112.406 22.3373 104.033 20.1039L76.6275 12.2872 56.0738 13.4041 36.662 17.8705 14.3953 31.2706 0.121864 41.3208C-0.639227 32.3871 2.21547 26.8038 8.68594 24.5707L43.5133 5.58733 62.3542 1.12052 80.6241 0.00399666 97.1814 4.47045 117.735 14.5206C122.303 17.4985 128.773 32.0151 137.147 58.0708" fill="#000000" fill-rule="evenodd" fill-opacity="0.501961" transform="matrix(-1 0 0 1 545 884)"/><path d="M758.386 980 761.421 980 783.065 983.413 802.432 992.513 800.153 993.65 802.432 992.513 783.065 983.413 804.71 992.513 820.659 1006.16 834.329 1022.09C843.443 1036.5 848 1052.8 848 1071L841.165 1107.4 832.051 1123.32C833.57 1119.91 833.855 1116.88 832.906 1114.22L830.878 1112.11 830.878 1112.11 832.905 1114.23C833.854 1116.88 833.57 1119.91 832.051 1123.32L822.937 1132.42 820.659 1134.7 809.267 1144.94 809.264 1144.94 809.267 1144.94 796.736 1152.9 796.736 1152.9 794.587 1152.61 784.775 1157.73C776.041 1160.58 766.737 1162 756.864 1162 731.042 1162 709.398 1152.9 691.93 1134.7L674.842 1110.81 685.998 1119.45 685.998 1119.45 674.842 1110.81 669.146 1097.16 669.146 1094.89 668.007 1093.75 668.007 1092.61 666 1073.58 667.967 1066.55C672.229 1056.19 677.694 1046.39 684.364 1037.14 700.482 1014.94 721.187 997.524 746.477 984.898Z" fill="#5E2D5B" fill-rule="evenodd"/><path d="M781.874 1095.87C789.475 1089.03 798.596 1085.23 809.237 1084.47 824.439 1086.75 829.38 1094.35 824.059 1107.28L824.059 1108.42C816.458 1125.14 804.297 1135.02 787.575 1138.06L779.594 1139.2C775.794 1139.96 773.133 1138.44 771.613 1134.64 765.532 1122.48 767.053 1111.46 776.174 1101.57L780.734 1097.01 781.874 1095.87M841.161 1107.28 829.76 1087.89 830.9 1070.79 827.479 1045.71 826.339 1043.43C831.66 1041.15 832.42 1035.45 828.619 1026.33L834.32 1021.77C843.441 1036.21 848.002 1052.55 848.002 1070.79L841.161 1107.28M804.677 992.123 800.116 993.263 802.397 992.123 783.014 983.002 804.677 992.123M669.001 1094.73 669.001 1097.01 669.001 1094.73M674.702 1110.7C683.823 1121.34 693.324 1125.14 703.205 1122.1L704.346 1123.24C718.027 1137.68 735.509 1144.9 756.792 1144.9L767.053 1144.9 771.613 1149.46 796.696 1152.88 809.237 1144.9C794.035 1156.3 776.554 1162 756.792 1162 730.949 1162 709.286 1152.88 691.804 1134.64L674.702 1110.7M784.155 1140.34 785.295 1139.2 786.435 1140.34 784.155 1140.34" fill="#B059AC" fill-rule="evenodd"/><path d="M785.244 1139.34 784.106 1140.48 786.382 1140.48ZM756.819 980 761.349 980 782.968 983.415 802.312 992.52 800.036 993.658 804.588 992.52 820.518 1006.18 834.173 1022.11 828.483 1026.66C832.276 1035.77 831.518 1041.46 826.208 1043.74L827.346 1046.01 830.759 1071.05 829.621 1088.12 841 1107.47 831.897 1123.41C834.931 1116.58 833.035 1111.27 826.208 1107.47L823.932 1108.61 823.932 1107.47C829.242 1094.57 824.311 1086.99 809.14 1084.71 798.519 1085.47 789.416 1089.26 781.831 1096.09 788.658 1089.26 792.071 1081.3 792.071 1072.19 792.071 1062.33 788.658 1054.36 781.831 1048.29L770.452 1040.32 775.003 1034.63 777.279 1026.66 813.691 1031.22C798.519 1007.7 774.245 998.211 740.867 1002.76 722.661 1007.32 709.386 1016.8 701.041 1031.22L728.35 1027.8 727.212 1039.18 734.039 1047.15 732.902 1048.29C726.074 1054.36 723.04 1062.33 723.799 1072.19L723.799 1077.88 699.903 1082.43C689.283 1084.71 683.973 1091.54 683.973 1102.92L686.249 1106.34C699.903 1114.68 713.937 1114.68 728.35 1106.34L736.315 1099.51 757.935 1106.34C766.279 1106.34 773.865 1103.3 780.693 1097.23L776.141 1101.78C767.038 1111.65 765.521 1122.65 771.589 1134.79 773.107 1138.58 775.762 1140.1 779.555 1139.34L787.52 1138.2 800.036 1141.62 822.794 1132.51 820.518 1134.79 809.14 1145.03 796.623 1153 771.589 1149.59 767.038 1145.03 756.797 1145.03C735.557 1145.03 718.109 1137.82 704.455 1123.41L703.317 1122.27C693.455 1125.3 683.973 1121.51 674.87 1110.89L669.18 1097.23 669.18 1094.95 668.043 1093.82 668.043 1092.68 666 1073.26 668.04 1065.97C672.296 1055.6 677.755 1045.79 684.417 1036.54 700.517 1014.33 721.198 996.902 746.458 984.269Z" fill="#5E2D5B" fill-rule="evenodd"/><path d="M728.282 1028.13 777.105 1027 774.834 1034.9 770.292 1040.55 781.646 1048.45C788.459 1054.47 791.865 1062.37 791.865 1072.15 791.865 1081.18 788.459 1089.08 781.646 1095.85L780.511 1096.98C773.699 1103 766.129 1106.01 757.803 1106.01L736.23 1099.24 728.282 1106.01C713.901 1114.29 699.897 1114.29 686.273 1106.01L684.002 1102.63C684.002 1091.34 689.3 1084.57 699.897 1082.31L723.741 1077.79 723.741 1072.15C722.984 1062.37 726.012 1054.47 732.824 1048.45L733.96 1047.32 727.147 1039.42 728.282 1028.13M823.656 1108.27 825.927 1107.14C832.74 1110.9 834.632 1116.17 831.604 1122.94L822.521 1131.97 799.813 1141 787.323 1137.62C803.976 1134.61 816.087 1124.82 823.656 1108.27" fill-rule="evenodd"/><path d="M728.153 1027.65 701.001 1031C709.298 1016.86 722.497 1007.55 740.597 1003.09 773.783 998.622 797.917 1007.93 813.002 1031L776.8 1026.54 728.153 1027.65" fill="#DFABE4" fill-rule="evenodd"/><path d="M43.6549 0 45.089 0 55.3167 3.41257 64.4677 12.5126 63.3912 13.6503 64.4679 12.5126 55.3167 3.41257 65.5445 12.5126 73.0806 26.1625 79.5402 42.0877C83.8466 56.4961 85.9999 72.8001 85.9999 91.0003L82.7701 127.4 78.4636 143.325C79.1814 139.912 79.316 136.879 78.8675 134.225L77.9094 132.113 77.9092 132.113 78.8673 134.225C79.3158 136.879 79.1813 139.913 78.4635 143.325L74.1572 152.425 73.0806 154.7 67.6976 164.937 67.6961 164.94 67.6976 164.938 61.7764 172.9 61.7762 172.9 60.761 172.608 56.1242 177.735C51.9972 180.578 47.6012 182 42.9359 182 30.7344 182 20.5066 172.9 12.2526 154.7L4.17809 130.813 9.44966 139.451 9.44949 139.451 4.17809 130.812 1.48658 117.162 1.48658 114.888 0.948384 113.75 0.948384 112.613 0 93.576 0.929755 86.5512C2.94326 76.1914 5.52589 66.3867 8.67748 57.1368 16.294 34.9372 26.0774 17.5244 38.0275 4.89837Z" fill="#5E2D5B" fill-rule="evenodd" transform="matrix(-1 0 0 1 546 985)"/><path d="M53.5995 112.874C57.2088 106.033 61.54 102.233 66.593 101.473 73.8118 103.753 76.1578 111.354 73.6313 124.276L73.6313 125.416C70.022 142.137 64.247 152.019 56.3065 155.059L52.5167 156.199C50.712 156.959 49.4487 155.439 48.7268 151.639 45.8393 139.477 46.5612 128.456 50.8925 118.575L53.058 114.014 53.5995 112.874M81.7523 124.276 76.3383 104.894 76.8797 87.7916 75.2555 62.7085 74.714 60.4283C77.2406 58.1481 77.6015 52.4475 75.7968 43.3264L78.5038 38.766C82.8351 53.2077 85.0008 69.5494 85.0008 87.7916L81.7523 124.276M64.4275 9.12255 62.2618 10.2628 63.3447 9.12255 54.1408 0.00144797 64.4275 9.12255M0.00068758 111.734 0.00068758 114.014 0.00068758 111.734M2.70769 127.696C7.03893 138.337 11.5507 142.137 16.2427 139.097L16.7842 140.237C23.281 154.679 31.5825 161.9 41.6887 161.9L46.5612 161.9 48.7268 166.46 60.6377 169.881 66.593 161.9C59.3743 173.301 51.073 179.002 41.6887 179.002 29.4169 179.002 19.1302 169.881 10.8287 151.639L2.70769 127.696M54.6822 157.339 55.2237 156.199 55.765 157.339 54.6822 157.339" fill="#B059AC" fill-rule="evenodd" transform="matrix(-1 0 0 1 545 988)"/><path d="M57.237 159.342 56.6909 160.48 57.7832 160.48ZM43.5929 0 45.7673 0 56.1447 3.41455 65.4297 12.5199 64.3373 13.6582 66.5222 12.5199 74.1686 26.1777 80.7227 42.1121 77.9918 46.6646C79.8125 55.7699 79.4483 61.4607 76.8995 63.737L77.4458 66.0132 79.0842 91.0526 78.5381 108.125 83.9999 127.474 79.6304 143.408C81.0869 136.579 80.1767 131.268 76.8995 127.474L75.8072 128.612 75.8072 127.474C78.356 114.575 75.9893 106.987 68.7068 104.711 63.609 105.469 59.2397 109.263 55.5986 116.092 58.8755 109.263 60.5141 101.296 60.5141 92.1909 60.5141 82.3267 58.8755 74.3597 55.5986 68.2895L50.1368 60.3224 52.3214 54.6316 53.4138 46.6646 70.8915 51.2171C63.609 27.6954 51.9573 18.2107 35.9361 22.7632 27.1971 27.316 20.8251 36.8008 16.8198 51.2171L29.928 47.8029 29.3819 59.1845 32.6589 67.1515 32.1128 68.2895C28.8357 74.3597 27.3792 82.3267 27.7434 92.1909L27.7434 97.8817 16.2735 102.434C11.1759 104.711 8.62709 111.54 8.62709 122.921L9.71941 126.336C16.2735 134.682 23.0099 134.682 29.928 126.336L33.7514 119.507 44.1287 126.336C48.134 126.336 51.7752 123.301 55.0523 117.23L52.8677 121.783C48.4982 131.647 47.7699 142.649 50.6829 154.79 51.4112 158.584 52.6856 160.101 54.5061 159.342L58.3295 158.204 64.3373 161.619 75.2609 152.513 74.1686 154.79 68.7068 165.033 62.6988 173 50.6829 169.586 48.4982 165.033 43.5825 165.033C33.3872 165.033 25.0125 157.825 18.4583 143.408L17.9121 142.27C13.1786 145.305 8.62709 141.511 4.25762 130.888L1.52672 117.23 1.52672 114.954 0.980646 113.816 0.980646 112.678 0 93.2649 0.979086 85.9689C3.02206 75.6031 5.64249 65.7928 8.84021 56.5375 16.5682 34.3251 26.4948 16.9022 38.6198 4.26881Z" fill="#5E2D5B" fill-rule="evenodd" transform="matrix(-1 0 0 1 547 985)"/><path d="M21.101 1.13029 44.3653 0.00143347 43.2831 7.90273 41.1191 13.5463 46.5294 21.4473C49.7757 27.4671 51.3986 35.3681 51.3986 45.1501 51.3986 54.1799 49.7757 62.0808 46.5294 68.8533L45.9883 69.9821C42.7422 76.002 39.1352 79.0116 35.1677 79.0116L24.8882 72.2395 21.101 79.0116C14.2479 87.2892 7.57522 87.2892 1.08289 79.0116L0.00068711 75.6257C0.00068711 64.3385 2.52547 57.5661 7.57522 55.3088L18.9368 50.7937 18.9368 45.1501C18.5762 35.3681 20.019 27.4671 23.265 21.4473L23.8061 20.3184 20.5599 12.4175 21.101 1.13029M66.5475 81.2693 67.6295 80.1404C70.8758 83.9029 71.7774 89.1702 70.3347 95.9423L66.0066 104.972 55.186 114.002 49.2346 110.616C57.1696 107.606 62.9407 97.8238 66.5475 81.2693" fill-rule="evenodd" transform="matrix(-1 0 0 1 538 1032)"/><path d="M13.0917 25.6523 0.000692729 29.002C4.00086 14.8589 10.3644 5.55409 19.0916 1.08799 35.0918-3.37847 46.728 5.92632 54.0008 29.002L36.5463 24.5355 13.0917 25.6523" fill="#DFABE4" fill-rule="evenodd" transform="matrix(-1 0 0 1 530 1007)"/></g></svg>