<svg width="1761" height="1761" xmlns="http://www.w3.org/2000/svg" xmlns:xlink="http://www.w3.org/1999/xlink" overflow="hidden"><defs><clipPath id="clip0"><rect x="0" y="0" width="1761" height="1761"/></clipPath></defs><g clip-path="url(#clip0)"><path d="M922 1065.37C916.09 1046.18 906.487 1029.21 893.19 1014.45L869.92 992.312C839.634 971.651 807.498 965.379 773.517 973.496 735.844 986.04 706.295 1007.07 684.872 1036.59 671.575 1055.04 663.08 1075.7 659.386 1098.57 667.512 1133.99 682.286 1156.87 703.709 1167.2 724.393 1177.53 745.076 1184.91 765.761 1189.34 786.445 1193.03 810.453 1187.12 837.786 1171.63 864.38 1156.13 884.325 1136.21 897.622 1111.86L922 1066.48C920.522 1083.45 913.874 1100.05 902.054 1116.28L868.812 1151.7 844.434 1171.63C811.931 1190.81 778.688 1197.08 744.708 1190.44 707.033 1179.37 680.07 1157.24 663.818 1124.03 646.089 1087.14 650.152 1053.56 676.007 1023.31 701.862 993.051 725.871 974.234 748.031 966.855L801.22 958C835.939 960.214 866.226 974.234 892.082 1000.06L916.459 1034.38 922 1059.83 922 1065.37" fill-rule="evenodd"/><path d="M922 1066.69 897.586 1112.21C884.27 1136.64 864.295 1156.62 837.662 1172.16 810.289 1187.71 786.246 1193.63 765.532 1189.93 744.817 1185.49 724.103 1178.08 703.388 1167.72 681.934 1157.36 667.138 1134.42 659 1098.89 662.699 1075.95 671.207 1055.23 684.523 1036.73 705.978 1007.12 735.57 986.027 773.299 973.444 807.33 965.303 839.511 971.594 869.844 992.318L893.147 1014.53C906.464 1029.33 916.081 1046.35 922 1065.58L922 1066.69" fill="#FFFFFF" fill-rule="evenodd"/><path d="M936.454 933.2 942 942 916.487 913.4C903.177 903.866 888.386 898 872.118 895.8L818.873 888.1 778.94 889.2 741.226 893.6 697.964 906.8 670.234 916.7C668.755 907.9 674.301 902.4 686.871 900.2L754.536 881.5 791.142 877.1 826.638 876 858.807 880.4 898.739 890.3C907.613 893.233 920.185 907.533 936.454 933.2" fill="#000000" fill-rule="evenodd" fill-opacity="0.501961"/><path d="M138.15 107.714C135.118 88.528 130.193 71.5566 123.37 56.7983L111.433 34.6612C95.8955 14.0002 79.4099 7.72785 61.977 15.8448 42.6498 28.3892 27.4908 49.4195 16.5008 78.9354 9.67896 97.3829 5.32085 118.044 3.42606 140.919 7.59466 176.338 15.1742 199.213 26.1642 209.544 36.7756 219.874 47.3866 227.254 57.998 231.681 68.6093 235.37 80.926 229.467 94.9479 213.971 108.59 198.475 118.823 178.552 125.645 154.201L138.15 108.82C137.393 125.792 133.981 142.395 127.918 158.629L110.865 194.048 98.3584 213.971C81.684 233.157 64.6299 239.429 47.1974 232.788 27.8695 221.719 14.0374 199.582 5.69988 166.377-3.39538 129.482-1.31108 95.9072 11.9528 65.6531 25.217 35.3991 37.5333 16.5827 48.9027 9.20389L76.1888 0.349067C94.0003 2.56295 109.538 16.5827 122.803 42.4093L135.308 76.7215 138.15 102.179 138.15 107.714" fill-rule="evenodd" transform="matrix(-1 1.22465e-16 1.22465e-16 1 554 967)"/><path d="M135.151 96.6172 122.618 141.929C115.784 166.243 105.531 186.136 91.8594 201.609 77.8089 217.081 65.4666 222.975 54.834 219.291 44.2009 214.871 33.5679 207.503 22.9352 197.188 11.9225 186.873 4.32743 164.033 0.150168 128.667 2.04892 105.827 6.41606 85.1968 13.2516 66.7774 24.264 37.3059 39.4541 16.3077 58.8214 3.78235 76.2896-4.32238 92.8087 1.94027 108.379 22.5703L120.341 44.6739C127.175 59.4095 132.113 76.3553 135.151 95.5115L135.151 96.6172" fill="#FFFFFF" fill-rule="evenodd" transform="matrix(-1 1.22465e-16 1.22465e-16 1 551 979)"/><path d="M137.291 58.3863 140.146 67.3195 127.014 38.2857C120.163 28.6078 112.55 22.6527 104.177 20.4193L76.7719 12.6022 56.2181 13.7191 36.8065 18.1855 14.5399 31.5859 0.266402 41.636C-0.494902 32.7024 2.36008 27.1191 8.83027 24.8861L43.6575 5.90241 62.4984 1.43562 80.7683 0.319108 97.3257 4.78554 117.879 14.8356C122.447 17.8137 128.917 32.3303 137.291 58.3863" fill="#000000" fill-rule="evenodd" fill-opacity="0.501961" transform="matrix(-1 1.22465e-16 1.22465e-16 1 545 884)"/><path d="M758.386 980 761.421 980 783.065 983.413 802.432 992.513 800.153 993.65 802.432 992.513 783.065 983.413 804.71 992.513 820.659 1006.16 834.329 1022.09C843.443 1036.5 848 1052.8 848 1071L841.165 1107.4 832.051 1123.32C833.57 1119.91 833.855 1116.88 832.906 1114.22L830.878 1112.11 830.878 1112.11 832.905 1114.23C833.854 1116.88 833.57 1119.91 832.051 1123.32L822.937 1132.42 820.659 1134.7 809.267 1144.94 809.264 1144.94 809.267 1144.94 796.736 1152.9 796.736 1152.9 794.587 1152.61 784.775 1157.73C776.041 1160.58 766.737 1162 756.864 1162 731.042 1162 709.398 1152.9 691.93 1134.7L674.842 1110.81 685.998 1119.45 685.998 1119.45 674.842 1110.81 669.146 1097.16 669.146 1094.89 668.007 1093.75 668.007 1092.61 666 1073.58 667.967 1066.55C672.229 1056.19 677.694 1046.39 684.364 1037.14 700.482 1014.94 721.187 997.524 746.477 984.898Z" fill="#5E2D5B" fill-rule="evenodd"/><path d="M781.872 1095.87C789.474 1089.03 798.594 1085.23 809.235 1084.47 824.437 1086.75 829.378 1094.35 824.057 1107.28L824.057 1108.42C816.456 1125.14 804.295 1135.02 787.573 1138.06L779.592 1139.2C775.792 1139.96 773.131 1138.44 771.612 1134.64 765.531 1122.48 767.051 1111.46 776.173 1101.57L780.732 1097.01 781.872 1095.87M841.159 1107.28 829.758 1087.89 830.898 1070.79 827.477 1045.71 826.337 1043.43C831.658 1041.15 832.418 1035.45 828.617 1026.33L834.318 1021.77C843.439 1036.21 848 1052.55 848 1070.79L841.159 1107.28M804.675 992.121 800.115 993.261 802.396 992.121 783.012 983 804.675 992.121M669 1094.73 669 1097.01 669 1094.73M674.701 1110.7C683.822 1121.34 693.323 1125.14 703.204 1122.1L704.345 1123.24C718.026 1137.68 735.508 1144.9 756.791 1144.9L767.051 1144.9 771.612 1149.46 796.694 1152.88 809.235 1144.9C794.033 1156.3 776.552 1162 756.791 1162 730.948 1162 709.285 1152.88 691.803 1134.64L674.701 1110.7M784.153 1140.34 785.293 1139.2 786.433 1140.34 784.153 1140.34" fill="#B059AC" fill-rule="evenodd"/><path d="M785.244 1139.34 784.106 1140.48 786.382 1140.48ZM756.819 980 761.349 980 782.968 983.415 802.312 992.52 800.036 993.658 804.588 992.52 820.518 1006.18 834.173 1022.11 828.483 1026.66C832.276 1035.77 831.518 1041.46 826.208 1043.74L827.346 1046.01 830.759 1071.05 829.621 1088.12 841 1107.47 831.897 1123.41C834.931 1116.58 833.035 1111.27 826.208 1107.47L823.932 1108.61 823.932 1107.47C829.242 1094.57 824.311 1086.99 809.14 1084.71 798.519 1085.47 789.416 1089.26 781.831 1096.09 788.658 1089.26 792.071 1081.3 792.071 1072.19 792.071 1062.33 788.658 1054.36 781.831 1048.29L770.452 1040.32 775.003 1034.63 777.279 1026.66 813.691 1031.22C798.519 1007.7 774.245 998.211 740.867 1002.76 722.661 1007.32 709.386 1016.8 701.041 1031.22L728.35 1027.8 727.212 1039.18 734.039 1047.15 732.902 1048.29C726.074 1054.36 723.04 1062.33 723.799 1072.19L723.799 1077.88 699.903 1082.43C689.283 1084.71 683.973 1091.54 683.973 1102.92L686.249 1106.34C699.903 1114.68 713.937 1114.68 728.35 1106.34L736.315 1099.51 757.935 1106.34C766.279 1106.34 773.865 1103.3 780.693 1097.23L776.141 1101.78C767.038 1111.65 765.521 1122.65 771.589 1134.79 773.107 1138.58 775.762 1140.1 779.555 1139.34L787.52 1138.2 800.036 1141.62 822.794 1132.51 820.518 1134.79 809.14 1145.03 796.623 1153 771.589 1149.59 767.038 1145.03 756.797 1145.03C735.557 1145.03 718.109 1137.82 704.455 1123.41L703.317 1122.27C693.455 1125.3 683.973 1121.51 674.87 1110.89L669.18 1097.23 669.18 1094.95 668.043 1093.82 668.043 1092.68 666 1073.26 668.04 1065.97C672.296 1055.6 677.755 1045.79 684.417 1036.54 700.517 1014.33 721.198 996.902 746.458 984.269Z" fill="#5E2D5B" fill-rule="evenodd"/><path d="M728.28 1028.13 777.103 1027 774.832 1034.9 770.29 1040.55 781.644 1048.45C788.457 1054.47 791.863 1062.37 791.863 1072.15 791.863 1081.18 788.457 1089.08 781.644 1095.85L780.509 1096.98C773.697 1103 766.127 1106.01 757.801 1106.01L736.228 1099.24 728.28 1106.01C713.899 1114.29 699.895 1114.29 686.271 1106.01L684 1102.63C684 1091.34 689.298 1084.57 699.895 1082.31L723.739 1077.79 723.739 1072.15C722.982 1062.37 726.01 1054.47 732.822 1048.45L733.958 1047.32 727.145 1039.42 728.28 1028.13M823.654 1108.27 825.925 1107.14C832.739 1110.9 834.63 1116.17 831.603 1122.94L822.519 1131.97 799.811 1141 787.321 1137.62C803.974 1134.61 816.085 1124.82 823.654 1108.27" fill-rule="evenodd"/><path d="M728.152 1027.65 701 1031C709.297 1016.86 722.496 1007.55 740.595 1003.09 773.782 998.619 797.915 1007.93 813 1031L776.798 1026.54 728.152 1027.65" fill="#DFABE4" fill-rule="evenodd"/><path d="M681 1069.5C681 1027.25 715.25 993 757.5 993 799.75 993 834 1027.25 834 1069.5 834 1111.75 799.75 1146 757.5 1146 715.25 1146 681 1111.75 681 1069.5Z" fill="#B67ED3" fill-rule="evenodd"/><path d="M679 1090.96C692.223 1099.55 707 1103.84 723.334 1103.84 745.889 1103.84 765.334 1096.04 781.666 1080.43 797.222 1064.04 805 1044.53 805 1021.9L802.666 1002 816.666 1013.71C832.222 1029.31 840 1048.43 840 1071.06 840 1093.69 832.222 1113.2 816.666 1129.59 800.333 1145.2 780.888 1153 758.333 1153 735.778 1153 716.723 1145.2 701.167 1129.59 689.5 1117.89 682.111 1105.01 679 1090.96" fill="#A560CA" fill-rule="evenodd"/><path d="M756.81 1000.88C717.515 1000.88 685.659 1032.66 685.659 1071.85 685.659 1111.04 717.515 1142.81 756.81 1142.81 796.106 1142.81 827.962 1111.04 827.962 1071.85 827.962 1032.66 796.106 1000.88 756.81 1000.88ZM757.683 979 775.307 980.772C817.364 989.355 849 1026.47 849 1070.95 849 1121.79 807.679 1163 756.707 1163 712.106 1163 674.894 1131.45 666.288 1089.5L665 1076.76 668.322 1064.91C672.574 1054.58 678.028 1044.81 684.683 1035.59 700.767 1013.47 721.427 996.112 746.662 983.528Z" fill="#8B3CB7" fill-rule="evenodd"/><path d="M780.492 1046.5 791 1071 780.492 1095.5 755.974 1106 731.456 1095.5 722.116 1079.17 722.116 1071C721.339 1060.89 724.452 1052.72 731.456 1046.5L755.974 1036 774.654 1041.83 780.492 1046.5" fill="#351748" fill-rule="evenodd"/><path d="M0.16569 76.8613C0.16569 34.6115 18.0743 0.361341 40.1656 0.361341 62.2572 0.361341 80.1658 34.6115 80.1658 76.8613 80.1658 119.112 62.2572 153.361 40.1656 153.361 18.0743 153.361 0.16569 119.112 0.16569 76.8613Z" fill="#B67ED3" fill-rule="evenodd" transform="matrix(-1 1.22465e-16 1.22465e-16 1 539 1001)"/><path d="M0.164607 88.737C7.06328 97.2641 14.7734 101.528 23.2951 101.528 35.063 101.528 45.208 93.7759 53.7299 78.2719 61.8459 61.9928 65.9036 42.6129 65.9036 20.1322L64.6864 0.364589 71.9905 11.9928C80.1067 27.4969 84.1645 46.4891 84.1645 68.9694 84.1645 91.4501 80.1067 110.83 71.9905 127.109 63.4688 142.613 53.3239 150.365 41.5559 150.365 29.7876 150.365 19.8459 142.613 11.7297 127.109 5.64283 115.481 1.78793 102.69 0.164607 88.737" fill="#A560CA" fill-rule="evenodd" transform="matrix(-1 1.22465e-16 1.22465e-16 1 540 1010)"/><path d="M48.5631 22.3599C27.8472 22.3599 11.0536 54.3038 11.0536 93.7089 11.0536 133.113 27.8472 165.059 48.5631 165.059 69.2788 165.059 86.0723 133.113 86.0723 93.7089 86.0723 54.3038 69.2788 22.3599 48.5631 22.3599ZM49.023 0.355927 58.314 2.13737C80.4851 10.7673 97.1631 48.0823 97.1631 92.8072 97.1631 143.921 75.3797 185.357 48.5083 185.357 24.9958 185.357 5.37862 153.632 0.841808 111.459L0.162802 98.6446 1.91392 86.7333C4.15561 76.3518 7.03083 66.5263 10.5392 57.257 19.0183 35.0105 29.9094 17.561 43.213 4.90826Z" fill="#8B3CB7" fill-rule="evenodd" transform="matrix(-1 1.22465e-16 1.22465e-16 1 548 986)"/><path d="M30.6912 10.7272 36.1734 34.8771 30.6912 59.027 17.8992 69.3773 5.1075 59.027 0.234276 42.9273 0.234276 34.8771C-0.171826 24.9105 1.45258 16.8603 5.1075 10.7272L17.8992 0.376862 27.6452 6.12726 30.6912 10.7272" fill="#351748" fill-rule="evenodd" transform="matrix(-1 1.22465e-16 1.22465e-16 1 516 1044)"/></g></svg>