<svg width="1761" height="1761" xmlns="http://www.w3.org/2000/svg" xmlns:xlink="http://www.w3.org/1999/xlink" overflow="hidden"><defs><clipPath id="clip0"><rect x="0" y="0" width="1761" height="1761"/></clipPath></defs><g clip-path="url(#clip0)"><path d="M0.138616 84.5745 5.12157 50.4698 8.99741 45.1406 43.3265 17.4303 59.937 8.90431 110.877 0.378308C129.333 1.08872 147.235 9.96992 164.585 27.0226L165.139 27.0226 162.924 35.5486 151.85 52.601 115.86 93.1008 15.642 99.4952 1.79948 93.1008C48.6788 110.153 86.3296 109.442 114.753 90.9692 135.793 72.4957 149.082 52.9566 154.619 32.3514 141.33 15.2991 119.736 8.5491 89.8365 12.1015 58.8299 15.6543 31.5142 29.5094 7.89028 53.667L0.138616 84.5745" fill-rule="evenodd" transform="matrix(-1 1.22465e-16 1.22465e-16 1 549 1048)"/><path d="M0.142226 73.6215 7.9199 42.7783C31.6236 18.6706 59.031 4.84435 90.1424 1.29917 120.142-2.24602 141.808 4.4895 155.143 21.5068 149.586 42.0689 136.254 61.5676 115.142 80.0029 86.6236 98.4377 48.846 99.147 1.80887 82.1297L0.142226 73.6215" fill="#FFFFFF" fill-rule="evenodd" transform="matrix(-1 1.22465e-16 1.22465e-16 1 549 1059)"/><path d="M637 1127.4 646.574 1093.62 654.02 1088.34 719.973 1060.89 751.886 1052.45 849.752 1044C885.211 1044.71 919.605 1053.5 952.937 1070.39L954 1070.39 949.745 1078.84 928.47 1095.73 859.326 1135.84 666.785 1142.18 640.191 1135.84C730.256 1152.73 802.592 1152.03 857.198 1133.73 897.621 1115.43 923.151 1096.08 933.789 1075.67 908.259 1058.78 866.772 1052.1 809.329 1055.61 749.758 1059.13 697.28 1072.86 651.893 1096.78L637 1127.4" fill-rule="evenodd"/><path d="M637 1127.24 651.853 1096.4C697.12 1072.29 749.459 1058.46 808.871 1054.92 866.161 1051.37 907.538 1058.11 933 1075.13 922.391 1095.69 896.929 1115.19 856.613 1133.62 802.152 1152.06 730.008 1152.77 640.183 1135.75L637 1127.24" fill="#FFFFFF" fill-rule="evenodd"/><path d="M812.478 1054 818.968 1060.73C824.882 1071.93 824.291 1086.53 817.194 1104.52L807.056 1115.72 800.973 1117.76C770.558 1125.23 752.985 1114.03 748.253 1084.15 747.578 1076.35 748.254 1069.39 750.281 1063.28L751.357 1061.6 765.543 1058.64 767.874 1058.39 763.461 1071.93C762.109 1077.36 764.137 1081.78 769.544 1085.17 791.848 1101.46 803.338 1096.37 804.014 1069.9L804.014 1068.88 795.126 1055.48 808.352 1054.08Z" fill="#70AD47" fill-rule="evenodd"/><path d="M830.518 1053 835 1077.17C835 1097.08 828.189 1114.24 814.569 1128.66 807.418 1135.52 799.586 1140.67 791.073 1144.11L785.234 1145.2 761.662 1147 747.96 1146.33 736.164 1144.11C727.821 1140.67 720.244 1135.52 713.434 1128.66 703.218 1118.36 696.748 1107.03 694.024 1094.68L692 1077.34 725.143 1066.5C751.254 1059.55 779.129 1055.18 808.768 1053.4Z" fill-rule="evenodd"/><path d="M768.172 1137 751.782 1137C730.612 1136.32 719.685 1126.72 719.002 1108.2 719.002 1099.29 723.782 1092.43 733.343 1087.63L755.88 1079.4C775.685 1077.35 790.709 1083.18 800.953 1096.89L803.002 1110.26C798.904 1128.09 787.294 1137 768.172 1137" fill="#E20303" fill-rule="evenodd"/><path d="M794.924 1055 804 1068.92 804 1069.95C803.324 1096.93 791.822 1102.11 769.495 1085.52 764.083 1082.06 762.053 1077.56 763.406 1072.03L767.921 1057.93Z" fill="#FFFFFF" fill-rule="evenodd"/><path d="M36.9673 0 40.6883 6.83166C44.0789 18.2038 43.74 33.0218 39.671 51.2857L33.8585 62.6578 30.3709 64.7256C12.9331 72.307 2.858 60.9349 0.145298 30.6096-0.242026 22.6837 0.145503 15.6192 1.30789 9.41626L1.92494 7.71518 10.0577 4.70595 11.3943 4.45408 8.86419 18.2038C8.08934 23.7174 9.25172 28.1974 12.3518 31.6433 25.1396 48.1843 31.7272 43.0154 32.1147 16.136L32.1147 15.1023 27.0188 1.50717 34.6016 0.0772721Z" fill="#70AD47" fill-rule="evenodd" transform="matrix(-1 0 0 1 491 1058)"/><path d="M79.4295 0 81.9998 23.9148C81.9998 43.6116 78.0945 60.5915 70.2839 74.8544 66.1835 81.6464 61.6924 86.7405 56.8109 90.1363L53.4628 91.2146 39.9462 92.9998 32.0889 92.3353 25.3246 90.1363C20.5405 86.7405 16.1959 81.6464 12.2907 74.8544 6.43282 64.6665 2.7227 53.4597 1.1607 41.2341L0 24.0772 19.005 13.3595C33.9776 6.47987 49.9619 2.15876 66.9579 0.397628Z" fill-rule="evenodd" transform="matrix(-1 0 0 1 523 1058)"/><path d="M28.0985 58.0016 18.7327 58.0016C6.63518 57.3158 0.391094 47.7164 0.000825528 29.2029 0.000825528 20.2889 2.7325 13.432 8.19605 8.63229L21.0741 0.403965C32.3913-1.65285 40.9767 4.17527 46.8304 17.889L48.0012 31.2597C45.6596 49.0879 39.0254 58.0016 28.0985 58.0016" fill="#E20303" fill-rule="evenodd" transform="matrix(-1 0 0 1 507 1083)"/><path d="M17.9084 0 23 13.5692 23 14.5809C22.6207 40.8784 16.1683 45.9358 3.64366 29.7527 0.607377 26.381-0.531304 21.9983 0.227816 16.6036L2.76069 2.85356Z" fill="#FFFFFF" fill-rule="evenodd" transform="matrix(-1 0 0 1 482 1060)"/><path d="M978.479 1017.81C970.667 1002.43 957.174 994.733 938 994.733L819.761 1001.03 722.826 1017.81 648.261 1022 644 1019.91 646.13 1007.32 649.326 1001.03 651.456 1001.03 651.456 1009.42 651.456 1015.71 837.87 989.489 914.565 981.098 930.544 979C956.819 979.699 975.283 990.537 985.935 1011.52L987 1013.61 987 1014.66 985.935 1016.76 984.87 1017.81 983.805 1018.86 981.674 1018.86 978.479 1017.81" fill="#000000" fill-rule="evenodd" fill-opacity="0.501961"/><path d="M173.71 40.0624C169.656 24.3222 162.654 16.4524 152.704 16.4524L91.3437 22.8916 41.0396 40.0624 2.34349 44.3552 0.13248 42.2088 1.23816 29.3304 2.89615 22.8916 4.00183 22.8916 4.00183 31.4768 4.00183 37.9157 100.741 11.0865 140.542 2.50124 148.834 0.354845C162.47 1.06995 172.052 12.1593 177.58 33.6229L178.132 35.7693 178.132 36.8428 177.58 38.9889 177.027 40.0624 176.474 41.1353 175.369 41.1353 173.71 40.0624" fill="#000000" fill-rule="evenodd" fill-opacity="0.501961" transform="matrix(-1 1.22465e-16 1.22465e-16 1 545 983)"/></g></svg>