<svg width="1761" height="1761" xmlns="http://www.w3.org/2000/svg" xmlns:xlink="http://www.w3.org/1999/xlink" overflow="hidden"><defs><clipPath id="clip0"><rect x="0" y="0" width="1761" height="1761"/></clipPath></defs><g clip-path="url(#clip0)"><path d="M978.482 1017.81C970.67 1002.43 957.177 994.735 938.003 994.735L819.764 1001.03 722.829 1017.81 648.264 1022 644.003 1019.91 646.133 1007.32 649.329 1001.03 651.459 1001.03 651.459 1009.42 651.459 1015.71 837.873 989.491 914.568 981.101 930.547 979.003C956.822 979.702 975.286 990.539 985.938 1011.52L987.003 1013.61 987.003 1014.66 985.938 1016.76 984.873 1017.81 983.808 1018.86 981.677 1018.86 978.482 1017.81" fill="#000000" fill-rule="evenodd" fill-opacity="0.501961"/><path d="M173.579 39.7107C169.525 23.9705 162.523 16.1008 152.573 16.1008L91.2127 22.5398 40.9085 39.7107 2.21284 44.0033 0.00168904 41.857 1.10726 28.9787 2.76553 22.5398 3.8711 22.5398 3.8711 31.125 3.8711 37.564 100.61 10.7349 140.411 2.14959 148.703 0.00327904C162.339 0.718474 171.921 11.8078 177.449 33.2713L178.001 35.4177 178.001 36.491 177.449 38.6373 176.896 39.7107 176.343 40.7836 175.238 40.7836 173.579 39.7107" fill="#000000" fill-rule="evenodd" fill-opacity="0.501961" transform="matrix(-1 0 0 1 545 983)"/><path d="M0.00169179 84.1992 4.98475 50.0945 8.86063 44.7655 43.1896 17.0554 59.8003 8.52933 110.74 0.00325644C129.196 0.713522 147.099 9.59491 164.448 26.6474L165.002 26.6474 162.787 35.1735 151.713 52.226 115.723 92.7256 15.505 99.1202 1.66265 92.7256C48.5418 109.778 86.1929 109.067 114.616 90.5941 135.656 72.1207 148.945 52.5813 154.482 31.9764 141.193 14.9239 119.599 8.17402 89.6998 11.7264 58.6929 15.2792 31.3775 29.1343 7.75326 53.292L0.00169179 84.1992" fill-rule="evenodd" transform="matrix(-1 0 0 1 549 1048)"/><path d="M0.00169748 73.2423 7.77937 42.3989C31.4832 18.2914 58.8905 4.46506 90.0018 0.92002 120.002-2.62538 141.668 4.11048 155.002 21.1276 149.446 41.6898 136.113 61.1886 115.002 79.6236 86.4831 98.0587 48.7053 98.7678 1.66825 81.7507L0.00169748 73.2423" fill="#FFFFFF" fill-rule="evenodd" transform="matrix(-1 0 0 1 549 1059)"/><path d="M637.003 1127.4 646.577 1093.62 654.023 1088.34 719.976 1060.89 751.889 1052.45 849.755 1044C885.214 1044.71 919.608 1053.5 952.94 1070.39L954.003 1070.39 949.748 1078.84 928.473 1095.73 859.329 1135.84 666.788 1142.18 640.194 1135.84C730.259 1152.73 802.595 1152.03 857.201 1133.73 897.624 1115.43 923.154 1096.08 933.792 1075.67 908.262 1058.78 866.775 1052.1 809.332 1055.61 749.761 1059.13 697.283 1072.86 651.896 1096.78L637.003 1127.4" fill-rule="evenodd"/><path d="M637.003 1127.24 651.856 1096.4C697.123 1072.29 749.462 1058.46 808.874 1054.92 866.164 1051.37 907.541 1058.11 933.003 1075.13 922.394 1095.69 896.932 1115.19 856.616 1133.62 802.155 1152.06 730.011 1152.77 640.186 1135.75L637.003 1127.24" fill="#FFFFFF" fill-rule="evenodd"/><path d="M833.844 1053 838 1073.49C838 1103.98 819.386 1130.13 792.857 1141.3L782.602 1144.47 762.33 1146 748.33 1145.32 735.317 1141.3C717.632 1133.85 703.464 1119.75 695.983 1102.14L691 1077.56 708.337 1071.98 707.964 1073.82 708.98 1078.83 719.519 1073.43C725.008 1071.58 732.604 1070.71 742.267 1068.7 751.93 1066.69 762.8 1062.04 777.496 1061.36L790.793 1056.79 816.87 1054.59 833.844 1053Z" fill="#1B92AF" fill-rule="evenodd"/><path d="M797 1056 796.082 1060.98C792.995 1068.74 788.364 1075.87 782.189 1082.39 769.223 1094.8 753.786 1101 735.881 1101 722.914 1101 711.183 1097.59 700.686 1090.76L699 1076.36 725.451 1067.76C738.563 1064.29 752.119 1061.47 766.118 1059.28Z" fill="#00CCFF" fill-rule="evenodd"/><path d="M824.387 1055 828 1074.27C828 1092.15 821.817 1107.56 809.449 1120.51 796.464 1132.84 781.005 1139 763.072 1139 745.14 1139 729.99 1132.84 717.623 1120.51 708.348 1111.26 702.474 1101.09 700 1089.99 710.512 1096.77 722.261 1100.16 735.246 1100.16 753.179 1100.16 768.638 1094 781.623 1081.67 787.807 1075.2 792.445 1068.11 795.536 1060.4L796.238 1056.62 808.98 1055.28Z" fill="#24BBDB" fill-rule="evenodd"/><path d="M783.959 1056 791 1073.22 782.763 1093.37 763.542 1102 744.322 1093.37 737 1079.94 737 1073.22 740.532 1063.5 765.716 1058.02Z" fill="#0D4A53" fill-rule="evenodd"/><path d="M833.844 1053 838 1073.71C838 1104.52 819.386 1130.96 792.857 1142.25L782.602 1145.46 762.33 1147 748.33 1146.32 735.317 1142.25C717.632 1134.72 703.464 1120.47 695.983 1102.67L691 1077.83 708.337 1072.19 707.964 1074.05C707.964 1105.47 733.274 1130.94 764.496 1130.94 795.719 1130.94 821.029 1105.47 821.029 1074.05L816.87 1053.31Z" fill="#1B92AF" fill-rule="evenodd"/><path d="M72.8797 0 74.9999 20.4946C74.9999 50.9766 65.5029 77.1304 51.968 88.3021L46.7359 91.4714 36.393 92.9998 29.2499 92.3239 22.6108 88.3021C13.5877 80.8541 6.35897 66.7476 2.54237 49.1393L0 24.5646 14.5507 15.297C17.3513 13.4529 21.3881 12.0318 27.4488 9.92482 33.5095 7.81783 44.6906 4.23374 50.9146 2.65466L64.7938 0.451063 72.8797 0Z" fill="#1A7812" fill-rule="evenodd" transform="matrix(-1 0 0 1 520 1058)"/><path d="M49.9998 0 49.5313 4.98268C47.9562 12.7378 45.5935 19.8727 42.4433 26.387 35.8277 38.7954 27.9522 44.9997 18.8166 44.9997 12.2013 44.9997 6.21573 41.5875 0.86039 34.7627L0 20.3598 13.4952 11.7639C20.1853 8.29189 27.1015 5.46506 34.2438 3.28418Z" fill="#00CCFF" fill-rule="evenodd" transform="matrix(-1 0 0 1 516 1061)"/><path d="M63.165 0 65 19.2715C65 37.1487 61.8599 52.5602 55.5797 65.5061 48.9854 77.8353 41.1352 83.9999 32.0289 83.9999 22.9227 83.9999 15.2295 77.8353 8.94926 65.5061 4.23911 56.2591 1.25615 46.0875 0 34.9911 5.33831 41.7724 11.3044 45.1628 17.8985 45.1628 27.0049 45.1628 34.8551 38.9982 41.4492 26.669 44.5893 20.1962 46.9445 13.1069 48.5145 5.40133L48.8707 1.62458 55.3416 0.280013Z" fill="#24BBDB" fill-rule="evenodd" transform="matrix(-1 0 0 1 515 1060)"/><path d="M23.4795 0 27.0002 17.2204 22.8815 37.366 13.2713 45.9997 3.66101 37.366 0 23.9355 0 17.2204 1.76621 7.50093 14.3581 2.02375Z" fill="#0D4A53" fill-rule="evenodd" transform="matrix(-1 0 0 1 496 1061)"/><path d="M72.8797 0 74.9999 20.4946C74.9999 50.9766 65.5029 77.1304 51.968 88.3021L46.7359 91.4714 36.393 92.9998 29.2499 92.3239 22.6108 88.3021C13.5877 80.8541 6.35897 66.7476 2.54237 49.1393L0 24.5646 8.84522 18.982 8.65493 20.8214C8.65493 51.9075 21.5685 77.1077 37.4981 77.1077 53.4278 77.1077 66.3413 51.9075 66.3413 20.8214L64.2191 0.30849Z" fill="#1B92AF" fill-rule="evenodd" transform="matrix(-1 0 0 1 520 1059)"/></g></svg>