<svg width="1761" height="1761" xmlns="http://www.w3.org/2000/svg" xmlns:xlink="http://www.w3.org/1999/xlink" overflow="hidden"><defs><clipPath id="clip0"><rect x="0" y="0" width="1761" height="1761"/></clipPath></defs><g clip-path="url(#clip0)"><path d="M978.482 1017.81C970.67 1002.43 957.177 994.735 938.003 994.735L819.764 1001.03 722.829 1017.81 648.264 1022 644.003 1019.91 646.133 1007.32 649.329 1001.03 651.459 1001.03 651.459 1009.42 651.459 1015.71 837.873 989.491 914.568 981.101 930.547 979.003C956.822 979.702 975.286 990.539 985.938 1011.52L987.003 1013.61 987.003 1014.66 985.938 1016.76 984.873 1017.81 983.808 1018.86 981.677 1018.86 978.482 1017.81" fill="#000000" fill-rule="evenodd" fill-opacity="0.501961"/><path d="M173.579 39.7107C169.525 23.9705 162.523 16.1008 152.573 16.1008L91.2127 22.5398 40.9085 39.7107 2.21284 44.0033 0.00168904 41.857 1.10726 28.9787 2.76553 22.5398 3.8711 22.5398 3.8711 31.125 3.8711 37.564 100.61 10.7349 140.411 2.14959 148.703 0.00327904C162.339 0.718474 171.921 11.8078 177.449 33.2713L178.001 35.4177 178.001 36.491 177.449 38.6373 176.896 39.7107 176.343 40.7836 175.238 40.7836 173.579 39.7107" fill="#000000" fill-rule="evenodd" fill-opacity="0.501961" transform="matrix(-1 0 0 1 545 983)"/><path d="M0.00169179 84.1992 4.98475 50.0945 8.86063 44.7655 43.1896 17.0554 59.8003 8.52933 110.74 0.00325644C129.196 0.713522 147.099 9.59491 164.448 26.6474L165.002 26.6474 162.787 35.1735 151.713 52.226 115.723 92.7256 15.505 99.1202 1.66265 92.7256C48.5418 109.778 86.1929 109.067 114.616 90.5941 135.656 72.1207 148.945 52.5813 154.482 31.9764 141.193 14.9239 119.599 8.17402 89.6998 11.7264 58.6929 15.2792 31.3775 29.1343 7.75326 53.292L0.00169179 84.1992" fill-rule="evenodd" transform="matrix(-1 0 0 1 549 1048)"/><path d="M0.00169748 73.2423 7.77937 42.3989C31.4832 18.2914 58.8905 4.46506 90.0018 0.92002 120.002-2.62538 141.668 4.11048 155.002 21.1276 149.446 41.6898 136.113 61.1886 115.002 79.6236 86.4831 98.0587 48.7053 98.7678 1.66825 81.7507L0.00169748 73.2423" fill="#FFFFFF" fill-rule="evenodd" transform="matrix(-1 0 0 1 549 1059)"/><path d="M637.003 1127.4 646.577 1093.62 654.023 1088.34 719.976 1060.89 751.889 1052.45 849.755 1044C885.214 1044.71 919.608 1053.5 952.94 1070.39L954.003 1070.39 949.748 1078.84 928.473 1095.73 859.329 1135.84 666.788 1142.18 640.194 1135.84C730.259 1152.73 802.595 1152.03 857.201 1133.73 897.624 1115.43 923.154 1096.08 933.792 1075.67 908.262 1058.78 866.775 1052.1 809.332 1055.61 749.761 1059.13 697.283 1072.86 651.896 1096.78L637.003 1127.4" fill-rule="evenodd"/><path d="M637.003 1127.24 651.856 1096.4C697.123 1072.29 749.462 1058.46 808.874 1054.92 866.164 1051.37 907.541 1058.11 933.003 1075.13 922.394 1095.69 896.932 1115.19 856.616 1133.62 802.155 1152.06 730.011 1152.77 640.186 1135.75L637.003 1127.24" fill="#FFFFFF" fill-rule="evenodd"/><path d="M825.217 1054 836 1079.37 814.644 1129.61 774.203 1147.08 762.217 1148 756.945 1147.74 714.983 1129.61 696 1096.11 696 1079.37 696.306 1076.95 725.571 1067.41C751.772 1060.45 779.744 1056.07 809.485 1054.29Z" fill-rule="evenodd"/><path d="M72.9155 0 79.0001 25.0977 66.9493 74.8056 44.129 92.0947 37.3654 93.0002 34.3906 92.7451 10.7119 74.8056 0 41.667 0 25.0977 0.172559 22.708 16.6867 13.2663C31.4716 6.37901 47.2554 2.05223 64.0381 0.286341Z" fill-rule="evenodd" transform="matrix(-1 0 0 1 520 1056)"/></g></svg>
