<svg width="1761" height="1761" xmlns="http://www.w3.org/2000/svg" xmlns:xlink="http://www.w3.org/1999/xlink" overflow="hidden"><defs><clipPath id="clip0"><rect x="0" y="0" width="1761" height="1761"/></clipPath></defs><g clip-path="url(#clip0)"><path d="M978.482 1017.81C970.67 1002.43 957.177 994.735 938.003 994.735L819.764 1001.03 722.829 1017.81 648.264 1022 644.003 1019.91 646.133 1007.32 649.329 1001.03 651.459 1001.03 651.459 1009.42 651.459 1015.71 837.873 989.491 914.568 981.101 930.547 979.003C956.822 979.702 975.286 990.539 985.938 1011.52L987.003 1013.61 987.003 1014.66 985.938 1016.76 984.873 1017.81 983.808 1018.86 981.677 1018.86 978.482 1017.81" fill="#000000" fill-rule="evenodd" fill-opacity="0.501961"/><path d="M173.579 39.7107C169.525 23.9705 162.523 16.1008 152.573 16.1008L91.2127 22.5398 40.9085 39.7107 2.21284 44.0033 0.00168904 41.857 1.10726 28.9787 2.76553 22.5398 3.8711 22.5398 3.8711 31.125 3.8711 37.564 100.61 10.7349 140.411 2.14959 148.703 0.00327904C162.339 0.718474 171.921 11.8078 177.449 33.2713L178.001 35.4177 178.001 36.491 177.449 38.6373 176.896 39.7107 176.343 40.7836 175.238 40.7836 173.579 39.7107" fill="#000000" fill-rule="evenodd" fill-opacity="0.501961" transform="matrix(-1 0 0 1 545 983)"/><path d="M0.00169179 84.1992 4.98475 50.0945 8.86063 44.7655 43.1896 17.0554 59.8003 8.52933 110.74 0.00325644C129.196 0.713522 147.099 9.59491 164.448 26.6474L165.002 26.6474 162.787 35.1735 151.713 52.226 115.723 92.7256 15.505 99.1202 1.66265 92.7256C48.5418 109.778 86.1929 109.067 114.616 90.5941 135.656 72.1207 148.945 52.5813 154.482 31.9764 141.193 14.9239 119.599 8.17402 89.6998 11.7264 58.6929 15.2792 31.3775 29.1343 7.75326 53.292L0.00169179 84.1992" fill-rule="evenodd" transform="matrix(-1 0 0 1 549 1048)"/><path d="M0.00169748 73.2423 7.77937 42.3989C31.4832 18.2914 58.8905 4.46506 90.0018 0.92002 120.002-2.62538 141.668 4.11048 155.002 21.1276 149.446 41.6898 136.113 61.1886 115.002 79.6236 86.4831 98.0587 48.7053 98.7678 1.66825 81.7507L0.00169748 73.2423" fill="#FFFFFF" fill-rule="evenodd" transform="matrix(-1 0 0 1 549 1059)"/><path d="M637.003 1127.4 646.577 1093.62 654.023 1088.34 719.976 1060.89 751.889 1052.45 849.755 1044C885.214 1044.71 919.608 1053.5 952.94 1070.39L954.003 1070.39 949.748 1078.84 928.473 1095.73 859.329 1135.84 666.788 1142.18 640.194 1135.84C730.259 1152.73 802.595 1152.03 857.201 1133.73 897.624 1115.43 923.154 1096.08 933.792 1075.67 908.262 1058.78 866.775 1052.1 809.332 1055.61 749.761 1059.13 697.283 1072.86 651.896 1096.78L637.003 1127.4" fill-rule="evenodd"/><path d="M637.003 1127.24 651.856 1096.4C697.123 1072.29 749.462 1058.46 808.874 1054.92 866.164 1051.37 907.541 1058.11 933.003 1075.13 922.394 1095.69 896.932 1115.19 856.616 1133.62 802.155 1152.06 730.011 1152.77 640.186 1135.75L637.003 1127.24" fill="#FFFFFF" fill-rule="evenodd"/><path d="M834.335 1054.74 837 1074.9 831.47 1104.32 826.153 1095.31 831.47 1104.32 824.096 1117.2C825.325 1114.44 825.555 1111.98 824.787 1109.84L820.839 1105.73 824.787 1109.84C825.555 1111.98 825.325 1114.44 824.095 1117.2L816.722 1124.55 814.878 1126.39 805.661 1134.67 795.522 1141.1 795.521 1141.1 767.141 1147.57 761.502 1148 754.641 1147.67 748.225 1147.08C733.823 1144.32 721.321 1137.42 710.722 1126.39L696.895 1107.08 696.896 1107.08 692.287 1096.05 692.287 1094.21 691.365 1093.29 691.365 1092.37 690 1079.43C701.005 1074.48 712.046 1070.77 723.655 1067.03 749.878 1060.13 779.043 1055.77 808.81 1054L834.335 1054.74Z" fill="#5E2D5B" fill-rule="evenodd"/><path d="M819.255 1103.5C824.787 1106.55 826.324 1110.83 823.865 1116.33L816.489 1123.67 798.048 1131 787.906 1128.25C801.429 1125.81 811.264 1117.86 817.411 1104.42ZM783.369 1056 791.594 1075.08C791.594 1082.41 788.828 1088.83 783.296 1094.33L782.373 1095.25C776.841 1100.14 770.694 1102.58 763.933 1102.58L746.414 1097.08 739.96 1102.58C728.28 1109.3 716.909 1109.3 705.844 1102.58L704 1099.83C704 1090.66 708.303 1085.16 716.909 1083.33L736.271 1079.66 736.271 1075.08 740.946 1062.88 764.849 1057.95Z" fill-rule="evenodd"/><path d="M697 1107.03C704.369 1115.59 712.044 1118.65 720.026 1116.2L720.947 1117.12C732 1128.74 746.123 1134.55 763.316 1134.55L771.605 1134.55 775.29 1138.22 795.553 1140.98 766.175 1147.67 761.745 1148 757.751 1147.81 748.291 1146.94C733.9 1144.19 721.408 1137.31 710.816 1126.3ZM805.684 1085.93C817.965 1087.76 821.956 1093.88 817.658 1104.28L817.658 1105.19C811.518 1118.65 801.693 1126.6 788.184 1129.05L786.342 1129.97 781.737 1129.97C778.667 1130.58 776.518 1129.36 775.29 1126.3 770.377 1116.51 771.605 1107.64 778.974 1099.69L782.658 1096.02 783.579 1095.1C789.719 1089.6 797.088 1086.54 805.684 1085.93ZM831.42 1055 837 1074.92 831.474 1104.28 822.263 1088.68 823.184 1074.92 820.485 1055.2Z" fill="#B059AC" fill-rule="evenodd"/><path d="M70.8111 0 57.2376 0.47769C41.751 2.25554 27.1862 6.61161 13.5436 13.5455L7.77373 17.1447 0 21.8539C0.222693 26.583 0.445747 31.3124 0.66844 36.0415L0.66844 36.9665 1.11995 37.8915 1.11995 39.7414 3.37751 50.8402 3.37715 50.8398 10.1495 70.2632C15.341 81.3624 21.4643 88.2992 28.5181 91.0737L31.661 91.6659 35.0216 91.9998 37.7833 91.5713 51.6836 85.0622 51.6839 85.0622 56.6502 78.5879 61.1646 70.2632 62.0676 68.4137 65.6794 61.0144C66.2815 58.2395 66.3943 55.7728 66.0177 53.615L64.0845 49.4813 66.0181 53.615C66.3943 55.7728 66.2815 58.2395 65.6794 61.0144L69.2911 48.0653 66.6873 38.9961 69.2911 48.0649 71.9998 18.4677 70.8111 0Z" fill="#5E2D5B" fill-rule="evenodd" transform="matrix(-1 0 0 1 517 1058)"/><path d="M57.1515 44.6462 56.237 45.558C53.189 58.9308 48.3121 66.8331 41.6061 69.2644L46.6356 71.9998 55.7797 64.7052 59.4374 57.411C60.6567 51.9404 59.8947 47.6851 57.1515 44.6462ZM39.9146 0 28.325 2.30277 17.9171 6.35742 16.0023 16.3807 16.0023 20.9395 6.40093 24.5868C2.13377 26.4104 0 31.881 0 40.9989L0.914523 43.7344C6.40093 50.4206 12.0399 50.4206 17.8314 43.7344L21.0318 38.2638 29.7187 43.7344C33.0717 43.7344 36.1196 41.3027 38.8629 36.4401L39.3201 35.5283C42.0633 30.0577 43.4351 23.6749 43.4351 16.3807Z" fill-rule="evenodd" transform="matrix(-1 0 0 1 510 1061)"/><path d="M0 52.0292C3.57908 60.5924 7.30705 63.6508 11.1841 61.2039L11.6315 62.1214C16.9999 73.7433 23.8596 79.5543 32.2103 79.5543L36.2366 79.5543 38.0261 83.2241 47.8683 85.9767 33.5991 92.6657 31.4473 92.9998 29.5073 92.8069 24.9127 91.9404C17.9225 89.1877 11.8552 82.3066 6.7106 71.2968ZM52.7891 30.9269C58.7542 32.7616 60.6926 38.8783 58.605 49.2766L58.605 50.1941C55.6225 63.6508 50.8507 71.6025 44.2894 74.0494L43.3946 74.9666 41.1577 74.9666C39.6664 75.5781 38.6226 74.3548 38.0261 71.2968 35.6401 61.51 36.2366 52.641 39.8155 44.6893L41.605 41.0191 42.0523 40.1016C45.0349 34.5967 48.6138 31.5383 52.7891 30.9269ZM65.2895 0 67.9997 19.9164 65.3156 49.2766 60.8417 33.6791 61.2891 19.9164 59.978 0.198668Z" fill="#B059AC" fill-rule="evenodd" transform="matrix(-1 0 0 1 513 1058)"/></g></svg>